G04 #@! TF.GenerationSoftware,KiCad,Pcbnew,8.0.5-8.0.5-0~ubuntu24.04.1*
G04 #@! TF.CreationDate,2024-10-05T12:13:45+09:00*
G04 #@! TF.ProjectId,gopher_rp2040_sw,676f7068-6572-45f7-9270-323034305f73,rev?*
G04 #@! TF.SameCoordinates,Original*
G04 #@! TF.FileFunction,Legend,Top*
G04 #@! TF.FilePolarity,Positive*
%FSLAX46Y46*%
G04 Gerber Fmt 4.6, Leading zero omitted, Abs format (unit mm)*
G04 Created by KiCad (PCBNEW 8.0.5-8.0.5-0~ubuntu24.04.1) date 2024-10-05 12:13:45*
%MOMM*%
%LPD*%
G01*
G04 APERTURE LIST*
%ADD10C,0.150000*%
%ADD11C,0.100000*%
%ADD12C,0.120000*%
G04 APERTURE END LIST*
D10*
X116753333Y-124985009D02*
X116896190Y-125032628D01*
X116896190Y-125032628D02*
X116943809Y-125080247D01*
X116943809Y-125080247D02*
X116991428Y-125175485D01*
X116991428Y-125175485D02*
X116991428Y-125318342D01*
X116991428Y-125318342D02*
X116943809Y-125413580D01*
X116943809Y-125413580D02*
X116896190Y-125461200D01*
X116896190Y-125461200D02*
X116800952Y-125508819D01*
X116800952Y-125508819D02*
X116420000Y-125508819D01*
X116420000Y-125508819D02*
X116420000Y-124508819D01*
X116420000Y-124508819D02*
X116753333Y-124508819D01*
X116753333Y-124508819D02*
X116848571Y-124556438D01*
X116848571Y-124556438D02*
X116896190Y-124604057D01*
X116896190Y-124604057D02*
X116943809Y-124699295D01*
X116943809Y-124699295D02*
X116943809Y-124794533D01*
X116943809Y-124794533D02*
X116896190Y-124889771D01*
X116896190Y-124889771D02*
X116848571Y-124937390D01*
X116848571Y-124937390D02*
X116753333Y-124985009D01*
X116753333Y-124985009D02*
X116420000Y-124985009D01*
X117420000Y-125508819D02*
X117420000Y-124842152D01*
X117420000Y-125032628D02*
X117467619Y-124937390D01*
X117467619Y-124937390D02*
X117515238Y-124889771D01*
X117515238Y-124889771D02*
X117610476Y-124842152D01*
X117610476Y-124842152D02*
X117705714Y-124842152D01*
X118467619Y-125508819D02*
X118467619Y-124508819D01*
X118467619Y-125461200D02*
X118372381Y-125508819D01*
X118372381Y-125508819D02*
X118181905Y-125508819D01*
X118181905Y-125508819D02*
X118086667Y-125461200D01*
X118086667Y-125461200D02*
X118039048Y-125413580D01*
X118039048Y-125413580D02*
X117991429Y-125318342D01*
X117991429Y-125318342D02*
X117991429Y-125032628D01*
X117991429Y-125032628D02*
X118039048Y-124937390D01*
X118039048Y-124937390D02*
X118086667Y-124889771D01*
X118086667Y-124889771D02*
X118181905Y-124842152D01*
X118181905Y-124842152D02*
X118372381Y-124842152D01*
X118372381Y-124842152D02*
X118467619Y-124889771D01*
X119467619Y-125508819D02*
X118896191Y-125508819D01*
X119181905Y-125508819D02*
X119181905Y-124508819D01*
X119181905Y-124508819D02*
X119086667Y-124651676D01*
X119086667Y-124651676D02*
X118991429Y-124746914D01*
X118991429Y-124746914D02*
X118896191Y-124794533D01*
X87866666Y-127994819D02*
X87866666Y-128709104D01*
X87866666Y-128709104D02*
X87819047Y-128851961D01*
X87819047Y-128851961D02*
X87723809Y-128947200D01*
X87723809Y-128947200D02*
X87580952Y-128994819D01*
X87580952Y-128994819D02*
X87485714Y-128994819D01*
X88866666Y-128994819D02*
X88295238Y-128994819D01*
X88580952Y-128994819D02*
X88580952Y-127994819D01*
X88580952Y-127994819D02*
X88485714Y-128137676D01*
X88485714Y-128137676D02*
X88390476Y-128232914D01*
X88390476Y-128232914D02*
X88295238Y-128280533D01*
X143557142Y-121484819D02*
X143080952Y-121484819D01*
X143080952Y-121484819D02*
X143080952Y-120484819D01*
X143842857Y-121437200D02*
X143985714Y-121484819D01*
X143985714Y-121484819D02*
X144223809Y-121484819D01*
X144223809Y-121484819D02*
X144319047Y-121437200D01*
X144319047Y-121437200D02*
X144366666Y-121389580D01*
X144366666Y-121389580D02*
X144414285Y-121294342D01*
X144414285Y-121294342D02*
X144414285Y-121199104D01*
X144414285Y-121199104D02*
X144366666Y-121103866D01*
X144366666Y-121103866D02*
X144319047Y-121056247D01*
X144319047Y-121056247D02*
X144223809Y-121008628D01*
X144223809Y-121008628D02*
X144033333Y-120961009D01*
X144033333Y-120961009D02*
X143938095Y-120913390D01*
X143938095Y-120913390D02*
X143890476Y-120865771D01*
X143890476Y-120865771D02*
X143842857Y-120770533D01*
X143842857Y-120770533D02*
X143842857Y-120675295D01*
X143842857Y-120675295D02*
X143890476Y-120580057D01*
X143890476Y-120580057D02*
X143938095Y-120532438D01*
X143938095Y-120532438D02*
X144033333Y-120484819D01*
X144033333Y-120484819D02*
X144271428Y-120484819D01*
X144271428Y-120484819D02*
X144414285Y-120532438D01*
X145366666Y-121484819D02*
X144795238Y-121484819D01*
X145080952Y-121484819D02*
X145080952Y-120484819D01*
X145080952Y-120484819D02*
X144985714Y-120627676D01*
X144985714Y-120627676D02*
X144890476Y-120722914D01*
X144890476Y-120722914D02*
X144795238Y-120770533D01*
D11*
X141600000Y-78290000D02*
X141290000Y-80760000D01*
X140460000Y-83080000D01*
X139140000Y-85140000D01*
X137300000Y-86840000D01*
X135040000Y-88090000D01*
X132980000Y-88670000D01*
X130220000Y-88840000D01*
X127650000Y-88400000D01*
X125250000Y-87400000D01*
X123170000Y-85890000D01*
X121490000Y-83900000D01*
X120330000Y-81500000D01*
X120130000Y-80660000D01*
X119970000Y-79270000D01*
X119920000Y-77760000D01*
X120790000Y-77780000D01*
X120630000Y-78480000D01*
X120630000Y-79240000D01*
X120730000Y-79830000D01*
X120920000Y-80450000D01*
X121180000Y-80950000D01*
X121610000Y-81570000D01*
X121970000Y-81940000D01*
X122580000Y-82370000D01*
X123200000Y-82680000D01*
X123930000Y-82870000D01*
X124840000Y-82940000D01*
X125660000Y-82810000D01*
X126350000Y-82580000D01*
X126830000Y-82310000D01*
X127320000Y-81950000D01*
X127940000Y-81270000D01*
X128410000Y-80410000D01*
X128620000Y-79700000D01*
X128690000Y-79170000D01*
X128670000Y-78430000D01*
X128660000Y-78300000D01*
X141350000Y-75780000D01*
X141600000Y-78290000D01*
G36*
X141600000Y-78290000D02*
G01*
X141290000Y-80760000D01*
X140460000Y-83080000D01*
X139140000Y-85140000D01*
X137300000Y-86840000D01*
X135040000Y-88090000D01*
X132980000Y-88670000D01*
X130220000Y-88840000D01*
X127650000Y-88400000D01*
X125250000Y-87400000D01*
X123170000Y-85890000D01*
X121490000Y-83900000D01*
X120330000Y-81500000D01*
X120130000Y-80660000D01*
X119970000Y-79270000D01*
X119920000Y-77760000D01*
X120790000Y-77780000D01*
X120630000Y-78480000D01*
X120630000Y-79240000D01*
X120730000Y-79830000D01*
X120920000Y-80450000D01*
X121180000Y-80950000D01*
X121610000Y-81570000D01*
X121970000Y-81940000D01*
X122580000Y-82370000D01*
X123200000Y-82680000D01*
X123930000Y-82870000D01*
X124840000Y-82940000D01*
X125660000Y-82810000D01*
X126350000Y-82580000D01*
X126830000Y-82310000D01*
X127320000Y-81950000D01*
X127940000Y-81270000D01*
X128410000Y-80410000D01*
X128620000Y-79700000D01*
X128690000Y-79170000D01*
X128670000Y-78430000D01*
X128660000Y-78300000D01*
X141350000Y-75780000D01*
X141600000Y-78290000D01*
G37*
X112780000Y-80280000D02*
X112160000Y-82790000D01*
X111060000Y-85050000D01*
X109260000Y-87190000D01*
X108380000Y-87920000D01*
X107010000Y-88830000D01*
X105860000Y-89400000D01*
X104330000Y-89780000D01*
X102020000Y-89980000D01*
X99630000Y-89790000D01*
X97600000Y-89260000D01*
X96550000Y-88720000D01*
X94710000Y-87330000D01*
X93100000Y-85620000D01*
X91880000Y-83620000D01*
X91220000Y-81440000D01*
X91060000Y-79030000D01*
X91700000Y-79050000D01*
X91610000Y-79590000D01*
X91610000Y-80130000D01*
X91670000Y-80690000D01*
X91910000Y-81410000D01*
X92340000Y-82250000D01*
X93310000Y-83190000D01*
X94320000Y-83700000D01*
X95220000Y-83920000D01*
X96070000Y-83910000D01*
X97010000Y-83700000D01*
X97740000Y-83360000D01*
X98510000Y-82740000D01*
X99240000Y-81690000D01*
X99550000Y-80750000D01*
X99620000Y-80410000D01*
X99650000Y-79670000D01*
X99590000Y-79170000D01*
X99580000Y-79160000D01*
X99490000Y-78700000D01*
X99460000Y-78620000D01*
X112680000Y-77780000D01*
X112780000Y-80280000D01*
G36*
X112780000Y-80280000D02*
G01*
X112160000Y-82790000D01*
X111060000Y-85050000D01*
X109260000Y-87190000D01*
X108380000Y-87920000D01*
X107010000Y-88830000D01*
X105860000Y-89400000D01*
X104330000Y-89780000D01*
X102020000Y-89980000D01*
X99630000Y-89790000D01*
X97600000Y-89260000D01*
X96550000Y-88720000D01*
X94710000Y-87330000D01*
X93100000Y-85620000D01*
X91880000Y-83620000D01*
X91220000Y-81440000D01*
X91060000Y-79030000D01*
X91700000Y-79050000D01*
X91610000Y-79590000D01*
X91610000Y-80130000D01*
X91670000Y-80690000D01*
X91910000Y-81410000D01*
X92340000Y-82250000D01*
X93310000Y-83190000D01*
X94320000Y-83700000D01*
X95220000Y-83920000D01*
X96070000Y-83910000D01*
X97010000Y-83700000D01*
X97740000Y-83360000D01*
X98510000Y-82740000D01*
X99240000Y-81690000D01*
X99550000Y-80750000D01*
X99620000Y-80410000D01*
X99650000Y-79670000D01*
X99590000Y-79170000D01*
X99580000Y-79160000D01*
X99490000Y-78700000D01*
X99460000Y-78620000D01*
X112680000Y-77780000D01*
X112780000Y-80280000D01*
G37*
X131280000Y-67380000D02*
X132870000Y-67540000D01*
X135060000Y-68090000D01*
X136860000Y-69030000D01*
X138560000Y-70490000D01*
X139140000Y-71150000D01*
X139880000Y-72330000D01*
X140540000Y-73370000D01*
X141350000Y-75780000D01*
X128670000Y-78430000D01*
X128430000Y-77430000D01*
X128080000Y-76760000D01*
X127590000Y-76130000D01*
X127030000Y-75640000D01*
X126380000Y-75270000D01*
X125510000Y-74970000D01*
X124730000Y-74880000D01*
X123820000Y-74970000D01*
X123020000Y-75230000D01*
X122370000Y-75590000D01*
X121810000Y-76070000D01*
X121380000Y-76550000D01*
X121080000Y-77050000D01*
X120920000Y-77410000D01*
X120790000Y-77780000D01*
X119890000Y-77740000D01*
X119920000Y-77190000D01*
X119970000Y-76380000D01*
X120630000Y-73790000D01*
X121910000Y-71550000D01*
X123820000Y-69650000D01*
X126360000Y-68140000D01*
X127530000Y-67640000D01*
X128470000Y-67400000D01*
X129660000Y-67320000D01*
X131280000Y-67380000D01*
G36*
X131280000Y-67380000D02*
G01*
X132870000Y-67540000D01*
X135060000Y-68090000D01*
X136860000Y-69030000D01*
X138560000Y-70490000D01*
X139140000Y-71150000D01*
X139880000Y-72330000D01*
X140540000Y-73370000D01*
X141350000Y-75780000D01*
X128670000Y-78430000D01*
X128430000Y-77430000D01*
X128080000Y-76760000D01*
X127590000Y-76130000D01*
X127030000Y-75640000D01*
X126380000Y-75270000D01*
X125510000Y-74970000D01*
X124730000Y-74880000D01*
X123820000Y-74970000D01*
X123020000Y-75230000D01*
X122370000Y-75590000D01*
X121810000Y-76070000D01*
X121380000Y-76550000D01*
X121080000Y-77050000D01*
X120920000Y-77410000D01*
X120790000Y-77780000D01*
X119890000Y-77740000D01*
X119920000Y-77190000D01*
X119970000Y-76380000D01*
X120630000Y-73790000D01*
X121910000Y-71550000D01*
X123820000Y-69650000D01*
X126360000Y-68140000D01*
X127530000Y-67640000D01*
X128470000Y-67400000D01*
X129660000Y-67320000D01*
X131280000Y-67380000D01*
G37*
X121930000Y-91040000D02*
X123230000Y-91640000D01*
X124430000Y-92600000D01*
X125260000Y-93780000D01*
X125610000Y-94970000D01*
X125490000Y-96070000D01*
X124860000Y-96920000D01*
X124740000Y-97000000D01*
X123430000Y-97420000D01*
X121760000Y-97330000D01*
X120020000Y-96790000D01*
X119460000Y-96580000D01*
X117790000Y-96110000D01*
X116180000Y-96120000D01*
X112940000Y-96900000D01*
X111150000Y-97110000D01*
X109760000Y-96940000D01*
X108880000Y-96430000D01*
X108750000Y-96280000D01*
X108310000Y-95150000D01*
X108500000Y-93880000D01*
X109260000Y-92650000D01*
X110180000Y-91870000D01*
X110540000Y-91560000D01*
X110960000Y-91310000D01*
X111520000Y-91110000D01*
X112180000Y-91190000D01*
X113260000Y-91710000D01*
X115460000Y-92280000D01*
X117680000Y-92190000D01*
X119810000Y-91540000D01*
X120590000Y-91160000D01*
X121250000Y-90970000D01*
X121930000Y-91040000D01*
G36*
X121930000Y-91040000D02*
G01*
X123230000Y-91640000D01*
X124430000Y-92600000D01*
X125260000Y-93780000D01*
X125610000Y-94970000D01*
X125490000Y-96070000D01*
X124860000Y-96920000D01*
X124740000Y-97000000D01*
X123430000Y-97420000D01*
X121760000Y-97330000D01*
X120020000Y-96790000D01*
X119460000Y-96580000D01*
X117790000Y-96110000D01*
X116180000Y-96120000D01*
X112940000Y-96900000D01*
X111150000Y-97110000D01*
X109760000Y-96940000D01*
X108880000Y-96430000D01*
X108750000Y-96280000D01*
X108310000Y-95150000D01*
X108500000Y-93880000D01*
X109260000Y-92650000D01*
X110180000Y-91870000D01*
X110540000Y-91560000D01*
X110960000Y-91310000D01*
X111520000Y-91110000D01*
X112180000Y-91190000D01*
X113260000Y-91710000D01*
X115460000Y-92280000D01*
X117680000Y-92190000D01*
X119810000Y-91540000D01*
X120590000Y-91160000D01*
X121250000Y-90970000D01*
X121930000Y-91040000D01*
G37*
X103150000Y-68670000D02*
X104470000Y-68790000D01*
X105600000Y-69110000D01*
X106960000Y-69710000D01*
X109160000Y-71220000D01*
X110890000Y-73160000D01*
X112060000Y-75420000D01*
X112680000Y-77780000D01*
X99460000Y-78620000D01*
X99160000Y-77970000D01*
X98670000Y-77270000D01*
X97900000Y-76560000D01*
X97240000Y-76210000D01*
X96600000Y-75990000D01*
X95642391Y-75923444D01*
X94660000Y-76010000D01*
X93900000Y-76290000D01*
X93170000Y-76730000D01*
X92670000Y-77190000D01*
X92280000Y-77690000D01*
X91930000Y-78360000D01*
X91700000Y-79050000D01*
X91060000Y-79030000D01*
X91340000Y-76630000D01*
X92070000Y-74540000D01*
X92600000Y-73550000D01*
X94340000Y-71440000D01*
X96490000Y-69870000D01*
X98980000Y-68950000D01*
X101940000Y-68610000D01*
X103150000Y-68670000D01*
G36*
X103150000Y-68670000D02*
G01*
X104470000Y-68790000D01*
X105600000Y-69110000D01*
X106960000Y-69710000D01*
X109160000Y-71220000D01*
X110890000Y-73160000D01*
X112060000Y-75420000D01*
X112680000Y-77780000D01*
X99460000Y-78620000D01*
X99160000Y-77970000D01*
X98670000Y-77270000D01*
X97900000Y-76560000D01*
X97240000Y-76210000D01*
X96600000Y-75990000D01*
X95642391Y-75923444D01*
X94660000Y-76010000D01*
X93900000Y-76290000D01*
X93170000Y-76730000D01*
X92670000Y-77190000D01*
X92280000Y-77690000D01*
X91930000Y-78360000D01*
X91700000Y-79050000D01*
X91060000Y-79030000D01*
X91340000Y-76630000D01*
X92070000Y-74540000D01*
X92600000Y-73550000D01*
X94340000Y-71440000D01*
X96490000Y-69870000D01*
X98980000Y-68950000D01*
X101940000Y-68610000D01*
X103150000Y-68670000D01*
G37*
D12*
X128655247Y-78913500D02*
G75*
G02*
X120668535Y-78913500I-3993356J0D01*
G01*
X120668535Y-78913500D02*
G75*
G02*
X128655247Y-78913500I3993356J0D01*
G01*
X99635747Y-79916800D02*
G75*
G02*
X91649035Y-79916800I-3993356J0D01*
G01*
X91649035Y-79916800D02*
G75*
G02*
X99635747Y-79916800I3993356J0D01*
G01*
X92000000Y-77150000D02*
X99300000Y-77150000D01*
X92000000Y-82650000D02*
X99300000Y-82650000D01*
X99300000Y-82650000D02*
X99300000Y-81500000D01*
X121000000Y-76250000D02*
X128300000Y-76250000D01*
X121000000Y-81750000D02*
X128300000Y-81750000D01*
X128300000Y-81750000D02*
X128300000Y-80600000D01*
X104520000Y-112500000D02*
X131920000Y-112500000D01*
X104520000Y-139800000D02*
X104520000Y-112500000D01*
X104942000Y-115795000D02*
X128042000Y-115795000D01*
X104942000Y-132395000D02*
X104942000Y-115795000D01*
X113221000Y-112989000D02*
X113221000Y-115402000D01*
X113221000Y-112989000D02*
X123000000Y-112989000D01*
X123000000Y-112989000D02*
X123000000Y-115402000D01*
X123000000Y-115402000D02*
X113221000Y-115402000D01*
X128042000Y-115795000D02*
X131128000Y-115795000D01*
X128042000Y-132395000D02*
X104942000Y-132395000D01*
X128042000Y-132395000D02*
X131382000Y-132420000D01*
X131382000Y-115783000D02*
X131128000Y-115795000D01*
X131382000Y-132420000D02*
X131382000Y-115783000D01*
X131920000Y-112500000D02*
X131920000Y-139800000D01*
X131920000Y-139800000D02*
X104520000Y-139800000D01*
X136750000Y-148200000D02*
X136750000Y-149700000D01*
X138000000Y-152200000D02*
X142500000Y-152200000D01*
X142500000Y-145700000D02*
X138000000Y-145700000D01*
X143750000Y-149700000D02*
X143750000Y-148200000D01*
X84650000Y-154800000D02*
X84650000Y-156300000D01*
X85900000Y-158800000D02*
X90400000Y-158800000D01*
X90400000Y-152300000D02*
X85900000Y-152300000D01*
X91650000Y-156300000D02*
X91650000Y-154800000D01*
X93450000Y-164700000D02*
X93450000Y-166200000D01*
X94700000Y-168700000D02*
X99200000Y-168700000D01*
X99200000Y-162200000D02*
X94700000Y-162200000D01*
X100450000Y-166200000D02*
X100450000Y-164700000D01*
X87140000Y-129540000D02*
X88200000Y-129540000D01*
X87140000Y-130600000D02*
X87140000Y-129540000D01*
X87140000Y-131600000D02*
X87140000Y-137660000D01*
X87140000Y-131600000D02*
X89260000Y-131600000D01*
X87140000Y-137660000D02*
X89260000Y-137660000D01*
X89260000Y-131600000D02*
X89260000Y-137660000D01*
X93450000Y-145100000D02*
X93450000Y-146600000D01*
X94700000Y-149100000D02*
X99200000Y-149100000D01*
X99200000Y-142600000D02*
X94700000Y-142600000D01*
X100450000Y-146600000D02*
X100450000Y-145100000D01*
X101450000Y-154800000D02*
X101450000Y-156300000D01*
X102700000Y-158800000D02*
X107200000Y-158800000D01*
X107200000Y-152300000D02*
X102700000Y-152300000D01*
X108450000Y-156300000D02*
X108450000Y-154800000D01*
X142350000Y-159000000D02*
X142350000Y-160500000D01*
X143600000Y-163000000D02*
X148100000Y-163000000D01*
X148100000Y-156500000D02*
X143600000Y-156500000D01*
X149350000Y-160500000D02*
X149350000Y-159000000D01*
X137800000Y-129699999D02*
G75*
G02*
X137800000Y-126700000I6400000J1499999D01*
G01*
X150430000Y-128200000D02*
G75*
G02*
X137970000Y-128200000I-6230000J0D01*
G01*
X137970000Y-128200000D02*
G75*
G02*
X150430000Y-128200000I6230000J0D01*
G01*
M02*
