M48
; DRILL file {KiCad 8.0.5-8.0.5-0~ubuntu24.04.1} date 2024-10-05T12:13:48+0900
; FORMAT={-:-/ absolute / inch / decimal}
; #@! TF.CreationDate,2024-10-05T12:13:48+09:00
; #@! TF.GenerationSoftware,Kicad,Pcbnew,8.0.5-8.0.5-0~ubuntu24.04.1
; #@! TF.FileFunction,Plated,1,2,PTH
FMAT,2
INCH
; #@! TA.AperFunction,Plated,PTH,ViaDrill
T1C0.0118
; #@! TA.AperFunction,Plated,PTH,ComponentDrill
T2C0.0315
; #@! TA.AperFunction,Plated,PTH,ComponentDrill
T3C0.0394
; #@! TA.AperFunction,Plated,PTH,ComponentDrill
T4C0.0433
%
G90
G05
T1
X3.6693Y-3.1457
X3.748Y-3.1142
X3.7795Y-3.2087
X3.7913Y-3.0827
X4.1339Y-6.0354
X4.2638Y-4.685
X4.6063Y-6.2795
X4.811Y-3.1102
X4.8858Y-4.6496
X4.9055Y-3.1732
X4.9409Y-3.0472
X5.3071Y-6.2717
X5.3937Y-6.2165
X5.5394Y-5.8268
T2
X3.4724Y-5.1417
X3.4724Y-5.2205
X3.4724Y-5.2992
X3.4724Y-5.378
T3
X4.5Y-4.4961
X4.5575Y-5.8339
X4.5575Y-5.9339
X4.5575Y-6.0339
X4.5575Y-6.1339
X4.5575Y-6.2339
X4.5575Y-6.3339
X4.5575Y-6.4339
X4.5575Y-6.5339
X4.5575Y-6.6339
X4.6Y-4.4961
X4.6575Y-5.8339
X4.7Y-4.4961
X4.7575Y-5.8339
X4.8Y-4.4961
X4.8575Y-5.8339
X4.9575Y-5.8339
X5.0575Y-5.8339
X5.1575Y-5.8339
X5.1575Y-5.9339
X5.1575Y-6.0339
X5.1575Y-6.1339
X5.1575Y-6.2339
X5.1575Y-6.3339
X5.1575Y-6.4339
X5.1575Y-6.5339
X5.1575Y-6.6339
X5.5787Y-5.0472
X5.7756Y-5.0472
T4
X3.3425Y-6.0354
X3.3425Y-6.2126
X3.5984Y-6.0354
X3.5984Y-6.2126
X3.689Y-5.6535
X3.689Y-5.8307
X3.689Y-6.4252
X3.689Y-6.6024
X3.9449Y-5.6535
X3.9449Y-5.8307
X3.9449Y-6.4252
X3.9449Y-6.6024
X4.0039Y-6.0354
X4.0039Y-6.2126
X4.2598Y-6.0354
X4.2598Y-6.2126
X5.3937Y-5.7756
X5.3937Y-5.9528
X5.6142Y-6.2008
X5.6142Y-6.378
X5.6496Y-5.7756
X5.6496Y-5.9528
X5.8701Y-6.2008
X5.8701Y-6.378
M30
