G04 #@! TF.GenerationSoftware,KiCad,Pcbnew,8.0.5-8.0.5-0~ubuntu24.04.1*
G04 #@! TF.CreationDate,2024-10-05T12:13:45+09:00*
G04 #@! TF.ProjectId,gopher_rp2040_sw,676f7068-6572-45f7-9270-323034305f73,rev?*
G04 #@! TF.SameCoordinates,Original*
G04 #@! TF.FileFunction,Copper,L1,Top*
G04 #@! TF.FilePolarity,Positive*
%FSLAX46Y46*%
G04 Gerber Fmt 4.6, Leading zero omitted, Abs format (unit mm)*
G04 Created by KiCad (PCBNEW 8.0.5-8.0.5-0~ubuntu24.04.1) date 2024-10-05 12:13:45*
%MOMM*%
%LPD*%
G01*
G04 APERTURE LIST*
G04 #@! TA.AperFunction,EtchedComponent*
%ADD10C,0.010000*%
G04 #@! TD*
G04 #@! TA.AperFunction,SMDPad,CuDef*
%ADD11R,1.500000X1.000000*%
G04 #@! TD*
G04 #@! TA.AperFunction,ComponentPad*
%ADD12O,1.700000X1.700000*%
G04 #@! TD*
G04 #@! TA.AperFunction,ComponentPad*
%ADD13O,1.600000X2.000000*%
G04 #@! TD*
G04 #@! TA.AperFunction,ComponentPad*
%ADD14C,2.000000*%
G04 #@! TD*
G04 #@! TA.AperFunction,ComponentPad*
%ADD15R,1.350000X1.350000*%
G04 #@! TD*
G04 #@! TA.AperFunction,ComponentPad*
%ADD16O,1.350000X1.350000*%
G04 #@! TD*
G04 #@! TA.AperFunction,ComponentPad*
%ADD17R,2.000000X2.000000*%
G04 #@! TD*
G04 #@! TA.AperFunction,ViaPad*
%ADD18C,0.600000*%
G04 #@! TD*
G04 #@! TA.AperFunction,Conductor*
%ADD19C,0.200000*%
G04 #@! TD*
G04 #@! TA.AperFunction,Conductor*
%ADD20C,0.600000*%
G04 #@! TD*
G04 #@! TA.AperFunction,Conductor*
%ADD21C,0.250000*%
G04 #@! TD*
G04 APERTURE END LIST*
D10*
X124869317Y-59894845D02*
X127830958Y-60127204D01*
X129354612Y-60348256D01*
X133351753Y-61298945D01*
X137127981Y-62643845D01*
X140502220Y-64311145D01*
X142350451Y-65502215D01*
X143596616Y-66399437D01*
X145434737Y-65651375D01*
X147363572Y-65104059D01*
X149513404Y-64873346D01*
X151631696Y-64958840D01*
X153465913Y-65360141D01*
X154171899Y-65665156D01*
X156082196Y-66995174D01*
X157619348Y-68662350D01*
X158240013Y-69673887D01*
X158682628Y-71034304D01*
X158942308Y-72804544D01*
X158998273Y-74666258D01*
X158829743Y-76301098D01*
X158704530Y-76790372D01*
X157938244Y-78339847D01*
X156719789Y-79908908D01*
X155271229Y-81240779D01*
X154331240Y-81847337D01*
X152994406Y-82549398D01*
X153498238Y-84528375D01*
X153916072Y-86249599D01*
X154261205Y-87890031D01*
X154541707Y-89548383D01*
X154765644Y-91323364D01*
X154941085Y-93313687D01*
X155076097Y-95618061D01*
X155178747Y-98335199D01*
X155257104Y-101563810D01*
X155319235Y-105402606D01*
X155340617Y-107070537D01*
X155508740Y-120910193D01*
X158217587Y-121775792D01*
X160289105Y-122543193D01*
X161720666Y-123349537D01*
X162597137Y-124270734D01*
X163003388Y-125382692D01*
X163057143Y-126104404D01*
X162808018Y-127838807D01*
X162127515Y-129293001D01*
X161115948Y-130272303D01*
X160836342Y-130414491D01*
X159731770Y-130538966D01*
X158375088Y-130197919D01*
X157011043Y-129470343D01*
X156398135Y-128982077D01*
X156089606Y-128727055D01*
X155898309Y-128717661D01*
X155808305Y-129064412D01*
X155803654Y-129877829D01*
X155868420Y-131268428D01*
X155924720Y-132264705D01*
X156026572Y-134155187D01*
X156143595Y-136509602D01*
X156262230Y-139045411D01*
X156368917Y-141480075D01*
X156381835Y-141789705D01*
X156415405Y-147649691D01*
X156028842Y-153196556D01*
X155236407Y-158369120D01*
X154052367Y-163106199D01*
X152490985Y-167346614D01*
X150566526Y-171029181D01*
X149064373Y-173175142D01*
X148271700Y-174205678D01*
X147718899Y-174980158D01*
X147511214Y-175350049D01*
X147515552Y-175361020D01*
X149177867Y-176664246D01*
X150625601Y-178255651D01*
X151739569Y-179963938D01*
X152400583Y-181617811D01*
X152530881Y-182569134D01*
X152205436Y-183910769D01*
X151334260Y-185171610D01*
X150086400Y-186141654D01*
X149416786Y-186437754D01*
X148201938Y-186658635D01*
X147084747Y-186393813D01*
X145946233Y-185580470D01*
X144667415Y-184155782D01*
X144369860Y-183772990D01*
X143389867Y-182598464D01*
X142415176Y-181609211D01*
X141649726Y-181011331D01*
X141622244Y-180996278D01*
X140874178Y-180669405D01*
X140239936Y-180680930D01*
X139377594Y-181051521D01*
X139201178Y-181142615D01*
X136425868Y-182368400D01*
X133093242Y-183467320D01*
X129368035Y-184387444D01*
X128120301Y-184635577D01*
X126387074Y-184936373D01*
X124749457Y-185158003D01*
X123043067Y-185311808D01*
X121103516Y-185409128D01*
X118766421Y-185461306D01*
X115885715Y-185479651D01*
X113168729Y-185475569D01*
X111031274Y-185445906D01*
X109327306Y-185379800D01*
X107910782Y-185266392D01*
X106635658Y-185094823D01*
X105355892Y-184854233D01*
X104283101Y-184616881D01*
X102406343Y-184143587D01*
X100513071Y-183597621D01*
X98890352Y-183064527D01*
X98229891Y-182813052D01*
X97003607Y-182327294D01*
X96206183Y-182109622D01*
X95597232Y-182139214D01*
X94936364Y-182395246D01*
X94703339Y-182507578D01*
X93779382Y-183074583D01*
X92586147Y-183960565D01*
X91391864Y-184965084D01*
X90303888Y-185912624D01*
X89503005Y-186461313D01*
X88743601Y-186719629D01*
X87780064Y-186796048D01*
X87237259Y-186800000D01*
X85933810Y-186745889D01*
X85060781Y-186519433D01*
X84326659Y-186024446D01*
X84013443Y-185736297D01*
X82976153Y-184425670D01*
X82739149Y-183505465D01*
X83747599Y-183505465D01*
X83967724Y-184211140D01*
X84405726Y-185053627D01*
X84851185Y-183965784D01*
X85408792Y-182882811D01*
X86113464Y-181878567D01*
X86828263Y-181108043D01*
X87416248Y-180726231D01*
X87675351Y-180769331D01*
X87693682Y-181300888D01*
X87155254Y-182240814D01*
X86910647Y-182566750D01*
X86000641Y-183964580D01*
X85681894Y-185048085D01*
X85958888Y-185779679D01*
X86494286Y-186058188D01*
X87389763Y-186155379D01*
X88334544Y-185908214D01*
X89463335Y-185252687D01*
X90910838Y-184124789D01*
X91351384Y-183750250D01*
X92544811Y-182785612D01*
X93659929Y-181990635D01*
X94481380Y-181517153D01*
X94567858Y-181482560D01*
X95276025Y-181152907D01*
X95550610Y-180880371D01*
X95258236Y-180298684D01*
X94553472Y-179469526D01*
X93620688Y-178570539D01*
X92644250Y-177779365D01*
X91808529Y-177273645D01*
X91806315Y-177272691D01*
X90971273Y-176961436D01*
X90294534Y-176915358D01*
X89473226Y-177156086D01*
X88673604Y-177496415D01*
X87319442Y-178290994D01*
X85963410Y-179407340D01*
X84788768Y-180661011D01*
X83978774Y-181867561D01*
X83754299Y-182447543D01*
X83747599Y-183505465D01*
X82739149Y-183505465D01*
X82637384Y-183110351D01*
X82975390Y-181694292D01*
X83058238Y-181517436D01*
X83987123Y-180036840D01*
X85222519Y-178606936D01*
X86517790Y-177499289D01*
X86949782Y-177232513D01*
X87949564Y-176693471D01*
X85556939Y-173809235D01*
X83286157Y-170681966D01*
X81543722Y-167447485D01*
X80389920Y-164232018D01*
X79971514Y-162114361D01*
X79867376Y-160852315D01*
X79784156Y-158960756D01*
X79722108Y-156556926D01*
X79681485Y-153758068D01*
X79662539Y-150681424D01*
X79665522Y-147444238D01*
X79690688Y-144163751D01*
X79738290Y-140957207D01*
X79808580Y-137941848D01*
X79901811Y-135234916D01*
X79912993Y-134972170D01*
X79987807Y-133075898D01*
X80036418Y-131477721D01*
X80055937Y-130309841D01*
X80043475Y-129704461D01*
X80029361Y-129649376D01*
X79696968Y-129853392D01*
X79008865Y-130361379D01*
X78759361Y-130554741D01*
X77140426Y-131549173D01*
X75715254Y-131829488D01*
X74457750Y-131393518D01*
X73341820Y-130239098D01*
X73245494Y-130096941D01*
X72477333Y-128445731D01*
X72441837Y-127874251D01*
X73174805Y-127874251D01*
X73479135Y-128300595D01*
X74171591Y-128107640D01*
X74359405Y-127989414D01*
X75330026Y-127476966D01*
X75859122Y-127550523D01*
X75971429Y-127969117D01*
X75703804Y-128464854D01*
X75471573Y-128529411D01*
X74835656Y-128792932D01*
X74520000Y-129089705D01*
X74251204Y-129687555D01*
X74520000Y-130210294D01*
X75364198Y-130715173D01*
X76530168Y-130643309D01*
X77902021Y-130013876D01*
X78573935Y-129539536D01*
X79411244Y-128850681D01*
X79890107Y-128269534D01*
X80123206Y-127545207D01*
X80223223Y-126426814D01*
X80251579Y-125804242D01*
X80261562Y-124547472D01*
X80185005Y-123648625D01*
X80038449Y-123300058D01*
X80036242Y-123300000D01*
X79442635Y-123430361D01*
X78404376Y-123766081D01*
X77146265Y-124224112D01*
X75893105Y-124721404D01*
X74869695Y-125174910D01*
X74621601Y-125300326D01*
X73748197Y-126017303D01*
X73281415Y-126852667D01*
X73174805Y-127874251D01*
X72441837Y-127874251D01*
X72380899Y-126893181D01*
X72954458Y-125520776D01*
X73352695Y-125058532D01*
X74300398Y-124376979D01*
X75692573Y-123662753D01*
X77261885Y-123028715D01*
X78740993Y-122587725D01*
X79508926Y-122459589D01*
X79876735Y-122357005D01*
X80132677Y-122065493D01*
X80276964Y-121501089D01*
X80309804Y-120579833D01*
X80231408Y-119217761D01*
X80041986Y-117330910D01*
X79741748Y-114835318D01*
X79532101Y-113193300D01*
X79059978Y-108585163D01*
X78791445Y-103778142D01*
X78739220Y-99835108D01*
X80375149Y-99835108D01*
X80566616Y-105828033D01*
X81090326Y-111227809D01*
X81289979Y-112838139D01*
X81458266Y-114382259D01*
X81596338Y-115931128D01*
X81705346Y-117555705D01*
X81786439Y-119326948D01*
X81840769Y-121315816D01*
X81869487Y-123593269D01*
X81873743Y-126230263D01*
X81854687Y-129297759D01*
X81813470Y-132866715D01*
X81751243Y-137008090D01*
X81669156Y-141792842D01*
X81625260Y-144217647D01*
X81548449Y-148544401D01*
X81494226Y-152198824D01*
X81469349Y-155255468D01*
X81480578Y-157788882D01*
X81534672Y-159873618D01*
X81638390Y-161584226D01*
X81798491Y-162995256D01*
X82021734Y-164181259D01*
X82314879Y-165216787D01*
X82684684Y-166176388D01*
X83137909Y-167134615D01*
X83681312Y-168166017D01*
X83819675Y-168421270D01*
X84760570Y-169953509D01*
X85914232Y-171533848D01*
X87168800Y-173040218D01*
X88412414Y-174350549D01*
X89533212Y-175342771D01*
X90419334Y-175894816D01*
X90734950Y-175967647D01*
X91684139Y-176101439D01*
X92655521Y-176563671D01*
X93797677Y-177445628D01*
X95021429Y-178601086D01*
X96364153Y-179765857D01*
X97885803Y-180719921D01*
X99736287Y-181533493D01*
X102065513Y-182276792D01*
X103873003Y-182747149D01*
X108397730Y-183573445D01*
X113387487Y-183972480D01*
X118709191Y-183940081D01*
X124229756Y-183472073D01*
X124775715Y-183402713D01*
X128813218Y-182723448D01*
X132580863Y-181792975D01*
X135980386Y-180647397D01*
X138288270Y-179605178D01*
X141227821Y-179605178D01*
X142436053Y-180375704D01*
X143321108Y-181102846D01*
X144348025Y-182178047D01*
X145049102Y-183046137D01*
X146182198Y-184467824D01*
X147096549Y-185308647D01*
X147918912Y-185644707D01*
X148776039Y-185552106D01*
X149057466Y-185452683D01*
X149480058Y-185167894D01*
X149581025Y-184676316D01*
X149343274Y-183837516D01*
X148749716Y-182511056D01*
X148682510Y-182371736D01*
X148208261Y-181288340D01*
X147950760Y-180487603D01*
X147948027Y-180190756D01*
X148384576Y-180183444D01*
X148969636Y-180807016D01*
X149637416Y-181978613D01*
X149988905Y-182761087D01*
X150493828Y-183844046D01*
X150851367Y-184280120D01*
X151111689Y-184150061D01*
X151461175Y-182936591D01*
X151277260Y-181506832D01*
X150663145Y-180003169D01*
X149722030Y-178567985D01*
X148557114Y-177343664D01*
X147271599Y-176472592D01*
X145968685Y-176097152D01*
X145310898Y-176146779D01*
X144512582Y-176534175D01*
X143499596Y-177297284D01*
X142768436Y-177989236D01*
X141227821Y-179605178D01*
X138288270Y-179605178D01*
X138913527Y-179322818D01*
X141282022Y-177855342D01*
X142375934Y-176936029D01*
X143357873Y-176061745D01*
X144193144Y-175443782D01*
X144683687Y-175220588D01*
X145266083Y-174926151D01*
X146121507Y-174132297D01*
X147138510Y-172973213D01*
X148205645Y-171583083D01*
X149211462Y-170096094D01*
X149871242Y-168974678D01*
X150564981Y-167532684D01*
X151333864Y-165675168D01*
X152056028Y-163705610D01*
X152362290Y-162771144D01*
X153215833Y-159659717D01*
X153868931Y-156392769D01*
X154327991Y-152876134D01*
X154599422Y-149015645D01*
X154689629Y-144717135D01*
X154605021Y-139886438D01*
X154352005Y-134429387D01*
X154323649Y-133945588D01*
X154238453Y-132234548D01*
X154146186Y-129887041D01*
X154049974Y-127013584D01*
X153952944Y-123724695D01*
X153924615Y-122649836D01*
X155587245Y-122649836D01*
X155617444Y-123595607D01*
X155700889Y-124881966D01*
X155704666Y-124930339D01*
X155828295Y-126289507D01*
X156012255Y-127136831D01*
X156374956Y-127705128D01*
X157034807Y-128227216D01*
X157556917Y-128572251D01*
X158713859Y-129276251D01*
X159518268Y-129590458D01*
X160195789Y-129576578D01*
X160668895Y-129423271D01*
X161188216Y-128958247D01*
X161053454Y-128289766D01*
X160281953Y-127497866D01*
X160245664Y-127470422D01*
X159594515Y-126818892D01*
X159577591Y-126429055D01*
X160118234Y-126412333D01*
X160787753Y-126682485D01*
X161581516Y-127090828D01*
X162059286Y-127334583D01*
X162311618Y-127207159D01*
X162355244Y-126613339D01*
X162225565Y-125790256D01*
X161957986Y-124975042D01*
X161627597Y-124443113D01*
X161066964Y-124078420D01*
X160082469Y-123616019D01*
X158868942Y-123127118D01*
X157621215Y-122682922D01*
X156534119Y-122354639D01*
X155802484Y-122213476D01*
X155616887Y-122246320D01*
X155587245Y-122649836D01*
X153924615Y-122649836D01*
X153858223Y-120130891D01*
X153768939Y-116342691D01*
X153688218Y-112470612D01*
X153636696Y-109666176D01*
X153561839Y-105460128D01*
X153492331Y-101924522D01*
X153424331Y-98982800D01*
X153353997Y-96558404D01*
X153277488Y-94574777D01*
X153190962Y-92955361D01*
X153090578Y-91623599D01*
X152972494Y-90502933D01*
X152832869Y-89516806D01*
X152667861Y-88588660D01*
X152549609Y-88001470D01*
X151269263Y-82806801D01*
X149711869Y-78276843D01*
X147842579Y-74372084D01*
X145626545Y-71053009D01*
X143028921Y-68280104D01*
X142151551Y-67620416D01*
X144927600Y-67620416D01*
X145872158Y-68659472D01*
X146664881Y-69597733D01*
X147318956Y-70478319D01*
X147357247Y-70536748D01*
X147830351Y-71074939D01*
X148466071Y-71233205D01*
X149324239Y-71140157D01*
X150395846Y-71066864D01*
X151159246Y-71358075D01*
X151642493Y-71767785D01*
X152385338Y-72930329D01*
X152449800Y-74239622D01*
X151830063Y-75561783D01*
X151808572Y-75590160D01*
X151347845Y-76227277D01*
X151150384Y-76743732D01*
X151219442Y-77368555D01*
X151558272Y-78330780D01*
X151858147Y-79080220D01*
X152633436Y-81005761D01*
X153849697Y-80267043D01*
X154948566Y-79442943D01*
X155934814Y-78464905D01*
X155967721Y-78425120D01*
X157015382Y-76615584D01*
X157463636Y-74615368D01*
X157355712Y-72569135D01*
X156734840Y-70621547D01*
X155644248Y-68917266D01*
X154127167Y-67600956D01*
X152521132Y-66891418D01*
X150866195Y-66639934D01*
X148921385Y-66647392D01*
X147046927Y-66895695D01*
X145918800Y-67223105D01*
X144927600Y-67620416D01*
X142151551Y-67620416D01*
X140014859Y-66013855D01*
X136549512Y-64214749D01*
X132598033Y-62843272D01*
X129764287Y-62164838D01*
X127152890Y-61785720D01*
X123997381Y-61574552D01*
X120458756Y-61522527D01*
X116698012Y-61620835D01*
X112876145Y-61860671D01*
X109154150Y-62233225D01*
X105693024Y-62729689D01*
X102653764Y-63341257D01*
X101208203Y-63727102D01*
X98876390Y-64520592D01*
X96430179Y-65520208D01*
X94079990Y-66627530D01*
X92036245Y-67744140D01*
X90640202Y-68670043D01*
X88933267Y-70283280D01*
X87214024Y-72474637D01*
X85575342Y-75083060D01*
X84110091Y-77947498D01*
X82911141Y-80906900D01*
X82179063Y-83343090D01*
X81187863Y-88426404D01*
X80584394Y-93979154D01*
X80375149Y-99835108D01*
X78739220Y-99835108D01*
X78727958Y-98984847D01*
X78870973Y-94417886D01*
X79221947Y-90289868D01*
X79367543Y-89172113D01*
X79603534Y-87449756D01*
X79780784Y-86022864D01*
X79882334Y-85038322D01*
X79891224Y-84643017D01*
X79890529Y-84642291D01*
X79530161Y-84430987D01*
X78742364Y-84007488D01*
X78278274Y-83764679D01*
X76307565Y-82342765D01*
X74780723Y-80424325D01*
X73790976Y-78164959D01*
X73431549Y-75720266D01*
X73431429Y-75675000D01*
X75427143Y-75675000D01*
X75451155Y-77247245D01*
X75558888Y-78305680D01*
X75803884Y-79082904D01*
X76239689Y-79811518D01*
X76444476Y-80094408D01*
X77253069Y-80969577D01*
X78311886Y-81847579D01*
X79385490Y-82556740D01*
X80238440Y-82925386D01*
X80350163Y-82942315D01*
X80560130Y-82626525D01*
X80892341Y-81791665D01*
X81187364Y-80897129D01*
X81529311Y-79719783D01*
X81636212Y-78998026D01*
X81498419Y-78477334D01*
X81106287Y-77903184D01*
X81072201Y-77858520D01*
X80424151Y-76480767D01*
X80456843Y-75039378D01*
X80919705Y-74034419D01*
X81438117Y-73470429D01*
X82123675Y-73279065D01*
X83006134Y-73329005D01*
X83803409Y-73387332D01*
X84372778Y-73262684D01*
X84899186Y-72833323D01*
X85567582Y-71977507D01*
X86015143Y-71348345D01*
X87531714Y-69200117D01*
X85715923Y-68751704D01*
X83211895Y-68420175D01*
X80834199Y-68646284D01*
X78718715Y-69392705D01*
X77001325Y-70622110D01*
X76404518Y-71309518D01*
X75908844Y-72056607D01*
X75615333Y-72794162D01*
X75472451Y-73752360D01*
X75428664Y-75161381D01*
X75427143Y-75675000D01*
X73431429Y-75675000D01*
X73763329Y-73295128D01*
X74692211Y-71085681D01*
X76117847Y-69201577D01*
X77940007Y-67797730D01*
X78790232Y-67392246D01*
X80605770Y-66928594D01*
X82776828Y-66756340D01*
X84990353Y-66876316D01*
X86933295Y-67289355D01*
X87164133Y-67369961D01*
X88741123Y-67954984D01*
X90894283Y-66522399D01*
X93121328Y-65217225D01*
X95804702Y-63923756D01*
X98682352Y-62759621D01*
X101008572Y-61982438D01*
X103598242Y-61352816D01*
X106735745Y-60817815D01*
X110256182Y-60386940D01*
X113994656Y-60069700D01*
X117786269Y-59875599D01*
X121466122Y-59814145D01*
X124869317Y-59894845D01*
G04 #@! TA.AperFunction,EtchedComponent*
G36*
X124869317Y-59894845D02*
G01*
X127830958Y-60127204D01*
X129354612Y-60348256D01*
X133351753Y-61298945D01*
X137127981Y-62643845D01*
X140502220Y-64311145D01*
X142350451Y-65502215D01*
X143596616Y-66399437D01*
X145434737Y-65651375D01*
X147363572Y-65104059D01*
X149513404Y-64873346D01*
X151631696Y-64958840D01*
X153465913Y-65360141D01*
X154171899Y-65665156D01*
X156082196Y-66995174D01*
X157619348Y-68662350D01*
X158240013Y-69673887D01*
X158682628Y-71034304D01*
X158942308Y-72804544D01*
X158998273Y-74666258D01*
X158829743Y-76301098D01*
X158704530Y-76790372D01*
X157938244Y-78339847D01*
X156719789Y-79908908D01*
X155271229Y-81240779D01*
X154331240Y-81847337D01*
X152994406Y-82549398D01*
X153498238Y-84528375D01*
X153916072Y-86249599D01*
X154261205Y-87890031D01*
X154541707Y-89548383D01*
X154765644Y-91323364D01*
X154941085Y-93313687D01*
X155076097Y-95618061D01*
X155178747Y-98335199D01*
X155257104Y-101563810D01*
X155319235Y-105402606D01*
X155340617Y-107070537D01*
X155508740Y-120910193D01*
X158217587Y-121775792D01*
X160289105Y-122543193D01*
X161720666Y-123349537D01*
X162597137Y-124270734D01*
X163003388Y-125382692D01*
X163057143Y-126104404D01*
X162808018Y-127838807D01*
X162127515Y-129293001D01*
X161115948Y-130272303D01*
X160836342Y-130414491D01*
X159731770Y-130538966D01*
X158375088Y-130197919D01*
X157011043Y-129470343D01*
X156398135Y-128982077D01*
X156089606Y-128727055D01*
X155898309Y-128717661D01*
X155808305Y-129064412D01*
X155803654Y-129877829D01*
X155868420Y-131268428D01*
X155924720Y-132264705D01*
X156026572Y-134155187D01*
X156143595Y-136509602D01*
X156262230Y-139045411D01*
X156368917Y-141480075D01*
X156381835Y-141789705D01*
X156415405Y-147649691D01*
X156028842Y-153196556D01*
X155236407Y-158369120D01*
X154052367Y-163106199D01*
X152490985Y-167346614D01*
X150566526Y-171029181D01*
X149064373Y-173175142D01*
X148271700Y-174205678D01*
X147718899Y-174980158D01*
X147511214Y-175350049D01*
X147515552Y-175361020D01*
X149177867Y-176664246D01*
X150625601Y-178255651D01*
X151739569Y-179963938D01*
X152400583Y-181617811D01*
X152530881Y-182569134D01*
X152205436Y-183910769D01*
X151334260Y-185171610D01*
X150086400Y-186141654D01*
X149416786Y-186437754D01*
X148201938Y-186658635D01*
X147084747Y-186393813D01*
X145946233Y-185580470D01*
X144667415Y-184155782D01*
X144369860Y-183772990D01*
X143389867Y-182598464D01*
X142415176Y-181609211D01*
X141649726Y-181011331D01*
X141622244Y-180996278D01*
X140874178Y-180669405D01*
X140239936Y-180680930D01*
X139377594Y-181051521D01*
X139201178Y-181142615D01*
X136425868Y-182368400D01*
X133093242Y-183467320D01*
X129368035Y-184387444D01*
X128120301Y-184635577D01*
X126387074Y-184936373D01*
X124749457Y-185158003D01*
X123043067Y-185311808D01*
X121103516Y-185409128D01*
X118766421Y-185461306D01*
X115885715Y-185479651D01*
X113168729Y-185475569D01*
X111031274Y-185445906D01*
X109327306Y-185379800D01*
X107910782Y-185266392D01*
X106635658Y-185094823D01*
X105355892Y-184854233D01*
X104283101Y-184616881D01*
X102406343Y-184143587D01*
X100513071Y-183597621D01*
X98890352Y-183064527D01*
X98229891Y-182813052D01*
X97003607Y-182327294D01*
X96206183Y-182109622D01*
X95597232Y-182139214D01*
X94936364Y-182395246D01*
X94703339Y-182507578D01*
X93779382Y-183074583D01*
X92586147Y-183960565D01*
X91391864Y-184965084D01*
X90303888Y-185912624D01*
X89503005Y-186461313D01*
X88743601Y-186719629D01*
X87780064Y-186796048D01*
X87237259Y-186800000D01*
X85933810Y-186745889D01*
X85060781Y-186519433D01*
X84326659Y-186024446D01*
X84013443Y-185736297D01*
X82976153Y-184425670D01*
X82739149Y-183505465D01*
X83747599Y-183505465D01*
X83967724Y-184211140D01*
X84405726Y-185053627D01*
X84851185Y-183965784D01*
X85408792Y-182882811D01*
X86113464Y-181878567D01*
X86828263Y-181108043D01*
X87416248Y-180726231D01*
X87675351Y-180769331D01*
X87693682Y-181300888D01*
X87155254Y-182240814D01*
X86910647Y-182566750D01*
X86000641Y-183964580D01*
X85681894Y-185048085D01*
X85958888Y-185779679D01*
X86494286Y-186058188D01*
X87389763Y-186155379D01*
X88334544Y-185908214D01*
X89463335Y-185252687D01*
X90910838Y-184124789D01*
X91351384Y-183750250D01*
X92544811Y-182785612D01*
X93659929Y-181990635D01*
X94481380Y-181517153D01*
X94567858Y-181482560D01*
X95276025Y-181152907D01*
X95550610Y-180880371D01*
X95258236Y-180298684D01*
X94553472Y-179469526D01*
X93620688Y-178570539D01*
X92644250Y-177779365D01*
X91808529Y-177273645D01*
X91806315Y-177272691D01*
X90971273Y-176961436D01*
X90294534Y-176915358D01*
X89473226Y-177156086D01*
X88673604Y-177496415D01*
X87319442Y-178290994D01*
X85963410Y-179407340D01*
X84788768Y-180661011D01*
X83978774Y-181867561D01*
X83754299Y-182447543D01*
X83747599Y-183505465D01*
X82739149Y-183505465D01*
X82637384Y-183110351D01*
X82975390Y-181694292D01*
X83058238Y-181517436D01*
X83987123Y-180036840D01*
X85222519Y-178606936D01*
X86517790Y-177499289D01*
X86949782Y-177232513D01*
X87949564Y-176693471D01*
X85556939Y-173809235D01*
X83286157Y-170681966D01*
X81543722Y-167447485D01*
X80389920Y-164232018D01*
X79971514Y-162114361D01*
X79867376Y-160852315D01*
X79784156Y-158960756D01*
X79722108Y-156556926D01*
X79681485Y-153758068D01*
X79662539Y-150681424D01*
X79665522Y-147444238D01*
X79690688Y-144163751D01*
X79738290Y-140957207D01*
X79808580Y-137941848D01*
X79901811Y-135234916D01*
X79912993Y-134972170D01*
X79987807Y-133075898D01*
X80036418Y-131477721D01*
X80055937Y-130309841D01*
X80043475Y-129704461D01*
X80029361Y-129649376D01*
X79696968Y-129853392D01*
X79008865Y-130361379D01*
X78759361Y-130554741D01*
X77140426Y-131549173D01*
X75715254Y-131829488D01*
X74457750Y-131393518D01*
X73341820Y-130239098D01*
X73245494Y-130096941D01*
X72477333Y-128445731D01*
X72441837Y-127874251D01*
X73174805Y-127874251D01*
X73479135Y-128300595D01*
X74171591Y-128107640D01*
X74359405Y-127989414D01*
X75330026Y-127476966D01*
X75859122Y-127550523D01*
X75971429Y-127969117D01*
X75703804Y-128464854D01*
X75471573Y-128529411D01*
X74835656Y-128792932D01*
X74520000Y-129089705D01*
X74251204Y-129687555D01*
X74520000Y-130210294D01*
X75364198Y-130715173D01*
X76530168Y-130643309D01*
X77902021Y-130013876D01*
X78573935Y-129539536D01*
X79411244Y-128850681D01*
X79890107Y-128269534D01*
X80123206Y-127545207D01*
X80223223Y-126426814D01*
X80251579Y-125804242D01*
X80261562Y-124547472D01*
X80185005Y-123648625D01*
X80038449Y-123300058D01*
X80036242Y-123300000D01*
X79442635Y-123430361D01*
X78404376Y-123766081D01*
X77146265Y-124224112D01*
X75893105Y-124721404D01*
X74869695Y-125174910D01*
X74621601Y-125300326D01*
X73748197Y-126017303D01*
X73281415Y-126852667D01*
X73174805Y-127874251D01*
X72441837Y-127874251D01*
X72380899Y-126893181D01*
X72954458Y-125520776D01*
X73352695Y-125058532D01*
X74300398Y-124376979D01*
X75692573Y-123662753D01*
X77261885Y-123028715D01*
X78740993Y-122587725D01*
X79508926Y-122459589D01*
X79876735Y-122357005D01*
X80132677Y-122065493D01*
X80276964Y-121501089D01*
X80309804Y-120579833D01*
X80231408Y-119217761D01*
X80041986Y-117330910D01*
X79741748Y-114835318D01*
X79532101Y-113193300D01*
X79059978Y-108585163D01*
X78791445Y-103778142D01*
X78739220Y-99835108D01*
X80375149Y-99835108D01*
X80566616Y-105828033D01*
X81090326Y-111227809D01*
X81289979Y-112838139D01*
X81458266Y-114382259D01*
X81596338Y-115931128D01*
X81705346Y-117555705D01*
X81786439Y-119326948D01*
X81840769Y-121315816D01*
X81869487Y-123593269D01*
X81873743Y-126230263D01*
X81854687Y-129297759D01*
X81813470Y-132866715D01*
X81751243Y-137008090D01*
X81669156Y-141792842D01*
X81625260Y-144217647D01*
X81548449Y-148544401D01*
X81494226Y-152198824D01*
X81469349Y-155255468D01*
X81480578Y-157788882D01*
X81534672Y-159873618D01*
X81638390Y-161584226D01*
X81798491Y-162995256D01*
X82021734Y-164181259D01*
X82314879Y-165216787D01*
X82684684Y-166176388D01*
X83137909Y-167134615D01*
X83681312Y-168166017D01*
X83819675Y-168421270D01*
X84760570Y-169953509D01*
X85914232Y-171533848D01*
X87168800Y-173040218D01*
X88412414Y-174350549D01*
X89533212Y-175342771D01*
X90419334Y-175894816D01*
X90734950Y-175967647D01*
X91684139Y-176101439D01*
X92655521Y-176563671D01*
X93797677Y-177445628D01*
X95021429Y-178601086D01*
X96364153Y-179765857D01*
X97885803Y-180719921D01*
X99736287Y-181533493D01*
X102065513Y-182276792D01*
X103873003Y-182747149D01*
X108397730Y-183573445D01*
X113387487Y-183972480D01*
X118709191Y-183940081D01*
X124229756Y-183472073D01*
X124775715Y-183402713D01*
X128813218Y-182723448D01*
X132580863Y-181792975D01*
X135980386Y-180647397D01*
X138288270Y-179605178D01*
X141227821Y-179605178D01*
X142436053Y-180375704D01*
X143321108Y-181102846D01*
X144348025Y-182178047D01*
X145049102Y-183046137D01*
X146182198Y-184467824D01*
X147096549Y-185308647D01*
X147918912Y-185644707D01*
X148776039Y-185552106D01*
X149057466Y-185452683D01*
X149480058Y-185167894D01*
X149581025Y-184676316D01*
X149343274Y-183837516D01*
X148749716Y-182511056D01*
X148682510Y-182371736D01*
X148208261Y-181288340D01*
X147950760Y-180487603D01*
X147948027Y-180190756D01*
X148384576Y-180183444D01*
X148969636Y-180807016D01*
X149637416Y-181978613D01*
X149988905Y-182761087D01*
X150493828Y-183844046D01*
X150851367Y-184280120D01*
X151111689Y-184150061D01*
X151461175Y-182936591D01*
X151277260Y-181506832D01*
X150663145Y-180003169D01*
X149722030Y-178567985D01*
X148557114Y-177343664D01*
X147271599Y-176472592D01*
X145968685Y-176097152D01*
X145310898Y-176146779D01*
X144512582Y-176534175D01*
X143499596Y-177297284D01*
X142768436Y-177989236D01*
X141227821Y-179605178D01*
X138288270Y-179605178D01*
X138913527Y-179322818D01*
X141282022Y-177855342D01*
X142375934Y-176936029D01*
X143357873Y-176061745D01*
X144193144Y-175443782D01*
X144683687Y-175220588D01*
X145266083Y-174926151D01*
X146121507Y-174132297D01*
X147138510Y-172973213D01*
X148205645Y-171583083D01*
X149211462Y-170096094D01*
X149871242Y-168974678D01*
X150564981Y-167532684D01*
X151333864Y-165675168D01*
X152056028Y-163705610D01*
X152362290Y-162771144D01*
X153215833Y-159659717D01*
X153868931Y-156392769D01*
X154327991Y-152876134D01*
X154599422Y-149015645D01*
X154689629Y-144717135D01*
X154605021Y-139886438D01*
X154352005Y-134429387D01*
X154323649Y-133945588D01*
X154238453Y-132234548D01*
X154146186Y-129887041D01*
X154049974Y-127013584D01*
X153952944Y-123724695D01*
X153924615Y-122649836D01*
X155587245Y-122649836D01*
X155617444Y-123595607D01*
X155700889Y-124881966D01*
X155704666Y-124930339D01*
X155828295Y-126289507D01*
X156012255Y-127136831D01*
X156374956Y-127705128D01*
X157034807Y-128227216D01*
X157556917Y-128572251D01*
X158713859Y-129276251D01*
X159518268Y-129590458D01*
X160195789Y-129576578D01*
X160668895Y-129423271D01*
X161188216Y-128958247D01*
X161053454Y-128289766D01*
X160281953Y-127497866D01*
X160245664Y-127470422D01*
X159594515Y-126818892D01*
X159577591Y-126429055D01*
X160118234Y-126412333D01*
X160787753Y-126682485D01*
X161581516Y-127090828D01*
X162059286Y-127334583D01*
X162311618Y-127207159D01*
X162355244Y-126613339D01*
X162225565Y-125790256D01*
X161957986Y-124975042D01*
X161627597Y-124443113D01*
X161066964Y-124078420D01*
X160082469Y-123616019D01*
X158868942Y-123127118D01*
X157621215Y-122682922D01*
X156534119Y-122354639D01*
X155802484Y-122213476D01*
X155616887Y-122246320D01*
X155587245Y-122649836D01*
X153924615Y-122649836D01*
X153858223Y-120130891D01*
X153768939Y-116342691D01*
X153688218Y-112470612D01*
X153636696Y-109666176D01*
X153561839Y-105460128D01*
X153492331Y-101924522D01*
X153424331Y-98982800D01*
X153353997Y-96558404D01*
X153277488Y-94574777D01*
X153190962Y-92955361D01*
X153090578Y-91623599D01*
X152972494Y-90502933D01*
X152832869Y-89516806D01*
X152667861Y-88588660D01*
X152549609Y-88001470D01*
X151269263Y-82806801D01*
X149711869Y-78276843D01*
X147842579Y-74372084D01*
X145626545Y-71053009D01*
X143028921Y-68280104D01*
X142151551Y-67620416D01*
X144927600Y-67620416D01*
X145872158Y-68659472D01*
X146664881Y-69597733D01*
X147318956Y-70478319D01*
X147357247Y-70536748D01*
X147830351Y-71074939D01*
X148466071Y-71233205D01*
X149324239Y-71140157D01*
X150395846Y-71066864D01*
X151159246Y-71358075D01*
X151642493Y-71767785D01*
X152385338Y-72930329D01*
X152449800Y-74239622D01*
X151830063Y-75561783D01*
X151808572Y-75590160D01*
X151347845Y-76227277D01*
X151150384Y-76743732D01*
X151219442Y-77368555D01*
X151558272Y-78330780D01*
X151858147Y-79080220D01*
X152633436Y-81005761D01*
X153849697Y-80267043D01*
X154948566Y-79442943D01*
X155934814Y-78464905D01*
X155967721Y-78425120D01*
X157015382Y-76615584D01*
X157463636Y-74615368D01*
X157355712Y-72569135D01*
X156734840Y-70621547D01*
X155644248Y-68917266D01*
X154127167Y-67600956D01*
X152521132Y-66891418D01*
X150866195Y-66639934D01*
X148921385Y-66647392D01*
X147046927Y-66895695D01*
X145918800Y-67223105D01*
X144927600Y-67620416D01*
X142151551Y-67620416D01*
X140014859Y-66013855D01*
X136549512Y-64214749D01*
X132598033Y-62843272D01*
X129764287Y-62164838D01*
X127152890Y-61785720D01*
X123997381Y-61574552D01*
X120458756Y-61522527D01*
X116698012Y-61620835D01*
X112876145Y-61860671D01*
X109154150Y-62233225D01*
X105693024Y-62729689D01*
X102653764Y-63341257D01*
X101208203Y-63727102D01*
X98876390Y-64520592D01*
X96430179Y-65520208D01*
X94079990Y-66627530D01*
X92036245Y-67744140D01*
X90640202Y-68670043D01*
X88933267Y-70283280D01*
X87214024Y-72474637D01*
X85575342Y-75083060D01*
X84110091Y-77947498D01*
X82911141Y-80906900D01*
X82179063Y-83343090D01*
X81187863Y-88426404D01*
X80584394Y-93979154D01*
X80375149Y-99835108D01*
X78739220Y-99835108D01*
X78727958Y-98984847D01*
X78870973Y-94417886D01*
X79221947Y-90289868D01*
X79367543Y-89172113D01*
X79603534Y-87449756D01*
X79780784Y-86022864D01*
X79882334Y-85038322D01*
X79891224Y-84643017D01*
X79890529Y-84642291D01*
X79530161Y-84430987D01*
X78742364Y-84007488D01*
X78278274Y-83764679D01*
X76307565Y-82342765D01*
X74780723Y-80424325D01*
X73790976Y-78164959D01*
X73431549Y-75720266D01*
X73431429Y-75675000D01*
X75427143Y-75675000D01*
X75451155Y-77247245D01*
X75558888Y-78305680D01*
X75803884Y-79082904D01*
X76239689Y-79811518D01*
X76444476Y-80094408D01*
X77253069Y-80969577D01*
X78311886Y-81847579D01*
X79385490Y-82556740D01*
X80238440Y-82925386D01*
X80350163Y-82942315D01*
X80560130Y-82626525D01*
X80892341Y-81791665D01*
X81187364Y-80897129D01*
X81529311Y-79719783D01*
X81636212Y-78998026D01*
X81498419Y-78477334D01*
X81106287Y-77903184D01*
X81072201Y-77858520D01*
X80424151Y-76480767D01*
X80456843Y-75039378D01*
X80919705Y-74034419D01*
X81438117Y-73470429D01*
X82123675Y-73279065D01*
X83006134Y-73329005D01*
X83803409Y-73387332D01*
X84372778Y-73262684D01*
X84899186Y-72833323D01*
X85567582Y-71977507D01*
X86015143Y-71348345D01*
X87531714Y-69200117D01*
X85715923Y-68751704D01*
X83211895Y-68420175D01*
X80834199Y-68646284D01*
X78718715Y-69392705D01*
X77001325Y-70622110D01*
X76404518Y-71309518D01*
X75908844Y-72056607D01*
X75615333Y-72794162D01*
X75472451Y-73752360D01*
X75428664Y-75161381D01*
X75427143Y-75675000D01*
X73431429Y-75675000D01*
X73763329Y-73295128D01*
X74692211Y-71085681D01*
X76117847Y-69201577D01*
X77940007Y-67797730D01*
X78790232Y-67392246D01*
X80605770Y-66928594D01*
X82776828Y-66756340D01*
X84990353Y-66876316D01*
X86933295Y-67289355D01*
X87164133Y-67369961D01*
X88741123Y-67954984D01*
X90894283Y-66522399D01*
X93121328Y-65217225D01*
X95804702Y-63923756D01*
X98682352Y-62759621D01*
X101008572Y-61982438D01*
X103598242Y-61352816D01*
X106735745Y-60817815D01*
X110256182Y-60386940D01*
X113994656Y-60069700D01*
X117786269Y-59875599D01*
X121466122Y-59814145D01*
X124869317Y-59894845D01*
G37*
G04 #@! TD.AperFunction*
X118922404Y-86100490D02*
X119714554Y-86429667D01*
X120240000Y-86767250D01*
X121277432Y-87772437D01*
X121624251Y-88661185D01*
X122004572Y-89586577D01*
X122927366Y-90251043D01*
X124538282Y-91299028D01*
X125706636Y-92579141D01*
X126419453Y-93974298D01*
X126663758Y-95367413D01*
X126426579Y-96641404D01*
X125694941Y-97679185D01*
X124455870Y-98363674D01*
X123842305Y-98507943D01*
X122417143Y-98742539D01*
X122417143Y-101848618D01*
X122397712Y-103405959D01*
X122313208Y-104396487D01*
X122124315Y-104999978D01*
X121791716Y-105396207D01*
X121610691Y-105536172D01*
X120456619Y-106019565D01*
X119165107Y-106060936D01*
X118049469Y-105668871D01*
X117758304Y-105430606D01*
X117243578Y-104976304D01*
X116823703Y-105007880D01*
X116266677Y-105430606D01*
X115030487Y-106051411D01*
X113723889Y-106049650D01*
X112572386Y-105444399D01*
X112245364Y-105090441D01*
X111841300Y-104471399D01*
X111623184Y-103791012D01*
X111555784Y-102830157D01*
X111590634Y-101771635D01*
X112628632Y-101771635D01*
X112658850Y-103156591D01*
X112779335Y-104188847D01*
X112840251Y-104406214D01*
X113340645Y-104840178D01*
X114213104Y-104991275D01*
X115158118Y-104859769D01*
X115876174Y-104445919D01*
X115912505Y-104403534D01*
X116171371Y-103717730D01*
X116386453Y-102439113D01*
X116522477Y-100846563D01*
X117686520Y-100846563D01*
X117732990Y-102209983D01*
X117848888Y-103386028D01*
X118036281Y-104188309D01*
X118075624Y-104274556D01*
X118726222Y-104830406D01*
X119695352Y-104988204D01*
X120679357Y-104734435D01*
X121121225Y-104410084D01*
X121467618Y-103934205D01*
X121640299Y-103292441D01*
X121653721Y-102310748D01*
X121522335Y-100815080D01*
X121463062Y-100293298D01*
X121288286Y-99148297D01*
X121003820Y-98504486D01*
X120452210Y-98117616D01*
X119924073Y-97905950D01*
X118946279Y-97544100D01*
X118231186Y-97276516D01*
X118153572Y-97246953D01*
X117943004Y-97495964D01*
X117793595Y-98303163D01*
X117707411Y-99482160D01*
X117686520Y-100846563D01*
X116522477Y-100846563D01*
X116533145Y-100721669D01*
X116548216Y-100425259D01*
X116705420Y-97040508D01*
X115841996Y-97292481D01*
X114780325Y-97577380D01*
X114018512Y-97761136D01*
X113225157Y-98181377D01*
X112839808Y-99103201D01*
X112839227Y-99106188D01*
X112688739Y-100324620D01*
X112628632Y-101771635D01*
X111590634Y-101771635D01*
X111603867Y-101369708D01*
X111614735Y-101168382D01*
X111774273Y-98273529D01*
X110446102Y-98273529D01*
X109100180Y-97999781D01*
X108334548Y-97415130D01*
X107489329Y-96018289D01*
X107386199Y-95147061D01*
X108287631Y-95147061D01*
X108725427Y-96294531D01*
X108866239Y-96469852D01*
X109770607Y-96984364D01*
X111175109Y-97143176D01*
X112939994Y-96943018D01*
X114285903Y-96596690D01*
X116180122Y-96148173D01*
X117792491Y-96144593D01*
X119431247Y-96596023D01*
X119877143Y-96779411D01*
X121759808Y-97366472D01*
X123434522Y-97451522D01*
X124750323Y-97029560D01*
X124876405Y-96944995D01*
X125538315Y-96076457D01*
X125651900Y-94952589D01*
X125274196Y-93730083D01*
X124462236Y-92565633D01*
X123273056Y-91615933D01*
X122857845Y-91399370D01*
X121936060Y-91004279D01*
X121283164Y-90910774D01*
X120564626Y-91130314D01*
X119786900Y-91504559D01*
X117689399Y-92163268D01*
X115433696Y-92215151D01*
X113288833Y-91657254D01*
X113112062Y-91577798D01*
X112156581Y-91163987D01*
X111541265Y-91070725D01*
X110952106Y-91295126D01*
X110523699Y-91553999D01*
X109232332Y-92641655D01*
X108471788Y-93884389D01*
X108287631Y-95147061D01*
X107386199Y-95147061D01*
X107310308Y-94505956D01*
X107774548Y-92996830D01*
X108859113Y-91609609D01*
X109566289Y-91040705D01*
X110559551Y-90149817D01*
X111359658Y-89106219D01*
X111467352Y-88908751D01*
X112388579Y-87526247D01*
X113608527Y-86633797D01*
X115271980Y-86148815D01*
X116532314Y-86019661D01*
X117951730Y-85981983D01*
X118922404Y-86100490D01*
G04 #@! TA.AperFunction,EtchedComponent*
G36*
X118922404Y-86100490D02*
G01*
X119714554Y-86429667D01*
X120240000Y-86767250D01*
X121277432Y-87772437D01*
X121624251Y-88661185D01*
X122004572Y-89586577D01*
X122927366Y-90251043D01*
X124538282Y-91299028D01*
X125706636Y-92579141D01*
X126419453Y-93974298D01*
X126663758Y-95367413D01*
X126426579Y-96641404D01*
X125694941Y-97679185D01*
X124455870Y-98363674D01*
X123842305Y-98507943D01*
X122417143Y-98742539D01*
X122417143Y-101848618D01*
X122397712Y-103405959D01*
X122313208Y-104396487D01*
X122124315Y-104999978D01*
X121791716Y-105396207D01*
X121610691Y-105536172D01*
X120456619Y-106019565D01*
X119165107Y-106060936D01*
X118049469Y-105668871D01*
X117758304Y-105430606D01*
X117243578Y-104976304D01*
X116823703Y-105007880D01*
X116266677Y-105430606D01*
X115030487Y-106051411D01*
X113723889Y-106049650D01*
X112572386Y-105444399D01*
X112245364Y-105090441D01*
X111841300Y-104471399D01*
X111623184Y-103791012D01*
X111555784Y-102830157D01*
X111590634Y-101771635D01*
X112628632Y-101771635D01*
X112658850Y-103156591D01*
X112779335Y-104188847D01*
X112840251Y-104406214D01*
X113340645Y-104840178D01*
X114213104Y-104991275D01*
X115158118Y-104859769D01*
X115876174Y-104445919D01*
X115912505Y-104403534D01*
X116171371Y-103717730D01*
X116386453Y-102439113D01*
X116522477Y-100846563D01*
X117686520Y-100846563D01*
X117732990Y-102209983D01*
X117848888Y-103386028D01*
X118036281Y-104188309D01*
X118075624Y-104274556D01*
X118726222Y-104830406D01*
X119695352Y-104988204D01*
X120679357Y-104734435D01*
X121121225Y-104410084D01*
X121467618Y-103934205D01*
X121640299Y-103292441D01*
X121653721Y-102310748D01*
X121522335Y-100815080D01*
X121463062Y-100293298D01*
X121288286Y-99148297D01*
X121003820Y-98504486D01*
X120452210Y-98117616D01*
X119924073Y-97905950D01*
X118946279Y-97544100D01*
X118231186Y-97276516D01*
X118153572Y-97246953D01*
X117943004Y-97495964D01*
X117793595Y-98303163D01*
X117707411Y-99482160D01*
X117686520Y-100846563D01*
X116522477Y-100846563D01*
X116533145Y-100721669D01*
X116548216Y-100425259D01*
X116705420Y-97040508D01*
X115841996Y-97292481D01*
X114780325Y-97577380D01*
X114018512Y-97761136D01*
X113225157Y-98181377D01*
X112839808Y-99103201D01*
X112839227Y-99106188D01*
X112688739Y-100324620D01*
X112628632Y-101771635D01*
X111590634Y-101771635D01*
X111603867Y-101369708D01*
X111614735Y-101168382D01*
X111774273Y-98273529D01*
X110446102Y-98273529D01*
X109100180Y-97999781D01*
X108334548Y-97415130D01*
X107489329Y-96018289D01*
X107386199Y-95147061D01*
X108287631Y-95147061D01*
X108725427Y-96294531D01*
X108866239Y-96469852D01*
X109770607Y-96984364D01*
X111175109Y-97143176D01*
X112939994Y-96943018D01*
X114285903Y-96596690D01*
X116180122Y-96148173D01*
X117792491Y-96144593D01*
X119431247Y-96596023D01*
X119877143Y-96779411D01*
X121759808Y-97366472D01*
X123434522Y-97451522D01*
X124750323Y-97029560D01*
X124876405Y-96944995D01*
X125538315Y-96076457D01*
X125651900Y-94952589D01*
X125274196Y-93730083D01*
X124462236Y-92565633D01*
X123273056Y-91615933D01*
X122857845Y-91399370D01*
X121936060Y-91004279D01*
X121283164Y-90910774D01*
X120564626Y-91130314D01*
X119786900Y-91504559D01*
X117689399Y-92163268D01*
X115433696Y-92215151D01*
X113288833Y-91657254D01*
X113112062Y-91577798D01*
X112156581Y-91163987D01*
X111541265Y-91070725D01*
X110952106Y-91295126D01*
X110523699Y-91553999D01*
X109232332Y-92641655D01*
X108471788Y-93884389D01*
X108287631Y-95147061D01*
X107386199Y-95147061D01*
X107310308Y-94505956D01*
X107774548Y-92996830D01*
X108859113Y-91609609D01*
X109566289Y-91040705D01*
X110559551Y-90149817D01*
X111359658Y-89106219D01*
X111467352Y-88908751D01*
X112388579Y-87526247D01*
X113608527Y-86633797D01*
X115271980Y-86148815D01*
X116532314Y-86019661D01*
X117951730Y-85981983D01*
X118922404Y-86100490D01*
G37*
G04 #@! TD.AperFunction*
X103591359Y-67512525D02*
X104850816Y-67700591D01*
X106003558Y-68090994D01*
X106888228Y-68507445D01*
X109458244Y-70171113D01*
X111444673Y-72261812D01*
X112823798Y-74741134D01*
X113571900Y-77570674D01*
X113708572Y-79551409D01*
X113373913Y-82298144D01*
X112430014Y-84785141D01*
X110966990Y-86952173D01*
X109074957Y-88739014D01*
X106844030Y-90085436D01*
X104364326Y-90931212D01*
X101725961Y-91216114D01*
X99019048Y-90879915D01*
X97489582Y-90391089D01*
X96169189Y-89712701D01*
X94724359Y-88738379D01*
X93788571Y-87964910D01*
X91846238Y-85716552D01*
X90563816Y-83218905D01*
X89956012Y-80547507D01*
X90000014Y-79052506D01*
X91007595Y-79052506D01*
X91170736Y-81458542D01*
X91788712Y-83585604D01*
X91847516Y-83713401D01*
X93052483Y-85635593D01*
X94689035Y-87395612D01*
X96530151Y-88772357D01*
X97584879Y-89301167D01*
X99636069Y-89841843D01*
X101993624Y-90023174D01*
X104324265Y-89838698D01*
X105840400Y-89461213D01*
X107052950Y-88870429D01*
X108412024Y-87966504D01*
X109302904Y-87231030D01*
X111070149Y-85141282D01*
X112218088Y-82799691D01*
X112761946Y-80316962D01*
X112716945Y-77803798D01*
X112098307Y-75370903D01*
X110921256Y-73128980D01*
X109201014Y-71188734D01*
X106952805Y-69660868D01*
X106881885Y-69624838D01*
X105630210Y-69061298D01*
X104481546Y-68743564D01*
X103129065Y-68607419D01*
X101917418Y-68585781D01*
X98981778Y-68900373D01*
X96432276Y-69840910D01*
X94285595Y-71397385D01*
X92558417Y-73559790D01*
X92024332Y-74520786D01*
X91293918Y-76646815D01*
X91007595Y-79052506D01*
X90000014Y-79052506D01*
X90037530Y-77777894D01*
X90823076Y-74985606D01*
X91128169Y-74299157D01*
X92731539Y-71690745D01*
X94746050Y-69696276D01*
X97154433Y-68326691D01*
X99939423Y-67592933D01*
X101917418Y-67462071D01*
X103591359Y-67512525D01*
G04 #@! TA.AperFunction,EtchedComponent*
G36*
X103591359Y-67512525D02*
G01*
X104850816Y-67700591D01*
X106003558Y-68090994D01*
X106888228Y-68507445D01*
X109458244Y-70171113D01*
X111444673Y-72261812D01*
X112823798Y-74741134D01*
X113571900Y-77570674D01*
X113708572Y-79551409D01*
X113373913Y-82298144D01*
X112430014Y-84785141D01*
X110966990Y-86952173D01*
X109074957Y-88739014D01*
X106844030Y-90085436D01*
X104364326Y-90931212D01*
X101725961Y-91216114D01*
X99019048Y-90879915D01*
X97489582Y-90391089D01*
X96169189Y-89712701D01*
X94724359Y-88738379D01*
X93788571Y-87964910D01*
X91846238Y-85716552D01*
X90563816Y-83218905D01*
X89956012Y-80547507D01*
X90000014Y-79052506D01*
X91007595Y-79052506D01*
X91170736Y-81458542D01*
X91788712Y-83585604D01*
X91847516Y-83713401D01*
X93052483Y-85635593D01*
X94689035Y-87395612D01*
X96530151Y-88772357D01*
X97584879Y-89301167D01*
X99636069Y-89841843D01*
X101993624Y-90023174D01*
X104324265Y-89838698D01*
X105840400Y-89461213D01*
X107052950Y-88870429D01*
X108412024Y-87966504D01*
X109302904Y-87231030D01*
X111070149Y-85141282D01*
X112218088Y-82799691D01*
X112761946Y-80316962D01*
X112716945Y-77803798D01*
X112098307Y-75370903D01*
X110921256Y-73128980D01*
X109201014Y-71188734D01*
X106952805Y-69660868D01*
X106881885Y-69624838D01*
X105630210Y-69061298D01*
X104481546Y-68743564D01*
X103129065Y-68607419D01*
X101917418Y-68585781D01*
X98981778Y-68900373D01*
X96432276Y-69840910D01*
X94285595Y-71397385D01*
X92558417Y-73559790D01*
X92024332Y-74520786D01*
X91293918Y-76646815D01*
X91007595Y-79052506D01*
X90000014Y-79052506D01*
X90037530Y-77777894D01*
X90823076Y-74985606D01*
X91128169Y-74299157D01*
X92731539Y-71690745D01*
X94746050Y-69696276D01*
X97154433Y-68326691D01*
X99939423Y-67592933D01*
X101917418Y-67462071D01*
X103591359Y-67512525D01*
G37*
G04 #@! TD.AperFunction*
X132611367Y-66378810D02*
X134824211Y-66862439D01*
X135558823Y-67158059D01*
X137478523Y-68344804D01*
X139307772Y-69974471D01*
X140828558Y-71826784D01*
X141691059Y-73353976D01*
X142407105Y-75806992D01*
X142606761Y-78499598D01*
X142293918Y-81167174D01*
X141543312Y-83400187D01*
X140015879Y-85788161D01*
X137984440Y-87676478D01*
X135523328Y-89016765D01*
X132706874Y-89760651D01*
X131593961Y-89874779D01*
X130147210Y-89909020D01*
X128836283Y-89847124D01*
X128041429Y-89723367D01*
X125226984Y-88578951D01*
X122803365Y-86853447D01*
X120854633Y-84619292D01*
X119705006Y-82539614D01*
X118918248Y-79879552D01*
X118826727Y-77747012D01*
X119877143Y-77747012D01*
X119941805Y-79262730D01*
X120109637Y-80671016D01*
X120297552Y-81502348D01*
X121462251Y-83931613D01*
X123146401Y-85932912D01*
X125244978Y-87458878D01*
X127652962Y-88462143D01*
X130265330Y-88895340D01*
X132977061Y-88711103D01*
X135012817Y-88139266D01*
X137318413Y-86902958D01*
X139157644Y-85187752D01*
X140508073Y-83105735D01*
X141347264Y-80768993D01*
X141652779Y-78289613D01*
X141402180Y-75779681D01*
X140573032Y-73351284D01*
X139142896Y-71116509D01*
X138552191Y-70458039D01*
X136853481Y-68990415D01*
X135025401Y-68035025D01*
X132860803Y-67503604D01*
X131253471Y-67348019D01*
X129649340Y-67291239D01*
X128488230Y-67366191D01*
X127492624Y-67615556D01*
X126385005Y-68082017D01*
X126338343Y-68103958D01*
X123798520Y-69635212D01*
X121880992Y-71534759D01*
X120596048Y-73787242D01*
X119953974Y-76377309D01*
X119877143Y-77747012D01*
X118826727Y-77747012D01*
X118802444Y-77181200D01*
X119316438Y-74550250D01*
X120419074Y-72092393D01*
X122069198Y-69913317D01*
X124225655Y-68118715D01*
X125629169Y-67325856D01*
X127745920Y-66615046D01*
X130162628Y-66297855D01*
X132611367Y-66378810D01*
G04 #@! TA.AperFunction,EtchedComponent*
G36*
X132611367Y-66378810D02*
G01*
X134824211Y-66862439D01*
X135558823Y-67158059D01*
X137478523Y-68344804D01*
X139307772Y-69974471D01*
X140828558Y-71826784D01*
X141691059Y-73353976D01*
X142407105Y-75806992D01*
X142606761Y-78499598D01*
X142293918Y-81167174D01*
X141543312Y-83400187D01*
X140015879Y-85788161D01*
X137984440Y-87676478D01*
X135523328Y-89016765D01*
X132706874Y-89760651D01*
X131593961Y-89874779D01*
X130147210Y-89909020D01*
X128836283Y-89847124D01*
X128041429Y-89723367D01*
X125226984Y-88578951D01*
X122803365Y-86853447D01*
X120854633Y-84619292D01*
X119705006Y-82539614D01*
X118918248Y-79879552D01*
X118826727Y-77747012D01*
X119877143Y-77747012D01*
X119941805Y-79262730D01*
X120109637Y-80671016D01*
X120297552Y-81502348D01*
X121462251Y-83931613D01*
X123146401Y-85932912D01*
X125244978Y-87458878D01*
X127652962Y-88462143D01*
X130265330Y-88895340D01*
X132977061Y-88711103D01*
X135012817Y-88139266D01*
X137318413Y-86902958D01*
X139157644Y-85187752D01*
X140508073Y-83105735D01*
X141347264Y-80768993D01*
X141652779Y-78289613D01*
X141402180Y-75779681D01*
X140573032Y-73351284D01*
X139142896Y-71116509D01*
X138552191Y-70458039D01*
X136853481Y-68990415D01*
X135025401Y-68035025D01*
X132860803Y-67503604D01*
X131253471Y-67348019D01*
X129649340Y-67291239D01*
X128488230Y-67366191D01*
X127492624Y-67615556D01*
X126385005Y-68082017D01*
X126338343Y-68103958D01*
X123798520Y-69635212D01*
X121880992Y-71534759D01*
X120596048Y-73787242D01*
X119953974Y-76377309D01*
X119877143Y-77747012D01*
X118826727Y-77747012D01*
X118802444Y-77181200D01*
X119316438Y-74550250D01*
X120419074Y-72092393D01*
X122069198Y-69913317D01*
X124225655Y-68118715D01*
X125629169Y-67325856D01*
X127745920Y-66615046D01*
X130162628Y-66297855D01*
X132611367Y-66378810D01*
G37*
G04 #@! TD.AperFunction*
D11*
X93200000Y-78300000D03*
X93200000Y-81500000D03*
X98100000Y-81500000D03*
X98100000Y-78300000D03*
X122200000Y-77400000D03*
X122200000Y-80600000D03*
X127100000Y-80600000D03*
X127100000Y-77400000D03*
D12*
X115760000Y-168500000D03*
X115760000Y-165960000D03*
X115760000Y-163420000D03*
X115760000Y-160880000D03*
X115760000Y-158340000D03*
X115760000Y-155800000D03*
X115760000Y-153260000D03*
X115760000Y-150720000D03*
X115760000Y-148180000D03*
X118300000Y-148180000D03*
X120840000Y-148180000D03*
X123380000Y-148180000D03*
X125920000Y-148180000D03*
X128460000Y-148180000D03*
X131000000Y-148180000D03*
X131000000Y-150720000D03*
X131000000Y-153260000D03*
X131000000Y-155800000D03*
X131000000Y-158340000D03*
X131000000Y-160880000D03*
X131000000Y-163420000D03*
X131000000Y-165960000D03*
X131000000Y-168500000D03*
D13*
X114300000Y-114200000D03*
X116840000Y-114200000D03*
X119380000Y-114200000D03*
X121920000Y-114200000D03*
D14*
X137000000Y-146700000D03*
X143500000Y-146700000D03*
X137000000Y-151200000D03*
X143500000Y-151200000D03*
X84900000Y-153300000D03*
X91400000Y-153300000D03*
X84900000Y-157800000D03*
X91400000Y-157800000D03*
X93700000Y-163200000D03*
X100200000Y-163200000D03*
X93700000Y-167700000D03*
X100200000Y-167700000D03*
D15*
X88200000Y-130600000D03*
D16*
X88200000Y-132600000D03*
X88200000Y-134600000D03*
X88200000Y-136600000D03*
D14*
X93700000Y-143600000D03*
X100200000Y-143600000D03*
X93700000Y-148100000D03*
X100200000Y-148100000D03*
X101700000Y-153300000D03*
X108200000Y-153300000D03*
X101700000Y-157800000D03*
X108200000Y-157800000D03*
X142600000Y-157500000D03*
X149100000Y-157500000D03*
X142600000Y-162000000D03*
X149100000Y-162000000D03*
D17*
X141700000Y-128200000D03*
D14*
X146700000Y-128200000D03*
D18*
X95200000Y-79100000D03*
X125500000Y-77400000D03*
X122200000Y-79000000D03*
X96300000Y-78300000D03*
X96000000Y-81500000D03*
X93200000Y-79900000D03*
X124600000Y-80600000D03*
X108300000Y-119000000D03*
X117000000Y-159500000D03*
X124100000Y-118100000D03*
X105000000Y-153300000D03*
X140700000Y-148000000D03*
X134800000Y-159300000D03*
X137000000Y-157900000D03*
D19*
X94900000Y-80900000D02*
X95200000Y-80600000D01*
X95200000Y-80600000D02*
X95200000Y-79100000D01*
X93200000Y-81500000D02*
X94300000Y-81500000D01*
X94300000Y-81500000D02*
X94900000Y-80900000D01*
X125500000Y-77400000D02*
X127100000Y-77400000D01*
D20*
X122200000Y-79000000D02*
X122200000Y-77400000D01*
D21*
X96300000Y-78300000D02*
X98100000Y-78300000D01*
D20*
X98100000Y-81500000D02*
X96000000Y-81500000D01*
X93200000Y-79900000D02*
X93200000Y-78300000D01*
X98000000Y-81600000D02*
X98100000Y-81500000D01*
X124600000Y-80600000D02*
X127100000Y-80600000D01*
D21*
X117000000Y-159500000D02*
X124540000Y-159500000D01*
X105000000Y-154600000D02*
X108200000Y-157800000D01*
X93700000Y-148100000D02*
X100200000Y-148100000D01*
X137000000Y-146700000D02*
X143500000Y-146700000D01*
X105000000Y-153300000D02*
X105000000Y-154600000D01*
D20*
X110500000Y-116800000D02*
X108300000Y-119000000D01*
X123700000Y-116800000D02*
X124100000Y-117200000D01*
X114300000Y-116800000D02*
X114300000Y-114200000D01*
X124100000Y-117200000D02*
X124100000Y-118100000D01*
X114300000Y-116800000D02*
X110500000Y-116800000D01*
D21*
X124540000Y-159500000D02*
X131000000Y-165960000D01*
X93700000Y-167700000D02*
X100200000Y-167700000D01*
D20*
X114300000Y-116800000D02*
X123700000Y-116800000D01*
D21*
X101700000Y-157800000D02*
X108200000Y-157800000D01*
X142600000Y-157500000D02*
X149100000Y-157500000D01*
X84900000Y-157800000D02*
X91400000Y-157800000D01*
X116935000Y-149355000D02*
X139345000Y-149355000D01*
X115760000Y-148180000D02*
X116935000Y-149355000D01*
X139345000Y-149355000D02*
X140700000Y-148000000D01*
X134800000Y-159300000D02*
X133220000Y-160880000D01*
X133220000Y-160880000D02*
X131000000Y-160880000D01*
X93700000Y-143600000D02*
X100200000Y-143600000D01*
X84900000Y-153300000D02*
X91400000Y-153300000D01*
X93700000Y-163200000D02*
X100200000Y-163200000D01*
X101700000Y-153300000D02*
X102800000Y-153300000D01*
X107400000Y-152500000D02*
X108200000Y-153300000D01*
X103600000Y-152500000D02*
X107400000Y-152500000D01*
X102800000Y-153300000D02*
X103600000Y-152500000D01*
X131000000Y-158340000D02*
X136560000Y-158340000D01*
X136560000Y-158340000D02*
X137000000Y-157900000D01*
X137000000Y-151200000D02*
X143500000Y-151200000D01*
X136400000Y-155800000D02*
X142600000Y-162000000D01*
X131000000Y-155800000D02*
X136400000Y-155800000D01*
X142600000Y-162000000D02*
X149100000Y-162000000D01*
G04 #@! TA.AperFunction,Conductor*
G36*
X129714663Y-150008185D02*
G01*
X129760418Y-150060989D01*
X129770362Y-150130147D01*
X129761180Y-150162310D01*
X129710703Y-150277385D01*
X129655436Y-150495628D01*
X129655434Y-150495640D01*
X129636844Y-150719994D01*
X129636844Y-150720005D01*
X129655434Y-150944359D01*
X129655436Y-150944371D01*
X129710703Y-151162614D01*
X129801140Y-151368792D01*
X129924276Y-151557265D01*
X129924284Y-151557276D01*
X130076756Y-151722902D01*
X130076760Y-151722906D01*
X130254424Y-151861189D01*
X130254429Y-151861191D01*
X130254431Y-151861193D01*
X130290930Y-151880946D01*
X130340520Y-151930165D01*
X130355628Y-151998382D01*
X130331457Y-152063937D01*
X130290930Y-152099054D01*
X130254431Y-152118806D01*
X130254422Y-152118812D01*
X130076761Y-152257092D01*
X130076756Y-152257097D01*
X129924284Y-152422723D01*
X129924276Y-152422734D01*
X129801140Y-152611207D01*
X129710703Y-152817385D01*
X129655436Y-153035628D01*
X129655434Y-153035640D01*
X129636844Y-153259994D01*
X129636844Y-153260005D01*
X129655434Y-153484359D01*
X129655436Y-153484371D01*
X129710703Y-153702614D01*
X129801140Y-153908792D01*
X129924276Y-154097265D01*
X129924284Y-154097276D01*
X130076756Y-154262902D01*
X130076760Y-154262906D01*
X130254424Y-154401189D01*
X130254429Y-154401191D01*
X130254431Y-154401193D01*
X130290930Y-154420946D01*
X130340520Y-154470165D01*
X130355628Y-154538382D01*
X130331457Y-154603937D01*
X130290930Y-154639054D01*
X130254431Y-154658806D01*
X130254422Y-154658812D01*
X130076761Y-154797092D01*
X130076756Y-154797097D01*
X129924284Y-154962723D01*
X129924276Y-154962734D01*
X129801140Y-155151207D01*
X129710703Y-155357385D01*
X129655436Y-155575628D01*
X129655434Y-155575640D01*
X129636844Y-155799994D01*
X129636844Y-155800005D01*
X129655434Y-156024359D01*
X129655436Y-156024371D01*
X129710703Y-156242614D01*
X129801140Y-156448792D01*
X129924276Y-156637265D01*
X129924284Y-156637276D01*
X130076756Y-156802902D01*
X130076760Y-156802906D01*
X130254424Y-156941189D01*
X130254429Y-156941191D01*
X130254431Y-156941193D01*
X130290930Y-156960946D01*
X130340520Y-157010165D01*
X130355628Y-157078382D01*
X130331457Y-157143937D01*
X130290930Y-157179054D01*
X130254431Y-157198806D01*
X130254422Y-157198812D01*
X130076761Y-157337092D01*
X130076756Y-157337097D01*
X129924284Y-157502723D01*
X129924276Y-157502734D01*
X129801140Y-157691207D01*
X129710703Y-157897385D01*
X129655436Y-158115628D01*
X129655434Y-158115640D01*
X129636844Y-158339994D01*
X129636844Y-158340005D01*
X129655434Y-158564359D01*
X129655436Y-158564371D01*
X129710703Y-158782614D01*
X129801140Y-158988792D01*
X129924276Y-159177265D01*
X129924284Y-159177276D01*
X130076756Y-159342902D01*
X130076760Y-159342906D01*
X130254424Y-159481189D01*
X130254429Y-159481191D01*
X130254431Y-159481193D01*
X130290930Y-159500946D01*
X130340520Y-159550165D01*
X130355628Y-159618382D01*
X130331457Y-159683937D01*
X130290930Y-159719054D01*
X130254431Y-159738806D01*
X130254422Y-159738812D01*
X130076761Y-159877092D01*
X130076756Y-159877097D01*
X129924284Y-160042723D01*
X129924276Y-160042734D01*
X129801140Y-160231207D01*
X129710703Y-160437385D01*
X129655436Y-160655628D01*
X129655434Y-160655640D01*
X129636844Y-160879994D01*
X129636844Y-160880005D01*
X129655434Y-161104359D01*
X129655436Y-161104371D01*
X129710703Y-161322614D01*
X129801140Y-161528792D01*
X129924276Y-161717265D01*
X129924284Y-161717276D01*
X130076756Y-161882902D01*
X130076760Y-161882906D01*
X130254424Y-162021189D01*
X130254429Y-162021191D01*
X130254431Y-162021193D01*
X130290930Y-162040946D01*
X130340520Y-162090165D01*
X130355628Y-162158382D01*
X130331457Y-162223937D01*
X130290930Y-162259054D01*
X130254431Y-162278806D01*
X130254422Y-162278812D01*
X130076761Y-162417092D01*
X130076756Y-162417097D01*
X129924284Y-162582723D01*
X129924276Y-162582734D01*
X129801140Y-162771207D01*
X129710703Y-162977385D01*
X129655436Y-163195628D01*
X129655434Y-163195640D01*
X129636844Y-163419994D01*
X129636844Y-163420005D01*
X129655434Y-163644359D01*
X129655436Y-163644371D01*
X129710703Y-163862614D01*
X129801140Y-164068792D01*
X129924276Y-164257265D01*
X129924284Y-164257276D01*
X130062244Y-164407138D01*
X130076760Y-164422906D01*
X130254424Y-164561189D01*
X130290930Y-164580945D01*
X130297695Y-164584606D01*
X130347286Y-164633825D01*
X130362394Y-164702042D01*
X130338224Y-164767597D01*
X130309802Y-164795236D01*
X130128922Y-164921890D01*
X130128920Y-164921891D01*
X129961891Y-165088920D01*
X129961886Y-165088926D01*
X129826400Y-165282420D01*
X129826399Y-165282422D01*
X129726570Y-165496507D01*
X129726567Y-165496513D01*
X129669364Y-165709999D01*
X129669364Y-165710000D01*
X130566988Y-165710000D01*
X130534075Y-165767007D01*
X130500000Y-165894174D01*
X130500000Y-166025826D01*
X130534075Y-166152993D01*
X130566988Y-166210000D01*
X129669364Y-166210000D01*
X129726567Y-166423486D01*
X129726570Y-166423492D01*
X129826399Y-166637578D01*
X129961894Y-166831082D01*
X130128917Y-166998105D01*
X130309802Y-167124763D01*
X130353427Y-167179340D01*
X130360619Y-167248839D01*
X130329097Y-167311193D01*
X130297697Y-167335392D01*
X130254427Y-167358809D01*
X130254422Y-167358812D01*
X130076761Y-167497092D01*
X130076756Y-167497097D01*
X129924284Y-167662723D01*
X129924276Y-167662734D01*
X129801140Y-167851207D01*
X129710703Y-168057385D01*
X129655436Y-168275628D01*
X129655434Y-168275640D01*
X129636844Y-168499994D01*
X129636844Y-168500005D01*
X129655434Y-168724359D01*
X129655436Y-168724371D01*
X129710703Y-168942614D01*
X129801140Y-169148792D01*
X129924276Y-169337265D01*
X129924284Y-169337276D01*
X130076756Y-169502902D01*
X130076760Y-169502906D01*
X130254424Y-169641189D01*
X130254425Y-169641189D01*
X130254427Y-169641191D01*
X130297558Y-169664532D01*
X130452426Y-169748342D01*
X130496504Y-169763474D01*
X130513821Y-169769419D01*
X130570837Y-169809804D01*
X130596968Y-169874603D01*
X130583917Y-169943243D01*
X130535828Y-169993931D01*
X130474248Y-170010698D01*
X115974907Y-170091250D01*
X115907759Y-170071938D01*
X115861712Y-170019389D01*
X115851384Y-169950287D01*
X115880055Y-169886571D01*
X115938623Y-169848471D01*
X115953800Y-169844944D01*
X116094635Y-169821444D01*
X116307574Y-169748342D01*
X116505576Y-169641189D01*
X116683240Y-169502906D01*
X116835722Y-169337268D01*
X116958860Y-169148791D01*
X117049296Y-168942616D01*
X117104564Y-168724368D01*
X117123156Y-168500000D01*
X117104564Y-168275632D01*
X117049296Y-168057384D01*
X116958860Y-167851209D01*
X116949106Y-167836280D01*
X116835723Y-167662734D01*
X116835715Y-167662723D01*
X116683243Y-167497097D01*
X116683238Y-167497092D01*
X116505577Y-167358812D01*
X116505578Y-167358812D01*
X116505576Y-167358811D01*
X116469070Y-167339055D01*
X116419479Y-167289836D01*
X116404371Y-167221619D01*
X116428541Y-167156064D01*
X116469070Y-167120945D01*
X116469084Y-167120936D01*
X116505576Y-167101189D01*
X116683240Y-166962906D01*
X116835722Y-166797268D01*
X116958860Y-166608791D01*
X117049296Y-166402616D01*
X117104564Y-166184368D01*
X117112715Y-166086000D01*
X117123156Y-165960005D01*
X117123156Y-165959994D01*
X117104565Y-165735640D01*
X117104563Y-165735628D01*
X117049296Y-165517385D01*
X117040138Y-165496507D01*
X116958860Y-165311209D01*
X116955580Y-165306189D01*
X116835723Y-165122734D01*
X116835715Y-165122723D01*
X116683243Y-164957097D01*
X116683238Y-164957092D01*
X116505577Y-164818812D01*
X116505578Y-164818812D01*
X116505576Y-164818811D01*
X116469070Y-164799055D01*
X116419479Y-164749836D01*
X116404371Y-164681619D01*
X116428541Y-164616064D01*
X116469070Y-164580945D01*
X116469084Y-164580936D01*
X116505576Y-164561189D01*
X116683240Y-164422906D01*
X116835722Y-164257268D01*
X116958860Y-164068791D01*
X117049296Y-163862616D01*
X117104564Y-163644368D01*
X117123156Y-163420000D01*
X117111999Y-163285359D01*
X117104565Y-163195640D01*
X117104563Y-163195628D01*
X117049296Y-162977385D01*
X116958859Y-162771207D01*
X116835723Y-162582734D01*
X116835715Y-162582723D01*
X116683243Y-162417097D01*
X116683238Y-162417092D01*
X116505577Y-162278812D01*
X116505578Y-162278812D01*
X116505576Y-162278811D01*
X116469070Y-162259055D01*
X116419479Y-162209836D01*
X116404371Y-162141619D01*
X116428541Y-162076064D01*
X116469070Y-162040945D01*
X116469084Y-162040936D01*
X116505576Y-162021189D01*
X116683240Y-161882906D01*
X116835722Y-161717268D01*
X116958860Y-161528791D01*
X117049296Y-161322616D01*
X117104564Y-161104368D01*
X117123156Y-160880000D01*
X117122750Y-160875105D01*
X117104565Y-160655640D01*
X117104563Y-160655628D01*
X117049296Y-160437385D01*
X116958859Y-160231207D01*
X116835723Y-160042734D01*
X116835715Y-160042723D01*
X116683243Y-159877097D01*
X116683238Y-159877092D01*
X116505577Y-159738812D01*
X116505578Y-159738812D01*
X116505576Y-159738811D01*
X116469070Y-159719055D01*
X116419479Y-159669836D01*
X116404371Y-159601619D01*
X116428541Y-159536064D01*
X116469070Y-159500945D01*
X116469084Y-159500936D01*
X116505576Y-159481189D01*
X116683240Y-159342906D01*
X116835722Y-159177268D01*
X116958860Y-158988791D01*
X117049296Y-158782616D01*
X117104564Y-158564368D01*
X117107844Y-158524785D01*
X117123156Y-158340005D01*
X117123156Y-158339994D01*
X117104565Y-158115640D01*
X117104563Y-158115628D01*
X117049296Y-157897385D01*
X116958859Y-157691207D01*
X116835723Y-157502734D01*
X116835715Y-157502723D01*
X116683243Y-157337097D01*
X116683238Y-157337092D01*
X116505577Y-157198812D01*
X116505578Y-157198812D01*
X116505576Y-157198811D01*
X116469070Y-157179055D01*
X116419479Y-157129836D01*
X116404371Y-157061619D01*
X116428541Y-156996064D01*
X116469070Y-156960945D01*
X116469084Y-156960936D01*
X116505576Y-156941189D01*
X116683240Y-156802906D01*
X116835722Y-156637268D01*
X116958860Y-156448791D01*
X117049296Y-156242616D01*
X117104564Y-156024368D01*
X117123156Y-155800000D01*
X117104564Y-155575632D01*
X117049296Y-155357384D01*
X116958860Y-155151209D01*
X116955989Y-155146815D01*
X116835723Y-154962734D01*
X116835715Y-154962723D01*
X116683243Y-154797097D01*
X116683238Y-154797092D01*
X116505577Y-154658812D01*
X116505578Y-154658812D01*
X116505576Y-154658811D01*
X116469070Y-154639055D01*
X116419479Y-154589836D01*
X116404371Y-154521619D01*
X116428541Y-154456064D01*
X116469070Y-154420945D01*
X116469084Y-154420936D01*
X116505576Y-154401189D01*
X116683240Y-154262906D01*
X116835722Y-154097268D01*
X116958860Y-153908791D01*
X117049296Y-153702616D01*
X117104564Y-153484368D01*
X117123156Y-153260000D01*
X117104564Y-153035632D01*
X117049296Y-152817384D01*
X116958860Y-152611209D01*
X116949106Y-152596280D01*
X116835723Y-152422734D01*
X116835715Y-152422723D01*
X116683243Y-152257097D01*
X116683238Y-152257092D01*
X116505577Y-152118812D01*
X116505578Y-152118812D01*
X116505576Y-152118811D01*
X116469070Y-152099055D01*
X116419479Y-152049836D01*
X116404371Y-151981619D01*
X116428541Y-151916064D01*
X116469070Y-151880945D01*
X116469084Y-151880936D01*
X116505576Y-151861189D01*
X116683240Y-151722906D01*
X116835722Y-151557268D01*
X116958860Y-151368791D01*
X117049296Y-151162616D01*
X117104564Y-150944368D01*
X117123156Y-150720000D01*
X117104564Y-150495632D01*
X117049296Y-150277384D01*
X116998819Y-150162309D01*
X116989917Y-150093010D01*
X117019894Y-150029898D01*
X117079234Y-149993011D01*
X117112376Y-149988500D01*
X129647624Y-149988500D01*
X129714663Y-150008185D01*
G37*
G04 #@! TD.AperFunction*
M02*
