G04 #@! TF.GenerationSoftware,KiCad,Pcbnew,8.0.5-8.0.5-0~ubuntu24.04.1*
G04 #@! TF.CreationDate,2024-10-05T12:13:45+09:00*
G04 #@! TF.ProjectId,gopher_rp2040_sw,676f7068-6572-45f7-9270-323034305f73,rev?*
G04 #@! TF.SameCoordinates,Original*
G04 #@! TF.FileFunction,Legend,Bot*
G04 #@! TF.FilePolarity,Positive*
%FSLAX46Y46*%
G04 Gerber Fmt 4.6, Leading zero omitted, Abs format (unit mm)*
G04 Created by KiCad (PCBNEW 8.0.5-8.0.5-0~ubuntu24.04.1) date 2024-10-05 12:13:45*
%MOMM*%
%LPD*%
G01*
G04 APERTURE LIST*
%ADD10C,0.150000*%
%ADD11C,0.120000*%
G04 APERTURE END LIST*
D10*
X116629166Y-73204819D02*
X116962499Y-72728628D01*
X117200594Y-73204819D02*
X117200594Y-72204819D01*
X117200594Y-72204819D02*
X116819642Y-72204819D01*
X116819642Y-72204819D02*
X116724404Y-72252438D01*
X116724404Y-72252438D02*
X116676785Y-72300057D01*
X116676785Y-72300057D02*
X116629166Y-72395295D01*
X116629166Y-72395295D02*
X116629166Y-72538152D01*
X116629166Y-72538152D02*
X116676785Y-72633390D01*
X116676785Y-72633390D02*
X116724404Y-72681009D01*
X116724404Y-72681009D02*
X116819642Y-72728628D01*
X116819642Y-72728628D02*
X117200594Y-72728628D01*
X116248213Y-72300057D02*
X116200594Y-72252438D01*
X116200594Y-72252438D02*
X116105356Y-72204819D01*
X116105356Y-72204819D02*
X115867261Y-72204819D01*
X115867261Y-72204819D02*
X115772023Y-72252438D01*
X115772023Y-72252438D02*
X115724404Y-72300057D01*
X115724404Y-72300057D02*
X115676785Y-72395295D01*
X115676785Y-72395295D02*
X115676785Y-72490533D01*
X115676785Y-72490533D02*
X115724404Y-72633390D01*
X115724404Y-72633390D02*
X116295832Y-73204819D01*
X116295832Y-73204819D02*
X115676785Y-73204819D01*
D11*
X116721078Y-73690000D02*
X116203922Y-73690000D01*
X116721078Y-75110000D02*
X116203922Y-75110000D01*
M02*
