%TF.GenerationSoftware,KiCad,Pcbnew,9.0.7-9.0.7~ubuntu24.04.1*%
%TF.CreationDate,2026-04-29T15:23:08+09:00*%
%TF.ProjectId,gopher_pirot,676f7068-6572-45f7-9069-726f742e6b69,rev?*%
%TF.SameCoordinates,Original*%
%TF.FileFunction,Copper,L1,Top*%
%TF.FilePolarity,Positive*%
%FSLAX46Y46*%
G04 Gerber Fmt 4.6, Leading zero omitted, Abs format (unit mm)*
G04 Created by KiCad (PCBNEW 9.0.7-9.0.7~ubuntu24.04.1) date 2026-04-29 15:23:08*
%MOMM*%
%LPD*%
G01*
G04 APERTURE LIST*
%TA.AperFunction,EtchedComponent*%
%ADD10C,0.100000*%
%TD*%
%TA.AperFunction,EtchedComponent*%
%ADD11C,0.010000*%
%TD*%
%TA.AperFunction,SMDPad,CuDef*%
%ADD12R,1.500000X0.900000*%
%TD*%
%TA.AperFunction,ComponentPad*%
%ADD13C,2.000000*%
%TD*%
%TA.AperFunction,ComponentPad*%
%ADD14O,1.700000X1.700000*%
%TD*%
%TA.AperFunction,ComponentPad*%
%ADD15R,1.350000X1.350000*%
%TD*%
%TA.AperFunction,ComponentPad*%
%ADD16O,1.350000X1.350000*%
%TD*%
%TA.AperFunction,ComponentPad*%
%ADD17R,1.700000X1.700000*%
%TD*%
%TA.AperFunction,ComponentPad*%
%ADD18R,2.000000X2.000000*%
%TD*%
%TA.AperFunction,ViaPad*%
%ADD19C,0.900000*%
%TD*%
%TA.AperFunction,ViaPad*%
%ADD20C,0.600000*%
%TD*%
%TA.AperFunction,Conductor*%
%ADD21C,0.600000*%
%TD*%
%TA.AperFunction,Conductor*%
%ADD22C,0.250000*%
%TD*%
G04 APERTURE END LIST*
D10*
%TO.C,G\u002A\u002A\u002A*%
X73410000Y-67615000D02*
X74670000Y-68075000D01*
X75910000Y-68485000D01*
X77210000Y-68815000D01*
X77510000Y-70445000D01*
X77740000Y-71735000D01*
X77760000Y-71795000D01*
X77720000Y-71855000D01*
X77480000Y-71925000D01*
X76950000Y-71875000D01*
X76250000Y-71695000D01*
X75510000Y-71395000D01*
X74550000Y-70775000D01*
X73640000Y-69745000D01*
X73110000Y-68515000D01*
X72890000Y-67495000D01*
X73410000Y-67615000D01*
%TA.AperFunction,EtchedComponent*%
G36*
X73410000Y-67615000D02*
G01*
X74670000Y-68075000D01*
X75910000Y-68485000D01*
X77210000Y-68815000D01*
X77510000Y-70445000D01*
X77740000Y-71735000D01*
X77760000Y-71795000D01*
X77720000Y-71855000D01*
X77480000Y-71925000D01*
X76950000Y-71875000D01*
X76250000Y-71695000D01*
X75510000Y-71395000D01*
X74550000Y-70775000D01*
X73640000Y-69745000D01*
X73110000Y-68515000D01*
X72890000Y-67495000D01*
X73410000Y-67615000D01*
G37*
%TD.AperFunction*%
X152360000Y-66315000D02*
X152300000Y-66625000D01*
X151910000Y-67925000D01*
X151270000Y-68905000D01*
X150350000Y-69625000D01*
X149030000Y-70185000D01*
X148260000Y-70415000D01*
X147650000Y-70565000D01*
X147300000Y-70565000D01*
X147190000Y-70445000D01*
X147220000Y-70125000D01*
X147330000Y-69595000D01*
X147450000Y-68855000D01*
X147510000Y-68455000D01*
X147620000Y-67745000D01*
X147770000Y-67245000D01*
X148000000Y-66955000D01*
X147990000Y-66955000D01*
X148380000Y-66805000D01*
X149490000Y-66545000D01*
X150300000Y-66275000D01*
X150470000Y-66225000D01*
X150740000Y-66115000D01*
X151130000Y-65965000D01*
X151310000Y-65895000D01*
X151720000Y-65715000D01*
X152100000Y-65545000D01*
X152510000Y-65365000D01*
X152360000Y-66315000D01*
%TA.AperFunction,EtchedComponent*%
G36*
X152360000Y-66315000D02*
G01*
X152300000Y-66625000D01*
X151910000Y-67925000D01*
X151270000Y-68905000D01*
X150350000Y-69625000D01*
X149030000Y-70185000D01*
X148260000Y-70415000D01*
X147650000Y-70565000D01*
X147300000Y-70565000D01*
X147190000Y-70445000D01*
X147220000Y-70125000D01*
X147330000Y-69595000D01*
X147450000Y-68855000D01*
X147510000Y-68455000D01*
X147620000Y-67745000D01*
X147770000Y-67245000D01*
X148000000Y-66955000D01*
X147990000Y-66955000D01*
X148380000Y-66805000D01*
X149490000Y-66545000D01*
X150300000Y-66275000D01*
X150470000Y-66225000D01*
X150740000Y-66115000D01*
X151130000Y-65965000D01*
X151310000Y-65895000D01*
X151720000Y-65715000D01*
X152100000Y-65545000D01*
X152510000Y-65365000D01*
X152360000Y-66315000D01*
G37*
%TD.AperFunction*%
X138150000Y-54750000D02*
X138910000Y-55655000D01*
X139730000Y-56805000D01*
X140330000Y-57715000D01*
X140820000Y-58655000D01*
X141460000Y-60215000D01*
X141930000Y-62285000D01*
X142050000Y-64375000D01*
X141790000Y-66285000D01*
X141170000Y-68095000D01*
X140230000Y-69735000D01*
X138960000Y-71215000D01*
X137370000Y-72465000D01*
X135460000Y-73435000D01*
X133290000Y-74045000D01*
X132150000Y-74205000D01*
X130610000Y-74295000D01*
X129430000Y-74313750D01*
X128110000Y-74246250D01*
X126620000Y-74032500D01*
X127860000Y-74000000D01*
X130350000Y-73595000D01*
X132590000Y-72755000D01*
X134440000Y-71665000D01*
X135370000Y-70875000D01*
X136110000Y-70245000D01*
X136490000Y-69835000D01*
X137220000Y-68885000D01*
X137910000Y-67955000D01*
X138890000Y-66015000D01*
X139470000Y-63865000D01*
X139670000Y-61595000D01*
X139650000Y-61005000D01*
X139430000Y-59015000D01*
X138880000Y-57185000D01*
X138070000Y-55535000D01*
X137550000Y-54555000D01*
X137490000Y-54280000D01*
X138150000Y-54750000D01*
%TA.AperFunction,EtchedComponent*%
G36*
X138150000Y-54750000D02*
G01*
X138910000Y-55655000D01*
X139730000Y-56805000D01*
X140330000Y-57715000D01*
X140820000Y-58655000D01*
X141460000Y-60215000D01*
X141930000Y-62285000D01*
X142050000Y-64375000D01*
X141790000Y-66285000D01*
X141170000Y-68095000D01*
X140230000Y-69735000D01*
X138960000Y-71215000D01*
X137370000Y-72465000D01*
X135460000Y-73435000D01*
X133290000Y-74045000D01*
X132150000Y-74205000D01*
X130610000Y-74295000D01*
X129430000Y-74313750D01*
X128110000Y-74246250D01*
X126620000Y-74032500D01*
X127860000Y-74000000D01*
X130350000Y-73595000D01*
X132590000Y-72755000D01*
X134440000Y-71665000D01*
X135370000Y-70875000D01*
X136110000Y-70245000D01*
X136490000Y-69835000D01*
X137220000Y-68885000D01*
X137910000Y-67955000D01*
X138890000Y-66015000D01*
X139470000Y-63865000D01*
X139670000Y-61595000D01*
X139650000Y-61005000D01*
X139430000Y-59015000D01*
X138880000Y-57185000D01*
X138070000Y-55535000D01*
X137550000Y-54555000D01*
X137490000Y-54280000D01*
X138150000Y-54750000D01*
G37*
%TD.AperFunction*%
X116425000Y-29915000D02*
X118875000Y-30135000D01*
X120905000Y-30510000D01*
X124235000Y-31600000D01*
X130090000Y-33855000D01*
X132170000Y-34715000D01*
X133860000Y-35510000D01*
X135040000Y-36360000D01*
X135780000Y-37085000D01*
X137720000Y-39005000D01*
X139120000Y-40425000D01*
X139790000Y-41115000D01*
X139540000Y-41755000D01*
X139050000Y-43025000D01*
X138490000Y-44465000D01*
X138010000Y-45715000D01*
X137600000Y-46755000D01*
X137390000Y-47285000D01*
X137080000Y-48035000D01*
X136790000Y-48645000D01*
X136150000Y-48405000D01*
X134950000Y-47935000D01*
X133140000Y-47405000D01*
X131100000Y-46945000D01*
X128690000Y-46525000D01*
X126100000Y-46185000D01*
X123100000Y-45895000D01*
X120580000Y-45725000D01*
X116870000Y-45575000D01*
X114180000Y-45535000D01*
X111650000Y-45535000D01*
X111650000Y-43825000D01*
X111640000Y-41375000D01*
X111620000Y-38485000D01*
X111600000Y-36655000D01*
X111550000Y-35535000D01*
X111480000Y-33925000D01*
X111290000Y-31785000D01*
X111020000Y-29885000D01*
X110990000Y-29695000D01*
X116425000Y-29915000D01*
%TA.AperFunction,EtchedComponent*%
G36*
X116425000Y-29915000D02*
G01*
X118875000Y-30135000D01*
X120905000Y-30510000D01*
X124235000Y-31600000D01*
X130090000Y-33855000D01*
X132170000Y-34715000D01*
X133860000Y-35510000D01*
X135040000Y-36360000D01*
X135780000Y-37085000D01*
X137720000Y-39005000D01*
X139120000Y-40425000D01*
X139790000Y-41115000D01*
X139540000Y-41755000D01*
X139050000Y-43025000D01*
X138490000Y-44465000D01*
X138010000Y-45715000D01*
X137600000Y-46755000D01*
X137390000Y-47285000D01*
X137080000Y-48035000D01*
X136790000Y-48645000D01*
X136150000Y-48405000D01*
X134950000Y-47935000D01*
X133140000Y-47405000D01*
X131100000Y-46945000D01*
X128690000Y-46525000D01*
X126100000Y-46185000D01*
X123100000Y-45895000D01*
X120580000Y-45725000D01*
X116870000Y-45575000D01*
X114180000Y-45535000D01*
X111650000Y-45535000D01*
X111650000Y-43825000D01*
X111640000Y-41375000D01*
X111620000Y-38485000D01*
X111600000Y-36655000D01*
X111550000Y-35535000D01*
X111480000Y-33925000D01*
X111290000Y-31785000D01*
X111020000Y-29885000D01*
X110990000Y-29695000D01*
X116425000Y-29915000D01*
G37*
%TD.AperFunction*%
X88180000Y-54950000D02*
X87620000Y-55655000D01*
X86930000Y-56635000D01*
X86450000Y-57675000D01*
X86030000Y-58605000D01*
X85470000Y-60775000D01*
X85300000Y-63075000D01*
X85420000Y-64865000D01*
X85970000Y-67055000D01*
X86830000Y-68995000D01*
X87530000Y-69995000D01*
X88040000Y-70755000D01*
X88770000Y-71505000D01*
X89550000Y-72295000D01*
X91350000Y-73605000D01*
X93360000Y-74555000D01*
X95650000Y-75185000D01*
X96060000Y-75255000D01*
X96590000Y-75375000D01*
X96690000Y-75415000D01*
X96730000Y-75425000D01*
X96420000Y-75455000D01*
X95700000Y-75505000D01*
X95060000Y-75555000D01*
X94650000Y-75585000D01*
X92910000Y-75485000D01*
X91090000Y-75115000D01*
X89310000Y-74545000D01*
X87730000Y-73775000D01*
X86250000Y-72815000D01*
X85180000Y-71765000D01*
X84640000Y-71015000D01*
X83670000Y-69205000D01*
X83070000Y-67255000D01*
X82830000Y-65255000D01*
X82950000Y-63205000D01*
X83450000Y-61165000D01*
X84280000Y-59245000D01*
X85460000Y-57445000D01*
X87010000Y-55795000D01*
X88300000Y-54740000D01*
X88180000Y-54950000D01*
%TA.AperFunction,EtchedComponent*%
G36*
X88180000Y-54950000D02*
G01*
X87620000Y-55655000D01*
X86930000Y-56635000D01*
X86450000Y-57675000D01*
X86030000Y-58605000D01*
X85470000Y-60775000D01*
X85300000Y-63075000D01*
X85420000Y-64865000D01*
X85970000Y-67055000D01*
X86830000Y-68995000D01*
X87530000Y-69995000D01*
X88040000Y-70755000D01*
X88770000Y-71505000D01*
X89550000Y-72295000D01*
X91350000Y-73605000D01*
X93360000Y-74555000D01*
X95650000Y-75185000D01*
X96060000Y-75255000D01*
X96590000Y-75375000D01*
X96690000Y-75415000D01*
X96730000Y-75425000D01*
X96420000Y-75455000D01*
X95700000Y-75505000D01*
X95060000Y-75555000D01*
X94650000Y-75585000D01*
X92910000Y-75485000D01*
X91090000Y-75115000D01*
X89310000Y-74545000D01*
X87730000Y-73775000D01*
X86250000Y-72815000D01*
X85180000Y-71765000D01*
X84640000Y-71015000D01*
X83670000Y-69205000D01*
X83070000Y-67255000D01*
X82830000Y-65255000D01*
X82950000Y-63205000D01*
X83450000Y-61165000D01*
X84280000Y-59245000D01*
X85460000Y-57445000D01*
X87010000Y-55795000D01*
X88300000Y-54740000D01*
X88180000Y-54950000D01*
G37*
%TD.AperFunction*%
X109560000Y-30085000D02*
X109700000Y-30355000D01*
X109960000Y-31765000D01*
X110070000Y-33245000D01*
X110160000Y-35685000D01*
X110230000Y-38205000D01*
X110290000Y-40415000D01*
X110320000Y-41465000D01*
X110340000Y-43245000D01*
X110380000Y-45555000D01*
X109580000Y-45605000D01*
X108060000Y-45685000D01*
X105500000Y-45845000D01*
X102150000Y-46205000D01*
X100100000Y-46495000D01*
X99010000Y-46675000D01*
X96930000Y-47055000D01*
X96350000Y-47165000D01*
X94120000Y-47655000D01*
X93570000Y-47775000D01*
X91210000Y-48445000D01*
X89280000Y-49115000D01*
X87870000Y-49735000D01*
X87350000Y-49985000D01*
X86660000Y-50325000D01*
X86380000Y-50425000D01*
X86200000Y-50385000D01*
X86120000Y-50185000D01*
X85820000Y-48705000D01*
X85650000Y-47675000D01*
X85340000Y-45435000D01*
X85190000Y-43655000D01*
X85210000Y-43365000D01*
X85230000Y-43085000D01*
X85420000Y-42455000D01*
X85830000Y-42005000D01*
X86510000Y-41555000D01*
X87490000Y-41035000D01*
X88060000Y-40725000D01*
X88760000Y-40325000D01*
X89290000Y-39875000D01*
X89850000Y-39275000D01*
X90700000Y-38185000D01*
X91480000Y-37165000D01*
X92180000Y-36415000D01*
X92800000Y-35855000D01*
X93610000Y-35305000D01*
X94640000Y-34705000D01*
X95950000Y-34005000D01*
X97460000Y-33245000D01*
X98420000Y-32855000D01*
X101320000Y-31915000D01*
X104120000Y-31175000D01*
X105950000Y-30685000D01*
X108410000Y-30105000D01*
X109280000Y-29995000D01*
X109560000Y-30085000D01*
%TA.AperFunction,EtchedComponent*%
G36*
X109560000Y-30085000D02*
G01*
X109700000Y-30355000D01*
X109960000Y-31765000D01*
X110070000Y-33245000D01*
X110160000Y-35685000D01*
X110230000Y-38205000D01*
X110290000Y-40415000D01*
X110320000Y-41465000D01*
X110340000Y-43245000D01*
X110380000Y-45555000D01*
X109580000Y-45605000D01*
X108060000Y-45685000D01*
X105500000Y-45845000D01*
X102150000Y-46205000D01*
X100100000Y-46495000D01*
X99010000Y-46675000D01*
X96930000Y-47055000D01*
X96350000Y-47165000D01*
X94120000Y-47655000D01*
X93570000Y-47775000D01*
X91210000Y-48445000D01*
X89280000Y-49115000D01*
X87870000Y-49735000D01*
X87350000Y-49985000D01*
X86660000Y-50325000D01*
X86380000Y-50425000D01*
X86200000Y-50385000D01*
X86120000Y-50185000D01*
X85820000Y-48705000D01*
X85650000Y-47675000D01*
X85340000Y-45435000D01*
X85190000Y-43655000D01*
X85210000Y-43365000D01*
X85230000Y-43085000D01*
X85420000Y-42455000D01*
X85830000Y-42005000D01*
X86510000Y-41555000D01*
X87490000Y-41035000D01*
X88060000Y-40725000D01*
X88760000Y-40325000D01*
X89290000Y-39875000D01*
X89850000Y-39275000D01*
X90700000Y-38185000D01*
X91480000Y-37165000D01*
X92180000Y-36415000D01*
X92800000Y-35855000D01*
X93610000Y-35305000D01*
X94640000Y-34705000D01*
X95950000Y-34005000D01*
X97460000Y-33245000D01*
X98420000Y-32855000D01*
X101320000Y-31915000D01*
X104120000Y-31175000D01*
X105950000Y-30685000D01*
X108410000Y-30105000D01*
X109280000Y-29995000D01*
X109560000Y-30085000D01*
G37*
%TD.AperFunction*%
X113920000Y-47185000D02*
X117100000Y-47185000D01*
X120510000Y-47275000D01*
X122370000Y-47345000D01*
X125660000Y-47635000D01*
X128960000Y-48075000D01*
X131830000Y-48655000D01*
X134330000Y-49365000D01*
X136550000Y-50235000D01*
X138510000Y-51295000D01*
X140160000Y-52485000D01*
X141630000Y-53895000D01*
X142640000Y-55185000D01*
X142880000Y-55485000D01*
X144350000Y-57955000D01*
X145370000Y-60345000D01*
X143070000Y-60905000D01*
X142850000Y-59975000D01*
X142460000Y-59015000D01*
X142010000Y-57905000D01*
X141760000Y-57425000D01*
X141270000Y-56645000D01*
X140630000Y-55595000D01*
X139510000Y-54315000D01*
X138960000Y-53725000D01*
X137100000Y-52185000D01*
X134910000Y-50885000D01*
X132440000Y-49865000D01*
X129900000Y-49245000D01*
X128320000Y-49045000D01*
X126080000Y-49055000D01*
X123730000Y-49465000D01*
X121760000Y-50155000D01*
X119860000Y-51205000D01*
X118350000Y-52405000D01*
X117020000Y-53905000D01*
X115850000Y-55720000D01*
X115115000Y-57527500D01*
X114690000Y-59505000D01*
X114585000Y-61787500D01*
X115035000Y-64442500D01*
X110210000Y-64825000D01*
X110150000Y-64515000D01*
X110370000Y-62235000D01*
X110240000Y-60515000D01*
X109710000Y-58415000D01*
X108840000Y-56465000D01*
X107610000Y-54715000D01*
X106030000Y-53165000D01*
X104100000Y-51835000D01*
X101930000Y-50875000D01*
X100535000Y-50530000D01*
X100005000Y-47940000D01*
X101720000Y-47715000D01*
X104180000Y-47320000D01*
X108940000Y-47110000D01*
X113920000Y-47185000D01*
%TA.AperFunction,EtchedComponent*%
G36*
X113920000Y-47185000D02*
G01*
X117100000Y-47185000D01*
X120510000Y-47275000D01*
X122370000Y-47345000D01*
X125660000Y-47635000D01*
X128960000Y-48075000D01*
X131830000Y-48655000D01*
X134330000Y-49365000D01*
X136550000Y-50235000D01*
X138510000Y-51295000D01*
X140160000Y-52485000D01*
X141630000Y-53895000D01*
X142640000Y-55185000D01*
X142880000Y-55485000D01*
X144350000Y-57955000D01*
X145370000Y-60345000D01*
X143070000Y-60905000D01*
X142850000Y-59975000D01*
X142460000Y-59015000D01*
X142010000Y-57905000D01*
X141760000Y-57425000D01*
X141270000Y-56645000D01*
X140630000Y-55595000D01*
X139510000Y-54315000D01*
X138960000Y-53725000D01*
X137100000Y-52185000D01*
X134910000Y-50885000D01*
X132440000Y-49865000D01*
X129900000Y-49245000D01*
X128320000Y-49045000D01*
X126080000Y-49055000D01*
X123730000Y-49465000D01*
X121760000Y-50155000D01*
X119860000Y-51205000D01*
X118350000Y-52405000D01*
X117020000Y-53905000D01*
X115850000Y-55720000D01*
X115115000Y-57527500D01*
X114690000Y-59505000D01*
X114585000Y-61787500D01*
X115035000Y-64442500D01*
X110210000Y-64825000D01*
X110150000Y-64515000D01*
X110370000Y-62235000D01*
X110240000Y-60515000D01*
X109710000Y-58415000D01*
X108840000Y-56465000D01*
X107610000Y-54715000D01*
X106030000Y-53165000D01*
X104100000Y-51835000D01*
X101930000Y-50875000D01*
X100535000Y-50530000D01*
X100005000Y-47940000D01*
X101720000Y-47715000D01*
X104180000Y-47320000D01*
X108940000Y-47110000D01*
X113920000Y-47185000D01*
G37*
%TD.AperFunction*%
X145420000Y-60435000D02*
X145570000Y-61015000D01*
X145860000Y-62065000D01*
X146090000Y-62955000D01*
X146280000Y-64625000D01*
X146360000Y-65345000D01*
X146260000Y-67625000D01*
X146100000Y-68675000D01*
X145450000Y-71165000D01*
X144450000Y-73435000D01*
X143160000Y-75375000D01*
X142120000Y-76465000D01*
X141460000Y-77105000D01*
X139540000Y-78465000D01*
X137860000Y-79285000D01*
X137270000Y-79585000D01*
X136360000Y-79905000D01*
X135750000Y-80045000D01*
X135080000Y-80115000D01*
X134240000Y-80145000D01*
X133450000Y-80145000D01*
X131320000Y-80115000D01*
X129460000Y-79955000D01*
X127810000Y-79595000D01*
X126560000Y-79085000D01*
X125330000Y-78375000D01*
X124150000Y-77395000D01*
X122590000Y-75805000D01*
X121450000Y-74695000D01*
X120580000Y-73965000D01*
X119980000Y-73555000D01*
X119510000Y-73275000D01*
X119050000Y-72875000D01*
X118700000Y-71885000D01*
X118270000Y-71265000D01*
X118120000Y-71035000D01*
X118520000Y-70725000D01*
X118590000Y-70715000D01*
X118830000Y-70945000D01*
X119240000Y-71375000D01*
X119820000Y-71965000D01*
X120580000Y-72535000D01*
X121660000Y-73365000D01*
X123630000Y-74465000D01*
X125710000Y-75145000D01*
X127680000Y-75615000D01*
X128350000Y-75645000D01*
X129500000Y-75645000D01*
X130840000Y-75605000D01*
X131780000Y-75565000D01*
X132940000Y-75465000D01*
X133990000Y-75305000D01*
X134950000Y-75045000D01*
X136490000Y-74475000D01*
X138580000Y-73315000D01*
X140190000Y-71995000D01*
X141530000Y-70355000D01*
X142520000Y-68425000D01*
X143180000Y-66305000D01*
X143420000Y-64125000D01*
X143320000Y-62045000D01*
X143050000Y-60965000D01*
X143090000Y-60955000D01*
X144130000Y-60635000D01*
X145320000Y-60355000D01*
X145420000Y-60435000D01*
%TA.AperFunction,EtchedComponent*%
G36*
X145420000Y-60435000D02*
G01*
X145570000Y-61015000D01*
X145860000Y-62065000D01*
X146090000Y-62955000D01*
X146280000Y-64625000D01*
X146360000Y-65345000D01*
X146260000Y-67625000D01*
X146100000Y-68675000D01*
X145450000Y-71165000D01*
X144450000Y-73435000D01*
X143160000Y-75375000D01*
X142120000Y-76465000D01*
X141460000Y-77105000D01*
X139540000Y-78465000D01*
X137860000Y-79285000D01*
X137270000Y-79585000D01*
X136360000Y-79905000D01*
X135750000Y-80045000D01*
X135080000Y-80115000D01*
X134240000Y-80145000D01*
X133450000Y-80145000D01*
X131320000Y-80115000D01*
X129460000Y-79955000D01*
X127810000Y-79595000D01*
X126560000Y-79085000D01*
X125330000Y-78375000D01*
X124150000Y-77395000D01*
X122590000Y-75805000D01*
X121450000Y-74695000D01*
X120580000Y-73965000D01*
X119980000Y-73555000D01*
X119510000Y-73275000D01*
X119050000Y-72875000D01*
X118700000Y-71885000D01*
X118270000Y-71265000D01*
X118120000Y-71035000D01*
X118520000Y-70725000D01*
X118590000Y-70715000D01*
X118830000Y-70945000D01*
X119240000Y-71375000D01*
X119820000Y-71965000D01*
X120580000Y-72535000D01*
X121660000Y-73365000D01*
X123630000Y-74465000D01*
X125710000Y-75145000D01*
X127680000Y-75615000D01*
X128350000Y-75645000D01*
X129500000Y-75645000D01*
X130840000Y-75605000D01*
X131780000Y-75565000D01*
X132940000Y-75465000D01*
X133990000Y-75305000D01*
X134950000Y-75045000D01*
X136490000Y-74475000D01*
X138580000Y-73315000D01*
X140190000Y-71995000D01*
X141530000Y-70355000D01*
X142520000Y-68425000D01*
X143180000Y-66305000D01*
X143420000Y-64125000D01*
X143320000Y-62045000D01*
X143050000Y-60965000D01*
X143090000Y-60955000D01*
X144130000Y-60635000D01*
X145320000Y-60355000D01*
X145420000Y-60435000D01*
G37*
%TD.AperFunction*%
X141360000Y-42195000D02*
X142060000Y-42665000D01*
X142720000Y-43115000D01*
X143640000Y-43805000D01*
X144000000Y-44075000D01*
X144810000Y-44875000D01*
X145410000Y-45745000D01*
X145790000Y-46615000D01*
X145920000Y-46975000D01*
X146190000Y-47745000D01*
X145460000Y-47875000D01*
X144640000Y-48025000D01*
X143570000Y-48225000D01*
X142810000Y-48365000D01*
X141550000Y-48645000D01*
X140720000Y-48925000D01*
X140210000Y-49175000D01*
X140040000Y-49465000D01*
X140200000Y-49845000D01*
X140740000Y-50395000D01*
X141080000Y-50655000D01*
X141870000Y-51295000D01*
X142570000Y-51885000D01*
X144100000Y-53445000D01*
X144420000Y-53785000D01*
X144890000Y-54455000D01*
X145890000Y-55865000D01*
X146000000Y-56015000D01*
X146570000Y-57195000D01*
X147230000Y-58565000D01*
X147610000Y-59595000D01*
X147970000Y-60795000D01*
X148290000Y-62065000D01*
X148460000Y-62755000D01*
X148530000Y-63165000D01*
X148640000Y-63815000D01*
X148740000Y-64565000D01*
X148750000Y-65125000D01*
X148640000Y-65315000D01*
X148540000Y-65325000D01*
X148170000Y-65425000D01*
X148060000Y-65455000D01*
X147900000Y-65345000D01*
X147790000Y-64935000D01*
X147620000Y-63785000D01*
X147380000Y-62285000D01*
X147240000Y-61795000D01*
X146820000Y-60355000D01*
X146620000Y-59615000D01*
X145510000Y-57065000D01*
X144590000Y-55595000D01*
X144000000Y-54635000D01*
X143160000Y-53625000D01*
X142380000Y-52695000D01*
X140520000Y-51015000D01*
X139370000Y-50145000D01*
X138620000Y-49615000D01*
X138300000Y-49365000D01*
X138295000Y-49165000D01*
X138465000Y-48425000D01*
X139110000Y-46635000D01*
X139430000Y-45775000D01*
X139680000Y-45135000D01*
X139940000Y-44455000D01*
X140220000Y-43745000D01*
X140330000Y-43465000D01*
X140550000Y-42925000D01*
X140760000Y-42425000D01*
X141010000Y-41965000D01*
X141360000Y-42195000D01*
%TA.AperFunction,EtchedComponent*%
G36*
X141360000Y-42195000D02*
G01*
X142060000Y-42665000D01*
X142720000Y-43115000D01*
X143640000Y-43805000D01*
X144000000Y-44075000D01*
X144810000Y-44875000D01*
X145410000Y-45745000D01*
X145790000Y-46615000D01*
X145920000Y-46975000D01*
X146190000Y-47745000D01*
X145460000Y-47875000D01*
X144640000Y-48025000D01*
X143570000Y-48225000D01*
X142810000Y-48365000D01*
X141550000Y-48645000D01*
X140720000Y-48925000D01*
X140210000Y-49175000D01*
X140040000Y-49465000D01*
X140200000Y-49845000D01*
X140740000Y-50395000D01*
X141080000Y-50655000D01*
X141870000Y-51295000D01*
X142570000Y-51885000D01*
X144100000Y-53445000D01*
X144420000Y-53785000D01*
X144890000Y-54455000D01*
X145890000Y-55865000D01*
X146000000Y-56015000D01*
X146570000Y-57195000D01*
X147230000Y-58565000D01*
X147610000Y-59595000D01*
X147970000Y-60795000D01*
X148290000Y-62065000D01*
X148460000Y-62755000D01*
X148530000Y-63165000D01*
X148640000Y-63815000D01*
X148740000Y-64565000D01*
X148750000Y-65125000D01*
X148640000Y-65315000D01*
X148540000Y-65325000D01*
X148170000Y-65425000D01*
X148060000Y-65455000D01*
X147900000Y-65345000D01*
X147790000Y-64935000D01*
X147620000Y-63785000D01*
X147380000Y-62285000D01*
X147240000Y-61795000D01*
X146820000Y-60355000D01*
X146620000Y-59615000D01*
X145510000Y-57065000D01*
X144590000Y-55595000D01*
X144000000Y-54635000D01*
X143160000Y-53625000D01*
X142380000Y-52695000D01*
X140520000Y-51015000D01*
X139370000Y-50145000D01*
X138620000Y-49615000D01*
X138300000Y-49365000D01*
X138295000Y-49165000D01*
X138465000Y-48425000D01*
X139110000Y-46635000D01*
X139430000Y-45775000D01*
X139680000Y-45135000D01*
X139940000Y-44455000D01*
X140220000Y-43745000D01*
X140330000Y-43465000D01*
X140550000Y-42925000D01*
X140760000Y-42425000D01*
X141010000Y-41965000D01*
X141360000Y-42195000D01*
G37*
%TD.AperFunction*%
X83867500Y-44695000D02*
X84170000Y-46935000D01*
X84450000Y-48705000D01*
X84700000Y-50025000D01*
X85010000Y-51315000D01*
X84360000Y-51775000D01*
X83700000Y-52315000D01*
X83020000Y-52975000D01*
X82810000Y-53175000D01*
X82450000Y-53575000D01*
X82040000Y-54015000D01*
X81310000Y-54875000D01*
X80920000Y-55345000D01*
X80390000Y-56035000D01*
X79670000Y-57085000D01*
X78910000Y-58655000D01*
X78480000Y-59855000D01*
X78220000Y-60505000D01*
X77770000Y-62295000D01*
X77660000Y-62765000D01*
X77620000Y-63115000D01*
X77410000Y-64455000D01*
X77330000Y-65035000D01*
X77200000Y-66445000D01*
X77190000Y-66595000D01*
X77130000Y-67215000D01*
X76950000Y-67285000D01*
X76650000Y-67235000D01*
X76420000Y-67075000D01*
X76400000Y-67015000D01*
X76390000Y-66545000D01*
X76440000Y-65705000D01*
X76520000Y-64885000D01*
X76620000Y-64065000D01*
X76660000Y-63785000D01*
X76780000Y-62975000D01*
X76940000Y-62135000D01*
X77090000Y-61565000D01*
X77510000Y-60325000D01*
X77970000Y-59025000D01*
X78190000Y-58605000D01*
X78450000Y-58125000D01*
X78920000Y-57235000D01*
X79220000Y-56665000D01*
X79950000Y-55685000D01*
X80790000Y-54555000D01*
X81950000Y-53405000D01*
X82690000Y-52675000D01*
X83270000Y-52155000D01*
X83890000Y-51475000D01*
X84050000Y-51155000D01*
X84040000Y-51095000D01*
X83760000Y-50755000D01*
X83060000Y-50415000D01*
X82010000Y-50105000D01*
X80380000Y-49755000D01*
X79810000Y-49645000D01*
X79280000Y-49475000D01*
X79110000Y-49375000D01*
X79140000Y-49185000D01*
X79320000Y-48685000D01*
X79660000Y-47915000D01*
X80380000Y-46565000D01*
X80680000Y-46135000D01*
X80830000Y-45965000D01*
X81290000Y-45595000D01*
X81980000Y-45085000D01*
X82670000Y-44605000D01*
X83430000Y-44135000D01*
X83715000Y-44005000D01*
X83867500Y-44695000D01*
%TA.AperFunction,EtchedComponent*%
G36*
X83867500Y-44695000D02*
G01*
X84170000Y-46935000D01*
X84450000Y-48705000D01*
X84700000Y-50025000D01*
X85010000Y-51315000D01*
X84360000Y-51775000D01*
X83700000Y-52315000D01*
X83020000Y-52975000D01*
X82810000Y-53175000D01*
X82450000Y-53575000D01*
X82040000Y-54015000D01*
X81310000Y-54875000D01*
X80920000Y-55345000D01*
X80390000Y-56035000D01*
X79670000Y-57085000D01*
X78910000Y-58655000D01*
X78480000Y-59855000D01*
X78220000Y-60505000D01*
X77770000Y-62295000D01*
X77660000Y-62765000D01*
X77620000Y-63115000D01*
X77410000Y-64455000D01*
X77330000Y-65035000D01*
X77200000Y-66445000D01*
X77190000Y-66595000D01*
X77130000Y-67215000D01*
X76950000Y-67285000D01*
X76650000Y-67235000D01*
X76420000Y-67075000D01*
X76400000Y-67015000D01*
X76390000Y-66545000D01*
X76440000Y-65705000D01*
X76520000Y-64885000D01*
X76620000Y-64065000D01*
X76660000Y-63785000D01*
X76780000Y-62975000D01*
X76940000Y-62135000D01*
X77090000Y-61565000D01*
X77510000Y-60325000D01*
X77970000Y-59025000D01*
X78190000Y-58605000D01*
X78450000Y-58125000D01*
X78920000Y-57235000D01*
X79220000Y-56665000D01*
X79950000Y-55685000D01*
X80790000Y-54555000D01*
X81950000Y-53405000D01*
X82690000Y-52675000D01*
X83270000Y-52155000D01*
X83890000Y-51475000D01*
X84050000Y-51155000D01*
X84040000Y-51095000D01*
X83760000Y-50755000D01*
X83060000Y-50415000D01*
X82010000Y-50105000D01*
X80380000Y-49755000D01*
X79810000Y-49645000D01*
X79280000Y-49475000D01*
X79110000Y-49375000D01*
X79140000Y-49185000D01*
X79320000Y-48685000D01*
X79660000Y-47915000D01*
X80380000Y-46565000D01*
X80680000Y-46135000D01*
X80830000Y-45965000D01*
X81290000Y-45595000D01*
X81980000Y-45085000D01*
X82670000Y-44605000D01*
X83430000Y-44135000D01*
X83715000Y-44005000D01*
X83867500Y-44695000D01*
G37*
%TD.AperFunction*%
X151530000Y-71495000D02*
X151510000Y-72795000D01*
X151420000Y-75145000D01*
X151330000Y-76935000D01*
X152150000Y-77985000D01*
X152650000Y-78705000D01*
X152870000Y-79245000D01*
X153030000Y-79955000D01*
X153190000Y-82135000D01*
X153100000Y-84165000D01*
X152710000Y-86115000D01*
X152070000Y-88045000D01*
X151000000Y-90325000D01*
X150530000Y-91425000D01*
X150200000Y-92515000D01*
X150170000Y-93495000D01*
X150480000Y-94405000D01*
X151160000Y-95245000D01*
X152180000Y-96065000D01*
X152630000Y-96335000D01*
X153880000Y-97135000D01*
X154490000Y-97565000D01*
X155120000Y-97985000D01*
X156030000Y-98635000D01*
X157560000Y-99785000D01*
X158540000Y-100395000D01*
X159080000Y-100605000D01*
X159350000Y-100625000D01*
X160310000Y-100485000D01*
X161260000Y-99895000D01*
X161750000Y-99365000D01*
X162190000Y-98865000D01*
X162450000Y-98505000D01*
X163030000Y-97725000D01*
X163600000Y-96995000D01*
X164070000Y-96405000D01*
X164500000Y-95885000D01*
X164710000Y-95625000D01*
X165010000Y-95295000D01*
X165090000Y-95215000D01*
X165350000Y-95005000D01*
X165480000Y-95085000D01*
X165680000Y-95425000D01*
X165890000Y-95905000D01*
X166010000Y-96365000D01*
X165990000Y-96585000D01*
X165580000Y-96895000D01*
X165200000Y-97195000D01*
X164740000Y-97545000D01*
X163700000Y-98895000D01*
X163530000Y-99245000D01*
X163140000Y-100065000D01*
X162900000Y-100635000D01*
X162830000Y-100805000D01*
X162360000Y-101735000D01*
X161790000Y-102445000D01*
X161180000Y-102885000D01*
X160620000Y-103035000D01*
X160040000Y-102865000D01*
X159910000Y-102795000D01*
X159430000Y-102655000D01*
X158250000Y-102385000D01*
X157420000Y-102225000D01*
X156480000Y-101995000D01*
X155670000Y-101755000D01*
X154770000Y-101415000D01*
X153030000Y-100475000D01*
X151020000Y-99325000D01*
X148100000Y-97545000D01*
X146700000Y-96675000D01*
X145700000Y-95935000D01*
X145280000Y-95425000D01*
X145080000Y-94875000D01*
X145010000Y-94225000D01*
X145100000Y-93355000D01*
X145340000Y-92175000D01*
X145730000Y-90505000D01*
X145890000Y-89815000D01*
X146130000Y-88595000D01*
X146230000Y-88075000D01*
X146390000Y-86645000D01*
X146340000Y-85385000D01*
X146120000Y-84225000D01*
X145640000Y-82945000D01*
X145310000Y-82105000D01*
X145150000Y-81715000D01*
X144810000Y-80515000D01*
X144620000Y-79205000D01*
X144570000Y-77665000D01*
X144600000Y-76455000D01*
X144690000Y-75985000D01*
X144710000Y-75925000D01*
X144970000Y-75375000D01*
X145550000Y-74435000D01*
X146060000Y-73505000D01*
X146250000Y-73065000D01*
X146630000Y-72325000D01*
X146910000Y-72055000D01*
X148130000Y-71895000D01*
X149880000Y-71415000D01*
X150620000Y-71075000D01*
X151220000Y-70795000D01*
X151520000Y-70685000D01*
X151530000Y-71495000D01*
%TA.AperFunction,EtchedComponent*%
G36*
X151530000Y-71495000D02*
G01*
X151510000Y-72795000D01*
X151420000Y-75145000D01*
X151330000Y-76935000D01*
X152150000Y-77985000D01*
X152650000Y-78705000D01*
X152870000Y-79245000D01*
X153030000Y-79955000D01*
X153190000Y-82135000D01*
X153100000Y-84165000D01*
X152710000Y-86115000D01*
X152070000Y-88045000D01*
X151000000Y-90325000D01*
X150530000Y-91425000D01*
X150200000Y-92515000D01*
X150170000Y-93495000D01*
X150480000Y-94405000D01*
X151160000Y-95245000D01*
X152180000Y-96065000D01*
X152630000Y-96335000D01*
X153880000Y-97135000D01*
X154490000Y-97565000D01*
X155120000Y-97985000D01*
X156030000Y-98635000D01*
X157560000Y-99785000D01*
X158540000Y-100395000D01*
X159080000Y-100605000D01*
X159350000Y-100625000D01*
X160310000Y-100485000D01*
X161260000Y-99895000D01*
X161750000Y-99365000D01*
X162190000Y-98865000D01*
X162450000Y-98505000D01*
X163030000Y-97725000D01*
X163600000Y-96995000D01*
X164070000Y-96405000D01*
X164500000Y-95885000D01*
X164710000Y-95625000D01*
X165010000Y-95295000D01*
X165090000Y-95215000D01*
X165350000Y-95005000D01*
X165480000Y-95085000D01*
X165680000Y-95425000D01*
X165890000Y-95905000D01*
X166010000Y-96365000D01*
X165990000Y-96585000D01*
X165580000Y-96895000D01*
X165200000Y-97195000D01*
X164740000Y-97545000D01*
X163700000Y-98895000D01*
X163530000Y-99245000D01*
X163140000Y-100065000D01*
X162900000Y-100635000D01*
X162830000Y-100805000D01*
X162360000Y-101735000D01*
X161790000Y-102445000D01*
X161180000Y-102885000D01*
X160620000Y-103035000D01*
X160040000Y-102865000D01*
X159910000Y-102795000D01*
X159430000Y-102655000D01*
X158250000Y-102385000D01*
X157420000Y-102225000D01*
X156480000Y-101995000D01*
X155670000Y-101755000D01*
X154770000Y-101415000D01*
X153030000Y-100475000D01*
X151020000Y-99325000D01*
X148100000Y-97545000D01*
X146700000Y-96675000D01*
X145700000Y-95935000D01*
X145280000Y-95425000D01*
X145080000Y-94875000D01*
X145010000Y-94225000D01*
X145100000Y-93355000D01*
X145340000Y-92175000D01*
X145730000Y-90505000D01*
X145890000Y-89815000D01*
X146130000Y-88595000D01*
X146230000Y-88075000D01*
X146390000Y-86645000D01*
X146340000Y-85385000D01*
X146120000Y-84225000D01*
X145640000Y-82945000D01*
X145310000Y-82105000D01*
X145150000Y-81715000D01*
X144810000Y-80515000D01*
X144620000Y-79205000D01*
X144570000Y-77665000D01*
X144600000Y-76455000D01*
X144690000Y-75985000D01*
X144710000Y-75925000D01*
X144970000Y-75375000D01*
X145550000Y-74435000D01*
X146060000Y-73505000D01*
X146250000Y-73065000D01*
X146630000Y-72325000D01*
X146910000Y-72055000D01*
X148130000Y-71895000D01*
X149880000Y-71415000D01*
X150620000Y-71075000D01*
X151220000Y-70795000D01*
X151520000Y-70685000D01*
X151530000Y-71495000D01*
G37*
%TD.AperFunction*%
X100550000Y-50535000D02*
X100310000Y-50465000D01*
X98700000Y-50315000D01*
X97040000Y-50285000D01*
X95350000Y-50405000D01*
X93830000Y-50675000D01*
X91630000Y-51335000D01*
X90050000Y-52075000D01*
X89260000Y-52435000D01*
X87750000Y-53415000D01*
X87150000Y-53815000D01*
X85800000Y-55055000D01*
X85280000Y-55515000D01*
X84490000Y-56545000D01*
X83780000Y-57445000D01*
X82670000Y-59475000D01*
X82120000Y-61025000D01*
X81810000Y-61955000D01*
X81490000Y-63735000D01*
X81460000Y-65965000D01*
X81840000Y-68115000D01*
X82540000Y-70045000D01*
X83610000Y-71845000D01*
X84360000Y-72755000D01*
X85010000Y-73465000D01*
X86650000Y-74785000D01*
X88590000Y-75815000D01*
X90740000Y-76465000D01*
X91210000Y-76555000D01*
X92630000Y-76705000D01*
X94120000Y-76785000D01*
X95800000Y-76775000D01*
X97280000Y-76675000D01*
X98640000Y-76495000D01*
X100070000Y-76085000D01*
X102210000Y-75135000D01*
X104020000Y-73975000D01*
X105300000Y-72885000D01*
X105840000Y-72405000D01*
X107300000Y-70695000D01*
X108210000Y-69335000D01*
X108600000Y-68705000D01*
X109520000Y-66655000D01*
X110100000Y-64585000D01*
X115000000Y-64455000D01*
X115620000Y-66235000D01*
X116760000Y-68375000D01*
X117400000Y-69225000D01*
X118190000Y-70285000D01*
X118540000Y-70655000D01*
X118090000Y-71015000D01*
X117290000Y-70265000D01*
X116290000Y-69675000D01*
X115420000Y-69325000D01*
X114790000Y-69205000D01*
X113950000Y-69155000D01*
X112530000Y-69125000D01*
X111390000Y-69175000D01*
X110810000Y-69215000D01*
X110070000Y-69395000D01*
X109410000Y-69675000D01*
X109040000Y-69865000D01*
X108230000Y-70415000D01*
X107610000Y-71005000D01*
X107040000Y-71805000D01*
X106810000Y-72445000D01*
X106740000Y-72875000D01*
X106460000Y-73255000D01*
X105710000Y-73815000D01*
X104710000Y-74705000D01*
X103650000Y-75715000D01*
X102040000Y-77355000D01*
X101625000Y-77780000D01*
X100695000Y-78670000D01*
X100055000Y-79250000D01*
X98985000Y-79960000D01*
X97770000Y-80475000D01*
X96760000Y-80845000D01*
X95820000Y-81025000D01*
X94870000Y-81155000D01*
X93470000Y-81235000D01*
X92050000Y-81295000D01*
X90350000Y-81245000D01*
X89580000Y-81175000D01*
X88810000Y-81035000D01*
X87250000Y-80435000D01*
X85265000Y-79325000D01*
X83375000Y-77845000D01*
X81920000Y-76255000D01*
X80870000Y-74835000D01*
X80580000Y-74415000D01*
X79870000Y-73065000D01*
X79570000Y-72485000D01*
X78900000Y-70365000D01*
X78760000Y-69495000D01*
X78695000Y-66830000D01*
X78845000Y-64020000D01*
X79190000Y-61915000D01*
X79770000Y-60125000D01*
X80750000Y-58135000D01*
X81970000Y-56155000D01*
X83310000Y-54565000D01*
X84250000Y-53685000D01*
X84720000Y-53245000D01*
X85980000Y-52385000D01*
X87790000Y-51395000D01*
X88100000Y-51215000D01*
X90500000Y-50235000D01*
X93220000Y-49355000D01*
X96210000Y-48635000D01*
X99940000Y-47925000D01*
X100550000Y-50535000D01*
%TA.AperFunction,EtchedComponent*%
G36*
X100550000Y-50535000D02*
G01*
X100310000Y-50465000D01*
X98700000Y-50315000D01*
X97040000Y-50285000D01*
X95350000Y-50405000D01*
X93830000Y-50675000D01*
X91630000Y-51335000D01*
X90050000Y-52075000D01*
X89260000Y-52435000D01*
X87750000Y-53415000D01*
X87150000Y-53815000D01*
X85800000Y-55055000D01*
X85280000Y-55515000D01*
X84490000Y-56545000D01*
X83780000Y-57445000D01*
X82670000Y-59475000D01*
X82120000Y-61025000D01*
X81810000Y-61955000D01*
X81490000Y-63735000D01*
X81460000Y-65965000D01*
X81840000Y-68115000D01*
X82540000Y-70045000D01*
X83610000Y-71845000D01*
X84360000Y-72755000D01*
X85010000Y-73465000D01*
X86650000Y-74785000D01*
X88590000Y-75815000D01*
X90740000Y-76465000D01*
X91210000Y-76555000D01*
X92630000Y-76705000D01*
X94120000Y-76785000D01*
X95800000Y-76775000D01*
X97280000Y-76675000D01*
X98640000Y-76495000D01*
X100070000Y-76085000D01*
X102210000Y-75135000D01*
X104020000Y-73975000D01*
X105300000Y-72885000D01*
X105840000Y-72405000D01*
X107300000Y-70695000D01*
X108210000Y-69335000D01*
X108600000Y-68705000D01*
X109520000Y-66655000D01*
X110100000Y-64585000D01*
X115000000Y-64455000D01*
X115620000Y-66235000D01*
X116760000Y-68375000D01*
X117400000Y-69225000D01*
X118190000Y-70285000D01*
X118540000Y-70655000D01*
X118090000Y-71015000D01*
X117290000Y-70265000D01*
X116290000Y-69675000D01*
X115420000Y-69325000D01*
X114790000Y-69205000D01*
X113950000Y-69155000D01*
X112530000Y-69125000D01*
X111390000Y-69175000D01*
X110810000Y-69215000D01*
X110070000Y-69395000D01*
X109410000Y-69675000D01*
X109040000Y-69865000D01*
X108230000Y-70415000D01*
X107610000Y-71005000D01*
X107040000Y-71805000D01*
X106810000Y-72445000D01*
X106740000Y-72875000D01*
X106460000Y-73255000D01*
X105710000Y-73815000D01*
X104710000Y-74705000D01*
X103650000Y-75715000D01*
X102040000Y-77355000D01*
X101625000Y-77780000D01*
X100695000Y-78670000D01*
X100055000Y-79250000D01*
X98985000Y-79960000D01*
X97770000Y-80475000D01*
X96760000Y-80845000D01*
X95820000Y-81025000D01*
X94870000Y-81155000D01*
X93470000Y-81235000D01*
X92050000Y-81295000D01*
X90350000Y-81245000D01*
X89580000Y-81175000D01*
X88810000Y-81035000D01*
X87250000Y-80435000D01*
X85265000Y-79325000D01*
X83375000Y-77845000D01*
X81920000Y-76255000D01*
X80870000Y-74835000D01*
X80580000Y-74415000D01*
X79870000Y-73065000D01*
X79570000Y-72485000D01*
X78900000Y-70365000D01*
X78760000Y-69495000D01*
X78695000Y-66830000D01*
X78845000Y-64020000D01*
X79190000Y-61915000D01*
X79770000Y-60125000D01*
X80750000Y-58135000D01*
X81970000Y-56155000D01*
X83310000Y-54565000D01*
X84250000Y-53685000D01*
X84720000Y-53245000D01*
X85980000Y-52385000D01*
X87790000Y-51395000D01*
X88100000Y-51215000D01*
X90500000Y-50235000D01*
X93220000Y-49355000D01*
X96210000Y-48635000D01*
X99940000Y-47925000D01*
X100550000Y-50535000D01*
G37*
%TD.AperFunction*%
X74970000Y-72795000D02*
X75440000Y-72935000D01*
X76290000Y-73145000D01*
X78540000Y-73595000D01*
X78920000Y-74385000D01*
X79440000Y-75325000D01*
X80250000Y-76505000D01*
X81130000Y-77605000D01*
X82100000Y-78695000D01*
X82990000Y-79475000D01*
X83910000Y-80205000D01*
X83670000Y-80965000D01*
X83360000Y-82025000D01*
X83100000Y-83545000D01*
X82960000Y-85225000D01*
X82960000Y-87055000D01*
X83100000Y-88935000D01*
X83160000Y-89235000D01*
X83200000Y-89625000D01*
X83230000Y-90195000D01*
X83190000Y-90675000D01*
X83040000Y-91105000D01*
X82760000Y-91655000D01*
X82470000Y-92115000D01*
X81790000Y-93025000D01*
X80900000Y-94005000D01*
X80350000Y-94585000D01*
X78950000Y-95875000D01*
X78210000Y-96495000D01*
X77390000Y-97065000D01*
X76830000Y-97335000D01*
X76070000Y-97515000D01*
X74630000Y-97765000D01*
X74330000Y-97835000D01*
X73340000Y-98095000D01*
X73020000Y-98185000D01*
X72010000Y-98575000D01*
X71550000Y-98815000D01*
X71120000Y-98975000D01*
X70650000Y-99095000D01*
X70080000Y-99165000D01*
X69260000Y-99205000D01*
X68390000Y-99225000D01*
X67130000Y-99235000D01*
X65620000Y-99255000D01*
X64200000Y-99305000D01*
X63330000Y-99395000D01*
X62790000Y-99505000D01*
X62320000Y-99635000D01*
X61810000Y-99795000D01*
X61120000Y-100035000D01*
X60220000Y-100285000D01*
X59510000Y-100385000D01*
X58850000Y-100325000D01*
X58110000Y-100095000D01*
X57010000Y-99525000D01*
X55930000Y-98605000D01*
X55030000Y-97505000D01*
X54790000Y-97215000D01*
X54200000Y-96315000D01*
X53410000Y-94965000D01*
X52960000Y-94085000D01*
X52830000Y-93715000D01*
X53060000Y-93545000D01*
X53660000Y-93265000D01*
X54210000Y-92865000D01*
X54570000Y-92405000D01*
X54780000Y-92035000D01*
X54940000Y-91875000D01*
X55090000Y-91975000D01*
X55340000Y-92445000D01*
X55620000Y-93215000D01*
X55860000Y-94165000D01*
X56090000Y-95365000D01*
X56380000Y-96795000D01*
X56470000Y-97145000D01*
X56540000Y-97465000D01*
X56690000Y-97915000D01*
X56980000Y-98325000D01*
X57700000Y-98815000D01*
X58680000Y-99115000D01*
X59750000Y-99225000D01*
X60930000Y-99135000D01*
X62020000Y-98825000D01*
X62730000Y-98625000D01*
X63650000Y-98485000D01*
X64910000Y-98355000D01*
X66410000Y-98285000D01*
X67900000Y-98205000D01*
X69250000Y-98105000D01*
X70210000Y-97935000D01*
X70840000Y-97685000D01*
X71350000Y-97305000D01*
X71780000Y-96745000D01*
X72180000Y-96035000D01*
X72490000Y-95395000D01*
X72840000Y-94695000D01*
X73130000Y-94075000D01*
X73580000Y-93105000D01*
X73960000Y-92185000D01*
X74180000Y-91695000D01*
X74400000Y-91035000D01*
X74600000Y-90465000D01*
X74880000Y-89375000D01*
X75060000Y-88215000D01*
X75150000Y-86975000D01*
X75170000Y-85735000D01*
X75160000Y-85235000D01*
X75090000Y-84195000D01*
X74960000Y-83195000D01*
X74710000Y-81695000D01*
X74510000Y-80435000D01*
X74370000Y-79605000D01*
X74180000Y-77345000D01*
X74180000Y-75365000D01*
X74400000Y-73735000D01*
X74600000Y-73025000D01*
X74730000Y-72775000D01*
X74970000Y-72795000D01*
%TA.AperFunction,EtchedComponent*%
G36*
X74970000Y-72795000D02*
G01*
X75440000Y-72935000D01*
X76290000Y-73145000D01*
X78540000Y-73595000D01*
X78920000Y-74385000D01*
X79440000Y-75325000D01*
X80250000Y-76505000D01*
X81130000Y-77605000D01*
X82100000Y-78695000D01*
X82990000Y-79475000D01*
X83910000Y-80205000D01*
X83670000Y-80965000D01*
X83360000Y-82025000D01*
X83100000Y-83545000D01*
X82960000Y-85225000D01*
X82960000Y-87055000D01*
X83100000Y-88935000D01*
X83160000Y-89235000D01*
X83200000Y-89625000D01*
X83230000Y-90195000D01*
X83190000Y-90675000D01*
X83040000Y-91105000D01*
X82760000Y-91655000D01*
X82470000Y-92115000D01*
X81790000Y-93025000D01*
X80900000Y-94005000D01*
X80350000Y-94585000D01*
X78950000Y-95875000D01*
X78210000Y-96495000D01*
X77390000Y-97065000D01*
X76830000Y-97335000D01*
X76070000Y-97515000D01*
X74630000Y-97765000D01*
X74330000Y-97835000D01*
X73340000Y-98095000D01*
X73020000Y-98185000D01*
X72010000Y-98575000D01*
X71550000Y-98815000D01*
X71120000Y-98975000D01*
X70650000Y-99095000D01*
X70080000Y-99165000D01*
X69260000Y-99205000D01*
X68390000Y-99225000D01*
X67130000Y-99235000D01*
X65620000Y-99255000D01*
X64200000Y-99305000D01*
X63330000Y-99395000D01*
X62790000Y-99505000D01*
X62320000Y-99635000D01*
X61810000Y-99795000D01*
X61120000Y-100035000D01*
X60220000Y-100285000D01*
X59510000Y-100385000D01*
X58850000Y-100325000D01*
X58110000Y-100095000D01*
X57010000Y-99525000D01*
X55930000Y-98605000D01*
X55030000Y-97505000D01*
X54790000Y-97215000D01*
X54200000Y-96315000D01*
X53410000Y-94965000D01*
X52960000Y-94085000D01*
X52830000Y-93715000D01*
X53060000Y-93545000D01*
X53660000Y-93265000D01*
X54210000Y-92865000D01*
X54570000Y-92405000D01*
X54780000Y-92035000D01*
X54940000Y-91875000D01*
X55090000Y-91975000D01*
X55340000Y-92445000D01*
X55620000Y-93215000D01*
X55860000Y-94165000D01*
X56090000Y-95365000D01*
X56380000Y-96795000D01*
X56470000Y-97145000D01*
X56540000Y-97465000D01*
X56690000Y-97915000D01*
X56980000Y-98325000D01*
X57700000Y-98815000D01*
X58680000Y-99115000D01*
X59750000Y-99225000D01*
X60930000Y-99135000D01*
X62020000Y-98825000D01*
X62730000Y-98625000D01*
X63650000Y-98485000D01*
X64910000Y-98355000D01*
X66410000Y-98285000D01*
X67900000Y-98205000D01*
X69250000Y-98105000D01*
X70210000Y-97935000D01*
X70840000Y-97685000D01*
X71350000Y-97305000D01*
X71780000Y-96745000D01*
X72180000Y-96035000D01*
X72490000Y-95395000D01*
X72840000Y-94695000D01*
X73130000Y-94075000D01*
X73580000Y-93105000D01*
X73960000Y-92185000D01*
X74180000Y-91695000D01*
X74400000Y-91035000D01*
X74600000Y-90465000D01*
X74880000Y-89375000D01*
X75060000Y-88215000D01*
X75150000Y-86975000D01*
X75170000Y-85735000D01*
X75160000Y-85235000D01*
X75090000Y-84195000D01*
X74960000Y-83195000D01*
X74710000Y-81695000D01*
X74510000Y-80435000D01*
X74370000Y-79605000D01*
X74180000Y-77345000D01*
X74180000Y-75365000D01*
X74400000Y-73735000D01*
X74600000Y-73025000D01*
X74730000Y-72775000D01*
X74970000Y-72795000D01*
G37*
%TD.AperFunction*%
D11*
X98770459Y-50368218D02*
X100361389Y-50536116D01*
X101705206Y-50842043D01*
X101928397Y-50918070D01*
X104106700Y-51916290D01*
X105993059Y-53200506D01*
X107566180Y-54741698D01*
X108804766Y-56510844D01*
X109687522Y-58478923D01*
X110193154Y-60616914D01*
X110312111Y-62343261D01*
X110103625Y-64550161D01*
X109505112Y-66715818D01*
X108556988Y-68791299D01*
X107299668Y-70727672D01*
X105773569Y-72476004D01*
X104019107Y-73987362D01*
X102076697Y-75212816D01*
X99986755Y-76103432D01*
X98650007Y-76462787D01*
X97349104Y-76654956D01*
X95803147Y-76759183D01*
X94163700Y-76775581D01*
X92582330Y-76704259D01*
X91210601Y-76545330D01*
X90753483Y-76457011D01*
X88597609Y-75766510D01*
X86680941Y-74739505D01*
X85027941Y-73416005D01*
X83663072Y-71836020D01*
X82610795Y-70039558D01*
X81895572Y-68066629D01*
X81541865Y-65957243D01*
X81552151Y-65254088D01*
X82790108Y-65254088D01*
X83025597Y-67280320D01*
X83631335Y-69232641D01*
X84613123Y-71059681D01*
X85158059Y-71801108D01*
X86242958Y-72859953D01*
X87654275Y-73797467D01*
X89296031Y-74577653D01*
X91072246Y-75164516D01*
X92886939Y-75522059D01*
X94644130Y-75614286D01*
X95226907Y-75577310D01*
X95959553Y-75513847D01*
X96606853Y-75470773D01*
X96733687Y-75465180D01*
X96801964Y-75423181D01*
X96505888Y-75327821D01*
X95906067Y-75196412D01*
X95573559Y-75133804D01*
X93374569Y-74530675D01*
X91371266Y-73574484D01*
X89596938Y-72304398D01*
X88084875Y-70759583D01*
X86868363Y-68979206D01*
X85980693Y-67002432D01*
X85455151Y-64868428D01*
X85317802Y-63067126D01*
X85367033Y-62445766D01*
X86552510Y-62445766D01*
X86633914Y-64317718D01*
X87027764Y-66138889D01*
X87716343Y-67866994D01*
X88681934Y-69459746D01*
X89906821Y-70874861D01*
X91373286Y-72070053D01*
X93063612Y-73003037D01*
X94960082Y-73631528D01*
X97044979Y-73913241D01*
X97510847Y-73924414D01*
X98556159Y-73891595D01*
X99597524Y-73796251D01*
X100445404Y-73657156D01*
X100603843Y-73618043D01*
X102600505Y-72869616D01*
X104348560Y-71772766D01*
X105480088Y-70751511D01*
X106905191Y-68998153D01*
X107938265Y-67111198D01*
X108573425Y-65127745D01*
X108804788Y-63084890D01*
X108626469Y-61019731D01*
X108032585Y-58969364D01*
X107525044Y-57858255D01*
X106372549Y-56078429D01*
X104955461Y-54606192D01*
X103324988Y-53448905D01*
X101532334Y-52613934D01*
X99628704Y-52108639D01*
X97665304Y-51940386D01*
X95693339Y-52116538D01*
X93764014Y-52644456D01*
X91928535Y-53531506D01*
X90238106Y-54785050D01*
X89705701Y-55295847D01*
X88360149Y-56948072D01*
X87397911Y-58718658D01*
X86801270Y-60565317D01*
X86552510Y-62445766D01*
X85367033Y-62445766D01*
X85501336Y-60750702D01*
X86053558Y-58604211D01*
X86961008Y-56668302D01*
X87860978Y-55385869D01*
X88240095Y-54901102D01*
X88337622Y-54706644D01*
X88145811Y-54806178D01*
X87656911Y-55203385D01*
X86963390Y-55812254D01*
X85434638Y-57437475D01*
X84247133Y-59245640D01*
X83406676Y-61185377D01*
X82919068Y-63205317D01*
X82790108Y-65254088D01*
X81552151Y-65254088D01*
X81574134Y-63751408D01*
X81890247Y-61960369D01*
X82690384Y-59616945D01*
X83859309Y-57474099D01*
X85371045Y-55556176D01*
X87199618Y-53887520D01*
X89319051Y-52492478D01*
X91703368Y-51395394D01*
X93878003Y-50725320D01*
X95392466Y-50459556D01*
X97068718Y-50341610D01*
X98770459Y-50368218D01*
%TA.AperFunction,EtchedComponent*%
G36*
X98770459Y-50368218D02*
G01*
X100361389Y-50536116D01*
X101705206Y-50842043D01*
X101928397Y-50918070D01*
X104106700Y-51916290D01*
X105993059Y-53200506D01*
X107566180Y-54741698D01*
X108804766Y-56510844D01*
X109687522Y-58478923D01*
X110193154Y-60616914D01*
X110312111Y-62343261D01*
X110103625Y-64550161D01*
X109505112Y-66715818D01*
X108556988Y-68791299D01*
X107299668Y-70727672D01*
X105773569Y-72476004D01*
X104019107Y-73987362D01*
X102076697Y-75212816D01*
X99986755Y-76103432D01*
X98650007Y-76462787D01*
X97349104Y-76654956D01*
X95803147Y-76759183D01*
X94163700Y-76775581D01*
X92582330Y-76704259D01*
X91210601Y-76545330D01*
X90753483Y-76457011D01*
X88597609Y-75766510D01*
X86680941Y-74739505D01*
X85027941Y-73416005D01*
X83663072Y-71836020D01*
X82610795Y-70039558D01*
X81895572Y-68066629D01*
X81541865Y-65957243D01*
X81552151Y-65254088D01*
X82790108Y-65254088D01*
X83025597Y-67280320D01*
X83631335Y-69232641D01*
X84613123Y-71059681D01*
X85158059Y-71801108D01*
X86242958Y-72859953D01*
X87654275Y-73797467D01*
X89296031Y-74577653D01*
X91072246Y-75164516D01*
X92886939Y-75522059D01*
X94644130Y-75614286D01*
X95226907Y-75577310D01*
X95959553Y-75513847D01*
X96606853Y-75470773D01*
X96733687Y-75465180D01*
X96801964Y-75423181D01*
X96505888Y-75327821D01*
X95906067Y-75196412D01*
X95573559Y-75133804D01*
X93374569Y-74530675D01*
X91371266Y-73574484D01*
X89596938Y-72304398D01*
X88084875Y-70759583D01*
X86868363Y-68979206D01*
X85980693Y-67002432D01*
X85455151Y-64868428D01*
X85317802Y-63067126D01*
X85367033Y-62445766D01*
X86552510Y-62445766D01*
X86633914Y-64317718D01*
X87027764Y-66138889D01*
X87716343Y-67866994D01*
X88681934Y-69459746D01*
X89906821Y-70874861D01*
X91373286Y-72070053D01*
X93063612Y-73003037D01*
X94960082Y-73631528D01*
X97044979Y-73913241D01*
X97510847Y-73924414D01*
X98556159Y-73891595D01*
X99597524Y-73796251D01*
X100445404Y-73657156D01*
X100603843Y-73618043D01*
X102600505Y-72869616D01*
X104348560Y-71772766D01*
X105480088Y-70751511D01*
X106905191Y-68998153D01*
X107938265Y-67111198D01*
X108573425Y-65127745D01*
X108804788Y-63084890D01*
X108626469Y-61019731D01*
X108032585Y-58969364D01*
X107525044Y-57858255D01*
X106372549Y-56078429D01*
X104955461Y-54606192D01*
X103324988Y-53448905D01*
X101532334Y-52613934D01*
X99628704Y-52108639D01*
X97665304Y-51940386D01*
X95693339Y-52116538D01*
X93764014Y-52644456D01*
X91928535Y-53531506D01*
X90238106Y-54785050D01*
X89705701Y-55295847D01*
X88360149Y-56948072D01*
X87397911Y-58718658D01*
X86801270Y-60565317D01*
X86552510Y-62445766D01*
X85367033Y-62445766D01*
X85501336Y-60750702D01*
X86053558Y-58604211D01*
X86961008Y-56668302D01*
X87860978Y-55385869D01*
X88240095Y-54901102D01*
X88337622Y-54706644D01*
X88145811Y-54806178D01*
X87656911Y-55203385D01*
X86963390Y-55812254D01*
X85434638Y-57437475D01*
X84247133Y-59245640D01*
X83406676Y-61185377D01*
X82919068Y-63205317D01*
X82790108Y-65254088D01*
X81552151Y-65254088D01*
X81574134Y-63751408D01*
X81890247Y-61960369D01*
X82690384Y-59616945D01*
X83859309Y-57474099D01*
X85371045Y-55556176D01*
X87199618Y-53887520D01*
X89319051Y-52492478D01*
X91703368Y-51395394D01*
X93878003Y-50725320D01*
X95392466Y-50459556D01*
X97068718Y-50341610D01*
X98770459Y-50368218D01*
G37*
%TD.AperFunction*%
X129865287Y-49290189D02*
X132458420Y-49942580D01*
X134865077Y-50927142D01*
X137045540Y-52215700D01*
X138960093Y-53780080D01*
X140569019Y-55592107D01*
X141832601Y-57623606D01*
X141950852Y-57863516D01*
X142823706Y-60023864D01*
X143307369Y-62096487D01*
X143412537Y-64157282D01*
X143149904Y-66282146D01*
X143142395Y-66318913D01*
X142496852Y-68468995D01*
X141499761Y-70367479D01*
X140158890Y-72006078D01*
X138482008Y-73376505D01*
X136476884Y-74470476D01*
X134965084Y-75041000D01*
X134006605Y-75295634D01*
X132934844Y-75466430D01*
X131625928Y-75570006D01*
X130767627Y-75604116D01*
X129698053Y-75626948D01*
X128755949Y-75630163D01*
X128041029Y-75614552D01*
X127653009Y-75580905D01*
X127646440Y-75579378D01*
X127225395Y-75479106D01*
X126533239Y-75316849D01*
X125718889Y-75127514D01*
X125709152Y-75125260D01*
X123651525Y-74432093D01*
X122855639Y-73997064D01*
X126570169Y-73997064D01*
X127323559Y-74159783D01*
X128290591Y-74289314D01*
X129531201Y-74342515D01*
X130895362Y-74321843D01*
X132233047Y-74229755D01*
X133394228Y-74068709D01*
X133441553Y-74059561D01*
X135562332Y-73442588D01*
X137422742Y-72499688D01*
X139003466Y-71270932D01*
X140285185Y-69796393D01*
X141248585Y-68116142D01*
X141874347Y-66270251D01*
X142143156Y-64298792D01*
X142035694Y-62241838D01*
X141532645Y-60139460D01*
X140899413Y-58588478D01*
X140330400Y-57541063D01*
X139652722Y-56492113D01*
X138939502Y-55538678D01*
X138263861Y-54777808D01*
X137698925Y-54306553D01*
X137653275Y-54280156D01*
X137493040Y-54256365D01*
X137552490Y-54502909D01*
X137844277Y-55058674D01*
X137986467Y-55304230D01*
X138900191Y-57148696D01*
X139448429Y-58998521D01*
X139671161Y-61001566D01*
X139680686Y-61570217D01*
X139489288Y-63858001D01*
X138909129Y-65971381D01*
X137930798Y-67933271D01*
X136544884Y-69766585D01*
X136133093Y-70208051D01*
X134465634Y-71625805D01*
X132537002Y-72741162D01*
X130429371Y-73518205D01*
X128224919Y-73921021D01*
X127538813Y-73964153D01*
X126570169Y-73997064D01*
X122855639Y-73997064D01*
X121679720Y-73354311D01*
X119847685Y-71947824D01*
X118209370Y-70268544D01*
X116818725Y-68372381D01*
X115729698Y-66315248D01*
X114996240Y-64153055D01*
X114955248Y-63980302D01*
X114638455Y-61730576D01*
X114663463Y-61052250D01*
X116160873Y-61052250D01*
X116261308Y-63050211D01*
X116731483Y-64984624D01*
X117541646Y-66806834D01*
X118662041Y-68468188D01*
X120062916Y-69920031D01*
X121714514Y-71113710D01*
X123587083Y-72000570D01*
X124574173Y-72307833D01*
X125740528Y-72493854D01*
X127147973Y-72541253D01*
X128631707Y-72458644D01*
X130026929Y-72254641D01*
X131090508Y-71967215D01*
X132979498Y-71065642D01*
X134641806Y-69847261D01*
X136045789Y-68364420D01*
X137159800Y-66669467D01*
X137952196Y-64814752D01*
X138391333Y-62852622D01*
X138445565Y-60835426D01*
X138343444Y-59968913D01*
X137792269Y-57864852D01*
X136878727Y-55955157D01*
X135642534Y-54276338D01*
X134123407Y-52864906D01*
X132361061Y-51757372D01*
X130395212Y-50990246D01*
X128265577Y-50600040D01*
X128141139Y-50589987D01*
X125975307Y-50634049D01*
X123914383Y-51077173D01*
X122002192Y-51887656D01*
X120282563Y-53033798D01*
X118799321Y-54483896D01*
X117596294Y-56206249D01*
X116717309Y-58169156D01*
X116459934Y-59039395D01*
X116160873Y-61052250D01*
X114663463Y-61052250D01*
X114718051Y-59571606D01*
X115164072Y-57532913D01*
X115946556Y-55644018D01*
X117035539Y-53934442D01*
X118401059Y-52433707D01*
X120013151Y-51171333D01*
X121841854Y-50176842D01*
X123857202Y-49479756D01*
X126029235Y-49109594D01*
X128327988Y-49095879D01*
X129865287Y-49290189D01*
%TA.AperFunction,EtchedComponent*%
G36*
X129865287Y-49290189D02*
G01*
X132458420Y-49942580D01*
X134865077Y-50927142D01*
X137045540Y-52215700D01*
X138960093Y-53780080D01*
X140569019Y-55592107D01*
X141832601Y-57623606D01*
X141950852Y-57863516D01*
X142823706Y-60023864D01*
X143307369Y-62096487D01*
X143412537Y-64157282D01*
X143149904Y-66282146D01*
X143142395Y-66318913D01*
X142496852Y-68468995D01*
X141499761Y-70367479D01*
X140158890Y-72006078D01*
X138482008Y-73376505D01*
X136476884Y-74470476D01*
X134965084Y-75041000D01*
X134006605Y-75295634D01*
X132934844Y-75466430D01*
X131625928Y-75570006D01*
X130767627Y-75604116D01*
X129698053Y-75626948D01*
X128755949Y-75630163D01*
X128041029Y-75614552D01*
X127653009Y-75580905D01*
X127646440Y-75579378D01*
X127225395Y-75479106D01*
X126533239Y-75316849D01*
X125718889Y-75127514D01*
X125709152Y-75125260D01*
X123651525Y-74432093D01*
X122855639Y-73997064D01*
X126570169Y-73997064D01*
X127323559Y-74159783D01*
X128290591Y-74289314D01*
X129531201Y-74342515D01*
X130895362Y-74321843D01*
X132233047Y-74229755D01*
X133394228Y-74068709D01*
X133441553Y-74059561D01*
X135562332Y-73442588D01*
X137422742Y-72499688D01*
X139003466Y-71270932D01*
X140285185Y-69796393D01*
X141248585Y-68116142D01*
X141874347Y-66270251D01*
X142143156Y-64298792D01*
X142035694Y-62241838D01*
X141532645Y-60139460D01*
X140899413Y-58588478D01*
X140330400Y-57541063D01*
X139652722Y-56492113D01*
X138939502Y-55538678D01*
X138263861Y-54777808D01*
X137698925Y-54306553D01*
X137653275Y-54280156D01*
X137493040Y-54256365D01*
X137552490Y-54502909D01*
X137844277Y-55058674D01*
X137986467Y-55304230D01*
X138900191Y-57148696D01*
X139448429Y-58998521D01*
X139671161Y-61001566D01*
X139680686Y-61570217D01*
X139489288Y-63858001D01*
X138909129Y-65971381D01*
X137930798Y-67933271D01*
X136544884Y-69766585D01*
X136133093Y-70208051D01*
X134465634Y-71625805D01*
X132537002Y-72741162D01*
X130429371Y-73518205D01*
X128224919Y-73921021D01*
X127538813Y-73964153D01*
X126570169Y-73997064D01*
X122855639Y-73997064D01*
X121679720Y-73354311D01*
X119847685Y-71947824D01*
X118209370Y-70268544D01*
X116818725Y-68372381D01*
X115729698Y-66315248D01*
X114996240Y-64153055D01*
X114955248Y-63980302D01*
X114638455Y-61730576D01*
X114663463Y-61052250D01*
X116160873Y-61052250D01*
X116261308Y-63050211D01*
X116731483Y-64984624D01*
X117541646Y-66806834D01*
X118662041Y-68468188D01*
X120062916Y-69920031D01*
X121714514Y-71113710D01*
X123587083Y-72000570D01*
X124574173Y-72307833D01*
X125740528Y-72493854D01*
X127147973Y-72541253D01*
X128631707Y-72458644D01*
X130026929Y-72254641D01*
X131090508Y-71967215D01*
X132979498Y-71065642D01*
X134641806Y-69847261D01*
X136045789Y-68364420D01*
X137159800Y-66669467D01*
X137952196Y-64814752D01*
X138391333Y-62852622D01*
X138445565Y-60835426D01*
X138343444Y-59968913D01*
X137792269Y-57864852D01*
X136878727Y-55955157D01*
X135642534Y-54276338D01*
X134123407Y-52864906D01*
X132361061Y-51757372D01*
X130395212Y-50990246D01*
X128265577Y-50600040D01*
X128141139Y-50589987D01*
X125975307Y-50634049D01*
X123914383Y-51077173D01*
X122002192Y-51887656D01*
X120282563Y-53033798D01*
X118799321Y-54483896D01*
X117596294Y-56206249D01*
X116717309Y-58169156D01*
X116459934Y-59039395D01*
X116160873Y-61052250D01*
X114663463Y-61052250D01*
X114718051Y-59571606D01*
X115164072Y-57532913D01*
X115946556Y-55644018D01*
X117035539Y-53934442D01*
X118401059Y-52433707D01*
X120013151Y-51171333D01*
X121841854Y-50176842D01*
X123857202Y-49479756D01*
X126029235Y-49109594D01*
X128327988Y-49095879D01*
X129865287Y-49290189D01*
G37*
%TD.AperFunction*%
X112891209Y-28594073D02*
X114464604Y-28646041D01*
X115054068Y-28669214D01*
X116598281Y-28742909D01*
X118041290Y-28833873D01*
X119305184Y-28935656D01*
X120312055Y-29041805D01*
X120983993Y-29145867D01*
X121081186Y-29168367D01*
X121585498Y-29324722D01*
X122421174Y-29613789D01*
X123520606Y-30009827D01*
X124816187Y-30487092D01*
X126240309Y-31019843D01*
X127725366Y-31582339D01*
X129203749Y-32148836D01*
X130607852Y-32693594D01*
X131870067Y-33190871D01*
X132922787Y-33614923D01*
X133698404Y-33940010D01*
X134104068Y-34126910D01*
X134722957Y-34495015D01*
X135420441Y-35005730D01*
X136246666Y-35701886D01*
X137251780Y-36626313D01*
X138485929Y-37821844D01*
X138839661Y-38171608D01*
X139848590Y-39129842D01*
X140938008Y-40093858D01*
X141989342Y-40962838D01*
X142884017Y-41635965D01*
X143037118Y-41740485D01*
X144352700Y-42671664D01*
X145343523Y-43517045D01*
X146082683Y-44359588D01*
X146643277Y-45282253D01*
X147087435Y-46337410D01*
X147670463Y-47958100D01*
X149178406Y-48218808D01*
X151075768Y-48748012D01*
X152720533Y-49630947D01*
X154099956Y-50858008D01*
X155201294Y-52419588D01*
X155485539Y-52972813D01*
X156148014Y-54811995D01*
X156454690Y-56726464D01*
X156413229Y-58639598D01*
X156031294Y-60474773D01*
X155316546Y-62155368D01*
X154440932Y-63419311D01*
X154041550Y-63937411D01*
X153814636Y-64425534D01*
X153702151Y-65054778D01*
X153657682Y-65728362D01*
X153572917Y-66656968D01*
X153423797Y-67550924D01*
X153283351Y-68085869D01*
X153171417Y-68597331D01*
X153053180Y-69453629D01*
X152936592Y-70558103D01*
X152829605Y-71814094D01*
X152740171Y-73124939D01*
X152676242Y-74393980D01*
X152645768Y-75524556D01*
X152644415Y-75852670D01*
X152856266Y-76659830D01*
X153327782Y-77347590D01*
X153695837Y-77812095D01*
X153962351Y-78268394D01*
X154143469Y-78797909D01*
X154255334Y-79482061D01*
X154314090Y-80402273D01*
X154335883Y-81639967D01*
X154337966Y-82442391D01*
X154307789Y-84070430D01*
X154196614Y-85406289D01*
X153973478Y-86596537D01*
X153607416Y-87787741D01*
X153067464Y-89126466D01*
X152798129Y-89731087D01*
X152524928Y-90441899D01*
X152369081Y-91179423D01*
X152303089Y-92107140D01*
X152295153Y-92721376D01*
X152293051Y-94607318D01*
X153530762Y-95350223D01*
X156333757Y-97187325D01*
X157997288Y-98458355D01*
X158619146Y-98919119D01*
X159158362Y-99237579D01*
X159457827Y-99337800D01*
X160088278Y-99153467D01*
X160770165Y-98583889D01*
X161525181Y-97609521D01*
X161740127Y-97281206D01*
X162331089Y-96446967D01*
X163060859Y-95556818D01*
X163855891Y-94685671D01*
X164607167Y-93943478D01*
X166715084Y-93943478D01*
X166798512Y-94186360D01*
X167092841Y-94233267D01*
X167664145Y-94081940D01*
X168170845Y-93893687D01*
X168818839Y-93683696D01*
X169203705Y-93686294D01*
X169351177Y-93783252D01*
X169482178Y-94026324D01*
X169333758Y-94261056D01*
X168857600Y-94529464D01*
X168168051Y-94812051D01*
X167479093Y-95141806D01*
X167172040Y-95471856D01*
X167145593Y-95614137D01*
X167159834Y-95859659D01*
X167250530Y-95974933D01*
X167489638Y-95945546D01*
X167949119Y-95757085D01*
X168700931Y-95395137D01*
X169017111Y-95239279D01*
X170095869Y-94626349D01*
X170750928Y-94059553D01*
X170986225Y-93534083D01*
X170810205Y-93050671D01*
X170416063Y-92815522D01*
X169840187Y-92712984D01*
X169817989Y-92712826D01*
X169186247Y-92788643D01*
X168447043Y-92984931D01*
X167718233Y-93254948D01*
X167117672Y-93551950D01*
X166763217Y-93829193D01*
X166715084Y-93943478D01*
X164607167Y-93943478D01*
X164642636Y-93908438D01*
X165347548Y-93300030D01*
X165897078Y-92935359D01*
X166069322Y-92871709D01*
X166564631Y-92733838D01*
X167279904Y-92496717D01*
X167839792Y-92293799D01*
X169181321Y-91905189D01*
X170255718Y-91854132D01*
X171073822Y-92140869D01*
X171352835Y-92371482D01*
X171796530Y-93064920D01*
X171820241Y-93788471D01*
X171432305Y-94527759D01*
X170641058Y-95268412D01*
X169454837Y-95996055D01*
X169166860Y-96140739D01*
X168340184Y-96550045D01*
X167736201Y-96882987D01*
X167233297Y-97226545D01*
X166709853Y-97667698D01*
X166044255Y-98293427D01*
X165720874Y-98605310D01*
X164932770Y-99481240D01*
X164390517Y-100405173D01*
X164119006Y-101085642D01*
X163555202Y-102288736D01*
X162825481Y-103259791D01*
X161990041Y-103954403D01*
X161109077Y-104328165D01*
X160242789Y-104336672D01*
X159880128Y-104212487D01*
X159415716Y-104052229D01*
X158652873Y-103848600D01*
X157717358Y-103633635D01*
X157154796Y-103518261D01*
X155787020Y-103191262D01*
X154558398Y-102786023D01*
X153773359Y-102434625D01*
X153114070Y-102093136D01*
X152612363Y-101852873D01*
X152386703Y-101768478D01*
X152330092Y-101967596D01*
X152308287Y-102481739D01*
X152316243Y-103186086D01*
X152348915Y-103955821D01*
X152401258Y-104666124D01*
X152468229Y-105192176D01*
X152533549Y-105401918D01*
X152785768Y-105506962D01*
X153363085Y-105684179D01*
X154171216Y-105905974D01*
X154841142Y-106077301D01*
X156748830Y-106624359D01*
X158292164Y-107223957D01*
X159450261Y-107866244D01*
X160202236Y-108541373D01*
X160275428Y-108640124D01*
X160566194Y-109139877D01*
X160725623Y-109684136D01*
X160788948Y-110429493D01*
X160795593Y-110951886D01*
X160768883Y-111862170D01*
X160658155Y-112519176D01*
X160417509Y-113109630D01*
X160149830Y-113578974D01*
X159317209Y-114594458D01*
X158308229Y-115219935D01*
X157152992Y-115453027D01*
X155881602Y-115291352D01*
X154524161Y-114732531D01*
X153536261Y-114101873D01*
X152873455Y-113617602D01*
X153012135Y-115478692D01*
X153348975Y-120991727D01*
X153524126Y-126286026D01*
X153534906Y-131274367D01*
X153521420Y-132027609D01*
X153333380Y-136479596D01*
X152958143Y-140553681D01*
X152388871Y-144273066D01*
X151618727Y-147660954D01*
X150640872Y-150740548D01*
X149448469Y-153535050D01*
X148034680Y-156067662D01*
X146392666Y-158361588D01*
X145428945Y-159486967D01*
X144912299Y-160070767D01*
X144659541Y-160425654D01*
X144633008Y-160637982D01*
X144795034Y-160794107D01*
X144845227Y-160825268D01*
X146112717Y-161741414D01*
X147328507Y-162896913D01*
X148421895Y-164200196D01*
X149322179Y-165559691D01*
X149958657Y-166883830D01*
X150217511Y-167783169D01*
X150233390Y-168962062D01*
X149876372Y-170076707D01*
X149204057Y-171065334D01*
X148274049Y-171866173D01*
X147143952Y-172417456D01*
X145871368Y-172657412D01*
X145667069Y-172662758D01*
X144580819Y-172574519D01*
X143683671Y-172257944D01*
X142856455Y-171650865D01*
X142048899Y-170775260D01*
X141043997Y-169570958D01*
X140244867Y-168652245D01*
X139591695Y-167957049D01*
X139024669Y-167423295D01*
X138483977Y-166988908D01*
X138215571Y-166797012D01*
X137160973Y-166067503D01*
X136170656Y-166577212D01*
X133949914Y-167590600D01*
X131385894Y-168533682D01*
X128563598Y-169381056D01*
X125568027Y-170107322D01*
X122484182Y-170687078D01*
X122341624Y-170709801D01*
X121316864Y-170862237D01*
X120351597Y-170980704D01*
X119367699Y-171069482D01*
X118287045Y-171132851D01*
X117031511Y-171175090D01*
X115522973Y-171200480D01*
X113683307Y-171213300D01*
X113116779Y-171215169D01*
X110218181Y-171194092D01*
X107664309Y-171106215D01*
X105372763Y-170940006D01*
X103261144Y-170683933D01*
X101247052Y-170326464D01*
X99248087Y-169856066D01*
X97181850Y-169261207D01*
X95682906Y-168775207D01*
X92778693Y-167797924D01*
X91377821Y-168241407D01*
X89956798Y-168790857D01*
X88618875Y-169535955D01*
X87249597Y-170547105D01*
X86317627Y-171353968D01*
X85573399Y-171995666D01*
X84870460Y-172544969D01*
X84321912Y-172915544D01*
X84165084Y-172996987D01*
X83311729Y-173272609D01*
X82412706Y-173422985D01*
X81669163Y-173416729D01*
X81582034Y-173400012D01*
X80405825Y-173047359D01*
X79477679Y-172551457D01*
X78775386Y-171973528D01*
X77936604Y-170936095D01*
X77505749Y-169810434D01*
X77501236Y-169414843D01*
X78719700Y-169414843D01*
X78958077Y-170178988D01*
X78982259Y-170224792D01*
X79152547Y-170509845D01*
X79293855Y-170560438D01*
X79476257Y-170326490D01*
X79769825Y-169757919D01*
X79843191Y-169609471D01*
X80345497Y-168726147D01*
X80926384Y-167909004D01*
X81512114Y-167243933D01*
X82028946Y-166816826D01*
X82337441Y-166704130D01*
X82752700Y-166839562D01*
X82845492Y-167210121D01*
X82619167Y-167762205D01*
X82239845Y-168265617D01*
X81424447Y-169372247D01*
X80773009Y-170600963D01*
X80521784Y-171277775D01*
X80485616Y-171630200D01*
X80716666Y-171845220D01*
X81086113Y-171975681D01*
X81824372Y-172160291D01*
X82394834Y-172184776D01*
X83029360Y-172053224D01*
X83171149Y-172012443D01*
X83665854Y-171767453D01*
X84346884Y-171302490D01*
X85090834Y-170704389D01*
X85322270Y-170498841D01*
X86656437Y-169367787D01*
X87972092Y-168410602D01*
X89177139Y-167690236D01*
X89923135Y-167354082D01*
X90432140Y-167135565D01*
X90711816Y-166954726D01*
X90730339Y-166918385D01*
X90551853Y-166757616D01*
X90090319Y-166485699D01*
X89616346Y-166244929D01*
X88938376Y-165878284D01*
X88055884Y-165344273D01*
X87114427Y-164732630D01*
X86678648Y-164433846D01*
X85844430Y-163859073D01*
X85271447Y-163502634D01*
X84869642Y-163327515D01*
X84548954Y-163296703D01*
X84219326Y-163373182D01*
X84152161Y-163395463D01*
X83475909Y-163717513D01*
X82614899Y-164254988D01*
X81693540Y-164915911D01*
X80836244Y-165608305D01*
X80167420Y-166240192D01*
X79937714Y-166511220D01*
X79193831Y-167641927D01*
X78793055Y-168589479D01*
X78719700Y-169414843D01*
X77501236Y-169414843D01*
X77492244Y-168626684D01*
X77592192Y-168189278D01*
X78186639Y-166838042D01*
X79151283Y-165499656D01*
X80428695Y-164238013D01*
X81961448Y-163117001D01*
X82375896Y-162867311D01*
X83618148Y-162148980D01*
X82630368Y-161168729D01*
X81084812Y-159448879D01*
X79625621Y-157472306D01*
X78315455Y-155345763D01*
X77216970Y-153176009D01*
X76392825Y-151069798D01*
X76091836Y-150028478D01*
X75931061Y-149348313D01*
X75792256Y-148669213D01*
X75674276Y-147956121D01*
X75575970Y-147173977D01*
X75496193Y-146287723D01*
X75433797Y-145262301D01*
X75387634Y-144062652D01*
X75356556Y-142653718D01*
X75343121Y-141357753D01*
X76575093Y-141357753D01*
X76576673Y-142724865D01*
X76586602Y-143724371D01*
X76598470Y-144175435D01*
X76894941Y-147372642D01*
X77528399Y-150313504D01*
X78515787Y-153037128D01*
X79874050Y-155582620D01*
X81620129Y-157989088D01*
X83444791Y-159977216D01*
X86115100Y-162316026D01*
X89099156Y-164352657D01*
X92396519Y-166086926D01*
X96006750Y-167518651D01*
X99929407Y-168647648D01*
X104164052Y-169473737D01*
X107304915Y-169870788D01*
X108099236Y-169922076D01*
X109231194Y-169956870D01*
X110608242Y-169975800D01*
X112137831Y-169979492D01*
X113727413Y-169968574D01*
X115284442Y-169943675D01*
X116716368Y-169905421D01*
X117930644Y-169854441D01*
X118821017Y-169792670D01*
X123202195Y-169229556D01*
X127253770Y-168397587D01*
X130992489Y-167290268D01*
X134435099Y-165901105D01*
X135405468Y-165386509D01*
X138522884Y-165386509D01*
X138684164Y-165566024D01*
X139086785Y-165849409D01*
X139151071Y-165889000D01*
X139558379Y-166212519D01*
X140155666Y-166781436D01*
X140852212Y-167506219D01*
X141357426Y-168066517D01*
X142333497Y-169181834D01*
X143068898Y-170013784D01*
X143615957Y-170602651D01*
X144027003Y-170988717D01*
X144354364Y-171212264D01*
X144650368Y-171313575D01*
X144967343Y-171332933D01*
X145357617Y-171310620D01*
X145555885Y-171298517D01*
X146804068Y-171231956D01*
X146765412Y-170314949D01*
X146540637Y-169211960D01*
X145983848Y-168010238D01*
X145360212Y-167088245D01*
X145061904Y-166657540D01*
X145030909Y-166387299D01*
X145228395Y-166127988D01*
X145594544Y-165898895D01*
X146018811Y-166024022D01*
X146452202Y-166424139D01*
X146939705Y-167121909D01*
X147408504Y-167992881D01*
X147785782Y-168912607D01*
X147875284Y-169196873D01*
X148076879Y-169760591D01*
X148271298Y-170091314D01*
X148334606Y-170127609D01*
X148514550Y-169938671D01*
X148742839Y-169462809D01*
X148833841Y-169214243D01*
X149009103Y-168583229D01*
X149008078Y-168078206D01*
X148823705Y-167456788D01*
X148779159Y-167336851D01*
X148210366Y-166200298D01*
X147363955Y-164974909D01*
X146342578Y-163778936D01*
X145248891Y-162730626D01*
X144185546Y-161948228D01*
X144016934Y-161851134D01*
X143740882Y-161742108D01*
X143455815Y-161775403D01*
X143069939Y-161993821D01*
X142491463Y-162440162D01*
X142150064Y-162721617D01*
X141317607Y-163382837D01*
X140432452Y-164037584D01*
X139680417Y-164548621D01*
X139652969Y-164565860D01*
X139061173Y-164952973D01*
X138651678Y-165253615D01*
X138522884Y-165386509D01*
X135405468Y-165386509D01*
X137598349Y-164223604D01*
X140498987Y-162251271D01*
X142450646Y-160630217D01*
X144745188Y-158299432D01*
X146692055Y-155745514D01*
X148304643Y-152944314D01*
X149596347Y-149871679D01*
X150580560Y-146503460D01*
X150780412Y-145611087D01*
X151197807Y-143483247D01*
X151546252Y-141352506D01*
X151826678Y-139178182D01*
X152040018Y-136919591D01*
X152187201Y-134536051D01*
X152269160Y-131986877D01*
X152286824Y-129231388D01*
X152241127Y-126228900D01*
X152132997Y-122938729D01*
X151963367Y-119320194D01*
X151733169Y-115332611D01*
X151541216Y-112370217D01*
X151433681Y-110692810D01*
X151326051Y-108877216D01*
X151226790Y-107075858D01*
X151215213Y-106846246D01*
X152532317Y-106846246D01*
X152759955Y-111597174D01*
X153656587Y-112456244D01*
X154768650Y-113345803D01*
X155875755Y-113905664D01*
X156921619Y-114122222D01*
X157849961Y-113981874D01*
X158455915Y-113616208D01*
X159046176Y-113095242D01*
X158091223Y-112405322D01*
X157347887Y-111858617D01*
X156899752Y-111494164D01*
X156683924Y-111249011D01*
X156637512Y-111060206D01*
X156657288Y-110970031D01*
X156942535Y-110696167D01*
X157470190Y-110675333D01*
X158136234Y-110898301D01*
X158548004Y-111137761D01*
X159067059Y-111475306D01*
X159423675Y-111679675D01*
X159499452Y-111707609D01*
X159595328Y-111517019D01*
X159612561Y-111047391D01*
X159561274Y-110451932D01*
X159451585Y-109883851D01*
X159361474Y-109618807D01*
X158925967Y-109103671D01*
X158085881Y-108577687D01*
X156866633Y-108051597D01*
X155293637Y-107536142D01*
X153392310Y-107042064D01*
X153112260Y-106977677D01*
X152532317Y-106846246D01*
X151215213Y-106846246D01*
X151144363Y-105441155D01*
X151096389Y-104359749D01*
X150955839Y-100877107D01*
X149418089Y-99970538D01*
X147805094Y-99005088D01*
X146539063Y-98212561D01*
X145582551Y-97567008D01*
X144898109Y-97042478D01*
X144448292Y-96613021D01*
X144296489Y-96421274D01*
X143935794Y-95725599D01*
X143754291Y-94893070D01*
X143752495Y-93859555D01*
X143930921Y-92560919D01*
X144290084Y-90933029D01*
X144342192Y-90725000D01*
X144807354Y-88610963D01*
X145040965Y-86852297D01*
X145043631Y-85432367D01*
X144815958Y-84334539D01*
X144592207Y-83861061D01*
X144228675Y-83078777D01*
X143874180Y-82010197D01*
X143567572Y-80809702D01*
X143347698Y-79631677D01*
X143253409Y-78630504D01*
X143252373Y-78536707D01*
X143252373Y-77733491D01*
X144549160Y-77733491D01*
X144603495Y-79234513D01*
X144784851Y-80501580D01*
X145135223Y-81733683D01*
X145680077Y-83092259D01*
X146096221Y-84232722D01*
X146323243Y-85387210D01*
X146360895Y-86641881D01*
X146208928Y-88082896D01*
X145867094Y-89796413D01*
X145658255Y-90651888D01*
X145292640Y-92168438D01*
X145068077Y-93335628D01*
X144984768Y-94221525D01*
X145042914Y-94894198D01*
X145242718Y-95421713D01*
X145584380Y-95872139D01*
X145673983Y-95963121D01*
X146075923Y-96281662D01*
X146785415Y-96768063D01*
X147731596Y-97379542D01*
X148843607Y-98073319D01*
X150050585Y-98806614D01*
X151281671Y-99536647D01*
X152466002Y-100220636D01*
X153532717Y-100815802D01*
X154410956Y-101279364D01*
X154768474Y-101453665D01*
X155493840Y-101729719D01*
X156465337Y-102017670D01*
X157503090Y-102265701D01*
X157775599Y-102319914D01*
X158671613Y-102503405D01*
X159427945Y-102684532D01*
X159927711Y-102834208D01*
X160035768Y-102882341D01*
X160615071Y-103071764D01*
X161211968Y-102903490D01*
X161810561Y-102454023D01*
X162383294Y-101745990D01*
X162855065Y-100814363D01*
X162921732Y-100631849D01*
X163697575Y-98934502D01*
X164748675Y-97569935D01*
X166009674Y-96581933D01*
X166030072Y-96350717D01*
X165903795Y-95908816D01*
X165699508Y-95424361D01*
X165485874Y-95065483D01*
X165355945Y-94981212D01*
X165091603Y-95198494D01*
X164622656Y-95710478D01*
X163999520Y-96455974D01*
X163272609Y-97373788D01*
X162492339Y-98402729D01*
X162123220Y-98904976D01*
X161219442Y-99898466D01*
X160268852Y-100464004D01*
X159282404Y-100595704D01*
X159039604Y-100561732D01*
X158528932Y-100354672D01*
X157812379Y-99923177D01*
X157004088Y-99338286D01*
X156760418Y-99143233D01*
X155808797Y-98409581D01*
X154725827Y-97644848D01*
X153722981Y-96997413D01*
X153584576Y-96914907D01*
X152169672Y-96016023D01*
X151147768Y-95182866D01*
X150497948Y-94359718D01*
X150199293Y-93490859D01*
X150230886Y-92520569D01*
X150571809Y-91393130D01*
X151089581Y-90268842D01*
X152078728Y-88112498D01*
X152746789Y-86116828D01*
X153116581Y-84176771D01*
X153210922Y-82187271D01*
X153137339Y-80840192D01*
X153036277Y-79885553D01*
X152904578Y-79223745D01*
X152692872Y-78706279D01*
X152351789Y-78184667D01*
X152177798Y-77954236D01*
X151382800Y-76920652D01*
X151515808Y-73773261D01*
X151555336Y-72652081D01*
X151573686Y-71707108D01*
X151570510Y-71016517D01*
X151545463Y-70658483D01*
X151529735Y-70625869D01*
X151277314Y-70718029D01*
X150811361Y-70944542D01*
X150721768Y-70991580D01*
X149927604Y-71334831D01*
X148962238Y-71643965D01*
X148014807Y-71866114D01*
X147298462Y-71948465D01*
X146903345Y-72023790D01*
X146604673Y-72314760D01*
X146296594Y-72925335D01*
X146291283Y-72937637D01*
X145898503Y-73736488D01*
X145405584Y-74596863D01*
X145204939Y-74910041D01*
X144874463Y-75440199D01*
X144677570Y-75908773D01*
X144580657Y-76460443D01*
X144550120Y-77239889D01*
X144549160Y-77733491D01*
X143252373Y-77733491D01*
X143252373Y-77462554D01*
X142132273Y-78371039D01*
X140192516Y-79688336D01*
X138024727Y-80711584D01*
X135759018Y-81384720D01*
X134731233Y-81559883D01*
X133744522Y-81610710D01*
X132471451Y-81566917D01*
X131042806Y-81443100D01*
X129589372Y-81253851D01*
X128241933Y-81013766D01*
X127131273Y-80737438D01*
X127005446Y-80697775D01*
X126042963Y-80323388D01*
X125078249Y-79849938D01*
X124338223Y-79392109D01*
X123276854Y-78609700D01*
X123046230Y-79549485D01*
X122603760Y-80731935D01*
X121919508Y-81565130D01*
X120949138Y-82089771D01*
X120051231Y-82298893D01*
X119073659Y-82442391D01*
X119123502Y-85350666D01*
X119126926Y-86799098D01*
X119066201Y-87883530D01*
X118919954Y-88679513D01*
X118666813Y-89262602D01*
X118285405Y-89708347D01*
X117788109Y-90071333D01*
X116817113Y-90443920D01*
X115716417Y-90500519D01*
X114651712Y-90246488D01*
X114106342Y-89952262D01*
X113313794Y-89400395D01*
X112677754Y-89882907D01*
X111864149Y-90280383D01*
X110861656Y-90463364D01*
X109843979Y-90422606D01*
X108984822Y-90148869D01*
X108877204Y-90085115D01*
X108321027Y-89686128D01*
X107926513Y-89266875D01*
X107668948Y-88746237D01*
X107523617Y-88043094D01*
X107466075Y-87080841D01*
X108669544Y-87080841D01*
X108720529Y-87673882D01*
X108831631Y-88100348D01*
X108908789Y-88274535D01*
X109204969Y-88761440D01*
X109559387Y-89025620D01*
X110110715Y-89137158D01*
X110663737Y-89161476D01*
X111446885Y-89065450D01*
X112060809Y-88689114D01*
X112116703Y-88637285D01*
X112509904Y-88263373D01*
X113977796Y-88263373D01*
X114544961Y-88721143D01*
X115302726Y-89102415D01*
X116156732Y-89187182D01*
X116951343Y-88979559D01*
X117404689Y-88645497D01*
X117609790Y-88392100D01*
X117746596Y-88104886D01*
X117827631Y-87695715D01*
X117865417Y-87076445D01*
X117872478Y-86158936D01*
X117866830Y-85392671D01*
X117844811Y-84339513D01*
X117803929Y-83453389D01*
X117749911Y-82824234D01*
X117688486Y-82541985D01*
X117685042Y-82538344D01*
X117418563Y-82404910D01*
X116866465Y-82178311D01*
X116151861Y-81904095D01*
X115397864Y-81627808D01*
X114727588Y-81394998D01*
X114264146Y-81251210D01*
X114139237Y-81226545D01*
X114084610Y-81435428D01*
X114037889Y-82011908D01*
X114002473Y-82881869D01*
X113981763Y-83971191D01*
X113977796Y-84745491D01*
X113977796Y-88263373D01*
X112509904Y-88263373D01*
X112686271Y-88095658D01*
X112686271Y-84745491D01*
X112686271Y-80998323D01*
X112094322Y-81141927D01*
X111583953Y-81304068D01*
X110853124Y-81581013D01*
X110186581Y-81858658D01*
X108870790Y-82431784D01*
X108727611Y-85031360D01*
X108673598Y-86230307D01*
X108669544Y-87080841D01*
X107466075Y-87080841D01*
X107465805Y-87076326D01*
X107470796Y-85764813D01*
X107476423Y-85487432D01*
X107540305Y-82552826D01*
X106447052Y-82552826D01*
X105110793Y-82388569D01*
X104055414Y-81891291D01*
X103271561Y-81054228D01*
X102753367Y-79882605D01*
X102519424Y-79081401D01*
X103933879Y-79081401D01*
X104071251Y-79776875D01*
X104363059Y-80457870D01*
X104769062Y-80893201D01*
X105373686Y-81123067D01*
X106261355Y-81187670D01*
X106982034Y-81162862D01*
X108171183Y-81040357D01*
X109148541Y-80793851D01*
X109995593Y-80436973D01*
X111458878Y-79886407D01*
X112898318Y-79699319D01*
X114409627Y-79873898D01*
X115875955Y-80325609D01*
X117380005Y-80786643D01*
X118771717Y-80998968D01*
X119972277Y-80956989D01*
X120858692Y-80679276D01*
X121427249Y-80148346D01*
X121787207Y-79342325D01*
X121888803Y-78396695D01*
X121843737Y-77997426D01*
X121511326Y-77160268D01*
X120878915Y-76317753D01*
X120058482Y-75592719D01*
X119234640Y-75135340D01*
X118635290Y-74920527D01*
X118279347Y-74879176D01*
X118015306Y-75008872D01*
X117895122Y-75113999D01*
X117228036Y-75569263D01*
X116276074Y-76010973D01*
X115182706Y-76381335D01*
X114188115Y-76607259D01*
X112794113Y-76696769D01*
X111330480Y-76550064D01*
X109924347Y-76197084D01*
X108702847Y-75667770D01*
X107942871Y-75136451D01*
X107687226Y-74989665D01*
X107343333Y-75015815D01*
X106787614Y-75233570D01*
X106542152Y-75348056D01*
X105384738Y-76074690D01*
X104543396Y-76976453D01*
X104049363Y-77997354D01*
X103933879Y-79081401D01*
X102519424Y-79081401D01*
X102507087Y-79039151D01*
X101623374Y-79815373D01*
X100131733Y-80908771D01*
X98442069Y-81725000D01*
X96508534Y-82278093D01*
X94285282Y-82582082D01*
X92344745Y-82655238D01*
X90807845Y-82634015D01*
X89582478Y-82545396D01*
X88551794Y-82365782D01*
X87598939Y-82071574D01*
X86607061Y-81639176D01*
X86130576Y-81400305D01*
X85583961Y-81176929D01*
X85194003Y-81122826D01*
X85116958Y-81156469D01*
X84973984Y-81453040D01*
X84776124Y-82048056D01*
X84575910Y-82775669D01*
X84420566Y-83496041D01*
X84331565Y-84221115D01*
X84303437Y-85069337D01*
X84330713Y-86159153D01*
X84377101Y-87080652D01*
X84458282Y-88609941D01*
X84494401Y-89783496D01*
X84467059Y-90686476D01*
X84357856Y-91404038D01*
X84148392Y-92021340D01*
X83820269Y-92623540D01*
X83355085Y-93295796D01*
X82903921Y-93898862D01*
X82327672Y-94570155D01*
X81534764Y-95372117D01*
X80616125Y-96225144D01*
X79662684Y-97049630D01*
X78765369Y-97765972D01*
X78015107Y-98294564D01*
X77647672Y-98500540D01*
X76726871Y-98923265D01*
X76868232Y-101174133D01*
X76912321Y-101937846D01*
X76948870Y-102728030D01*
X76977737Y-103577243D01*
X76998785Y-104518041D01*
X77011873Y-105582981D01*
X77016863Y-106804618D01*
X77013614Y-108215511D01*
X77001987Y-109848215D01*
X76981844Y-111735287D01*
X76953044Y-113909284D01*
X76915447Y-116402763D01*
X76868916Y-119248279D01*
X76813310Y-122478391D01*
X76765428Y-125180652D01*
X76719359Y-127892457D01*
X76678940Y-130543793D01*
X76644557Y-133090783D01*
X76616595Y-135489551D01*
X76595440Y-137696220D01*
X76581478Y-139666913D01*
X76575093Y-141357753D01*
X75343121Y-141357753D01*
X75339416Y-141000440D01*
X75335066Y-139067759D01*
X75342358Y-136820618D01*
X75360146Y-134223957D01*
X75387281Y-131242718D01*
X75408606Y-129156304D01*
X75434959Y-126613574D01*
X75459173Y-124203296D01*
X75480937Y-121961379D01*
X75499938Y-119923730D01*
X75515864Y-118126258D01*
X75528404Y-116604868D01*
X75537244Y-115395471D01*
X75542073Y-114533972D01*
X75542578Y-114056280D01*
X75540618Y-113968670D01*
X75374094Y-114059182D01*
X74978036Y-114354273D01*
X74673181Y-114598357D01*
X73213845Y-115619131D01*
X71828306Y-116239335D01*
X70536449Y-116453364D01*
X69358161Y-116255614D01*
X69127405Y-116161425D01*
X68198089Y-115529744D01*
X67477179Y-114628562D01*
X66982344Y-113549383D01*
X66731247Y-112383714D01*
X66733451Y-112135533D01*
X67915776Y-112135533D01*
X67996871Y-112588693D01*
X68038088Y-112645415D01*
X68269571Y-112604355D01*
X68731588Y-112362214D01*
X69114974Y-112113979D01*
X69912588Y-111661304D01*
X70483228Y-111559252D01*
X70813422Y-111808308D01*
X70882242Y-112050464D01*
X70791438Y-112436920D01*
X70363970Y-112823976D01*
X70103013Y-112984903D01*
X69514583Y-113366216D01*
X69061111Y-113732716D01*
X68970817Y-113829167D01*
X68822745Y-114109664D01*
X68941465Y-114387010D01*
X69277727Y-114714645D01*
X69948728Y-115124672D01*
X70707615Y-115199017D01*
X71640197Y-114940139D01*
X71979148Y-114792068D01*
X72615359Y-114431557D01*
X73413739Y-113890316D01*
X74212637Y-113278705D01*
X74293131Y-113212266D01*
X75662542Y-112072217D01*
X75662542Y-107723540D01*
X75070593Y-107856898D01*
X73006047Y-108356827D01*
X71344055Y-108839232D01*
X70057584Y-109315509D01*
X69119603Y-109797054D01*
X68503080Y-110295261D01*
X68207635Y-110749950D01*
X67990711Y-111470294D01*
X67915776Y-112135533D01*
X66733451Y-112135533D01*
X66741556Y-111223060D01*
X67030937Y-110158924D01*
X67617057Y-109282814D01*
X67771480Y-109138176D01*
X68756836Y-108483284D01*
X70148858Y-107861297D01*
X71924361Y-107280681D01*
X74060161Y-106749902D01*
X74656019Y-106624287D01*
X75909666Y-106368632D01*
X75779907Y-104123772D01*
X75709664Y-102979128D01*
X75631762Y-101820158D01*
X75558962Y-100833169D01*
X75531585Y-100498478D01*
X75413022Y-99118043D01*
X74700932Y-99118043D01*
X74153539Y-99212771D01*
X73386290Y-99461879D01*
X72559645Y-99812753D01*
X72511710Y-99835869D01*
X71034576Y-100553696D01*
X67267627Y-100565264D01*
X65883158Y-100573421D01*
X64839416Y-100595040D01*
X64046632Y-100640446D01*
X63415033Y-100719965D01*
X62854851Y-100843921D01*
X62276314Y-101022640D01*
X61784421Y-101195921D01*
X60542541Y-101573855D01*
X59498437Y-101699699D01*
X58493762Y-101569561D01*
X57370164Y-101179551D01*
X57144118Y-101081915D01*
X56189878Y-100494468D01*
X55162744Y-99580892D01*
X54135063Y-98430902D01*
X53179179Y-97134211D01*
X52367440Y-95780533D01*
X51772191Y-94459580D01*
X51746989Y-94389144D01*
X51578576Y-93785617D01*
X51584061Y-93717046D01*
X52845593Y-93717046D01*
X52958045Y-94065868D01*
X53256919Y-94676129D01*
X53684493Y-95445432D01*
X54183044Y-96271380D01*
X54694852Y-97051576D01*
X54848115Y-97269442D01*
X55958458Y-98618220D01*
X57077284Y-99567088D01*
X58172698Y-100128134D01*
X58897952Y-100345554D01*
X59565745Y-100406842D01*
X60308792Y-100302407D01*
X61259811Y-100022658D01*
X61687128Y-99874166D01*
X62310792Y-99664029D01*
X62880472Y-99511416D01*
X63485427Y-99406225D01*
X64214916Y-99338350D01*
X65158199Y-99297685D01*
X66404536Y-99274127D01*
X67052373Y-99266775D01*
X68419432Y-99250113D01*
X69436333Y-99224991D01*
X70183424Y-99180856D01*
X70741050Y-99107152D01*
X71189557Y-98993325D01*
X71609292Y-98828821D01*
X72071898Y-98607401D01*
X73135021Y-98188659D01*
X74437857Y-97841477D01*
X75253028Y-97690712D01*
X76228939Y-97523733D01*
X76924830Y-97340541D01*
X77489138Y-97081853D01*
X78070301Y-96688384D01*
X78398627Y-96434398D01*
X79623555Y-95391731D01*
X80777021Y-94269837D01*
X81776190Y-93157878D01*
X82538225Y-92145015D01*
X82818716Y-91676815D01*
X83104872Y-91111950D01*
X83264737Y-90665647D01*
X83315130Y-90195649D01*
X83272869Y-89559702D01*
X83168384Y-88719264D01*
X83031146Y-87016310D01*
X83036566Y-85231081D01*
X83176140Y-83513607D01*
X83441365Y-82013915D01*
X83576260Y-81522911D01*
X84000657Y-80161691D01*
X83035803Y-79424650D01*
X82162741Y-78641981D01*
X81210176Y-77601616D01*
X80290568Y-76441251D01*
X79516377Y-75298583D01*
X79182697Y-74706855D01*
X78602809Y-73570392D01*
X76971235Y-73239873D01*
X76142228Y-73060988D01*
X75452158Y-72892280D01*
X75033239Y-72766422D01*
X75001811Y-72753189D01*
X74779608Y-72747083D01*
X74603557Y-73020531D01*
X74427360Y-73649657D01*
X74409861Y-73726558D01*
X74193977Y-75352505D01*
X74193629Y-77327114D01*
X74407521Y-79617428D01*
X74718238Y-81579954D01*
X74966523Y-83024529D01*
X75121300Y-84189386D01*
X75195195Y-85222912D01*
X75200834Y-86273495D01*
X75176865Y-86970217D01*
X75086443Y-88202303D01*
X74913800Y-89337269D01*
X74630689Y-90467483D01*
X74208867Y-91685311D01*
X73620088Y-93083121D01*
X72836108Y-94753279D01*
X72730507Y-94970369D01*
X72230466Y-95979707D01*
X71800994Y-96741561D01*
X71371285Y-97293939D01*
X70870533Y-97674851D01*
X70227931Y-97922306D01*
X69372673Y-98074313D01*
X68233953Y-98168882D01*
X66740963Y-98244021D01*
X66621864Y-98249511D01*
X64971559Y-98344187D01*
X63703830Y-98460703D01*
X62771030Y-98604771D01*
X62125514Y-98782101D01*
X62101525Y-98791318D01*
X60961617Y-99103065D01*
X59792084Y-99194808D01*
X58686224Y-99082111D01*
X57737336Y-98780536D01*
X57038721Y-98305649D01*
X56757850Y-97899916D01*
X56615217Y-97445968D01*
X56436679Y-96689287D01*
X56252586Y-95763620D01*
X56181472Y-95359942D01*
X55953295Y-94214094D01*
X55689181Y-93211072D01*
X55415529Y-92429284D01*
X55158736Y-91947143D01*
X54992819Y-91829348D01*
X54811609Y-92006895D01*
X54601697Y-92392998D01*
X54236654Y-92856309D01*
X53674643Y-93244539D01*
X53598501Y-93279441D01*
X53114004Y-93514261D01*
X52857723Y-93691324D01*
X52845593Y-93717046D01*
X51584061Y-93717046D01*
X51613700Y-93346570D01*
X51779761Y-92982875D01*
X52225110Y-92493158D01*
X52779504Y-92195797D01*
X53362807Y-91872109D01*
X53599030Y-91415796D01*
X53867044Y-90766283D01*
X54266145Y-90269884D01*
X54685479Y-90062735D01*
X54701126Y-90062391D01*
X55022548Y-90198969D01*
X55505674Y-90543694D01*
X55730069Y-90735298D01*
X56220375Y-91285522D01*
X56621176Y-92004562D01*
X56960176Y-92966065D01*
X57265081Y-94243677D01*
X57473992Y-95370956D01*
X57702729Y-96469768D01*
X57947309Y-97206408D01*
X58155235Y-97513929D01*
X58922846Y-97872835D01*
X59915346Y-97938840D01*
X61175148Y-97712673D01*
X61656984Y-97573979D01*
X62548644Y-97335066D01*
X63497463Y-97166955D01*
X64621444Y-97054373D01*
X66038591Y-96982050D01*
X66298983Y-96973241D01*
X67727903Y-96926239D01*
X68800466Y-96862330D01*
X69590175Y-96740343D01*
X70170530Y-96519108D01*
X70615034Y-96157455D01*
X70997189Y-95614214D01*
X71390496Y-94848214D01*
X71846343Y-93866036D01*
X72709393Y-91894200D01*
X73334943Y-90167408D01*
X73736814Y-88575357D01*
X73928828Y-87007747D01*
X73924807Y-85354274D01*
X73738572Y-83504637D01*
X73402373Y-81448478D01*
X73013000Y-78796038D01*
X72881503Y-76464913D01*
X73007146Y-74423265D01*
X73213554Y-73290137D01*
X73562872Y-71805113D01*
X72802935Y-70783570D01*
X72122367Y-69555650D01*
X71695562Y-68109945D01*
X71634942Y-67481701D01*
X72865437Y-67481701D01*
X72918566Y-67780341D01*
X73049760Y-68328091D01*
X73101830Y-68527609D01*
X73650187Y-69790037D01*
X74545160Y-70798397D01*
X75529724Y-71420523D01*
X76269746Y-71717896D01*
X76960893Y-71901417D01*
X77499685Y-71954469D01*
X77782644Y-71860431D01*
X77801811Y-71785435D01*
X77757244Y-71497232D01*
X77653924Y-70907585D01*
X77525921Y-70207533D01*
X77263304Y-68795283D01*
X76193855Y-68514396D01*
X75332579Y-68256406D01*
X74382936Y-67926564D01*
X73994322Y-67776390D01*
X73385205Y-67555732D01*
X72975402Y-67456549D01*
X72865437Y-67481701D01*
X71634942Y-67481701D01*
X71572712Y-66836782D01*
X71403857Y-66128027D01*
X70945201Y-65348716D01*
X70934022Y-65334164D01*
X69850452Y-63590808D01*
X69153787Y-61705461D01*
X68846688Y-59735345D01*
X68872030Y-59140652D01*
X70181881Y-59140652D01*
X70198601Y-60208400D01*
X70266871Y-60990261D01*
X70413855Y-61641379D01*
X70666718Y-62316896D01*
X70785579Y-62588512D01*
X71417782Y-63699235D01*
X72270064Y-64785999D01*
X73220996Y-65711216D01*
X74048135Y-66285284D01*
X74592058Y-66557231D01*
X74883071Y-66610259D01*
X74903509Y-66589046D01*
X76391788Y-66589046D01*
X76404075Y-67036197D01*
X76424706Y-67106524D01*
X76661956Y-67262261D01*
X76986934Y-67318994D01*
X77167991Y-67239618D01*
X77169322Y-67225793D01*
X77188663Y-66998458D01*
X78711558Y-66998458D01*
X78714566Y-68392665D01*
X78775566Y-69586492D01*
X78883880Y-70387582D01*
X79527836Y-72449261D01*
X80546547Y-74439398D01*
X81884423Y-76298527D01*
X83485871Y-77967182D01*
X85295300Y-79385898D01*
X87257118Y-80495207D01*
X88923938Y-81127354D01*
X89690829Y-81265560D01*
X90767505Y-81342815D01*
X92037789Y-81362172D01*
X93385500Y-81326683D01*
X94694460Y-81239399D01*
X95848489Y-81103374D01*
X96729168Y-80922301D01*
X97871567Y-80544664D01*
X98878897Y-80082319D01*
X99837192Y-79476354D01*
X100832485Y-78667858D01*
X101950808Y-77597921D01*
X102672144Y-76852848D01*
X103564097Y-75937541D01*
X104430672Y-75090230D01*
X105193830Y-74384327D01*
X105775529Y-73893246D01*
X105959191Y-73760674D01*
X106547416Y-73315651D01*
X106821470Y-72911092D01*
X106874022Y-72559114D01*
X107060792Y-71906630D01*
X107564455Y-71182999D01*
X108301154Y-70478460D01*
X109187033Y-69883254D01*
X109513070Y-69719179D01*
X110120030Y-69472536D01*
X110723480Y-69317416D01*
X111451508Y-69234247D01*
X112432204Y-69203456D01*
X112901525Y-69201417D01*
X114012256Y-69217281D01*
X114821420Y-69277959D01*
X115457259Y-69403085D01*
X116048013Y-69612290D01*
X116293346Y-69720664D01*
X117311565Y-70330347D01*
X118144462Y-71103568D01*
X118700155Y-71943576D01*
X118859060Y-72422350D01*
X119057966Y-72911316D01*
X119503653Y-73319800D01*
X119980236Y-73596552D01*
X120562787Y-73990839D01*
X121337982Y-74645270D01*
X122219724Y-75483341D01*
X122919700Y-76208460D01*
X124160902Y-77453329D01*
X125345696Y-78419899D01*
X126555098Y-79140126D01*
X127870120Y-79645969D01*
X129371778Y-79969384D01*
X131141086Y-80142328D01*
X133027796Y-80195729D01*
X134231409Y-80194831D01*
X135118068Y-80164257D01*
X135801084Y-80089309D01*
X136393765Y-79955288D01*
X137009418Y-79747492D01*
X137277249Y-79644446D01*
X139569901Y-78534621D01*
X141540496Y-77132091D01*
X143186503Y-75440194D01*
X144505391Y-73462266D01*
X145494628Y-71201644D01*
X145691489Y-70440636D01*
X147169969Y-70440636D01*
X147301730Y-70592799D01*
X147666283Y-70587392D01*
X148325039Y-70426408D01*
X149095377Y-70190054D01*
X150375271Y-69648506D01*
X151303409Y-68918466D01*
X151936575Y-67932430D01*
X152331550Y-66622893D01*
X152394880Y-66267552D01*
X152544876Y-65332713D01*
X151396162Y-65853981D01*
X150477200Y-66213096D01*
X149454990Y-66530129D01*
X149010366Y-66638766D01*
X148379654Y-66782020D01*
X147984717Y-66948744D01*
X147752708Y-67238291D01*
X147610782Y-67750016D01*
X147486090Y-68583271D01*
X147463501Y-68748478D01*
X147350447Y-69455388D01*
X147228646Y-70053668D01*
X147209586Y-70128913D01*
X147169969Y-70440636D01*
X145691489Y-70440636D01*
X146151683Y-68661665D01*
X146296301Y-67754565D01*
X146410485Y-65376243D01*
X146128468Y-62923264D01*
X145465464Y-60451066D01*
X144436687Y-58015086D01*
X143057351Y-55670762D01*
X142928759Y-55483721D01*
X141643585Y-53864064D01*
X140170205Y-52450950D01*
X138478425Y-51231713D01*
X136538051Y-50193691D01*
X134318888Y-49324216D01*
X133781643Y-49172574D01*
X138253776Y-49172574D01*
X138286139Y-49389956D01*
X138401973Y-49515949D01*
X138428791Y-49532826D01*
X138759336Y-49757791D01*
X139335085Y-50175509D01*
X140056952Y-50713526D01*
X140433592Y-50998815D01*
X142362608Y-52733456D01*
X144054597Y-54793164D01*
X145473624Y-57112418D01*
X146583757Y-59625701D01*
X147349061Y-62267492D01*
X147662820Y-64180091D01*
X147770761Y-64953268D01*
X147894003Y-65358307D01*
X148059903Y-65468634D01*
X148135991Y-65450091D01*
X148541393Y-65336445D01*
X148653877Y-65325000D01*
X148762473Y-65127356D01*
X148758737Y-64587036D01*
X148658861Y-63782960D01*
X148479037Y-62794048D01*
X148235454Y-61699219D01*
X147944305Y-60577393D01*
X147621780Y-59507490D01*
X147284070Y-58568428D01*
X147250999Y-58486977D01*
X146001018Y-55971877D01*
X144436780Y-53754881D01*
X142544076Y-51817318D01*
X141571765Y-51024263D01*
X140728488Y-50336210D01*
X140362231Y-49959831D01*
X142606610Y-49959831D01*
X142748189Y-50117134D01*
X143134322Y-50527633D01*
X143707106Y-51130176D01*
X144408634Y-51863608D01*
X144455541Y-51912511D01*
X145255608Y-52733571D01*
X145835005Y-53283803D01*
X146266023Y-53616066D01*
X146620949Y-53783217D01*
X146972073Y-53838117D01*
X147092405Y-53840608D01*
X148110386Y-54039724D01*
X148967569Y-54578524D01*
X149623614Y-55372600D01*
X150038183Y-56337539D01*
X150170934Y-57388933D01*
X149981528Y-58442371D01*
X149628282Y-59146885D01*
X149294600Y-59767219D01*
X149253483Y-60250079D01*
X149298278Y-60405807D01*
X149425678Y-60874209D01*
X149579101Y-61613222D01*
X149714019Y-62393633D01*
X149887939Y-63480359D01*
X150017136Y-64201191D01*
X150118575Y-64627415D01*
X150209222Y-64830319D01*
X150306043Y-64881188D01*
X150306050Y-64881188D01*
X150563323Y-64777910D01*
X151071001Y-64511989D01*
X151590624Y-64215782D01*
X152959228Y-63167035D01*
X154013389Y-61831134D01*
X154736992Y-60239406D01*
X155113919Y-58423178D01*
X155167211Y-57263261D01*
X154994361Y-55411025D01*
X154493950Y-53802096D01*
X153640401Y-52364945D01*
X153239924Y-51873763D01*
X151920405Y-50687528D01*
X150360190Y-49866318D01*
X148558658Y-49409990D01*
X146515186Y-49318403D01*
X144229154Y-49591414D01*
X143736695Y-49691066D01*
X143110647Y-49830166D01*
X142700269Y-49929563D01*
X142606610Y-49959831D01*
X140362231Y-49959831D01*
X140218900Y-49812539D01*
X140065035Y-49476010D01*
X140066177Y-49468873D01*
X140254224Y-49211512D01*
X140741836Y-48957965D01*
X141562217Y-48697477D01*
X142748572Y-48419289D01*
X144148268Y-48146428D01*
X146228062Y-47765869D01*
X145870302Y-46713883D01*
X145437370Y-45712158D01*
X144832945Y-44840056D01*
X143980667Y-44009970D01*
X142804173Y-43134294D01*
X142672936Y-43045664D01*
X140999096Y-41922886D01*
X140743605Y-42423231D01*
X140578065Y-42798790D01*
X140291741Y-43501050D01*
X139918652Y-44444520D01*
X139492816Y-45543708D01*
X139273492Y-46117766D01*
X138814740Y-47336397D01*
X138502353Y-48209363D01*
X138320606Y-48800232D01*
X138253776Y-49172574D01*
X133781643Y-49172574D01*
X131790744Y-48610626D01*
X128923425Y-48040254D01*
X125686737Y-47600437D01*
X123664237Y-47403240D01*
X122343863Y-47313743D01*
X120720227Y-47241281D01*
X118864268Y-47185890D01*
X116846926Y-47147604D01*
X114739139Y-47126460D01*
X112611846Y-47122492D01*
X110535987Y-47135735D01*
X108582501Y-47166225D01*
X106822327Y-47213997D01*
X105326404Y-47279086D01*
X104165671Y-47361527D01*
X103860847Y-47393414D01*
X99926873Y-47932281D01*
X96395829Y-48581326D01*
X93252607Y-49345178D01*
X90482097Y-50228468D01*
X88069192Y-51235825D01*
X85998784Y-52371879D01*
X84735018Y-53254034D01*
X83270585Y-54609003D01*
X81904899Y-56294650D01*
X80708572Y-58200857D01*
X79752215Y-60217507D01*
X79189890Y-61901522D01*
X79005709Y-62855403D01*
X78861607Y-64105642D01*
X78762064Y-65528055D01*
X78711558Y-66998458D01*
X77188663Y-66998458D01*
X77189936Y-66983503D01*
X77245595Y-66398157D01*
X77327019Y-65566094D01*
X77395927Y-64872944D01*
X77732048Y-62699090D01*
X78284402Y-60543202D01*
X79009188Y-58552324D01*
X79693331Y-57160334D01*
X80263953Y-56285852D01*
X81043249Y-55264051D01*
X81939430Y-54199756D01*
X82860707Y-53197789D01*
X83715290Y-52362976D01*
X84350278Y-51842074D01*
X85061725Y-51341865D01*
X84778697Y-50106041D01*
X84627161Y-49352303D01*
X84447612Y-48320416D01*
X84266965Y-47170362D01*
X84164320Y-46454322D01*
X84026194Y-45477656D01*
X83905362Y-44679163D01*
X83816123Y-44149909D01*
X83775791Y-43979754D01*
X83567886Y-44047689D01*
X83114962Y-44314086D01*
X82515153Y-44710656D01*
X81866592Y-45169111D01*
X81267413Y-45621162D01*
X80815751Y-45998521D01*
X80678196Y-46135274D01*
X80385602Y-46558398D01*
X80020656Y-47211824D01*
X79648002Y-47961655D01*
X79332284Y-48673996D01*
X79138143Y-49214950D01*
X79106610Y-49390511D01*
X79301217Y-49514244D01*
X79812362Y-49671526D01*
X80531035Y-49829057D01*
X80559576Y-49834344D01*
X82012581Y-50143683D01*
X83090862Y-50465511D01*
X83776743Y-50793085D01*
X84052548Y-51119664D01*
X84057457Y-51168533D01*
X83898900Y-51479731D01*
X83477619Y-51965299D01*
X82875199Y-52534433D01*
X82683499Y-52697791D01*
X80799329Y-54544566D01*
X79213545Y-56678287D01*
X77964638Y-59035391D01*
X77091099Y-61552312D01*
X76939196Y-62183928D01*
X76786099Y-62994793D01*
X76643541Y-63948560D01*
X76522790Y-64937405D01*
X76435116Y-65853508D01*
X76391788Y-66589046D01*
X74903509Y-66589046D01*
X75041196Y-66446144D01*
X75101377Y-66300849D01*
X75190523Y-65848159D01*
X75231706Y-65216445D01*
X75232034Y-65159375D01*
X75270194Y-64501634D01*
X75368673Y-63633660D01*
X75465211Y-62993339D01*
X75580906Y-62176417D01*
X75579814Y-61619739D01*
X75450381Y-61155211D01*
X75319734Y-60876986D01*
X75016285Y-59949473D01*
X74944732Y-58928668D01*
X75102497Y-57985194D01*
X75371871Y-57428042D01*
X75956272Y-56785377D01*
X76660881Y-56243895D01*
X77344848Y-55899821D01*
X77714533Y-55827609D01*
X78200604Y-55640743D01*
X78558343Y-55260302D01*
X78861882Y-54856497D01*
X79379881Y-54237486D01*
X80026289Y-53504372D01*
X80416392Y-53077243D01*
X81912178Y-51461492D01*
X80914532Y-51307983D01*
X79165932Y-51145800D01*
X77441338Y-51182084D01*
X75851832Y-51405460D01*
X74508495Y-51804550D01*
X74068110Y-52009171D01*
X73065162Y-52714123D01*
X72079959Y-53707099D01*
X71237531Y-54848321D01*
X70797550Y-55665421D01*
X70495926Y-56395964D01*
X70311552Y-57039027D01*
X70216762Y-57750767D01*
X70183891Y-58687342D01*
X70181881Y-59140652D01*
X68872030Y-59140652D01*
X68931816Y-57737682D01*
X69411833Y-55769694D01*
X70289400Y-53888604D01*
X70393756Y-53716154D01*
X71518181Y-52300511D01*
X72940276Y-51190118D01*
X74627964Y-50406230D01*
X75889407Y-50074640D01*
X76636807Y-49929054D01*
X77221321Y-49811411D01*
X77498874Y-49751227D01*
X77680905Y-49525473D01*
X77917770Y-49002808D01*
X78089693Y-48509190D01*
X78654253Y-47004977D01*
X79350816Y-45809903D01*
X80273513Y-44793079D01*
X81402416Y-43902950D01*
X81699571Y-43685579D01*
X85161503Y-43685579D01*
X85215653Y-44565832D01*
X85309448Y-45484838D01*
X85449169Y-46572304D01*
X85616159Y-47708866D01*
X85791759Y-48775157D01*
X85957313Y-49651814D01*
X86094164Y-50219471D01*
X86104210Y-50250652D01*
X86195924Y-50446136D01*
X86359787Y-50495823D01*
X86691922Y-50381551D01*
X87288449Y-50085157D01*
X87465102Y-49993504D01*
X89201847Y-49216472D01*
X91311903Y-48485702D01*
X93739399Y-47812786D01*
X96428465Y-47209316D01*
X99323231Y-46686886D01*
X102367826Y-46257086D01*
X105506382Y-45931511D01*
X107843051Y-45765269D01*
X110426101Y-45618036D01*
X110292428Y-39182387D01*
X110252900Y-37493203D01*
X110207427Y-35907968D01*
X110158531Y-34491934D01*
X110108736Y-33310350D01*
X110060565Y-32428469D01*
X110016540Y-31911540D01*
X110009416Y-31863261D01*
X109853597Y-30940799D01*
X109727342Y-30373322D01*
X109571595Y-30083537D01*
X109327301Y-29994150D01*
X108935403Y-30027868D01*
X108639549Y-30070335D01*
X108128615Y-30167436D01*
X107280668Y-30359401D01*
X106174601Y-30627014D01*
X104889304Y-30951060D01*
X103503670Y-31312322D01*
X103107457Y-31417795D01*
X101496176Y-31856599D01*
X100210794Y-32229838D01*
X99157747Y-32571373D01*
X98243473Y-32915067D01*
X97374409Y-33294781D01*
X96456991Y-33744375D01*
X95939393Y-34011984D01*
X94606202Y-34725902D01*
X93577549Y-35330069D01*
X92765229Y-35895659D01*
X92081040Y-36493850D01*
X91436777Y-37195814D01*
X90744235Y-38072729D01*
X90496319Y-38404207D01*
X89827200Y-39271689D01*
X89268149Y-39882460D01*
X88692150Y-40348530D01*
X87972188Y-40781906D01*
X87542629Y-41008902D01*
X86515465Y-41558081D01*
X85821714Y-42011767D01*
X85403432Y-42458533D01*
X85202676Y-42986947D01*
X85161503Y-43685579D01*
X81699571Y-43685579D01*
X82290065Y-43253629D01*
X83171844Y-42564196D01*
X83894286Y-41955868D01*
X84064242Y-41800496D01*
X84726252Y-41260333D01*
X85612921Y-40647085D01*
X86558378Y-40073568D01*
X86789319Y-39947038D01*
X87796252Y-39365072D01*
X88497733Y-38839452D01*
X88997171Y-38288215D01*
X89134075Y-38088578D01*
X90065510Y-36796591D01*
X91109503Y-35679154D01*
X92352281Y-34661686D01*
X93880073Y-33669602D01*
X94925446Y-33079317D01*
X95949974Y-32534724D01*
X96838594Y-32095947D01*
X97687863Y-31726322D01*
X98594336Y-31389186D01*
X99654571Y-31047874D01*
X100965125Y-30665722D01*
X102151698Y-30335400D01*
X104081423Y-29808980D01*
X104433317Y-29717133D01*
X110935978Y-29717133D01*
X111057806Y-30458892D01*
X111257835Y-31865678D01*
X111408627Y-33383597D01*
X111514412Y-35088084D01*
X111579421Y-37054571D01*
X111607884Y-39358490D01*
X111610000Y-40305727D01*
X111610000Y-45667609D01*
X114139237Y-45668744D01*
X117253941Y-45713578D01*
X120318794Y-45841187D01*
X123283542Y-46045437D01*
X126097932Y-46320198D01*
X128711708Y-46659338D01*
X131074619Y-47056723D01*
X133136408Y-47506222D01*
X134846824Y-48001703D01*
X135613623Y-48289118D01*
X136232001Y-48540387D01*
X136671330Y-48707793D01*
X136799924Y-48747738D01*
X136910361Y-48556345D01*
X137149541Y-48016795D01*
X137490990Y-47192961D01*
X137908234Y-46148713D01*
X138373814Y-44950493D01*
X139834900Y-41141203D01*
X137184738Y-38473119D01*
X136400088Y-37684997D01*
X135731171Y-37032792D01*
X135125060Y-36486823D01*
X134528831Y-36017410D01*
X133889556Y-35594871D01*
X133154310Y-35189525D01*
X132270167Y-34771691D01*
X131184201Y-34311687D01*
X129843487Y-33779833D01*
X128195098Y-33146448D01*
X126612285Y-32544024D01*
X124793318Y-31857446D01*
X123291386Y-31311441D01*
X122021884Y-30887537D01*
X120900210Y-30567263D01*
X119841759Y-30332149D01*
X118761929Y-30163725D01*
X117576115Y-30043519D01*
X116199715Y-29953061D01*
X114548125Y-29873881D01*
X114340362Y-29864821D01*
X110935978Y-29717133D01*
X104433317Y-29717133D01*
X105679013Y-29391998D01*
X107026636Y-29073843D01*
X108206464Y-28843903D01*
X109300665Y-28691567D01*
X110391410Y-28606225D01*
X111560868Y-28577263D01*
X112891209Y-28594073D01*
%TA.AperFunction,EtchedComponent*%
G36*
X112891209Y-28594073D02*
G01*
X114464604Y-28646041D01*
X115054068Y-28669214D01*
X116598281Y-28742909D01*
X118041290Y-28833873D01*
X119305184Y-28935656D01*
X120312055Y-29041805D01*
X120983993Y-29145867D01*
X121081186Y-29168367D01*
X121585498Y-29324722D01*
X122421174Y-29613789D01*
X123520606Y-30009827D01*
X124816187Y-30487092D01*
X126240309Y-31019843D01*
X127725366Y-31582339D01*
X129203749Y-32148836D01*
X130607852Y-32693594D01*
X131870067Y-33190871D01*
X132922787Y-33614923D01*
X133698404Y-33940010D01*
X134104068Y-34126910D01*
X134722957Y-34495015D01*
X135420441Y-35005730D01*
X136246666Y-35701886D01*
X137251780Y-36626313D01*
X138485929Y-37821844D01*
X138839661Y-38171608D01*
X139848590Y-39129842D01*
X140938008Y-40093858D01*
X141989342Y-40962838D01*
X142884017Y-41635965D01*
X143037118Y-41740485D01*
X144352700Y-42671664D01*
X145343523Y-43517045D01*
X146082683Y-44359588D01*
X146643277Y-45282253D01*
X147087435Y-46337410D01*
X147670463Y-47958100D01*
X149178406Y-48218808D01*
X151075768Y-48748012D01*
X152720533Y-49630947D01*
X154099956Y-50858008D01*
X155201294Y-52419588D01*
X155485539Y-52972813D01*
X156148014Y-54811995D01*
X156454690Y-56726464D01*
X156413229Y-58639598D01*
X156031294Y-60474773D01*
X155316546Y-62155368D01*
X154440932Y-63419311D01*
X154041550Y-63937411D01*
X153814636Y-64425534D01*
X153702151Y-65054778D01*
X153657682Y-65728362D01*
X153572917Y-66656968D01*
X153423797Y-67550924D01*
X153283351Y-68085869D01*
X153171417Y-68597331D01*
X153053180Y-69453629D01*
X152936592Y-70558103D01*
X152829605Y-71814094D01*
X152740171Y-73124939D01*
X152676242Y-74393980D01*
X152645768Y-75524556D01*
X152644415Y-75852670D01*
X152856266Y-76659830D01*
X153327782Y-77347590D01*
X153695837Y-77812095D01*
X153962351Y-78268394D01*
X154143469Y-78797909D01*
X154255334Y-79482061D01*
X154314090Y-80402273D01*
X154335883Y-81639967D01*
X154337966Y-82442391D01*
X154307789Y-84070430D01*
X154196614Y-85406289D01*
X153973478Y-86596537D01*
X153607416Y-87787741D01*
X153067464Y-89126466D01*
X152798129Y-89731087D01*
X152524928Y-90441899D01*
X152369081Y-91179423D01*
X152303089Y-92107140D01*
X152295153Y-92721376D01*
X152293051Y-94607318D01*
X153530762Y-95350223D01*
X156333757Y-97187325D01*
X157997288Y-98458355D01*
X158619146Y-98919119D01*
X159158362Y-99237579D01*
X159457827Y-99337800D01*
X160088278Y-99153467D01*
X160770165Y-98583889D01*
X161525181Y-97609521D01*
X161740127Y-97281206D01*
X162331089Y-96446967D01*
X163060859Y-95556818D01*
X163855891Y-94685671D01*
X164607167Y-93943478D01*
X166715084Y-93943478D01*
X166798512Y-94186360D01*
X167092841Y-94233267D01*
X167664145Y-94081940D01*
X168170845Y-93893687D01*
X168818839Y-93683696D01*
X169203705Y-93686294D01*
X169351177Y-93783252D01*
X169482178Y-94026324D01*
X169333758Y-94261056D01*
X168857600Y-94529464D01*
X168168051Y-94812051D01*
X167479093Y-95141806D01*
X167172040Y-95471856D01*
X167145593Y-95614137D01*
X167159834Y-95859659D01*
X167250530Y-95974933D01*
X167489638Y-95945546D01*
X167949119Y-95757085D01*
X168700931Y-95395137D01*
X169017111Y-95239279D01*
X170095869Y-94626349D01*
X170750928Y-94059553D01*
X170986225Y-93534083D01*
X170810205Y-93050671D01*
X170416063Y-92815522D01*
X169840187Y-92712984D01*
X169817989Y-92712826D01*
X169186247Y-92788643D01*
X168447043Y-92984931D01*
X167718233Y-93254948D01*
X167117672Y-93551950D01*
X166763217Y-93829193D01*
X166715084Y-93943478D01*
X164607167Y-93943478D01*
X164642636Y-93908438D01*
X165347548Y-93300030D01*
X165897078Y-92935359D01*
X166069322Y-92871709D01*
X166564631Y-92733838D01*
X167279904Y-92496717D01*
X167839792Y-92293799D01*
X169181321Y-91905189D01*
X170255718Y-91854132D01*
X171073822Y-92140869D01*
X171352835Y-92371482D01*
X171796530Y-93064920D01*
X171820241Y-93788471D01*
X171432305Y-94527759D01*
X170641058Y-95268412D01*
X169454837Y-95996055D01*
X169166860Y-96140739D01*
X168340184Y-96550045D01*
X167736201Y-96882987D01*
X167233297Y-97226545D01*
X166709853Y-97667698D01*
X166044255Y-98293427D01*
X165720874Y-98605310D01*
X164932770Y-99481240D01*
X164390517Y-100405173D01*
X164119006Y-101085642D01*
X163555202Y-102288736D01*
X162825481Y-103259791D01*
X161990041Y-103954403D01*
X161109077Y-104328165D01*
X160242789Y-104336672D01*
X159880128Y-104212487D01*
X159415716Y-104052229D01*
X158652873Y-103848600D01*
X157717358Y-103633635D01*
X157154796Y-103518261D01*
X155787020Y-103191262D01*
X154558398Y-102786023D01*
X153773359Y-102434625D01*
X153114070Y-102093136D01*
X152612363Y-101852873D01*
X152386703Y-101768478D01*
X152330092Y-101967596D01*
X152308287Y-102481739D01*
X152316243Y-103186086D01*
X152348915Y-103955821D01*
X152401258Y-104666124D01*
X152468229Y-105192176D01*
X152533549Y-105401918D01*
X152785768Y-105506962D01*
X153363085Y-105684179D01*
X154171216Y-105905974D01*
X154841142Y-106077301D01*
X156748830Y-106624359D01*
X158292164Y-107223957D01*
X159450261Y-107866244D01*
X160202236Y-108541373D01*
X160275428Y-108640124D01*
X160566194Y-109139877D01*
X160725623Y-109684136D01*
X160788948Y-110429493D01*
X160795593Y-110951886D01*
X160768883Y-111862170D01*
X160658155Y-112519176D01*
X160417509Y-113109630D01*
X160149830Y-113578974D01*
X159317209Y-114594458D01*
X158308229Y-115219935D01*
X157152992Y-115453027D01*
X155881602Y-115291352D01*
X154524161Y-114732531D01*
X153536261Y-114101873D01*
X152873455Y-113617602D01*
X153012135Y-115478692D01*
X153348975Y-120991727D01*
X153524126Y-126286026D01*
X153534906Y-131274367D01*
X153521420Y-132027609D01*
X153333380Y-136479596D01*
X152958143Y-140553681D01*
X152388871Y-144273066D01*
X151618727Y-147660954D01*
X150640872Y-150740548D01*
X149448469Y-153535050D01*
X148034680Y-156067662D01*
X146392666Y-158361588D01*
X145428945Y-159486967D01*
X144912299Y-160070767D01*
X144659541Y-160425654D01*
X144633008Y-160637982D01*
X144795034Y-160794107D01*
X144845227Y-160825268D01*
X146112717Y-161741414D01*
X147328507Y-162896913D01*
X148421895Y-164200196D01*
X149322179Y-165559691D01*
X149958657Y-166883830D01*
X150217511Y-167783169D01*
X150233390Y-168962062D01*
X149876372Y-170076707D01*
X149204057Y-171065334D01*
X148274049Y-171866173D01*
X147143952Y-172417456D01*
X145871368Y-172657412D01*
X145667069Y-172662758D01*
X144580819Y-172574519D01*
X143683671Y-172257944D01*
X142856455Y-171650865D01*
X142048899Y-170775260D01*
X141043997Y-169570958D01*
X140244867Y-168652245D01*
X139591695Y-167957049D01*
X139024669Y-167423295D01*
X138483977Y-166988908D01*
X138215571Y-166797012D01*
X137160973Y-166067503D01*
X136170656Y-166577212D01*
X133949914Y-167590600D01*
X131385894Y-168533682D01*
X128563598Y-169381056D01*
X125568027Y-170107322D01*
X122484182Y-170687078D01*
X122341624Y-170709801D01*
X121316864Y-170862237D01*
X120351597Y-170980704D01*
X119367699Y-171069482D01*
X118287045Y-171132851D01*
X117031511Y-171175090D01*
X115522973Y-171200480D01*
X113683307Y-171213300D01*
X113116779Y-171215169D01*
X110218181Y-171194092D01*
X107664309Y-171106215D01*
X105372763Y-170940006D01*
X103261144Y-170683933D01*
X101247052Y-170326464D01*
X99248087Y-169856066D01*
X97181850Y-169261207D01*
X95682906Y-168775207D01*
X92778693Y-167797924D01*
X91377821Y-168241407D01*
X89956798Y-168790857D01*
X88618875Y-169535955D01*
X87249597Y-170547105D01*
X86317627Y-171353968D01*
X85573399Y-171995666D01*
X84870460Y-172544969D01*
X84321912Y-172915544D01*
X84165084Y-172996987D01*
X83311729Y-173272609D01*
X82412706Y-173422985D01*
X81669163Y-173416729D01*
X81582034Y-173400012D01*
X80405825Y-173047359D01*
X79477679Y-172551457D01*
X78775386Y-171973528D01*
X77936604Y-170936095D01*
X77505749Y-169810434D01*
X77501236Y-169414843D01*
X78719700Y-169414843D01*
X78958077Y-170178988D01*
X78982259Y-170224792D01*
X79152547Y-170509845D01*
X79293855Y-170560438D01*
X79476257Y-170326490D01*
X79769825Y-169757919D01*
X79843191Y-169609471D01*
X80345497Y-168726147D01*
X80926384Y-167909004D01*
X81512114Y-167243933D01*
X82028946Y-166816826D01*
X82337441Y-166704130D01*
X82752700Y-166839562D01*
X82845492Y-167210121D01*
X82619167Y-167762205D01*
X82239845Y-168265617D01*
X81424447Y-169372247D01*
X80773009Y-170600963D01*
X80521784Y-171277775D01*
X80485616Y-171630200D01*
X80716666Y-171845220D01*
X81086113Y-171975681D01*
X81824372Y-172160291D01*
X82394834Y-172184776D01*
X83029360Y-172053224D01*
X83171149Y-172012443D01*
X83665854Y-171767453D01*
X84346884Y-171302490D01*
X85090834Y-170704389D01*
X85322270Y-170498841D01*
X86656437Y-169367787D01*
X87972092Y-168410602D01*
X89177139Y-167690236D01*
X89923135Y-167354082D01*
X90432140Y-167135565D01*
X90711816Y-166954726D01*
X90730339Y-166918385D01*
X90551853Y-166757616D01*
X90090319Y-166485699D01*
X89616346Y-166244929D01*
X88938376Y-165878284D01*
X88055884Y-165344273D01*
X87114427Y-164732630D01*
X86678648Y-164433846D01*
X85844430Y-163859073D01*
X85271447Y-163502634D01*
X84869642Y-163327515D01*
X84548954Y-163296703D01*
X84219326Y-163373182D01*
X84152161Y-163395463D01*
X83475909Y-163717513D01*
X82614899Y-164254988D01*
X81693540Y-164915911D01*
X80836244Y-165608305D01*
X80167420Y-166240192D01*
X79937714Y-166511220D01*
X79193831Y-167641927D01*
X78793055Y-168589479D01*
X78719700Y-169414843D01*
X77501236Y-169414843D01*
X77492244Y-168626684D01*
X77592192Y-168189278D01*
X78186639Y-166838042D01*
X79151283Y-165499656D01*
X80428695Y-164238013D01*
X81961448Y-163117001D01*
X82375896Y-162867311D01*
X83618148Y-162148980D01*
X82630368Y-161168729D01*
X81084812Y-159448879D01*
X79625621Y-157472306D01*
X78315455Y-155345763D01*
X77216970Y-153176009D01*
X76392825Y-151069798D01*
X76091836Y-150028478D01*
X75931061Y-149348313D01*
X75792256Y-148669213D01*
X75674276Y-147956121D01*
X75575970Y-147173977D01*
X75496193Y-146287723D01*
X75433797Y-145262301D01*
X75387634Y-144062652D01*
X75356556Y-142653718D01*
X75343121Y-141357753D01*
X76575093Y-141357753D01*
X76576673Y-142724865D01*
X76586602Y-143724371D01*
X76598470Y-144175435D01*
X76894941Y-147372642D01*
X77528399Y-150313504D01*
X78515787Y-153037128D01*
X79874050Y-155582620D01*
X81620129Y-157989088D01*
X83444791Y-159977216D01*
X86115100Y-162316026D01*
X89099156Y-164352657D01*
X92396519Y-166086926D01*
X96006750Y-167518651D01*
X99929407Y-168647648D01*
X104164052Y-169473737D01*
X107304915Y-169870788D01*
X108099236Y-169922076D01*
X109231194Y-169956870D01*
X110608242Y-169975800D01*
X112137831Y-169979492D01*
X113727413Y-169968574D01*
X115284442Y-169943675D01*
X116716368Y-169905421D01*
X117930644Y-169854441D01*
X118821017Y-169792670D01*
X123202195Y-169229556D01*
X127253770Y-168397587D01*
X130992489Y-167290268D01*
X134435099Y-165901105D01*
X135405468Y-165386509D01*
X138522884Y-165386509D01*
X138684164Y-165566024D01*
X139086785Y-165849409D01*
X139151071Y-165889000D01*
X139558379Y-166212519D01*
X140155666Y-166781436D01*
X140852212Y-167506219D01*
X141357426Y-168066517D01*
X142333497Y-169181834D01*
X143068898Y-170013784D01*
X143615957Y-170602651D01*
X144027003Y-170988717D01*
X144354364Y-171212264D01*
X144650368Y-171313575D01*
X144967343Y-171332933D01*
X145357617Y-171310620D01*
X145555885Y-171298517D01*
X146804068Y-171231956D01*
X146765412Y-170314949D01*
X146540637Y-169211960D01*
X145983848Y-168010238D01*
X145360212Y-167088245D01*
X145061904Y-166657540D01*
X145030909Y-166387299D01*
X145228395Y-166127988D01*
X145594544Y-165898895D01*
X146018811Y-166024022D01*
X146452202Y-166424139D01*
X146939705Y-167121909D01*
X147408504Y-167992881D01*
X147785782Y-168912607D01*
X147875284Y-169196873D01*
X148076879Y-169760591D01*
X148271298Y-170091314D01*
X148334606Y-170127609D01*
X148514550Y-169938671D01*
X148742839Y-169462809D01*
X148833841Y-169214243D01*
X149009103Y-168583229D01*
X149008078Y-168078206D01*
X148823705Y-167456788D01*
X148779159Y-167336851D01*
X148210366Y-166200298D01*
X147363955Y-164974909D01*
X146342578Y-163778936D01*
X145248891Y-162730626D01*
X144185546Y-161948228D01*
X144016934Y-161851134D01*
X143740882Y-161742108D01*
X143455815Y-161775403D01*
X143069939Y-161993821D01*
X142491463Y-162440162D01*
X142150064Y-162721617D01*
X141317607Y-163382837D01*
X140432452Y-164037584D01*
X139680417Y-164548621D01*
X139652969Y-164565860D01*
X139061173Y-164952973D01*
X138651678Y-165253615D01*
X138522884Y-165386509D01*
X135405468Y-165386509D01*
X137598349Y-164223604D01*
X140498987Y-162251271D01*
X142450646Y-160630217D01*
X144745188Y-158299432D01*
X146692055Y-155745514D01*
X148304643Y-152944314D01*
X149596347Y-149871679D01*
X150580560Y-146503460D01*
X150780412Y-145611087D01*
X151197807Y-143483247D01*
X151546252Y-141352506D01*
X151826678Y-139178182D01*
X152040018Y-136919591D01*
X152187201Y-134536051D01*
X152269160Y-131986877D01*
X152286824Y-129231388D01*
X152241127Y-126228900D01*
X152132997Y-122938729D01*
X151963367Y-119320194D01*
X151733169Y-115332611D01*
X151541216Y-112370217D01*
X151433681Y-110692810D01*
X151326051Y-108877216D01*
X151226790Y-107075858D01*
X151215213Y-106846246D01*
X152532317Y-106846246D01*
X152759955Y-111597174D01*
X153656587Y-112456244D01*
X154768650Y-113345803D01*
X155875755Y-113905664D01*
X156921619Y-114122222D01*
X157849961Y-113981874D01*
X158455915Y-113616208D01*
X159046176Y-113095242D01*
X158091223Y-112405322D01*
X157347887Y-111858617D01*
X156899752Y-111494164D01*
X156683924Y-111249011D01*
X156637512Y-111060206D01*
X156657288Y-110970031D01*
X156942535Y-110696167D01*
X157470190Y-110675333D01*
X158136234Y-110898301D01*
X158548004Y-111137761D01*
X159067059Y-111475306D01*
X159423675Y-111679675D01*
X159499452Y-111707609D01*
X159595328Y-111517019D01*
X159612561Y-111047391D01*
X159561274Y-110451932D01*
X159451585Y-109883851D01*
X159361474Y-109618807D01*
X158925967Y-109103671D01*
X158085881Y-108577687D01*
X156866633Y-108051597D01*
X155293637Y-107536142D01*
X153392310Y-107042064D01*
X153112260Y-106977677D01*
X152532317Y-106846246D01*
X151215213Y-106846246D01*
X151144363Y-105441155D01*
X151096389Y-104359749D01*
X150955839Y-100877107D01*
X149418089Y-99970538D01*
X147805094Y-99005088D01*
X146539063Y-98212561D01*
X145582551Y-97567008D01*
X144898109Y-97042478D01*
X144448292Y-96613021D01*
X144296489Y-96421274D01*
X143935794Y-95725599D01*
X143754291Y-94893070D01*
X143752495Y-93859555D01*
X143930921Y-92560919D01*
X144290084Y-90933029D01*
X144342192Y-90725000D01*
X144807354Y-88610963D01*
X145040965Y-86852297D01*
X145043631Y-85432367D01*
X144815958Y-84334539D01*
X144592207Y-83861061D01*
X144228675Y-83078777D01*
X143874180Y-82010197D01*
X143567572Y-80809702D01*
X143347698Y-79631677D01*
X143253409Y-78630504D01*
X143252373Y-78536707D01*
X143252373Y-77733491D01*
X144549160Y-77733491D01*
X144603495Y-79234513D01*
X144784851Y-80501580D01*
X145135223Y-81733683D01*
X145680077Y-83092259D01*
X146096221Y-84232722D01*
X146323243Y-85387210D01*
X146360895Y-86641881D01*
X146208928Y-88082896D01*
X145867094Y-89796413D01*
X145658255Y-90651888D01*
X145292640Y-92168438D01*
X145068077Y-93335628D01*
X144984768Y-94221525D01*
X145042914Y-94894198D01*
X145242718Y-95421713D01*
X145584380Y-95872139D01*
X145673983Y-95963121D01*
X146075923Y-96281662D01*
X146785415Y-96768063D01*
X147731596Y-97379542D01*
X148843607Y-98073319D01*
X150050585Y-98806614D01*
X151281671Y-99536647D01*
X152466002Y-100220636D01*
X153532717Y-100815802D01*
X154410956Y-101279364D01*
X154768474Y-101453665D01*
X155493840Y-101729719D01*
X156465337Y-102017670D01*
X157503090Y-102265701D01*
X157775599Y-102319914D01*
X158671613Y-102503405D01*
X159427945Y-102684532D01*
X159927711Y-102834208D01*
X160035768Y-102882341D01*
X160615071Y-103071764D01*
X161211968Y-102903490D01*
X161810561Y-102454023D01*
X162383294Y-101745990D01*
X162855065Y-100814363D01*
X162921732Y-100631849D01*
X163697575Y-98934502D01*
X164748675Y-97569935D01*
X166009674Y-96581933D01*
X166030072Y-96350717D01*
X165903795Y-95908816D01*
X165699508Y-95424361D01*
X165485874Y-95065483D01*
X165355945Y-94981212D01*
X165091603Y-95198494D01*
X164622656Y-95710478D01*
X163999520Y-96455974D01*
X163272609Y-97373788D01*
X162492339Y-98402729D01*
X162123220Y-98904976D01*
X161219442Y-99898466D01*
X160268852Y-100464004D01*
X159282404Y-100595704D01*
X159039604Y-100561732D01*
X158528932Y-100354672D01*
X157812379Y-99923177D01*
X157004088Y-99338286D01*
X156760418Y-99143233D01*
X155808797Y-98409581D01*
X154725827Y-97644848D01*
X153722981Y-96997413D01*
X153584576Y-96914907D01*
X152169672Y-96016023D01*
X151147768Y-95182866D01*
X150497948Y-94359718D01*
X150199293Y-93490859D01*
X150230886Y-92520569D01*
X150571809Y-91393130D01*
X151089581Y-90268842D01*
X152078728Y-88112498D01*
X152746789Y-86116828D01*
X153116581Y-84176771D01*
X153210922Y-82187271D01*
X153137339Y-80840192D01*
X153036277Y-79885553D01*
X152904578Y-79223745D01*
X152692872Y-78706279D01*
X152351789Y-78184667D01*
X152177798Y-77954236D01*
X151382800Y-76920652D01*
X151515808Y-73773261D01*
X151555336Y-72652081D01*
X151573686Y-71707108D01*
X151570510Y-71016517D01*
X151545463Y-70658483D01*
X151529735Y-70625869D01*
X151277314Y-70718029D01*
X150811361Y-70944542D01*
X150721768Y-70991580D01*
X149927604Y-71334831D01*
X148962238Y-71643965D01*
X148014807Y-71866114D01*
X147298462Y-71948465D01*
X146903345Y-72023790D01*
X146604673Y-72314760D01*
X146296594Y-72925335D01*
X146291283Y-72937637D01*
X145898503Y-73736488D01*
X145405584Y-74596863D01*
X145204939Y-74910041D01*
X144874463Y-75440199D01*
X144677570Y-75908773D01*
X144580657Y-76460443D01*
X144550120Y-77239889D01*
X144549160Y-77733491D01*
X143252373Y-77733491D01*
X143252373Y-77462554D01*
X142132273Y-78371039D01*
X140192516Y-79688336D01*
X138024727Y-80711584D01*
X135759018Y-81384720D01*
X134731233Y-81559883D01*
X133744522Y-81610710D01*
X132471451Y-81566917D01*
X131042806Y-81443100D01*
X129589372Y-81253851D01*
X128241933Y-81013766D01*
X127131273Y-80737438D01*
X127005446Y-80697775D01*
X126042963Y-80323388D01*
X125078249Y-79849938D01*
X124338223Y-79392109D01*
X123276854Y-78609700D01*
X123046230Y-79549485D01*
X122603760Y-80731935D01*
X121919508Y-81565130D01*
X120949138Y-82089771D01*
X120051231Y-82298893D01*
X119073659Y-82442391D01*
X119123502Y-85350666D01*
X119126926Y-86799098D01*
X119066201Y-87883530D01*
X118919954Y-88679513D01*
X118666813Y-89262602D01*
X118285405Y-89708347D01*
X117788109Y-90071333D01*
X116817113Y-90443920D01*
X115716417Y-90500519D01*
X114651712Y-90246488D01*
X114106342Y-89952262D01*
X113313794Y-89400395D01*
X112677754Y-89882907D01*
X111864149Y-90280383D01*
X110861656Y-90463364D01*
X109843979Y-90422606D01*
X108984822Y-90148869D01*
X108877204Y-90085115D01*
X108321027Y-89686128D01*
X107926513Y-89266875D01*
X107668948Y-88746237D01*
X107523617Y-88043094D01*
X107466075Y-87080841D01*
X108669544Y-87080841D01*
X108720529Y-87673882D01*
X108831631Y-88100348D01*
X108908789Y-88274535D01*
X109204969Y-88761440D01*
X109559387Y-89025620D01*
X110110715Y-89137158D01*
X110663737Y-89161476D01*
X111446885Y-89065450D01*
X112060809Y-88689114D01*
X112116703Y-88637285D01*
X112509904Y-88263373D01*
X113977796Y-88263373D01*
X114544961Y-88721143D01*
X115302726Y-89102415D01*
X116156732Y-89187182D01*
X116951343Y-88979559D01*
X117404689Y-88645497D01*
X117609790Y-88392100D01*
X117746596Y-88104886D01*
X117827631Y-87695715D01*
X117865417Y-87076445D01*
X117872478Y-86158936D01*
X117866830Y-85392671D01*
X117844811Y-84339513D01*
X117803929Y-83453389D01*
X117749911Y-82824234D01*
X117688486Y-82541985D01*
X117685042Y-82538344D01*
X117418563Y-82404910D01*
X116866465Y-82178311D01*
X116151861Y-81904095D01*
X115397864Y-81627808D01*
X114727588Y-81394998D01*
X114264146Y-81251210D01*
X114139237Y-81226545D01*
X114084610Y-81435428D01*
X114037889Y-82011908D01*
X114002473Y-82881869D01*
X113981763Y-83971191D01*
X113977796Y-84745491D01*
X113977796Y-88263373D01*
X112509904Y-88263373D01*
X112686271Y-88095658D01*
X112686271Y-84745491D01*
X112686271Y-80998323D01*
X112094322Y-81141927D01*
X111583953Y-81304068D01*
X110853124Y-81581013D01*
X110186581Y-81858658D01*
X108870790Y-82431784D01*
X108727611Y-85031360D01*
X108673598Y-86230307D01*
X108669544Y-87080841D01*
X107466075Y-87080841D01*
X107465805Y-87076326D01*
X107470796Y-85764813D01*
X107476423Y-85487432D01*
X107540305Y-82552826D01*
X106447052Y-82552826D01*
X105110793Y-82388569D01*
X104055414Y-81891291D01*
X103271561Y-81054228D01*
X102753367Y-79882605D01*
X102519424Y-79081401D01*
X103933879Y-79081401D01*
X104071251Y-79776875D01*
X104363059Y-80457870D01*
X104769062Y-80893201D01*
X105373686Y-81123067D01*
X106261355Y-81187670D01*
X106982034Y-81162862D01*
X108171183Y-81040357D01*
X109148541Y-80793851D01*
X109995593Y-80436973D01*
X111458878Y-79886407D01*
X112898318Y-79699319D01*
X114409627Y-79873898D01*
X115875955Y-80325609D01*
X117380005Y-80786643D01*
X118771717Y-80998968D01*
X119972277Y-80956989D01*
X120858692Y-80679276D01*
X121427249Y-80148346D01*
X121787207Y-79342325D01*
X121888803Y-78396695D01*
X121843737Y-77997426D01*
X121511326Y-77160268D01*
X120878915Y-76317753D01*
X120058482Y-75592719D01*
X119234640Y-75135340D01*
X118635290Y-74920527D01*
X118279347Y-74879176D01*
X118015306Y-75008872D01*
X117895122Y-75113999D01*
X117228036Y-75569263D01*
X116276074Y-76010973D01*
X115182706Y-76381335D01*
X114188115Y-76607259D01*
X112794113Y-76696769D01*
X111330480Y-76550064D01*
X109924347Y-76197084D01*
X108702847Y-75667770D01*
X107942871Y-75136451D01*
X107687226Y-74989665D01*
X107343333Y-75015815D01*
X106787614Y-75233570D01*
X106542152Y-75348056D01*
X105384738Y-76074690D01*
X104543396Y-76976453D01*
X104049363Y-77997354D01*
X103933879Y-79081401D01*
X102519424Y-79081401D01*
X102507087Y-79039151D01*
X101623374Y-79815373D01*
X100131733Y-80908771D01*
X98442069Y-81725000D01*
X96508534Y-82278093D01*
X94285282Y-82582082D01*
X92344745Y-82655238D01*
X90807845Y-82634015D01*
X89582478Y-82545396D01*
X88551794Y-82365782D01*
X87598939Y-82071574D01*
X86607061Y-81639176D01*
X86130576Y-81400305D01*
X85583961Y-81176929D01*
X85194003Y-81122826D01*
X85116958Y-81156469D01*
X84973984Y-81453040D01*
X84776124Y-82048056D01*
X84575910Y-82775669D01*
X84420566Y-83496041D01*
X84331565Y-84221115D01*
X84303437Y-85069337D01*
X84330713Y-86159153D01*
X84377101Y-87080652D01*
X84458282Y-88609941D01*
X84494401Y-89783496D01*
X84467059Y-90686476D01*
X84357856Y-91404038D01*
X84148392Y-92021340D01*
X83820269Y-92623540D01*
X83355085Y-93295796D01*
X82903921Y-93898862D01*
X82327672Y-94570155D01*
X81534764Y-95372117D01*
X80616125Y-96225144D01*
X79662684Y-97049630D01*
X78765369Y-97765972D01*
X78015107Y-98294564D01*
X77647672Y-98500540D01*
X76726871Y-98923265D01*
X76868232Y-101174133D01*
X76912321Y-101937846D01*
X76948870Y-102728030D01*
X76977737Y-103577243D01*
X76998785Y-104518041D01*
X77011873Y-105582981D01*
X77016863Y-106804618D01*
X77013614Y-108215511D01*
X77001987Y-109848215D01*
X76981844Y-111735287D01*
X76953044Y-113909284D01*
X76915447Y-116402763D01*
X76868916Y-119248279D01*
X76813310Y-122478391D01*
X76765428Y-125180652D01*
X76719359Y-127892457D01*
X76678940Y-130543793D01*
X76644557Y-133090783D01*
X76616595Y-135489551D01*
X76595440Y-137696220D01*
X76581478Y-139666913D01*
X76575093Y-141357753D01*
X75343121Y-141357753D01*
X75339416Y-141000440D01*
X75335066Y-139067759D01*
X75342358Y-136820618D01*
X75360146Y-134223957D01*
X75387281Y-131242718D01*
X75408606Y-129156304D01*
X75434959Y-126613574D01*
X75459173Y-124203296D01*
X75480937Y-121961379D01*
X75499938Y-119923730D01*
X75515864Y-118126258D01*
X75528404Y-116604868D01*
X75537244Y-115395471D01*
X75542073Y-114533972D01*
X75542578Y-114056280D01*
X75540618Y-113968670D01*
X75374094Y-114059182D01*
X74978036Y-114354273D01*
X74673181Y-114598357D01*
X73213845Y-115619131D01*
X71828306Y-116239335D01*
X70536449Y-116453364D01*
X69358161Y-116255614D01*
X69127405Y-116161425D01*
X68198089Y-115529744D01*
X67477179Y-114628562D01*
X66982344Y-113549383D01*
X66731247Y-112383714D01*
X66733451Y-112135533D01*
X67915776Y-112135533D01*
X67996871Y-112588693D01*
X68038088Y-112645415D01*
X68269571Y-112604355D01*
X68731588Y-112362214D01*
X69114974Y-112113979D01*
X69912588Y-111661304D01*
X70483228Y-111559252D01*
X70813422Y-111808308D01*
X70882242Y-112050464D01*
X70791438Y-112436920D01*
X70363970Y-112823976D01*
X70103013Y-112984903D01*
X69514583Y-113366216D01*
X69061111Y-113732716D01*
X68970817Y-113829167D01*
X68822745Y-114109664D01*
X68941465Y-114387010D01*
X69277727Y-114714645D01*
X69948728Y-115124672D01*
X70707615Y-115199017D01*
X71640197Y-114940139D01*
X71979148Y-114792068D01*
X72615359Y-114431557D01*
X73413739Y-113890316D01*
X74212637Y-113278705D01*
X74293131Y-113212266D01*
X75662542Y-112072217D01*
X75662542Y-107723540D01*
X75070593Y-107856898D01*
X73006047Y-108356827D01*
X71344055Y-108839232D01*
X70057584Y-109315509D01*
X69119603Y-109797054D01*
X68503080Y-110295261D01*
X68207635Y-110749950D01*
X67990711Y-111470294D01*
X67915776Y-112135533D01*
X66733451Y-112135533D01*
X66741556Y-111223060D01*
X67030937Y-110158924D01*
X67617057Y-109282814D01*
X67771480Y-109138176D01*
X68756836Y-108483284D01*
X70148858Y-107861297D01*
X71924361Y-107280681D01*
X74060161Y-106749902D01*
X74656019Y-106624287D01*
X75909666Y-106368632D01*
X75779907Y-104123772D01*
X75709664Y-102979128D01*
X75631762Y-101820158D01*
X75558962Y-100833169D01*
X75531585Y-100498478D01*
X75413022Y-99118043D01*
X74700932Y-99118043D01*
X74153539Y-99212771D01*
X73386290Y-99461879D01*
X72559645Y-99812753D01*
X72511710Y-99835869D01*
X71034576Y-100553696D01*
X67267627Y-100565264D01*
X65883158Y-100573421D01*
X64839416Y-100595040D01*
X64046632Y-100640446D01*
X63415033Y-100719965D01*
X62854851Y-100843921D01*
X62276314Y-101022640D01*
X61784421Y-101195921D01*
X60542541Y-101573855D01*
X59498437Y-101699699D01*
X58493762Y-101569561D01*
X57370164Y-101179551D01*
X57144118Y-101081915D01*
X56189878Y-100494468D01*
X55162744Y-99580892D01*
X54135063Y-98430902D01*
X53179179Y-97134211D01*
X52367440Y-95780533D01*
X51772191Y-94459580D01*
X51746989Y-94389144D01*
X51578576Y-93785617D01*
X51584061Y-93717046D01*
X52845593Y-93717046D01*
X52958045Y-94065868D01*
X53256919Y-94676129D01*
X53684493Y-95445432D01*
X54183044Y-96271380D01*
X54694852Y-97051576D01*
X54848115Y-97269442D01*
X55958458Y-98618220D01*
X57077284Y-99567088D01*
X58172698Y-100128134D01*
X58897952Y-100345554D01*
X59565745Y-100406842D01*
X60308792Y-100302407D01*
X61259811Y-100022658D01*
X61687128Y-99874166D01*
X62310792Y-99664029D01*
X62880472Y-99511416D01*
X63485427Y-99406225D01*
X64214916Y-99338350D01*
X65158199Y-99297685D01*
X66404536Y-99274127D01*
X67052373Y-99266775D01*
X68419432Y-99250113D01*
X69436333Y-99224991D01*
X70183424Y-99180856D01*
X70741050Y-99107152D01*
X71189557Y-98993325D01*
X71609292Y-98828821D01*
X72071898Y-98607401D01*
X73135021Y-98188659D01*
X74437857Y-97841477D01*
X75253028Y-97690712D01*
X76228939Y-97523733D01*
X76924830Y-97340541D01*
X77489138Y-97081853D01*
X78070301Y-96688384D01*
X78398627Y-96434398D01*
X79623555Y-95391731D01*
X80777021Y-94269837D01*
X81776190Y-93157878D01*
X82538225Y-92145015D01*
X82818716Y-91676815D01*
X83104872Y-91111950D01*
X83264737Y-90665647D01*
X83315130Y-90195649D01*
X83272869Y-89559702D01*
X83168384Y-88719264D01*
X83031146Y-87016310D01*
X83036566Y-85231081D01*
X83176140Y-83513607D01*
X83441365Y-82013915D01*
X83576260Y-81522911D01*
X84000657Y-80161691D01*
X83035803Y-79424650D01*
X82162741Y-78641981D01*
X81210176Y-77601616D01*
X80290568Y-76441251D01*
X79516377Y-75298583D01*
X79182697Y-74706855D01*
X78602809Y-73570392D01*
X76971235Y-73239873D01*
X76142228Y-73060988D01*
X75452158Y-72892280D01*
X75033239Y-72766422D01*
X75001811Y-72753189D01*
X74779608Y-72747083D01*
X74603557Y-73020531D01*
X74427360Y-73649657D01*
X74409861Y-73726558D01*
X74193977Y-75352505D01*
X74193629Y-77327114D01*
X74407521Y-79617428D01*
X74718238Y-81579954D01*
X74966523Y-83024529D01*
X75121300Y-84189386D01*
X75195195Y-85222912D01*
X75200834Y-86273495D01*
X75176865Y-86970217D01*
X75086443Y-88202303D01*
X74913800Y-89337269D01*
X74630689Y-90467483D01*
X74208867Y-91685311D01*
X73620088Y-93083121D01*
X72836108Y-94753279D01*
X72730507Y-94970369D01*
X72230466Y-95979707D01*
X71800994Y-96741561D01*
X71371285Y-97293939D01*
X70870533Y-97674851D01*
X70227931Y-97922306D01*
X69372673Y-98074313D01*
X68233953Y-98168882D01*
X66740963Y-98244021D01*
X66621864Y-98249511D01*
X64971559Y-98344187D01*
X63703830Y-98460703D01*
X62771030Y-98604771D01*
X62125514Y-98782101D01*
X62101525Y-98791318D01*
X60961617Y-99103065D01*
X59792084Y-99194808D01*
X58686224Y-99082111D01*
X57737336Y-98780536D01*
X57038721Y-98305649D01*
X56757850Y-97899916D01*
X56615217Y-97445968D01*
X56436679Y-96689287D01*
X56252586Y-95763620D01*
X56181472Y-95359942D01*
X55953295Y-94214094D01*
X55689181Y-93211072D01*
X55415529Y-92429284D01*
X55158736Y-91947143D01*
X54992819Y-91829348D01*
X54811609Y-92006895D01*
X54601697Y-92392998D01*
X54236654Y-92856309D01*
X53674643Y-93244539D01*
X53598501Y-93279441D01*
X53114004Y-93514261D01*
X52857723Y-93691324D01*
X52845593Y-93717046D01*
X51584061Y-93717046D01*
X51613700Y-93346570D01*
X51779761Y-92982875D01*
X52225110Y-92493158D01*
X52779504Y-92195797D01*
X53362807Y-91872109D01*
X53599030Y-91415796D01*
X53867044Y-90766283D01*
X54266145Y-90269884D01*
X54685479Y-90062735D01*
X54701126Y-90062391D01*
X55022548Y-90198969D01*
X55505674Y-90543694D01*
X55730069Y-90735298D01*
X56220375Y-91285522D01*
X56621176Y-92004562D01*
X56960176Y-92966065D01*
X57265081Y-94243677D01*
X57473992Y-95370956D01*
X57702729Y-96469768D01*
X57947309Y-97206408D01*
X58155235Y-97513929D01*
X58922846Y-97872835D01*
X59915346Y-97938840D01*
X61175148Y-97712673D01*
X61656984Y-97573979D01*
X62548644Y-97335066D01*
X63497463Y-97166955D01*
X64621444Y-97054373D01*
X66038591Y-96982050D01*
X66298983Y-96973241D01*
X67727903Y-96926239D01*
X68800466Y-96862330D01*
X69590175Y-96740343D01*
X70170530Y-96519108D01*
X70615034Y-96157455D01*
X70997189Y-95614214D01*
X71390496Y-94848214D01*
X71846343Y-93866036D01*
X72709393Y-91894200D01*
X73334943Y-90167408D01*
X73736814Y-88575357D01*
X73928828Y-87007747D01*
X73924807Y-85354274D01*
X73738572Y-83504637D01*
X73402373Y-81448478D01*
X73013000Y-78796038D01*
X72881503Y-76464913D01*
X73007146Y-74423265D01*
X73213554Y-73290137D01*
X73562872Y-71805113D01*
X72802935Y-70783570D01*
X72122367Y-69555650D01*
X71695562Y-68109945D01*
X71634942Y-67481701D01*
X72865437Y-67481701D01*
X72918566Y-67780341D01*
X73049760Y-68328091D01*
X73101830Y-68527609D01*
X73650187Y-69790037D01*
X74545160Y-70798397D01*
X75529724Y-71420523D01*
X76269746Y-71717896D01*
X76960893Y-71901417D01*
X77499685Y-71954469D01*
X77782644Y-71860431D01*
X77801811Y-71785435D01*
X77757244Y-71497232D01*
X77653924Y-70907585D01*
X77525921Y-70207533D01*
X77263304Y-68795283D01*
X76193855Y-68514396D01*
X75332579Y-68256406D01*
X74382936Y-67926564D01*
X73994322Y-67776390D01*
X73385205Y-67555732D01*
X72975402Y-67456549D01*
X72865437Y-67481701D01*
X71634942Y-67481701D01*
X71572712Y-66836782D01*
X71403857Y-66128027D01*
X70945201Y-65348716D01*
X70934022Y-65334164D01*
X69850452Y-63590808D01*
X69153787Y-61705461D01*
X68846688Y-59735345D01*
X68872030Y-59140652D01*
X70181881Y-59140652D01*
X70198601Y-60208400D01*
X70266871Y-60990261D01*
X70413855Y-61641379D01*
X70666718Y-62316896D01*
X70785579Y-62588512D01*
X71417782Y-63699235D01*
X72270064Y-64785999D01*
X73220996Y-65711216D01*
X74048135Y-66285284D01*
X74592058Y-66557231D01*
X74883071Y-66610259D01*
X74903509Y-66589046D01*
X76391788Y-66589046D01*
X76404075Y-67036197D01*
X76424706Y-67106524D01*
X76661956Y-67262261D01*
X76986934Y-67318994D01*
X77167991Y-67239618D01*
X77169322Y-67225793D01*
X77188663Y-66998458D01*
X78711558Y-66998458D01*
X78714566Y-68392665D01*
X78775566Y-69586492D01*
X78883880Y-70387582D01*
X79527836Y-72449261D01*
X80546547Y-74439398D01*
X81884423Y-76298527D01*
X83485871Y-77967182D01*
X85295300Y-79385898D01*
X87257118Y-80495207D01*
X88923938Y-81127354D01*
X89690829Y-81265560D01*
X90767505Y-81342815D01*
X92037789Y-81362172D01*
X93385500Y-81326683D01*
X94694460Y-81239399D01*
X95848489Y-81103374D01*
X96729168Y-80922301D01*
X97871567Y-80544664D01*
X98878897Y-80082319D01*
X99837192Y-79476354D01*
X100832485Y-78667858D01*
X101950808Y-77597921D01*
X102672144Y-76852848D01*
X103564097Y-75937541D01*
X104430672Y-75090230D01*
X105193830Y-74384327D01*
X105775529Y-73893246D01*
X105959191Y-73760674D01*
X106547416Y-73315651D01*
X106821470Y-72911092D01*
X106874022Y-72559114D01*
X107060792Y-71906630D01*
X107564455Y-71182999D01*
X108301154Y-70478460D01*
X109187033Y-69883254D01*
X109513070Y-69719179D01*
X110120030Y-69472536D01*
X110723480Y-69317416D01*
X111451508Y-69234247D01*
X112432204Y-69203456D01*
X112901525Y-69201417D01*
X114012256Y-69217281D01*
X114821420Y-69277959D01*
X115457259Y-69403085D01*
X116048013Y-69612290D01*
X116293346Y-69720664D01*
X117311565Y-70330347D01*
X118144462Y-71103568D01*
X118700155Y-71943576D01*
X118859060Y-72422350D01*
X119057966Y-72911316D01*
X119503653Y-73319800D01*
X119980236Y-73596552D01*
X120562787Y-73990839D01*
X121337982Y-74645270D01*
X122219724Y-75483341D01*
X122919700Y-76208460D01*
X124160902Y-77453329D01*
X125345696Y-78419899D01*
X126555098Y-79140126D01*
X127870120Y-79645969D01*
X129371778Y-79969384D01*
X131141086Y-80142328D01*
X133027796Y-80195729D01*
X134231409Y-80194831D01*
X135118068Y-80164257D01*
X135801084Y-80089309D01*
X136393765Y-79955288D01*
X137009418Y-79747492D01*
X137277249Y-79644446D01*
X139569901Y-78534621D01*
X141540496Y-77132091D01*
X143186503Y-75440194D01*
X144505391Y-73462266D01*
X145494628Y-71201644D01*
X145691489Y-70440636D01*
X147169969Y-70440636D01*
X147301730Y-70592799D01*
X147666283Y-70587392D01*
X148325039Y-70426408D01*
X149095377Y-70190054D01*
X150375271Y-69648506D01*
X151303409Y-68918466D01*
X151936575Y-67932430D01*
X152331550Y-66622893D01*
X152394880Y-66267552D01*
X152544876Y-65332713D01*
X151396162Y-65853981D01*
X150477200Y-66213096D01*
X149454990Y-66530129D01*
X149010366Y-66638766D01*
X148379654Y-66782020D01*
X147984717Y-66948744D01*
X147752708Y-67238291D01*
X147610782Y-67750016D01*
X147486090Y-68583271D01*
X147463501Y-68748478D01*
X147350447Y-69455388D01*
X147228646Y-70053668D01*
X147209586Y-70128913D01*
X147169969Y-70440636D01*
X145691489Y-70440636D01*
X146151683Y-68661665D01*
X146296301Y-67754565D01*
X146410485Y-65376243D01*
X146128468Y-62923264D01*
X145465464Y-60451066D01*
X144436687Y-58015086D01*
X143057351Y-55670762D01*
X142928759Y-55483721D01*
X141643585Y-53864064D01*
X140170205Y-52450950D01*
X138478425Y-51231713D01*
X136538051Y-50193691D01*
X134318888Y-49324216D01*
X133781643Y-49172574D01*
X138253776Y-49172574D01*
X138286139Y-49389956D01*
X138401973Y-49515949D01*
X138428791Y-49532826D01*
X138759336Y-49757791D01*
X139335085Y-50175509D01*
X140056952Y-50713526D01*
X140433592Y-50998815D01*
X142362608Y-52733456D01*
X144054597Y-54793164D01*
X145473624Y-57112418D01*
X146583757Y-59625701D01*
X147349061Y-62267492D01*
X147662820Y-64180091D01*
X147770761Y-64953268D01*
X147894003Y-65358307D01*
X148059903Y-65468634D01*
X148135991Y-65450091D01*
X148541393Y-65336445D01*
X148653877Y-65325000D01*
X148762473Y-65127356D01*
X148758737Y-64587036D01*
X148658861Y-63782960D01*
X148479037Y-62794048D01*
X148235454Y-61699219D01*
X147944305Y-60577393D01*
X147621780Y-59507490D01*
X147284070Y-58568428D01*
X147250999Y-58486977D01*
X146001018Y-55971877D01*
X144436780Y-53754881D01*
X142544076Y-51817318D01*
X141571765Y-51024263D01*
X140728488Y-50336210D01*
X140362231Y-49959831D01*
X142606610Y-49959831D01*
X142748189Y-50117134D01*
X143134322Y-50527633D01*
X143707106Y-51130176D01*
X144408634Y-51863608D01*
X144455541Y-51912511D01*
X145255608Y-52733571D01*
X145835005Y-53283803D01*
X146266023Y-53616066D01*
X146620949Y-53783217D01*
X146972073Y-53838117D01*
X147092405Y-53840608D01*
X148110386Y-54039724D01*
X148967569Y-54578524D01*
X149623614Y-55372600D01*
X150038183Y-56337539D01*
X150170934Y-57388933D01*
X149981528Y-58442371D01*
X149628282Y-59146885D01*
X149294600Y-59767219D01*
X149253483Y-60250079D01*
X149298278Y-60405807D01*
X149425678Y-60874209D01*
X149579101Y-61613222D01*
X149714019Y-62393633D01*
X149887939Y-63480359D01*
X150017136Y-64201191D01*
X150118575Y-64627415D01*
X150209222Y-64830319D01*
X150306043Y-64881188D01*
X150306050Y-64881188D01*
X150563323Y-64777910D01*
X151071001Y-64511989D01*
X151590624Y-64215782D01*
X152959228Y-63167035D01*
X154013389Y-61831134D01*
X154736992Y-60239406D01*
X155113919Y-58423178D01*
X155167211Y-57263261D01*
X154994361Y-55411025D01*
X154493950Y-53802096D01*
X153640401Y-52364945D01*
X153239924Y-51873763D01*
X151920405Y-50687528D01*
X150360190Y-49866318D01*
X148558658Y-49409990D01*
X146515186Y-49318403D01*
X144229154Y-49591414D01*
X143736695Y-49691066D01*
X143110647Y-49830166D01*
X142700269Y-49929563D01*
X142606610Y-49959831D01*
X140362231Y-49959831D01*
X140218900Y-49812539D01*
X140065035Y-49476010D01*
X140066177Y-49468873D01*
X140254224Y-49211512D01*
X140741836Y-48957965D01*
X141562217Y-48697477D01*
X142748572Y-48419289D01*
X144148268Y-48146428D01*
X146228062Y-47765869D01*
X145870302Y-46713883D01*
X145437370Y-45712158D01*
X144832945Y-44840056D01*
X143980667Y-44009970D01*
X142804173Y-43134294D01*
X142672936Y-43045664D01*
X140999096Y-41922886D01*
X140743605Y-42423231D01*
X140578065Y-42798790D01*
X140291741Y-43501050D01*
X139918652Y-44444520D01*
X139492816Y-45543708D01*
X139273492Y-46117766D01*
X138814740Y-47336397D01*
X138502353Y-48209363D01*
X138320606Y-48800232D01*
X138253776Y-49172574D01*
X133781643Y-49172574D01*
X131790744Y-48610626D01*
X128923425Y-48040254D01*
X125686737Y-47600437D01*
X123664237Y-47403240D01*
X122343863Y-47313743D01*
X120720227Y-47241281D01*
X118864268Y-47185890D01*
X116846926Y-47147604D01*
X114739139Y-47126460D01*
X112611846Y-47122492D01*
X110535987Y-47135735D01*
X108582501Y-47166225D01*
X106822327Y-47213997D01*
X105326404Y-47279086D01*
X104165671Y-47361527D01*
X103860847Y-47393414D01*
X99926873Y-47932281D01*
X96395829Y-48581326D01*
X93252607Y-49345178D01*
X90482097Y-50228468D01*
X88069192Y-51235825D01*
X85998784Y-52371879D01*
X84735018Y-53254034D01*
X83270585Y-54609003D01*
X81904899Y-56294650D01*
X80708572Y-58200857D01*
X79752215Y-60217507D01*
X79189890Y-61901522D01*
X79005709Y-62855403D01*
X78861607Y-64105642D01*
X78762064Y-65528055D01*
X78711558Y-66998458D01*
X77188663Y-66998458D01*
X77189936Y-66983503D01*
X77245595Y-66398157D01*
X77327019Y-65566094D01*
X77395927Y-64872944D01*
X77732048Y-62699090D01*
X78284402Y-60543202D01*
X79009188Y-58552324D01*
X79693331Y-57160334D01*
X80263953Y-56285852D01*
X81043249Y-55264051D01*
X81939430Y-54199756D01*
X82860707Y-53197789D01*
X83715290Y-52362976D01*
X84350278Y-51842074D01*
X85061725Y-51341865D01*
X84778697Y-50106041D01*
X84627161Y-49352303D01*
X84447612Y-48320416D01*
X84266965Y-47170362D01*
X84164320Y-46454322D01*
X84026194Y-45477656D01*
X83905362Y-44679163D01*
X83816123Y-44149909D01*
X83775791Y-43979754D01*
X83567886Y-44047689D01*
X83114962Y-44314086D01*
X82515153Y-44710656D01*
X81866592Y-45169111D01*
X81267413Y-45621162D01*
X80815751Y-45998521D01*
X80678196Y-46135274D01*
X80385602Y-46558398D01*
X80020656Y-47211824D01*
X79648002Y-47961655D01*
X79332284Y-48673996D01*
X79138143Y-49214950D01*
X79106610Y-49390511D01*
X79301217Y-49514244D01*
X79812362Y-49671526D01*
X80531035Y-49829057D01*
X80559576Y-49834344D01*
X82012581Y-50143683D01*
X83090862Y-50465511D01*
X83776743Y-50793085D01*
X84052548Y-51119664D01*
X84057457Y-51168533D01*
X83898900Y-51479731D01*
X83477619Y-51965299D01*
X82875199Y-52534433D01*
X82683499Y-52697791D01*
X80799329Y-54544566D01*
X79213545Y-56678287D01*
X77964638Y-59035391D01*
X77091099Y-61552312D01*
X76939196Y-62183928D01*
X76786099Y-62994793D01*
X76643541Y-63948560D01*
X76522790Y-64937405D01*
X76435116Y-65853508D01*
X76391788Y-66589046D01*
X74903509Y-66589046D01*
X75041196Y-66446144D01*
X75101377Y-66300849D01*
X75190523Y-65848159D01*
X75231706Y-65216445D01*
X75232034Y-65159375D01*
X75270194Y-64501634D01*
X75368673Y-63633660D01*
X75465211Y-62993339D01*
X75580906Y-62176417D01*
X75579814Y-61619739D01*
X75450381Y-61155211D01*
X75319734Y-60876986D01*
X75016285Y-59949473D01*
X74944732Y-58928668D01*
X75102497Y-57985194D01*
X75371871Y-57428042D01*
X75956272Y-56785377D01*
X76660881Y-56243895D01*
X77344848Y-55899821D01*
X77714533Y-55827609D01*
X78200604Y-55640743D01*
X78558343Y-55260302D01*
X78861882Y-54856497D01*
X79379881Y-54237486D01*
X80026289Y-53504372D01*
X80416392Y-53077243D01*
X81912178Y-51461492D01*
X80914532Y-51307983D01*
X79165932Y-51145800D01*
X77441338Y-51182084D01*
X75851832Y-51405460D01*
X74508495Y-51804550D01*
X74068110Y-52009171D01*
X73065162Y-52714123D01*
X72079959Y-53707099D01*
X71237531Y-54848321D01*
X70797550Y-55665421D01*
X70495926Y-56395964D01*
X70311552Y-57039027D01*
X70216762Y-57750767D01*
X70183891Y-58687342D01*
X70181881Y-59140652D01*
X68872030Y-59140652D01*
X68931816Y-57737682D01*
X69411833Y-55769694D01*
X70289400Y-53888604D01*
X70393756Y-53716154D01*
X71518181Y-52300511D01*
X72940276Y-51190118D01*
X74627964Y-50406230D01*
X75889407Y-50074640D01*
X76636807Y-49929054D01*
X77221321Y-49811411D01*
X77498874Y-49751227D01*
X77680905Y-49525473D01*
X77917770Y-49002808D01*
X78089693Y-48509190D01*
X78654253Y-47004977D01*
X79350816Y-45809903D01*
X80273513Y-44793079D01*
X81402416Y-43902950D01*
X81699571Y-43685579D01*
X85161503Y-43685579D01*
X85215653Y-44565832D01*
X85309448Y-45484838D01*
X85449169Y-46572304D01*
X85616159Y-47708866D01*
X85791759Y-48775157D01*
X85957313Y-49651814D01*
X86094164Y-50219471D01*
X86104210Y-50250652D01*
X86195924Y-50446136D01*
X86359787Y-50495823D01*
X86691922Y-50381551D01*
X87288449Y-50085157D01*
X87465102Y-49993504D01*
X89201847Y-49216472D01*
X91311903Y-48485702D01*
X93739399Y-47812786D01*
X96428465Y-47209316D01*
X99323231Y-46686886D01*
X102367826Y-46257086D01*
X105506382Y-45931511D01*
X107843051Y-45765269D01*
X110426101Y-45618036D01*
X110292428Y-39182387D01*
X110252900Y-37493203D01*
X110207427Y-35907968D01*
X110158531Y-34491934D01*
X110108736Y-33310350D01*
X110060565Y-32428469D01*
X110016540Y-31911540D01*
X110009416Y-31863261D01*
X109853597Y-30940799D01*
X109727342Y-30373322D01*
X109571595Y-30083537D01*
X109327301Y-29994150D01*
X108935403Y-30027868D01*
X108639549Y-30070335D01*
X108128615Y-30167436D01*
X107280668Y-30359401D01*
X106174601Y-30627014D01*
X104889304Y-30951060D01*
X103503670Y-31312322D01*
X103107457Y-31417795D01*
X101496176Y-31856599D01*
X100210794Y-32229838D01*
X99157747Y-32571373D01*
X98243473Y-32915067D01*
X97374409Y-33294781D01*
X96456991Y-33744375D01*
X95939393Y-34011984D01*
X94606202Y-34725902D01*
X93577549Y-35330069D01*
X92765229Y-35895659D01*
X92081040Y-36493850D01*
X91436777Y-37195814D01*
X90744235Y-38072729D01*
X90496319Y-38404207D01*
X89827200Y-39271689D01*
X89268149Y-39882460D01*
X88692150Y-40348530D01*
X87972188Y-40781906D01*
X87542629Y-41008902D01*
X86515465Y-41558081D01*
X85821714Y-42011767D01*
X85403432Y-42458533D01*
X85202676Y-42986947D01*
X85161503Y-43685579D01*
X81699571Y-43685579D01*
X82290065Y-43253629D01*
X83171844Y-42564196D01*
X83894286Y-41955868D01*
X84064242Y-41800496D01*
X84726252Y-41260333D01*
X85612921Y-40647085D01*
X86558378Y-40073568D01*
X86789319Y-39947038D01*
X87796252Y-39365072D01*
X88497733Y-38839452D01*
X88997171Y-38288215D01*
X89134075Y-38088578D01*
X90065510Y-36796591D01*
X91109503Y-35679154D01*
X92352281Y-34661686D01*
X93880073Y-33669602D01*
X94925446Y-33079317D01*
X95949974Y-32534724D01*
X96838594Y-32095947D01*
X97687863Y-31726322D01*
X98594336Y-31389186D01*
X99654571Y-31047874D01*
X100965125Y-30665722D01*
X102151698Y-30335400D01*
X104081423Y-29808980D01*
X104433317Y-29717133D01*
X110935978Y-29717133D01*
X111057806Y-30458892D01*
X111257835Y-31865678D01*
X111408627Y-33383597D01*
X111514412Y-35088084D01*
X111579421Y-37054571D01*
X111607884Y-39358490D01*
X111610000Y-40305727D01*
X111610000Y-45667609D01*
X114139237Y-45668744D01*
X117253941Y-45713578D01*
X120318794Y-45841187D01*
X123283542Y-46045437D01*
X126097932Y-46320198D01*
X128711708Y-46659338D01*
X131074619Y-47056723D01*
X133136408Y-47506222D01*
X134846824Y-48001703D01*
X135613623Y-48289118D01*
X136232001Y-48540387D01*
X136671330Y-48707793D01*
X136799924Y-48747738D01*
X136910361Y-48556345D01*
X137149541Y-48016795D01*
X137490990Y-47192961D01*
X137908234Y-46148713D01*
X138373814Y-44950493D01*
X139834900Y-41141203D01*
X137184738Y-38473119D01*
X136400088Y-37684997D01*
X135731171Y-37032792D01*
X135125060Y-36486823D01*
X134528831Y-36017410D01*
X133889556Y-35594871D01*
X133154310Y-35189525D01*
X132270167Y-34771691D01*
X131184201Y-34311687D01*
X129843487Y-33779833D01*
X128195098Y-33146448D01*
X126612285Y-32544024D01*
X124793318Y-31857446D01*
X123291386Y-31311441D01*
X122021884Y-30887537D01*
X120900210Y-30567263D01*
X119841759Y-30332149D01*
X118761929Y-30163725D01*
X117576115Y-30043519D01*
X116199715Y-29953061D01*
X114548125Y-29873881D01*
X114340362Y-29864821D01*
X110935978Y-29717133D01*
X104433317Y-29717133D01*
X105679013Y-29391998D01*
X107026636Y-29073843D01*
X108206464Y-28843903D01*
X109300665Y-28691567D01*
X110391410Y-28606225D01*
X111560868Y-28577263D01*
X112891209Y-28594073D01*
G37*
%TD.AperFunction*%
%TD*%
D12*
%TO.P,D2,1,VDD*%
%TO.N,VCC*%
X124900000Y-59800000D03*
%TO.P,D2,2,DOUT*%
%TO.N,unconnected-(D2-DOUT-Pad2)*%
X124900000Y-63100000D03*
%TO.P,D2,3,VSS*%
%TO.N,GND*%
X129800000Y-63100000D03*
%TO.P,D2,4,DIN*%
%TO.N,Net-(D1-DOUT)*%
X129800000Y-59800000D03*
%TD*%
D13*
%TO.P,SW5,1,1*%
%TO.N,GND*%
X137200000Y-138800000D03*
X143700000Y-138800000D03*
%TO.P,SW5,2,2*%
%TO.N,/SW5*%
X137200000Y-143300000D03*
X143700000Y-143300000D03*
%TD*%
%TO.P,SW1,1,1*%
%TO.N,/SW1*%
X87900000Y-136600000D03*
X94400000Y-136600000D03*
%TO.P,SW1,2,2*%
%TO.N,GND*%
X87900000Y-141100000D03*
X94400000Y-141100000D03*
%TD*%
%TO.P,SW6,1,1*%
%TO.N,GND*%
X139200000Y-149600000D03*
X145700000Y-149600000D03*
%TO.P,SW6,2,2*%
%TO.N,/SW6*%
X139200000Y-154100000D03*
X145700000Y-154100000D03*
%TD*%
D14*
%TO.P,U3,1,5V*%
%TO.N,VCC*%
X127000000Y-158410000D03*
%TO.P,U3,2,GND*%
%TO.N,GND*%
X127000000Y-155870000D03*
%TO.P,U3,3,3v3*%
%TO.N,/3v3*%
X127000000Y-153330000D03*
%TO.P,U3,4,GP0*%
%TO.N,/RESET*%
X127000000Y-150790000D03*
%TO.P,U3,5,GP1*%
%TO.N,/DC*%
X127000000Y-148250000D03*
%TO.P,U3,6,GP2*%
%TO.N,/SW5*%
X127000000Y-145710000D03*
%TO.P,U3,7,GP3*%
%TO.N,/SW6*%
X127000000Y-143170000D03*
%TO.P,U3,8,GP4*%
%TO.N,/SCL*%
X127000000Y-140630000D03*
%TO.P,U3,9,GP5*%
%TO.N,Net-(U3-GP5)*%
X127000000Y-138090000D03*
%TO.P,U3,10,GP6*%
%TO.N,/SDA*%
X111760000Y-138090000D03*
%TO.P,U3,11,GP7*%
%TO.N,/CS*%
X111760000Y-140630000D03*
%TO.P,U3,12,GP8*%
%TO.N,/I2C_SDA*%
X111760000Y-143170000D03*
%TO.P,U3,13,GP9*%
%TO.N,/I2C_SCL*%
X111760000Y-145710000D03*
%TO.P,U3,14,GP10*%
%TO.N,/SW4*%
X111760000Y-148250000D03*
%TO.P,U3,15,GP18*%
%TO.N,/SW3*%
X111760000Y-150790000D03*
%TO.P,U3,16,GP19*%
%TO.N,/SW2*%
X111760000Y-153330000D03*
%TO.P,U3,17,GP20*%
%TO.N,/SW1*%
X111760000Y-155870000D03*
%TO.P,U3,18,GP21*%
%TO.N,/WS2812*%
X111760000Y-158410000D03*
%TD*%
D15*
%TO.P,J1,1,Pin_1*%
%TO.N,GND*%
X81200000Y-124400000D03*
D16*
%TO.P,J1,2,Pin_2*%
%TO.N,VCC*%
X81200000Y-126400000D03*
%TO.P,J1,3,Pin_3*%
%TO.N,/I2C_SDA*%
X81200000Y-128400000D03*
%TO.P,J1,4,Pin_4*%
%TO.N,/I2C_SCL*%
X81200000Y-130400000D03*
%TD*%
D13*
%TO.P,SW3,1,1*%
%TO.N,/SW3*%
X95900000Y-145400000D03*
X102400000Y-145400000D03*
%TO.P,SW3,2,2*%
%TO.N,GND*%
X95900000Y-149900000D03*
X102400000Y-149900000D03*
%TD*%
%TO.P,SW4,1,1*%
%TO.N,/SW4*%
X87800000Y-153700000D03*
X94300000Y-153700000D03*
%TO.P,SW4,2,2*%
%TO.N,GND*%
X87800000Y-158200000D03*
X94300000Y-158200000D03*
%TD*%
D17*
%TO.P,U2,1,GND*%
%TO.N,GND*%
X92100000Y-121800000D03*
D14*
%TO.P,U2,2,VCC*%
%TO.N,/3v3*%
X92100000Y-119260000D03*
%TO.P,U2,3,SCL*%
%TO.N,/SCL*%
X92100000Y-116720000D03*
%TO.P,U2,4,SDA*%
%TO.N,/SDA*%
X92100000Y-114180000D03*
%TO.P,U2,5,RES*%
%TO.N,/RESET*%
X92100000Y-111640000D03*
%TO.P,U2,6,DC*%
%TO.N,/DC*%
X92100000Y-109100000D03*
%TO.P,U2,7,CS*%
%TO.N,/CS*%
X92100000Y-106560000D03*
%TO.P,U2,8,BLK*%
%TO.N,unconnected-(U2-BLK-Pad8)*%
X92100000Y-104020000D03*
%TD*%
D18*
%TO.P,LS1,1,1*%
%TO.N,Net-(U3-GP5)*%
X149200000Y-121800000D03*
D13*
%TO.P,LS1,2,2*%
%TO.N,GND*%
X149200000Y-126800000D03*
%TD*%
D12*
%TO.P,D1,1,VDD*%
%TO.N,VCC*%
X94900000Y-60800000D03*
%TO.P,D1,2,DOUT*%
%TO.N,Net-(D1-DOUT)*%
X94900000Y-64100000D03*
%TO.P,D1,3,VSS*%
%TO.N,GND*%
X99800000Y-64100000D03*
%TO.P,D1,4,DIN*%
%TO.N,Net-(D1-DIN)*%
X99800000Y-60800000D03*
%TD*%
D13*
%TO.P,SW2,1,1*%
%TO.N,/SW2*%
X79600000Y-145300000D03*
X86100000Y-145300000D03*
%TO.P,SW2,2,2*%
%TO.N,GND*%
X79600000Y-149800000D03*
X86100000Y-149800000D03*
%TD*%
D19*
%TO.N,GND*%
X91400000Y-155300000D03*
D20*
X97800000Y-64100000D03*
X113100000Y-157100000D03*
X123900000Y-159400000D03*
X127300000Y-63100000D03*
%TO.N,VCC*%
X121600000Y-123200000D03*
X94900000Y-62500000D03*
X131900000Y-121700000D03*
X124800000Y-61800000D03*
X110300000Y-111900000D03*
%TO.N,/SDA*%
X105300000Y-126700000D03*
%TO.N,/SCL*%
X98050000Y-116750000D03*
X105900000Y-124600000D03*
%TO.N,/CS*%
X100700000Y-127400000D03*
%TO.N,/3v3*%
X127400000Y-121500000D03*
X125150000Y-119250000D03*
%TO.N,/RESET*%
X117250000Y-124500000D03*
X104250000Y-111750000D03*
%TO.N,/DC*%
X125000000Y-139500000D03*
X110800000Y-124500000D03*
%TO.N,Net-(D1-DIN)*%
X97400000Y-60800000D03*
%TO.N,Net-(D1-DOUT)*%
X98100000Y-61700000D03*
X127700000Y-59800000D03*
%TO.N,Net-(U3-GP5)*%
X126000000Y-128000000D03*
X135250000Y-123000000D03*
%TD*%
D21*
%TO.N,GND*%
X99800000Y-64100000D02*
X97800000Y-64100000D01*
D22*
X91400000Y-155300000D02*
X94300000Y-158200000D01*
X137200000Y-138800000D02*
X143700000Y-138800000D01*
X87900000Y-141100000D02*
X94400000Y-141100000D01*
X87800000Y-158200000D02*
X94300000Y-158200000D01*
X95900000Y-149900000D02*
X102400000Y-149900000D01*
D21*
X127300000Y-63100000D02*
X129800000Y-63100000D01*
D22*
X79600000Y-149800000D02*
X86100000Y-149800000D01*
X139200000Y-149600000D02*
X145700000Y-149600000D01*
D21*
%TO.N,VCC*%
X124800000Y-61800000D02*
X124800000Y-59900000D01*
X130400000Y-123200000D02*
X131900000Y-121700000D01*
X129100000Y-123200000D02*
X130400000Y-123200000D01*
X124800000Y-59900000D02*
X124900000Y-59800000D01*
X121600000Y-123200000D02*
X110300000Y-111900000D01*
X121600000Y-123200000D02*
X129100000Y-123200000D01*
X94900000Y-62500000D02*
X94900000Y-60800000D01*
D22*
%TO.N,/SDA*%
X92100000Y-114180000D02*
X95680000Y-114180000D01*
X96200000Y-117600000D02*
X105300000Y-126700000D01*
X96200000Y-114700000D02*
X96200000Y-117600000D01*
X95680000Y-114180000D02*
X96200000Y-114700000D01*
%TO.N,/SCL*%
X98050000Y-116750000D02*
X98020000Y-116720000D01*
X105900000Y-124600000D02*
X98050000Y-116750000D01*
%TO.N,/CS*%
X94300000Y-117256884D02*
X100700000Y-123656884D01*
X91300000Y-115500000D02*
X93800000Y-115500000D01*
X100700000Y-123656884D02*
X100700000Y-127400000D01*
X90800000Y-107860000D02*
X90800000Y-115000000D01*
X93800000Y-115500000D02*
X94300000Y-116000000D01*
X92100000Y-106560000D02*
X90800000Y-107860000D01*
X94300000Y-116000000D02*
X94300000Y-117256884D01*
X90800000Y-115000000D02*
X91300000Y-115500000D01*
%TO.N,/SW1*%
X87900000Y-136600000D02*
X94400000Y-136600000D01*
D21*
%TO.N,/3v3*%
X125150000Y-119250000D02*
X127400000Y-121500000D01*
D22*
%TO.N,/RESET*%
X104500000Y-111750000D02*
X104250000Y-111750000D01*
X117250000Y-124500000D02*
X104500000Y-111750000D01*
%TO.N,/DC*%
X125000000Y-139500000D02*
X125000000Y-146250000D01*
X95400000Y-109100000D02*
X110800000Y-124500000D01*
X125000000Y-146250000D02*
X127000000Y-148250000D01*
X92100000Y-109100000D02*
X95400000Y-109100000D01*
%TO.N,/SW2*%
X79600000Y-145300000D02*
X86100000Y-145300000D01*
%TO.N,Net-(D1-DIN)*%
X97400000Y-60800000D02*
X99800000Y-60800000D01*
%TO.N,Net-(D1-DOUT)*%
X94900000Y-64100000D02*
X95700000Y-64100000D01*
X95700000Y-64100000D02*
X98100000Y-61700000D01*
X127700000Y-59800000D02*
X129800000Y-59800000D01*
%TO.N,Net-(U3-GP5)*%
X131250000Y-128000000D02*
X135250000Y-124000000D01*
X135250000Y-124000000D02*
X135250000Y-123000000D01*
X126000000Y-128000000D02*
X131250000Y-128000000D01*
%TO.N,/SW3*%
X95900000Y-145400000D02*
X102400000Y-145400000D01*
%TO.N,/SW4*%
X87800000Y-153700000D02*
X94300000Y-153700000D01*
%TO.N,/SW5*%
X137200000Y-143300000D02*
X143700000Y-143300000D01*
%TO.N,/SW6*%
X139200000Y-154100000D02*
X145700000Y-154100000D01*
%TD*%
%TA.AperFunction,Conductor*%
%TO.N,GND*%
G36*
X126846190Y-136519685D02*
G01*
X126891945Y-136572489D01*
X126901889Y-136641647D01*
X126872864Y-136705203D01*
X126814086Y-136742977D01*
X126798549Y-136746473D01*
X126681882Y-136764951D01*
X126478519Y-136831026D01*
X126478516Y-136831027D01*
X126287990Y-136928106D01*
X126114993Y-137053796D01*
X125963796Y-137204993D01*
X125838106Y-137377990D01*
X125741027Y-137568516D01*
X125741026Y-137568519D01*
X125674951Y-137771882D01*
X125641500Y-137983084D01*
X125641500Y-138196915D01*
X125674951Y-138408117D01*
X125741026Y-138611480D01*
X125741027Y-138611483D01*
X125834291Y-138794521D01*
X125838106Y-138802009D01*
X125963794Y-138975004D01*
X126114996Y-139126206D01*
X126287991Y-139251894D01*
X126291873Y-139254273D01*
X126338748Y-139306086D01*
X126350169Y-139375016D01*
X126322512Y-139439178D01*
X126291873Y-139465727D01*
X126287991Y-139468105D01*
X126114997Y-139593793D01*
X126017925Y-139690865D01*
X125956601Y-139724349D01*
X125886910Y-139719365D01*
X125830977Y-139677493D01*
X125806560Y-139612028D01*
X125808206Y-139585722D01*
X125807903Y-139585693D01*
X125808500Y-139579631D01*
X125808500Y-139420369D01*
X125808499Y-139420365D01*
X125793506Y-139344991D01*
X125777430Y-139264169D01*
X125716483Y-139117032D01*
X125628003Y-138984611D01*
X125627998Y-138984605D01*
X125515394Y-138872001D01*
X125515387Y-138871995D01*
X125382969Y-138783517D01*
X125235831Y-138722570D01*
X125235823Y-138722568D01*
X125079634Y-138691500D01*
X125079630Y-138691500D01*
X124920370Y-138691500D01*
X124920365Y-138691500D01*
X124764176Y-138722568D01*
X124764168Y-138722570D01*
X124617030Y-138783517D01*
X124484612Y-138871995D01*
X124484605Y-138872001D01*
X124372001Y-138984605D01*
X124371995Y-138984612D01*
X124283517Y-139117030D01*
X124222570Y-139264168D01*
X124222568Y-139264176D01*
X124191500Y-139420365D01*
X124191500Y-139579634D01*
X124222568Y-139735823D01*
X124222570Y-139735831D01*
X124283515Y-139882966D01*
X124345603Y-139975887D01*
X124366480Y-140042564D01*
X124366500Y-140044777D01*
X124366500Y-146312398D01*
X124390843Y-146434777D01*
X124390845Y-146434785D01*
X124438598Y-146550072D01*
X124438603Y-146550081D01*
X124507928Y-146653832D01*
X124507931Y-146653836D01*
X125648447Y-147794352D01*
X125681932Y-147855675D01*
X125678699Y-147920345D01*
X125674951Y-147931881D01*
X125641500Y-148143084D01*
X125641500Y-148356915D01*
X125674951Y-148568117D01*
X125741026Y-148771480D01*
X125741027Y-148771483D01*
X125834291Y-148954521D01*
X125838106Y-148962009D01*
X125963794Y-149135004D01*
X126114996Y-149286206D01*
X126287991Y-149411894D01*
X126291873Y-149414273D01*
X126338748Y-149466086D01*
X126350169Y-149535016D01*
X126322512Y-149599178D01*
X126291873Y-149625727D01*
X126287991Y-149628105D01*
X126114993Y-149753796D01*
X125963796Y-149904993D01*
X125838106Y-150077990D01*
X125741027Y-150268516D01*
X125741026Y-150268519D01*
X125674951Y-150471882D01*
X125641500Y-150683084D01*
X125641500Y-150896915D01*
X125674951Y-151108117D01*
X125741026Y-151311480D01*
X125741027Y-151311483D01*
X125834291Y-151494521D01*
X125838106Y-151502009D01*
X125963794Y-151675004D01*
X126114996Y-151826206D01*
X126287991Y-151951894D01*
X126291873Y-151954273D01*
X126338748Y-152006086D01*
X126350169Y-152075016D01*
X126322512Y-152139178D01*
X126291873Y-152165727D01*
X126287991Y-152168105D01*
X126114993Y-152293796D01*
X125963796Y-152444993D01*
X125838106Y-152617990D01*
X125741027Y-152808516D01*
X125741026Y-152808519D01*
X125674951Y-153011882D01*
X125641500Y-153223084D01*
X125641500Y-153436915D01*
X125674951Y-153648117D01*
X125741026Y-153851480D01*
X125741027Y-153851483D01*
X125834291Y-154034521D01*
X125838106Y-154042009D01*
X125963794Y-154215004D01*
X126114996Y-154366206D01*
X126244742Y-154460472D01*
X126287992Y-154491895D01*
X126292683Y-154494285D01*
X126343480Y-154542259D01*
X126360275Y-154610080D01*
X126337738Y-154676215D01*
X126296212Y-154712202D01*
X126296598Y-154712832D01*
X126292803Y-154715157D01*
X126292701Y-154715246D01*
X126292448Y-154715374D01*
X126292446Y-154715376D01*
X126120540Y-154840272D01*
X126120535Y-154840276D01*
X125970276Y-154990535D01*
X125970272Y-154990540D01*
X125845379Y-155162442D01*
X125748904Y-155351782D01*
X125683242Y-155553870D01*
X125683242Y-155553873D01*
X125672769Y-155620000D01*
X126566988Y-155620000D01*
X126534075Y-155677007D01*
X126500000Y-155804174D01*
X126500000Y-155935826D01*
X126534075Y-156062993D01*
X126566988Y-156120000D01*
X125672769Y-156120000D01*
X125683242Y-156186126D01*
X125683242Y-156186129D01*
X125748904Y-156388217D01*
X125845379Y-156577557D01*
X125970272Y-156749459D01*
X125970276Y-156749464D01*
X126120535Y-156899723D01*
X126120540Y-156899727D01*
X126292441Y-157024620D01*
X126292682Y-157024743D01*
X126292758Y-157024815D01*
X126296598Y-157027168D01*
X126296103Y-157027974D01*
X126343479Y-157072716D01*
X126360275Y-157140537D01*
X126337739Y-157206672D01*
X126292693Y-157245709D01*
X126287994Y-157248103D01*
X126114993Y-157373796D01*
X125963796Y-157524993D01*
X125838106Y-157697990D01*
X125741027Y-157888516D01*
X125741026Y-157888519D01*
X125674951Y-158091882D01*
X125641500Y-158303084D01*
X125641500Y-158516915D01*
X125674951Y-158728117D01*
X125741026Y-158931480D01*
X125741027Y-158931483D01*
X125834291Y-159114521D01*
X125838106Y-159122009D01*
X125963794Y-159295004D01*
X126114996Y-159446206D01*
X126287991Y-159571894D01*
X126381438Y-159619507D01*
X126478516Y-159668972D01*
X126478519Y-159668973D01*
X126580200Y-159702010D01*
X126681884Y-159735049D01*
X126798549Y-159753527D01*
X126861684Y-159783456D01*
X126898615Y-159842768D01*
X126897617Y-159912630D01*
X126859007Y-159970863D01*
X126795044Y-159998977D01*
X126779151Y-160000000D01*
X111980849Y-160000000D01*
X111913810Y-159980315D01*
X111868055Y-159927511D01*
X111858111Y-159858353D01*
X111887136Y-159794797D01*
X111945914Y-159757023D01*
X111961451Y-159753527D01*
X112078116Y-159735049D01*
X112281483Y-159668972D01*
X112472009Y-159571894D01*
X112645004Y-159446206D01*
X112796206Y-159295004D01*
X112921894Y-159122009D01*
X113018972Y-158931483D01*
X113085049Y-158728116D01*
X113118500Y-158516916D01*
X113118500Y-158303084D01*
X113085049Y-158091884D01*
X113018972Y-157888517D01*
X113018972Y-157888516D01*
X112928149Y-157710267D01*
X112921894Y-157697991D01*
X112796206Y-157524996D01*
X112645004Y-157373794D01*
X112472009Y-157248106D01*
X112472005Y-157248103D01*
X112468132Y-157245730D01*
X112421254Y-157193920D01*
X112409829Y-157124991D01*
X112437483Y-157060827D01*
X112468132Y-157034270D01*
X112472005Y-157031896D01*
X112472004Y-157031896D01*
X112472009Y-157031894D01*
X112645004Y-156906206D01*
X112796206Y-156755004D01*
X112921894Y-156582009D01*
X113018972Y-156391483D01*
X113085049Y-156188116D01*
X113118500Y-155976916D01*
X113118500Y-155763084D01*
X113085049Y-155551884D01*
X113018972Y-155348517D01*
X113018972Y-155348516D01*
X112935518Y-155184730D01*
X112921894Y-155157991D01*
X112796206Y-154984996D01*
X112645004Y-154833794D01*
X112472009Y-154708106D01*
X112472005Y-154708103D01*
X112468132Y-154705730D01*
X112421254Y-154653920D01*
X112409829Y-154584991D01*
X112437483Y-154520827D01*
X112468132Y-154494270D01*
X112472005Y-154491896D01*
X112472004Y-154491896D01*
X112472009Y-154491894D01*
X112645004Y-154366206D01*
X112796206Y-154215004D01*
X112921894Y-154042009D01*
X113018972Y-153851483D01*
X113085049Y-153648116D01*
X113118500Y-153436916D01*
X113118500Y-153223084D01*
X113085049Y-153011884D01*
X113018972Y-152808517D01*
X113018972Y-152808516D01*
X112928149Y-152630267D01*
X112921894Y-152617991D01*
X112796206Y-152444996D01*
X112645004Y-152293794D01*
X112472009Y-152168106D01*
X112472005Y-152168103D01*
X112468132Y-152165730D01*
X112421254Y-152113920D01*
X112409829Y-152044991D01*
X112437483Y-151980827D01*
X112468132Y-151954270D01*
X112472005Y-151951896D01*
X112472004Y-151951896D01*
X112472009Y-151951894D01*
X112645004Y-151826206D01*
X112796206Y-151675004D01*
X112921894Y-151502009D01*
X113018972Y-151311483D01*
X113085049Y-151108116D01*
X113118500Y-150896916D01*
X113118500Y-150683084D01*
X113085049Y-150471884D01*
X113018972Y-150268517D01*
X113018972Y-150268516D01*
X112928149Y-150090267D01*
X112921894Y-150077991D01*
X112796206Y-149904996D01*
X112645004Y-149753794D01*
X112472009Y-149628106D01*
X112472005Y-149628103D01*
X112468132Y-149625730D01*
X112421254Y-149573920D01*
X112409829Y-149504991D01*
X112437483Y-149440827D01*
X112468132Y-149414270D01*
X112472005Y-149411896D01*
X112472004Y-149411896D01*
X112472009Y-149411894D01*
X112645004Y-149286206D01*
X112796206Y-149135004D01*
X112921894Y-148962009D01*
X113018972Y-148771483D01*
X113085049Y-148568116D01*
X113118500Y-148356916D01*
X113118500Y-148143084D01*
X113085049Y-147931884D01*
X113052010Y-147830200D01*
X113018973Y-147728519D01*
X113018972Y-147728516D01*
X112928149Y-147550267D01*
X112921894Y-147537991D01*
X112796206Y-147364996D01*
X112645004Y-147213794D01*
X112472009Y-147088106D01*
X112472005Y-147088103D01*
X112468132Y-147085730D01*
X112421254Y-147033920D01*
X112409829Y-146964991D01*
X112437483Y-146900827D01*
X112468132Y-146874270D01*
X112472005Y-146871896D01*
X112472004Y-146871896D01*
X112472009Y-146871894D01*
X112645004Y-146746206D01*
X112796206Y-146595004D01*
X112921894Y-146422009D01*
X113018972Y-146231483D01*
X113085049Y-146028116D01*
X113118500Y-145816916D01*
X113118500Y-145603084D01*
X113085049Y-145391884D01*
X113018972Y-145188517D01*
X113018972Y-145188516D01*
X112928149Y-145010267D01*
X112921894Y-144997991D01*
X112796206Y-144824996D01*
X112645004Y-144673794D01*
X112472009Y-144548106D01*
X112472005Y-144548103D01*
X112468132Y-144545730D01*
X112421254Y-144493920D01*
X112409829Y-144424991D01*
X112437483Y-144360827D01*
X112468132Y-144334270D01*
X112472005Y-144331896D01*
X112472004Y-144331896D01*
X112472009Y-144331894D01*
X112645004Y-144206206D01*
X112796206Y-144055004D01*
X112921894Y-143882009D01*
X113018972Y-143691483D01*
X113085049Y-143488116D01*
X113118500Y-143276916D01*
X113118500Y-143063084D01*
X113085049Y-142851884D01*
X113024377Y-142665152D01*
X113018973Y-142648519D01*
X113018972Y-142648516D01*
X112928149Y-142470267D01*
X112921894Y-142457991D01*
X112796206Y-142284996D01*
X112645004Y-142133794D01*
X112472009Y-142008106D01*
X112472005Y-142008103D01*
X112468132Y-142005730D01*
X112421254Y-141953920D01*
X112409829Y-141884991D01*
X112437483Y-141820827D01*
X112468132Y-141794270D01*
X112472005Y-141791896D01*
X112472004Y-141791896D01*
X112472009Y-141791894D01*
X112645004Y-141666206D01*
X112796206Y-141515004D01*
X112921894Y-141342009D01*
X113018972Y-141151483D01*
X113085049Y-140948116D01*
X113118500Y-140736916D01*
X113118500Y-140523084D01*
X113085049Y-140311884D01*
X113018972Y-140108517D01*
X113018972Y-140108516D01*
X112967329Y-140007162D01*
X112921894Y-139917991D01*
X112796206Y-139744996D01*
X112645004Y-139593794D01*
X112472009Y-139468106D01*
X112472005Y-139468103D01*
X112468132Y-139465730D01*
X112421254Y-139413920D01*
X112409829Y-139344991D01*
X112437483Y-139280827D01*
X112468132Y-139254270D01*
X112472005Y-139251896D01*
X112472004Y-139251896D01*
X112472009Y-139251894D01*
X112645004Y-139126206D01*
X112796206Y-138975004D01*
X112921894Y-138802009D01*
X113018972Y-138611483D01*
X113085049Y-138408116D01*
X113118500Y-138196916D01*
X113118500Y-137983084D01*
X113085049Y-137771884D01*
X113018972Y-137568517D01*
X113018972Y-137568516D01*
X112928149Y-137390267D01*
X112921894Y-137377991D01*
X112796206Y-137204996D01*
X112645004Y-137053794D01*
X112472009Y-136928106D01*
X112281483Y-136831027D01*
X112281480Y-136831026D01*
X112078117Y-136764951D01*
X111961451Y-136746473D01*
X111898316Y-136716544D01*
X111861385Y-136657232D01*
X111862383Y-136587370D01*
X111900993Y-136529137D01*
X111964956Y-136501023D01*
X111980849Y-136500000D01*
X126779151Y-136500000D01*
X126846190Y-136519685D01*
G37*
%TD.AperFunction*%
%TD*%
M02*
