%TF.GenerationSoftware,KiCad,Pcbnew,9.0.7-9.0.7~ubuntu24.04.1*%
%TF.CreationDate,2026-04-29T15:23:09+09:00*%
%TF.ProjectId,gopher_pirot,676f7068-6572-45f7-9069-726f742e6b69,rev?*%
%TF.SameCoordinates,Original*%
%TF.FileFunction,Soldermask,Bot*%
%TF.FilePolarity,Negative*%
%FSLAX46Y46*%
G04 Gerber Fmt 4.6, Leading zero omitted, Abs format (unit mm)*
G04 Created by KiCad (PCBNEW 9.0.7-9.0.7~ubuntu24.04.1) date 2026-04-29 15:23:09*
%MOMM*%
%LPD*%
G01*
G04 APERTURE LIST*
G04 Aperture macros list*
%AMRoundRect*
0 Rectangle with rounded corners*
0 $1 Rounding radius*
0 $2 $3 $4 $5 $6 $7 $8 $9 X,Y pos of 4 corners*
0 Add a 4 corners polygon primitive as box body*
4,1,4,$2,$3,$4,$5,$6,$7,$8,$9,$2,$3,0*
0 Add four circle primitives for the rounded corners*
1,1,$1+$1,$2,$3*
1,1,$1+$1,$4,$5*
1,1,$1+$1,$6,$7*
1,1,$1+$1,$8,$9*
0 Add four rect primitives between the rounded corners*
20,1,$1+$1,$2,$3,$4,$5,0*
20,1,$1+$1,$4,$5,$6,$7,0*
20,1,$1+$1,$6,$7,$8,$9,0*
20,1,$1+$1,$8,$9,$2,$3,0*%
G04 Aperture macros list end*
%ADD10C,2.000000*%
%ADD11C,3.200000*%
%ADD12O,1.700000X1.700000*%
%ADD13R,1.350000X1.350000*%
%ADD14O,1.350000X1.350000*%
%ADD15R,1.700000X1.700000*%
%ADD16R,2.000000X2.000000*%
%ADD17RoundRect,0.250000X-0.262500X-0.450000X0.262500X-0.450000X0.262500X0.450000X-0.262500X0.450000X0*%
G04 APERTURE END LIST*
D10*
%TO.C,SW5*%
X137200000Y-138800000D03*
X143700000Y-138800000D03*
X137200000Y-143300000D03*
X143700000Y-143300000D03*
%TD*%
%TO.C,SW1*%
X87900000Y-136600000D03*
X94400000Y-136600000D03*
X87900000Y-141100000D03*
X94400000Y-141100000D03*
%TD*%
D11*
%TO.C,REF\u002A\u002A*%
X114700000Y-33200000D03*
%TD*%
D10*
%TO.C,SW6*%
X139200000Y-149600000D03*
X145700000Y-149600000D03*
X139200000Y-154100000D03*
X145700000Y-154100000D03*
%TD*%
D12*
%TO.C,U3*%
X127000000Y-158410000D03*
X127000000Y-155870000D03*
X127000000Y-153330000D03*
X127000000Y-150790000D03*
X127000000Y-148250000D03*
X127000000Y-145710000D03*
X127000000Y-143170000D03*
X127000000Y-140630000D03*
X127000000Y-138090000D03*
X111760000Y-138090000D03*
X111760000Y-140630000D03*
X111760000Y-143170000D03*
X111760000Y-145710000D03*
X111760000Y-148250000D03*
X111760000Y-150790000D03*
X111760000Y-153330000D03*
X111760000Y-155870000D03*
X111760000Y-158410000D03*
%TD*%
D13*
%TO.C,J1*%
X81200000Y-124400000D03*
D14*
X81200000Y-126400000D03*
X81200000Y-128400000D03*
X81200000Y-130400000D03*
%TD*%
D10*
%TO.C,SW3*%
X95900000Y-145400000D03*
X102400000Y-145400000D03*
X95900000Y-149900000D03*
X102400000Y-149900000D03*
%TD*%
%TO.C,SW4*%
X87800000Y-153700000D03*
X94300000Y-153700000D03*
X87800000Y-158200000D03*
X94300000Y-158200000D03*
%TD*%
D15*
%TO.C,U2*%
X92100000Y-121800000D03*
D12*
X92100000Y-119260000D03*
X92100000Y-116720000D03*
X92100000Y-114180000D03*
X92100000Y-111640000D03*
X92100000Y-109100000D03*
X92100000Y-106560000D03*
X92100000Y-104020000D03*
%TD*%
D16*
%TO.C,LS1*%
X149200000Y-121800000D03*
D10*
X149200000Y-126800000D03*
%TD*%
%TO.C,SW2*%
X79600000Y-145300000D03*
X86100000Y-145300000D03*
X79600000Y-149800000D03*
X86100000Y-149800000D03*
%TD*%
D17*
%TO.C,R2*%
X91975000Y-56300000D03*
X93800000Y-56300000D03*
%TD*%
M02*
