%TF.GenerationSoftware,KiCad,Pcbnew,9.0.7-9.0.7~ubuntu24.04.1*%
%TF.CreationDate,2026-04-29T15:23:09+09:00*%
%TF.ProjectId,gopher_pirot,676f7068-6572-45f7-9069-726f742e6b69,rev?*%
%TF.SameCoordinates,Original*%
%TF.FileFunction,Profile,NP*%
%FSLAX46Y46*%
G04 Gerber Fmt 4.6, Leading zero omitted, Abs format (unit mm)*
G04 Created by KiCad (PCBNEW 9.0.7-9.0.7~ubuntu24.04.1) date 2026-04-29 15:23:09*
%MOMM*%
%LPD*%
G01*
G04 APERTURE LIST*
%TA.AperFunction,Profile*%
%ADD10C,0.050000*%
%TD*%
G04 APERTURE END LIST*
D10*
%TO.C,G\u002A\u002A\u002A*%
X51550000Y-93795000D02*
X51590000Y-93355000D01*
X51590000Y-93355000D02*
X51760000Y-92965000D01*
X51760000Y-92965000D02*
X52220000Y-92475000D01*
X51820000Y-94635000D02*
X51550000Y-93795000D01*
X52100000Y-95265000D02*
X51820000Y-94635000D01*
X52220000Y-92475000D02*
X52870000Y-92115000D01*
X52360000Y-95815000D02*
X52100000Y-95265000D01*
X52870000Y-92115000D02*
X53350000Y-91845000D01*
X52920000Y-96755000D02*
X52360000Y-95815000D01*
X53210000Y-97215000D02*
X52920000Y-96755000D01*
X53350000Y-91845000D02*
X53590000Y-91385000D01*
X53590000Y-91385000D02*
X53840000Y-90755000D01*
X53840000Y-90755000D02*
X54250000Y-90255000D01*
X54110000Y-98445000D02*
X53210000Y-97215000D01*
X54250000Y-90255000D02*
X54680000Y-90035000D01*
X54680000Y-90035000D02*
X54700000Y-90035000D01*
X54700000Y-90035000D02*
X54730000Y-90045000D01*
X54730000Y-90045000D02*
X55030000Y-90175000D01*
X55030000Y-90175000D02*
X55750000Y-90715000D01*
X55120000Y-99575000D02*
X54110000Y-98445000D01*
X55750000Y-90715000D02*
X56250000Y-91285000D01*
X56160000Y-100505000D02*
X55120000Y-99575000D01*
X56250000Y-91285000D02*
X56640000Y-91985000D01*
X56640000Y-91985000D02*
X56990000Y-92975000D01*
X56990000Y-92975000D02*
X57300000Y-94235000D01*
X57130000Y-101105000D02*
X56160000Y-100505000D01*
X57300000Y-94235000D02*
X57490000Y-95295000D01*
X57390000Y-101215000D02*
X57130000Y-101105000D01*
X57490000Y-95295000D02*
X57710000Y-96355000D01*
X57710000Y-96355000D02*
X57740000Y-96495000D01*
X57740000Y-96495000D02*
X57970000Y-97185000D01*
X57970000Y-97185000D02*
X58180000Y-97495000D01*
X58180000Y-97495000D02*
X58920000Y-97845000D01*
X58500000Y-101595000D02*
X57390000Y-101215000D01*
X58920000Y-97845000D02*
X59920000Y-97915000D01*
X59510000Y-101715000D02*
X58500000Y-101595000D01*
X59920000Y-97915000D02*
X61160000Y-97685000D01*
X60550000Y-101595000D02*
X59510000Y-101715000D01*
X61160000Y-97685000D02*
X62320000Y-97365000D01*
X61800000Y-101205000D02*
X60550000Y-101595000D01*
X62320000Y-97365000D02*
X62580000Y-97305000D01*
X62580000Y-97305000D02*
X63510000Y-97135000D01*
X62760000Y-100895000D02*
X61800000Y-101205000D01*
X63420000Y-100745000D02*
X62760000Y-100895000D01*
X63510000Y-97135000D02*
X64570000Y-97035000D01*
X64030000Y-100665000D02*
X63420000Y-100745000D01*
X64460000Y-100635000D02*
X64030000Y-100665000D01*
X64570000Y-97035000D02*
X65930000Y-96965000D01*
X65370000Y-100605000D02*
X64460000Y-100635000D01*
X65930000Y-96965000D02*
X67420000Y-96905000D01*
X66670000Y-100595000D02*
X65370000Y-100605000D01*
X66700000Y-112385000D02*
X66720000Y-111225000D01*
X66720000Y-111225000D02*
X67000000Y-110155000D01*
X66960000Y-113575000D02*
X66700000Y-112385000D01*
X67000000Y-110155000D02*
X67610000Y-109265000D01*
X67420000Y-96905000D02*
X67820000Y-96895000D01*
X67450000Y-114635000D02*
X66960000Y-113575000D01*
X67610000Y-109265000D02*
X67770000Y-109105000D01*
X67770000Y-109105000D02*
X67970000Y-108975000D01*
X67820000Y-96895000D02*
X68830000Y-96835000D01*
X67970000Y-108975000D02*
X68760000Y-108455000D01*
X68180000Y-115555000D02*
X67450000Y-114635000D01*
X68760000Y-108455000D02*
X70120000Y-107835000D01*
X68820000Y-59745000D02*
X68910000Y-57745000D01*
X68830000Y-96835000D02*
X69600000Y-96715000D01*
X68910000Y-57745000D02*
X69400000Y-55745000D01*
X69100000Y-116175000D02*
X68180000Y-115555000D01*
X69130000Y-61715000D02*
X68820000Y-59745000D01*
X69350000Y-116275000D02*
X69100000Y-116175000D01*
X69400000Y-55745000D02*
X69780000Y-54925000D01*
X69600000Y-96715000D02*
X70190000Y-96475000D01*
X69780000Y-54925000D02*
X70330000Y-53785000D01*
X69830000Y-63605000D02*
X69130000Y-61715000D01*
X69910000Y-100585000D02*
X66670000Y-100595000D01*
X70120000Y-107835000D02*
X71770000Y-107305000D01*
X70190000Y-96475000D02*
X70610000Y-96125000D01*
X70260000Y-64295000D02*
X69830000Y-63605000D01*
X70330000Y-53785000D02*
X70370000Y-53715000D01*
X70370000Y-53715000D02*
X71510000Y-52275000D01*
X70550000Y-116475000D02*
X69350000Y-116275000D01*
X70610000Y-96125000D02*
X70980000Y-95585000D01*
X70930000Y-65375000D02*
X70260000Y-64295000D01*
X70980000Y-95585000D02*
X71360000Y-94855000D01*
X71050000Y-100575000D02*
X69910000Y-100585000D01*
X71360000Y-94855000D02*
X71920000Y-93645000D01*
X71390000Y-66145000D02*
X70930000Y-65375000D01*
X71510000Y-52275000D02*
X71630000Y-52175000D01*
X71540000Y-66825000D02*
X71390000Y-66145000D01*
X71630000Y-52175000D02*
X72300000Y-51655000D01*
X71670000Y-68125000D02*
X71540000Y-66825000D01*
X71770000Y-107305000D02*
X72750000Y-107045000D01*
X71850000Y-116255000D02*
X70550000Y-116475000D01*
X71920000Y-93645000D02*
X72360000Y-92625000D01*
X72100000Y-69565000D02*
X71670000Y-68125000D01*
X72300000Y-51655000D02*
X72960000Y-51155000D01*
X72360000Y-92625000D02*
X72680000Y-91885000D01*
X72500000Y-99865000D02*
X71050000Y-100575000D01*
X72580000Y-70445000D02*
X72100000Y-69565000D01*
X72680000Y-91885000D02*
X73270000Y-90275000D01*
X72750000Y-107045000D02*
X74310000Y-106665000D01*
X72800000Y-70825000D02*
X72580000Y-70445000D01*
X72850000Y-76465000D02*
X72980000Y-74425000D01*
X72960000Y-51155000D02*
X73410000Y-50935000D01*
X72980000Y-74425000D02*
X73120000Y-73655000D01*
X72990000Y-78815000D02*
X72850000Y-76465000D01*
X73120000Y-73655000D02*
X73220000Y-73135000D01*
X73220000Y-73135000D02*
X73340000Y-72615000D01*
X73240000Y-115635000D02*
X71850000Y-116255000D01*
X73260000Y-80675000D02*
X72990000Y-78815000D01*
X73270000Y-90275000D02*
X73310000Y-90175000D01*
X73310000Y-90175000D02*
X73710000Y-88565000D01*
X73340000Y-72615000D02*
X73480000Y-72045000D01*
X73400000Y-99485000D02*
X72500000Y-99865000D01*
X73410000Y-50935000D02*
X74620000Y-50385000D01*
X73480000Y-72045000D02*
X73540000Y-71815000D01*
X73520000Y-82395000D02*
X73260000Y-80675000D01*
X73540000Y-71815000D02*
X72800000Y-70825000D01*
X73710000Y-83475000D02*
X73520000Y-82395000D01*
X73710000Y-88565000D02*
X73900000Y-86985000D01*
X73770000Y-115255000D02*
X73240000Y-115635000D01*
X73900000Y-85325000D02*
X73710000Y-83475000D01*
X73900000Y-86985000D02*
X73900000Y-85325000D01*
X74170000Y-99235000D02*
X73400000Y-99485000D01*
X74310000Y-106665000D02*
X75680000Y-106385000D01*
X74350000Y-114855000D02*
X73770000Y-115255000D01*
X74620000Y-50385000D02*
X75950000Y-50025000D01*
X74690000Y-99135000D02*
X74170000Y-99235000D01*
X74980000Y-114385000D02*
X74350000Y-114855000D01*
X75310000Y-138555000D02*
X75320000Y-137785000D01*
X75310000Y-141095000D02*
X75310000Y-138555000D01*
X75320000Y-137785000D02*
X75330000Y-134535000D01*
X75330000Y-134535000D02*
X75350000Y-132485000D01*
X75350000Y-132485000D02*
X75360000Y-131195000D01*
X75350000Y-143735000D02*
X75310000Y-141095000D01*
X75360000Y-131195000D02*
X75370000Y-130025000D01*
X75370000Y-130025000D02*
X75380000Y-128985000D01*
X75380000Y-114075000D02*
X74980000Y-114385000D01*
X75380000Y-128985000D02*
X75420000Y-126035000D01*
X75400000Y-99145000D02*
X74690000Y-99135000D01*
X75400000Y-145215000D02*
X75350000Y-143735000D01*
X75420000Y-99475000D02*
X75400000Y-99145000D01*
X75420000Y-126035000D02*
X75430000Y-124335000D01*
X75430000Y-124335000D02*
X75440000Y-123585000D01*
X75440000Y-123585000D02*
X75450000Y-121525000D01*
X75450000Y-121525000D02*
X75480000Y-119085000D01*
X75480000Y-119085000D02*
X75490000Y-117815000D01*
X75490000Y-117815000D02*
X75500000Y-116725000D01*
X75500000Y-100475000D02*
X75420000Y-99475000D01*
X75500000Y-116725000D02*
X75510000Y-115155000D01*
X75510000Y-115155000D02*
X75520000Y-114315000D01*
X75520000Y-114315000D02*
X75530000Y-113995000D01*
X75520000Y-146855000D02*
X75400000Y-145215000D01*
X75530000Y-113995000D02*
X75380000Y-114075000D01*
X75630000Y-147895000D02*
X75520000Y-146855000D01*
X75680000Y-106385000D02*
X75890000Y-106345000D01*
X75730000Y-103745000D02*
X75500000Y-100475000D01*
X75870000Y-106085000D02*
X75730000Y-103745000D01*
X75890000Y-106345000D02*
X75870000Y-106085000D01*
X75910000Y-149385000D02*
X75630000Y-147895000D01*
X75950000Y-50025000D02*
X76850000Y-49855000D01*
X76100000Y-150135000D02*
X75910000Y-149385000D01*
X76370000Y-151065000D02*
X76100000Y-150135000D01*
X76560000Y-151555000D02*
X76370000Y-151065000D01*
X76850000Y-49855000D02*
X77260000Y-49775000D01*
X77100000Y-152965000D02*
X76560000Y-151555000D01*
X77260000Y-49775000D02*
X77480000Y-49735000D01*
X77440000Y-153675000D02*
X77100000Y-152965000D01*
X77470000Y-168635000D02*
X77580000Y-168175000D01*
X77480000Y-49735000D02*
X77660000Y-49505000D01*
X77490000Y-169825000D02*
X77470000Y-168635000D01*
X77580000Y-168175000D02*
X78170000Y-166825000D01*
X77660000Y-49505000D02*
X77910000Y-48965000D01*
X77740000Y-154275000D02*
X77440000Y-153675000D01*
X77910000Y-48965000D02*
X78460000Y-47465000D01*
X77910000Y-170955000D02*
X77490000Y-169825000D01*
X78170000Y-166825000D02*
X79140000Y-165465000D01*
X78450000Y-155615000D02*
X77740000Y-154275000D01*
X78460000Y-47465000D02*
X78660000Y-46945000D01*
X78660000Y-46945000D02*
X79330000Y-45785000D01*
X78760000Y-171985000D02*
X77910000Y-170955000D01*
X78960000Y-156435000D02*
X78450000Y-155615000D01*
X79140000Y-165465000D02*
X80420000Y-164215000D01*
X79330000Y-45785000D02*
X80320000Y-44745000D01*
X79460000Y-172565000D02*
X78760000Y-171985000D01*
X79590000Y-157465000D02*
X78960000Y-156435000D01*
X79840000Y-157795000D02*
X79590000Y-157465000D01*
X80320000Y-44745000D02*
X80640000Y-44475000D01*
X80400000Y-173065000D02*
X79460000Y-172565000D01*
X80420000Y-164215000D02*
X81940000Y-163095000D01*
X80640000Y-44475000D02*
X81330000Y-43915000D01*
X81040000Y-159425000D02*
X79840000Y-157795000D01*
X81330000Y-43915000D02*
X81980000Y-43445000D01*
X81460000Y-159895000D02*
X81040000Y-159425000D01*
X81670000Y-173435000D02*
X80400000Y-173065000D01*
X81940000Y-163095000D02*
X83010000Y-162465000D01*
X81980000Y-43445000D02*
X82610000Y-42975000D01*
X82420000Y-173445000D02*
X81670000Y-173435000D01*
X82560000Y-161125000D02*
X81460000Y-159895000D01*
X82610000Y-42975000D02*
X83280000Y-42435000D01*
X82920000Y-161495000D02*
X82560000Y-161125000D01*
X83010000Y-162465000D02*
X83580000Y-162145000D01*
X83280000Y-42435000D02*
X83870000Y-41935000D01*
X83320000Y-173295000D02*
X82420000Y-173445000D01*
X83580000Y-162145000D02*
X82920000Y-161495000D01*
X83870000Y-41935000D02*
X84610000Y-41315000D01*
X84190000Y-173005000D02*
X83320000Y-173295000D01*
X84330000Y-172935000D02*
X84190000Y-173005000D01*
X84610000Y-41315000D02*
X85100000Y-40965000D01*
X84660000Y-172715000D02*
X84330000Y-172935000D01*
X85100000Y-40965000D02*
X85570000Y-40645000D01*
X85150000Y-172345000D02*
X84660000Y-172715000D01*
X85570000Y-40645000D02*
X86220000Y-40245000D01*
X85570000Y-172035000D02*
X85150000Y-172345000D01*
X86120000Y-171555000D02*
X85570000Y-172035000D01*
X86220000Y-40245000D02*
X87320000Y-39605000D01*
X86920000Y-170865000D02*
X86120000Y-171555000D01*
X87250000Y-170575000D02*
X86920000Y-170865000D01*
X87320000Y-39605000D02*
X87780000Y-39345000D01*
X87430000Y-170445000D02*
X87250000Y-170575000D01*
X87780000Y-39345000D02*
X88480000Y-38815000D01*
X88480000Y-38815000D02*
X88980000Y-38275000D01*
X88650000Y-169545000D02*
X87430000Y-170445000D01*
X88980000Y-38275000D02*
X89620000Y-37365000D01*
X89620000Y-37365000D02*
X90020000Y-36805000D01*
X89940000Y-168825000D02*
X88650000Y-169545000D01*
X90020000Y-36805000D02*
X91120000Y-35625000D01*
X90980000Y-168415000D02*
X89940000Y-168825000D01*
X91120000Y-35625000D02*
X91610000Y-35225000D01*
X91610000Y-35225000D02*
X92330000Y-34635000D01*
X91630000Y-168185000D02*
X90980000Y-168415000D01*
X92330000Y-34635000D02*
X93890000Y-33625000D01*
X92780000Y-167815000D02*
X91630000Y-168185000D01*
X93210000Y-167975000D02*
X92780000Y-167815000D01*
X93850000Y-168185000D02*
X93210000Y-167975000D01*
X93890000Y-33625000D02*
X95140000Y-32925000D01*
X95000000Y-168575000D02*
X93850000Y-168185000D01*
X95140000Y-32925000D02*
X96090000Y-32445000D01*
X95620000Y-168785000D02*
X95000000Y-168575000D01*
X96090000Y-32445000D02*
X97020000Y-31985000D01*
X96440000Y-169045000D02*
X95620000Y-168785000D01*
X97020000Y-31985000D02*
X97940000Y-31605000D01*
X97910000Y-169495000D02*
X96440000Y-169045000D01*
X97940000Y-31605000D02*
X98700000Y-31325000D01*
X98700000Y-31325000D02*
X99980000Y-30925000D01*
X99250000Y-169875000D02*
X97910000Y-169495000D01*
X99980000Y-30925000D02*
X101180000Y-30575000D01*
X101110000Y-170335000D02*
X99250000Y-169875000D01*
X101180000Y-30575000D02*
X102950000Y-30095000D01*
X102950000Y-30095000D02*
X104580000Y-29655000D01*
X103220000Y-170705000D02*
X101110000Y-170335000D01*
X104330000Y-170835000D02*
X103220000Y-170705000D01*
X104580000Y-29655000D02*
X105460000Y-29415000D01*
X105330000Y-170965000D02*
X104330000Y-170835000D01*
X105460000Y-29415000D02*
X106720000Y-29115000D01*
X105580000Y-170985000D02*
X105330000Y-170965000D01*
X106720000Y-29115000D02*
X108050000Y-28845000D01*
X107330000Y-171105000D02*
X105580000Y-170985000D01*
X108000000Y-171135000D02*
X107330000Y-171105000D01*
X108050000Y-28845000D02*
X109380000Y-28645000D01*
X109380000Y-28645000D02*
X110750000Y-28565000D01*
X110020000Y-171205000D02*
X108000000Y-171135000D01*
X110750000Y-28565000D02*
X111940000Y-28555000D01*
X110900000Y-171225000D02*
X110020000Y-171205000D01*
X111940000Y-28555000D02*
X113190000Y-28575000D01*
X112660000Y-171235000D02*
X110900000Y-171225000D01*
X113190000Y-28575000D02*
X114620000Y-28625000D01*
X114000000Y-171225000D02*
X112660000Y-171235000D01*
X114620000Y-28625000D02*
X115950000Y-28685000D01*
X115950000Y-28685000D02*
X117950000Y-28795000D01*
X116950000Y-171195000D02*
X114000000Y-171225000D01*
X117950000Y-28795000D02*
X119180000Y-28895000D01*
X118260000Y-171155000D02*
X116950000Y-171195000D01*
X119180000Y-28895000D02*
X120330000Y-29015000D01*
X119420000Y-171085000D02*
X118260000Y-171155000D01*
X120330000Y-29015000D02*
X121080000Y-29135000D01*
X120360000Y-170995000D02*
X119420000Y-171085000D01*
X121080000Y-29135000D02*
X121880000Y-29395000D01*
X121160000Y-170905000D02*
X120360000Y-170995000D01*
X121880000Y-29395000D02*
X122920000Y-29765000D01*
X122630000Y-170685000D02*
X121160000Y-170905000D01*
X122920000Y-29765000D02*
X124700000Y-30405000D01*
X124700000Y-30405000D02*
X125860000Y-30845000D01*
X125860000Y-30845000D02*
X127230000Y-31365000D01*
X127010000Y-169785000D02*
X122630000Y-170685000D01*
X127230000Y-31365000D02*
X128650000Y-31905000D01*
X128420000Y-169445000D02*
X127010000Y-169785000D01*
X128650000Y-31905000D02*
X130200000Y-32505000D01*
X130200000Y-32505000D02*
X131400000Y-32965000D01*
X131370000Y-168555000D02*
X128420000Y-169445000D01*
X131400000Y-32965000D02*
X133130000Y-33675000D01*
X132280000Y-168235000D02*
X131370000Y-168555000D01*
X133130000Y-33675000D02*
X134140000Y-34125000D01*
X133960000Y-167615000D02*
X132280000Y-168235000D01*
X134090000Y-167545000D02*
X133960000Y-167615000D01*
X134140000Y-34125000D02*
X134780000Y-34505000D01*
X134780000Y-34505000D02*
X135420000Y-34975000D01*
X135140000Y-167075000D02*
X134090000Y-167545000D01*
X135420000Y-34975000D02*
X136470000Y-35865000D01*
X136470000Y-35865000D02*
X137400000Y-36725000D01*
X137160000Y-166095000D02*
X135140000Y-167075000D01*
X137400000Y-36725000D02*
X138180000Y-37485000D01*
X137500000Y-166335000D02*
X137160000Y-166095000D01*
X137990000Y-166675000D02*
X137500000Y-166335000D01*
X138180000Y-37485000D02*
X138730000Y-38025000D01*
X138610000Y-167125000D02*
X137990000Y-166675000D01*
X138730000Y-38025000D02*
X139750000Y-38995000D01*
X139010000Y-167445000D02*
X138610000Y-167125000D01*
X139570000Y-167975000D02*
X139010000Y-167445000D01*
X139700000Y-168115000D02*
X139570000Y-167975000D01*
X139750000Y-38995000D02*
X140530000Y-39695000D01*
X140470000Y-168955000D02*
X139700000Y-168115000D01*
X140530000Y-39695000D02*
X140980000Y-40105000D01*
X140980000Y-40105000D02*
X141710000Y-40685000D01*
X141110000Y-169695000D02*
X140470000Y-168955000D01*
X141710000Y-40685000D02*
X142050000Y-40975000D01*
X142050000Y-40975000D02*
X142730000Y-41485000D01*
X142070000Y-170835000D02*
X141110000Y-169695000D01*
X142730000Y-41485000D02*
X143610000Y-42115000D01*
X142840000Y-171675000D02*
X142070000Y-170835000D01*
X143610000Y-42115000D02*
X143780000Y-42245000D01*
X143680000Y-172285000D02*
X142840000Y-171675000D01*
X143780000Y-42245000D02*
X144370000Y-42655000D01*
X144370000Y-42655000D02*
X144550000Y-42805000D01*
X144550000Y-42805000D02*
X145360000Y-43495000D01*
X144590000Y-172605000D02*
X143680000Y-172285000D01*
X144660000Y-160635000D02*
X144830000Y-160785000D01*
X144690000Y-160435000D02*
X144660000Y-160635000D01*
X144830000Y-160785000D02*
X145520000Y-161285000D01*
X144930000Y-160095000D02*
X144690000Y-160435000D01*
X145360000Y-43495000D02*
X146110000Y-44365000D01*
X145520000Y-161285000D02*
X146120000Y-161715000D01*
X145530000Y-159415000D02*
X144930000Y-160095000D01*
X145680000Y-172685000D02*
X144590000Y-172605000D01*
X145880000Y-172665000D02*
X145680000Y-172685000D01*
X146110000Y-44365000D02*
X146670000Y-45275000D01*
X146120000Y-161715000D02*
X147340000Y-162875000D01*
X146400000Y-158395000D02*
X145530000Y-159415000D01*
X146670000Y-45275000D02*
X147160000Y-46485000D01*
X147160000Y-46485000D02*
X147400000Y-47135000D01*
X147160000Y-172435000D02*
X145880000Y-172665000D01*
X147170000Y-157335000D02*
X146400000Y-158395000D01*
X147340000Y-162875000D02*
X148440000Y-164185000D01*
X147400000Y-47135000D02*
X147600000Y-47675000D01*
X147600000Y-47675000D02*
X147690000Y-47935000D01*
X147690000Y-47935000D02*
X148290000Y-48035000D01*
X148290000Y-48035000D02*
X149210000Y-48195000D01*
X148300000Y-171875000D02*
X147160000Y-172435000D01*
X148310000Y-155645000D02*
X147170000Y-157335000D01*
X148440000Y-164185000D02*
X149340000Y-165525000D01*
X149210000Y-48195000D02*
X151090000Y-48735000D01*
X149220000Y-171085000D02*
X148300000Y-171875000D01*
X149340000Y-165525000D02*
X149980000Y-166865000D01*
X149590000Y-153275000D02*
X148310000Y-155645000D01*
X149910000Y-170075000D02*
X149220000Y-171085000D01*
X149980000Y-166865000D02*
X150240000Y-167765000D01*
X150240000Y-167765000D02*
X150250000Y-168955000D01*
X150250000Y-168955000D02*
X149910000Y-170075000D01*
X150690000Y-150725000D02*
X149590000Y-153275000D01*
X151090000Y-48735000D02*
X152760000Y-49625000D01*
X151680000Y-147535000D02*
X150690000Y-150725000D01*
X152160000Y-145445000D02*
X151680000Y-147535000D01*
X152320000Y-93125000D02*
X152320000Y-94625000D01*
X152320000Y-94625000D02*
X152500000Y-94705000D01*
X152330000Y-92145000D02*
X152320000Y-93125000D01*
X152340000Y-102655000D02*
X152350000Y-103315000D01*
X152350000Y-101985000D02*
X152340000Y-102655000D01*
X152350000Y-103315000D02*
X152380000Y-104005000D01*
X152380000Y-104005000D02*
X152420000Y-104555000D01*
X152400000Y-91165000D02*
X152330000Y-92145000D01*
X152400000Y-101795000D02*
X152350000Y-101985000D01*
X152420000Y-104555000D02*
X152460000Y-104945000D01*
X152460000Y-104945000D02*
X152490000Y-105155000D01*
X152490000Y-105155000D02*
X152500000Y-105205000D01*
X152500000Y-94705000D02*
X153430000Y-95255000D01*
X152500000Y-105205000D02*
X152550000Y-105385000D01*
X152500000Y-143785000D02*
X152160000Y-145445000D01*
X152550000Y-90465000D02*
X152400000Y-91165000D01*
X152550000Y-105385000D02*
X152790000Y-105485000D01*
X152610000Y-101885000D02*
X152400000Y-101795000D01*
X152670000Y-75425000D02*
X152670000Y-75875000D01*
X152670000Y-75875000D02*
X152880000Y-76645000D01*
X152690000Y-74525000D02*
X152670000Y-75425000D01*
X152730000Y-74005000D02*
X152690000Y-74525000D01*
X152760000Y-49625000D02*
X154140000Y-50855000D01*
X152790000Y-105485000D02*
X153430000Y-105675000D01*
X152820000Y-89755000D02*
X152550000Y-90465000D01*
X152830000Y-72305000D02*
X152730000Y-74005000D01*
X152880000Y-76645000D02*
X153310000Y-77265000D01*
X152890000Y-113655000D02*
X152920000Y-113725000D01*
X152920000Y-113725000D02*
X153000000Y-114825000D01*
X152930000Y-140905000D02*
X152500000Y-143785000D01*
X152950000Y-102045000D02*
X152610000Y-101885000D01*
X152960000Y-70605000D02*
X152830000Y-72305000D01*
X152970000Y-113725000D02*
X152890000Y-113655000D01*
X153000000Y-114825000D02*
X153120000Y-116715000D01*
X153080000Y-69455000D02*
X152960000Y-70605000D01*
X153090000Y-139445000D02*
X152930000Y-140905000D01*
X153120000Y-116715000D02*
X153250000Y-118755000D01*
X153150000Y-113855000D02*
X152970000Y-113725000D01*
X153200000Y-68595000D02*
X153080000Y-69455000D01*
X153250000Y-88745000D02*
X152820000Y-89755000D01*
X153250000Y-118755000D02*
X153420000Y-122295000D01*
X153270000Y-137505000D02*
X153090000Y-139445000D01*
X153310000Y-68095000D02*
X153200000Y-68595000D01*
X153310000Y-77265000D02*
X153700000Y-77785000D01*
X153410000Y-135325000D02*
X153270000Y-137505000D01*
X153420000Y-114055000D02*
X153150000Y-113855000D01*
X153420000Y-122295000D02*
X153560000Y-126485000D01*
X153430000Y-95255000D02*
X154880000Y-96195000D01*
X153430000Y-105675000D02*
X154310000Y-105915000D01*
X153440000Y-67605000D02*
X153310000Y-68095000D01*
X153490000Y-133635000D02*
X153410000Y-135325000D01*
X153550000Y-132075000D02*
X153490000Y-133635000D01*
X153560000Y-66895000D02*
X153440000Y-67605000D01*
X153560000Y-126485000D02*
X153560000Y-128065000D01*
X153560000Y-128065000D02*
X153550000Y-132075000D01*
X153640000Y-87785000D02*
X153250000Y-88745000D01*
X153670000Y-65935000D02*
X153560000Y-66895000D01*
X153700000Y-77785000D02*
X153830000Y-77995000D01*
X153720000Y-65055000D02*
X153670000Y-65935000D01*
X153720000Y-102445000D02*
X152950000Y-102045000D01*
X153830000Y-64425000D02*
X153720000Y-65055000D01*
X153830000Y-77995000D02*
X153980000Y-78275000D01*
X153900000Y-114355000D02*
X153420000Y-114055000D01*
X153980000Y-78275000D02*
X154170000Y-78795000D01*
X153990000Y-86615000D02*
X153640000Y-87785000D01*
X154070000Y-63945000D02*
X153830000Y-64425000D01*
X154140000Y-50855000D02*
X155240000Y-52425000D01*
X154170000Y-78795000D02*
X154320000Y-79995000D01*
X154220000Y-85435000D02*
X153990000Y-86615000D01*
X154310000Y-105915000D02*
X154830000Y-106045000D01*
X154320000Y-79995000D02*
X154350000Y-80655000D01*
X154330000Y-84105000D02*
X154220000Y-85435000D01*
X154340000Y-83535000D02*
X154330000Y-84105000D01*
X154350000Y-80655000D02*
X154360000Y-82835000D01*
X154360000Y-82835000D02*
X154340000Y-83535000D01*
X154520000Y-114755000D02*
X153900000Y-114355000D01*
X154540000Y-102805000D02*
X153720000Y-102445000D01*
X154700000Y-63095000D02*
X154070000Y-63945000D01*
X154830000Y-106045000D02*
X155420000Y-106215000D01*
X154880000Y-96195000D02*
X156240000Y-97095000D01*
X155240000Y-52425000D02*
X155520000Y-52985000D01*
X155310000Y-62215000D02*
X154700000Y-63095000D01*
X155420000Y-106215000D02*
X155920000Y-106355000D01*
X155520000Y-52985000D02*
X156190000Y-54835000D01*
X155760000Y-103205000D02*
X154540000Y-102805000D01*
X155870000Y-115315000D02*
X154520000Y-114755000D01*
X155920000Y-106355000D02*
X156340000Y-106475000D01*
X156060000Y-60495000D02*
X155310000Y-62215000D01*
X156190000Y-54835000D02*
X156480000Y-56745000D01*
X156240000Y-97095000D02*
X156850000Y-97545000D01*
X156340000Y-106475000D02*
X156770000Y-106605000D01*
X156450000Y-58665000D02*
X156060000Y-60495000D01*
X156480000Y-56745000D02*
X156450000Y-58665000D01*
X156770000Y-106605000D02*
X156920000Y-106665000D01*
X156780000Y-103455000D02*
X155760000Y-103205000D01*
X156850000Y-97545000D02*
X157450000Y-98015000D01*
X156920000Y-106665000D02*
X157670000Y-106955000D01*
X157180000Y-115475000D02*
X155870000Y-115315000D01*
X157450000Y-98015000D02*
X157630000Y-98135000D01*
X157630000Y-98135000D02*
X158420000Y-98735000D01*
X157670000Y-106955000D02*
X158310000Y-107205000D01*
X157760000Y-103665000D02*
X156780000Y-103455000D01*
X158310000Y-107205000D02*
X158440000Y-107275000D01*
X158340000Y-115235000D02*
X157180000Y-115475000D01*
X158420000Y-98735000D02*
X158660000Y-98915000D01*
X158440000Y-107275000D02*
X159030000Y-107605000D01*
X158520000Y-103835000D02*
X157760000Y-103665000D01*
X158660000Y-98915000D02*
X159170000Y-99215000D01*
X159030000Y-107605000D02*
X159460000Y-107845000D01*
X159170000Y-99215000D02*
X159460000Y-99305000D01*
X159340000Y-114605000D02*
X158340000Y-115235000D01*
X159460000Y-99305000D02*
X160100000Y-99125000D01*
X159460000Y-107845000D02*
X160220000Y-108525000D01*
X159490000Y-104105000D02*
X158520000Y-103835000D01*
X160100000Y-99125000D02*
X160760000Y-98555000D01*
X160170000Y-113595000D02*
X159340000Y-114605000D01*
X160220000Y-108525000D02*
X160580000Y-109125000D01*
X160240000Y-104365000D02*
X159490000Y-104105000D01*
X160430000Y-113155000D02*
X160170000Y-113595000D01*
X160580000Y-109125000D02*
X160750000Y-109675000D01*
X160690000Y-112525000D02*
X160430000Y-113155000D01*
X160750000Y-109675000D02*
X160810000Y-110435000D01*
X160760000Y-98555000D02*
X161500000Y-97615000D01*
X160800000Y-111745000D02*
X160690000Y-112525000D01*
X160810000Y-110435000D02*
X160820000Y-110965000D01*
X160820000Y-110965000D02*
X160800000Y-111745000D01*
X161120000Y-104355000D02*
X160240000Y-104365000D01*
X161500000Y-97615000D02*
X161880000Y-97025000D01*
X161880000Y-97025000D02*
X162070000Y-96775000D01*
X161990000Y-103975000D02*
X161120000Y-104355000D01*
X162070000Y-96775000D02*
X162340000Y-96385000D01*
X162340000Y-96385000D02*
X163190000Y-95375000D01*
X162470000Y-103595000D02*
X161990000Y-103975000D01*
X162840000Y-103275000D02*
X162470000Y-103595000D01*
X163080000Y-102965000D02*
X162840000Y-103275000D01*
X163190000Y-95375000D02*
X163770000Y-94735000D01*
X163570000Y-102315000D02*
X163080000Y-102965000D01*
X163770000Y-94735000D02*
X164320000Y-94175000D01*
X163780000Y-101855000D02*
X163570000Y-102315000D01*
X164200000Y-100975000D02*
X163780000Y-101855000D01*
X164320000Y-94175000D02*
X164890000Y-93655000D01*
X164400000Y-100445000D02*
X164200000Y-100975000D01*
X164440000Y-100375000D02*
X164400000Y-100445000D01*
X164890000Y-93655000D02*
X165350000Y-93275000D01*
X164950000Y-99495000D02*
X164440000Y-100375000D01*
X165240000Y-99185000D02*
X164950000Y-99495000D01*
X165350000Y-93275000D02*
X165880000Y-92915000D01*
X165770000Y-98595000D02*
X165240000Y-99185000D01*
X165880000Y-92915000D02*
X166080000Y-92845000D01*
X166080000Y-92845000D02*
X166660000Y-92675000D01*
X166380000Y-98005000D02*
X165770000Y-98595000D01*
X166660000Y-92675000D02*
X167750000Y-92295000D01*
X166750000Y-97675000D02*
X166380000Y-98005000D01*
X167240000Y-97255000D02*
X166750000Y-97675000D01*
X167720000Y-96915000D02*
X167240000Y-97255000D01*
X167750000Y-92295000D02*
X168290000Y-92135000D01*
X168230000Y-96645000D02*
X167720000Y-96915000D01*
X168290000Y-92135000D02*
X169190000Y-91875000D01*
X168680000Y-96395000D02*
X168230000Y-96645000D01*
X169190000Y-91875000D02*
X170250000Y-91825000D01*
X169480000Y-96005000D02*
X168680000Y-96395000D01*
X170140000Y-95605000D02*
X169480000Y-96005000D01*
X170250000Y-91825000D02*
X170320000Y-91845000D01*
X170320000Y-91845000D02*
X171090000Y-92115000D01*
X170650000Y-95285000D02*
X170140000Y-95605000D01*
X171090000Y-92115000D02*
X171380000Y-92365000D01*
X171380000Y-92365000D02*
X171820000Y-93055000D01*
X171460000Y-94525000D02*
X170650000Y-95285000D01*
X171820000Y-93055000D02*
X171850000Y-93775000D01*
X171850000Y-93775000D02*
X171460000Y-94525000D01*
%TD*%
M02*
