%TF.GenerationSoftware,KiCad,Pcbnew,9.0.7-9.0.7~ubuntu24.04.1*%
%TF.CreationDate,2026-04-29T15:23:09+09:00*%
%TF.ProjectId,gopher_pirot,676f7068-6572-45f7-9069-726f742e6b69,rev?*%
%TF.SameCoordinates,Original*%
%TF.FileFunction,Legend,Top*%
%TF.FilePolarity,Positive*%
%FSLAX46Y46*%
G04 Gerber Fmt 4.6, Leading zero omitted, Abs format (unit mm)*
G04 Created by KiCad (PCBNEW 9.0.7-9.0.7~ubuntu24.04.1) date 2026-04-29 15:23:09*
%MOMM*%
%LPD*%
G01*
G04 APERTURE LIST*
%ADD10C,0.150000*%
%ADD11C,0.120000*%
%ADD12C,0.100000*%
G04 APERTURE END LIST*
D10*
X123485714Y-60304819D02*
X122914286Y-60304819D01*
X123200000Y-60304819D02*
X123200000Y-59304819D01*
X123200000Y-59304819D02*
X123104762Y-59447676D01*
X123104762Y-59447676D02*
X123009524Y-59542914D01*
X123009524Y-59542914D02*
X122914286Y-59590533D01*
X113366666Y-29454819D02*
X113033333Y-28978628D01*
X112795238Y-29454819D02*
X112795238Y-28454819D01*
X112795238Y-28454819D02*
X113176190Y-28454819D01*
X113176190Y-28454819D02*
X113271428Y-28502438D01*
X113271428Y-28502438D02*
X113319047Y-28550057D01*
X113319047Y-28550057D02*
X113366666Y-28645295D01*
X113366666Y-28645295D02*
X113366666Y-28788152D01*
X113366666Y-28788152D02*
X113319047Y-28883390D01*
X113319047Y-28883390D02*
X113271428Y-28931009D01*
X113271428Y-28931009D02*
X113176190Y-28978628D01*
X113176190Y-28978628D02*
X112795238Y-28978628D01*
X113795238Y-28931009D02*
X114128571Y-28931009D01*
X114271428Y-29454819D02*
X113795238Y-29454819D01*
X113795238Y-29454819D02*
X113795238Y-28454819D01*
X113795238Y-28454819D02*
X114271428Y-28454819D01*
X115033333Y-28931009D02*
X114700000Y-28931009D01*
X114700000Y-29454819D02*
X114700000Y-28454819D01*
X114700000Y-28454819D02*
X115176190Y-28454819D01*
X115700000Y-28454819D02*
X115700000Y-28692914D01*
X115461905Y-28597676D02*
X115700000Y-28692914D01*
X115700000Y-28692914D02*
X115938095Y-28597676D01*
X115557143Y-28883390D02*
X115700000Y-28692914D01*
X115700000Y-28692914D02*
X115842857Y-28883390D01*
X116461905Y-28454819D02*
X116461905Y-28692914D01*
X116223810Y-28597676D02*
X116461905Y-28692914D01*
X116461905Y-28692914D02*
X116700000Y-28597676D01*
X116319048Y-28883390D02*
X116461905Y-28692914D01*
X116461905Y-28692914D02*
X116604762Y-28883390D01*
X93485714Y-61304819D02*
X92914286Y-61304819D01*
X93200000Y-61304819D02*
X93200000Y-60304819D01*
X93200000Y-60304819D02*
X93104762Y-60447676D01*
X93104762Y-60447676D02*
X93009524Y-60542914D01*
X93009524Y-60542914D02*
X92914286Y-60590533D01*
D11*
%TO.C,D2*%
X123700000Y-58700000D02*
X131000000Y-58700000D01*
X123700000Y-64200000D02*
X131000000Y-64200000D01*
X131000000Y-64200000D02*
X131000000Y-63050000D01*
%TO.C,SW5*%
X136950000Y-140300000D02*
X136950000Y-141800000D01*
X138200000Y-144300000D02*
X142700000Y-144300000D01*
X142700000Y-137800000D02*
X138200000Y-137800000D01*
X143950000Y-141800000D02*
X143950000Y-140300000D01*
%TO.C,SW1*%
X87650000Y-138100000D02*
X87650000Y-139600000D01*
X88900000Y-142100000D02*
X93400000Y-142100000D01*
X93400000Y-135600000D02*
X88900000Y-135600000D01*
X94650000Y-139600000D02*
X94650000Y-138100000D01*
%TO.C,SW6*%
X138950000Y-151100000D02*
X138950000Y-152600000D01*
X140200000Y-155100000D02*
X144700000Y-155100000D01*
X144700000Y-148600000D02*
X140200000Y-148600000D01*
X145950000Y-152600000D02*
X145950000Y-151100000D01*
%TO.C,J1*%
X80140000Y-123340000D02*
X81200000Y-123340000D01*
X80140000Y-124400000D02*
X80140000Y-123340000D01*
X80140000Y-125400000D02*
X80140000Y-131460000D01*
X80140000Y-125400000D02*
X82260000Y-125400000D01*
X80140000Y-131460000D02*
X82260000Y-131460000D01*
X82260000Y-125400000D02*
X82260000Y-131460000D01*
%TO.C,SW3*%
X95650000Y-146900000D02*
X95650000Y-148400000D01*
X96900000Y-150900000D02*
X101400000Y-150900000D01*
X101400000Y-144400000D02*
X96900000Y-144400000D01*
X102650000Y-148400000D02*
X102650000Y-146900000D01*
%TO.C,SW4*%
X87550000Y-155200000D02*
X87550000Y-156700000D01*
X88800000Y-159200000D02*
X93300000Y-159200000D01*
X93300000Y-152700000D02*
X88800000Y-152700000D01*
X94550000Y-156700000D02*
X94550000Y-155200000D01*
%TO.C,U2*%
X90770000Y-120530000D02*
X90770000Y-102690000D01*
X90770000Y-123130000D02*
X90770000Y-121800000D01*
X92100000Y-123130000D02*
X90770000Y-123130000D01*
X93430000Y-102690000D02*
X90770000Y-102690000D01*
X93430000Y-120530000D02*
X90770000Y-120530000D01*
X93430000Y-120530000D02*
X93430000Y-102690000D01*
%TO.C,G\u002A\u002A\u002A*%
X102290001Y-62515000D02*
G75*
G02*
X92718699Y-62515000I-4785651J0D01*
G01*
X92718699Y-62515000D02*
G75*
G02*
X102290001Y-62515000I4785651J0D01*
G01*
X132120001Y-61225000D02*
G75*
G02*
X122548699Y-61225000I-4785651J0D01*
G01*
X122548699Y-61225000D02*
G75*
G02*
X132120001Y-61225000I4785651J0D01*
G01*
D12*
X115260000Y-81605000D02*
X116810000Y-82175000D01*
X117690000Y-82565000D01*
X117790000Y-83685000D01*
X117830000Y-84885000D01*
X117830000Y-87395000D01*
X117780000Y-87685000D01*
X117740000Y-88065000D01*
X117520000Y-88415000D01*
X117260000Y-88705000D01*
X116880000Y-88955000D01*
X116130000Y-89205000D01*
X115320000Y-89105000D01*
X114560000Y-88705000D01*
X113990000Y-88255000D01*
X113990000Y-86265000D01*
X113970000Y-84415000D01*
X114010000Y-83285000D01*
X114080000Y-81835000D01*
X114080000Y-81425000D01*
X114170000Y-81255000D01*
X115260000Y-81605000D01*
G36*
X115260000Y-81605000D02*
G01*
X116810000Y-82175000D01*
X117690000Y-82565000D01*
X117790000Y-83685000D01*
X117830000Y-84885000D01*
X117830000Y-87395000D01*
X117780000Y-87685000D01*
X117740000Y-88065000D01*
X117520000Y-88415000D01*
X117260000Y-88705000D01*
X116880000Y-88955000D01*
X116130000Y-89205000D01*
X115320000Y-89105000D01*
X114560000Y-88705000D01*
X113990000Y-88255000D01*
X113990000Y-86265000D01*
X113970000Y-84415000D01*
X114010000Y-83285000D01*
X114080000Y-81835000D01*
X114080000Y-81425000D01*
X114170000Y-81255000D01*
X115260000Y-81605000D01*
G37*
X112670000Y-82315000D02*
X112670000Y-83825000D01*
X112670000Y-85075000D01*
X112660000Y-86485000D01*
X112670000Y-88095000D01*
X112160000Y-88565000D01*
X112010000Y-88705000D01*
X111430000Y-89055000D01*
X110630000Y-89165000D01*
X110030000Y-89125000D01*
X109570000Y-89015000D01*
X109220000Y-88775000D01*
X108900000Y-88245000D01*
X108820000Y-88065000D01*
X108730000Y-87685000D01*
X108690000Y-87105000D01*
X108690000Y-86145000D01*
X108720000Y-85265000D01*
X108780000Y-84175000D01*
X108850000Y-82965000D01*
X108870000Y-82445000D01*
X109550000Y-82135000D01*
X110270000Y-81825000D01*
X110760000Y-81625000D01*
X111600000Y-81305000D01*
X112140000Y-81145000D01*
X112670000Y-81015000D01*
X112670000Y-82315000D01*
G36*
X112670000Y-82315000D02*
G01*
X112670000Y-83825000D01*
X112670000Y-85075000D01*
X112660000Y-86485000D01*
X112670000Y-88095000D01*
X112160000Y-88565000D01*
X112010000Y-88705000D01*
X111430000Y-89055000D01*
X110630000Y-89165000D01*
X110030000Y-89125000D01*
X109570000Y-89015000D01*
X109220000Y-88775000D01*
X108900000Y-88245000D01*
X108820000Y-88065000D01*
X108730000Y-87685000D01*
X108690000Y-87105000D01*
X108690000Y-86145000D01*
X108720000Y-85265000D01*
X108780000Y-84175000D01*
X108850000Y-82965000D01*
X108870000Y-82445000D01*
X109550000Y-82135000D01*
X110270000Y-81825000D01*
X110760000Y-81625000D01*
X111600000Y-81305000D01*
X112140000Y-81145000D01*
X112670000Y-81015000D01*
X112670000Y-82315000D01*
G37*
X99660000Y-52165000D02*
X101540000Y-52645000D01*
X103320000Y-53495000D01*
X105020000Y-54715000D01*
X106350000Y-56115000D01*
X107510000Y-57945000D01*
X107980000Y-58995000D01*
X108560000Y-60995000D01*
X102290000Y-62515000D01*
X102280000Y-61755000D01*
X101980000Y-60705000D01*
X101590000Y-59955000D01*
X101160000Y-59385000D01*
X100650000Y-58865000D01*
X99920000Y-58325000D01*
X99240000Y-58005000D01*
X98520000Y-57795000D01*
X97640000Y-57695000D01*
X96940000Y-57725000D01*
X96300000Y-57835000D01*
X95720000Y-58035000D01*
X95080000Y-58335000D01*
X94720000Y-58605000D01*
X94290000Y-58945000D01*
X93630000Y-59645000D01*
X88430000Y-56935000D01*
X89750000Y-55305000D01*
X90270000Y-54825000D01*
X91950000Y-53585000D01*
X93810000Y-52685000D01*
X95690000Y-52185000D01*
X97670000Y-51985000D01*
X99660000Y-52165000D01*
G36*
X99660000Y-52165000D02*
G01*
X101540000Y-52645000D01*
X103320000Y-53495000D01*
X105020000Y-54715000D01*
X106350000Y-56115000D01*
X107510000Y-57945000D01*
X107980000Y-58995000D01*
X108560000Y-60995000D01*
X102290000Y-62515000D01*
X102280000Y-61755000D01*
X101980000Y-60705000D01*
X101590000Y-59955000D01*
X101160000Y-59385000D01*
X100650000Y-58865000D01*
X99920000Y-58325000D01*
X99240000Y-58005000D01*
X98520000Y-57795000D01*
X97640000Y-57695000D01*
X96940000Y-57725000D01*
X96300000Y-57835000D01*
X95720000Y-58035000D01*
X95080000Y-58335000D01*
X94720000Y-58605000D01*
X94290000Y-58945000D01*
X93630000Y-59645000D01*
X88430000Y-56935000D01*
X89750000Y-55305000D01*
X90270000Y-54825000D01*
X91950000Y-53585000D01*
X93810000Y-52685000D01*
X95690000Y-52185000D01*
X97670000Y-51985000D01*
X99660000Y-52165000D01*
G37*
X130390000Y-51045000D02*
X132350000Y-51815000D01*
X134100000Y-52895000D01*
X135600000Y-54315000D01*
X136840000Y-55985000D01*
X137720000Y-57865000D01*
X132070000Y-60535000D01*
X131940000Y-59755000D01*
X131640000Y-59035000D01*
X131180000Y-58325000D01*
X130490000Y-57565000D01*
X129530000Y-56925000D01*
X128670000Y-56585000D01*
X127520000Y-56415000D01*
X126610000Y-56445000D01*
X125640000Y-56705000D01*
X124910000Y-57055000D01*
X124260000Y-57515000D01*
X123830000Y-57915000D01*
X123420000Y-58425000D01*
X123100000Y-58915000D01*
X122930000Y-59305000D01*
X122740000Y-59775000D01*
X116540000Y-58925000D01*
X116770000Y-58165000D01*
X117630000Y-56255000D01*
X118870000Y-54495000D01*
X120320000Y-53065000D01*
X122040000Y-51935000D01*
X123920000Y-51125000D01*
X126000000Y-50695000D01*
X128180000Y-50645000D01*
X130390000Y-51045000D01*
G36*
X130390000Y-51045000D02*
G01*
X132350000Y-51815000D01*
X134100000Y-52895000D01*
X135600000Y-54315000D01*
X136840000Y-55985000D01*
X137720000Y-57865000D01*
X132070000Y-60535000D01*
X131940000Y-59755000D01*
X131640000Y-59035000D01*
X131180000Y-58325000D01*
X130490000Y-57565000D01*
X129530000Y-56925000D01*
X128670000Y-56585000D01*
X127520000Y-56415000D01*
X126610000Y-56445000D01*
X125640000Y-56705000D01*
X124910000Y-57055000D01*
X124260000Y-57515000D01*
X123830000Y-57915000D01*
X123420000Y-58425000D01*
X123100000Y-58915000D01*
X122930000Y-59305000D01*
X122740000Y-59775000D01*
X116540000Y-58925000D01*
X116770000Y-58165000D01*
X117630000Y-56255000D01*
X118870000Y-54495000D01*
X120320000Y-53065000D01*
X122040000Y-51935000D01*
X123920000Y-51125000D01*
X126000000Y-50695000D01*
X128180000Y-50645000D01*
X130390000Y-51045000D01*
G37*
X170420000Y-92825000D02*
X170800000Y-93065000D01*
X170970000Y-93535000D01*
X170740000Y-94055000D01*
X170100000Y-94605000D01*
X169650000Y-94865000D01*
X169280000Y-95075000D01*
X169010000Y-95225000D01*
X168670000Y-95395000D01*
X168250000Y-95595000D01*
X168010000Y-95715000D01*
X167660000Y-95855000D01*
X167480000Y-95935000D01*
X167250000Y-95965000D01*
X167170000Y-95855000D01*
X167160000Y-95615000D01*
X167180000Y-95485000D01*
X167480000Y-95155000D01*
X167750000Y-95025000D01*
X168040000Y-94885000D01*
X168180000Y-94815000D01*
X168300000Y-94765000D01*
X168550000Y-94665000D01*
X168860000Y-94535000D01*
X169340000Y-94265000D01*
X169490000Y-94025000D01*
X169360000Y-93775000D01*
X169210000Y-93675000D01*
X168820000Y-93675000D01*
X168170000Y-93875000D01*
X167970000Y-93955000D01*
X167670000Y-94065000D01*
X167310000Y-94165000D01*
X167090000Y-94225000D01*
X166850000Y-94185000D01*
X166810000Y-94175000D01*
X166750000Y-94005000D01*
X166750000Y-93935000D01*
X166780000Y-93845000D01*
X167140000Y-93555000D01*
X167710000Y-93275000D01*
X168470000Y-92995000D01*
X169190000Y-92795000D01*
X169840000Y-92725000D01*
X170420000Y-92825000D01*
G36*
X170420000Y-92825000D02*
G01*
X170800000Y-93065000D01*
X170970000Y-93535000D01*
X170740000Y-94055000D01*
X170100000Y-94605000D01*
X169650000Y-94865000D01*
X169280000Y-95075000D01*
X169010000Y-95225000D01*
X168670000Y-95395000D01*
X168250000Y-95595000D01*
X168010000Y-95715000D01*
X167660000Y-95855000D01*
X167480000Y-95935000D01*
X167250000Y-95965000D01*
X167170000Y-95855000D01*
X167160000Y-95615000D01*
X167180000Y-95485000D01*
X167480000Y-95155000D01*
X167750000Y-95025000D01*
X168040000Y-94885000D01*
X168180000Y-94815000D01*
X168300000Y-94765000D01*
X168550000Y-94665000D01*
X168860000Y-94535000D01*
X169340000Y-94265000D01*
X169490000Y-94025000D01*
X169360000Y-93775000D01*
X169210000Y-93675000D01*
X168820000Y-93675000D01*
X168170000Y-93875000D01*
X167970000Y-93955000D01*
X167670000Y-94065000D01*
X167310000Y-94165000D01*
X167090000Y-94225000D01*
X166850000Y-94185000D01*
X166810000Y-94175000D01*
X166750000Y-94005000D01*
X166750000Y-93935000D01*
X166780000Y-93845000D01*
X167140000Y-93555000D01*
X167710000Y-93275000D01*
X168470000Y-92995000D01*
X169190000Y-92795000D01*
X169840000Y-92725000D01*
X170420000Y-92825000D01*
G37*
X138290000Y-59935000D02*
X138420000Y-60855000D01*
X138350000Y-62825000D01*
X137910000Y-64825000D01*
X137180000Y-66635000D01*
X136110000Y-68255000D01*
X134620000Y-69795000D01*
X132950000Y-70995000D01*
X131090000Y-71905000D01*
X130020000Y-72195000D01*
X128630000Y-72405000D01*
X127160000Y-72485000D01*
X125770000Y-72435000D01*
X124590000Y-72265000D01*
X123610000Y-71995000D01*
X121730000Y-71095000D01*
X120110000Y-69935000D01*
X118710000Y-68505000D01*
X117600000Y-66785000D01*
X116760000Y-64955000D01*
X116280000Y-63075000D01*
X116200000Y-61085000D01*
X116540000Y-58925000D01*
X122740000Y-59775000D01*
X122530000Y-60945000D01*
X122580000Y-62135000D01*
X122840000Y-62985000D01*
X123220000Y-63795000D01*
X124010000Y-64695000D01*
X124400000Y-65065000D01*
X125340000Y-65605000D01*
X126060000Y-65875000D01*
X126930000Y-66015000D01*
X127760000Y-66015000D01*
X128610000Y-65885000D01*
X129220000Y-65665000D01*
X129930000Y-65275000D01*
X130640000Y-64715000D01*
X131080000Y-64235000D01*
X131440000Y-63695000D01*
X131770000Y-63055000D01*
X131960000Y-62545000D01*
X132040000Y-62115000D01*
X132120000Y-61785000D01*
X132150000Y-60895000D01*
X132070000Y-60535000D01*
X137720000Y-57865000D01*
X138290000Y-59935000D01*
G36*
X138290000Y-59935000D02*
G01*
X138420000Y-60855000D01*
X138350000Y-62825000D01*
X137910000Y-64825000D01*
X137180000Y-66635000D01*
X136110000Y-68255000D01*
X134620000Y-69795000D01*
X132950000Y-70995000D01*
X131090000Y-71905000D01*
X130020000Y-72195000D01*
X128630000Y-72405000D01*
X127160000Y-72485000D01*
X125770000Y-72435000D01*
X124590000Y-72265000D01*
X123610000Y-71995000D01*
X121730000Y-71095000D01*
X120110000Y-69935000D01*
X118710000Y-68505000D01*
X117600000Y-66785000D01*
X116760000Y-64955000D01*
X116280000Y-63075000D01*
X116200000Y-61085000D01*
X116540000Y-58925000D01*
X122740000Y-59775000D01*
X122530000Y-60945000D01*
X122580000Y-62135000D01*
X122840000Y-62985000D01*
X123220000Y-63795000D01*
X124010000Y-64695000D01*
X124400000Y-65065000D01*
X125340000Y-65605000D01*
X126060000Y-65875000D01*
X126930000Y-66015000D01*
X127760000Y-66015000D01*
X128610000Y-65885000D01*
X129220000Y-65665000D01*
X129930000Y-65275000D01*
X130640000Y-64715000D01*
X131080000Y-64235000D01*
X131440000Y-63695000D01*
X131770000Y-63055000D01*
X131960000Y-62545000D01*
X132040000Y-62115000D01*
X132120000Y-61785000D01*
X132150000Y-60895000D01*
X132070000Y-60535000D01*
X137720000Y-57865000D01*
X138290000Y-59935000D01*
G37*
X93630000Y-59645000D02*
X93310000Y-60135000D01*
X93060000Y-60675000D01*
X92870000Y-61195000D01*
X92700000Y-61945000D01*
X92680000Y-62655000D01*
X92730000Y-63195000D01*
X92790000Y-63545000D01*
X92970000Y-64155000D01*
X93280000Y-64865000D01*
X93780000Y-65575000D01*
X94360000Y-66175000D01*
X95010000Y-66645000D01*
X95560000Y-66925000D01*
X96470000Y-67225000D01*
X97380000Y-67335000D01*
X98160000Y-67295000D01*
X98810000Y-67155000D01*
X99490000Y-66905000D01*
X100110000Y-66565000D01*
X100880000Y-65935000D01*
X101310000Y-65425000D01*
X101730000Y-64785000D01*
X102130000Y-63795000D01*
X102310000Y-63065000D01*
X102290000Y-62515000D01*
X108560000Y-60995000D01*
X108740000Y-63085000D01*
X108520000Y-65095000D01*
X107880000Y-67105000D01*
X106840000Y-68995000D01*
X105420000Y-70755000D01*
X104320000Y-71715000D01*
X102610000Y-72815000D01*
X100520000Y-73585000D01*
X99580000Y-73755000D01*
X98570000Y-73855000D01*
X97510000Y-73885000D01*
X97060000Y-73875000D01*
X94950000Y-73595000D01*
X93080000Y-72965000D01*
X91390000Y-72035000D01*
X89930000Y-70845000D01*
X88730000Y-69435000D01*
X87750000Y-67905000D01*
X87070000Y-66125000D01*
X86690000Y-64305000D01*
X86610000Y-62415000D01*
X86850000Y-60555000D01*
X87470000Y-58715000D01*
X88430000Y-56935000D01*
X93630000Y-59645000D01*
G36*
X93630000Y-59645000D02*
G01*
X93310000Y-60135000D01*
X93060000Y-60675000D01*
X92870000Y-61195000D01*
X92700000Y-61945000D01*
X92680000Y-62655000D01*
X92730000Y-63195000D01*
X92790000Y-63545000D01*
X92970000Y-64155000D01*
X93280000Y-64865000D01*
X93780000Y-65575000D01*
X94360000Y-66175000D01*
X95010000Y-66645000D01*
X95560000Y-66925000D01*
X96470000Y-67225000D01*
X97380000Y-67335000D01*
X98160000Y-67295000D01*
X98810000Y-67155000D01*
X99490000Y-66905000D01*
X100110000Y-66565000D01*
X100880000Y-65935000D01*
X101310000Y-65425000D01*
X101730000Y-64785000D01*
X102130000Y-63795000D01*
X102310000Y-63065000D01*
X102290000Y-62515000D01*
X108560000Y-60995000D01*
X108740000Y-63085000D01*
X108520000Y-65095000D01*
X107880000Y-67105000D01*
X106840000Y-68995000D01*
X105420000Y-70755000D01*
X104320000Y-71715000D01*
X102610000Y-72815000D01*
X100520000Y-73585000D01*
X99580000Y-73755000D01*
X98570000Y-73855000D01*
X97510000Y-73885000D01*
X97060000Y-73875000D01*
X94950000Y-73595000D01*
X93080000Y-72965000D01*
X91390000Y-72035000D01*
X89930000Y-70845000D01*
X88730000Y-69435000D01*
X87750000Y-67905000D01*
X87070000Y-66125000D01*
X86690000Y-64305000D01*
X86610000Y-62415000D01*
X86850000Y-60555000D01*
X87470000Y-58715000D01*
X88430000Y-56935000D01*
X93630000Y-59645000D01*
G37*
D11*
%TO.C,LS1*%
X147700001Y-117900000D02*
G75*
G02*
X150700000Y-117900000I1499999J-6400000D01*
G01*
X155430000Y-124300000D02*
G75*
G02*
X142970000Y-124300000I-6230000J0D01*
G01*
X142970000Y-124300000D02*
G75*
G02*
X155430000Y-124300000I6230000J0D01*
G01*
%TO.C,D1*%
X93700000Y-59700000D02*
X101000000Y-59700000D01*
X93700000Y-65200000D02*
X101000000Y-65200000D01*
X101000000Y-65200000D02*
X101000000Y-64050000D01*
%TO.C,SW2*%
X79350000Y-146800000D02*
X79350000Y-148300000D01*
X80600000Y-150800000D02*
X85100000Y-150800000D01*
X85100000Y-144300000D02*
X80600000Y-144300000D01*
X86350000Y-148300000D02*
X86350000Y-146800000D01*
%TD*%
M02*
