%TF.GenerationSoftware,KiCad,Pcbnew,9.0.7-9.0.7~ubuntu24.04.1*%
%TF.CreationDate,2026-04-29T15:23:09+09:00*%
%TF.ProjectId,gopher_pirot,676f7068-6572-45f7-9069-726f742e6b69,rev?*%
%TF.SameCoordinates,Original*%
%TF.FileFunction,Legend,Bot*%
%TF.FilePolarity,Positive*%
%FSLAX46Y46*%
G04 Gerber Fmt 4.6, Leading zero omitted, Abs format (unit mm)*
G04 Created by KiCad (PCBNEW 9.0.7-9.0.7~ubuntu24.04.1) date 2026-04-29 15:23:09*
%MOMM*%
%LPD*%
G01*
G04 APERTURE LIST*
%ADD10C,0.150000*%
%ADD11C,0.120000*%
G04 APERTURE END LIST*
D10*
X93054166Y-58404819D02*
X93387499Y-57928628D01*
X93625594Y-58404819D02*
X93625594Y-57404819D01*
X93625594Y-57404819D02*
X93244642Y-57404819D01*
X93244642Y-57404819D02*
X93149404Y-57452438D01*
X93149404Y-57452438D02*
X93101785Y-57500057D01*
X93101785Y-57500057D02*
X93054166Y-57595295D01*
X93054166Y-57595295D02*
X93054166Y-57738152D01*
X93054166Y-57738152D02*
X93101785Y-57833390D01*
X93101785Y-57833390D02*
X93149404Y-57881009D01*
X93149404Y-57881009D02*
X93244642Y-57928628D01*
X93244642Y-57928628D02*
X93625594Y-57928628D01*
X92673213Y-57500057D02*
X92625594Y-57452438D01*
X92625594Y-57452438D02*
X92530356Y-57404819D01*
X92530356Y-57404819D02*
X92292261Y-57404819D01*
X92292261Y-57404819D02*
X92197023Y-57452438D01*
X92197023Y-57452438D02*
X92149404Y-57500057D01*
X92149404Y-57500057D02*
X92101785Y-57595295D01*
X92101785Y-57595295D02*
X92101785Y-57690533D01*
X92101785Y-57690533D02*
X92149404Y-57833390D01*
X92149404Y-57833390D02*
X92720832Y-58404819D01*
X92720832Y-58404819D02*
X92101785Y-58404819D01*
D11*
%TO.C,R2*%
X93114564Y-55565000D02*
X92660436Y-55565000D01*
X93114564Y-57035000D02*
X92660436Y-57035000D01*
%TD*%
M02*
