M48
; DRILL file {KiCad 9.0.7-9.0.7~ubuntu24.04.1} date 2026-04-29T15:23:23+0900
; FORMAT={-:-/ absolute / inch / decimal}
; #@! TF.CreationDate,2026-04-29T15:23:23+09:00
; #@! TF.GenerationSoftware,Kicad,Pcbnew,9.0.7-9.0.7~ubuntu24.04.1
; #@! TF.FileFunction,Plated,1,2,PTH
FMAT,2
INCH
; #@! TA.AperFunction,Plated,PTH,ViaDrill
T1C0.0118
; #@! TA.AperFunction,Plated,PTH,ViaDrill
T2C0.0197
; #@! TA.AperFunction,Plated,PTH,ComponentDrill
T3C0.0315
; #@! TA.AperFunction,Plated,PTH,ComponentDrill
T4C0.0394
; #@! TA.AperFunction,Plated,PTH,ComponentDrill
T5C0.0433
%
G90
G05
T1
X3.7362Y-2.4606
X3.8346Y-2.3937
X3.8504Y-2.5236
X3.8602Y-4.5965
X3.8622Y-2.4291
X3.9646Y-5.0157
X4.1043Y-4.3996
X4.1457Y-4.9882
X4.1693Y-4.9055
X4.3425Y-4.4055
X4.3622Y-4.9016
X4.4528Y-6.185
X4.6161Y-4.9016
X4.7874Y-4.8504
X4.878Y-6.2756
X4.9134Y-2.4331
X4.9213Y-5.4921
X4.9272Y-4.6949
X4.9606Y-5.0394
X5.0118Y-2.4843
X5.0157Y-4.7835
X5.0276Y-2.3543
X5.1929Y-4.7913
X5.3248Y-4.8425
T2
X3.5984Y-6.1142
T3
X3.1969Y-4.8976
X3.1969Y-4.9764
X3.1969Y-5.0551
X3.1969Y-5.1339
T4
X3.626Y-4.0953
X3.626Y-4.1953
X3.626Y-4.2953
X3.626Y-4.3953
X3.626Y-4.4953
X3.626Y-4.5953
X3.626Y-4.6953
X3.626Y-4.7953
X4.4Y-5.4366
X4.4Y-5.5366
X4.4Y-5.6366
X4.4Y-5.7366
X4.4Y-5.8366
X4.4Y-5.9366
X4.4Y-6.0366
X4.4Y-6.1366
X4.4Y-6.2366
X5.0Y-5.4366
X5.0Y-5.5366
X5.0Y-5.6366
X5.0Y-5.7366
X5.0Y-5.8366
X5.0Y-5.9366
X5.0Y-6.0366
X5.0Y-6.1366
X5.0Y-6.2366
X5.874Y-4.7953
X5.874Y-4.9921
T5
X3.1339Y-5.7205
X3.1339Y-5.8976
X3.3898Y-5.7205
X3.3898Y-5.8976
X3.4567Y-6.0512
X3.4567Y-6.2283
X3.4606Y-5.378
X3.4606Y-5.5551
X3.7126Y-6.0512
X3.7126Y-6.2283
X3.7165Y-5.378
X3.7165Y-5.5551
X3.7756Y-5.7244
X3.7756Y-5.9016
X4.0315Y-5.7244
X4.0315Y-5.9016
X5.4016Y-5.4646
X5.4016Y-5.6417
X5.4803Y-5.8898
X5.4803Y-6.0669
X5.6575Y-5.4646
X5.6575Y-5.6417
X5.7362Y-5.8898
X5.7362Y-6.0669
M30
