G04 #@! TF.GenerationSoftware,KiCad,Pcbnew,8.0.5-8.0.5-0~ubuntu24.04.1*
G04 #@! TF.CreationDate,2024-09-29T10:33:01+09:00*
G04 #@! TF.ProjectId,gopher_flower_rp2040_sw,676f7068-6572-45f6-966c-6f7765725f72,rev?*
G04 #@! TF.SameCoordinates,Original*
G04 #@! TF.FileFunction,Copper,L2,Bot*
G04 #@! TF.FilePolarity,Positive*
%FSLAX46Y46*%
G04 Gerber Fmt 4.6, Leading zero omitted, Abs format (unit mm)*
G04 Created by KiCad (PCBNEW 8.0.5-8.0.5-0~ubuntu24.04.1) date 2024-09-29 10:33:01*
%MOMM*%
%LPD*%
G01*
G04 APERTURE LIST*
G04 Aperture macros list*
%AMRoundRect*
0 Rectangle with rounded corners*
0 $1 Rounding radius*
0 $2 $3 $4 $5 $6 $7 $8 $9 X,Y pos of 4 corners*
0 Add a 4 corners polygon primitive as box body*
4,1,4,$2,$3,$4,$5,$6,$7,$8,$9,$2,$3,0*
0 Add four circle primitives for the rounded corners*
1,1,$1+$1,$2,$3*
1,1,$1+$1,$4,$5*
1,1,$1+$1,$6,$7*
1,1,$1+$1,$8,$9*
0 Add four rect primitives between the rounded corners*
20,1,$1+$1,$2,$3,$4,$5,0*
20,1,$1+$1,$4,$5,$6,$7,0*
20,1,$1+$1,$6,$7,$8,$9,0*
20,1,$1+$1,$8,$9,$2,$3,0*%
G04 Aperture macros list end*
%ADD10C,0.300000*%
G04 #@! TA.AperFunction,NonConductor*
%ADD11C,0.300000*%
G04 #@! TD*
G04 #@! TA.AperFunction,ComponentPad*
%ADD12O,1.700000X1.700000*%
G04 #@! TD*
G04 #@! TA.AperFunction,ComponentPad*
%ADD13O,1.600000X2.000000*%
G04 #@! TD*
G04 #@! TA.AperFunction,ComponentPad*
%ADD14C,2.000000*%
G04 #@! TD*
G04 #@! TA.AperFunction,ComponentPad*
%ADD15R,1.350000X1.350000*%
G04 #@! TD*
G04 #@! TA.AperFunction,ComponentPad*
%ADD16O,1.350000X1.350000*%
G04 #@! TD*
G04 #@! TA.AperFunction,ComponentPad*
%ADD17R,2.000000X2.000000*%
G04 #@! TD*
G04 #@! TA.AperFunction,SMDPad,CuDef*
%ADD18RoundRect,0.243750X0.243750X0.456250X-0.243750X0.456250X-0.243750X-0.456250X0.243750X-0.456250X0*%
G04 #@! TD*
G04 #@! TA.AperFunction,ViaPad*
%ADD19C,0.600000*%
G04 #@! TD*
G04 #@! TA.AperFunction,Conductor*
%ADD20C,0.250000*%
G04 #@! TD*
G04 #@! TA.AperFunction,Conductor*
%ADD21C,0.600000*%
G04 #@! TD*
G04 APERTURE END LIST*
D10*
D11*
X118116917Y-50600828D02*
X118116917Y-51672257D01*
X118116917Y-51672257D02*
X118188346Y-51886542D01*
X118188346Y-51886542D02*
X118331203Y-52029400D01*
X118331203Y-52029400D02*
X118545489Y-52100828D01*
X118545489Y-52100828D02*
X118688346Y-52100828D01*
X116688346Y-52100828D02*
X117402632Y-52100828D01*
X117402632Y-52100828D02*
X117402632Y-50600828D01*
X115331203Y-51957971D02*
X115402631Y-52029400D01*
X115402631Y-52029400D02*
X115616917Y-52100828D01*
X115616917Y-52100828D02*
X115759774Y-52100828D01*
X115759774Y-52100828D02*
X115974060Y-52029400D01*
X115974060Y-52029400D02*
X116116917Y-51886542D01*
X116116917Y-51886542D02*
X116188346Y-51743685D01*
X116188346Y-51743685D02*
X116259774Y-51457971D01*
X116259774Y-51457971D02*
X116259774Y-51243685D01*
X116259774Y-51243685D02*
X116188346Y-50957971D01*
X116188346Y-50957971D02*
X116116917Y-50815114D01*
X116116917Y-50815114D02*
X115974060Y-50672257D01*
X115974060Y-50672257D02*
X115759774Y-50600828D01*
X115759774Y-50600828D02*
X115616917Y-50600828D01*
X115616917Y-50600828D02*
X115402631Y-50672257D01*
X115402631Y-50672257D02*
X115331203Y-50743685D01*
X114259774Y-50600828D02*
X114259774Y-51672257D01*
X114259774Y-51672257D02*
X114331203Y-51886542D01*
X114331203Y-51886542D02*
X114474060Y-52029400D01*
X114474060Y-52029400D02*
X114688346Y-52100828D01*
X114688346Y-52100828D02*
X114831203Y-52100828D01*
X112831203Y-52100828D02*
X113545489Y-52100828D01*
X113545489Y-52100828D02*
X113545489Y-50600828D01*
X111474060Y-51957971D02*
X111545488Y-52029400D01*
X111545488Y-52029400D02*
X111759774Y-52100828D01*
X111759774Y-52100828D02*
X111902631Y-52100828D01*
X111902631Y-52100828D02*
X112116917Y-52029400D01*
X112116917Y-52029400D02*
X112259774Y-51886542D01*
X112259774Y-51886542D02*
X112331203Y-51743685D01*
X112331203Y-51743685D02*
X112402631Y-51457971D01*
X112402631Y-51457971D02*
X112402631Y-51243685D01*
X112402631Y-51243685D02*
X112331203Y-50957971D01*
X112331203Y-50957971D02*
X112259774Y-50815114D01*
X112259774Y-50815114D02*
X112116917Y-50672257D01*
X112116917Y-50672257D02*
X111902631Y-50600828D01*
X111902631Y-50600828D02*
X111759774Y-50600828D01*
X111759774Y-50600828D02*
X111545488Y-50672257D01*
X111545488Y-50672257D02*
X111474060Y-50743685D01*
X110402631Y-50600828D02*
X110402631Y-51672257D01*
X110402631Y-51672257D02*
X110474060Y-51886542D01*
X110474060Y-51886542D02*
X110616917Y-52029400D01*
X110616917Y-52029400D02*
X110831203Y-52100828D01*
X110831203Y-52100828D02*
X110974060Y-52100828D01*
X108974060Y-52100828D02*
X109688346Y-52100828D01*
X109688346Y-52100828D02*
X109688346Y-50600828D01*
X107616917Y-51957971D02*
X107688345Y-52029400D01*
X107688345Y-52029400D02*
X107902631Y-52100828D01*
X107902631Y-52100828D02*
X108045488Y-52100828D01*
X108045488Y-52100828D02*
X108259774Y-52029400D01*
X108259774Y-52029400D02*
X108402631Y-51886542D01*
X108402631Y-51886542D02*
X108474060Y-51743685D01*
X108474060Y-51743685D02*
X108545488Y-51457971D01*
X108545488Y-51457971D02*
X108545488Y-51243685D01*
X108545488Y-51243685D02*
X108474060Y-50957971D01*
X108474060Y-50957971D02*
X108402631Y-50815114D01*
X108402631Y-50815114D02*
X108259774Y-50672257D01*
X108259774Y-50672257D02*
X108045488Y-50600828D01*
X108045488Y-50600828D02*
X107902631Y-50600828D01*
X107902631Y-50600828D02*
X107688345Y-50672257D01*
X107688345Y-50672257D02*
X107616917Y-50743685D01*
X106545488Y-50600828D02*
X106545488Y-51672257D01*
X106545488Y-51672257D02*
X106616917Y-51886542D01*
X106616917Y-51886542D02*
X106759774Y-52029400D01*
X106759774Y-52029400D02*
X106974060Y-52100828D01*
X106974060Y-52100828D02*
X107116917Y-52100828D01*
X105116917Y-52100828D02*
X105831203Y-52100828D01*
X105831203Y-52100828D02*
X105831203Y-50600828D01*
X103759774Y-51957971D02*
X103831202Y-52029400D01*
X103831202Y-52029400D02*
X104045488Y-52100828D01*
X104045488Y-52100828D02*
X104188345Y-52100828D01*
X104188345Y-52100828D02*
X104402631Y-52029400D01*
X104402631Y-52029400D02*
X104545488Y-51886542D01*
X104545488Y-51886542D02*
X104616917Y-51743685D01*
X104616917Y-51743685D02*
X104688345Y-51457971D01*
X104688345Y-51457971D02*
X104688345Y-51243685D01*
X104688345Y-51243685D02*
X104616917Y-50957971D01*
X104616917Y-50957971D02*
X104545488Y-50815114D01*
X104545488Y-50815114D02*
X104402631Y-50672257D01*
X104402631Y-50672257D02*
X104188345Y-50600828D01*
X104188345Y-50600828D02*
X104045488Y-50600828D01*
X104045488Y-50600828D02*
X103831202Y-50672257D01*
X103831202Y-50672257D02*
X103759774Y-50743685D01*
D12*
X111060000Y-155400000D03*
X111060000Y-152860000D03*
X111060000Y-150320000D03*
X111060000Y-147780000D03*
X111060000Y-145240000D03*
X111060000Y-142700000D03*
X111060000Y-140160000D03*
X111060000Y-137620000D03*
X111060000Y-135080000D03*
X113600000Y-135080000D03*
X116140000Y-135080000D03*
X118680000Y-135080000D03*
X121220000Y-135080000D03*
X123760000Y-135080000D03*
X126300000Y-135080000D03*
X126300000Y-137620000D03*
X126300000Y-140160000D03*
X126300000Y-142700000D03*
X126300000Y-145240000D03*
X126300000Y-147780000D03*
X126300000Y-150320000D03*
X126300000Y-152860000D03*
X126300000Y-155400000D03*
D13*
X109580000Y-98100000D03*
X112120000Y-98100000D03*
X114660000Y-98100000D03*
X117200000Y-98100000D03*
D14*
X132300000Y-133600000D03*
X138800000Y-133600000D03*
X132300000Y-138100000D03*
X138800000Y-138100000D03*
X80200000Y-140200000D03*
X86700000Y-140200000D03*
X80200000Y-144700000D03*
X86700000Y-144700000D03*
X89000000Y-150100000D03*
X95500000Y-150100000D03*
X89000000Y-154600000D03*
X95500000Y-154600000D03*
D15*
X83500000Y-117500000D03*
D16*
X83500000Y-119500000D03*
X83500000Y-121500000D03*
X83500000Y-123500000D03*
D14*
X89000000Y-130500000D03*
X95500000Y-130500000D03*
X89000000Y-135000000D03*
X95500000Y-135000000D03*
X97000000Y-140200000D03*
X103500000Y-140200000D03*
X97000000Y-144700000D03*
X103500000Y-144700000D03*
X137900000Y-144400000D03*
X144400000Y-144400000D03*
X137900000Y-148900000D03*
X144400000Y-148900000D03*
D17*
X139100000Y-115300000D03*
D14*
X144100000Y-115300000D03*
D18*
X111800000Y-55700000D03*
X109925000Y-55700000D03*
D19*
X103600000Y-105900000D03*
X128800000Y-59200000D03*
X112300000Y-146400000D03*
X124500000Y-113000000D03*
X96900000Y-60300000D03*
X100300000Y-140200000D03*
X125100000Y-57700000D03*
X93600000Y-58600000D03*
X96700000Y-57100000D03*
X128200000Y-56000000D03*
X95900000Y-59500000D03*
X136000000Y-134900000D03*
X130100000Y-146200000D03*
X132300000Y-144800000D03*
D20*
X135500000Y-142000000D02*
X137900000Y-144400000D01*
D21*
X97800000Y-63100000D02*
X96900000Y-62200000D01*
X121100000Y-63100000D02*
X97800000Y-63100000D01*
D20*
X138800000Y-133600000D02*
X144100000Y-128300000D01*
X137900000Y-144400000D02*
X130600000Y-151700000D01*
X130600000Y-151700000D02*
X130600000Y-155000000D01*
X110415000Y-146415000D02*
X112285000Y-146415000D01*
X108500000Y-144700000D02*
X110200000Y-146400000D01*
X110400000Y-146400000D02*
X110415000Y-146415000D01*
D21*
X117300000Y-94000000D02*
X112400000Y-94000000D01*
D20*
X135500000Y-136800000D02*
X135500000Y-142000000D01*
X86700000Y-144700000D02*
X95100000Y-144700000D01*
X122585000Y-156575000D02*
X126300000Y-152860000D01*
D21*
X96900000Y-62200000D02*
X96900000Y-60300000D01*
X112400000Y-94000000D02*
X109580000Y-96820000D01*
X121600000Y-89700000D02*
X121600000Y-63600000D01*
D20*
X130600000Y-155000000D02*
X127900000Y-157700000D01*
D21*
X127600000Y-61100000D02*
X128800000Y-59900000D01*
D20*
X103500000Y-144700000D02*
X108500000Y-144700000D01*
X112285000Y-146415000D02*
X112300000Y-146400000D01*
X127900000Y-157700000D02*
X123710000Y-157700000D01*
X95100000Y-144700000D02*
X97000000Y-144700000D01*
D21*
X109580000Y-96820000D02*
X109580000Y-98100000D01*
D20*
X97475000Y-156575000D02*
X122585000Y-156575000D01*
X95500000Y-135000000D02*
X100300000Y-139800000D01*
D21*
X127650000Y-116150000D02*
X127650000Y-151510000D01*
X103600000Y-105900000D02*
X103600000Y-107900000D01*
X103600000Y-107900000D02*
X94000000Y-117500000D01*
D20*
X110200000Y-146400000D02*
X110400000Y-146400000D01*
X95500000Y-154600000D02*
X97475000Y-156575000D01*
X123710000Y-157700000D02*
X122585000Y-156575000D01*
D21*
X122000000Y-62200000D02*
X123100000Y-61100000D01*
X121600000Y-63600000D02*
X121100000Y-63100000D01*
X121100000Y-63100000D02*
X122000000Y-62200000D01*
X123100000Y-61100000D02*
X127600000Y-61100000D01*
D20*
X132300000Y-133600000D02*
X135500000Y-136800000D01*
D21*
X127650000Y-151510000D02*
X126300000Y-152860000D01*
D20*
X144100000Y-128300000D02*
X144100000Y-115300000D01*
D21*
X121600000Y-89700000D02*
X117300000Y-94000000D01*
X128800000Y-59900000D02*
X128800000Y-59200000D01*
X124500000Y-113000000D02*
X127650000Y-116150000D01*
D20*
X100300000Y-139800000D02*
X100300000Y-140200000D01*
D21*
X94000000Y-117500000D02*
X83500000Y-117500000D01*
X107100000Y-103120000D02*
X99720000Y-103120000D01*
X90700000Y-94100000D02*
X90700000Y-59700000D01*
X112120000Y-98320000D02*
X112120000Y-98100000D01*
X129000000Y-152700000D02*
X126300000Y-155400000D01*
X122600000Y-58600000D02*
X123500000Y-57700000D01*
X93600000Y-58600000D02*
X122600000Y-58600000D01*
X107100000Y-103120000D02*
X112120000Y-98100000D01*
X107100000Y-110100000D02*
X97700000Y-119500000D01*
X112120000Y-98100000D02*
X114920000Y-95300000D01*
X123500000Y-57700000D02*
X125100000Y-57700000D01*
X91800000Y-58600000D02*
X93600000Y-58600000D01*
X97700000Y-119500000D02*
X83500000Y-119500000D01*
X118000000Y-95300000D02*
X129000000Y-106300000D01*
X99720000Y-103120000D02*
X90700000Y-94100000D01*
X107100000Y-103120000D02*
X107100000Y-110100000D01*
X129000000Y-106300000D02*
X129000000Y-152700000D01*
X90700000Y-59700000D02*
X91800000Y-58600000D01*
X114920000Y-95300000D02*
X118000000Y-95300000D01*
D20*
X97400000Y-55700000D02*
X96900000Y-56200000D01*
X96900000Y-56200000D02*
X96700000Y-56400000D01*
X97600000Y-55700000D02*
X97400000Y-55700000D01*
X109925000Y-55700000D02*
X97600000Y-55700000D01*
X96700000Y-56400000D02*
X96700000Y-57100000D01*
X128200000Y-59000000D02*
X128200000Y-56000000D01*
X95900000Y-59500000D02*
X123500000Y-59500000D01*
X123500000Y-59500000D02*
X124000000Y-60000000D01*
X127200000Y-60000000D02*
X127400000Y-59800000D01*
X124000000Y-60000000D02*
X127200000Y-60000000D01*
X127400000Y-59800000D02*
X128200000Y-59000000D01*
X117315000Y-149145000D02*
X111060000Y-155400000D01*
X117315000Y-133785001D02*
X117315000Y-149145000D01*
X119768346Y-100668346D02*
X119768346Y-131331655D01*
X119768346Y-131331655D02*
X117315000Y-133785001D01*
X117200000Y-98100000D02*
X119768346Y-100668346D01*
X114965000Y-132535000D02*
X114965000Y-148955000D01*
X114660000Y-129100000D02*
X114660000Y-129140000D01*
X114660000Y-132160000D02*
X115000000Y-132500000D01*
X111060000Y-152860000D02*
X114965000Y-148955000D01*
X114660000Y-98100000D02*
X114660000Y-129000000D01*
X115000000Y-132500000D02*
X114965000Y-132535000D01*
X114660000Y-129000000D02*
X114660000Y-129100000D01*
X114660000Y-129000000D02*
X114660000Y-132160000D01*
X81700000Y-144673833D02*
X89526167Y-152500000D01*
X95800000Y-152500000D02*
X97980000Y-150320000D01*
X81700000Y-123300000D02*
X81700000Y-144673833D01*
X83500000Y-121500000D02*
X81700000Y-123300000D01*
X89526167Y-152500000D02*
X95800000Y-152500000D01*
X97980000Y-150320000D02*
X111060000Y-150320000D01*
X82700000Y-142573833D02*
X82700000Y-124300000D01*
X87906167Y-147780000D02*
X111060000Y-147780000D01*
X82700000Y-124300000D02*
X83500000Y-123500000D01*
X82700000Y-142573833D02*
X87906167Y-147780000D01*
X136000000Y-134900000D02*
X136200000Y-134700000D01*
X136200000Y-134700000D02*
X136200000Y-128900000D01*
X139100000Y-126000000D02*
X139100000Y-115300000D01*
X136200000Y-128900000D02*
X139100000Y-126000000D01*
X132200000Y-61700000D02*
X132200000Y-54700000D01*
X122100000Y-53800000D02*
X120200000Y-55700000D01*
X132200000Y-54700000D02*
X131300000Y-53800000D01*
X120200000Y-55700000D02*
X111800000Y-55700000D01*
X131300000Y-53800000D02*
X122100000Y-53800000D01*
X130100000Y-63800000D02*
X132200000Y-61700000D01*
X130100000Y-146200000D02*
X130100000Y-63800000D01*
X111521701Y-141500000D02*
X112300000Y-142278299D01*
X102100000Y-141000000D02*
X102800000Y-141700000D01*
X102800000Y-141700000D02*
X110208299Y-141700000D01*
X110408299Y-141500000D02*
X111521701Y-141500000D01*
X95500000Y-130500000D02*
X102100000Y-137100000D01*
X112300000Y-144000000D02*
X111060000Y-145240000D01*
X110208299Y-141700000D02*
X110408299Y-141500000D01*
X102100000Y-137100000D02*
X102100000Y-141000000D01*
X112300000Y-142278299D02*
X112300000Y-144000000D01*
X89200000Y-142700000D02*
X86700000Y-140200000D01*
X111060000Y-142700000D02*
X89200000Y-142700000D01*
X111500000Y-149100000D02*
X113300000Y-147300000D01*
X96500000Y-149100000D02*
X111500000Y-149100000D01*
X113300000Y-141100000D02*
X112360000Y-140160000D01*
X95500000Y-150100000D02*
X96500000Y-149100000D01*
X112360000Y-140160000D02*
X111060000Y-140160000D01*
X113300000Y-147300000D02*
X113300000Y-141100000D01*
X111060000Y-137620000D02*
X106080000Y-137620000D01*
X106080000Y-137620000D02*
X103500000Y-140200000D01*
X132300000Y-144800000D02*
X132300000Y-138100000D01*
G04 #@! TA.AperFunction,Conductor*
G36*
X109905203Y-156124943D02*
G01*
X109927804Y-156150829D01*
X109984278Y-156237268D01*
X109984283Y-156237273D01*
X109984284Y-156237276D01*
X110136756Y-156402902D01*
X110136760Y-156402906D01*
X110314424Y-156541189D01*
X110314425Y-156541189D01*
X110314427Y-156541191D01*
X110441135Y-156609761D01*
X110512426Y-156648342D01*
X110618895Y-156684893D01*
X110725361Y-156721443D01*
X110725363Y-156721443D01*
X110725365Y-156721444D01*
X110866188Y-156744943D01*
X110879995Y-156747247D01*
X110942880Y-156777698D01*
X110979319Y-156837312D01*
X110977744Y-156907164D01*
X110938654Y-156965076D01*
X110874461Y-156992661D01*
X110860274Y-156993554D01*
X109824689Y-156999307D01*
X109757541Y-156979995D01*
X109711494Y-156927446D01*
X109700000Y-156875309D01*
X109700000Y-156218656D01*
X109719685Y-156151617D01*
X109772489Y-156105862D01*
X109841647Y-156095918D01*
X109905203Y-156124943D01*
G37*
G04 #@! TD.AperFunction*
G04 #@! TA.AperFunction,Conductor*
G36*
X125111905Y-135753515D02*
G01*
X125133804Y-135778787D01*
X125224278Y-135917268D01*
X125224283Y-135917273D01*
X125224284Y-135917276D01*
X125376756Y-136082902D01*
X125376760Y-136082906D01*
X125554424Y-136221189D01*
X125554429Y-136221191D01*
X125554431Y-136221193D01*
X125590930Y-136240946D01*
X125640520Y-136290165D01*
X125655628Y-136358382D01*
X125631457Y-136423937D01*
X125590930Y-136459054D01*
X125554431Y-136478806D01*
X125554422Y-136478812D01*
X125376761Y-136617092D01*
X125376756Y-136617097D01*
X125224284Y-136782723D01*
X125224276Y-136782734D01*
X125101140Y-136971207D01*
X125010703Y-137177385D01*
X124955436Y-137395628D01*
X124955434Y-137395640D01*
X124936844Y-137619994D01*
X124936844Y-137620005D01*
X124955434Y-137844359D01*
X124955436Y-137844371D01*
X125010703Y-138062614D01*
X125101140Y-138268792D01*
X125224276Y-138457265D01*
X125224284Y-138457276D01*
X125376756Y-138622902D01*
X125376760Y-138622906D01*
X125554424Y-138761189D01*
X125554429Y-138761191D01*
X125554431Y-138761193D01*
X125590930Y-138780946D01*
X125640520Y-138830165D01*
X125655628Y-138898382D01*
X125631457Y-138963937D01*
X125590930Y-138999054D01*
X125554431Y-139018806D01*
X125554422Y-139018812D01*
X125376761Y-139157092D01*
X125376756Y-139157097D01*
X125224284Y-139322723D01*
X125224276Y-139322734D01*
X125101140Y-139511207D01*
X125010703Y-139717385D01*
X124955436Y-139935628D01*
X124955434Y-139935640D01*
X124936844Y-140159994D01*
X124936844Y-140160005D01*
X124955434Y-140384359D01*
X124955436Y-140384371D01*
X125010703Y-140602614D01*
X125101140Y-140808792D01*
X125224276Y-140997265D01*
X125224284Y-140997276D01*
X125376756Y-141162902D01*
X125376760Y-141162906D01*
X125554424Y-141301189D01*
X125554429Y-141301191D01*
X125554431Y-141301193D01*
X125590930Y-141320946D01*
X125640520Y-141370165D01*
X125655628Y-141438382D01*
X125631457Y-141503937D01*
X125590930Y-141539054D01*
X125554431Y-141558806D01*
X125554422Y-141558812D01*
X125376761Y-141697092D01*
X125376756Y-141697097D01*
X125224284Y-141862723D01*
X125224276Y-141862734D01*
X125101140Y-142051207D01*
X125010703Y-142257385D01*
X124955436Y-142475628D01*
X124955434Y-142475640D01*
X124936844Y-142699994D01*
X124936844Y-142700005D01*
X124955434Y-142924359D01*
X124955436Y-142924371D01*
X125010703Y-143142614D01*
X125101140Y-143348792D01*
X125224276Y-143537265D01*
X125224284Y-143537276D01*
X125376756Y-143702902D01*
X125376760Y-143702906D01*
X125554424Y-143841189D01*
X125554429Y-143841191D01*
X125554431Y-143841193D01*
X125590930Y-143860946D01*
X125640520Y-143910165D01*
X125655628Y-143978382D01*
X125631457Y-144043937D01*
X125590930Y-144079054D01*
X125554431Y-144098806D01*
X125554422Y-144098812D01*
X125376761Y-144237092D01*
X125376756Y-144237097D01*
X125224284Y-144402723D01*
X125224276Y-144402734D01*
X125101140Y-144591207D01*
X125010703Y-144797385D01*
X124955436Y-145015628D01*
X124955434Y-145015640D01*
X124936844Y-145239994D01*
X124936844Y-145240005D01*
X124955434Y-145464359D01*
X124955436Y-145464371D01*
X125010703Y-145682614D01*
X125101140Y-145888792D01*
X125224276Y-146077265D01*
X125224284Y-146077276D01*
X125376756Y-146242902D01*
X125376760Y-146242906D01*
X125554424Y-146381189D01*
X125554429Y-146381191D01*
X125554431Y-146381193D01*
X125590930Y-146400946D01*
X125640520Y-146450165D01*
X125655628Y-146518382D01*
X125631457Y-146583937D01*
X125590930Y-146619054D01*
X125554431Y-146638806D01*
X125554422Y-146638812D01*
X125376761Y-146777092D01*
X125376756Y-146777097D01*
X125224284Y-146942723D01*
X125224276Y-146942734D01*
X125101140Y-147131207D01*
X125010703Y-147337385D01*
X124955436Y-147555628D01*
X124955434Y-147555640D01*
X124936844Y-147779994D01*
X124936844Y-147780005D01*
X124955434Y-148004359D01*
X124955436Y-148004371D01*
X125010703Y-148222614D01*
X125101140Y-148428792D01*
X125224276Y-148617265D01*
X125224284Y-148617276D01*
X125327056Y-148728914D01*
X125376760Y-148782906D01*
X125554424Y-148921189D01*
X125554429Y-148921191D01*
X125554431Y-148921193D01*
X125590930Y-148940946D01*
X125640520Y-148990165D01*
X125655628Y-149058382D01*
X125631457Y-149123937D01*
X125590930Y-149159054D01*
X125554431Y-149178806D01*
X125554422Y-149178812D01*
X125376761Y-149317092D01*
X125376756Y-149317097D01*
X125224284Y-149482723D01*
X125224276Y-149482734D01*
X125101140Y-149671207D01*
X125010703Y-149877385D01*
X124955436Y-150095628D01*
X124955434Y-150095640D01*
X124936844Y-150319994D01*
X124936844Y-150320005D01*
X124955434Y-150544359D01*
X124955436Y-150544371D01*
X125010703Y-150762614D01*
X125101140Y-150968792D01*
X125224276Y-151157265D01*
X125224284Y-151157276D01*
X125376756Y-151322902D01*
X125376760Y-151322906D01*
X125554424Y-151461189D01*
X125590932Y-151480946D01*
X125597695Y-151484606D01*
X125647286Y-151533825D01*
X125662394Y-151602042D01*
X125638224Y-151667597D01*
X125609802Y-151695236D01*
X125428922Y-151821890D01*
X125428920Y-151821891D01*
X125261891Y-151988920D01*
X125261886Y-151988926D01*
X125126400Y-152182420D01*
X125126399Y-152182422D01*
X125026570Y-152396507D01*
X125026567Y-152396513D01*
X124969364Y-152609999D01*
X124969364Y-152610000D01*
X125866988Y-152610000D01*
X125834075Y-152667007D01*
X125800000Y-152794174D01*
X125800000Y-152925826D01*
X125834075Y-153052993D01*
X125866988Y-153110000D01*
X124969364Y-153110000D01*
X125026567Y-153323486D01*
X125026570Y-153323492D01*
X125126399Y-153537578D01*
X125261894Y-153731082D01*
X125428917Y-153898105D01*
X125609802Y-154024763D01*
X125653427Y-154079340D01*
X125660619Y-154148839D01*
X125629097Y-154211193D01*
X125597697Y-154235392D01*
X125554427Y-154258809D01*
X125554422Y-154258812D01*
X125376761Y-154397092D01*
X125376756Y-154397097D01*
X125224284Y-154562723D01*
X125224276Y-154562734D01*
X125101140Y-154751207D01*
X125010703Y-154957385D01*
X124955436Y-155175628D01*
X124955434Y-155175640D01*
X124936844Y-155399994D01*
X124936844Y-155400005D01*
X124955434Y-155624359D01*
X124955436Y-155624371D01*
X125010703Y-155842614D01*
X125101140Y-156048792D01*
X125224276Y-156237265D01*
X125224284Y-156237276D01*
X125376756Y-156402902D01*
X125376760Y-156402906D01*
X125554424Y-156541189D01*
X125554425Y-156541189D01*
X125554427Y-156541191D01*
X125681135Y-156609761D01*
X125752426Y-156648342D01*
X125796504Y-156663474D01*
X125813821Y-156669419D01*
X125870837Y-156709804D01*
X125896968Y-156774603D01*
X125883917Y-156843243D01*
X125835828Y-156893931D01*
X125774248Y-156910698D01*
X111274907Y-156991250D01*
X111207759Y-156971938D01*
X111161712Y-156919389D01*
X111151384Y-156850287D01*
X111180055Y-156786571D01*
X111238623Y-156748471D01*
X111253800Y-156744944D01*
X111394635Y-156721444D01*
X111607574Y-156648342D01*
X111805576Y-156541189D01*
X111983240Y-156402906D01*
X112135722Y-156237268D01*
X112258860Y-156048791D01*
X112349296Y-155842616D01*
X112404564Y-155624368D01*
X112423156Y-155400000D01*
X112404564Y-155175632D01*
X112376538Y-155064960D01*
X112379163Y-154995140D01*
X112409061Y-154946841D01*
X117807071Y-149548833D01*
X117876400Y-149445075D01*
X117924155Y-149329785D01*
X117948500Y-149207394D01*
X117948500Y-149082606D01*
X117948500Y-136436905D01*
X117968185Y-136369866D01*
X118020989Y-136324111D01*
X118090147Y-136314167D01*
X118127606Y-136326557D01*
X118127728Y-136326281D01*
X118130664Y-136327569D01*
X118131521Y-136327852D01*
X118132426Y-136328342D01*
X118345365Y-136401444D01*
X118567431Y-136438500D01*
X118792569Y-136438500D01*
X119014635Y-136401444D01*
X119227574Y-136328342D01*
X119425576Y-136221189D01*
X119603240Y-136082906D01*
X119755722Y-135917268D01*
X119846193Y-135778790D01*
X119899338Y-135733437D01*
X119968569Y-135724013D01*
X120031905Y-135753515D01*
X120053804Y-135778787D01*
X120144278Y-135917268D01*
X120144283Y-135917273D01*
X120144284Y-135917276D01*
X120296756Y-136082902D01*
X120296760Y-136082906D01*
X120474424Y-136221189D01*
X120474425Y-136221189D01*
X120474427Y-136221191D01*
X120575824Y-136276064D01*
X120672426Y-136328342D01*
X120885365Y-136401444D01*
X121107431Y-136438500D01*
X121332569Y-136438500D01*
X121554635Y-136401444D01*
X121767574Y-136328342D01*
X121965576Y-136221189D01*
X122143240Y-136082906D01*
X122295722Y-135917268D01*
X122386193Y-135778790D01*
X122439338Y-135733437D01*
X122508569Y-135724013D01*
X122571905Y-135753515D01*
X122593804Y-135778787D01*
X122684278Y-135917268D01*
X122684283Y-135917273D01*
X122684284Y-135917276D01*
X122836756Y-136082902D01*
X122836760Y-136082906D01*
X123014424Y-136221189D01*
X123014425Y-136221189D01*
X123014427Y-136221191D01*
X123115824Y-136276064D01*
X123212426Y-136328342D01*
X123425365Y-136401444D01*
X123647431Y-136438500D01*
X123872569Y-136438500D01*
X124094635Y-136401444D01*
X124307574Y-136328342D01*
X124505576Y-136221189D01*
X124683240Y-136082906D01*
X124835722Y-135917268D01*
X124926193Y-135778790D01*
X124979338Y-135733437D01*
X125048569Y-135724013D01*
X125111905Y-135753515D01*
G37*
G04 #@! TD.AperFunction*
G04 #@! TA.AperFunction,Conductor*
G36*
X127657905Y-150984332D02*
G01*
X127695236Y-151043393D01*
X127700000Y-151077432D01*
X127700000Y-152112476D01*
X127680315Y-152179515D01*
X127627511Y-152225270D01*
X127558353Y-152235214D01*
X127494797Y-152206189D01*
X127474425Y-152183600D01*
X127338109Y-151988922D01*
X127338108Y-151988920D01*
X127171082Y-151821894D01*
X126990197Y-151695236D01*
X126946572Y-151640659D01*
X126939380Y-151571160D01*
X126970902Y-151508806D01*
X127002300Y-151484608D01*
X127045576Y-151461189D01*
X127223240Y-151322906D01*
X127375722Y-151157268D01*
X127472192Y-151009608D01*
X127525338Y-150964254D01*
X127594569Y-150954830D01*
X127657905Y-150984332D01*
G37*
G04 #@! TD.AperFunction*
G04 #@! TA.AperFunction,Conductor*
G36*
X127657905Y-148444332D02*
G01*
X127695236Y-148503393D01*
X127700000Y-148537432D01*
X127700000Y-149562567D01*
X127680315Y-149629606D01*
X127627511Y-149675361D01*
X127558353Y-149685305D01*
X127494797Y-149656280D01*
X127472192Y-149630389D01*
X127389508Y-149503833D01*
X127375722Y-149482732D01*
X127375719Y-149482729D01*
X127375715Y-149482723D01*
X127223243Y-149317097D01*
X127223238Y-149317092D01*
X127045577Y-149178812D01*
X127045578Y-149178812D01*
X127045576Y-149178811D01*
X127009070Y-149159055D01*
X126959479Y-149109836D01*
X126944371Y-149041619D01*
X126968541Y-148976064D01*
X127009070Y-148940945D01*
X127009084Y-148940936D01*
X127045576Y-148921189D01*
X127223240Y-148782906D01*
X127322614Y-148674957D01*
X127375715Y-148617276D01*
X127375715Y-148617275D01*
X127375722Y-148617268D01*
X127472192Y-148469608D01*
X127525338Y-148424254D01*
X127594569Y-148414830D01*
X127657905Y-148444332D01*
G37*
G04 #@! TD.AperFunction*
G04 #@! TA.AperFunction,Conductor*
G36*
X112585834Y-144712583D02*
G01*
X112641767Y-144754455D01*
X112666184Y-144819919D01*
X112666500Y-144828765D01*
X112666500Y-145178682D01*
X112647125Y-145244661D01*
X112663956Y-145276327D01*
X112666500Y-145301317D01*
X112666500Y-146986233D01*
X112646815Y-147053272D01*
X112630181Y-147073915D01*
X112482939Y-147221156D01*
X112421616Y-147254640D01*
X112351924Y-147249656D01*
X112295991Y-147207784D01*
X112281702Y-147183283D01*
X112258860Y-147131209D01*
X112227981Y-147083945D01*
X112135722Y-146942732D01*
X112135719Y-146942729D01*
X112135715Y-146942723D01*
X111983243Y-146777097D01*
X111983238Y-146777092D01*
X111805577Y-146638812D01*
X111805578Y-146638812D01*
X111805576Y-146638811D01*
X111769070Y-146619055D01*
X111719479Y-146569836D01*
X111704371Y-146501619D01*
X111728541Y-146436064D01*
X111769070Y-146400945D01*
X111769084Y-146400936D01*
X111805576Y-146381189D01*
X111983240Y-146242906D01*
X112135722Y-146077268D01*
X112258860Y-145888791D01*
X112349296Y-145682616D01*
X112404564Y-145464368D01*
X112418924Y-145291077D01*
X112439325Y-145238206D01*
X112423523Y-145213617D01*
X112418924Y-145188922D01*
X112404565Y-145015640D01*
X112404564Y-145015637D01*
X112404564Y-145015632D01*
X112376538Y-144904960D01*
X112379163Y-144835141D01*
X112409063Y-144786840D01*
X112454819Y-144741084D01*
X112516142Y-144707599D01*
X112585834Y-144712583D01*
G37*
G04 #@! TD.AperFunction*
G04 #@! TA.AperFunction,Conductor*
G36*
X127657905Y-145904332D02*
G01*
X127695236Y-145963393D01*
X127700000Y-145997432D01*
X127700000Y-147022567D01*
X127680315Y-147089606D01*
X127627511Y-147135361D01*
X127558353Y-147145305D01*
X127494797Y-147116280D01*
X127472192Y-147090389D01*
X127375723Y-146942734D01*
X127375715Y-146942723D01*
X127223243Y-146777097D01*
X127223238Y-146777092D01*
X127045577Y-146638812D01*
X127045578Y-146638812D01*
X127045576Y-146638811D01*
X127009070Y-146619055D01*
X126959479Y-146569836D01*
X126944371Y-146501619D01*
X126968541Y-146436064D01*
X127009070Y-146400945D01*
X127009084Y-146400936D01*
X127045576Y-146381189D01*
X127223240Y-146242906D01*
X127375722Y-146077268D01*
X127472192Y-145929608D01*
X127525338Y-145884254D01*
X127594569Y-145874830D01*
X127657905Y-145904332D01*
G37*
G04 #@! TD.AperFunction*
G04 #@! TA.AperFunction,Conductor*
G36*
X109905203Y-145964943D02*
G01*
X109927804Y-145990829D01*
X109984278Y-146077268D01*
X109984283Y-146077273D01*
X109984284Y-146077276D01*
X110136756Y-146242902D01*
X110136760Y-146242906D01*
X110314424Y-146381189D01*
X110314429Y-146381191D01*
X110314431Y-146381193D01*
X110350930Y-146400946D01*
X110400520Y-146450165D01*
X110415628Y-146518382D01*
X110391457Y-146583937D01*
X110350930Y-146619054D01*
X110314431Y-146638806D01*
X110314422Y-146638812D01*
X110136761Y-146777092D01*
X110136756Y-146777097D01*
X109984284Y-146942723D01*
X109984276Y-146942734D01*
X109927808Y-147029165D01*
X109874662Y-147074522D01*
X109805430Y-147083945D01*
X109742095Y-147054443D01*
X109704763Y-146995382D01*
X109700000Y-146961343D01*
X109700000Y-146058656D01*
X109719685Y-145991617D01*
X109772489Y-145945862D01*
X109841647Y-145935918D01*
X109905203Y-145964943D01*
G37*
G04 #@! TD.AperFunction*
G04 #@! TA.AperFunction,Conductor*
G36*
X127657905Y-143364332D02*
G01*
X127695236Y-143423393D01*
X127700000Y-143457432D01*
X127700000Y-144482567D01*
X127680315Y-144549606D01*
X127627511Y-144595361D01*
X127558353Y-144605305D01*
X127494797Y-144576280D01*
X127472192Y-144550389D01*
X127375723Y-144402734D01*
X127375715Y-144402723D01*
X127223243Y-144237097D01*
X127223238Y-144237092D01*
X127045577Y-144098812D01*
X127045578Y-144098812D01*
X127045576Y-144098811D01*
X127009070Y-144079055D01*
X126959479Y-144029836D01*
X126944371Y-143961619D01*
X126968541Y-143896064D01*
X127009070Y-143860945D01*
X127009084Y-143860936D01*
X127045576Y-143841189D01*
X127223240Y-143702906D01*
X127375722Y-143537268D01*
X127472192Y-143389608D01*
X127525338Y-143344254D01*
X127594569Y-143334830D01*
X127657905Y-143364332D01*
G37*
G04 #@! TD.AperFunction*
G04 #@! TA.AperFunction,Conductor*
G36*
X127657905Y-140824332D02*
G01*
X127695236Y-140883393D01*
X127700000Y-140917432D01*
X127700000Y-141942567D01*
X127680315Y-142009606D01*
X127627511Y-142055361D01*
X127558353Y-142065305D01*
X127494797Y-142036280D01*
X127472192Y-142010389D01*
X127375723Y-141862734D01*
X127375715Y-141862723D01*
X127223243Y-141697097D01*
X127223238Y-141697092D01*
X127045577Y-141558812D01*
X127045578Y-141558812D01*
X127045576Y-141558811D01*
X127009070Y-141539055D01*
X126959479Y-141489836D01*
X126944371Y-141421619D01*
X126968541Y-141356064D01*
X127009070Y-141320945D01*
X127009084Y-141320936D01*
X127045576Y-141301189D01*
X127223240Y-141162906D01*
X127375722Y-140997268D01*
X127472192Y-140849608D01*
X127525338Y-140804254D01*
X127594569Y-140794830D01*
X127657905Y-140824332D01*
G37*
G04 #@! TD.AperFunction*
G04 #@! TA.AperFunction,Conductor*
G36*
X127657905Y-138284332D02*
G01*
X127695236Y-138343393D01*
X127700000Y-138377432D01*
X127700000Y-139402567D01*
X127680315Y-139469606D01*
X127627511Y-139515361D01*
X127558353Y-139525305D01*
X127494797Y-139496280D01*
X127472192Y-139470389D01*
X127375723Y-139322734D01*
X127375715Y-139322723D01*
X127223243Y-139157097D01*
X127223238Y-139157092D01*
X127045577Y-139018812D01*
X127045578Y-139018812D01*
X127045576Y-139018811D01*
X127009070Y-138999055D01*
X126959479Y-138949836D01*
X126944371Y-138881619D01*
X126968541Y-138816064D01*
X127009070Y-138780945D01*
X127009084Y-138780936D01*
X127045576Y-138761189D01*
X127223240Y-138622906D01*
X127375722Y-138457268D01*
X127472192Y-138309608D01*
X127525338Y-138264254D01*
X127594569Y-138254830D01*
X127657905Y-138284332D01*
G37*
G04 #@! TD.AperFunction*
G04 #@! TA.AperFunction,Conductor*
G36*
X127657905Y-135744332D02*
G01*
X127695236Y-135803393D01*
X127700000Y-135837432D01*
X127700000Y-136862567D01*
X127680315Y-136929606D01*
X127627511Y-136975361D01*
X127558353Y-136985305D01*
X127494797Y-136956280D01*
X127472192Y-136930389D01*
X127375723Y-136782734D01*
X127375715Y-136782723D01*
X127223243Y-136617097D01*
X127223238Y-136617092D01*
X127045577Y-136478812D01*
X127045578Y-136478812D01*
X127045576Y-136478811D01*
X127009070Y-136459055D01*
X126959479Y-136409836D01*
X126944371Y-136341619D01*
X126968541Y-136276064D01*
X127009070Y-136240945D01*
X127009084Y-136240936D01*
X127045576Y-136221189D01*
X127223240Y-136082906D01*
X127375722Y-135917268D01*
X127472192Y-135769608D01*
X127525338Y-135724254D01*
X127594569Y-135714830D01*
X127657905Y-135744332D01*
G37*
G04 #@! TD.AperFunction*
G04 #@! TA.AperFunction,Conductor*
G36*
X127643039Y-133519685D02*
G01*
X127688794Y-133572489D01*
X127700000Y-133624000D01*
X127700000Y-134322567D01*
X127680315Y-134389606D01*
X127627511Y-134435361D01*
X127558353Y-134445305D01*
X127494797Y-134416280D01*
X127472192Y-134390389D01*
X127375723Y-134242734D01*
X127375715Y-134242723D01*
X127223243Y-134077097D01*
X127223238Y-134077092D01*
X127045577Y-133938812D01*
X127045572Y-133938808D01*
X126847580Y-133831661D01*
X126847577Y-133831659D01*
X126847574Y-133831658D01*
X126847571Y-133831657D01*
X126847569Y-133831656D01*
X126634637Y-133758556D01*
X126561243Y-133746309D01*
X126498357Y-133715859D01*
X126461918Y-133656244D01*
X126463493Y-133586392D01*
X126502583Y-133528480D01*
X126566776Y-133500896D01*
X126581652Y-133500000D01*
X127576000Y-133500000D01*
X127643039Y-133519685D01*
G37*
G04 #@! TD.AperFunction*
M02*
