G04 #@! TF.GenerationSoftware,KiCad,Pcbnew,8.0.5-8.0.5-0~ubuntu24.04.1*
G04 #@! TF.CreationDate,2024-10-08T07:53:47+09:00*
G04 #@! TF.ProjectId,gopher_pilot_rp2040_sw,676f7068-6572-45f7-9069-6c6f745f7270,rev?*
G04 #@! TF.SameCoordinates,Original*
G04 #@! TF.FileFunction,Profile,NP*
%FSLAX46Y46*%
G04 Gerber Fmt 4.6, Leading zero omitted, Abs format (unit mm)*
G04 Created by KiCad (PCBNEW 8.0.5-8.0.5-0~ubuntu24.04.1) date 2024-10-08 07:53:47*
%MOMM*%
%LPD*%
G01*
G04 APERTURE LIST*
G04 #@! TA.AperFunction,Profile*
%ADD10C,0.050000*%
G04 #@! TD*
G04 APERTURE END LIST*
D10*
X50840000Y-91110000D02*
X50880000Y-90670000D01*
X50880000Y-90670000D02*
X51050000Y-90280000D01*
X51050000Y-90280000D02*
X51510000Y-89790000D01*
X51110000Y-91950000D02*
X50840000Y-91110000D01*
X51390000Y-92580000D02*
X51110000Y-91950000D01*
X51510000Y-89790000D02*
X52160000Y-89430000D01*
X51650000Y-93130000D02*
X51390000Y-92580000D01*
X52160000Y-89430000D02*
X52640000Y-89160000D01*
X52210000Y-94070000D02*
X51650000Y-93130000D01*
X52500000Y-94530000D02*
X52210000Y-94070000D01*
X52640000Y-89160000D02*
X52880000Y-88700000D01*
X52880000Y-88700000D02*
X53130000Y-88070000D01*
X53130000Y-88070000D02*
X53540000Y-87570000D01*
X53400000Y-95760000D02*
X52500000Y-94530000D01*
X53540000Y-87570000D02*
X53970000Y-87350000D01*
X53970000Y-87350000D02*
X53990000Y-87350000D01*
X53990000Y-87350000D02*
X54020000Y-87360000D01*
X54020000Y-87360000D02*
X54320000Y-87490000D01*
X54320000Y-87490000D02*
X55040000Y-88030000D01*
X54410000Y-96890000D02*
X53400000Y-95760000D01*
X55040000Y-88030000D02*
X55540000Y-88600000D01*
X55450000Y-97820000D02*
X54410000Y-96890000D01*
X55540000Y-88600000D02*
X55930000Y-89300000D01*
X55930000Y-89300000D02*
X56280000Y-90290000D01*
X56280000Y-90290000D02*
X56590000Y-91550000D01*
X56420000Y-98420000D02*
X55450000Y-97820000D01*
X56590000Y-91550000D02*
X56780000Y-92610000D01*
X56680000Y-98530000D02*
X56420000Y-98420000D01*
X56780000Y-92610000D02*
X57000000Y-93670000D01*
X57000000Y-93670000D02*
X57030000Y-93810000D01*
X57030000Y-93810000D02*
X57260000Y-94500000D01*
X57260000Y-94500000D02*
X57470000Y-94810000D01*
X57470000Y-94810000D02*
X58210000Y-95160000D01*
X57790000Y-98910000D02*
X56680000Y-98530000D01*
X58210000Y-95160000D02*
X59210000Y-95230000D01*
X58800000Y-99030000D02*
X57790000Y-98910000D01*
X59210000Y-95230000D02*
X60450000Y-95000000D01*
X59840000Y-98910000D02*
X58800000Y-99030000D01*
X60450000Y-95000000D02*
X61610000Y-94680000D01*
X61090000Y-98520000D02*
X59840000Y-98910000D01*
X61610000Y-94680000D02*
X61870000Y-94620000D01*
X61870000Y-94620000D02*
X62800000Y-94450000D01*
X62050000Y-98210000D02*
X61090000Y-98520000D01*
X62710000Y-98060000D02*
X62050000Y-98210000D01*
X62800000Y-94450000D02*
X63860000Y-94350000D01*
X63320000Y-97980000D02*
X62710000Y-98060000D01*
X63750000Y-97950000D02*
X63320000Y-97980000D01*
X63860000Y-94350000D02*
X65220000Y-94280000D01*
X64660000Y-97920000D02*
X63750000Y-97950000D01*
X65220000Y-94280000D02*
X66710000Y-94220000D01*
X65960000Y-97910000D02*
X64660000Y-97920000D01*
X65990000Y-109700000D02*
X66010000Y-108540000D01*
X66010000Y-108540000D02*
X66290000Y-107470000D01*
X66250000Y-110890000D02*
X65990000Y-109700000D01*
X66290000Y-107470000D02*
X66900000Y-106580000D01*
X66710000Y-94220000D02*
X67110000Y-94210000D01*
X66740000Y-111950000D02*
X66250000Y-110890000D01*
X66900000Y-106580000D02*
X67060000Y-106420000D01*
X67060000Y-106420000D02*
X67260000Y-106290000D01*
X67110000Y-94210000D02*
X68120000Y-94150000D01*
X67260000Y-106290000D02*
X68050000Y-105770000D01*
X67470000Y-112870000D02*
X66740000Y-111950000D01*
X68050000Y-105770000D02*
X69410000Y-105150000D01*
X68110000Y-57060000D02*
X68200000Y-55060000D01*
X68120000Y-94150000D02*
X68890000Y-94030000D01*
X68200000Y-55060000D02*
X68690000Y-53060000D01*
X68390000Y-113490000D02*
X67470000Y-112870000D01*
X68420000Y-59030000D02*
X68110000Y-57060000D01*
X68640000Y-113590000D02*
X68390000Y-113490000D01*
X68690000Y-53060000D02*
X69070000Y-52240000D01*
X68890000Y-94030000D02*
X69480000Y-93790000D01*
X69070000Y-52240000D02*
X69620000Y-51100000D01*
X69120000Y-60920000D02*
X68420000Y-59030000D01*
X69200000Y-97900000D02*
X65960000Y-97910000D01*
X69410000Y-105150000D02*
X71060000Y-104620000D01*
X69480000Y-93790000D02*
X69900000Y-93440000D01*
X69550000Y-61610000D02*
X69120000Y-60920000D01*
X69620000Y-51100000D02*
X69660000Y-51030000D01*
X69660000Y-51030000D02*
X70800000Y-49590000D01*
X69840000Y-113790000D02*
X68640000Y-113590000D01*
X69900000Y-93440000D02*
X70270000Y-92900000D01*
X70220000Y-62690000D02*
X69550000Y-61610000D01*
X70270000Y-92900000D02*
X70650000Y-92170000D01*
X70340000Y-97890000D02*
X69200000Y-97900000D01*
X70650000Y-92170000D02*
X71210000Y-90960000D01*
X70680000Y-63460000D02*
X70220000Y-62690000D01*
X70800000Y-49590000D02*
X70920000Y-49490000D01*
X70830000Y-64140000D02*
X70680000Y-63460000D01*
X70920000Y-49490000D02*
X71590000Y-48970000D01*
X70960000Y-65440000D02*
X70830000Y-64140000D01*
X71060000Y-104620000D02*
X72040000Y-104360000D01*
X71140000Y-113570000D02*
X69840000Y-113790000D01*
X71210000Y-90960000D02*
X71650000Y-89940000D01*
X71390000Y-66880000D02*
X70960000Y-65440000D01*
X71590000Y-48970000D02*
X72250000Y-48470000D01*
X71650000Y-89940000D02*
X71970000Y-89200000D01*
X71790000Y-97180000D02*
X70340000Y-97890000D01*
X71870000Y-67760000D02*
X71390000Y-66880000D01*
X71970000Y-89200000D02*
X72560000Y-87590000D01*
X72040000Y-104360000D02*
X73600000Y-103980000D01*
X72090000Y-68140000D02*
X71870000Y-67760000D01*
X72140000Y-73780000D02*
X72270000Y-71740000D01*
X72250000Y-48470000D02*
X72700000Y-48250000D01*
X72270000Y-71740000D02*
X72410000Y-70970000D01*
X72280000Y-76130000D02*
X72140000Y-73780000D01*
X72410000Y-70970000D02*
X72510000Y-70450000D01*
X72510000Y-70450000D02*
X72630000Y-69930000D01*
X72530000Y-112950000D02*
X71140000Y-113570000D01*
X72550000Y-77990000D02*
X72280000Y-76130000D01*
X72560000Y-87590000D02*
X72600000Y-87490000D01*
X72600000Y-87490000D02*
X73000000Y-85880000D01*
X72630000Y-69930000D02*
X72770000Y-69360000D01*
X72690000Y-96800000D02*
X71790000Y-97180000D01*
X72700000Y-48250000D02*
X73910000Y-47700000D01*
X72770000Y-69360000D02*
X72830000Y-69130000D01*
X72810000Y-79710000D02*
X72550000Y-77990000D01*
X72830000Y-69130000D02*
X72090000Y-68140000D01*
X73000000Y-80790000D02*
X72810000Y-79710000D01*
X73000000Y-85880000D02*
X73190000Y-84300000D01*
X73060000Y-112570000D02*
X72530000Y-112950000D01*
X73190000Y-82640000D02*
X73000000Y-80790000D01*
X73190000Y-84300000D02*
X73190000Y-82640000D01*
X73460000Y-96550000D02*
X72690000Y-96800000D01*
X73600000Y-103980000D02*
X74970000Y-103700000D01*
X73640000Y-112170000D02*
X73060000Y-112570000D01*
X73910000Y-47700000D02*
X75240000Y-47340000D01*
X73980000Y-96450000D02*
X73460000Y-96550000D01*
X74270000Y-111700000D02*
X73640000Y-112170000D01*
X74600000Y-135870000D02*
X74610000Y-135100000D01*
X74600000Y-138410000D02*
X74600000Y-135870000D01*
X74610000Y-135100000D02*
X74620000Y-131850000D01*
X74620000Y-131850000D02*
X74640000Y-129800000D01*
X74640000Y-129800000D02*
X74650000Y-128510000D01*
X74640000Y-141050000D02*
X74600000Y-138410000D01*
X74650000Y-128510000D02*
X74660000Y-127340000D01*
X74660000Y-127340000D02*
X74670000Y-126300000D01*
X74670000Y-111390000D02*
X74270000Y-111700000D01*
X74670000Y-126300000D02*
X74710000Y-123350000D01*
X74690000Y-96460000D02*
X73980000Y-96450000D01*
X74690000Y-142530000D02*
X74640000Y-141050000D01*
X74710000Y-96790000D02*
X74690000Y-96460000D01*
X74710000Y-123350000D02*
X74720000Y-121650000D01*
X74720000Y-121650000D02*
X74730000Y-120900000D01*
X74730000Y-120900000D02*
X74740000Y-118840000D01*
X74740000Y-118840000D02*
X74770000Y-116400000D01*
X74770000Y-116400000D02*
X74780000Y-115130000D01*
X74780000Y-115130000D02*
X74790000Y-114040000D01*
X74790000Y-97790000D02*
X74710000Y-96790000D01*
X74790000Y-114040000D02*
X74800000Y-112470000D01*
X74800000Y-112470000D02*
X74810000Y-111630000D01*
X74810000Y-111630000D02*
X74820000Y-111310000D01*
X74810000Y-144170000D02*
X74690000Y-142530000D01*
X74820000Y-111310000D02*
X74670000Y-111390000D01*
X74920000Y-145210000D02*
X74810000Y-144170000D01*
X74970000Y-103700000D02*
X75180000Y-103660000D01*
X75020000Y-101060000D02*
X74790000Y-97790000D01*
X75160000Y-103400000D02*
X75020000Y-101060000D01*
X75180000Y-103660000D02*
X75160000Y-103400000D01*
X75200000Y-146700000D02*
X74920000Y-145210000D01*
X75240000Y-47340000D02*
X76140000Y-47170000D01*
X75390000Y-147450000D02*
X75200000Y-146700000D01*
X75660000Y-148380000D02*
X75390000Y-147450000D01*
X75850000Y-148870000D02*
X75660000Y-148380000D01*
X76140000Y-47170000D02*
X76550000Y-47090000D01*
X76390000Y-150280000D02*
X75850000Y-148870000D01*
X76550000Y-47090000D02*
X76770000Y-47050000D01*
X76730000Y-150990000D02*
X76390000Y-150280000D01*
X76760000Y-165950000D02*
X76870000Y-165490000D01*
X76770000Y-47050000D02*
X76950000Y-46820000D01*
X76780000Y-167140000D02*
X76760000Y-165950000D01*
X76870000Y-165490000D02*
X77460000Y-164140000D01*
X76950000Y-46820000D02*
X77200000Y-46280000D01*
X77030000Y-151590000D02*
X76730000Y-150990000D01*
X77200000Y-46280000D02*
X77750000Y-44780000D01*
X77200000Y-168270000D02*
X76780000Y-167140000D01*
X77460000Y-164140000D02*
X78430000Y-162780000D01*
X77740000Y-152930000D02*
X77030000Y-151590000D01*
X77750000Y-44780000D02*
X77950000Y-44260000D01*
X77950000Y-44260000D02*
X78620000Y-43100000D01*
X78050000Y-169300000D02*
X77200000Y-168270000D01*
X78250000Y-153750000D02*
X77740000Y-152930000D01*
X78430000Y-162780000D02*
X79710000Y-161530000D01*
X78620000Y-43100000D02*
X79610000Y-42060000D01*
X78750000Y-169880000D02*
X78050000Y-169300000D01*
X78880000Y-154780000D02*
X78250000Y-153750000D01*
X79130000Y-155110000D02*
X78880000Y-154780000D01*
X79610000Y-42060000D02*
X79930000Y-41790000D01*
X79690000Y-170380000D02*
X78750000Y-169880000D01*
X79710000Y-161530000D02*
X81230000Y-160410000D01*
X79930000Y-41790000D02*
X80620000Y-41230000D01*
X80330000Y-156740000D02*
X79130000Y-155110000D01*
X80620000Y-41230000D02*
X81270000Y-40760000D01*
X80750000Y-157210000D02*
X80330000Y-156740000D01*
X80960000Y-170750000D02*
X79690000Y-170380000D01*
X81230000Y-160410000D02*
X82300000Y-159780000D01*
X81270000Y-40760000D02*
X81900000Y-40290000D01*
X81710000Y-170760000D02*
X80960000Y-170750000D01*
X81850000Y-158440000D02*
X80750000Y-157210000D01*
X81900000Y-40290000D02*
X82570000Y-39750000D01*
X82210000Y-158810000D02*
X81850000Y-158440000D01*
X82300000Y-159780000D02*
X82870000Y-159460000D01*
X82570000Y-39750000D02*
X83160000Y-39250000D01*
X82610000Y-170610000D02*
X81710000Y-170760000D01*
X82870000Y-159460000D02*
X82210000Y-158810000D01*
X83160000Y-39250000D02*
X83900000Y-38630000D01*
X83480000Y-170320000D02*
X82610000Y-170610000D01*
X83620000Y-170250000D02*
X83480000Y-170320000D01*
X83900000Y-38630000D02*
X84390000Y-38280000D01*
X83950000Y-170030000D02*
X83620000Y-170250000D01*
X84390000Y-38280000D02*
X84860000Y-37960000D01*
X84440000Y-169660000D02*
X83950000Y-170030000D01*
X84860000Y-37960000D02*
X85510000Y-37560000D01*
X84860000Y-169350000D02*
X84440000Y-169660000D01*
X85410000Y-168870000D02*
X84860000Y-169350000D01*
X85510000Y-37560000D02*
X86610000Y-36920000D01*
X86210000Y-168180000D02*
X85410000Y-168870000D01*
X86540000Y-167890000D02*
X86210000Y-168180000D01*
X86610000Y-36920000D02*
X87070000Y-36660000D01*
X86720000Y-167760000D02*
X86540000Y-167890000D01*
X87070000Y-36660000D02*
X87770000Y-36130000D01*
X87770000Y-36130000D02*
X88270000Y-35590000D01*
X87940000Y-166860000D02*
X86720000Y-167760000D01*
X88270000Y-35590000D02*
X88910000Y-34680000D01*
X88910000Y-34680000D02*
X89310000Y-34120000D01*
X89230000Y-166140000D02*
X87940000Y-166860000D01*
X89310000Y-34120000D02*
X90410000Y-32940000D01*
X90270000Y-165730000D02*
X89230000Y-166140000D01*
X90410000Y-32940000D02*
X90900000Y-32540000D01*
X90900000Y-32540000D02*
X91620000Y-31950000D01*
X90920000Y-165500000D02*
X90270000Y-165730000D01*
X91620000Y-31950000D02*
X93180000Y-30940000D01*
X92070000Y-165130000D02*
X90920000Y-165500000D01*
X92500000Y-165290000D02*
X92070000Y-165130000D01*
X93140000Y-165500000D02*
X92500000Y-165290000D01*
X93180000Y-30940000D02*
X94430000Y-30240000D01*
X94290000Y-165890000D02*
X93140000Y-165500000D01*
X94430000Y-30240000D02*
X95380000Y-29760000D01*
X94910000Y-166100000D02*
X94290000Y-165890000D01*
X95380000Y-29760000D02*
X96310000Y-29300000D01*
X95730000Y-166360000D02*
X94910000Y-166100000D01*
X96310000Y-29300000D02*
X97230000Y-28920000D01*
X97200000Y-166810000D02*
X95730000Y-166360000D01*
X97230000Y-28920000D02*
X97990000Y-28640000D01*
X97990000Y-28640000D02*
X99270000Y-28240000D01*
X98540000Y-167190000D02*
X97200000Y-166810000D01*
X99270000Y-28240000D02*
X100470000Y-27890000D01*
X100400000Y-167650000D02*
X98540000Y-167190000D01*
X100470000Y-27890000D02*
X102240000Y-27410000D01*
X102240000Y-27410000D02*
X103870000Y-26970000D01*
X102510000Y-168020000D02*
X100400000Y-167650000D01*
X103620000Y-168150000D02*
X102510000Y-168020000D01*
X103870000Y-26970000D02*
X104750000Y-26730000D01*
X104620000Y-168280000D02*
X103620000Y-168150000D01*
X104750000Y-26730000D02*
X106010000Y-26430000D01*
X104870000Y-168300000D02*
X104620000Y-168280000D01*
X106010000Y-26430000D02*
X107340000Y-26160000D01*
X106620000Y-168420000D02*
X104870000Y-168300000D01*
X107290000Y-168450000D02*
X106620000Y-168420000D01*
X107340000Y-26160000D02*
X108670000Y-25960000D01*
X108670000Y-25960000D02*
X110040000Y-25880000D01*
X109310000Y-168520000D02*
X107290000Y-168450000D01*
X110040000Y-25880000D02*
X111230000Y-25870000D01*
X110190000Y-168540000D02*
X109310000Y-168520000D01*
X111230000Y-25870000D02*
X112480000Y-25890000D01*
X111950000Y-168550000D02*
X110190000Y-168540000D01*
X112480000Y-25890000D02*
X113910000Y-25940000D01*
X113290000Y-168540000D02*
X111950000Y-168550000D01*
X113910000Y-25940000D02*
X115240000Y-26000000D01*
X115240000Y-26000000D02*
X117240000Y-26110000D01*
X116240000Y-168510000D02*
X113290000Y-168540000D01*
X117240000Y-26110000D02*
X118470000Y-26210000D01*
X117550000Y-168470000D02*
X116240000Y-168510000D01*
X118470000Y-26210000D02*
X119620000Y-26330000D01*
X118710000Y-168400000D02*
X117550000Y-168470000D01*
X119620000Y-26330000D02*
X120370000Y-26450000D01*
X119650000Y-168310000D02*
X118710000Y-168400000D01*
X120370000Y-26450000D02*
X121170000Y-26710000D01*
X120450000Y-168220000D02*
X119650000Y-168310000D01*
X121170000Y-26710000D02*
X122210000Y-27080000D01*
X121920000Y-168000000D02*
X120450000Y-168220000D01*
X122210000Y-27080000D02*
X123990000Y-27720000D01*
X123990000Y-27720000D02*
X125150000Y-28160000D01*
X125150000Y-28160000D02*
X126520000Y-28680000D01*
X126300000Y-167100000D02*
X121920000Y-168000000D01*
X126520000Y-28680000D02*
X127940000Y-29220000D01*
X127710000Y-166760000D02*
X126300000Y-167100000D01*
X127940000Y-29220000D02*
X129490000Y-29820000D01*
X129490000Y-29820000D02*
X130690000Y-30280000D01*
X130660000Y-165870000D02*
X127710000Y-166760000D01*
X130690000Y-30280000D02*
X132420000Y-30990000D01*
X131570000Y-165550000D02*
X130660000Y-165870000D01*
X132420000Y-30990000D02*
X133430000Y-31440000D01*
X133250000Y-164930000D02*
X131570000Y-165550000D01*
X133380000Y-164860000D02*
X133250000Y-164930000D01*
X133430000Y-31440000D02*
X134070000Y-31820000D01*
X134070000Y-31820000D02*
X134710000Y-32290000D01*
X134430000Y-164390000D02*
X133380000Y-164860000D01*
X134710000Y-32290000D02*
X135760000Y-33180000D01*
X135760000Y-33180000D02*
X136690000Y-34040000D01*
X136450000Y-163410000D02*
X134430000Y-164390000D01*
X136690000Y-34040000D02*
X137470000Y-34800000D01*
X136790000Y-163650000D02*
X136450000Y-163410000D01*
X137280000Y-163990000D02*
X136790000Y-163650000D01*
X137470000Y-34800000D02*
X138020000Y-35340000D01*
X137900000Y-164440000D02*
X137280000Y-163990000D01*
X138020000Y-35340000D02*
X139040000Y-36310000D01*
X138300000Y-164760000D02*
X137900000Y-164440000D01*
X138860000Y-165290000D02*
X138300000Y-164760000D01*
X138990000Y-165430000D02*
X138860000Y-165290000D01*
X139040000Y-36310000D02*
X139820000Y-37010000D01*
X139760000Y-166270000D02*
X138990000Y-165430000D01*
X139820000Y-37010000D02*
X140270000Y-37420000D01*
X140270000Y-37420000D02*
X141000000Y-38000000D01*
X140400000Y-167010000D02*
X139760000Y-166270000D01*
X141000000Y-38000000D02*
X141340000Y-38290000D01*
X141340000Y-38290000D02*
X142020000Y-38800000D01*
X141360000Y-168150000D02*
X140400000Y-167010000D01*
X142020000Y-38800000D02*
X142900000Y-39430000D01*
X142130000Y-168990000D02*
X141360000Y-168150000D01*
X142900000Y-39430000D02*
X143070000Y-39560000D01*
X142970000Y-169600000D02*
X142130000Y-168990000D01*
X143070000Y-39560000D02*
X143660000Y-39970000D01*
X143660000Y-39970000D02*
X143840000Y-40120000D01*
X143840000Y-40120000D02*
X144650000Y-40810000D01*
X143880000Y-169920000D02*
X142970000Y-169600000D01*
X143950000Y-157950000D02*
X144120000Y-158100000D01*
X143980000Y-157750000D02*
X143950000Y-157950000D01*
X144120000Y-158100000D02*
X144810000Y-158600000D01*
X144220000Y-157410000D02*
X143980000Y-157750000D01*
X144650000Y-40810000D02*
X145400000Y-41680000D01*
X144810000Y-158600000D02*
X145410000Y-159030000D01*
X144820000Y-156730000D02*
X144220000Y-157410000D01*
X144970000Y-170000000D02*
X143880000Y-169920000D01*
X145170000Y-169980000D02*
X144970000Y-170000000D01*
X145400000Y-41680000D02*
X145960000Y-42590000D01*
X145410000Y-159030000D02*
X146630000Y-160190000D01*
X145690000Y-155710000D02*
X144820000Y-156730000D01*
X145960000Y-42590000D02*
X146450000Y-43800000D01*
X146450000Y-43800000D02*
X146690000Y-44450000D01*
X146450000Y-169750000D02*
X145170000Y-169980000D01*
X146460000Y-154650000D02*
X145690000Y-155710000D01*
X146630000Y-160190000D02*
X147730000Y-161500000D01*
X146690000Y-44450000D02*
X146890000Y-44990000D01*
X146890000Y-44990000D02*
X146980000Y-45250000D01*
X146980000Y-45250000D02*
X147580000Y-45350000D01*
X147580000Y-45350000D02*
X148500000Y-45510000D01*
X147590000Y-169190000D02*
X146450000Y-169750000D01*
X147600000Y-152960000D02*
X146460000Y-154650000D01*
X147730000Y-161500000D02*
X148630000Y-162840000D01*
X148500000Y-45510000D02*
X150380000Y-46050000D01*
X148510000Y-168400000D02*
X147590000Y-169190000D01*
X148630000Y-162840000D02*
X149270000Y-164180000D01*
X148880000Y-150590000D02*
X147600000Y-152960000D01*
X149200000Y-167390000D02*
X148510000Y-168400000D01*
X149270000Y-164180000D02*
X149530000Y-165080000D01*
X149530000Y-165080000D02*
X149540000Y-166270000D01*
X149540000Y-166270000D02*
X149200000Y-167390000D01*
X149980000Y-148040000D02*
X148880000Y-150590000D01*
X150380000Y-46050000D02*
X152050000Y-46940000D01*
X150970000Y-144850000D02*
X149980000Y-148040000D01*
X151450000Y-142760000D02*
X150970000Y-144850000D01*
X151610000Y-90440000D02*
X151610000Y-91940000D01*
X151610000Y-91940000D02*
X151790000Y-92020000D01*
X151620000Y-89460000D02*
X151610000Y-90440000D01*
X151630000Y-99970000D02*
X151640000Y-100630000D01*
X151640000Y-99300000D02*
X151630000Y-99970000D01*
X151640000Y-100630000D02*
X151670000Y-101320000D01*
X151670000Y-101320000D02*
X151710000Y-101870000D01*
X151690000Y-88480000D02*
X151620000Y-89460000D01*
X151690000Y-99110000D02*
X151640000Y-99300000D01*
X151710000Y-101870000D02*
X151750000Y-102260000D01*
X151750000Y-102260000D02*
X151780000Y-102470000D01*
X151780000Y-102470000D02*
X151790000Y-102520000D01*
X151790000Y-92020000D02*
X152720000Y-92570000D01*
X151790000Y-102520000D02*
X151840000Y-102700000D01*
X151790000Y-141100000D02*
X151450000Y-142760000D01*
X151840000Y-87780000D02*
X151690000Y-88480000D01*
X151840000Y-102700000D02*
X152080000Y-102800000D01*
X151900000Y-99200000D02*
X151690000Y-99110000D01*
X151960000Y-72740000D02*
X151960000Y-73190000D01*
X151960000Y-73190000D02*
X152170000Y-73960000D01*
X151980000Y-71840000D02*
X151960000Y-72740000D01*
X152020000Y-71320000D02*
X151980000Y-71840000D01*
X152050000Y-46940000D02*
X153430000Y-48170000D01*
X152080000Y-102800000D02*
X152720000Y-102990000D01*
X152110000Y-87070000D02*
X151840000Y-87780000D01*
X152120000Y-69620000D02*
X152020000Y-71320000D01*
X152170000Y-73960000D02*
X152600000Y-74580000D01*
X152180000Y-110970000D02*
X152210000Y-111040000D01*
X152210000Y-111040000D02*
X152290000Y-112140000D01*
X152220000Y-138220000D02*
X151790000Y-141100000D01*
X152240000Y-99360000D02*
X151900000Y-99200000D01*
X152250000Y-67920000D02*
X152120000Y-69620000D01*
X152260000Y-111040000D02*
X152180000Y-110970000D01*
X152290000Y-112140000D02*
X152410000Y-114030000D01*
X152370000Y-66770000D02*
X152250000Y-67920000D01*
X152380000Y-136760000D02*
X152220000Y-138220000D01*
X152410000Y-114030000D02*
X152540000Y-116070000D01*
X152440000Y-111170000D02*
X152260000Y-111040000D01*
X152490000Y-65910000D02*
X152370000Y-66770000D01*
X152540000Y-86060000D02*
X152110000Y-87070000D01*
X152540000Y-116070000D02*
X152710000Y-119610000D01*
X152560000Y-134820000D02*
X152380000Y-136760000D01*
X152600000Y-65410000D02*
X152490000Y-65910000D01*
X152600000Y-74580000D02*
X152990000Y-75100000D01*
X152700000Y-132640000D02*
X152560000Y-134820000D01*
X152710000Y-111370000D02*
X152440000Y-111170000D01*
X152710000Y-119610000D02*
X152850000Y-123800000D01*
X152720000Y-92570000D02*
X154170000Y-93510000D01*
X152720000Y-102990000D02*
X153600000Y-103230000D01*
X152730000Y-64920000D02*
X152600000Y-65410000D01*
X152780000Y-130950000D02*
X152700000Y-132640000D01*
X152840000Y-129390000D02*
X152780000Y-130950000D01*
X152850000Y-64210000D02*
X152730000Y-64920000D01*
X152850000Y-123800000D02*
X152850000Y-125380000D01*
X152850000Y-125380000D02*
X152840000Y-129390000D01*
X152930000Y-85100000D02*
X152540000Y-86060000D01*
X152960000Y-63250000D02*
X152850000Y-64210000D01*
X152990000Y-75100000D02*
X153120000Y-75310000D01*
X153010000Y-62370000D02*
X152960000Y-63250000D01*
X153010000Y-99760000D02*
X152240000Y-99360000D01*
X153120000Y-61740000D02*
X153010000Y-62370000D01*
X153120000Y-75310000D02*
X153270000Y-75590000D01*
X153190000Y-111670000D02*
X152710000Y-111370000D01*
X153270000Y-75590000D02*
X153460000Y-76110000D01*
X153280000Y-83930000D02*
X152930000Y-85100000D01*
X153360000Y-61260000D02*
X153120000Y-61740000D01*
X153430000Y-48170000D02*
X154530000Y-49740000D01*
X153460000Y-76110000D02*
X153610000Y-77310000D01*
X153510000Y-82750000D02*
X153280000Y-83930000D01*
X153600000Y-103230000D02*
X154120000Y-103360000D01*
X153610000Y-77310000D02*
X153640000Y-77970000D01*
X153620000Y-81420000D02*
X153510000Y-82750000D01*
X153630000Y-80850000D02*
X153620000Y-81420000D01*
X153640000Y-77970000D02*
X153650000Y-80150000D01*
X153650000Y-80150000D02*
X153630000Y-80850000D01*
X153810000Y-112070000D02*
X153190000Y-111670000D01*
X153830000Y-100120000D02*
X153010000Y-99760000D01*
X153990000Y-60410000D02*
X153360000Y-61260000D01*
X154120000Y-103360000D02*
X154710000Y-103530000D01*
X154170000Y-93510000D02*
X155530000Y-94410000D01*
X154530000Y-49740000D02*
X154810000Y-50300000D01*
X154600000Y-59530000D02*
X153990000Y-60410000D01*
X154710000Y-103530000D02*
X155210000Y-103670000D01*
X154810000Y-50300000D02*
X155480000Y-52150000D01*
X155050000Y-100520000D02*
X153830000Y-100120000D01*
X155160000Y-112630000D02*
X153810000Y-112070000D01*
X155210000Y-103670000D02*
X155630000Y-103790000D01*
X155350000Y-57810000D02*
X154600000Y-59530000D01*
X155480000Y-52150000D02*
X155770000Y-54060000D01*
X155530000Y-94410000D02*
X156140000Y-94860000D01*
X155630000Y-103790000D02*
X156060000Y-103920000D01*
X155740000Y-55980000D02*
X155350000Y-57810000D01*
X155770000Y-54060000D02*
X155740000Y-55980000D01*
X156060000Y-103920000D02*
X156210000Y-103980000D01*
X156070000Y-100770000D02*
X155050000Y-100520000D01*
X156140000Y-94860000D02*
X156740000Y-95330000D01*
X156210000Y-103980000D02*
X156960000Y-104270000D01*
X156470000Y-112790000D02*
X155160000Y-112630000D01*
X156740000Y-95330000D02*
X156920000Y-95450000D01*
X156920000Y-95450000D02*
X157710000Y-96050000D01*
X156960000Y-104270000D02*
X157600000Y-104520000D01*
X157050000Y-100980000D02*
X156070000Y-100770000D01*
X157600000Y-104520000D02*
X157730000Y-104590000D01*
X157630000Y-112550000D02*
X156470000Y-112790000D01*
X157710000Y-96050000D02*
X157950000Y-96230000D01*
X157730000Y-104590000D02*
X158320000Y-104920000D01*
X157810000Y-101150000D02*
X157050000Y-100980000D01*
X157950000Y-96230000D02*
X158460000Y-96530000D01*
X158320000Y-104920000D02*
X158750000Y-105160000D01*
X158460000Y-96530000D02*
X158750000Y-96620000D01*
X158630000Y-111920000D02*
X157630000Y-112550000D01*
X158750000Y-96620000D02*
X159390000Y-96440000D01*
X158750000Y-105160000D02*
X159510000Y-105840000D01*
X158780000Y-101420000D02*
X157810000Y-101150000D01*
X159390000Y-96440000D02*
X160050000Y-95870000D01*
X159460000Y-110910000D02*
X158630000Y-111920000D01*
X159510000Y-105840000D02*
X159870000Y-106440000D01*
X159530000Y-101680000D02*
X158780000Y-101420000D01*
X159720000Y-110470000D02*
X159460000Y-110910000D01*
X159870000Y-106440000D02*
X160040000Y-106990000D01*
X159980000Y-109840000D02*
X159720000Y-110470000D01*
X160040000Y-106990000D02*
X160100000Y-107750000D01*
X160050000Y-95870000D02*
X160790000Y-94930000D01*
X160090000Y-109060000D02*
X159980000Y-109840000D01*
X160100000Y-107750000D02*
X160110000Y-108280000D01*
X160110000Y-108280000D02*
X160090000Y-109060000D01*
X160410000Y-101670000D02*
X159530000Y-101680000D01*
X160790000Y-94930000D02*
X161170000Y-94340000D01*
X161170000Y-94340000D02*
X161360000Y-94090000D01*
X161280000Y-101290000D02*
X160410000Y-101670000D01*
X161360000Y-94090000D02*
X161630000Y-93700000D01*
X161630000Y-93700000D02*
X162480000Y-92690000D01*
X161760000Y-100910000D02*
X161280000Y-101290000D01*
X162130000Y-100590000D02*
X161760000Y-100910000D01*
X162370000Y-100280000D02*
X162130000Y-100590000D01*
X162480000Y-92690000D02*
X163060000Y-92050000D01*
X162860000Y-99630000D02*
X162370000Y-100280000D01*
X163060000Y-92050000D02*
X163610000Y-91490000D01*
X163070000Y-99170000D02*
X162860000Y-99630000D01*
X163490000Y-98290000D02*
X163070000Y-99170000D01*
X163610000Y-91490000D02*
X164180000Y-90970000D01*
X163690000Y-97760000D02*
X163490000Y-98290000D01*
X163730000Y-97690000D02*
X163690000Y-97760000D01*
X164180000Y-90970000D02*
X164640000Y-90590000D01*
X164240000Y-96810000D02*
X163730000Y-97690000D01*
X164530000Y-96500000D02*
X164240000Y-96810000D01*
X164640000Y-90590000D02*
X165170000Y-90230000D01*
X165060000Y-95910000D02*
X164530000Y-96500000D01*
X165170000Y-90230000D02*
X165370000Y-90160000D01*
X165370000Y-90160000D02*
X165950000Y-89990000D01*
X165670000Y-95320000D02*
X165060000Y-95910000D01*
X165950000Y-89990000D02*
X167040000Y-89610000D01*
X166040000Y-94990000D02*
X165670000Y-95320000D01*
X166530000Y-94570000D02*
X166040000Y-94990000D01*
X167010000Y-94230000D02*
X166530000Y-94570000D01*
X167040000Y-89610000D02*
X167580000Y-89450000D01*
X167520000Y-93960000D02*
X167010000Y-94230000D01*
X167580000Y-89450000D02*
X168480000Y-89190000D01*
X167970000Y-93710000D02*
X167520000Y-93960000D01*
X168480000Y-89190000D02*
X169540000Y-89140000D01*
X168770000Y-93320000D02*
X167970000Y-93710000D01*
X169430000Y-92920000D02*
X168770000Y-93320000D01*
X169540000Y-89140000D02*
X169610000Y-89160000D01*
X169610000Y-89160000D02*
X170380000Y-89430000D01*
X169940000Y-92600000D02*
X169430000Y-92920000D01*
X170380000Y-89430000D02*
X170670000Y-89680000D01*
X170670000Y-89680000D02*
X171110000Y-90370000D01*
X170750000Y-91840000D02*
X169940000Y-92600000D01*
X171110000Y-90370000D02*
X171140000Y-91090000D01*
X171140000Y-91090000D02*
X170750000Y-91840000D01*
M02*
