G04 #@! TF.GenerationSoftware,KiCad,Pcbnew,8.0.5-8.0.5-0~ubuntu24.04.1*
G04 #@! TF.CreationDate,2024-10-08T07:51:32+09:00*
G04 #@! TF.ProjectId,gopher_flower_rp2040_sw,676f7068-6572-45f6-966c-6f7765725f72,rev?*
G04 #@! TF.SameCoordinates,Original*
G04 #@! TF.FileFunction,Profile,NP*
%FSLAX46Y46*%
G04 Gerber Fmt 4.6, Leading zero omitted, Abs format (unit mm)*
G04 Created by KiCad (PCBNEW 8.0.5-8.0.5-0~ubuntu24.04.1) date 2024-10-08 07:51:32*
%MOMM*%
%LPD*%
G01*
G04 APERTURE LIST*
G04 #@! TA.AperFunction,Profile*
%ADD10C,0.050000*%
G04 #@! TD*
G04 APERTURE END LIST*
D10*
X65085000Y-108350000D02*
X65095000Y-108130000D01*
X65095000Y-108130000D02*
X65115000Y-107810000D01*
X65105000Y-108680000D02*
X65085000Y-108350000D01*
X65115000Y-107810000D02*
X65195000Y-107500000D01*
X65155000Y-108910000D02*
X65105000Y-108680000D01*
X65195000Y-107500000D02*
X65385000Y-107050000D01*
X65205000Y-109030000D02*
X65155000Y-108910000D01*
X65375000Y-109290000D02*
X65205000Y-109030000D01*
X65385000Y-107050000D02*
X65685000Y-106570000D01*
X65615000Y-109570000D02*
X65375000Y-109290000D01*
X65685000Y-106570000D02*
X66065000Y-106100000D01*
X65865000Y-109820000D02*
X65615000Y-109570000D01*
X66065000Y-106100000D02*
X66195000Y-105950000D01*
X66115000Y-110010000D02*
X65865000Y-109820000D01*
X66195000Y-105950000D02*
X66635000Y-105540000D01*
X66225000Y-55500000D02*
X66305000Y-54430000D01*
X66305000Y-54430000D02*
X66495000Y-53380000D01*
X66305000Y-110140000D02*
X66115000Y-110010000D01*
X66315000Y-56610000D02*
X66225000Y-55500000D01*
X66495000Y-53380000D02*
X66825000Y-52370000D01*
X66525000Y-57680000D02*
X66315000Y-56610000D01*
X66535000Y-110250000D02*
X66305000Y-110140000D01*
X66555000Y-110600000D02*
X66535000Y-110250000D01*
X66575000Y-57830000D02*
X66525000Y-57680000D01*
X66635000Y-105540000D02*
X66775000Y-105410000D01*
X66705000Y-110950000D02*
X66555000Y-110600000D01*
X66775000Y-105410000D02*
X67015000Y-105210000D01*
X66825000Y-52370000D02*
X67335000Y-51330000D01*
X66865000Y-58710000D02*
X66575000Y-57830000D01*
X66995000Y-111260000D02*
X66705000Y-110950000D01*
X67015000Y-105210000D02*
X67435000Y-104870000D01*
X67265000Y-59500000D02*
X66865000Y-58710000D01*
X67335000Y-51330000D02*
X67875000Y-50480000D01*
X67395000Y-111500000D02*
X66995000Y-111260000D01*
X67435000Y-104870000D02*
X67815000Y-104620000D01*
X67795000Y-60290000D02*
X67265000Y-59500000D01*
X67815000Y-104620000D02*
X68185000Y-104380000D01*
X67875000Y-50480000D02*
X68445000Y-49780000D01*
X67915000Y-111670000D02*
X67395000Y-111500000D01*
X68185000Y-104380000D02*
X68525000Y-104190000D01*
X68415000Y-61010000D02*
X67795000Y-60290000D01*
X68445000Y-49780000D02*
X68555000Y-49630000D01*
X68445000Y-111740000D02*
X67915000Y-111670000D01*
X68525000Y-104190000D02*
X68955000Y-103940000D01*
X68555000Y-49630000D02*
X69155000Y-49030000D01*
X68895000Y-111720000D02*
X68445000Y-111740000D01*
X68955000Y-103940000D02*
X69715000Y-103600000D01*
X69145000Y-61710000D02*
X68415000Y-61010000D01*
X69155000Y-49030000D02*
X69465000Y-48730000D01*
X69435000Y-111590000D02*
X68895000Y-111720000D01*
X69465000Y-48730000D02*
X69855000Y-48410000D01*
X69585000Y-62030000D02*
X69145000Y-61710000D01*
X69715000Y-103600000D02*
X70475000Y-103300000D01*
X69855000Y-48410000D02*
X70445000Y-47940000D01*
X70005000Y-62340000D02*
X69585000Y-62030000D01*
X70105000Y-111320000D02*
X69435000Y-111590000D01*
X70445000Y-47940000D02*
X71365000Y-47340000D01*
X70465000Y-62610000D02*
X70005000Y-62340000D01*
X70475000Y-103300000D02*
X71295000Y-103070000D01*
X70495000Y-111110000D02*
X70105000Y-111320000D01*
X70935000Y-62870000D02*
X70465000Y-62610000D01*
X71295000Y-103070000D02*
X71775000Y-102970000D01*
X71365000Y-47340000D02*
X72365000Y-46840000D01*
X71375000Y-63080000D02*
X70935000Y-62870000D01*
X71595000Y-110410000D02*
X70495000Y-111110000D01*
X71775000Y-102970000D02*
X72695000Y-102910000D01*
X71785000Y-63230000D02*
X71375000Y-63080000D01*
X72075000Y-63330000D02*
X71785000Y-63230000D01*
X72365000Y-46840000D02*
X73405000Y-46470000D01*
X72445000Y-109780000D02*
X71595000Y-110410000D01*
X72515000Y-78780000D02*
X72525000Y-77620000D01*
X72525000Y-77620000D02*
X72555000Y-76030000D01*
X72525000Y-81040000D02*
X72515000Y-78780000D01*
X72525000Y-82080000D02*
X72525000Y-81040000D01*
X72555000Y-76030000D02*
X72605000Y-74870000D01*
X72565000Y-83970000D02*
X72525000Y-82080000D01*
X72585000Y-63450000D02*
X72075000Y-63330000D01*
X72595000Y-85230000D02*
X72565000Y-83970000D01*
X72605000Y-74870000D02*
X72625000Y-74270000D01*
X72625000Y-74270000D02*
X72705000Y-73170000D01*
X72665000Y-86390000D02*
X72595000Y-85230000D01*
X72695000Y-102910000D02*
X73325000Y-102900000D01*
X72705000Y-73170000D02*
X72785000Y-72280000D01*
X72785000Y-72280000D02*
X72865000Y-71550000D01*
X72785000Y-133380000D02*
X72805000Y-132260000D01*
X72805000Y-132260000D02*
X72825000Y-131330000D01*
X72805000Y-134130000D02*
X72785000Y-133380000D01*
X72825000Y-131330000D02*
X72865000Y-130250000D01*
X72865000Y-71550000D02*
X72935000Y-70870000D01*
X72865000Y-130250000D02*
X72915000Y-129270000D01*
X72865000Y-135960000D02*
X72805000Y-134130000D01*
X72885000Y-109400000D02*
X72445000Y-109780000D01*
X72895000Y-136410000D02*
X72865000Y-135960000D01*
X72905000Y-90450000D02*
X72665000Y-86390000D01*
X72915000Y-129270000D02*
X72985000Y-127850000D01*
X72935000Y-70870000D02*
X73025000Y-70160000D01*
X72955000Y-137150000D02*
X72895000Y-136410000D01*
X72985000Y-127850000D02*
X73095000Y-126260000D01*
X73025000Y-70160000D02*
X73155000Y-69300000D01*
X73065000Y-138530000D02*
X72955000Y-137150000D01*
X73095000Y-126260000D02*
X73275000Y-123340000D01*
X73155000Y-69300000D02*
X73335000Y-68150000D01*
X73195000Y-139670000D02*
X73065000Y-138530000D01*
X73205000Y-63600000D02*
X72585000Y-63450000D01*
X73275000Y-123340000D02*
X73445000Y-121140000D01*
X73295000Y-108990000D02*
X72885000Y-109400000D01*
X73325000Y-102900000D02*
X73775000Y-102900000D01*
X73335000Y-68150000D02*
X73495000Y-67270000D01*
X73365000Y-140830000D02*
X73195000Y-139670000D01*
X73395000Y-97070000D02*
X72905000Y-90450000D01*
X73405000Y-46470000D02*
X74425000Y-46200000D01*
X73445000Y-121140000D02*
X73565000Y-118890000D01*
X73485000Y-98330000D02*
X73395000Y-97070000D01*
X73495000Y-67270000D02*
X73715000Y-66160000D01*
X73565000Y-118890000D02*
X73695000Y-116200000D01*
X73575000Y-108670000D02*
X73295000Y-108990000D01*
X73615000Y-100330000D02*
X73485000Y-98330000D01*
X73665000Y-142390000D02*
X73365000Y-140830000D01*
X73685000Y-63730000D02*
X73205000Y-63600000D01*
X73685000Y-101400000D02*
X73615000Y-100330000D01*
X73695000Y-116200000D02*
X73755000Y-114630000D01*
X73715000Y-66160000D02*
X73895000Y-65310000D01*
X73745000Y-102400000D02*
X73685000Y-101400000D01*
X73755000Y-114630000D02*
X73795000Y-113040000D01*
X73775000Y-102900000D02*
X73745000Y-102400000D01*
X73775000Y-108420000D02*
X73575000Y-108670000D01*
X73795000Y-113040000D02*
X73835000Y-111380000D01*
X73835000Y-111380000D02*
X73865000Y-110050000D01*
X73865000Y-108330000D02*
X73775000Y-108420000D01*
X73865000Y-108640000D02*
X73865000Y-108330000D01*
X73865000Y-110050000D02*
X73875000Y-109450000D01*
X73875000Y-109450000D02*
X73865000Y-108640000D01*
X73895000Y-65310000D02*
X74025000Y-64750000D01*
X74025000Y-63830000D02*
X73685000Y-63730000D01*
X74025000Y-64750000D02*
X74155000Y-64220000D01*
X74155000Y-64220000D02*
X74235000Y-63920000D01*
X74175000Y-144550000D02*
X73665000Y-142390000D01*
X74235000Y-63920000D02*
X74025000Y-63830000D01*
X74425000Y-46200000D02*
X75595000Y-46030000D01*
X74455000Y-145450000D02*
X74175000Y-144550000D01*
X74655000Y-146150000D02*
X74455000Y-145450000D01*
X74785000Y-146540000D02*
X74655000Y-146150000D01*
X75205000Y-147670000D02*
X74785000Y-146540000D01*
X75415000Y-148200000D02*
X75205000Y-147670000D01*
X75595000Y-46030000D02*
X77145000Y-45960000D01*
X75715000Y-148900000D02*
X75415000Y-148200000D01*
X76065000Y-149690000D02*
X75715000Y-148900000D01*
X76265000Y-150100000D02*
X76065000Y-149690000D01*
X76675000Y-150870000D02*
X76265000Y-150100000D01*
X76675000Y-164940000D02*
X76785000Y-164280000D01*
X76705000Y-165560000D02*
X76675000Y-164940000D01*
X76775000Y-165860000D02*
X76705000Y-165560000D01*
X76785000Y-164280000D02*
X77025000Y-163630000D01*
X76875000Y-151280000D02*
X76675000Y-150870000D01*
X76995000Y-166450000D02*
X76775000Y-165860000D01*
X77025000Y-163630000D02*
X77165000Y-163370000D01*
X77145000Y-45960000D02*
X78335000Y-46010000D01*
X77165000Y-163370000D02*
X77365000Y-163030000D01*
X77225000Y-151890000D02*
X76875000Y-151280000D01*
X77335000Y-167030000D02*
X76995000Y-166450000D01*
X77365000Y-163030000D02*
X77415000Y-162950000D01*
X77415000Y-162950000D02*
X77705000Y-162560000D01*
X77675000Y-152640000D02*
X77225000Y-151890000D01*
X77705000Y-162560000D02*
X77905000Y-162300000D01*
X77755000Y-167550000D02*
X77335000Y-167030000D01*
X77905000Y-162300000D02*
X78085000Y-162100000D01*
X78085000Y-153280000D02*
X77675000Y-152640000D01*
X78085000Y-162100000D02*
X78455000Y-161710000D01*
X78255000Y-168040000D02*
X77755000Y-167550000D01*
X78335000Y-46010000D02*
X79275000Y-46120000D01*
X78455000Y-161710000D02*
X78615000Y-161550000D01*
X78605000Y-154080000D02*
X78085000Y-153280000D01*
X78615000Y-161550000D02*
X79035000Y-161180000D01*
X78805000Y-168410000D02*
X78255000Y-168040000D01*
X79035000Y-161180000D02*
X79335000Y-160920000D01*
X79085000Y-154740000D02*
X78605000Y-154080000D01*
X79275000Y-46120000D02*
X80175000Y-46320000D01*
X79335000Y-160920000D02*
X79735000Y-160610000D01*
X79395000Y-168680000D02*
X78805000Y-168410000D01*
X79645000Y-155520000D02*
X79085000Y-154740000D01*
X79675000Y-168760000D02*
X79395000Y-168680000D01*
X79735000Y-160610000D02*
X80125000Y-160310000D01*
X79915000Y-155870000D02*
X79645000Y-155520000D01*
X80125000Y-160310000D02*
X80365000Y-160130000D01*
X80175000Y-46320000D02*
X81005000Y-46630000D01*
X80245000Y-168850000D02*
X79675000Y-168760000D01*
X80365000Y-160130000D02*
X80895000Y-159780000D01*
X80455000Y-156540000D02*
X79915000Y-155870000D01*
X80745000Y-156910000D02*
X80455000Y-156540000D01*
X80875000Y-168840000D02*
X80245000Y-168850000D01*
X80895000Y-159780000D02*
X81315000Y-159500000D01*
X81005000Y-46630000D02*
X81745000Y-47000000D01*
X81145000Y-157370000D02*
X80745000Y-156910000D01*
X81315000Y-159500000D02*
X81795000Y-159200000D01*
X81505000Y-168730000D02*
X80875000Y-168840000D01*
X81745000Y-47000000D02*
X82195000Y-47310000D01*
X81795000Y-159200000D02*
X82175000Y-158970000D01*
X81875000Y-158200000D02*
X81145000Y-157370000D01*
X81885000Y-168620000D02*
X81505000Y-168730000D01*
X82165000Y-158520000D02*
X81875000Y-158200000D01*
X82175000Y-158970000D02*
X82435000Y-158820000D01*
X82195000Y-47310000D02*
X82555000Y-47560000D01*
X82295000Y-158660000D02*
X82165000Y-158520000D01*
X82355000Y-168440000D02*
X81885000Y-168620000D01*
X82435000Y-158820000D02*
X82295000Y-158660000D01*
X82555000Y-47560000D02*
X82825000Y-47790000D01*
X82825000Y-47790000D02*
X83035000Y-47960000D01*
X83035000Y-47960000D02*
X83085000Y-48010000D01*
X83075000Y-168100000D02*
X82355000Y-168440000D01*
X83085000Y-48010000D02*
X83345000Y-47750000D01*
X83345000Y-47750000D02*
X83535000Y-47580000D01*
X83535000Y-47580000D02*
X83915000Y-47240000D01*
X83725000Y-167730000D02*
X83075000Y-168100000D01*
X83915000Y-47240000D02*
X84315000Y-46910000D01*
X84305000Y-167380000D02*
X83725000Y-167730000D01*
X84315000Y-46910000D02*
X85115000Y-46220000D01*
X84885000Y-166980000D02*
X84305000Y-167380000D01*
X85115000Y-46220000D02*
X85935000Y-45610000D01*
X85455000Y-166590000D02*
X84885000Y-166980000D01*
X85885000Y-166290000D02*
X85455000Y-166590000D01*
X85935000Y-45610000D02*
X86835000Y-44960000D01*
X86605000Y-165770000D02*
X85885000Y-166290000D01*
X86835000Y-44960000D02*
X88485000Y-43910000D01*
X87185000Y-165370000D02*
X86605000Y-165770000D01*
X87755000Y-164970000D02*
X87185000Y-165370000D01*
X88385000Y-164550000D02*
X87755000Y-164970000D01*
X88485000Y-43910000D02*
X89665000Y-43280000D01*
X88985000Y-164200000D02*
X88385000Y-164550000D01*
X89595000Y-163880000D02*
X88985000Y-164200000D01*
X89665000Y-43280000D02*
X90245000Y-42970000D01*
X89895000Y-163730000D02*
X89595000Y-163880000D01*
X90015000Y-163700000D02*
X89895000Y-163730000D01*
X90205000Y-163780000D02*
X90015000Y-163700000D01*
X90245000Y-42970000D02*
X90845000Y-42700000D01*
X90315000Y-163840000D02*
X90205000Y-163780000D01*
X90655000Y-164040000D02*
X90315000Y-163840000D01*
X90845000Y-42700000D02*
X91905000Y-42220000D01*
X91395000Y-164450000D02*
X90655000Y-164040000D01*
X91905000Y-42220000D02*
X93415000Y-41650000D01*
X92485000Y-165010000D02*
X91395000Y-164450000D01*
X92945000Y-165200000D02*
X92485000Y-165010000D01*
X93415000Y-41650000D02*
X94855000Y-41200000D01*
X94255000Y-165730000D02*
X92945000Y-165200000D01*
X94855000Y-41200000D02*
X96245000Y-40840000D01*
X95635000Y-166190000D02*
X94255000Y-165730000D01*
X96245000Y-40840000D02*
X97505000Y-40580000D01*
X97505000Y-40580000D02*
X99105000Y-40320000D01*
X97505000Y-166680000D02*
X95635000Y-166190000D01*
X99105000Y-40320000D02*
X100425000Y-40140000D01*
X99305000Y-167030000D02*
X97505000Y-166680000D01*
X99925000Y-167120000D02*
X99305000Y-167030000D01*
X100425000Y-40140000D02*
X101285000Y-40030000D01*
X101025000Y-167280000D02*
X99925000Y-167120000D01*
X101285000Y-40030000D02*
X103225000Y-39830000D01*
X101405000Y-167320000D02*
X101025000Y-167280000D01*
X103125000Y-167470000D02*
X101405000Y-167320000D01*
X103225000Y-39830000D02*
X104855000Y-39680000D01*
X103685000Y-167490000D02*
X103125000Y-167470000D01*
X104855000Y-39680000D02*
X105585000Y-39620000D01*
X105285000Y-167560000D02*
X103685000Y-167490000D01*
X105585000Y-39620000D02*
X107355000Y-39460000D01*
X105815000Y-167560000D02*
X105285000Y-167560000D01*
X107085000Y-167550000D02*
X105815000Y-167560000D01*
X107355000Y-39460000D02*
X109025000Y-39310000D01*
X109025000Y-39310000D02*
X111665000Y-39040000D01*
X109445000Y-167490000D02*
X107085000Y-167550000D01*
X111255000Y-167410000D02*
X109445000Y-167490000D01*
X111665000Y-39040000D02*
X113585000Y-38850000D01*
X111995000Y-167350000D02*
X111255000Y-167410000D01*
X113035000Y-167270000D02*
X111995000Y-167350000D01*
X113585000Y-38850000D02*
X115455000Y-38680000D01*
X114205000Y-167170000D02*
X113035000Y-167270000D01*
X114955000Y-167100000D02*
X114205000Y-167170000D01*
X115455000Y-38680000D02*
X117355000Y-38580000D01*
X115855000Y-166990000D02*
X114955000Y-167100000D01*
X117185000Y-166830000D02*
X115855000Y-166990000D01*
X117355000Y-38580000D02*
X118305000Y-38550000D01*
X118155000Y-166710000D02*
X117185000Y-166830000D01*
X118305000Y-38550000D02*
X119395000Y-38550000D01*
X119395000Y-38550000D02*
X120375000Y-38560000D01*
X120115000Y-166420000D02*
X118155000Y-166710000D01*
X120375000Y-38560000D02*
X121495000Y-38610000D01*
X121495000Y-38610000D02*
X122575000Y-38700000D01*
X121595000Y-166200000D02*
X120115000Y-166420000D01*
X122575000Y-38700000D02*
X124445000Y-38940000D01*
X122635000Y-166040000D02*
X121595000Y-166200000D01*
X123965000Y-165830000D02*
X122635000Y-166040000D01*
X124445000Y-38940000D02*
X125825000Y-39170000D01*
X125825000Y-39170000D02*
X127475000Y-39530000D01*
X125885000Y-165510000D02*
X123965000Y-165830000D01*
X127355000Y-165270000D02*
X125885000Y-165510000D01*
X127475000Y-39530000D02*
X128975000Y-39930000D01*
X128425000Y-165110000D02*
X127355000Y-165270000D01*
X128975000Y-39930000D02*
X129685000Y-40130000D01*
X129685000Y-40130000D02*
X131565000Y-40780000D01*
X129845000Y-164860000D02*
X128425000Y-165110000D01*
X131075000Y-164610000D02*
X129845000Y-164860000D01*
X131565000Y-40780000D02*
X133405000Y-41540000D01*
X132155000Y-164370000D02*
X131075000Y-164610000D01*
X132835000Y-164190000D02*
X132155000Y-164370000D01*
X133405000Y-41540000D02*
X135455000Y-42550000D01*
X133735000Y-163920000D02*
X132835000Y-164190000D01*
X134685000Y-163560000D02*
X133735000Y-163920000D01*
X135265000Y-163310000D02*
X134685000Y-163560000D01*
X135455000Y-42550000D02*
X136845000Y-43320000D01*
X135925000Y-162990000D02*
X135265000Y-163310000D01*
X136375000Y-162760000D02*
X135925000Y-162990000D01*
X136695000Y-162570000D02*
X136375000Y-162760000D01*
X136845000Y-43320000D02*
X137965000Y-44050000D01*
X137055000Y-162340000D02*
X136695000Y-162570000D01*
X137315000Y-162210000D02*
X137055000Y-162340000D01*
X137795000Y-162470000D02*
X137315000Y-162210000D01*
X137965000Y-44050000D02*
X138905000Y-44690000D01*
X138035000Y-162670000D02*
X137795000Y-162470000D01*
X138385000Y-162970000D02*
X138035000Y-162670000D01*
X138695000Y-163260000D02*
X138385000Y-162970000D01*
X138905000Y-44690000D02*
X139555000Y-45180000D01*
X139015000Y-163590000D02*
X138695000Y-163260000D01*
X139425000Y-164040000D02*
X139015000Y-163590000D01*
X139555000Y-45180000D02*
X139915000Y-45450000D01*
X139915000Y-45450000D02*
X140355000Y-45770000D01*
X139995000Y-164680000D02*
X139425000Y-164040000D01*
X140355000Y-45770000D02*
X140435000Y-45830000D01*
X140435000Y-45830000D02*
X140485000Y-45860000D01*
X140485000Y-45860000D02*
X140585000Y-45860000D01*
X140585000Y-45860000D02*
X140775000Y-45810000D01*
X140605000Y-165380000D02*
X139995000Y-164680000D01*
X140775000Y-45810000D02*
X141315000Y-45550000D01*
X141305000Y-166110000D02*
X140605000Y-165380000D01*
X141315000Y-45550000D02*
X142145000Y-45210000D01*
X142115000Y-166870000D02*
X141305000Y-166110000D01*
X142145000Y-45210000D02*
X142525000Y-45070000D01*
X142525000Y-45070000D02*
X143605000Y-44700000D01*
X142635000Y-167290000D02*
X142115000Y-166870000D01*
X143255000Y-167710000D02*
X142635000Y-167290000D01*
X143605000Y-44700000D02*
X144865000Y-44390000D01*
X143865000Y-168030000D02*
X143255000Y-167710000D01*
X144505000Y-168260000D02*
X143865000Y-168030000D01*
X144865000Y-44390000D02*
X146085000Y-44170000D01*
X145135000Y-168400000D02*
X144505000Y-168260000D01*
X145195000Y-157700000D02*
X145225000Y-157750000D01*
X145225000Y-157750000D02*
X145325000Y-157820000D01*
X145235000Y-157660000D02*
X145195000Y-157700000D01*
X145325000Y-157820000D02*
X145585000Y-157980000D01*
X145355000Y-157490000D02*
X145235000Y-157660000D01*
X145465000Y-157330000D02*
X145355000Y-157490000D01*
X145585000Y-157980000D02*
X145945000Y-158230000D01*
X145685000Y-156980000D02*
X145465000Y-157330000D01*
X145815000Y-168480000D02*
X145135000Y-168400000D01*
X145895000Y-156670000D02*
X145685000Y-156980000D01*
X145945000Y-158230000D02*
X146125000Y-158350000D01*
X146085000Y-44170000D02*
X147325000Y-44030000D01*
X146125000Y-158350000D02*
X146685000Y-158800000D01*
X146215000Y-156170000D02*
X145895000Y-156670000D01*
X146425000Y-168480000D02*
X145815000Y-168480000D01*
X146685000Y-158800000D02*
X147115000Y-159200000D01*
X146715000Y-155380000D02*
X146215000Y-156170000D01*
X147105000Y-154760000D02*
X146715000Y-155380000D01*
X147115000Y-159200000D02*
X147315000Y-159410000D01*
X147135000Y-168360000D02*
X146425000Y-168480000D01*
X147315000Y-159410000D02*
X147685000Y-159800000D01*
X147325000Y-44030000D02*
X148455000Y-44000000D01*
X147685000Y-153820000D02*
X147105000Y-154760000D01*
X147685000Y-159800000D02*
X147785000Y-159910000D01*
X147765000Y-168130000D02*
X147135000Y-168360000D01*
X147785000Y-159910000D02*
X148085000Y-160280000D01*
X148055000Y-167960000D02*
X147765000Y-168130000D01*
X148085000Y-160280000D02*
X148185000Y-160430000D01*
X148185000Y-160430000D02*
X148365000Y-160700000D01*
X148235000Y-152930000D02*
X147685000Y-153820000D01*
X148295000Y-167800000D02*
X148055000Y-167960000D01*
X148365000Y-160700000D02*
X148715000Y-161260000D01*
X148455000Y-44000000D02*
X149625000Y-44070000D01*
X148695000Y-152160000D02*
X148235000Y-152930000D01*
X148715000Y-161260000D02*
X148985000Y-161850000D01*
X148755000Y-167360000D02*
X148295000Y-167800000D01*
X148985000Y-161850000D02*
X149115000Y-162110000D01*
X149115000Y-162110000D02*
X149165000Y-162240000D01*
X149145000Y-166780000D02*
X148755000Y-167360000D01*
X149165000Y-162240000D02*
X149355000Y-162800000D01*
X149355000Y-162800000D02*
X149415000Y-162980000D01*
X149415000Y-162980000D02*
X149585000Y-163840000D01*
X149415000Y-166140000D02*
X149145000Y-166780000D01*
X149485000Y-150770000D02*
X148695000Y-152160000D01*
X149555000Y-165530000D02*
X149415000Y-166140000D01*
X149585000Y-163840000D02*
X149645000Y-164690000D01*
X149625000Y-44070000D02*
X150675000Y-44240000D01*
X149645000Y-164690000D02*
X149555000Y-165530000D01*
X149815000Y-150170000D02*
X149485000Y-150770000D01*
X150275000Y-149250000D02*
X149815000Y-150170000D01*
X150295000Y-61940000D02*
X150375000Y-62370000D01*
X150325000Y-61900000D02*
X150295000Y-61940000D01*
X150365000Y-61900000D02*
X150325000Y-61900000D01*
X150375000Y-62370000D02*
X150535000Y-63100000D01*
X150465000Y-61890000D02*
X150365000Y-61900000D01*
X150535000Y-63100000D02*
X150665000Y-63770000D01*
X150665000Y-63770000D02*
X150845000Y-64630000D01*
X150675000Y-44240000D02*
X151245000Y-44390000D01*
X150675000Y-61850000D02*
X150465000Y-61890000D01*
X150685000Y-148380000D02*
X150275000Y-149250000D01*
X150845000Y-64630000D02*
X151005000Y-65450000D01*
X150995000Y-61780000D02*
X150675000Y-61850000D01*
X151005000Y-65450000D02*
X151235000Y-66680000D01*
X151065000Y-147470000D02*
X150685000Y-148380000D01*
X151235000Y-66680000D02*
X151355000Y-67330000D01*
X151245000Y-44390000D02*
X152275000Y-44760000D01*
X151305000Y-146860000D02*
X151065000Y-147470000D01*
X151355000Y-67330000D02*
X151505000Y-68150000D01*
X151485000Y-61620000D02*
X150995000Y-61780000D01*
X151505000Y-68150000D02*
X151565000Y-68550000D01*
X151525000Y-69160000D02*
X151575000Y-69290000D01*
X151535000Y-69090000D02*
X151525000Y-69160000D01*
X151565000Y-68550000D02*
X151585000Y-68700000D01*
X151575000Y-69020000D02*
X151535000Y-69090000D01*
X151575000Y-69290000D02*
X151805000Y-69670000D01*
X151585000Y-68700000D02*
X151595000Y-68900000D01*
X151595000Y-68900000D02*
X151575000Y-69020000D01*
X151595000Y-146070000D02*
X151305000Y-146860000D01*
X151805000Y-69670000D02*
X152135000Y-70150000D01*
X151905000Y-61480000D02*
X151485000Y-61620000D01*
X151925000Y-144990000D02*
X151595000Y-146070000D01*
X152135000Y-70150000D02*
X152375000Y-70460000D01*
X152135000Y-97280000D02*
X152145000Y-98240000D01*
X152145000Y-95680000D02*
X152145000Y-96480000D01*
X152145000Y-96480000D02*
X152135000Y-97280000D01*
X152145000Y-98240000D02*
X152175000Y-98990000D01*
X152155000Y-95120000D02*
X152145000Y-95680000D01*
X152165000Y-94940000D02*
X152155000Y-95120000D01*
X152175000Y-98990000D02*
X152195000Y-99540000D01*
X152195000Y-99540000D02*
X152205000Y-99820000D01*
X152205000Y-99820000D02*
X152275000Y-100650000D01*
X152215000Y-94780000D02*
X152165000Y-94940000D01*
X152255000Y-94700000D02*
X152215000Y-94780000D01*
X152275000Y-44760000D02*
X153145000Y-45220000D01*
X152275000Y-100650000D02*
X152305000Y-101100000D01*
X152285000Y-143600000D02*
X151925000Y-144990000D01*
X152305000Y-101100000D02*
X152355000Y-101480000D01*
X152355000Y-94540000D02*
X152255000Y-94700000D01*
X152355000Y-101480000D02*
X152895000Y-101580000D01*
X152375000Y-70460000D02*
X152515000Y-70630000D01*
X152445000Y-61260000D02*
X151905000Y-61480000D01*
X152515000Y-70630000D02*
X152715000Y-70850000D01*
X152555000Y-94250000D02*
X152355000Y-94540000D01*
X152615000Y-142070000D02*
X152285000Y-143600000D01*
X152715000Y-70850000D02*
X152885000Y-71030000D01*
X152825000Y-107860000D02*
X152835000Y-108150000D01*
X152835000Y-108150000D02*
X152885000Y-109020000D01*
X152845000Y-93840000D02*
X152555000Y-94250000D01*
X152885000Y-71030000D02*
X153165000Y-71310000D01*
X152885000Y-109020000D02*
X152945000Y-109740000D01*
X152895000Y-101580000D02*
X153995000Y-101760000D01*
X152925000Y-61010000D02*
X152445000Y-61260000D01*
X152945000Y-109740000D02*
X153005000Y-110640000D01*
X152945000Y-140230000D02*
X152615000Y-142070000D01*
X152965000Y-108020000D02*
X152825000Y-107860000D01*
X153005000Y-110640000D02*
X153115000Y-112130000D01*
X153115000Y-112130000D02*
X153215000Y-113560000D01*
X153145000Y-45220000D02*
X153285000Y-45310000D01*
X153165000Y-71310000D02*
X153525000Y-71620000D01*
X153195000Y-93340000D02*
X152845000Y-93840000D01*
X153215000Y-113560000D02*
X153385000Y-116020000D01*
X153225000Y-138170000D02*
X152945000Y-140230000D01*
X153285000Y-45310000D02*
X153985000Y-45810000D01*
X153375000Y-108390000D02*
X152965000Y-108020000D01*
X153385000Y-116020000D02*
X153485000Y-117690000D01*
X153425000Y-136230000D02*
X153225000Y-138170000D01*
X153485000Y-92900000D02*
X153195000Y-93340000D01*
X153485000Y-117690000D02*
X153595000Y-119690000D01*
X153525000Y-71620000D02*
X153675000Y-71740000D01*
X153545000Y-134570000D02*
X153425000Y-136230000D01*
X153595000Y-119690000D02*
X153665000Y-121140000D01*
X153625000Y-133100000D02*
X153545000Y-134570000D01*
X153665000Y-121140000D02*
X153785000Y-126340000D01*
X153675000Y-71740000D02*
X153915000Y-71900000D01*
X153695000Y-131550000D02*
X153625000Y-133100000D01*
X153735000Y-130230000D02*
X153695000Y-131550000D01*
X153755000Y-60460000D02*
X152925000Y-61010000D01*
X153775000Y-128610000D02*
X153735000Y-130230000D01*
X153785000Y-126340000D02*
X153775000Y-128610000D01*
X153845000Y-92360000D02*
X153485000Y-92900000D01*
X153915000Y-71900000D02*
X154555000Y-72290000D01*
X153915000Y-108850000D02*
X153375000Y-108390000D01*
X153985000Y-45810000D02*
X154705000Y-46510000D01*
X153995000Y-101760000D02*
X154445000Y-101830000D01*
X154125000Y-91960000D02*
X153845000Y-92360000D01*
X154445000Y-101830000D02*
X155165000Y-101960000D01*
X154495000Y-59810000D02*
X153755000Y-60460000D01*
X154555000Y-72290000D02*
X155015000Y-72550000D01*
X154555000Y-91370000D02*
X154125000Y-91960000D01*
X154705000Y-46510000D02*
X155325000Y-47270000D01*
X154775000Y-91100000D02*
X154555000Y-91370000D01*
X154815000Y-109500000D02*
X153915000Y-108850000D01*
X155015000Y-72550000D02*
X155365000Y-72750000D01*
X155085000Y-90760000D02*
X154775000Y-91100000D01*
X155165000Y-101960000D02*
X155635000Y-102050000D01*
X155175000Y-59040000D02*
X154495000Y-59810000D01*
X155325000Y-47270000D02*
X155865000Y-48160000D01*
X155365000Y-72750000D02*
X155625000Y-72900000D01*
X155405000Y-90460000D02*
X155085000Y-90760000D01*
X155625000Y-72900000D02*
X156535000Y-73410000D01*
X155625000Y-109970000D02*
X154815000Y-109500000D01*
X155635000Y-102050000D02*
X156045000Y-102140000D01*
X155735000Y-58200000D02*
X155175000Y-59040000D01*
X155785000Y-90170000D02*
X155405000Y-90460000D01*
X155865000Y-48160000D02*
X156165000Y-48840000D01*
X156025000Y-110150000D02*
X155625000Y-109970000D01*
X156045000Y-102140000D02*
X156535000Y-102240000D01*
X156155000Y-89910000D02*
X155785000Y-90170000D01*
X156165000Y-48840000D02*
X156295000Y-49140000D01*
X156225000Y-57260000D02*
X155735000Y-58200000D01*
X156295000Y-49140000D02*
X156655000Y-50210000D01*
X156535000Y-73410000D02*
X156865000Y-73600000D01*
X156535000Y-102240000D02*
X157155000Y-102410000D01*
X156535000Y-110380000D02*
X156025000Y-110150000D01*
X156615000Y-56200000D02*
X156225000Y-57260000D01*
X156655000Y-50210000D02*
X156895000Y-51340000D01*
X156685000Y-89620000D02*
X156155000Y-89910000D01*
X156745000Y-55680000D02*
X156615000Y-56200000D01*
X156865000Y-73600000D02*
X157325000Y-73880000D01*
X156895000Y-51340000D02*
X157005000Y-52010000D01*
X156915000Y-54970000D02*
X156745000Y-55680000D01*
X156985000Y-54380000D02*
X156915000Y-54970000D01*
X156985000Y-110530000D02*
X156535000Y-110380000D01*
X157005000Y-52010000D02*
X157035000Y-52530000D01*
X157035000Y-52530000D02*
X157045000Y-53340000D01*
X157035000Y-53760000D02*
X156985000Y-54380000D01*
X157045000Y-53340000D02*
X157035000Y-53760000D01*
X157155000Y-102410000D02*
X158005000Y-102750000D01*
X157185000Y-89360000D02*
X156685000Y-89620000D01*
X157325000Y-73880000D02*
X157635000Y-74080000D01*
X157415000Y-110670000D02*
X156985000Y-110530000D01*
X157635000Y-74080000D02*
X157955000Y-74310000D01*
X157755000Y-110730000D02*
X157415000Y-110670000D01*
X157785000Y-89060000D02*
X157185000Y-89360000D01*
X157955000Y-74310000D02*
X158205000Y-74500000D01*
X158005000Y-102750000D02*
X158765000Y-103160000D01*
X158035000Y-110770000D02*
X157755000Y-110730000D01*
X158205000Y-74500000D02*
X158335000Y-74610000D01*
X158235000Y-88830000D02*
X157785000Y-89060000D01*
X158335000Y-74610000D02*
X158535000Y-74800000D01*
X158435000Y-110780000D02*
X158035000Y-110770000D01*
X158535000Y-74800000D02*
X159005000Y-75250000D01*
X158755000Y-81400000D02*
X158915000Y-81460000D01*
X158765000Y-103160000D02*
X159445000Y-103680000D01*
X158795000Y-81370000D02*
X158755000Y-81400000D01*
X158915000Y-81460000D02*
X159255000Y-81540000D01*
X158935000Y-88490000D02*
X158235000Y-88830000D01*
X158975000Y-81280000D02*
X158795000Y-81370000D01*
X159005000Y-75250000D02*
X159425000Y-75780000D01*
X159135000Y-110750000D02*
X158435000Y-110780000D01*
X159205000Y-81160000D02*
X158975000Y-81280000D01*
X159255000Y-81540000D02*
X159675000Y-81670000D01*
X159355000Y-81060000D02*
X159205000Y-81160000D01*
X159395000Y-110720000D02*
X159135000Y-110750000D01*
X159425000Y-75780000D02*
X159555000Y-75960000D01*
X159445000Y-103680000D02*
X160025000Y-104300000D01*
X159515000Y-88170000D02*
X158935000Y-88490000D01*
X159555000Y-75960000D02*
X159925000Y-76600000D01*
X159615000Y-110670000D02*
X159395000Y-110720000D01*
X159675000Y-81670000D02*
X159915000Y-81750000D01*
X159695000Y-80810000D02*
X159355000Y-81060000D01*
X159825000Y-110580000D02*
X159615000Y-110670000D01*
X159915000Y-81750000D02*
X160085000Y-81840000D01*
X159925000Y-76600000D02*
X160025000Y-76760000D01*
X159955000Y-87910000D02*
X159515000Y-88170000D01*
X159975000Y-110500000D02*
X159825000Y-110580000D01*
X160025000Y-76760000D02*
X160275000Y-77410000D01*
X160025000Y-104300000D02*
X160345000Y-104780000D01*
X160045000Y-80410000D02*
X159695000Y-80810000D01*
X160085000Y-81840000D02*
X160505000Y-82070000D01*
X160275000Y-77410000D02*
X160445000Y-78020000D01*
X160315000Y-79910000D02*
X160045000Y-80410000D01*
X160345000Y-104780000D02*
X160505000Y-105010000D01*
X160435000Y-110190000D02*
X159975000Y-110500000D01*
X160445000Y-78020000D02*
X160525000Y-78660000D01*
X160485000Y-79330000D02*
X160315000Y-79910000D01*
X160505000Y-82070000D02*
X160665000Y-82210000D01*
X160505000Y-105010000D02*
X160685000Y-105340000D01*
X160515000Y-87540000D02*
X159955000Y-87910000D01*
X160525000Y-78660000D02*
X160485000Y-79330000D01*
X160665000Y-82210000D02*
X160975000Y-82480000D01*
X160685000Y-105340000D02*
X160865000Y-105730000D01*
X160855000Y-109790000D02*
X160435000Y-110190000D01*
X160865000Y-105730000D02*
X161065000Y-106210000D01*
X160925000Y-87210000D02*
X160515000Y-87540000D01*
X160975000Y-82480000D02*
X161395000Y-83020000D01*
X161065000Y-106210000D02*
X161235000Y-106770000D01*
X161145000Y-109350000D02*
X160855000Y-109790000D01*
X161215000Y-109220000D02*
X161145000Y-109350000D01*
X161235000Y-86890000D02*
X160925000Y-87210000D01*
X161235000Y-106770000D02*
X161305000Y-107250000D01*
X161305000Y-107250000D02*
X161335000Y-107770000D01*
X161305000Y-108950000D02*
X161215000Y-109220000D01*
X161325000Y-108640000D02*
X161305000Y-108950000D01*
X161335000Y-107770000D02*
X161335000Y-108450000D01*
X161335000Y-108450000D02*
X161325000Y-108640000D01*
X161395000Y-83020000D02*
X161675000Y-83620000D01*
X161465000Y-86580000D02*
X161235000Y-86890000D01*
X161655000Y-86240000D02*
X161465000Y-86580000D01*
X161675000Y-83620000D02*
X161785000Y-83970000D01*
X161785000Y-83970000D02*
X161915000Y-84650000D01*
X161785000Y-85880000D02*
X161655000Y-86240000D01*
X161915000Y-84650000D02*
X161915000Y-85300000D01*
X161915000Y-85300000D02*
X161785000Y-85880000D01*
M02*
