M48
; DRILL file {KiCad 8.0.5-8.0.5-0~ubuntu24.04.1} date 2024-10-08T07:55:07+0900
; FORMAT={-:-/ absolute / inch / decimal}
; #@! TF.CreationDate,2024-10-08T07:55:07+09:00
; #@! TF.GenerationSoftware,Kicad,Pcbnew,8.0.5-8.0.5-0~ubuntu24.04.1
; #@! TF.FileFunction,Plated,1,2,PTH
FMAT,2
INCH
; #@! TA.AperFunction,Plated,PTH,ViaDrill
T1C0.0118
; #@! TA.AperFunction,Plated,PTH,ComponentDrill
T2C0.0315
; #@! TA.AperFunction,Plated,PTH,ComponentDrill
T3C0.0394
; #@! TA.AperFunction,Plated,PTH,ComponentDrill
T4C0.0433
%
G90
G05
T1
X3.5157Y-2.5236
X3.622Y-2.5787
X3.626Y-2.4528
X3.626Y-2.4921
X3.9488Y-5.5197
X4.0787Y-4.1693
X4.4567Y-6.1535
X4.6575Y-2.4724
X4.7362Y-5.5197
X4.7598Y-2.5315
X4.7756Y-2.4055
X4.7874Y-6.0197
X4.9016Y-4.4488
T2
X3.2874Y-4.626
X3.2874Y-4.7047
X3.2874Y-4.7835
X3.2874Y-4.8622
T3
X4.3142Y-3.8622
X4.3724Y-5.3181
X4.3724Y-5.4181
X4.3724Y-5.5181
X4.3724Y-5.6181
X4.3724Y-5.7181
X4.3724Y-5.8181
X4.3724Y-5.9181
X4.3724Y-6.0181
X4.3724Y-6.1181
X4.4142Y-3.8622
X4.4724Y-5.3181
X4.5142Y-3.8622
X4.5724Y-5.3181
X4.6142Y-3.8622
X4.6724Y-5.3181
X4.7724Y-5.3181
X4.8724Y-5.3181
X4.9724Y-5.3181
X4.9724Y-5.4181
X4.9724Y-5.5181
X4.9724Y-5.6181
X4.9724Y-5.7181
X4.9724Y-5.8181
X4.9724Y-5.9181
X4.9724Y-6.0181
X4.9724Y-6.1181
X5.4252Y-4.5748
X5.622Y-4.5748
T4
X3.1575Y-5.5197
X3.1575Y-5.6969
X3.4134Y-5.5197
X3.4134Y-5.6969
X3.5039Y-5.1378
X3.5039Y-5.315
X3.5039Y-5.9094
X3.5039Y-6.0866
X3.7598Y-5.1378
X3.7598Y-5.315
X3.7598Y-5.9094
X3.7598Y-6.0866
X3.8189Y-5.5197
X3.8189Y-5.6969
X4.0748Y-5.5197
X4.0748Y-5.6969
X5.2087Y-5.2598
X5.2087Y-5.437
X5.4291Y-5.685
X5.4291Y-5.8622
X5.4646Y-5.2598
X5.4646Y-5.437
X5.685Y-5.685
X5.685Y-5.8622
M30
