G04 #@! TF.GenerationSoftware,KiCad,Pcbnew,8.0.5-8.0.5-0~ubuntu24.04.1*
G04 #@! TF.CreationDate,2024-10-08T07:55:02+09:00*
G04 #@! TF.ProjectId,gopher_rp2040_sw,676f7068-6572-45f7-9270-323034305f73,rev?*
G04 #@! TF.SameCoordinates,Original*
G04 #@! TF.FileFunction,Legend,Top*
G04 #@! TF.FilePolarity,Positive*
%FSLAX46Y46*%
G04 Gerber Fmt 4.6, Leading zero omitted, Abs format (unit mm)*
G04 Created by KiCad (PCBNEW 8.0.5-8.0.5-0~ubuntu24.04.1) date 2024-10-08 07:55:02*
%MOMM*%
%LPD*%
G01*
G04 APERTURE LIST*
%ADD10C,0.150000*%
%ADD11C,0.120000*%
%ADD12C,0.100000*%
G04 APERTURE END LIST*
D10*
X112033333Y-108885009D02*
X112176190Y-108932628D01*
X112176190Y-108932628D02*
X112223809Y-108980247D01*
X112223809Y-108980247D02*
X112271428Y-109075485D01*
X112271428Y-109075485D02*
X112271428Y-109218342D01*
X112271428Y-109218342D02*
X112223809Y-109313580D01*
X112223809Y-109313580D02*
X112176190Y-109361200D01*
X112176190Y-109361200D02*
X112080952Y-109408819D01*
X112080952Y-109408819D02*
X111700000Y-109408819D01*
X111700000Y-109408819D02*
X111700000Y-108408819D01*
X111700000Y-108408819D02*
X112033333Y-108408819D01*
X112033333Y-108408819D02*
X112128571Y-108456438D01*
X112128571Y-108456438D02*
X112176190Y-108504057D01*
X112176190Y-108504057D02*
X112223809Y-108599295D01*
X112223809Y-108599295D02*
X112223809Y-108694533D01*
X112223809Y-108694533D02*
X112176190Y-108789771D01*
X112176190Y-108789771D02*
X112128571Y-108837390D01*
X112128571Y-108837390D02*
X112033333Y-108885009D01*
X112033333Y-108885009D02*
X111700000Y-108885009D01*
X112700000Y-109408819D02*
X112700000Y-108742152D01*
X112700000Y-108932628D02*
X112747619Y-108837390D01*
X112747619Y-108837390D02*
X112795238Y-108789771D01*
X112795238Y-108789771D02*
X112890476Y-108742152D01*
X112890476Y-108742152D02*
X112985714Y-108742152D01*
X113747619Y-109408819D02*
X113747619Y-108408819D01*
X113747619Y-109361200D02*
X113652381Y-109408819D01*
X113652381Y-109408819D02*
X113461905Y-109408819D01*
X113461905Y-109408819D02*
X113366667Y-109361200D01*
X113366667Y-109361200D02*
X113319048Y-109313580D01*
X113319048Y-109313580D02*
X113271429Y-109218342D01*
X113271429Y-109218342D02*
X113271429Y-108932628D01*
X113271429Y-108932628D02*
X113319048Y-108837390D01*
X113319048Y-108837390D02*
X113366667Y-108789771D01*
X113366667Y-108789771D02*
X113461905Y-108742152D01*
X113461905Y-108742152D02*
X113652381Y-108742152D01*
X113652381Y-108742152D02*
X113747619Y-108789771D01*
X114747619Y-109408819D02*
X114176191Y-109408819D01*
X114461905Y-109408819D02*
X114461905Y-108408819D01*
X114461905Y-108408819D02*
X114366667Y-108551676D01*
X114366667Y-108551676D02*
X114271429Y-108646914D01*
X114271429Y-108646914D02*
X114176191Y-108694533D01*
X83166666Y-114894819D02*
X83166666Y-115609104D01*
X83166666Y-115609104D02*
X83119047Y-115751961D01*
X83119047Y-115751961D02*
X83023809Y-115847200D01*
X83023809Y-115847200D02*
X82880952Y-115894819D01*
X82880952Y-115894819D02*
X82785714Y-115894819D01*
X84166666Y-115894819D02*
X83595238Y-115894819D01*
X83880952Y-115894819D02*
X83880952Y-114894819D01*
X83880952Y-114894819D02*
X83785714Y-115037676D01*
X83785714Y-115037676D02*
X83690476Y-115132914D01*
X83690476Y-115132914D02*
X83595238Y-115180533D01*
X139657142Y-109484819D02*
X139180952Y-109484819D01*
X139180952Y-109484819D02*
X139180952Y-108484819D01*
X139942857Y-109437200D02*
X140085714Y-109484819D01*
X140085714Y-109484819D02*
X140323809Y-109484819D01*
X140323809Y-109484819D02*
X140419047Y-109437200D01*
X140419047Y-109437200D02*
X140466666Y-109389580D01*
X140466666Y-109389580D02*
X140514285Y-109294342D01*
X140514285Y-109294342D02*
X140514285Y-109199104D01*
X140514285Y-109199104D02*
X140466666Y-109103866D01*
X140466666Y-109103866D02*
X140419047Y-109056247D01*
X140419047Y-109056247D02*
X140323809Y-109008628D01*
X140323809Y-109008628D02*
X140133333Y-108961009D01*
X140133333Y-108961009D02*
X140038095Y-108913390D01*
X140038095Y-108913390D02*
X139990476Y-108865771D01*
X139990476Y-108865771D02*
X139942857Y-108770533D01*
X139942857Y-108770533D02*
X139942857Y-108675295D01*
X139942857Y-108675295D02*
X139990476Y-108580057D01*
X139990476Y-108580057D02*
X140038095Y-108532438D01*
X140038095Y-108532438D02*
X140133333Y-108484819D01*
X140133333Y-108484819D02*
X140371428Y-108484819D01*
X140371428Y-108484819D02*
X140514285Y-108532438D01*
X141466666Y-109484819D02*
X140895238Y-109484819D01*
X141180952Y-109484819D02*
X141180952Y-108484819D01*
X141180952Y-108484819D02*
X141085714Y-108627676D01*
X141085714Y-108627676D02*
X140990476Y-108722914D01*
X140990476Y-108722914D02*
X140895238Y-108770533D01*
D11*
X88100000Y-61150000D02*
X95400000Y-61150000D01*
X88100000Y-66650000D02*
X95400000Y-66650000D01*
X95400000Y-66650000D02*
X95400000Y-65500000D01*
X117100000Y-59950000D02*
X124400000Y-59950000D01*
X117100000Y-65450000D02*
X124400000Y-65450000D01*
X124400000Y-65450000D02*
X124400000Y-64300000D01*
X99800000Y-96400000D02*
X127200000Y-96400000D01*
X99800000Y-123700000D02*
X99800000Y-96400000D01*
X100222000Y-99695000D02*
X123322000Y-99695000D01*
X100222000Y-116295000D02*
X100222000Y-99695000D01*
X108501000Y-96889000D02*
X108501000Y-99302000D01*
X108501000Y-96889000D02*
X118280000Y-96889000D01*
X118280000Y-96889000D02*
X118280000Y-99302000D01*
X118280000Y-99302000D02*
X108501000Y-99302000D01*
X123322000Y-99695000D02*
X126408000Y-99695000D01*
X123322000Y-116295000D02*
X100222000Y-116295000D01*
X123322000Y-116295000D02*
X126662000Y-116320000D01*
X126662000Y-99683000D02*
X126408000Y-99695000D01*
X126662000Y-116320000D02*
X126662000Y-99683000D01*
X127200000Y-96400000D02*
X127200000Y-123700000D01*
X127200000Y-123700000D02*
X99800000Y-123700000D01*
X132050000Y-135100000D02*
X132050000Y-136600000D01*
X133300000Y-139100000D02*
X137800000Y-139100000D01*
X137800000Y-132600000D02*
X133300000Y-132600000D01*
X139050000Y-136600000D02*
X139050000Y-135100000D01*
X79950000Y-141700000D02*
X79950000Y-143200000D01*
X81200000Y-145700000D02*
X85700000Y-145700000D01*
X85700000Y-139200000D02*
X81200000Y-139200000D01*
X86950000Y-143200000D02*
X86950000Y-141700000D01*
X88750000Y-151600000D02*
X88750000Y-153100000D01*
X90000000Y-155600000D02*
X94500000Y-155600000D01*
X94500000Y-149100000D02*
X90000000Y-149100000D01*
X95750000Y-153100000D02*
X95750000Y-151600000D01*
X82440000Y-116440000D02*
X83500000Y-116440000D01*
X82440000Y-117500000D02*
X82440000Y-116440000D01*
X82440000Y-118500000D02*
X82440000Y-124560000D01*
X82440000Y-118500000D02*
X84560000Y-118500000D01*
X82440000Y-124560000D02*
X84560000Y-124560000D01*
X84560000Y-118500000D02*
X84560000Y-124560000D01*
X88750000Y-132000000D02*
X88750000Y-133500000D01*
X90000000Y-136000000D02*
X94500000Y-136000000D01*
X94500000Y-129500000D02*
X90000000Y-129500000D01*
X95750000Y-133500000D02*
X95750000Y-132000000D01*
X95735747Y-63816800D02*
G75*
G02*
X87749035Y-63816800I-3993356J0D01*
G01*
X87749035Y-63816800D02*
G75*
G02*
X95735747Y-63816800I3993356J0D01*
G01*
X124755247Y-62813500D02*
G75*
G02*
X116768535Y-62813500I-3993356J0D01*
G01*
X116768535Y-62813500D02*
G75*
G02*
X124755247Y-62813500I3993356J0D01*
G01*
D12*
X99250000Y-52570000D02*
X100570000Y-52690000D01*
X101700000Y-53010000D01*
X103060000Y-53610000D01*
X105260000Y-55120000D01*
X106990000Y-57060000D01*
X108160000Y-59320000D01*
X108780000Y-61680000D01*
X95560000Y-62520000D01*
X95260000Y-61870000D01*
X94770000Y-61170000D01*
X94000000Y-60460000D01*
X93340000Y-60110000D01*
X92700000Y-59890000D01*
X91742391Y-59823444D01*
X90760000Y-59910000D01*
X90000000Y-60190000D01*
X89270000Y-60630000D01*
X88770000Y-61090000D01*
X88380000Y-61590000D01*
X88030000Y-62260000D01*
X87800000Y-62950000D01*
X87160000Y-62930000D01*
X87440000Y-60530000D01*
X88170000Y-58440000D01*
X88700000Y-57450000D01*
X90440000Y-55340000D01*
X92590000Y-53770000D01*
X95080000Y-52850000D01*
X98040000Y-52510000D01*
X99250000Y-52570000D01*
G36*
X99250000Y-52570000D02*
G01*
X100570000Y-52690000D01*
X101700000Y-53010000D01*
X103060000Y-53610000D01*
X105260000Y-55120000D01*
X106990000Y-57060000D01*
X108160000Y-59320000D01*
X108780000Y-61680000D01*
X95560000Y-62520000D01*
X95260000Y-61870000D01*
X94770000Y-61170000D01*
X94000000Y-60460000D01*
X93340000Y-60110000D01*
X92700000Y-59890000D01*
X91742391Y-59823444D01*
X90760000Y-59910000D01*
X90000000Y-60190000D01*
X89270000Y-60630000D01*
X88770000Y-61090000D01*
X88380000Y-61590000D01*
X88030000Y-62260000D01*
X87800000Y-62950000D01*
X87160000Y-62930000D01*
X87440000Y-60530000D01*
X88170000Y-58440000D01*
X88700000Y-57450000D01*
X90440000Y-55340000D01*
X92590000Y-53770000D01*
X95080000Y-52850000D01*
X98040000Y-52510000D01*
X99250000Y-52570000D01*
G37*
X118030000Y-74940000D02*
X119330000Y-75540000D01*
X120530000Y-76500000D01*
X121360000Y-77680000D01*
X121710000Y-78870000D01*
X121590000Y-79970000D01*
X120960000Y-80820000D01*
X120840000Y-80900000D01*
X119530000Y-81320000D01*
X117860000Y-81230000D01*
X116120000Y-80690000D01*
X115560000Y-80480000D01*
X113890000Y-80010000D01*
X112280000Y-80020000D01*
X109040000Y-80800000D01*
X107250000Y-81010000D01*
X105860000Y-80840000D01*
X104980000Y-80330000D01*
X104850000Y-80180000D01*
X104410000Y-79050000D01*
X104600000Y-77780000D01*
X105360000Y-76550000D01*
X106280000Y-75770000D01*
X106640000Y-75460000D01*
X107060000Y-75210000D01*
X107620000Y-75010000D01*
X108280000Y-75090000D01*
X109360000Y-75610000D01*
X111560000Y-76180000D01*
X113780000Y-76090000D01*
X115910000Y-75440000D01*
X116690000Y-75060000D01*
X117350000Y-74870000D01*
X118030000Y-74940000D01*
G36*
X118030000Y-74940000D02*
G01*
X119330000Y-75540000D01*
X120530000Y-76500000D01*
X121360000Y-77680000D01*
X121710000Y-78870000D01*
X121590000Y-79970000D01*
X120960000Y-80820000D01*
X120840000Y-80900000D01*
X119530000Y-81320000D01*
X117860000Y-81230000D01*
X116120000Y-80690000D01*
X115560000Y-80480000D01*
X113890000Y-80010000D01*
X112280000Y-80020000D01*
X109040000Y-80800000D01*
X107250000Y-81010000D01*
X105860000Y-80840000D01*
X104980000Y-80330000D01*
X104850000Y-80180000D01*
X104410000Y-79050000D01*
X104600000Y-77780000D01*
X105360000Y-76550000D01*
X106280000Y-75770000D01*
X106640000Y-75460000D01*
X107060000Y-75210000D01*
X107620000Y-75010000D01*
X108280000Y-75090000D01*
X109360000Y-75610000D01*
X111560000Y-76180000D01*
X113780000Y-76090000D01*
X115910000Y-75440000D01*
X116690000Y-75060000D01*
X117350000Y-74870000D01*
X118030000Y-74940000D01*
G37*
X127380000Y-51280000D02*
X128970000Y-51440000D01*
X131160000Y-51990000D01*
X132960000Y-52930000D01*
X134660000Y-54390000D01*
X135240000Y-55050000D01*
X135980000Y-56230000D01*
X136640000Y-57270000D01*
X137450000Y-59680000D01*
X124770000Y-62330000D01*
X124530000Y-61330000D01*
X124180000Y-60660000D01*
X123690000Y-60030000D01*
X123130000Y-59540000D01*
X122480000Y-59170000D01*
X121610000Y-58870000D01*
X120830000Y-58780000D01*
X119920000Y-58870000D01*
X119120000Y-59130000D01*
X118470000Y-59490000D01*
X117910000Y-59970000D01*
X117480000Y-60450000D01*
X117180000Y-60950000D01*
X117020000Y-61310000D01*
X116890000Y-61680000D01*
X115990000Y-61640000D01*
X116020000Y-61090000D01*
X116070000Y-60280000D01*
X116730000Y-57690000D01*
X118010000Y-55450000D01*
X119920000Y-53550000D01*
X122460000Y-52040000D01*
X123630000Y-51540000D01*
X124570000Y-51300000D01*
X125760000Y-51220000D01*
X127380000Y-51280000D01*
G36*
X127380000Y-51280000D02*
G01*
X128970000Y-51440000D01*
X131160000Y-51990000D01*
X132960000Y-52930000D01*
X134660000Y-54390000D01*
X135240000Y-55050000D01*
X135980000Y-56230000D01*
X136640000Y-57270000D01*
X137450000Y-59680000D01*
X124770000Y-62330000D01*
X124530000Y-61330000D01*
X124180000Y-60660000D01*
X123690000Y-60030000D01*
X123130000Y-59540000D01*
X122480000Y-59170000D01*
X121610000Y-58870000D01*
X120830000Y-58780000D01*
X119920000Y-58870000D01*
X119120000Y-59130000D01*
X118470000Y-59490000D01*
X117910000Y-59970000D01*
X117480000Y-60450000D01*
X117180000Y-60950000D01*
X117020000Y-61310000D01*
X116890000Y-61680000D01*
X115990000Y-61640000D01*
X116020000Y-61090000D01*
X116070000Y-60280000D01*
X116730000Y-57690000D01*
X118010000Y-55450000D01*
X119920000Y-53550000D01*
X122460000Y-52040000D01*
X123630000Y-51540000D01*
X124570000Y-51300000D01*
X125760000Y-51220000D01*
X127380000Y-51280000D01*
G37*
X108880000Y-64180000D02*
X108260000Y-66690000D01*
X107160000Y-68950000D01*
X105360000Y-71090000D01*
X104480000Y-71820000D01*
X103110000Y-72730000D01*
X101960000Y-73300000D01*
X100430000Y-73680000D01*
X98120000Y-73880000D01*
X95730000Y-73690000D01*
X93700000Y-73160000D01*
X92650000Y-72620000D01*
X90810000Y-71230000D01*
X89200000Y-69520000D01*
X87980000Y-67520000D01*
X87320000Y-65340000D01*
X87160000Y-62930000D01*
X87800000Y-62950000D01*
X87710000Y-63490000D01*
X87710000Y-64030000D01*
X87770000Y-64590000D01*
X88010000Y-65310000D01*
X88440000Y-66150000D01*
X89410000Y-67090000D01*
X90420000Y-67600000D01*
X91320000Y-67820000D01*
X92170000Y-67810000D01*
X93110000Y-67600000D01*
X93840000Y-67260000D01*
X94610000Y-66640000D01*
X95340000Y-65590000D01*
X95650000Y-64650000D01*
X95720000Y-64310000D01*
X95750000Y-63570000D01*
X95690000Y-63070000D01*
X95680000Y-63060000D01*
X95590000Y-62600000D01*
X95560000Y-62520000D01*
X108780000Y-61680000D01*
X108880000Y-64180000D01*
G36*
X108880000Y-64180000D02*
G01*
X108260000Y-66690000D01*
X107160000Y-68950000D01*
X105360000Y-71090000D01*
X104480000Y-71820000D01*
X103110000Y-72730000D01*
X101960000Y-73300000D01*
X100430000Y-73680000D01*
X98120000Y-73880000D01*
X95730000Y-73690000D01*
X93700000Y-73160000D01*
X92650000Y-72620000D01*
X90810000Y-71230000D01*
X89200000Y-69520000D01*
X87980000Y-67520000D01*
X87320000Y-65340000D01*
X87160000Y-62930000D01*
X87800000Y-62950000D01*
X87710000Y-63490000D01*
X87710000Y-64030000D01*
X87770000Y-64590000D01*
X88010000Y-65310000D01*
X88440000Y-66150000D01*
X89410000Y-67090000D01*
X90420000Y-67600000D01*
X91320000Y-67820000D01*
X92170000Y-67810000D01*
X93110000Y-67600000D01*
X93840000Y-67260000D01*
X94610000Y-66640000D01*
X95340000Y-65590000D01*
X95650000Y-64650000D01*
X95720000Y-64310000D01*
X95750000Y-63570000D01*
X95690000Y-63070000D01*
X95680000Y-63060000D01*
X95590000Y-62600000D01*
X95560000Y-62520000D01*
X108780000Y-61680000D01*
X108880000Y-64180000D01*
G37*
X137700000Y-62190000D02*
X137390000Y-64660000D01*
X136560000Y-66980000D01*
X135240000Y-69040000D01*
X133400000Y-70740000D01*
X131140000Y-71990000D01*
X129080000Y-72570000D01*
X126320000Y-72740000D01*
X123750000Y-72300000D01*
X121350000Y-71300000D01*
X119270000Y-69790000D01*
X117590000Y-67800000D01*
X116430000Y-65400000D01*
X116230000Y-64560000D01*
X116070000Y-63170000D01*
X116020000Y-61660000D01*
X116890000Y-61680000D01*
X116730000Y-62380000D01*
X116730000Y-63140000D01*
X116830000Y-63730000D01*
X117020000Y-64350000D01*
X117280000Y-64850000D01*
X117710000Y-65470000D01*
X118070000Y-65840000D01*
X118680000Y-66270000D01*
X119300000Y-66580000D01*
X120030000Y-66770000D01*
X120940000Y-66840000D01*
X121760000Y-66710000D01*
X122450000Y-66480000D01*
X122930000Y-66210000D01*
X123420000Y-65850000D01*
X124040000Y-65170000D01*
X124510000Y-64310000D01*
X124720000Y-63600000D01*
X124790000Y-63070000D01*
X124770000Y-62330000D01*
X124760000Y-62200000D01*
X137450000Y-59680000D01*
X137700000Y-62190000D01*
G36*
X137700000Y-62190000D02*
G01*
X137390000Y-64660000D01*
X136560000Y-66980000D01*
X135240000Y-69040000D01*
X133400000Y-70740000D01*
X131140000Y-71990000D01*
X129080000Y-72570000D01*
X126320000Y-72740000D01*
X123750000Y-72300000D01*
X121350000Y-71300000D01*
X119270000Y-69790000D01*
X117590000Y-67800000D01*
X116430000Y-65400000D01*
X116230000Y-64560000D01*
X116070000Y-63170000D01*
X116020000Y-61660000D01*
X116890000Y-61680000D01*
X116730000Y-62380000D01*
X116730000Y-63140000D01*
X116830000Y-63730000D01*
X117020000Y-64350000D01*
X117280000Y-64850000D01*
X117710000Y-65470000D01*
X118070000Y-65840000D01*
X118680000Y-66270000D01*
X119300000Y-66580000D01*
X120030000Y-66770000D01*
X120940000Y-66840000D01*
X121760000Y-66710000D01*
X122450000Y-66480000D01*
X122930000Y-66210000D01*
X123420000Y-65850000D01*
X124040000Y-65170000D01*
X124510000Y-64310000D01*
X124720000Y-63600000D01*
X124790000Y-63070000D01*
X124770000Y-62330000D01*
X124760000Y-62200000D01*
X137450000Y-59680000D01*
X137700000Y-62190000D01*
G37*
D11*
X96750000Y-141700000D02*
X96750000Y-143200000D01*
X98000000Y-145700000D02*
X102500000Y-145700000D01*
X102500000Y-139200000D02*
X98000000Y-139200000D01*
X103750000Y-143200000D02*
X103750000Y-141700000D01*
X137650000Y-145900000D02*
X137650000Y-147400000D01*
X138900000Y-149900000D02*
X143400000Y-149900000D01*
X143400000Y-143400000D02*
X138900000Y-143400000D01*
X144650000Y-147400000D02*
X144650000Y-145900000D01*
X133900000Y-117699999D02*
G75*
G02*
X133900000Y-114700000I6400000J1499999D01*
G01*
X146530000Y-116200000D02*
G75*
G02*
X134070000Y-116200000I-6230000J0D01*
G01*
X134070000Y-116200000D02*
G75*
G02*
X146530000Y-116200000I6230000J0D01*
G01*
M02*
