G04 #@! TF.GenerationSoftware,KiCad,Pcbnew,8.0.5-8.0.5-0~ubuntu24.04.1*
G04 #@! TF.CreationDate,2024-10-08T07:55:02+09:00*
G04 #@! TF.ProjectId,gopher_rp2040_sw,676f7068-6572-45f7-9270-323034305f73,rev?*
G04 #@! TF.SameCoordinates,Original*
G04 #@! TF.FileFunction,Legend,Bot*
G04 #@! TF.FilePolarity,Positive*
%FSLAX46Y46*%
G04 Gerber Fmt 4.6, Leading zero omitted, Abs format (unit mm)*
G04 Created by KiCad (PCBNEW 8.0.5-8.0.5-0~ubuntu24.04.1) date 2024-10-08 07:55:02*
%MOMM*%
%LPD*%
G01*
G04 APERTURE LIST*
%ADD10C,0.150000*%
%ADD11C,0.120000*%
G04 APERTURE END LIST*
D10*
X111029166Y-54504819D02*
X111362499Y-54028628D01*
X111600594Y-54504819D02*
X111600594Y-53504819D01*
X111600594Y-53504819D02*
X111219642Y-53504819D01*
X111219642Y-53504819D02*
X111124404Y-53552438D01*
X111124404Y-53552438D02*
X111076785Y-53600057D01*
X111076785Y-53600057D02*
X111029166Y-53695295D01*
X111029166Y-53695295D02*
X111029166Y-53838152D01*
X111029166Y-53838152D02*
X111076785Y-53933390D01*
X111076785Y-53933390D02*
X111124404Y-53981009D01*
X111124404Y-53981009D02*
X111219642Y-54028628D01*
X111219642Y-54028628D02*
X111600594Y-54028628D01*
X110648213Y-53600057D02*
X110600594Y-53552438D01*
X110600594Y-53552438D02*
X110505356Y-53504819D01*
X110505356Y-53504819D02*
X110267261Y-53504819D01*
X110267261Y-53504819D02*
X110172023Y-53552438D01*
X110172023Y-53552438D02*
X110124404Y-53600057D01*
X110124404Y-53600057D02*
X110076785Y-53695295D01*
X110076785Y-53695295D02*
X110076785Y-53790533D01*
X110076785Y-53790533D02*
X110124404Y-53933390D01*
X110124404Y-53933390D02*
X110695832Y-54504819D01*
X110695832Y-54504819D02*
X110076785Y-54504819D01*
D11*
X111121078Y-54990000D02*
X110603922Y-54990000D01*
X111121078Y-56410000D02*
X110603922Y-56410000D01*
M02*
