G04 #@! TF.GenerationSoftware,KiCad,Pcbnew,8.0.5-8.0.5-0~ubuntu24.04.1*
G04 #@! TF.CreationDate,2024-10-08T07:55:42+09:00*
G04 #@! TF.ProjectId,gopher2_rp2040_sw,676f7068-6572-4325-9f72-70323034305f,rev?*
G04 #@! TF.SameCoordinates,Original*
G04 #@! TF.FileFunction,Legend,Bot*
G04 #@! TF.FilePolarity,Positive*
%FSLAX46Y46*%
G04 Gerber Fmt 4.6, Leading zero omitted, Abs format (unit mm)*
G04 Created by KiCad (PCBNEW 8.0.5-8.0.5-0~ubuntu24.04.1) date 2024-10-08 07:55:42*
%MOMM*%
%LPD*%
G01*
G04 APERTURE LIST*
%ADD10C,0.150000*%
%ADD11C,0.120000*%
G04 APERTURE END LIST*
D10*
X112329166Y-56004819D02*
X112662499Y-55528628D01*
X112900594Y-56004819D02*
X112900594Y-55004819D01*
X112900594Y-55004819D02*
X112519642Y-55004819D01*
X112519642Y-55004819D02*
X112424404Y-55052438D01*
X112424404Y-55052438D02*
X112376785Y-55100057D01*
X112376785Y-55100057D02*
X112329166Y-55195295D01*
X112329166Y-55195295D02*
X112329166Y-55338152D01*
X112329166Y-55338152D02*
X112376785Y-55433390D01*
X112376785Y-55433390D02*
X112424404Y-55481009D01*
X112424404Y-55481009D02*
X112519642Y-55528628D01*
X112519642Y-55528628D02*
X112900594Y-55528628D01*
X111948213Y-55100057D02*
X111900594Y-55052438D01*
X111900594Y-55052438D02*
X111805356Y-55004819D01*
X111805356Y-55004819D02*
X111567261Y-55004819D01*
X111567261Y-55004819D02*
X111472023Y-55052438D01*
X111472023Y-55052438D02*
X111424404Y-55100057D01*
X111424404Y-55100057D02*
X111376785Y-55195295D01*
X111376785Y-55195295D02*
X111376785Y-55290533D01*
X111376785Y-55290533D02*
X111424404Y-55433390D01*
X111424404Y-55433390D02*
X111995832Y-56004819D01*
X111995832Y-56004819D02*
X111376785Y-56004819D01*
D11*
X112421078Y-56490000D02*
X111903922Y-56490000D01*
X112421078Y-57910000D02*
X111903922Y-57910000D01*
M02*
