G04 #@! TF.GenerationSoftware,KiCad,Pcbnew,8.0.5-8.0.5-0~ubuntu24.04.1*
G04 #@! TF.CreationDate,2024-10-08T07:55:42+09:00*
G04 #@! TF.ProjectId,gopher2_rp2040_sw,676f7068-6572-4325-9f72-70323034305f,rev?*
G04 #@! TF.SameCoordinates,Original*
G04 #@! TF.FileFunction,Legend,Top*
G04 #@! TF.FilePolarity,Positive*
%FSLAX46Y46*%
G04 Gerber Fmt 4.6, Leading zero omitted, Abs format (unit mm)*
G04 Created by KiCad (PCBNEW 8.0.5-8.0.5-0~ubuntu24.04.1) date 2024-10-08 07:55:42*
%MOMM*%
%LPD*%
G01*
G04 APERTURE LIST*
%ADD10C,0.150000*%
%ADD11C,0.120000*%
%ADD12C,0.100000*%
G04 APERTURE END LIST*
D10*
X112033333Y-108885009D02*
X112176190Y-108932628D01*
X112176190Y-108932628D02*
X112223809Y-108980247D01*
X112223809Y-108980247D02*
X112271428Y-109075485D01*
X112271428Y-109075485D02*
X112271428Y-109218342D01*
X112271428Y-109218342D02*
X112223809Y-109313580D01*
X112223809Y-109313580D02*
X112176190Y-109361200D01*
X112176190Y-109361200D02*
X112080952Y-109408819D01*
X112080952Y-109408819D02*
X111700000Y-109408819D01*
X111700000Y-109408819D02*
X111700000Y-108408819D01*
X111700000Y-108408819D02*
X112033333Y-108408819D01*
X112033333Y-108408819D02*
X112128571Y-108456438D01*
X112128571Y-108456438D02*
X112176190Y-108504057D01*
X112176190Y-108504057D02*
X112223809Y-108599295D01*
X112223809Y-108599295D02*
X112223809Y-108694533D01*
X112223809Y-108694533D02*
X112176190Y-108789771D01*
X112176190Y-108789771D02*
X112128571Y-108837390D01*
X112128571Y-108837390D02*
X112033333Y-108885009D01*
X112033333Y-108885009D02*
X111700000Y-108885009D01*
X112700000Y-109408819D02*
X112700000Y-108742152D01*
X112700000Y-108932628D02*
X112747619Y-108837390D01*
X112747619Y-108837390D02*
X112795238Y-108789771D01*
X112795238Y-108789771D02*
X112890476Y-108742152D01*
X112890476Y-108742152D02*
X112985714Y-108742152D01*
X113747619Y-109408819D02*
X113747619Y-108408819D01*
X113747619Y-109361200D02*
X113652381Y-109408819D01*
X113652381Y-109408819D02*
X113461905Y-109408819D01*
X113461905Y-109408819D02*
X113366667Y-109361200D01*
X113366667Y-109361200D02*
X113319048Y-109313580D01*
X113319048Y-109313580D02*
X113271429Y-109218342D01*
X113271429Y-109218342D02*
X113271429Y-108932628D01*
X113271429Y-108932628D02*
X113319048Y-108837390D01*
X113319048Y-108837390D02*
X113366667Y-108789771D01*
X113366667Y-108789771D02*
X113461905Y-108742152D01*
X113461905Y-108742152D02*
X113652381Y-108742152D01*
X113652381Y-108742152D02*
X113747619Y-108789771D01*
X114747619Y-109408819D02*
X114176191Y-109408819D01*
X114461905Y-109408819D02*
X114461905Y-108408819D01*
X114461905Y-108408819D02*
X114366667Y-108551676D01*
X114366667Y-108551676D02*
X114271429Y-108646914D01*
X114271429Y-108646914D02*
X114176191Y-108694533D01*
X83166666Y-114894819D02*
X83166666Y-115609104D01*
X83166666Y-115609104D02*
X83119047Y-115751961D01*
X83119047Y-115751961D02*
X83023809Y-115847200D01*
X83023809Y-115847200D02*
X82880952Y-115894819D01*
X82880952Y-115894819D02*
X82785714Y-115894819D01*
X84166666Y-115894819D02*
X83595238Y-115894819D01*
X83880952Y-115894819D02*
X83880952Y-114894819D01*
X83880952Y-114894819D02*
X83785714Y-115037676D01*
X83785714Y-115037676D02*
X83690476Y-115132914D01*
X83690476Y-115132914D02*
X83595238Y-115180533D01*
X139257142Y-108784819D02*
X138780952Y-108784819D01*
X138780952Y-108784819D02*
X138780952Y-107784819D01*
X139542857Y-108737200D02*
X139685714Y-108784819D01*
X139685714Y-108784819D02*
X139923809Y-108784819D01*
X139923809Y-108784819D02*
X140019047Y-108737200D01*
X140019047Y-108737200D02*
X140066666Y-108689580D01*
X140066666Y-108689580D02*
X140114285Y-108594342D01*
X140114285Y-108594342D02*
X140114285Y-108499104D01*
X140114285Y-108499104D02*
X140066666Y-108403866D01*
X140066666Y-108403866D02*
X140019047Y-108356247D01*
X140019047Y-108356247D02*
X139923809Y-108308628D01*
X139923809Y-108308628D02*
X139733333Y-108261009D01*
X139733333Y-108261009D02*
X139638095Y-108213390D01*
X139638095Y-108213390D02*
X139590476Y-108165771D01*
X139590476Y-108165771D02*
X139542857Y-108070533D01*
X139542857Y-108070533D02*
X139542857Y-107975295D01*
X139542857Y-107975295D02*
X139590476Y-107880057D01*
X139590476Y-107880057D02*
X139638095Y-107832438D01*
X139638095Y-107832438D02*
X139733333Y-107784819D01*
X139733333Y-107784819D02*
X139971428Y-107784819D01*
X139971428Y-107784819D02*
X140114285Y-107832438D01*
X141066666Y-108784819D02*
X140495238Y-108784819D01*
X140780952Y-108784819D02*
X140780952Y-107784819D01*
X140780952Y-107784819D02*
X140685714Y-107927676D01*
X140685714Y-107927676D02*
X140590476Y-108022914D01*
X140590476Y-108022914D02*
X140495238Y-108070533D01*
D11*
X94100000Y-60150000D02*
X101400000Y-60150000D01*
X94100000Y-65650000D02*
X101400000Y-65650000D01*
X101400000Y-65650000D02*
X101400000Y-64500000D01*
X123400000Y-59050000D02*
X130700000Y-59050000D01*
X123400000Y-64550000D02*
X130700000Y-64550000D01*
X130700000Y-64550000D02*
X130700000Y-63400000D01*
X99800000Y-96400000D02*
X127200000Y-96400000D01*
X99800000Y-123700000D02*
X99800000Y-96400000D01*
X100222000Y-99695000D02*
X123322000Y-99695000D01*
X100222000Y-116295000D02*
X100222000Y-99695000D01*
X108501000Y-96889000D02*
X108501000Y-99302000D01*
X108501000Y-96889000D02*
X118280000Y-96889000D01*
X118280000Y-96889000D02*
X118280000Y-99302000D01*
X118280000Y-99302000D02*
X108501000Y-99302000D01*
X123322000Y-99695000D02*
X126408000Y-99695000D01*
X123322000Y-116295000D02*
X100222000Y-116295000D01*
X123322000Y-116295000D02*
X126662000Y-116320000D01*
X126662000Y-99683000D02*
X126408000Y-99695000D01*
X126662000Y-116320000D02*
X126662000Y-99683000D01*
X127200000Y-96400000D02*
X127200000Y-123700000D01*
X127200000Y-123700000D02*
X99800000Y-123700000D01*
X132050000Y-135100000D02*
X132050000Y-136600000D01*
X133300000Y-139100000D02*
X137800000Y-139100000D01*
X137800000Y-132600000D02*
X133300000Y-132600000D01*
X139050000Y-136600000D02*
X139050000Y-135100000D01*
X79950000Y-141700000D02*
X79950000Y-143200000D01*
X81200000Y-145700000D02*
X85700000Y-145700000D01*
X85700000Y-139200000D02*
X81200000Y-139200000D01*
X86950000Y-143200000D02*
X86950000Y-141700000D01*
X88750000Y-151600000D02*
X88750000Y-153100000D01*
X90000000Y-155600000D02*
X94500000Y-155600000D01*
X94500000Y-149100000D02*
X90000000Y-149100000D01*
X95750000Y-153100000D02*
X95750000Y-151600000D01*
X101700000Y-62910000D02*
G75*
G02*
X93713288Y-62910000I-3993356J0D01*
G01*
X93713288Y-62910000D02*
G75*
G02*
X101700000Y-62910000I3993356J0D01*
G01*
X131060000Y-61740000D02*
G75*
G02*
X123073288Y-61740000I-3993356J0D01*
G01*
X123073288Y-61740000D02*
G75*
G02*
X131060000Y-61740000I3993356J0D01*
G01*
D12*
X104990000Y-71440000D02*
X104480000Y-71860000D01*
X104050000Y-72150000D01*
X103270000Y-72630000D01*
X103590000Y-72320000D01*
X105460000Y-70990000D01*
X104990000Y-71440000D01*
G36*
X104990000Y-71440000D02*
G01*
X104480000Y-71860000D01*
X104050000Y-72150000D01*
X103270000Y-72630000D01*
X103590000Y-72320000D01*
X105460000Y-70990000D01*
X104990000Y-71440000D01*
G37*
X127360000Y-51290000D02*
X128960000Y-51450000D01*
X131130000Y-51970000D01*
X132960000Y-52940000D01*
X134600000Y-54370000D01*
X135200000Y-55030000D01*
X136610000Y-57250000D01*
X137450000Y-59670000D01*
X131080000Y-61560000D01*
X131010000Y-60930000D01*
X130650000Y-59870000D01*
X130080000Y-59050000D01*
X129440000Y-58470000D01*
X128310000Y-57920000D01*
X127440000Y-57730000D01*
X126660000Y-57730000D01*
X126120000Y-57820000D01*
X125460000Y-58040000D01*
X125050000Y-58260000D01*
X124600000Y-58570000D01*
X124250000Y-58860000D01*
X123990000Y-59130000D01*
X123660000Y-59590000D01*
X116720000Y-57720000D01*
X118030000Y-55450000D01*
X119880000Y-53590000D01*
X122440000Y-52050000D01*
X123600000Y-51550000D01*
X124580000Y-51300000D01*
X125760000Y-51230000D01*
X127360000Y-51290000D01*
G36*
X127360000Y-51290000D02*
G01*
X128960000Y-51450000D01*
X131130000Y-51970000D01*
X132960000Y-52940000D01*
X134600000Y-54370000D01*
X135200000Y-55030000D01*
X136610000Y-57250000D01*
X137450000Y-59670000D01*
X131080000Y-61560000D01*
X131010000Y-60930000D01*
X130650000Y-59870000D01*
X130080000Y-59050000D01*
X129440000Y-58470000D01*
X128310000Y-57920000D01*
X127440000Y-57730000D01*
X126660000Y-57730000D01*
X126120000Y-57820000D01*
X125460000Y-58040000D01*
X125050000Y-58260000D01*
X124600000Y-58570000D01*
X124250000Y-58860000D01*
X123990000Y-59130000D01*
X123660000Y-59590000D01*
X116720000Y-57720000D01*
X118030000Y-55450000D01*
X119880000Y-53590000D01*
X122440000Y-52050000D01*
X123600000Y-51550000D01*
X124580000Y-51300000D01*
X125760000Y-51230000D01*
X127360000Y-51290000D01*
G37*
X100570000Y-52680000D02*
X101730000Y-52990000D01*
X103030000Y-53600000D01*
X105300000Y-55120000D01*
X107010000Y-57090000D01*
X108140000Y-59280000D01*
X108770000Y-61680000D01*
X101700000Y-62910000D01*
X101580000Y-61740000D01*
X101220000Y-60930000D01*
X100710000Y-60210000D01*
X100070000Y-59650000D01*
X99350000Y-59230000D01*
X98550000Y-58960000D01*
X97780000Y-58880000D01*
X96920000Y-58960000D01*
X96330000Y-59140000D01*
X95750000Y-59390000D01*
X95380000Y-59620000D01*
X95000000Y-59910000D01*
X94510000Y-60460000D01*
X94210000Y-60910000D01*
X93890000Y-61590000D01*
X93810000Y-61780000D01*
X87460000Y-60510000D01*
X88180000Y-58450000D01*
X88710000Y-57500000D01*
X90440000Y-55310000D01*
X92560000Y-53780000D01*
X95080000Y-52830000D01*
X98030000Y-52520000D01*
X100570000Y-52680000D01*
G36*
X100570000Y-52680000D02*
G01*
X101730000Y-52990000D01*
X103030000Y-53600000D01*
X105300000Y-55120000D01*
X107010000Y-57090000D01*
X108140000Y-59280000D01*
X108770000Y-61680000D01*
X101700000Y-62910000D01*
X101580000Y-61740000D01*
X101220000Y-60930000D01*
X100710000Y-60210000D01*
X100070000Y-59650000D01*
X99350000Y-59230000D01*
X98550000Y-58960000D01*
X97780000Y-58880000D01*
X96920000Y-58960000D01*
X96330000Y-59140000D01*
X95750000Y-59390000D01*
X95380000Y-59620000D01*
X95000000Y-59910000D01*
X94510000Y-60460000D01*
X94210000Y-60910000D01*
X93890000Y-61590000D01*
X93810000Y-61780000D01*
X87460000Y-60510000D01*
X88180000Y-58450000D01*
X88710000Y-57500000D01*
X90440000Y-55310000D01*
X92560000Y-53780000D01*
X95080000Y-52830000D01*
X98030000Y-52520000D01*
X100570000Y-52680000D01*
G37*
X118030000Y-74940000D02*
X119330000Y-75540000D01*
X120530000Y-76500000D01*
X121360000Y-77680000D01*
X121710000Y-78870000D01*
X121590000Y-79970000D01*
X120960000Y-80820000D01*
X120840000Y-80900000D01*
X119530000Y-81320000D01*
X117860000Y-81230000D01*
X116120000Y-80690000D01*
X115560000Y-80480000D01*
X113890000Y-80010000D01*
X112280000Y-80020000D01*
X109040000Y-80800000D01*
X107250000Y-81010000D01*
X105860000Y-80840000D01*
X104980000Y-80330000D01*
X104850000Y-80180000D01*
X104410000Y-79050000D01*
X104600000Y-77780000D01*
X105360000Y-76550000D01*
X106280000Y-75770000D01*
X106640000Y-75460000D01*
X107060000Y-75210000D01*
X107620000Y-75010000D01*
X108280000Y-75090000D01*
X109360000Y-75610000D01*
X111560000Y-76180000D01*
X113780000Y-76090000D01*
X115910000Y-75440000D01*
X116690000Y-75060000D01*
X117350000Y-74870000D01*
X118030000Y-74940000D01*
G36*
X118030000Y-74940000D02*
G01*
X119330000Y-75540000D01*
X120530000Y-76500000D01*
X121360000Y-77680000D01*
X121710000Y-78870000D01*
X121590000Y-79970000D01*
X120960000Y-80820000D01*
X120840000Y-80900000D01*
X119530000Y-81320000D01*
X117860000Y-81230000D01*
X116120000Y-80690000D01*
X115560000Y-80480000D01*
X113890000Y-80010000D01*
X112280000Y-80020000D01*
X109040000Y-80800000D01*
X107250000Y-81010000D01*
X105860000Y-80840000D01*
X104980000Y-80330000D01*
X104850000Y-80180000D01*
X104410000Y-79050000D01*
X104600000Y-77780000D01*
X105360000Y-76550000D01*
X106280000Y-75770000D01*
X106640000Y-75460000D01*
X107060000Y-75210000D01*
X107620000Y-75010000D01*
X108280000Y-75090000D01*
X109360000Y-75610000D01*
X111560000Y-76180000D01*
X113780000Y-76090000D01*
X115910000Y-75440000D01*
X116690000Y-75060000D01*
X117350000Y-74870000D01*
X118030000Y-74940000D01*
G37*
X93810000Y-61780000D02*
X93660000Y-63110000D01*
X93850000Y-64120000D01*
X94270000Y-65080000D01*
X94770000Y-65660000D01*
X95440000Y-66260000D01*
X96360000Y-66700000D01*
X97180000Y-66910000D01*
X98080000Y-66900000D01*
X98990000Y-66740000D01*
X99850000Y-66330000D01*
X100520000Y-65790000D01*
X101060000Y-65100000D01*
X101520000Y-64220000D01*
X101730000Y-63190000D01*
X101700000Y-62910000D01*
X108770000Y-61680000D01*
X108810000Y-64200000D01*
X108270000Y-66680000D01*
X107100000Y-69030000D01*
X105460000Y-70990000D01*
X103110000Y-72740000D01*
X101930000Y-73300000D01*
X100430000Y-73680000D01*
X98120000Y-73870000D01*
X95760000Y-73690000D01*
X93690000Y-73150000D01*
X92640000Y-72630000D01*
X90760000Y-71210000D01*
X89160000Y-69460000D01*
X87930000Y-67490000D01*
X87310000Y-65320000D01*
X87150000Y-62930000D01*
X87460000Y-60510000D01*
X93810000Y-61780000D01*
G36*
X93810000Y-61780000D02*
G01*
X93660000Y-63110000D01*
X93850000Y-64120000D01*
X94270000Y-65080000D01*
X94770000Y-65660000D01*
X95440000Y-66260000D01*
X96360000Y-66700000D01*
X97180000Y-66910000D01*
X98080000Y-66900000D01*
X98990000Y-66740000D01*
X99850000Y-66330000D01*
X100520000Y-65790000D01*
X101060000Y-65100000D01*
X101520000Y-64220000D01*
X101730000Y-63190000D01*
X101700000Y-62910000D01*
X108770000Y-61680000D01*
X108810000Y-64200000D01*
X108270000Y-66680000D01*
X107100000Y-69030000D01*
X105460000Y-70990000D01*
X103110000Y-72740000D01*
X101930000Y-73300000D01*
X100430000Y-73680000D01*
X98120000Y-73870000D01*
X95760000Y-73690000D01*
X93690000Y-73150000D01*
X92640000Y-72630000D01*
X90760000Y-71210000D01*
X89160000Y-69460000D01*
X87930000Y-67490000D01*
X87310000Y-65320000D01*
X87150000Y-62930000D01*
X87460000Y-60510000D01*
X93810000Y-61780000D01*
G37*
X123660000Y-59590000D02*
X123280000Y-60330000D01*
X123060000Y-61250000D01*
X123040000Y-62080000D01*
X123150000Y-62710000D01*
X123600000Y-63800000D01*
X124130000Y-64480000D01*
X124920000Y-65170000D01*
X126000000Y-65640000D01*
X126960000Y-65770000D01*
X127820000Y-65710000D01*
X128440000Y-65530000D01*
X129030000Y-65230000D01*
X129620000Y-64840000D01*
X130130000Y-64370000D01*
X130490000Y-63820000D01*
X130900000Y-62980000D01*
X131050000Y-62140000D01*
X131080000Y-61560000D01*
X137450000Y-59670000D01*
X137700000Y-62170000D01*
X137400000Y-64640000D01*
X136570000Y-66950000D01*
X135220000Y-69020000D01*
X133400000Y-70750000D01*
X131100000Y-71990000D01*
X129080000Y-72550000D01*
X126360000Y-72740000D01*
X123750000Y-72310000D01*
X121390000Y-71310000D01*
X119280000Y-69780000D01*
X117600000Y-67810000D01*
X116440000Y-65350000D01*
X116250000Y-64550000D01*
X116110000Y-63120000D01*
X116050000Y-61650000D01*
X116060000Y-60310000D01*
X116720000Y-57720000D01*
X123660000Y-59590000D01*
G36*
X123660000Y-59590000D02*
G01*
X123280000Y-60330000D01*
X123060000Y-61250000D01*
X123040000Y-62080000D01*
X123150000Y-62710000D01*
X123600000Y-63800000D01*
X124130000Y-64480000D01*
X124920000Y-65170000D01*
X126000000Y-65640000D01*
X126960000Y-65770000D01*
X127820000Y-65710000D01*
X128440000Y-65530000D01*
X129030000Y-65230000D01*
X129620000Y-64840000D01*
X130130000Y-64370000D01*
X130490000Y-63820000D01*
X130900000Y-62980000D01*
X131050000Y-62140000D01*
X131080000Y-61560000D01*
X137450000Y-59670000D01*
X137700000Y-62170000D01*
X137400000Y-64640000D01*
X136570000Y-66950000D01*
X135220000Y-69020000D01*
X133400000Y-70750000D01*
X131100000Y-71990000D01*
X129080000Y-72550000D01*
X126360000Y-72740000D01*
X123750000Y-72310000D01*
X121390000Y-71310000D01*
X119280000Y-69780000D01*
X117600000Y-67810000D01*
X116440000Y-65350000D01*
X116250000Y-64550000D01*
X116110000Y-63120000D01*
X116050000Y-61650000D01*
X116060000Y-60310000D01*
X116720000Y-57720000D01*
X123660000Y-59590000D01*
G37*
D11*
X82440000Y-116440000D02*
X83500000Y-116440000D01*
X82440000Y-117500000D02*
X82440000Y-116440000D01*
X82440000Y-118500000D02*
X82440000Y-124560000D01*
X82440000Y-118500000D02*
X84560000Y-118500000D01*
X82440000Y-124560000D02*
X84560000Y-124560000D01*
X84560000Y-118500000D02*
X84560000Y-124560000D01*
X88750000Y-132000000D02*
X88750000Y-133500000D01*
X90000000Y-136000000D02*
X94500000Y-136000000D01*
X94500000Y-129500000D02*
X90000000Y-129500000D01*
X95750000Y-133500000D02*
X95750000Y-132000000D01*
X96750000Y-141700000D02*
X96750000Y-143200000D01*
X98000000Y-145700000D02*
X102500000Y-145700000D01*
X102500000Y-139200000D02*
X98000000Y-139200000D01*
X103750000Y-143200000D02*
X103750000Y-141700000D01*
X137650000Y-145900000D02*
X137650000Y-147400000D01*
X138900000Y-149900000D02*
X143400000Y-149900000D01*
X143400000Y-143400000D02*
X138900000Y-143400000D01*
X144650000Y-147400000D02*
X144650000Y-145900000D01*
X133500000Y-116999999D02*
G75*
G02*
X133500000Y-114000000I6400000J1499999D01*
G01*
X146130000Y-115500000D02*
G75*
G02*
X133670000Y-115500000I-6230000J0D01*
G01*
X133670000Y-115500000D02*
G75*
G02*
X146130000Y-115500000I6230000J0D01*
G01*
M02*
