M48
; DRILL file {KiCad 8.0.5-8.0.5-0~ubuntu24.04.1} date 2024-09-29T10:35:18+0900
; FORMAT={-:-/ absolute / inch / decimal}
; #@! TF.CreationDate,2024-09-29T10:35:18+09:00
; #@! TF.GenerationSoftware,Kicad,Pcbnew,8.0.5-8.0.5-0~ubuntu24.04.1
; #@! TF.FileFunction,Plated,1,2,PTH
FMAT,2
INCH
; #@! TA.AperFunction,Plated,PTH,ViaDrill
T1C0.0118
; #@! TA.AperFunction,Plated,PTH,ComponentDrill
T2C0.0315
; #@! TA.AperFunction,Plated,PTH,ComponentDrill
T3C0.0394
; #@! TA.AperFunction,Plated,PTH,ComponentDrill
T4C0.0433
%
G90
G05
T1
X3.689Y-2.8465
X3.7795Y-2.8819
X3.811Y-2.7874
X3.8189Y-2.9134
X3.9331Y-6.3268
X4.063Y-4.9764
X4.4055Y-6.5709
X4.8858Y-5.2559
X4.9291Y-2.811
X5.0512Y-2.7441
X5.1063Y-6.563
X5.122Y-2.9449
X5.1929Y-6.5079
X5.3386Y-6.1181
T2
X3.2717Y-5.4331
X3.2717Y-5.5118
X3.2717Y-5.5906
X3.2717Y-5.6693
T3
X4.2984Y-4.6693
X4.3567Y-6.1252
X4.3567Y-6.2252
X4.3567Y-6.3252
X4.3567Y-6.4252
X4.3567Y-6.5252
X4.3567Y-6.6252
X4.3567Y-6.7252
X4.3567Y-6.8252
X4.3567Y-6.9252
X4.3984Y-4.6693
X4.4567Y-6.1252
X4.4984Y-4.6693
X4.5567Y-6.1252
X4.5984Y-4.6693
X4.6567Y-6.1252
X4.7567Y-6.1252
X4.8567Y-6.1252
X4.9567Y-6.1252
X4.9567Y-6.2252
X4.9567Y-6.3252
X4.9567Y-6.4252
X4.9567Y-6.5252
X4.9567Y-6.6252
X4.9567Y-6.7252
X4.9567Y-6.8252
X4.9567Y-6.9252
X5.4606Y-5.3465
X5.6575Y-5.3465
T4
X3.1417Y-6.3268
X3.1417Y-6.5039
X3.3976Y-6.3268
X3.3976Y-6.5039
X3.4882Y-5.9449
X3.4882Y-6.122
X3.4882Y-6.7165
X3.4882Y-6.8937
X3.7441Y-5.9449
X3.7441Y-6.122
X3.7441Y-6.7165
X3.7441Y-6.8937
X3.8031Y-6.3268
X3.8031Y-6.5039
X4.0591Y-6.3268
X4.0591Y-6.5039
X5.1929Y-6.0669
X5.1929Y-6.2441
X5.4134Y-6.4921
X5.4134Y-6.6693
X5.4488Y-6.0669
X5.4488Y-6.2441
X5.6693Y-6.4921
X5.6693Y-6.6693
M30
