G04 #@! TF.GenerationSoftware,KiCad,Pcbnew,8.0.5-8.0.5-0~ubuntu24.04.1*
G04 #@! TF.CreationDate,2024-09-29T10:35:15+09:00*
G04 #@! TF.ProjectId,gopher_bird_rp2040_sw,676f7068-6572-45f6-9269-72645f727032,rev?*
G04 #@! TF.SameCoordinates,Original*
G04 #@! TF.FileFunction,Copper,L1,Top*
G04 #@! TF.FilePolarity,Positive*
%FSLAX46Y46*%
G04 Gerber Fmt 4.6, Leading zero omitted, Abs format (unit mm)*
G04 Created by KiCad (PCBNEW 8.0.5-8.0.5-0~ubuntu24.04.1) date 2024-09-29 10:35:15*
%MOMM*%
%LPD*%
G01*
G04 APERTURE LIST*
G04 #@! TA.AperFunction,EtchedComponent*
%ADD10C,0.100000*%
G04 #@! TD*
G04 #@! TA.AperFunction,EtchedComponent*
%ADD11C,0.010000*%
G04 #@! TD*
G04 #@! TA.AperFunction,SMDPad,CuDef*
%ADD12R,1.500000X1.000000*%
G04 #@! TD*
G04 #@! TA.AperFunction,ComponentPad*
%ADD13O,1.700000X1.700000*%
G04 #@! TD*
G04 #@! TA.AperFunction,ComponentPad*
%ADD14O,1.600000X2.000000*%
G04 #@! TD*
G04 #@! TA.AperFunction,ComponentPad*
%ADD15C,2.000000*%
G04 #@! TD*
G04 #@! TA.AperFunction,ComponentPad*
%ADD16R,1.350000X1.350000*%
G04 #@! TD*
G04 #@! TA.AperFunction,ComponentPad*
%ADD17O,1.350000X1.350000*%
G04 #@! TD*
G04 #@! TA.AperFunction,ComponentPad*
%ADD18R,2.000000X2.000000*%
G04 #@! TD*
G04 #@! TA.AperFunction,ViaPad*
%ADD19C,0.600000*%
G04 #@! TD*
G04 #@! TA.AperFunction,Conductor*
%ADD20C,0.250000*%
G04 #@! TD*
G04 #@! TA.AperFunction,Conductor*
%ADD21C,0.600000*%
G04 #@! TD*
G04 APERTURE END LIST*
D10*
X113130000Y-44780000D02*
X113570000Y-44990000D01*
X113870000Y-45280000D01*
X114240000Y-45660000D01*
X114850000Y-46150000D01*
X115300000Y-46420000D01*
X115790000Y-46680000D01*
X116340000Y-46930000D01*
X116480000Y-46980000D01*
X116490000Y-47040000D01*
X116480000Y-47160000D01*
X116200000Y-47840000D01*
X115560000Y-49190000D01*
X114980000Y-50310000D01*
X114460000Y-51180000D01*
X113995000Y-51990000D01*
X113285000Y-53200000D01*
X112930000Y-53790000D01*
X112710000Y-54115000D01*
X112490000Y-54405000D01*
X112350000Y-54550000D01*
X112140000Y-54740000D01*
X111960000Y-54800000D01*
X111790000Y-54710000D01*
X111610000Y-54460000D01*
X111220000Y-53610000D01*
X110620000Y-51960000D01*
X110160000Y-50250000D01*
X109920000Y-48890000D01*
X109850000Y-48450000D01*
X109690000Y-46820000D01*
X109640000Y-45830000D01*
X109630000Y-45600000D01*
X110120000Y-45280000D01*
X110580000Y-45060000D01*
X111050000Y-44830000D01*
X111430000Y-44720000D01*
X112010000Y-44650000D01*
X112570000Y-44650000D01*
X113130000Y-44780000D01*
G04 #@! TA.AperFunction,EtchedComponent*
G36*
X113130000Y-44780000D02*
G01*
X113570000Y-44990000D01*
X113870000Y-45280000D01*
X114240000Y-45660000D01*
X114850000Y-46150000D01*
X115300000Y-46420000D01*
X115790000Y-46680000D01*
X116340000Y-46930000D01*
X116480000Y-46980000D01*
X116490000Y-47040000D01*
X116480000Y-47160000D01*
X116200000Y-47840000D01*
X115560000Y-49190000D01*
X114980000Y-50310000D01*
X114460000Y-51180000D01*
X113995000Y-51990000D01*
X113285000Y-53200000D01*
X112930000Y-53790000D01*
X112710000Y-54115000D01*
X112490000Y-54405000D01*
X112350000Y-54550000D01*
X112140000Y-54740000D01*
X111960000Y-54800000D01*
X111790000Y-54710000D01*
X111610000Y-54460000D01*
X111220000Y-53610000D01*
X110620000Y-51960000D01*
X110160000Y-50250000D01*
X109920000Y-48890000D01*
X109850000Y-48450000D01*
X109690000Y-46820000D01*
X109640000Y-45830000D01*
X109630000Y-45600000D01*
X110120000Y-45280000D01*
X110580000Y-45060000D01*
X111050000Y-44830000D01*
X111430000Y-44720000D01*
X112010000Y-44650000D01*
X112570000Y-44650000D01*
X113130000Y-44780000D01*
G37*
G04 #@! TD.AperFunction*
D11*
X97153411Y-67023861D02*
X98596656Y-67271871D01*
X99997058Y-67685916D01*
X101341987Y-68262331D01*
X102618816Y-68997452D01*
X103814913Y-69887614D01*
X104826587Y-70833500D01*
X105823560Y-71997104D01*
X106661916Y-73248403D01*
X107339862Y-74583908D01*
X107855607Y-76000130D01*
X108185322Y-77371487D01*
X108279317Y-78073795D01*
X108330057Y-78889709D01*
X108338238Y-79759597D01*
X108304553Y-80623828D01*
X108229696Y-81422769D01*
X108131202Y-82020306D01*
X107726794Y-83511717D01*
X107168752Y-84915992D01*
X106465461Y-86224506D01*
X105625303Y-87428635D01*
X104656664Y-88519752D01*
X103567926Y-89489233D01*
X102367475Y-90328452D01*
X101063693Y-91028786D01*
X99664965Y-91581608D01*
X98525834Y-91901961D01*
X97842722Y-92027271D01*
X97045418Y-92117442D01*
X96190668Y-92170403D01*
X95335213Y-92184082D01*
X94535799Y-92156406D01*
X93849167Y-92085304D01*
X93785000Y-92075081D01*
X92306842Y-91741802D01*
X90900488Y-91249472D01*
X89576392Y-90607555D01*
X88345009Y-89825517D01*
X87216793Y-88912820D01*
X86202202Y-87878931D01*
X85311688Y-86733311D01*
X84555708Y-85485427D01*
X83944716Y-84144742D01*
X83500694Y-82765417D01*
X83216774Y-81319364D01*
X83104129Y-79846422D01*
X83126267Y-79265799D01*
X83666683Y-79265799D01*
X83710088Y-80668724D01*
X83915624Y-82046864D01*
X84278937Y-83387510D01*
X84795673Y-84677956D01*
X85461478Y-85905492D01*
X86271996Y-87057413D01*
X87222874Y-88121008D01*
X88309757Y-89083572D01*
X89528291Y-89932396D01*
X89691040Y-90030696D01*
X90583258Y-90493185D01*
X91597162Y-90902557D01*
X92676251Y-91239836D01*
X93764021Y-91486046D01*
X94257052Y-91564213D01*
X94883385Y-91616613D01*
X95623660Y-91627394D01*
X96415881Y-91599230D01*
X97198053Y-91534798D01*
X97908178Y-91436773D01*
X98115125Y-91397717D01*
X99524657Y-91021965D01*
X100846609Y-90496130D01*
X102074369Y-89832134D01*
X103201326Y-89041902D01*
X104220872Y-88137358D01*
X105126394Y-87130423D01*
X105911282Y-86033023D01*
X106568926Y-84857081D01*
X107092715Y-83614519D01*
X107476038Y-82317263D01*
X107712285Y-80977234D01*
X107794846Y-79606357D01*
X107717109Y-78216556D01*
X107472464Y-76819753D01*
X107054301Y-75427873D01*
X107020154Y-75335714D01*
X106435598Y-74029487D01*
X105697921Y-72803521D01*
X104821697Y-71671911D01*
X103821497Y-70648756D01*
X102711896Y-69748152D01*
X101507466Y-68984196D01*
X100222782Y-68370986D01*
X99572239Y-68131094D01*
X98950520Y-67936492D01*
X98381512Y-67791739D01*
X97819248Y-67690422D01*
X97217763Y-67626127D01*
X96531091Y-67592439D01*
X95713265Y-67582945D01*
X95644643Y-67583031D01*
X95016775Y-67586431D01*
X94529459Y-67596337D01*
X94141837Y-67616504D01*
X93813051Y-67650688D01*
X93502247Y-67702642D01*
X93168565Y-67776123D01*
X92943720Y-67831269D01*
X91521305Y-68276525D01*
X90182410Y-68874270D01*
X88937892Y-69615183D01*
X87798611Y-70489940D01*
X86775423Y-71489219D01*
X85879185Y-72603700D01*
X85120757Y-73824059D01*
X84552804Y-75035390D01*
X84083687Y-76436424D01*
X83789765Y-77850796D01*
X83666683Y-79265799D01*
X83126267Y-79265799D01*
X83160478Y-78368594D01*
X83383541Y-76907882D01*
X83771039Y-75486287D01*
X84320692Y-74125813D01*
X84416350Y-73929643D01*
X85101851Y-72744497D01*
X85941361Y-71611408D01*
X86909148Y-70557764D01*
X87979478Y-69610952D01*
X89126617Y-68798362D01*
X89385357Y-68641140D01*
X90192697Y-68216398D01*
X91103025Y-67823837D01*
X92037901Y-67494961D01*
X92692909Y-67312686D01*
X94188908Y-67040604D01*
X95679952Y-66945550D01*
X97153411Y-67023861D01*
G04 #@! TA.AperFunction,EtchedComponent*
G36*
X97153411Y-67023861D02*
G01*
X98596656Y-67271871D01*
X99997058Y-67685916D01*
X101341987Y-68262331D01*
X102618816Y-68997452D01*
X103814913Y-69887614D01*
X104826587Y-70833500D01*
X105823560Y-71997104D01*
X106661916Y-73248403D01*
X107339862Y-74583908D01*
X107855607Y-76000130D01*
X108185322Y-77371487D01*
X108279317Y-78073795D01*
X108330057Y-78889709D01*
X108338238Y-79759597D01*
X108304553Y-80623828D01*
X108229696Y-81422769D01*
X108131202Y-82020306D01*
X107726794Y-83511717D01*
X107168752Y-84915992D01*
X106465461Y-86224506D01*
X105625303Y-87428635D01*
X104656664Y-88519752D01*
X103567926Y-89489233D01*
X102367475Y-90328452D01*
X101063693Y-91028786D01*
X99664965Y-91581608D01*
X98525834Y-91901961D01*
X97842722Y-92027271D01*
X97045418Y-92117442D01*
X96190668Y-92170403D01*
X95335213Y-92184082D01*
X94535799Y-92156406D01*
X93849167Y-92085304D01*
X93785000Y-92075081D01*
X92306842Y-91741802D01*
X90900488Y-91249472D01*
X89576392Y-90607555D01*
X88345009Y-89825517D01*
X87216793Y-88912820D01*
X86202202Y-87878931D01*
X85311688Y-86733311D01*
X84555708Y-85485427D01*
X83944716Y-84144742D01*
X83500694Y-82765417D01*
X83216774Y-81319364D01*
X83104129Y-79846422D01*
X83126267Y-79265799D01*
X83666683Y-79265799D01*
X83710088Y-80668724D01*
X83915624Y-82046864D01*
X84278937Y-83387510D01*
X84795673Y-84677956D01*
X85461478Y-85905492D01*
X86271996Y-87057413D01*
X87222874Y-88121008D01*
X88309757Y-89083572D01*
X89528291Y-89932396D01*
X89691040Y-90030696D01*
X90583258Y-90493185D01*
X91597162Y-90902557D01*
X92676251Y-91239836D01*
X93764021Y-91486046D01*
X94257052Y-91564213D01*
X94883385Y-91616613D01*
X95623660Y-91627394D01*
X96415881Y-91599230D01*
X97198053Y-91534798D01*
X97908178Y-91436773D01*
X98115125Y-91397717D01*
X99524657Y-91021965D01*
X100846609Y-90496130D01*
X102074369Y-89832134D01*
X103201326Y-89041902D01*
X104220872Y-88137358D01*
X105126394Y-87130423D01*
X105911282Y-86033023D01*
X106568926Y-84857081D01*
X107092715Y-83614519D01*
X107476038Y-82317263D01*
X107712285Y-80977234D01*
X107794846Y-79606357D01*
X107717109Y-78216556D01*
X107472464Y-76819753D01*
X107054301Y-75427873D01*
X107020154Y-75335714D01*
X106435598Y-74029487D01*
X105697921Y-72803521D01*
X104821697Y-71671911D01*
X103821497Y-70648756D01*
X102711896Y-69748152D01*
X101507466Y-68984196D01*
X100222782Y-68370986D01*
X99572239Y-68131094D01*
X98950520Y-67936492D01*
X98381512Y-67791739D01*
X97819248Y-67690422D01*
X97217763Y-67626127D01*
X96531091Y-67592439D01*
X95713265Y-67582945D01*
X95644643Y-67583031D01*
X95016775Y-67586431D01*
X94529459Y-67596337D01*
X94141837Y-67616504D01*
X93813051Y-67650688D01*
X93502247Y-67702642D01*
X93168565Y-67776123D01*
X92943720Y-67831269D01*
X91521305Y-68276525D01*
X90182410Y-68874270D01*
X88937892Y-69615183D01*
X87798611Y-70489940D01*
X86775423Y-71489219D01*
X85879185Y-72603700D01*
X85120757Y-73824059D01*
X84552804Y-75035390D01*
X84083687Y-76436424D01*
X83789765Y-77850796D01*
X83666683Y-79265799D01*
X83126267Y-79265799D01*
X83160478Y-78368594D01*
X83383541Y-76907882D01*
X83771039Y-75486287D01*
X84320692Y-74125813D01*
X84416350Y-73929643D01*
X85101851Y-72744497D01*
X85941361Y-71611408D01*
X86909148Y-70557764D01*
X87979478Y-69610952D01*
X89126617Y-68798362D01*
X89385357Y-68641140D01*
X90192697Y-68216398D01*
X91103025Y-67823837D01*
X92037901Y-67494961D01*
X92692909Y-67312686D01*
X94188908Y-67040604D01*
X95679952Y-66945550D01*
X97153411Y-67023861D01*
G37*
G04 #@! TD.AperFunction*
X127670732Y-65686169D02*
X128487621Y-65745556D01*
X129204880Y-65842753D01*
X129435714Y-65888576D01*
X130923522Y-66301275D01*
X132306860Y-66860651D01*
X133593854Y-67571121D01*
X134792625Y-68437096D01*
X135792010Y-69342275D01*
X136806896Y-70478810D01*
X137662000Y-71700014D01*
X138359380Y-73009680D01*
X138901097Y-74411603D01*
X139245905Y-75702502D01*
X139325635Y-76101595D01*
X139382213Y-76475371D01*
X139419209Y-76869110D01*
X139440191Y-77328092D01*
X139448729Y-77897597D01*
X139449402Y-78283929D01*
X139423536Y-79340409D01*
X139341065Y-80272112D01*
X139190393Y-81130017D01*
X138959925Y-81965102D01*
X138638063Y-82828347D01*
X138213211Y-83770732D01*
X138190673Y-83817500D01*
X137466035Y-85111959D01*
X136596806Y-86305060D01*
X135595813Y-87385644D01*
X134475884Y-88342548D01*
X133249846Y-89164613D01*
X131930527Y-89840677D01*
X130751071Y-90290346D01*
X129719890Y-90566329D01*
X128599171Y-90763378D01*
X127451839Y-90874859D01*
X126340815Y-90894137D01*
X125535000Y-90840353D01*
X124041749Y-90586063D01*
X122616852Y-90168985D01*
X121269752Y-89597931D01*
X120009893Y-88881711D01*
X118846717Y-88029137D01*
X117789669Y-87049019D01*
X116848191Y-85950168D01*
X116031728Y-84741396D01*
X115349722Y-83431512D01*
X114811617Y-82029328D01*
X114426857Y-80543655D01*
X114410598Y-80461072D01*
X114320801Y-79824081D01*
X114267547Y-79067465D01*
X114255331Y-78468958D01*
X114836218Y-78468958D01*
X114865309Y-79283401D01*
X114931552Y-80020149D01*
X114977247Y-80331693D01*
X115312055Y-81758658D01*
X115814475Y-83118059D01*
X116481421Y-84403805D01*
X117309809Y-85609805D01*
X118132552Y-86561363D01*
X119209999Y-87574934D01*
X120353534Y-88424492D01*
X121576144Y-89117008D01*
X122890818Y-89659455D01*
X124310543Y-90058804D01*
X124854643Y-90169767D01*
X125352141Y-90234698D01*
X125975439Y-90275441D01*
X126670535Y-90292040D01*
X127383426Y-90284544D01*
X128060109Y-90252999D01*
X128646582Y-90197450D01*
X128856867Y-90166318D01*
X130277740Y-89834889D01*
X131630813Y-89342050D01*
X132904698Y-88698372D01*
X134088004Y-87914428D01*
X135169341Y-87000790D01*
X136137319Y-85968030D01*
X136980548Y-84826720D01*
X137687639Y-83587432D01*
X138247201Y-82260738D01*
X138581980Y-81139478D01*
X138842342Y-79713067D01*
X138927920Y-78284848D01*
X138844352Y-76869383D01*
X138597277Y-75481236D01*
X138192331Y-74134971D01*
X137635154Y-72845151D01*
X136931384Y-71626339D01*
X136086658Y-70493099D01*
X135106614Y-69459995D01*
X133996891Y-68541589D01*
X133596537Y-68261718D01*
X132371832Y-67530270D01*
X131130229Y-66968766D01*
X129848390Y-66570233D01*
X128502976Y-66327698D01*
X127070649Y-66234188D01*
X126805000Y-66232637D01*
X125600613Y-66279743D01*
X124503700Y-66423141D01*
X123461055Y-66675712D01*
X122419476Y-67050337D01*
X121328101Y-67558702D01*
X120089575Y-68291575D01*
X118954370Y-69165864D01*
X117933247Y-70166944D01*
X117036963Y-71280193D01*
X116276277Y-72490986D01*
X115661948Y-73784699D01*
X115204735Y-75146709D01*
X114972569Y-76197500D01*
X114889775Y-76862202D01*
X114844349Y-77640623D01*
X114836218Y-78468958D01*
X114255331Y-78468958D01*
X114250847Y-78249309D01*
X114270709Y-77427699D01*
X114327143Y-76660721D01*
X114409887Y-76061429D01*
X114765402Y-74594189D01*
X115280345Y-73202821D01*
X115945266Y-71896886D01*
X116750717Y-70685946D01*
X117687248Y-69579563D01*
X118745411Y-68587299D01*
X119915757Y-67718716D01*
X121188836Y-66983376D01*
X122555199Y-66390839D01*
X124005398Y-65950669D01*
X124512658Y-65838070D01*
X125175175Y-65740543D01*
X125959219Y-65683095D01*
X126809501Y-65665159D01*
X127670732Y-65686169D01*
G04 #@! TA.AperFunction,EtchedComponent*
G36*
X127670732Y-65686169D02*
G01*
X128487621Y-65745556D01*
X129204880Y-65842753D01*
X129435714Y-65888576D01*
X130923522Y-66301275D01*
X132306860Y-66860651D01*
X133593854Y-67571121D01*
X134792625Y-68437096D01*
X135792010Y-69342275D01*
X136806896Y-70478810D01*
X137662000Y-71700014D01*
X138359380Y-73009680D01*
X138901097Y-74411603D01*
X139245905Y-75702502D01*
X139325635Y-76101595D01*
X139382213Y-76475371D01*
X139419209Y-76869110D01*
X139440191Y-77328092D01*
X139448729Y-77897597D01*
X139449402Y-78283929D01*
X139423536Y-79340409D01*
X139341065Y-80272112D01*
X139190393Y-81130017D01*
X138959925Y-81965102D01*
X138638063Y-82828347D01*
X138213211Y-83770732D01*
X138190673Y-83817500D01*
X137466035Y-85111959D01*
X136596806Y-86305060D01*
X135595813Y-87385644D01*
X134475884Y-88342548D01*
X133249846Y-89164613D01*
X131930527Y-89840677D01*
X130751071Y-90290346D01*
X129719890Y-90566329D01*
X128599171Y-90763378D01*
X127451839Y-90874859D01*
X126340815Y-90894137D01*
X125535000Y-90840353D01*
X124041749Y-90586063D01*
X122616852Y-90168985D01*
X121269752Y-89597931D01*
X120009893Y-88881711D01*
X118846717Y-88029137D01*
X117789669Y-87049019D01*
X116848191Y-85950168D01*
X116031728Y-84741396D01*
X115349722Y-83431512D01*
X114811617Y-82029328D01*
X114426857Y-80543655D01*
X114410598Y-80461072D01*
X114320801Y-79824081D01*
X114267547Y-79067465D01*
X114255331Y-78468958D01*
X114836218Y-78468958D01*
X114865309Y-79283401D01*
X114931552Y-80020149D01*
X114977247Y-80331693D01*
X115312055Y-81758658D01*
X115814475Y-83118059D01*
X116481421Y-84403805D01*
X117309809Y-85609805D01*
X118132552Y-86561363D01*
X119209999Y-87574934D01*
X120353534Y-88424492D01*
X121576144Y-89117008D01*
X122890818Y-89659455D01*
X124310543Y-90058804D01*
X124854643Y-90169767D01*
X125352141Y-90234698D01*
X125975439Y-90275441D01*
X126670535Y-90292040D01*
X127383426Y-90284544D01*
X128060109Y-90252999D01*
X128646582Y-90197450D01*
X128856867Y-90166318D01*
X130277740Y-89834889D01*
X131630813Y-89342050D01*
X132904698Y-88698372D01*
X134088004Y-87914428D01*
X135169341Y-87000790D01*
X136137319Y-85968030D01*
X136980548Y-84826720D01*
X137687639Y-83587432D01*
X138247201Y-82260738D01*
X138581980Y-81139478D01*
X138842342Y-79713067D01*
X138927920Y-78284848D01*
X138844352Y-76869383D01*
X138597277Y-75481236D01*
X138192331Y-74134971D01*
X137635154Y-72845151D01*
X136931384Y-71626339D01*
X136086658Y-70493099D01*
X135106614Y-69459995D01*
X133996891Y-68541589D01*
X133596537Y-68261718D01*
X132371832Y-67530270D01*
X131130229Y-66968766D01*
X129848390Y-66570233D01*
X128502976Y-66327698D01*
X127070649Y-66234188D01*
X126805000Y-66232637D01*
X125600613Y-66279743D01*
X124503700Y-66423141D01*
X123461055Y-66675712D01*
X122419476Y-67050337D01*
X121328101Y-67558702D01*
X120089575Y-68291575D01*
X118954370Y-69165864D01*
X117933247Y-70166944D01*
X117036963Y-71280193D01*
X116276277Y-72490986D01*
X115661948Y-73784699D01*
X115204735Y-75146709D01*
X114972569Y-76197500D01*
X114889775Y-76862202D01*
X114844349Y-77640623D01*
X114836218Y-78468958D01*
X114255331Y-78468958D01*
X114250847Y-78249309D01*
X114270709Y-77427699D01*
X114327143Y-76660721D01*
X114409887Y-76061429D01*
X114765402Y-74594189D01*
X115280345Y-73202821D01*
X115945266Y-71896886D01*
X116750717Y-70685946D01*
X117687248Y-69579563D01*
X118745411Y-68587299D01*
X119915757Y-67718716D01*
X121188836Y-66983376D01*
X122555199Y-66390839D01*
X124005398Y-65950669D01*
X124512658Y-65838070D01*
X125175175Y-65740543D01*
X125959219Y-65683095D01*
X126809501Y-65665159D01*
X127670732Y-65686169D01*
G37*
G04 #@! TD.AperFunction*
X112352145Y-86668399D02*
X113318564Y-86826755D01*
X114215570Y-87071399D01*
X115017853Y-87391798D01*
X115700106Y-87777419D01*
X116237020Y-88217730D01*
X116339033Y-88327617D01*
X116691330Y-88846109D01*
X116865473Y-89396764D01*
X116862976Y-89986534D01*
X116780212Y-90352513D01*
X116775025Y-90442489D01*
X116833809Y-90533212D01*
X116981623Y-90643205D01*
X117243526Y-90790987D01*
X117644579Y-90995081D01*
X117659948Y-91002728D01*
X118786012Y-91616157D01*
X119748585Y-92254115D01*
X120543341Y-92912977D01*
X121165951Y-93589118D01*
X121612089Y-94278914D01*
X121641806Y-94338205D01*
X121906710Y-95081316D01*
X122003214Y-95870450D01*
X121929567Y-96679908D01*
X121828737Y-97083092D01*
X121545020Y-97805750D01*
X121174663Y-98381579D01*
X120710398Y-98814119D01*
X120144962Y-99106911D01*
X119471089Y-99263496D01*
X118681515Y-99287415D01*
X117768974Y-99182210D01*
X117589120Y-99149455D01*
X117256805Y-99088917D01*
X117002832Y-99048403D01*
X116871283Y-99034770D01*
X116862585Y-99036462D01*
X116876143Y-99127133D01*
X116931086Y-99350403D01*
X117016971Y-99665001D01*
X117057082Y-99805206D01*
X117318947Y-100876186D01*
X117477401Y-101908259D01*
X117534524Y-102885160D01*
X117492395Y-103790625D01*
X117353094Y-104608390D01*
X117118701Y-105322189D01*
X116791296Y-105915759D01*
X116372959Y-106372836D01*
X116200930Y-106500551D01*
X115635455Y-106787108D01*
X115016260Y-106951409D01*
X114375080Y-106998716D01*
X113743649Y-106934293D01*
X113153699Y-106763401D01*
X112636963Y-106491303D01*
X112225176Y-106123261D01*
X112013699Y-105806164D01*
X111829073Y-105444267D01*
X111471614Y-105979566D01*
X111026174Y-106523105D01*
X110513413Y-106908904D01*
X109971906Y-107137294D01*
X109488319Y-107234289D01*
X108958352Y-107262797D01*
X108450428Y-107224188D01*
X108032971Y-107119831D01*
X107979772Y-107097409D01*
X107479535Y-106772472D01*
X107053882Y-106293705D01*
X106705750Y-105673958D01*
X106438073Y-104926083D01*
X106253787Y-104062930D01*
X106155826Y-103097350D01*
X106152653Y-102712358D01*
X106516389Y-102712358D01*
X106583918Y-103490634D01*
X106725705Y-104256872D01*
X106931826Y-104963281D01*
X107192359Y-105562071D01*
X107324997Y-105784116D01*
X107705455Y-106198665D01*
X108197226Y-106504178D01*
X108758235Y-106688520D01*
X109346410Y-106739555D01*
X109919678Y-106645144D01*
X110092568Y-106582456D01*
X110426162Y-106407369D01*
X110698297Y-106170344D01*
X110946072Y-105831565D01*
X111168167Y-105428072D01*
X111437658Y-104820149D01*
X111635582Y-104188703D01*
X111769354Y-103495402D01*
X111846389Y-102701916D01*
X111874049Y-101778929D01*
X111870999Y-101099092D01*
X111855105Y-100441626D01*
X111828164Y-99834184D01*
X111791973Y-99304419D01*
X111748327Y-98879983D01*
X111699024Y-98588530D01*
X111659345Y-98473732D01*
X111594357Y-98437799D01*
X111450258Y-98439113D01*
X111204721Y-98481767D01*
X110835421Y-98569855D01*
X110320030Y-98707470D01*
X110192481Y-98742675D01*
X109623245Y-98898495D01*
X109027585Y-99058262D01*
X108466517Y-99205811D01*
X108001058Y-99324980D01*
X107891071Y-99352316D01*
X107506189Y-99454775D01*
X107189423Y-99553624D01*
X106981225Y-99635397D01*
X106921973Y-99674897D01*
X106872030Y-99822847D01*
X106807773Y-100109213D01*
X106736277Y-100492243D01*
X106664617Y-100930191D01*
X106599870Y-101381305D01*
X106549110Y-101803838D01*
X106533039Y-101969833D01*
X106516389Y-102712358D01*
X106152653Y-102712358D01*
X106147127Y-102042194D01*
X106230623Y-100910313D01*
X106358685Y-99999923D01*
X106413934Y-99672346D01*
X105519645Y-99622527D01*
X104466961Y-99498774D01*
X103539215Y-99249576D01*
X102726727Y-98871115D01*
X102019815Y-98359574D01*
X101805164Y-98158027D01*
X101380720Y-97669081D01*
X101111901Y-97187530D01*
X100980839Y-96667708D01*
X100976819Y-96450500D01*
X101406402Y-96450500D01*
X101496147Y-96984098D01*
X101583312Y-97191750D01*
X101853586Y-97571427D01*
X102261388Y-97956301D01*
X102765655Y-98319612D01*
X103325322Y-98634603D01*
X103899327Y-98874514D01*
X104353214Y-98996696D01*
X105163036Y-99083050D01*
X106072577Y-99060466D01*
X106870495Y-98959562D01*
X107235020Y-98889497D01*
X107728172Y-98783590D01*
X108303201Y-98652467D01*
X108913357Y-98506751D01*
X109433214Y-98377184D01*
X109721156Y-98306680D01*
X112151675Y-98306680D01*
X112272467Y-99453161D01*
X112319360Y-100084698D01*
X112344643Y-100854917D01*
X112348552Y-101722393D01*
X112331327Y-102645700D01*
X112293204Y-103583413D01*
X112244292Y-104364286D01*
X112248378Y-104930395D01*
X112337533Y-105322757D01*
X112599222Y-105779859D01*
X112995285Y-106151851D01*
X113493421Y-106425284D01*
X114061327Y-106586710D01*
X114666703Y-106622682D01*
X115238928Y-106530679D01*
X115620218Y-106346926D01*
X116001334Y-106027030D01*
X116343316Y-105612079D01*
X116607205Y-105143164D01*
X116647911Y-105044643D01*
X116732765Y-104801138D01*
X116794188Y-104552369D01*
X116837211Y-104258873D01*
X116866868Y-103881185D01*
X116888193Y-103379842D01*
X116896659Y-103094286D01*
X116895965Y-102053076D01*
X116829338Y-101137422D01*
X116691271Y-100301809D01*
X116476256Y-99500723D01*
X116453248Y-99429694D01*
X116260080Y-98841265D01*
X115285684Y-98608278D01*
X114408851Y-98419019D01*
X113646427Y-98296628D01*
X113016021Y-98243375D01*
X112566758Y-98257519D01*
X112151675Y-98306680D01*
X109721156Y-98306680D01*
X110390283Y-98142841D01*
X111210983Y-97967979D01*
X111930271Y-97852389D01*
X112583105Y-97795857D01*
X113204442Y-97798173D01*
X113829240Y-97859126D01*
X114492457Y-97978505D01*
X115229052Y-98156098D01*
X115888488Y-98338179D01*
X116898150Y-98599204D01*
X117774663Y-98761997D01*
X118537498Y-98826425D01*
X119206126Y-98792353D01*
X119800018Y-98659648D01*
X120338645Y-98428176D01*
X120545714Y-98306166D01*
X120959983Y-97939395D01*
X121270298Y-97449404D01*
X121466399Y-96868336D01*
X121538030Y-96228333D01*
X121474929Y-95561538D01*
X121453430Y-95462139D01*
X121195655Y-94700633D01*
X120784317Y-93983281D01*
X120214028Y-93304641D01*
X119479403Y-92659273D01*
X118575056Y-92041734D01*
X117495601Y-91446584D01*
X117461832Y-91429705D01*
X116457126Y-90928826D01*
X116032515Y-91302583D01*
X115490223Y-91694729D01*
X114810666Y-92049069D01*
X114037180Y-92345108D01*
X113511688Y-92494804D01*
X112748213Y-92631335D01*
X111880622Y-92699693D01*
X110972705Y-92700431D01*
X110088255Y-92634101D01*
X109291062Y-92501259D01*
X109108642Y-92456604D01*
X108375759Y-92228329D01*
X107713356Y-91954771D01*
X107162715Y-91654627D01*
X106870958Y-91443018D01*
X106668146Y-91293984D01*
X106510148Y-91214681D01*
X106485271Y-91210714D01*
X106316922Y-91254084D01*
X106032429Y-91370851D01*
X105671180Y-91540998D01*
X105272565Y-91744510D01*
X104875973Y-91961370D01*
X104520792Y-92171564D01*
X104276695Y-92333023D01*
X103872691Y-92655373D01*
X103413568Y-93073584D01*
X102944623Y-93541618D01*
X102511152Y-94013433D01*
X102158453Y-94442990D01*
X102042412Y-94603966D01*
X101683447Y-95238384D01*
X101470139Y-95861245D01*
X101406402Y-96450500D01*
X100976819Y-96450500D01*
X100969663Y-96063952D01*
X100972047Y-96029116D01*
X101103621Y-95376549D01*
X101397189Y-94698496D01*
X101838196Y-94011271D01*
X102412090Y-93331187D01*
X103104317Y-92674559D01*
X103900323Y-92057702D01*
X104785554Y-91496929D01*
X105229314Y-91256858D01*
X105581929Y-91075075D01*
X105869619Y-90924831D01*
X106057154Y-90824643D01*
X106110820Y-90793546D01*
X106101112Y-90700273D01*
X106036785Y-90499020D01*
X105997427Y-90396214D01*
X105858833Y-89832426D01*
X105900564Y-89283729D01*
X106122817Y-88749452D01*
X106525787Y-88228925D01*
X106675025Y-88081808D01*
X107270599Y-87632926D01*
X108005609Y-87256282D01*
X108850017Y-86959358D01*
X109773783Y-86749630D01*
X110746866Y-86634579D01*
X111739227Y-86621683D01*
X112352145Y-86668399D01*
G04 #@! TA.AperFunction,EtchedComponent*
G36*
X112352145Y-86668399D02*
G01*
X113318564Y-86826755D01*
X114215570Y-87071399D01*
X115017853Y-87391798D01*
X115700106Y-87777419D01*
X116237020Y-88217730D01*
X116339033Y-88327617D01*
X116691330Y-88846109D01*
X116865473Y-89396764D01*
X116862976Y-89986534D01*
X116780212Y-90352513D01*
X116775025Y-90442489D01*
X116833809Y-90533212D01*
X116981623Y-90643205D01*
X117243526Y-90790987D01*
X117644579Y-90995081D01*
X117659948Y-91002728D01*
X118786012Y-91616157D01*
X119748585Y-92254115D01*
X120543341Y-92912977D01*
X121165951Y-93589118D01*
X121612089Y-94278914D01*
X121641806Y-94338205D01*
X121906710Y-95081316D01*
X122003214Y-95870450D01*
X121929567Y-96679908D01*
X121828737Y-97083092D01*
X121545020Y-97805750D01*
X121174663Y-98381579D01*
X120710398Y-98814119D01*
X120144962Y-99106911D01*
X119471089Y-99263496D01*
X118681515Y-99287415D01*
X117768974Y-99182210D01*
X117589120Y-99149455D01*
X117256805Y-99088917D01*
X117002832Y-99048403D01*
X116871283Y-99034770D01*
X116862585Y-99036462D01*
X116876143Y-99127133D01*
X116931086Y-99350403D01*
X117016971Y-99665001D01*
X117057082Y-99805206D01*
X117318947Y-100876186D01*
X117477401Y-101908259D01*
X117534524Y-102885160D01*
X117492395Y-103790625D01*
X117353094Y-104608390D01*
X117118701Y-105322189D01*
X116791296Y-105915759D01*
X116372959Y-106372836D01*
X116200930Y-106500551D01*
X115635455Y-106787108D01*
X115016260Y-106951409D01*
X114375080Y-106998716D01*
X113743649Y-106934293D01*
X113153699Y-106763401D01*
X112636963Y-106491303D01*
X112225176Y-106123261D01*
X112013699Y-105806164D01*
X111829073Y-105444267D01*
X111471614Y-105979566D01*
X111026174Y-106523105D01*
X110513413Y-106908904D01*
X109971906Y-107137294D01*
X109488319Y-107234289D01*
X108958352Y-107262797D01*
X108450428Y-107224188D01*
X108032971Y-107119831D01*
X107979772Y-107097409D01*
X107479535Y-106772472D01*
X107053882Y-106293705D01*
X106705750Y-105673958D01*
X106438073Y-104926083D01*
X106253787Y-104062930D01*
X106155826Y-103097350D01*
X106152653Y-102712358D01*
X106516389Y-102712358D01*
X106583918Y-103490634D01*
X106725705Y-104256872D01*
X106931826Y-104963281D01*
X107192359Y-105562071D01*
X107324997Y-105784116D01*
X107705455Y-106198665D01*
X108197226Y-106504178D01*
X108758235Y-106688520D01*
X109346410Y-106739555D01*
X109919678Y-106645144D01*
X110092568Y-106582456D01*
X110426162Y-106407369D01*
X110698297Y-106170344D01*
X110946072Y-105831565D01*
X111168167Y-105428072D01*
X111437658Y-104820149D01*
X111635582Y-104188703D01*
X111769354Y-103495402D01*
X111846389Y-102701916D01*
X111874049Y-101778929D01*
X111870999Y-101099092D01*
X111855105Y-100441626D01*
X111828164Y-99834184D01*
X111791973Y-99304419D01*
X111748327Y-98879983D01*
X111699024Y-98588530D01*
X111659345Y-98473732D01*
X111594357Y-98437799D01*
X111450258Y-98439113D01*
X111204721Y-98481767D01*
X110835421Y-98569855D01*
X110320030Y-98707470D01*
X110192481Y-98742675D01*
X109623245Y-98898495D01*
X109027585Y-99058262D01*
X108466517Y-99205811D01*
X108001058Y-99324980D01*
X107891071Y-99352316D01*
X107506189Y-99454775D01*
X107189423Y-99553624D01*
X106981225Y-99635397D01*
X106921973Y-99674897D01*
X106872030Y-99822847D01*
X106807773Y-100109213D01*
X106736277Y-100492243D01*
X106664617Y-100930191D01*
X106599870Y-101381305D01*
X106549110Y-101803838D01*
X106533039Y-101969833D01*
X106516389Y-102712358D01*
X106152653Y-102712358D01*
X106147127Y-102042194D01*
X106230623Y-100910313D01*
X106358685Y-99999923D01*
X106413934Y-99672346D01*
X105519645Y-99622527D01*
X104466961Y-99498774D01*
X103539215Y-99249576D01*
X102726727Y-98871115D01*
X102019815Y-98359574D01*
X101805164Y-98158027D01*
X101380720Y-97669081D01*
X101111901Y-97187530D01*
X100980839Y-96667708D01*
X100976819Y-96450500D01*
X101406402Y-96450500D01*
X101496147Y-96984098D01*
X101583312Y-97191750D01*
X101853586Y-97571427D01*
X102261388Y-97956301D01*
X102765655Y-98319612D01*
X103325322Y-98634603D01*
X103899327Y-98874514D01*
X104353214Y-98996696D01*
X105163036Y-99083050D01*
X106072577Y-99060466D01*
X106870495Y-98959562D01*
X107235020Y-98889497D01*
X107728172Y-98783590D01*
X108303201Y-98652467D01*
X108913357Y-98506751D01*
X109433214Y-98377184D01*
X109721156Y-98306680D01*
X112151675Y-98306680D01*
X112272467Y-99453161D01*
X112319360Y-100084698D01*
X112344643Y-100854917D01*
X112348552Y-101722393D01*
X112331327Y-102645700D01*
X112293204Y-103583413D01*
X112244292Y-104364286D01*
X112248378Y-104930395D01*
X112337533Y-105322757D01*
X112599222Y-105779859D01*
X112995285Y-106151851D01*
X113493421Y-106425284D01*
X114061327Y-106586710D01*
X114666703Y-106622682D01*
X115238928Y-106530679D01*
X115620218Y-106346926D01*
X116001334Y-106027030D01*
X116343316Y-105612079D01*
X116607205Y-105143164D01*
X116647911Y-105044643D01*
X116732765Y-104801138D01*
X116794188Y-104552369D01*
X116837211Y-104258873D01*
X116866868Y-103881185D01*
X116888193Y-103379842D01*
X116896659Y-103094286D01*
X116895965Y-102053076D01*
X116829338Y-101137422D01*
X116691271Y-100301809D01*
X116476256Y-99500723D01*
X116453248Y-99429694D01*
X116260080Y-98841265D01*
X115285684Y-98608278D01*
X114408851Y-98419019D01*
X113646427Y-98296628D01*
X113016021Y-98243375D01*
X112566758Y-98257519D01*
X112151675Y-98306680D01*
X109721156Y-98306680D01*
X110390283Y-98142841D01*
X111210983Y-97967979D01*
X111930271Y-97852389D01*
X112583105Y-97795857D01*
X113204442Y-97798173D01*
X113829240Y-97859126D01*
X114492457Y-97978505D01*
X115229052Y-98156098D01*
X115888488Y-98338179D01*
X116898150Y-98599204D01*
X117774663Y-98761997D01*
X118537498Y-98826425D01*
X119206126Y-98792353D01*
X119800018Y-98659648D01*
X120338645Y-98428176D01*
X120545714Y-98306166D01*
X120959983Y-97939395D01*
X121270298Y-97449404D01*
X121466399Y-96868336D01*
X121538030Y-96228333D01*
X121474929Y-95561538D01*
X121453430Y-95462139D01*
X121195655Y-94700633D01*
X120784317Y-93983281D01*
X120214028Y-93304641D01*
X119479403Y-92659273D01*
X118575056Y-92041734D01*
X117495601Y-91446584D01*
X117461832Y-91429705D01*
X116457126Y-90928826D01*
X116032515Y-91302583D01*
X115490223Y-91694729D01*
X114810666Y-92049069D01*
X114037180Y-92345108D01*
X113511688Y-92494804D01*
X112748213Y-92631335D01*
X111880622Y-92699693D01*
X110972705Y-92700431D01*
X110088255Y-92634101D01*
X109291062Y-92501259D01*
X109108642Y-92456604D01*
X108375759Y-92228329D01*
X107713356Y-91954771D01*
X107162715Y-91654627D01*
X106870958Y-91443018D01*
X106668146Y-91293984D01*
X106510148Y-91214681D01*
X106485271Y-91210714D01*
X106316922Y-91254084D01*
X106032429Y-91370851D01*
X105671180Y-91540998D01*
X105272565Y-91744510D01*
X104875973Y-91961370D01*
X104520792Y-92171564D01*
X104276695Y-92333023D01*
X103872691Y-92655373D01*
X103413568Y-93073584D01*
X102944623Y-93541618D01*
X102511152Y-94013433D01*
X102158453Y-94442990D01*
X102042412Y-94603966D01*
X101683447Y-95238384D01*
X101470139Y-95861245D01*
X101406402Y-96450500D01*
X100976819Y-96450500D01*
X100969663Y-96063952D01*
X100972047Y-96029116D01*
X101103621Y-95376549D01*
X101397189Y-94698496D01*
X101838196Y-94011271D01*
X102412090Y-93331187D01*
X103104317Y-92674559D01*
X103900323Y-92057702D01*
X104785554Y-91496929D01*
X105229314Y-91256858D01*
X105581929Y-91075075D01*
X105869619Y-90924831D01*
X106057154Y-90824643D01*
X106110820Y-90793546D01*
X106101112Y-90700273D01*
X106036785Y-90499020D01*
X105997427Y-90396214D01*
X105858833Y-89832426D01*
X105900564Y-89283729D01*
X106122817Y-88749452D01*
X106525787Y-88228925D01*
X106675025Y-88081808D01*
X107270599Y-87632926D01*
X108005609Y-87256282D01*
X108850017Y-86959358D01*
X109773783Y-86749630D01*
X110746866Y-86634579D01*
X111739227Y-86621683D01*
X112352145Y-86668399D01*
G37*
G04 #@! TD.AperFunction*
X119098821Y-36228818D02*
X120026066Y-36475244D01*
X120883203Y-36888520D01*
X121675270Y-37470748D01*
X121996034Y-37772491D01*
X122571464Y-38424025D01*
X122999942Y-39086404D01*
X123311328Y-39811160D01*
X123450799Y-40283352D01*
X123613228Y-41271998D01*
X123597658Y-42252988D01*
X123407353Y-43210884D01*
X123045577Y-44130249D01*
X122515591Y-44995645D01*
X122430989Y-45107944D01*
X121808542Y-45771924D01*
X121063950Y-46326654D01*
X120229950Y-46757370D01*
X119339283Y-47049304D01*
X118424685Y-47187690D01*
X117820221Y-47187508D01*
X117135800Y-47143279D01*
X116214832Y-48970390D01*
X115732357Y-49909651D01*
X115243656Y-50827529D01*
X114757335Y-51710113D01*
X114282000Y-52543490D01*
X113826258Y-53313748D01*
X113398713Y-54006975D01*
X113007974Y-54609259D01*
X112662646Y-55106687D01*
X112371335Y-55485347D01*
X112142647Y-55731327D01*
X111985189Y-55830715D01*
X111970086Y-55832143D01*
X111867002Y-55765661D01*
X111678204Y-55584686D01*
X111430649Y-55316928D01*
X111153720Y-54993036D01*
X110356284Y-53959186D01*
X109578198Y-52822419D01*
X108845490Y-51627119D01*
X108184182Y-50417667D01*
X107620301Y-49238449D01*
X107257407Y-48348214D01*
X107117756Y-47975370D01*
X107002126Y-47672352D01*
X106924425Y-47475250D01*
X106899071Y-47418231D01*
X106808479Y-47429827D01*
X106599486Y-47484332D01*
X106431921Y-47534471D01*
X106123331Y-47607707D01*
X105713298Y-47674703D01*
X105281694Y-47722804D01*
X105207365Y-47728515D01*
X104244001Y-47711465D01*
X103329105Y-47531672D01*
X102668592Y-47278291D01*
X107392305Y-47278291D01*
X107426909Y-47428694D01*
X107521687Y-47710215D01*
X107662760Y-48088348D01*
X107836246Y-48528583D01*
X108028267Y-48996412D01*
X108224944Y-49457328D01*
X108412396Y-49876821D01*
X108571254Y-50209461D01*
X108785480Y-50623513D01*
X109039253Y-51093041D01*
X109318512Y-51594249D01*
X109609192Y-52103343D01*
X109897232Y-52596529D01*
X110168568Y-53050011D01*
X110409137Y-53439996D01*
X110604877Y-53742687D01*
X110741725Y-53934292D01*
X110805618Y-53991014D01*
X110805983Y-53990683D01*
X110795106Y-53893314D01*
X110725776Y-53685884D01*
X110663341Y-53531724D01*
X110385619Y-52802617D01*
X110116979Y-51946750D01*
X109866558Y-51007140D01*
X109643494Y-50026803D01*
X109456924Y-49048757D01*
X109315984Y-48116017D01*
X109229812Y-47271600D01*
X109206428Y-46672773D01*
X109198724Y-46271709D01*
X109163386Y-46038043D01*
X109082074Y-45957986D01*
X108936448Y-46017744D01*
X108708168Y-46203528D01*
X108650685Y-46254860D01*
X108338147Y-46517844D01*
X108002544Y-46773151D01*
X107798675Y-46912301D01*
X107569894Y-47075938D01*
X107422489Y-47218041D01*
X107392305Y-47278291D01*
X102668592Y-47278291D01*
X102475876Y-47204363D01*
X101697512Y-46744761D01*
X101007212Y-46168092D01*
X100418174Y-45489582D01*
X99943597Y-44724454D01*
X99596679Y-43887935D01*
X99390618Y-42995249D01*
X99339862Y-42084020D01*
X99918399Y-42084020D01*
X99967271Y-42935188D01*
X100164272Y-43772802D01*
X100512525Y-44576312D01*
X101015155Y-45325171D01*
X101364682Y-45712460D01*
X102088623Y-46310132D01*
X102916126Y-46766900D01*
X103823057Y-47070741D01*
X104262500Y-47156183D01*
X104618249Y-47177983D01*
X105076791Y-47162636D01*
X105564750Y-47116357D01*
X106008749Y-47045363D01*
X106239762Y-46988683D01*
X107087456Y-46643093D01*
X107850311Y-46153561D01*
X108448180Y-45600540D01*
X109633330Y-45600540D01*
X109689386Y-46702235D01*
X109858886Y-48529397D01*
X110176028Y-50310764D01*
X110634904Y-52021250D01*
X111229606Y-53635767D01*
X111428215Y-54085893D01*
X111636737Y-54501421D01*
X111816510Y-54750662D01*
X111989094Y-54841641D01*
X112176053Y-54782384D01*
X112398948Y-54580917D01*
X112487752Y-54480274D01*
X112708039Y-54188883D01*
X112996110Y-53756476D01*
X113339402Y-53204703D01*
X113725351Y-52555217D01*
X114141396Y-51829669D01*
X114574972Y-51049709D01*
X115013518Y-50236989D01*
X115444470Y-49413161D01*
X115568387Y-49171030D01*
X115897554Y-48521562D01*
X116150060Y-48014913D01*
X116333437Y-47633193D01*
X116455220Y-47358511D01*
X116522941Y-47172978D01*
X116544134Y-47058702D01*
X116526331Y-46997793D01*
X116492420Y-46976538D01*
X115960407Y-46759534D01*
X115403523Y-46466899D01*
X114866979Y-46128138D01*
X114395989Y-45772756D01*
X114035764Y-45430258D01*
X113936610Y-45308653D01*
X113599548Y-44995090D01*
X113140640Y-44774327D01*
X112597120Y-44651932D01*
X112006225Y-44633473D01*
X111405188Y-44724517D01*
X110975357Y-44865842D01*
X110606646Y-45034113D01*
X110235980Y-45226577D01*
X110032200Y-45346424D01*
X109633330Y-45600540D01*
X108448180Y-45600540D01*
X108512540Y-45541008D01*
X109058359Y-44826357D01*
X109471983Y-44030528D01*
X109737625Y-43174445D01*
X109839501Y-42279029D01*
X109840087Y-42216832D01*
X109797409Y-41698278D01*
X109679908Y-41100490D01*
X109506985Y-40499278D01*
X109298038Y-39970452D01*
X109231089Y-39836990D01*
X108924676Y-39376370D01*
X108501928Y-38891199D01*
X108012854Y-38429352D01*
X107507465Y-38038704D01*
X107100665Y-37797538D01*
X106191658Y-37446021D01*
X105276009Y-37274486D01*
X104361675Y-37282852D01*
X103456614Y-37471041D01*
X102568786Y-37838971D01*
X102560947Y-37843072D01*
X101786643Y-38344052D01*
X101141726Y-38954768D01*
X100629319Y-39654671D01*
X100252547Y-40423213D01*
X100014532Y-41239845D01*
X99918399Y-42084020D01*
X99339862Y-42084020D01*
X99338614Y-42061622D01*
X99453865Y-41102278D01*
X99455680Y-41093674D01*
X99742948Y-40149751D01*
X100175564Y-39297097D01*
X100736337Y-38546384D01*
X101408074Y-37908281D01*
X102173580Y-37393458D01*
X103015664Y-37012586D01*
X103917133Y-36776334D01*
X104860793Y-36695373D01*
X105829452Y-36780372D01*
X106257200Y-36872598D01*
X107170034Y-37197419D01*
X108005312Y-37677743D01*
X108747111Y-38298434D01*
X109379505Y-39044356D01*
X109886568Y-39900371D01*
X110170500Y-40592143D01*
X110250907Y-40880701D01*
X110302525Y-41210445D01*
X110330006Y-41626742D01*
X110338001Y-42174956D01*
X110337940Y-42225000D01*
X110322644Y-42847359D01*
X110270047Y-43358780D01*
X110165673Y-43828309D01*
X109995048Y-44324996D01*
X109800104Y-44790610D01*
X109796025Y-44856639D01*
X109886745Y-44850098D01*
X110094551Y-44764770D01*
X110365382Y-44632940D01*
X111069569Y-44333883D01*
X111730421Y-44175731D01*
X112402627Y-44146720D01*
X112574042Y-44157860D01*
X113182413Y-44208864D01*
X113010640Y-43820543D01*
X112732580Y-42983839D01*
X112595367Y-42078732D01*
X112599705Y-41336501D01*
X113159837Y-41336501D01*
X113175825Y-42237583D01*
X113358164Y-43116222D01*
X113703455Y-43951936D01*
X114208298Y-44724244D01*
X114566629Y-45128727D01*
X115297342Y-45748490D01*
X116102074Y-46206200D01*
X116965744Y-46497846D01*
X117873270Y-46619419D01*
X118809573Y-46566909D01*
X119457143Y-46429127D01*
X120281791Y-46110274D01*
X121032940Y-45642450D01*
X121693231Y-45048390D01*
X122245307Y-44350829D01*
X122671809Y-43572501D01*
X122955381Y-42736140D01*
X123078663Y-41864481D01*
X123082564Y-41680714D01*
X122994797Y-40778592D01*
X122741624Y-39914811D01*
X122338233Y-39110349D01*
X121799812Y-38386186D01*
X121141553Y-37763301D01*
X120378642Y-37262673D01*
X119655847Y-36947769D01*
X119010623Y-36793722D01*
X118277478Y-36728425D01*
X117526705Y-36751826D01*
X116828593Y-36863873D01*
X116530135Y-36950057D01*
X115672727Y-37337902D01*
X114913643Y-37873887D01*
X114266647Y-38545631D01*
X113745501Y-39340757D01*
X113640511Y-39548929D01*
X113313599Y-40433456D01*
X113159837Y-41336501D01*
X112599705Y-41336501D01*
X112600776Y-41153335D01*
X112750587Y-40255761D01*
X112864931Y-39875628D01*
X113272130Y-38968436D01*
X113817826Y-38166043D01*
X114485126Y-37480490D01*
X115257135Y-36923818D01*
X116116958Y-36508069D01*
X117047699Y-36245283D01*
X118032465Y-36147501D01*
X118096428Y-36147143D01*
X119098821Y-36228818D01*
G04 #@! TA.AperFunction,EtchedComponent*
G36*
X119098821Y-36228818D02*
G01*
X120026066Y-36475244D01*
X120883203Y-36888520D01*
X121675270Y-37470748D01*
X121996034Y-37772491D01*
X122571464Y-38424025D01*
X122999942Y-39086404D01*
X123311328Y-39811160D01*
X123450799Y-40283352D01*
X123613228Y-41271998D01*
X123597658Y-42252988D01*
X123407353Y-43210884D01*
X123045577Y-44130249D01*
X122515591Y-44995645D01*
X122430989Y-45107944D01*
X121808542Y-45771924D01*
X121063950Y-46326654D01*
X120229950Y-46757370D01*
X119339283Y-47049304D01*
X118424685Y-47187690D01*
X117820221Y-47187508D01*
X117135800Y-47143279D01*
X116214832Y-48970390D01*
X115732357Y-49909651D01*
X115243656Y-50827529D01*
X114757335Y-51710113D01*
X114282000Y-52543490D01*
X113826258Y-53313748D01*
X113398713Y-54006975D01*
X113007974Y-54609259D01*
X112662646Y-55106687D01*
X112371335Y-55485347D01*
X112142647Y-55731327D01*
X111985189Y-55830715D01*
X111970086Y-55832143D01*
X111867002Y-55765661D01*
X111678204Y-55584686D01*
X111430649Y-55316928D01*
X111153720Y-54993036D01*
X110356284Y-53959186D01*
X109578198Y-52822419D01*
X108845490Y-51627119D01*
X108184182Y-50417667D01*
X107620301Y-49238449D01*
X107257407Y-48348214D01*
X107117756Y-47975370D01*
X107002126Y-47672352D01*
X106924425Y-47475250D01*
X106899071Y-47418231D01*
X106808479Y-47429827D01*
X106599486Y-47484332D01*
X106431921Y-47534471D01*
X106123331Y-47607707D01*
X105713298Y-47674703D01*
X105281694Y-47722804D01*
X105207365Y-47728515D01*
X104244001Y-47711465D01*
X103329105Y-47531672D01*
X102668592Y-47278291D01*
X107392305Y-47278291D01*
X107426909Y-47428694D01*
X107521687Y-47710215D01*
X107662760Y-48088348D01*
X107836246Y-48528583D01*
X108028267Y-48996412D01*
X108224944Y-49457328D01*
X108412396Y-49876821D01*
X108571254Y-50209461D01*
X108785480Y-50623513D01*
X109039253Y-51093041D01*
X109318512Y-51594249D01*
X109609192Y-52103343D01*
X109897232Y-52596529D01*
X110168568Y-53050011D01*
X110409137Y-53439996D01*
X110604877Y-53742687D01*
X110741725Y-53934292D01*
X110805618Y-53991014D01*
X110805983Y-53990683D01*
X110795106Y-53893314D01*
X110725776Y-53685884D01*
X110663341Y-53531724D01*
X110385619Y-52802617D01*
X110116979Y-51946750D01*
X109866558Y-51007140D01*
X109643494Y-50026803D01*
X109456924Y-49048757D01*
X109315984Y-48116017D01*
X109229812Y-47271600D01*
X109206428Y-46672773D01*
X109198724Y-46271709D01*
X109163386Y-46038043D01*
X109082074Y-45957986D01*
X108936448Y-46017744D01*
X108708168Y-46203528D01*
X108650685Y-46254860D01*
X108338147Y-46517844D01*
X108002544Y-46773151D01*
X107798675Y-46912301D01*
X107569894Y-47075938D01*
X107422489Y-47218041D01*
X107392305Y-47278291D01*
X102668592Y-47278291D01*
X102475876Y-47204363D01*
X101697512Y-46744761D01*
X101007212Y-46168092D01*
X100418174Y-45489582D01*
X99943597Y-44724454D01*
X99596679Y-43887935D01*
X99390618Y-42995249D01*
X99339862Y-42084020D01*
X99918399Y-42084020D01*
X99967271Y-42935188D01*
X100164272Y-43772802D01*
X100512525Y-44576312D01*
X101015155Y-45325171D01*
X101364682Y-45712460D01*
X102088623Y-46310132D01*
X102916126Y-46766900D01*
X103823057Y-47070741D01*
X104262500Y-47156183D01*
X104618249Y-47177983D01*
X105076791Y-47162636D01*
X105564750Y-47116357D01*
X106008749Y-47045363D01*
X106239762Y-46988683D01*
X107087456Y-46643093D01*
X107850311Y-46153561D01*
X108448180Y-45600540D01*
X109633330Y-45600540D01*
X109689386Y-46702235D01*
X109858886Y-48529397D01*
X110176028Y-50310764D01*
X110634904Y-52021250D01*
X111229606Y-53635767D01*
X111428215Y-54085893D01*
X111636737Y-54501421D01*
X111816510Y-54750662D01*
X111989094Y-54841641D01*
X112176053Y-54782384D01*
X112398948Y-54580917D01*
X112487752Y-54480274D01*
X112708039Y-54188883D01*
X112996110Y-53756476D01*
X113339402Y-53204703D01*
X113725351Y-52555217D01*
X114141396Y-51829669D01*
X114574972Y-51049709D01*
X115013518Y-50236989D01*
X115444470Y-49413161D01*
X115568387Y-49171030D01*
X115897554Y-48521562D01*
X116150060Y-48014913D01*
X116333437Y-47633193D01*
X116455220Y-47358511D01*
X116522941Y-47172978D01*
X116544134Y-47058702D01*
X116526331Y-46997793D01*
X116492420Y-46976538D01*
X115960407Y-46759534D01*
X115403523Y-46466899D01*
X114866979Y-46128138D01*
X114395989Y-45772756D01*
X114035764Y-45430258D01*
X113936610Y-45308653D01*
X113599548Y-44995090D01*
X113140640Y-44774327D01*
X112597120Y-44651932D01*
X112006225Y-44633473D01*
X111405188Y-44724517D01*
X110975357Y-44865842D01*
X110606646Y-45034113D01*
X110235980Y-45226577D01*
X110032200Y-45346424D01*
X109633330Y-45600540D01*
X108448180Y-45600540D01*
X108512540Y-45541008D01*
X109058359Y-44826357D01*
X109471983Y-44030528D01*
X109737625Y-43174445D01*
X109839501Y-42279029D01*
X109840087Y-42216832D01*
X109797409Y-41698278D01*
X109679908Y-41100490D01*
X109506985Y-40499278D01*
X109298038Y-39970452D01*
X109231089Y-39836990D01*
X108924676Y-39376370D01*
X108501928Y-38891199D01*
X108012854Y-38429352D01*
X107507465Y-38038704D01*
X107100665Y-37797538D01*
X106191658Y-37446021D01*
X105276009Y-37274486D01*
X104361675Y-37282852D01*
X103456614Y-37471041D01*
X102568786Y-37838971D01*
X102560947Y-37843072D01*
X101786643Y-38344052D01*
X101141726Y-38954768D01*
X100629319Y-39654671D01*
X100252547Y-40423213D01*
X100014532Y-41239845D01*
X99918399Y-42084020D01*
X99339862Y-42084020D01*
X99338614Y-42061622D01*
X99453865Y-41102278D01*
X99455680Y-41093674D01*
X99742948Y-40149751D01*
X100175564Y-39297097D01*
X100736337Y-38546384D01*
X101408074Y-37908281D01*
X102173580Y-37393458D01*
X103015664Y-37012586D01*
X103917133Y-36776334D01*
X104860793Y-36695373D01*
X105829452Y-36780372D01*
X106257200Y-36872598D01*
X107170034Y-37197419D01*
X108005312Y-37677743D01*
X108747111Y-38298434D01*
X109379505Y-39044356D01*
X109886568Y-39900371D01*
X110170500Y-40592143D01*
X110250907Y-40880701D01*
X110302525Y-41210445D01*
X110330006Y-41626742D01*
X110338001Y-42174956D01*
X110337940Y-42225000D01*
X110322644Y-42847359D01*
X110270047Y-43358780D01*
X110165673Y-43828309D01*
X109995048Y-44324996D01*
X109800104Y-44790610D01*
X109796025Y-44856639D01*
X109886745Y-44850098D01*
X110094551Y-44764770D01*
X110365382Y-44632940D01*
X111069569Y-44333883D01*
X111730421Y-44175731D01*
X112402627Y-44146720D01*
X112574042Y-44157860D01*
X113182413Y-44208864D01*
X113010640Y-43820543D01*
X112732580Y-42983839D01*
X112595367Y-42078732D01*
X112599705Y-41336501D01*
X113159837Y-41336501D01*
X113175825Y-42237583D01*
X113358164Y-43116222D01*
X113703455Y-43951936D01*
X114208298Y-44724244D01*
X114566629Y-45128727D01*
X115297342Y-45748490D01*
X116102074Y-46206200D01*
X116965744Y-46497846D01*
X117873270Y-46619419D01*
X118809573Y-46566909D01*
X119457143Y-46429127D01*
X120281791Y-46110274D01*
X121032940Y-45642450D01*
X121693231Y-45048390D01*
X122245307Y-44350829D01*
X122671809Y-43572501D01*
X122955381Y-42736140D01*
X123078663Y-41864481D01*
X123082564Y-41680714D01*
X122994797Y-40778592D01*
X122741624Y-39914811D01*
X122338233Y-39110349D01*
X121799812Y-38386186D01*
X121141553Y-37763301D01*
X120378642Y-37262673D01*
X119655847Y-36947769D01*
X119010623Y-36793722D01*
X118277478Y-36728425D01*
X117526705Y-36751826D01*
X116828593Y-36863873D01*
X116530135Y-36950057D01*
X115672727Y-37337902D01*
X114913643Y-37873887D01*
X114266647Y-38545631D01*
X113745501Y-39340757D01*
X113640511Y-39548929D01*
X113313599Y-40433456D01*
X113159837Y-41336501D01*
X112599705Y-41336501D01*
X112600776Y-41153335D01*
X112750587Y-40255761D01*
X112864931Y-39875628D01*
X113272130Y-38968436D01*
X113817826Y-38166043D01*
X114485126Y-37480490D01*
X115257135Y-36923818D01*
X116116958Y-36508069D01*
X117047699Y-36245283D01*
X118032465Y-36147501D01*
X118096428Y-36147143D01*
X119098821Y-36228818D01*
G37*
G04 #@! TD.AperFunction*
X112505711Y-18611016D02*
X113226788Y-18642919D01*
X113826442Y-18691923D01*
X114014285Y-18715197D01*
X116054890Y-19088094D01*
X118019633Y-19622832D01*
X119903635Y-20317035D01*
X121702018Y-21168326D01*
X123409903Y-22174328D01*
X125022410Y-23332665D01*
X126534660Y-24640961D01*
X126894564Y-24989286D01*
X128248102Y-26452195D01*
X129445774Y-28007863D01*
X130487167Y-29655503D01*
X131371869Y-31394327D01*
X132099467Y-33223549D01*
X132669547Y-35142381D01*
X132986274Y-36600714D01*
X133067385Y-37157897D01*
X133134140Y-37851302D01*
X133185161Y-38636187D01*
X133219072Y-39467812D01*
X133234496Y-40301436D01*
X133230057Y-41092316D01*
X133204379Y-41795711D01*
X133162106Y-42315797D01*
X132851066Y-44294788D01*
X132374486Y-46200150D01*
X131730957Y-48035406D01*
X130919069Y-49804080D01*
X129937414Y-51509697D01*
X128874736Y-53037323D01*
X128613863Y-53385410D01*
X128451432Y-53614706D01*
X128374705Y-53749791D01*
X128370946Y-53815247D01*
X128427420Y-53835654D01*
X128460535Y-53836708D01*
X128641884Y-53885289D01*
X128931185Y-54015359D01*
X129287836Y-54204256D01*
X129671236Y-54429316D01*
X130040782Y-54667874D01*
X130344668Y-54888429D01*
X131003632Y-55497940D01*
X131629880Y-56253629D01*
X132201315Y-57120559D01*
X132695838Y-58063789D01*
X133091349Y-59048382D01*
X133207931Y-59415357D01*
X133341647Y-59931595D01*
X133419859Y-60413949D01*
X133455425Y-60952524D01*
X133460353Y-61184286D01*
X133458975Y-61609232D01*
X133445514Y-61989821D01*
X133422425Y-62274468D01*
X133403244Y-62384226D01*
X133368827Y-62554933D01*
X133431352Y-62603445D01*
X133598738Y-62578717D01*
X133736100Y-62573896D01*
X133917513Y-62616514D01*
X134169953Y-62717592D01*
X134520396Y-62888150D01*
X134995815Y-63139212D01*
X135074066Y-63181511D01*
X136073974Y-63748233D01*
X137092305Y-64371434D01*
X138075837Y-65016763D01*
X138971352Y-65649866D01*
X139392361Y-65968918D01*
X140234936Y-66626051D01*
X141162647Y-66229856D01*
X142811501Y-65605013D01*
X144435010Y-65151985D01*
X146051426Y-64866478D01*
X147442500Y-64751937D01*
X148887128Y-64762388D01*
X150217034Y-64913318D01*
X151432157Y-65204684D01*
X152532434Y-65636445D01*
X153517804Y-66208558D01*
X154388205Y-66920981D01*
X155143575Y-67773671D01*
X155783854Y-68766587D01*
X156308978Y-69899686D01*
X156696565Y-71088947D01*
X156965664Y-72391259D01*
X157079501Y-73701242D01*
X157041920Y-74998936D01*
X156856766Y-76264376D01*
X156527883Y-77477599D01*
X156059116Y-78618644D01*
X155454308Y-79667546D01*
X154905093Y-80391909D01*
X154166426Y-81135088D01*
X153305452Y-81789817D01*
X152365583Y-82328678D01*
X151390230Y-82724255D01*
X151058763Y-82821103D01*
X150740761Y-82909879D01*
X150494126Y-82988708D01*
X150369911Y-83041203D01*
X150367763Y-83042899D01*
X150363407Y-83146879D01*
X150395727Y-83396042D01*
X150459432Y-83759062D01*
X150549230Y-84204614D01*
X150614360Y-84502665D01*
X150920803Y-85963471D01*
X151187812Y-87451023D01*
X151418628Y-88991492D01*
X151616496Y-90611045D01*
X151784659Y-92335851D01*
X151926359Y-94192080D01*
X152030295Y-95927857D01*
X152043089Y-96248119D01*
X152056680Y-96737100D01*
X152070903Y-97382090D01*
X152085592Y-98170381D01*
X152100580Y-99089267D01*
X152115702Y-100126038D01*
X152130791Y-101267986D01*
X152145682Y-102502404D01*
X152160208Y-103816583D01*
X152174204Y-105197816D01*
X152187503Y-106633393D01*
X152199940Y-108110608D01*
X152211348Y-109616751D01*
X152213967Y-109988572D01*
X152224594Y-111470020D01*
X152235588Y-112906619D01*
X152246831Y-114287372D01*
X152258204Y-115601282D01*
X152269591Y-116837352D01*
X152280874Y-117984585D01*
X152291933Y-119031983D01*
X152302651Y-119968549D01*
X152312910Y-120783288D01*
X152322593Y-121465200D01*
X152331580Y-122003290D01*
X152339755Y-122386560D01*
X152346999Y-122604013D01*
X152349731Y-122643214D01*
X152400879Y-123096786D01*
X153595618Y-123105635D01*
X154173208Y-123117323D01*
X154633520Y-123147633D01*
X155040359Y-123204045D01*
X155457534Y-123294036D01*
X155670813Y-123348857D01*
X156886423Y-123749452D01*
X157969673Y-124267857D01*
X158917625Y-124901838D01*
X159727342Y-125649162D01*
X160395887Y-126507597D01*
X160824126Y-127266657D01*
X161118782Y-127927354D01*
X161313401Y-128497762D01*
X161420145Y-129030170D01*
X161451177Y-129576862D01*
X161439755Y-129913167D01*
X161318748Y-130650188D01*
X161049063Y-131283587D01*
X160629303Y-131815690D01*
X160058070Y-132248821D01*
X160024025Y-132268780D01*
X159812603Y-132381628D01*
X159615027Y-132454352D01*
X159381624Y-132496119D01*
X159062722Y-132516097D01*
X158645714Y-132523159D01*
X158138970Y-132517903D01*
X157746406Y-132486708D01*
X157401608Y-132421037D01*
X157058214Y-132319074D01*
X155900123Y-131845477D01*
X154755081Y-131206761D01*
X153650287Y-130418687D01*
X153344832Y-130167448D01*
X152749285Y-129662210D01*
X152749607Y-130053426D01*
X152755418Y-130282258D01*
X152771194Y-130648867D01*
X152794803Y-131110005D01*
X152824116Y-131622424D01*
X152838129Y-131850714D01*
X152889306Y-132703792D01*
X152945425Y-133704985D01*
X153004893Y-134821100D01*
X153066116Y-136018942D01*
X153127497Y-137265318D01*
X153187444Y-138527031D01*
X153244360Y-139770889D01*
X153296652Y-140963695D01*
X153342724Y-142072257D01*
X153380983Y-143063378D01*
X153393318Y-143407385D01*
X153414290Y-144141408D01*
X153430863Y-144999963D01*
X153443175Y-145961597D01*
X153451361Y-147004853D01*
X153455561Y-148108278D01*
X153455911Y-149250417D01*
X153452549Y-150409815D01*
X153445613Y-151565017D01*
X153435240Y-152694569D01*
X153421568Y-153777016D01*
X153404733Y-154790903D01*
X153384874Y-155714775D01*
X153362129Y-156527178D01*
X153336634Y-157206657D01*
X153308527Y-157731757D01*
X153300808Y-157840357D01*
X153108222Y-160008890D01*
X152871103Y-162015148D01*
X152585733Y-163873633D01*
X152248393Y-165598848D01*
X151855367Y-167205296D01*
X151402935Y-168707479D01*
X150887380Y-170119900D01*
X150304983Y-171457062D01*
X149652028Y-172733468D01*
X149343804Y-173275504D01*
X149148547Y-173601338D01*
X148875183Y-174047289D01*
X148543891Y-174580975D01*
X148174851Y-175170014D01*
X147788240Y-175782024D01*
X147486925Y-176255357D01*
X147037643Y-176962395D01*
X146611926Y-177639749D01*
X146220114Y-178270390D01*
X145872549Y-178837287D01*
X145579569Y-179323409D01*
X145351516Y-179711724D01*
X145198730Y-179985204D01*
X145131550Y-180126816D01*
X145129285Y-180138421D01*
X145201901Y-180202933D01*
X145391502Y-180326431D01*
X145634313Y-180469130D01*
X146034092Y-180740585D01*
X146489657Y-181123527D01*
X146958895Y-181576691D01*
X147399694Y-182058813D01*
X147769944Y-182528630D01*
X147841666Y-182632052D01*
X148351904Y-183485935D01*
X148776318Y-184390689D01*
X149105955Y-185314377D01*
X149331864Y-186225065D01*
X149445092Y-187090816D01*
X149436689Y-187879696D01*
X149395603Y-188175707D01*
X149173330Y-189029025D01*
X148846279Y-189734727D01*
X148413882Y-190293713D01*
X147875568Y-190706884D01*
X147751801Y-190773798D01*
X147179438Y-190984776D01*
X146505979Y-191103799D01*
X145791069Y-191123042D01*
X145378750Y-191085095D01*
X144866278Y-191001490D01*
X144446991Y-190898224D01*
X144042921Y-190750812D01*
X143576096Y-190534770D01*
X143489780Y-190491902D01*
X143137062Y-190307349D01*
X142811836Y-190115347D01*
X142495210Y-189899445D01*
X142168296Y-189643191D01*
X141812203Y-189330135D01*
X141408043Y-188943824D01*
X140936925Y-188467809D01*
X140379961Y-187885637D01*
X139850614Y-187322500D01*
X139134986Y-186567688D01*
X138529439Y-185951627D01*
X138030724Y-185471395D01*
X137635586Y-185124067D01*
X137340775Y-184906722D01*
X137143038Y-184816437D01*
X137068930Y-184822389D01*
X136907734Y-184905862D01*
X136653604Y-185039971D01*
X136466071Y-185139854D01*
X135369326Y-185685652D01*
X134238643Y-186164334D01*
X133046841Y-186584256D01*
X131766744Y-186953778D01*
X130371171Y-187281259D01*
X128832944Y-187575058D01*
X128211071Y-187678692D01*
X127772802Y-187749144D01*
X127188053Y-187843139D01*
X126489474Y-187955428D01*
X125709713Y-188080764D01*
X124881421Y-188213897D01*
X124037247Y-188349581D01*
X123403214Y-188451487D01*
X121880057Y-188694101D01*
X120509968Y-188907202D01*
X119267582Y-189094093D01*
X118127530Y-189258078D01*
X117064445Y-189402458D01*
X116052961Y-189530538D01*
X115067709Y-189645620D01*
X114083323Y-189751007D01*
X113074435Y-189850002D01*
X112015679Y-189945907D01*
X111746428Y-189969254D01*
X111017352Y-190021338D01*
X110165150Y-190064261D01*
X109216514Y-190098026D01*
X108198137Y-190122634D01*
X107136712Y-190138089D01*
X106058932Y-190144393D01*
X104991489Y-190141549D01*
X103961076Y-190129559D01*
X102994387Y-190108427D01*
X102118114Y-190078154D01*
X101358949Y-190038743D01*
X100743586Y-189990197D01*
X100543214Y-189968164D01*
X98733319Y-189712544D01*
X97070387Y-189403657D01*
X95525735Y-189033675D01*
X94070680Y-188594771D01*
X92676538Y-188079117D01*
X91314627Y-187478886D01*
X91173662Y-187411281D01*
X90678990Y-187167695D01*
X90210832Y-186928869D01*
X89807221Y-186714809D01*
X89506189Y-186545521D01*
X89387749Y-186471825D01*
X88988532Y-186202397D01*
X88342753Y-186511879D01*
X87986402Y-186691207D01*
X87617006Y-186896369D01*
X87212595Y-187141607D01*
X86751195Y-187441169D01*
X86210835Y-187809298D01*
X85569542Y-188260241D01*
X84845602Y-188779190D01*
X84030829Y-189358351D01*
X83331424Y-189835248D01*
X82723824Y-190224304D01*
X82184467Y-190539939D01*
X81689793Y-190796573D01*
X81216237Y-191008629D01*
X81175912Y-191025178D01*
X80804055Y-191164667D01*
X80474588Y-191252419D01*
X80115976Y-191302158D01*
X79656681Y-191327609D01*
X79588214Y-191329778D01*
X78971098Y-191327599D01*
X78501145Y-191280932D01*
X78298805Y-191232596D01*
X77701040Y-190964473D01*
X77093340Y-190561748D01*
X76520469Y-190062805D01*
X76027197Y-189506028D01*
X75695490Y-189000509D01*
X75468863Y-188408946D01*
X75375019Y-187746113D01*
X75406275Y-187259737D01*
X75944051Y-187259737D01*
X75956851Y-187918895D01*
X76116928Y-188582073D01*
X76416282Y-189211724D01*
X76724237Y-189635714D01*
X76997113Y-189953214D01*
X76944643Y-189539436D01*
X76943908Y-189006469D01*
X77053877Y-188400605D01*
X77261507Y-187781625D01*
X77388742Y-187503929D01*
X77640898Y-187102115D01*
X78004954Y-186649304D01*
X78438140Y-186189337D01*
X78897688Y-185766054D01*
X79340830Y-185423296D01*
X79542857Y-185295829D01*
X79913609Y-185103402D01*
X80166200Y-185022657D01*
X80322395Y-185049791D01*
X80392835Y-185147299D01*
X80365469Y-185257353D01*
X80205011Y-185415690D01*
X79897708Y-185635035D01*
X79790219Y-185704806D01*
X79202439Y-186131482D01*
X78656078Y-186622820D01*
X78189778Y-187139145D01*
X77842176Y-187640786D01*
X77766955Y-187782203D01*
X77539568Y-188446992D01*
X77454942Y-189214736D01*
X77497128Y-189947352D01*
X77542434Y-190237516D01*
X77613877Y-190410239D01*
X77753418Y-190528820D01*
X77950500Y-190631221D01*
X78666294Y-190885181D01*
X79434036Y-190975416D01*
X80268215Y-190903271D01*
X80464803Y-190865168D01*
X80957968Y-190736391D01*
X81459283Y-190552608D01*
X81987960Y-190302586D01*
X82563208Y-189975094D01*
X83204240Y-189558897D01*
X83930266Y-189042764D01*
X84760498Y-188415462D01*
X85081611Y-188165718D01*
X86009720Y-187460012D01*
X86842930Y-186869130D01*
X87573265Y-186398352D01*
X88192744Y-186052957D01*
X88467487Y-185925052D01*
X88770565Y-185792278D01*
X89014842Y-185678729D01*
X89138975Y-185613799D01*
X89114939Y-185529520D01*
X88978700Y-185338525D01*
X88748644Y-185060042D01*
X88443159Y-184713304D01*
X88080631Y-184317540D01*
X87679446Y-183891980D01*
X87257990Y-183455854D01*
X86834652Y-183028394D01*
X86427816Y-182628830D01*
X86055870Y-182276391D01*
X85737199Y-181990309D01*
X85490192Y-181789812D01*
X85465944Y-181772207D01*
X84752534Y-181347396D01*
X84043368Y-181097719D01*
X83338340Y-181017857D01*
X83000429Y-181033571D01*
X82709855Y-181094449D01*
X82391589Y-181221096D01*
X82134110Y-181348556D01*
X81051761Y-181947473D01*
X80031024Y-182591642D01*
X79087833Y-183267116D01*
X78238123Y-183959946D01*
X77497829Y-184656184D01*
X76882885Y-185341884D01*
X76409225Y-186003096D01*
X76092785Y-186625874D01*
X76086525Y-186642143D01*
X75944051Y-187259737D01*
X75406275Y-187259737D01*
X75418526Y-187069109D01*
X75510305Y-186686676D01*
X75801342Y-186014981D01*
X76257397Y-185309990D01*
X76867544Y-184582683D01*
X77620856Y-183844039D01*
X78506409Y-183105038D01*
X79513277Y-182376660D01*
X80310201Y-181863128D01*
X80655099Y-181646899D01*
X80934532Y-181463502D01*
X81117027Y-181334138D01*
X81172445Y-181282259D01*
X81117139Y-181198053D01*
X80963532Y-181005435D01*
X80733967Y-180731495D01*
X80450787Y-180403328D01*
X80396377Y-180341195D01*
X78820460Y-178442010D01*
X77418626Y-176528980D01*
X76184112Y-174586930D01*
X75110155Y-172600687D01*
X74189990Y-170555077D01*
X73416856Y-168434927D01*
X72783988Y-166225063D01*
X72284624Y-163910312D01*
X71912000Y-161475500D01*
X71883514Y-161242143D01*
X71787039Y-160371929D01*
X71709853Y-159523246D01*
X71650845Y-158666680D01*
X71608906Y-157772818D01*
X71582924Y-156812244D01*
X71571789Y-155755545D01*
X71574392Y-154573308D01*
X71587310Y-153395357D01*
X71599235Y-152612561D01*
X71612383Y-151899837D01*
X71627847Y-151235481D01*
X71646719Y-150597790D01*
X71670089Y-149965060D01*
X71699051Y-149315588D01*
X71734695Y-148627670D01*
X71778115Y-147879602D01*
X71830401Y-147049682D01*
X71892646Y-146116206D01*
X71965942Y-145057470D01*
X72051380Y-143851770D01*
X72105296Y-143099286D01*
X72200274Y-141734298D01*
X72278013Y-140511169D01*
X72339999Y-139391301D01*
X72387717Y-138336094D01*
X72422655Y-137306948D01*
X72446299Y-136265264D01*
X72460136Y-135172441D01*
X72465650Y-133989881D01*
X72465887Y-133735074D01*
X72467142Y-130494076D01*
X71990892Y-130952467D01*
X71598947Y-131292171D01*
X71088489Y-131679563D01*
X70504743Y-132084182D01*
X69892930Y-132475566D01*
X69298273Y-132823254D01*
X68911215Y-133026915D01*
X68177654Y-133340933D01*
X67527480Y-133510207D01*
X66939731Y-133538409D01*
X66473458Y-133454176D01*
X65957363Y-133226476D01*
X65544535Y-132887941D01*
X65264822Y-132466400D01*
X65190603Y-132258053D01*
X65082316Y-131972007D01*
X64939172Y-131831120D01*
X64882405Y-131810929D01*
X64664925Y-131696180D01*
X64399208Y-131473198D01*
X64130018Y-131189527D01*
X63902122Y-130892713D01*
X63760286Y-130630298D01*
X63754144Y-130612657D01*
X63663607Y-130060240D01*
X64116280Y-130060240D01*
X64242414Y-130521523D01*
X64540421Y-130948183D01*
X64709594Y-131111534D01*
X64952497Y-131309405D01*
X65110486Y-131379085D01*
X65224928Y-131322649D01*
X65336777Y-131142973D01*
X65517019Y-130885874D01*
X65789593Y-130604022D01*
X66118399Y-130323582D01*
X66467332Y-130070719D01*
X66800292Y-129871597D01*
X67081175Y-129752381D01*
X67273750Y-129739188D01*
X67386663Y-129843989D01*
X67353530Y-130002680D01*
X67188869Y-130184678D01*
X67002957Y-130309659D01*
X66642956Y-130546951D01*
X66278901Y-130844681D01*
X65960638Y-131157192D01*
X65738013Y-131438826D01*
X65701963Y-131501326D01*
X65579176Y-131890643D01*
X65630889Y-132239597D01*
X65822321Y-132509096D01*
X66216286Y-132804928D01*
X66660039Y-132966554D01*
X67200501Y-133009753D01*
X67301820Y-133006610D01*
X67622043Y-132978984D01*
X67916518Y-132915178D01*
X68242205Y-132797745D01*
X68656063Y-132609240D01*
X68753248Y-132562051D01*
X69689576Y-132065739D01*
X70515079Y-131537932D01*
X71299716Y-130931816D01*
X71671208Y-130609321D01*
X72462773Y-129900357D01*
X72421869Y-129220000D01*
X72405866Y-128910193D01*
X72386197Y-128461761D01*
X72364562Y-127917428D01*
X72342663Y-127319920D01*
X72322938Y-126734957D01*
X72264911Y-124930271D01*
X71345491Y-124983653D01*
X70194860Y-125138277D01*
X69046586Y-125461842D01*
X67924482Y-125943137D01*
X66852362Y-126570947D01*
X65854038Y-127334060D01*
X65341572Y-127810845D01*
X64774663Y-128439636D01*
X64381849Y-129022198D01*
X64162573Y-129561432D01*
X64116280Y-130060240D01*
X63663607Y-130060240D01*
X63662330Y-130052452D01*
X63736420Y-129458334D01*
X63966751Y-128842143D01*
X64343662Y-128215719D01*
X64857491Y-127590901D01*
X65498576Y-126979528D01*
X66257255Y-126393441D01*
X67123868Y-125844479D01*
X68031198Y-125371498D01*
X69053533Y-124952621D01*
X70053358Y-124680645D01*
X71089429Y-124540262D01*
X71265178Y-124528839D01*
X72195000Y-124476802D01*
X72194553Y-124013579D01*
X72189309Y-123840267D01*
X72174359Y-123503300D01*
X72150633Y-123020141D01*
X72119058Y-122408254D01*
X72080564Y-121685100D01*
X72036080Y-120868143D01*
X71986533Y-119974844D01*
X71932853Y-119022667D01*
X71880489Y-118107500D01*
X71819782Y-117051387D01*
X71758849Y-115986608D01*
X71699101Y-114938113D01*
X71641948Y-113930854D01*
X71588801Y-112989781D01*
X71541070Y-112139845D01*
X71500166Y-111405996D01*
X71467499Y-110813184D01*
X71452294Y-110532857D01*
X71424062Y-109896723D01*
X71399713Y-109125697D01*
X71379251Y-108241678D01*
X71362678Y-107266563D01*
X71349996Y-106222248D01*
X71341207Y-105130632D01*
X71336315Y-104013611D01*
X71335783Y-103413063D01*
X72286180Y-103413063D01*
X72288048Y-104468547D01*
X72294544Y-105450824D01*
X72306585Y-106385688D01*
X72325085Y-107298929D01*
X72350961Y-108216340D01*
X72385129Y-109163711D01*
X72428503Y-110166836D01*
X72482001Y-111251505D01*
X72546537Y-112443511D01*
X72623027Y-113768645D01*
X72698387Y-115023214D01*
X72825874Y-117125141D01*
X72941670Y-119060896D01*
X73045796Y-120845359D01*
X73138271Y-122493408D01*
X73219114Y-124019923D01*
X73288344Y-125439781D01*
X73345982Y-126767863D01*
X73392046Y-128019047D01*
X73426556Y-129208212D01*
X73449532Y-130350236D01*
X73460992Y-131460000D01*
X73460957Y-132552381D01*
X73449446Y-133642258D01*
X73426478Y-134744511D01*
X73392072Y-135874018D01*
X73346249Y-137045659D01*
X73289028Y-138274311D01*
X73220428Y-139574855D01*
X73140468Y-140962168D01*
X73049169Y-142451131D01*
X72946549Y-144056621D01*
X72832628Y-145793518D01*
X72740445Y-147181429D01*
X72613701Y-149223093D01*
X72517265Y-151102395D01*
X72451420Y-152835902D01*
X72416455Y-154440177D01*
X72412654Y-155931787D01*
X72440303Y-157327298D01*
X72499688Y-158643275D01*
X72591095Y-159896283D01*
X72714810Y-161102888D01*
X72871118Y-162279657D01*
X73016707Y-163192500D01*
X73504490Y-165509749D01*
X74168432Y-167788000D01*
X75006670Y-170023251D01*
X76017341Y-172211499D01*
X77198581Y-174348741D01*
X78548528Y-176430974D01*
X80065320Y-178454197D01*
X80194256Y-178613929D01*
X80547685Y-179044834D01*
X80906534Y-179474419D01*
X81234871Y-179860177D01*
X81496768Y-180159599D01*
X81557600Y-180226880D01*
X81800799Y-180488184D01*
X81964066Y-180637454D01*
X82089475Y-180696936D01*
X82219103Y-180688873D01*
X82355000Y-180648453D01*
X82731784Y-180577668D01*
X83214777Y-180558280D01*
X83737216Y-180586932D01*
X84232340Y-180660270D01*
X84598033Y-180761188D01*
X85011233Y-180956191D01*
X85476017Y-181254651D01*
X86003448Y-181665729D01*
X86604588Y-182198585D01*
X87290501Y-182862379D01*
X87943781Y-183531523D01*
X88378902Y-183981374D01*
X88791453Y-184398634D01*
X89158809Y-184761138D01*
X89458344Y-185046718D01*
X89667432Y-185233206D01*
X89730403Y-185281964D01*
X89958054Y-185470166D01*
X90123388Y-185663647D01*
X90149234Y-185710080D01*
X90272155Y-185834408D01*
X90537655Y-186011109D01*
X90919072Y-186227185D01*
X91389742Y-186469640D01*
X91923002Y-186725477D01*
X92492188Y-186981699D01*
X93070637Y-187225310D01*
X93631686Y-187443312D01*
X93908769Y-187542609D01*
X95037210Y-187909250D01*
X96166106Y-188224755D01*
X97326485Y-188495113D01*
X98549379Y-188726318D01*
X99865815Y-188924358D01*
X101306825Y-189095225D01*
X102584285Y-189217615D01*
X102766471Y-189224894D01*
X103107142Y-189230060D01*
X103583365Y-189233084D01*
X104172210Y-189233934D01*
X104850745Y-189232582D01*
X105596037Y-189228997D01*
X106385155Y-189223148D01*
X106439643Y-189222669D01*
X107642968Y-189207919D01*
X108695243Y-189185769D01*
X109626741Y-189155039D01*
X110467733Y-189114548D01*
X111248491Y-189063115D01*
X111882500Y-189010357D01*
X113607740Y-188844133D01*
X115268692Y-188664291D01*
X116911987Y-188464813D01*
X118584256Y-188239682D01*
X120332129Y-187982879D01*
X122202238Y-187688386D01*
X122496071Y-187640606D01*
X123893347Y-187412187D01*
X125124521Y-187210045D01*
X126202654Y-187031874D01*
X127140805Y-186875368D01*
X127952037Y-186738222D01*
X128649409Y-186618129D01*
X129245983Y-186512784D01*
X129754819Y-186419882D01*
X130188978Y-186337116D01*
X130561521Y-186262180D01*
X130885508Y-186192770D01*
X131174000Y-186126579D01*
X131435880Y-186062358D01*
X133052422Y-185589644D01*
X134521290Y-185026788D01*
X135260320Y-184681352D01*
X135619900Y-184496609D01*
X135874378Y-184342890D01*
X136069905Y-184178364D01*
X136252627Y-183961201D01*
X136370226Y-183791587D01*
X137331862Y-183791587D01*
X137360216Y-184031481D01*
X137488218Y-184273666D01*
X137728490Y-184556193D01*
X138093655Y-184917115D01*
X138109282Y-184932044D01*
X138362045Y-185184526D01*
X138703020Y-185541102D01*
X139101519Y-185968828D01*
X139526855Y-186434760D01*
X139948341Y-186905952D01*
X139955710Y-186914286D01*
X140704407Y-187742722D01*
X141369041Y-188434429D01*
X141967515Y-189002741D01*
X142517732Y-189460994D01*
X143037595Y-189822522D01*
X143545010Y-190100658D01*
X144057878Y-190308739D01*
X144594103Y-190460097D01*
X144766428Y-190497293D01*
X145392961Y-190597477D01*
X145935810Y-190618405D01*
X146473552Y-190561986D01*
X146587824Y-190541509D01*
X146873905Y-190475886D01*
X147086070Y-190406468D01*
X147154379Y-190368335D01*
X147181254Y-190234514D01*
X147158881Y-189967875D01*
X147095854Y-189607560D01*
X147000770Y-189192710D01*
X146882222Y-188762469D01*
X146748805Y-188355977D01*
X146664845Y-188138929D01*
X146342997Y-187477396D01*
X145920228Y-186771917D01*
X145439286Y-186089340D01*
X145051706Y-185616328D01*
X144797655Y-185323581D01*
X144652877Y-185130616D01*
X144603389Y-185004083D01*
X144635206Y-184910634D01*
X144721071Y-184827857D01*
X144806945Y-184773661D01*
X144896809Y-184775623D01*
X145013974Y-184852382D01*
X145181748Y-185022577D01*
X145423443Y-185304848D01*
X145627403Y-185552580D01*
X146231522Y-186381084D01*
X146757200Y-187281617D01*
X147183498Y-188210170D01*
X147489476Y-189122732D01*
X147624142Y-189749107D01*
X147676750Y-189967466D01*
X147740490Y-190083536D01*
X147755704Y-190089286D01*
X147887880Y-190017233D01*
X148079158Y-189827940D01*
X148298655Y-189561707D01*
X148515484Y-189258833D01*
X148698762Y-188959616D01*
X148817601Y-188704356D01*
X148818004Y-188703193D01*
X148958067Y-188062686D01*
X148982935Y-187319183D01*
X148899475Y-186503915D01*
X148714554Y-185648114D01*
X148435041Y-184783010D01*
X148067801Y-183939836D01*
X147619704Y-183149821D01*
X147585192Y-183096870D01*
X146928975Y-182233116D01*
X146194614Y-181508193D01*
X145396262Y-180928956D01*
X144548070Y-180502258D01*
X143664190Y-180234955D01*
X142758774Y-180133899D01*
X141845975Y-180205947D01*
X141682143Y-180237793D01*
X140949570Y-180449625D01*
X140213054Y-180764811D01*
X139502946Y-181161978D01*
X138849593Y-181619750D01*
X138283346Y-182116757D01*
X137834552Y-182631622D01*
X137533561Y-183142975D01*
X137523604Y-183166460D01*
X137390532Y-183515931D01*
X137331862Y-183791587D01*
X136370226Y-183791587D01*
X136468692Y-183649570D01*
X136573541Y-183490996D01*
X137305077Y-182509745D01*
X138122876Y-181647738D01*
X139008946Y-180918923D01*
X139945292Y-180337249D01*
X140913922Y-179916664D01*
X141356249Y-179783489D01*
X141787634Y-179706827D01*
X142322890Y-179662554D01*
X142893405Y-179651758D01*
X143430569Y-179675526D01*
X143865770Y-179734944D01*
X143902096Y-179743139D01*
X144126448Y-179792341D01*
X144254041Y-179812627D01*
X144264953Y-179810880D01*
X144321120Y-179667280D01*
X144459216Y-179396179D01*
X144664426Y-179023560D01*
X144921932Y-178575403D01*
X145216919Y-178077691D01*
X145534570Y-177556403D01*
X145723528Y-177253214D01*
X146102581Y-176650513D01*
X146534998Y-175963207D01*
X146977426Y-175260190D01*
X147386512Y-174610355D01*
X147550236Y-174350357D01*
X148263597Y-173185223D01*
X148869904Y-172118016D01*
X149384856Y-171113068D01*
X149824152Y-170134709D01*
X150203488Y-169147268D01*
X150538565Y-168115077D01*
X150845080Y-167002465D01*
X150925756Y-166680483D01*
X151269623Y-165190040D01*
X151569571Y-163686372D01*
X151826861Y-162153190D01*
X152042756Y-160574205D01*
X152218518Y-158933130D01*
X152355411Y-157213674D01*
X152454695Y-155399550D01*
X152517634Y-153474470D01*
X152545490Y-151422144D01*
X152539526Y-149226283D01*
X152501003Y-146870601D01*
X152491802Y-146473635D01*
X152471639Y-145642152D01*
X152452741Y-144884274D01*
X152434441Y-144184379D01*
X152416076Y-143526850D01*
X152396980Y-142896067D01*
X152376486Y-142276410D01*
X152353931Y-141652259D01*
X152328647Y-141007997D01*
X152299971Y-140328002D01*
X152267237Y-139596657D01*
X152229778Y-138798340D01*
X152186931Y-137917434D01*
X152138029Y-136938319D01*
X152082407Y-135845375D01*
X152019400Y-134622983D01*
X151948342Y-133255523D01*
X151868568Y-131727377D01*
X151841814Y-131215714D01*
X151758689Y-129623954D01*
X151684202Y-128186572D01*
X151617853Y-126884894D01*
X151559142Y-125700241D01*
X151507569Y-124613939D01*
X151480523Y-124008084D01*
X152454275Y-124008084D01*
X152456294Y-124402157D01*
X152473312Y-124957705D01*
X152505443Y-125681936D01*
X152535911Y-126273105D01*
X152672337Y-128811786D01*
X153141704Y-129295103D01*
X153888178Y-129994745D01*
X154681761Y-130613064D01*
X155501222Y-131140493D01*
X156325327Y-131567468D01*
X157132843Y-131884421D01*
X157902538Y-132081789D01*
X158613180Y-132150006D01*
X159243534Y-132079505D01*
X159293598Y-132066575D01*
X159432168Y-131958772D01*
X159515911Y-131714525D01*
X159550180Y-131315927D01*
X159551618Y-131203288D01*
X159468009Y-130764733D01*
X159231154Y-130317445D01*
X158865769Y-129887988D01*
X158396571Y-129502924D01*
X157848276Y-129188817D01*
X157569334Y-129072905D01*
X157222689Y-128931768D01*
X157032514Y-128811056D01*
X156978543Y-128690192D01*
X157040511Y-128548603D01*
X157045759Y-128541335D01*
X157112359Y-128465829D01*
X157194757Y-128437603D01*
X157328536Y-128464599D01*
X157549277Y-128554760D01*
X157892561Y-128716030D01*
X157948558Y-128742878D01*
X158688700Y-129162432D01*
X159269747Y-129631920D01*
X159686430Y-130144999D01*
X159933477Y-130695322D01*
X160006428Y-131220258D01*
X160023586Y-131506490D01*
X160082190Y-131633259D01*
X160192935Y-131599755D01*
X160366516Y-131405167D01*
X160525592Y-131180878D01*
X160805590Y-130683644D01*
X160956938Y-130180474D01*
X161002704Y-129594108D01*
X161002703Y-129582857D01*
X160925303Y-128873383D01*
X160708574Y-128119348D01*
X160373412Y-127361308D01*
X159940713Y-126639818D01*
X159431372Y-125995433D01*
X158894169Y-125490539D01*
X158184003Y-124998609D01*
X157376943Y-124557657D01*
X156510045Y-124180046D01*
X155620363Y-123878142D01*
X154744954Y-123664311D01*
X153920872Y-123550918D01*
X153185173Y-123550328D01*
X153104297Y-123558458D01*
X152805862Y-123600195D01*
X152578381Y-123646484D01*
X152494777Y-123675530D01*
X152467141Y-123768277D01*
X152454275Y-124008084D01*
X151480523Y-124008084D01*
X151462632Y-123607310D01*
X151423832Y-122661678D01*
X151390668Y-121758367D01*
X151362640Y-120878701D01*
X151339247Y-120004003D01*
X151319988Y-119115597D01*
X151304364Y-118194807D01*
X151291874Y-117222955D01*
X151282018Y-116181367D01*
X151274295Y-115051365D01*
X151268204Y-113814273D01*
X151263246Y-112451415D01*
X151258919Y-110944114D01*
X151254808Y-109308214D01*
X151249357Y-107392292D01*
X151242530Y-105645126D01*
X151233918Y-104054050D01*
X151223111Y-102606393D01*
X151209701Y-101289488D01*
X151193277Y-100090666D01*
X151173430Y-98997258D01*
X151149752Y-97996595D01*
X151121832Y-97076009D01*
X151089261Y-96222832D01*
X151051630Y-95424394D01*
X151008529Y-94668027D01*
X150959550Y-93941062D01*
X150904281Y-93230831D01*
X150842316Y-92524665D01*
X150773242Y-91809896D01*
X150696653Y-91073854D01*
X150652392Y-90666429D01*
X150289087Y-87943472D01*
X149813391Y-85357861D01*
X149225660Y-82910939D01*
X148526246Y-80604048D01*
X147715504Y-78438532D01*
X147026527Y-76891098D01*
X146789956Y-76415072D01*
X146553566Y-75971495D01*
X146338839Y-75598517D01*
X146167259Y-75334289D01*
X146106493Y-75257243D01*
X145915323Y-75017957D01*
X145678993Y-74685972D01*
X145443006Y-74325744D01*
X145401428Y-74258555D01*
X144702294Y-73146514D01*
X144044115Y-72168307D01*
X143399895Y-71289544D01*
X142742637Y-70475836D01*
X142045345Y-69692793D01*
X141281022Y-68906026D01*
X140930417Y-68563202D01*
X139501084Y-67291736D01*
X141034138Y-67291736D01*
X142069842Y-68342833D01*
X142725502Y-69021278D01*
X143282504Y-69629729D01*
X143781008Y-70215008D01*
X144261173Y-70823940D01*
X144669416Y-71373789D01*
X144981071Y-71786635D01*
X145215611Y-72055079D01*
X145388208Y-72190924D01*
X145514032Y-72205972D01*
X145608253Y-72112027D01*
X145611330Y-72106614D01*
X145864055Y-71764736D01*
X146220806Y-71418307D01*
X146616043Y-71127296D01*
X146785820Y-71031977D01*
X147116487Y-70892692D01*
X147446583Y-70821400D01*
X147862584Y-70800086D01*
X147899393Y-70800000D01*
X148571037Y-70878953D01*
X149158970Y-71100492D01*
X149653675Y-71441640D01*
X150045631Y-71879415D01*
X150325322Y-72390841D01*
X150483227Y-72952937D01*
X150509828Y-73542724D01*
X150395607Y-74137225D01*
X150131045Y-74713459D01*
X149731635Y-75223189D01*
X149295095Y-75568182D01*
X148775176Y-75822856D01*
X148239935Y-75957295D01*
X148031030Y-75970714D01*
X147673866Y-75970714D01*
X147997229Y-76673750D01*
X148448137Y-77708155D01*
X148897372Y-78837955D01*
X149312829Y-79979684D01*
X149587279Y-80807348D01*
X149982500Y-82060767D01*
X150371222Y-82010611D01*
X150647937Y-81950008D01*
X151014833Y-81837054D01*
X151397172Y-81695012D01*
X151434399Y-81679678D01*
X152468654Y-81154400D01*
X153391528Y-80490626D01*
X154196464Y-79697945D01*
X154876904Y-78785946D01*
X155426289Y-77764217D01*
X155838061Y-76642345D01*
X156105662Y-75429921D01*
X156188982Y-74728336D01*
X156214826Y-73507171D01*
X156089797Y-72319658D01*
X155822020Y-71182396D01*
X155419618Y-70111981D01*
X154890714Y-69125013D01*
X154243432Y-68238088D01*
X153485895Y-67467806D01*
X152626227Y-66830763D01*
X152206345Y-66591007D01*
X151128700Y-66129700D01*
X149959201Y-65819054D01*
X148706476Y-65658666D01*
X147379154Y-65648136D01*
X145985865Y-65787063D01*
X144535238Y-66075044D01*
X143035900Y-66511679D01*
X141516890Y-67087941D01*
X141034138Y-67291736D01*
X139501084Y-67291736D01*
X139406889Y-67207945D01*
X137740555Y-65940536D01*
X135955830Y-64778445D01*
X134477343Y-63945873D01*
X134060894Y-63720366D01*
X133701592Y-63513818D01*
X133430842Y-63345189D01*
X133280053Y-63233438D01*
X133261929Y-63212196D01*
X133196557Y-63168901D01*
X133110330Y-63268240D01*
X133018547Y-63452989D01*
X132673087Y-64007147D01*
X132195403Y-64453444D01*
X131604036Y-64784945D01*
X130917528Y-64994714D01*
X130154420Y-65075816D01*
X129333253Y-65021316D01*
X128990675Y-64959567D01*
X128372987Y-64798090D01*
X127786601Y-64576583D01*
X127212093Y-64281310D01*
X126630038Y-63898534D01*
X126021014Y-63414516D01*
X125365596Y-62815520D01*
X124644361Y-62087810D01*
X124087621Y-61491948D01*
X122914181Y-60212110D01*
X122478340Y-60252096D01*
X122220500Y-60260282D01*
X121832752Y-60253639D01*
X121365871Y-60233795D01*
X120870628Y-60202380D01*
X120827929Y-60199157D01*
X119613358Y-60106232D01*
X118287929Y-60546719D01*
X116343960Y-61103717D01*
X114398858Y-61481466D01*
X112444000Y-61680550D01*
X110470758Y-61701551D01*
X108470509Y-61545051D01*
X106953308Y-61312631D01*
X105743401Y-61089612D01*
X102107392Y-61548967D01*
X101312639Y-61647890D01*
X100571936Y-61737239D01*
X99905071Y-61814838D01*
X99331837Y-61878511D01*
X98872024Y-61926082D01*
X98545423Y-61955375D01*
X98371825Y-61964215D01*
X98350607Y-61961975D01*
X98238750Y-61995173D01*
X98005586Y-62116425D01*
X97678455Y-62309763D01*
X97284696Y-62559220D01*
X96968875Y-62768948D01*
X96165272Y-63298816D01*
X95473504Y-63720674D01*
X94868112Y-64045113D01*
X94323634Y-64282723D01*
X93814608Y-64444094D01*
X93315573Y-64539816D01*
X92801068Y-64580478D01*
X92605714Y-64583681D01*
X92175730Y-64578503D01*
X91863196Y-64552628D01*
X91604342Y-64493986D01*
X91335394Y-64390508D01*
X91159998Y-64310080D01*
X90576068Y-64034538D01*
X89617855Y-64501500D01*
X88060142Y-65336007D01*
X86494775Y-66321146D01*
X84960572Y-67432171D01*
X84698685Y-67637301D01*
X84098830Y-68140206D01*
X83427897Y-68749209D01*
X82724381Y-69425807D01*
X82026778Y-70131494D01*
X81373581Y-70827765D01*
X80803285Y-71476114D01*
X80539281Y-71797857D01*
X79236310Y-73570636D01*
X78048123Y-75465493D01*
X76973736Y-77485271D01*
X76012170Y-79632816D01*
X75162443Y-81910972D01*
X74423573Y-84322583D01*
X73794579Y-86870494D01*
X73274480Y-89557548D01*
X72862295Y-92386590D01*
X72605977Y-94793929D01*
X72515503Y-95878343D01*
X72441946Y-96946792D01*
X72384118Y-98031305D01*
X72340830Y-99163911D01*
X72310895Y-100376642D01*
X72293124Y-101701526D01*
X72286328Y-103170594D01*
X72286180Y-103413063D01*
X71335783Y-103413063D01*
X71335321Y-102893083D01*
X71338229Y-101790945D01*
X71345041Y-100729094D01*
X71355758Y-99729428D01*
X71370385Y-98813843D01*
X71388923Y-98004238D01*
X71411375Y-97322508D01*
X71437743Y-96790553D01*
X71450697Y-96608214D01*
X71603760Y-94940357D01*
X71792087Y-93264171D01*
X72010608Y-91613811D01*
X72254254Y-90023434D01*
X72517956Y-88527196D01*
X72796647Y-87159253D01*
X72954916Y-86472132D01*
X73059768Y-86021875D01*
X73142000Y-85637279D01*
X73195145Y-85351212D01*
X73212738Y-85196547D01*
X73209215Y-85179454D01*
X73097363Y-85150530D01*
X72873374Y-85134202D01*
X72781155Y-85132857D01*
X72447297Y-85102000D01*
X71997252Y-85018447D01*
X71483744Y-84895722D01*
X70959497Y-84747353D01*
X70477237Y-84586866D01*
X70161491Y-84460800D01*
X69119369Y-83902340D01*
X68171741Y-83204590D01*
X67326979Y-82385655D01*
X66593455Y-81463645D01*
X65979542Y-80456666D01*
X65493611Y-79382828D01*
X65144035Y-78260237D01*
X64939187Y-77107002D01*
X64914922Y-76560357D01*
X65731730Y-76560357D01*
X65756540Y-77336899D01*
X65851889Y-78010034D01*
X66033393Y-78649269D01*
X66316664Y-79324114D01*
X66383828Y-79463214D01*
X66887492Y-80324953D01*
X67519785Y-81142868D01*
X68256440Y-81899909D01*
X69073189Y-82579024D01*
X69945763Y-83163162D01*
X70849895Y-83635272D01*
X71761316Y-83978302D01*
X72655758Y-84175203D01*
X73147500Y-84215483D01*
X73510357Y-84225129D01*
X73994695Y-82705958D01*
X74200564Y-82080391D01*
X74437265Y-81393363D01*
X74680225Y-80714353D01*
X74904867Y-80112844D01*
X74981209Y-79916786D01*
X75159223Y-79466491D01*
X75314316Y-79073990D01*
X75433872Y-78771226D01*
X75505274Y-78590141D01*
X75518642Y-78556072D01*
X75454722Y-78509630D01*
X75228719Y-78489809D01*
X74906074Y-78495934D01*
X74273870Y-78471625D01*
X73738178Y-78321576D01*
X73250257Y-78028756D01*
X73025682Y-77838904D01*
X72589538Y-77336956D01*
X72318430Y-76774343D01*
X72202669Y-76128696D01*
X72196772Y-75925357D01*
X72268618Y-75254120D01*
X72490621Y-74675815D01*
X72872478Y-74168542D01*
X73048738Y-74001035D01*
X73616605Y-73616386D01*
X74247692Y-73395250D01*
X74917458Y-73342350D01*
X75601360Y-73462410D01*
X75693248Y-73492064D01*
X76010506Y-73648346D01*
X76355932Y-73893628D01*
X76685577Y-74187497D01*
X76955493Y-74489538D01*
X77121729Y-74759336D01*
X77144473Y-74826580D01*
X77226456Y-75020495D01*
X77320399Y-75045382D01*
X77406643Y-74896093D01*
X77406888Y-74895324D01*
X77507868Y-74678251D01*
X77704396Y-74342675D01*
X77979549Y-73912452D01*
X78316402Y-73411441D01*
X78698035Y-72863500D01*
X79107522Y-72292485D01*
X79527943Y-71722256D01*
X79942373Y-71176669D01*
X80333890Y-70679583D01*
X80685572Y-70254854D01*
X80757431Y-70171757D01*
X80989856Y-69892024D01*
X81166589Y-69653484D01*
X81259172Y-69495560D01*
X81266428Y-69466694D01*
X81200681Y-69315402D01*
X81028431Y-69092248D01*
X80787162Y-68835749D01*
X80514359Y-68584421D01*
X80247507Y-68376781D01*
X80137718Y-68306913D01*
X79490686Y-68015293D01*
X78696964Y-67796517D01*
X77777248Y-67653450D01*
X76752236Y-67588955D01*
X75642625Y-67605897D01*
X75250746Y-67630644D01*
X73812866Y-67808789D01*
X72491893Y-68121017D01*
X71278343Y-68571247D01*
X70162735Y-69163400D01*
X69135587Y-69901396D01*
X68591637Y-70383502D01*
X67703751Y-71338065D01*
X66974465Y-72357397D01*
X66408433Y-73431445D01*
X66010309Y-74550160D01*
X65784746Y-75703488D01*
X65731730Y-76560357D01*
X64914922Y-76560357D01*
X64887438Y-75941231D01*
X64997160Y-74781031D01*
X65229476Y-73793572D01*
X65632166Y-72767830D01*
X66197379Y-71764808D01*
X66906246Y-70803573D01*
X67739897Y-69903192D01*
X68679464Y-69082733D01*
X69706077Y-68361264D01*
X70800868Y-67757852D01*
X71505562Y-67451404D01*
X72211864Y-67196134D01*
X72881217Y-67003597D01*
X73557413Y-66866650D01*
X74284240Y-66778149D01*
X75105489Y-66730950D01*
X76001873Y-66717857D01*
X77146567Y-66739035D01*
X78132551Y-66805971D01*
X78977932Y-66923769D01*
X79700815Y-67097530D01*
X80319305Y-67332360D01*
X80851508Y-67633360D01*
X81315529Y-68005634D01*
X81594346Y-68294125D01*
X82029322Y-68787486D01*
X82713768Y-68145737D01*
X83842506Y-67156013D01*
X85086726Y-66187218D01*
X86397013Y-65273694D01*
X87723952Y-64449784D01*
X89018127Y-63749829D01*
X89090535Y-63714057D01*
X89384055Y-63562122D01*
X89600788Y-63435224D01*
X89700453Y-63357278D01*
X89702857Y-63350541D01*
X89648892Y-63252194D01*
X89509559Y-63063730D01*
X89371463Y-62893761D01*
X88922958Y-62242955D01*
X88654083Y-61570645D01*
X88573078Y-60940243D01*
X89143086Y-60940243D01*
X89271075Y-61633105D01*
X89575725Y-62332715D01*
X89710450Y-62556833D01*
X89927677Y-62882733D01*
X90069062Y-63050978D01*
X90148366Y-63061672D01*
X90179349Y-62914919D01*
X90175771Y-62610824D01*
X90173512Y-62560329D01*
X90227007Y-61785093D01*
X90458879Y-61027851D01*
X90866515Y-60294029D01*
X91447301Y-59589055D01*
X91743359Y-59301847D01*
X92129316Y-58972751D01*
X92519531Y-58680299D01*
X92883028Y-58443890D01*
X93188834Y-58282921D01*
X93405973Y-58216789D01*
X93466118Y-58222989D01*
X93590869Y-58322001D01*
X93559524Y-58468389D01*
X93367974Y-58668069D01*
X93012108Y-58926955D01*
X92947727Y-58969045D01*
X92218996Y-59512836D01*
X91601063Y-60121947D01*
X91122666Y-60766144D01*
X90960511Y-61059544D01*
X90803794Y-61397829D01*
X90714316Y-61668714D01*
X90675325Y-61950149D01*
X90670071Y-62320082D01*
X90671462Y-62404620D01*
X90681765Y-62781569D01*
X90696493Y-63113290D01*
X90712762Y-63337319D01*
X90715637Y-63361429D01*
X90836896Y-63621132D01*
X91106183Y-63834977D01*
X91495045Y-63999166D01*
X91975025Y-64109905D01*
X92517669Y-64163399D01*
X93094520Y-64155852D01*
X93677123Y-64083469D01*
X94237023Y-63942456D01*
X94460832Y-63860938D01*
X94754605Y-63739109D01*
X95028138Y-63615924D01*
X95297854Y-63480425D01*
X95580176Y-63321654D01*
X95891530Y-63128654D01*
X96248340Y-62890466D01*
X96667029Y-62596133D01*
X97164022Y-62234697D01*
X97755743Y-61795200D01*
X98458615Y-61266684D01*
X98917861Y-60919133D01*
X99636071Y-60919133D01*
X99953571Y-60875540D01*
X100146527Y-60850116D01*
X100483032Y-60806880D01*
X100926603Y-60750473D01*
X101440754Y-60685539D01*
X101881314Y-60630204D01*
X102393807Y-60563527D01*
X102834313Y-60501480D01*
X103175281Y-60448337D01*
X103389164Y-60408374D01*
X103449924Y-60386829D01*
X103353167Y-60335986D01*
X103133299Y-60236461D01*
X102835508Y-60107341D01*
X102504978Y-59967710D01*
X102186897Y-59836657D01*
X101926451Y-59733267D01*
X101768826Y-59676626D01*
X101767857Y-59676341D01*
X101643343Y-59706456D01*
X101404290Y-59814871D01*
X101088002Y-59980595D01*
X100731789Y-60182638D01*
X100372957Y-60400010D01*
X100048813Y-60611719D01*
X99847352Y-60756888D01*
X99636071Y-60919133D01*
X98917861Y-60919133D01*
X99273214Y-60650208D01*
X99779539Y-60285448D01*
X100326645Y-59923834D01*
X100879587Y-59585649D01*
X101403422Y-59291173D01*
X101863205Y-59060688D01*
X102223991Y-58914475D01*
X102304448Y-58890902D01*
X102363638Y-58865112D01*
X102381678Y-58816270D01*
X102346381Y-58729081D01*
X102245562Y-58588251D01*
X102067035Y-58378483D01*
X101798612Y-58084482D01*
X101428107Y-57690953D01*
X100943733Y-57183016D01*
X100340560Y-56556694D01*
X99839685Y-56048400D01*
X99421826Y-55641496D01*
X99067700Y-55319347D01*
X98758026Y-55065314D01*
X98473520Y-54862763D01*
X98194899Y-54695056D01*
X97902883Y-54545556D01*
X97867143Y-54528577D01*
X97495622Y-54370357D01*
X97172370Y-54284694D01*
X96804591Y-54251089D01*
X96594550Y-54247467D01*
X96298327Y-54249950D01*
X96067106Y-54270225D01*
X95854538Y-54323256D01*
X95614275Y-54424011D01*
X95299967Y-54587455D01*
X94961693Y-54774727D01*
X93730236Y-55506381D01*
X92620428Y-56256878D01*
X91642702Y-57017123D01*
X90807490Y-57778020D01*
X90125225Y-58530475D01*
X89606341Y-59265393D01*
X89420131Y-59605685D01*
X89192517Y-60261861D01*
X89143086Y-60940243D01*
X88573078Y-60940243D01*
X88564874Y-60876403D01*
X88655370Y-60159804D01*
X88925607Y-59420419D01*
X89375624Y-58657823D01*
X89791523Y-58117222D01*
X90386721Y-57483930D01*
X91138411Y-56810454D01*
X92029687Y-56109983D01*
X93043642Y-55395710D01*
X94163369Y-54680823D01*
X94309501Y-54592335D01*
X94607216Y-54413106D01*
X94005364Y-53693875D01*
X93200499Y-52650375D01*
X92415645Y-51478213D01*
X91681217Y-50229856D01*
X91027632Y-48957774D01*
X90485304Y-47714432D01*
X90380630Y-47441072D01*
X90114576Y-46654895D01*
X89853076Y-45751643D01*
X89612423Y-44795289D01*
X89408910Y-43849804D01*
X89279920Y-43119426D01*
X89202637Y-42462726D01*
X89149260Y-41674360D01*
X89119791Y-40802511D01*
X89114228Y-39895359D01*
X89115701Y-39823525D01*
X90650652Y-39823525D01*
X90659709Y-40787290D01*
X90701314Y-41723437D01*
X90775085Y-42580513D01*
X90866618Y-43230223D01*
X91125582Y-44515545D01*
X91431531Y-45687139D01*
X91801709Y-46810252D01*
X91840902Y-46916956D01*
X92008611Y-47340979D01*
X92221020Y-47835474D01*
X92460738Y-48364196D01*
X92710373Y-48890901D01*
X92952534Y-49379343D01*
X93169831Y-49793279D01*
X93344873Y-50096464D01*
X93418838Y-50205522D01*
X93544685Y-50355367D01*
X93638415Y-50370352D01*
X93777736Y-50260027D01*
X93787861Y-50250879D01*
X94048795Y-49920750D01*
X94292130Y-49423666D01*
X94511863Y-48773729D01*
X94651291Y-48222592D01*
X94873990Y-47102288D01*
X95031546Y-46001253D01*
X95122810Y-44897864D01*
X95146631Y-43770499D01*
X95101859Y-42597538D01*
X94987344Y-41357357D01*
X94801936Y-40028336D01*
X94544485Y-38588852D01*
X94213841Y-37017284D01*
X94007489Y-36118985D01*
X93867567Y-35518245D01*
X93767944Y-35069055D01*
X93705074Y-34746913D01*
X93675410Y-34527319D01*
X93675407Y-34385770D01*
X93701518Y-34297767D01*
X93737160Y-34251105D01*
X93877070Y-34165974D01*
X93976821Y-34216250D01*
X94034960Y-34342114D01*
X94124267Y-34623478D01*
X94239235Y-35038159D01*
X94374360Y-35563977D01*
X94524134Y-36178747D01*
X94683050Y-36860287D01*
X94845604Y-37586415D01*
X95006287Y-38334947D01*
X95043732Y-38514359D01*
X95313815Y-39935396D01*
X95505136Y-41232311D01*
X95620444Y-42443066D01*
X95662493Y-43605626D01*
X95634032Y-44757953D01*
X95563482Y-45686251D01*
X95428720Y-46873909D01*
X95269673Y-47890156D01*
X95083775Y-48743709D01*
X94868458Y-49443281D01*
X94621154Y-49997588D01*
X94339297Y-50415343D01*
X94102564Y-50645171D01*
X93944816Y-50787976D01*
X93875834Y-50887499D01*
X93875714Y-50889750D01*
X93930033Y-51007214D01*
X94079562Y-51237474D01*
X94304156Y-51553290D01*
X94583674Y-51927421D01*
X94897971Y-52332629D01*
X95226905Y-52741672D01*
X95395671Y-52945207D01*
X96067310Y-53745714D01*
X96561874Y-53745714D01*
X97152379Y-53813837D01*
X97793552Y-54004660D01*
X98424429Y-54297864D01*
X98678676Y-54451218D01*
X98872198Y-54600545D01*
X99170616Y-54860407D01*
X99552702Y-55210920D01*
X99997229Y-55632199D01*
X100482968Y-56104360D01*
X100988693Y-56607519D01*
X101092345Y-56712121D01*
X101576103Y-57197993D01*
X102021993Y-57639081D01*
X102413371Y-58019451D01*
X102733594Y-58323173D01*
X102966021Y-58534314D01*
X103094008Y-58636942D01*
X103110738Y-58644286D01*
X103229756Y-58642941D01*
X103241964Y-58642346D01*
X103331339Y-58670388D01*
X103550822Y-58746973D01*
X103860253Y-58857979D01*
X104007926Y-58911671D01*
X105345050Y-59342900D01*
X106775146Y-59701821D01*
X108217962Y-59970069D01*
X109161071Y-60090874D01*
X109727339Y-60129496D01*
X110424453Y-60147216D01*
X111203191Y-60145310D01*
X112014333Y-60125052D01*
X112808656Y-60087715D01*
X113536938Y-60034573D01*
X114149958Y-59966902D01*
X114194782Y-59960577D01*
X114710600Y-59874960D01*
X115320720Y-59756372D01*
X115944860Y-59621220D01*
X116447952Y-59500078D01*
X116962133Y-59357507D01*
X117431361Y-59212091D01*
X117521270Y-59184228D01*
X118095164Y-58991562D01*
X118653618Y-58790833D01*
X119166432Y-58593363D01*
X119603410Y-58410475D01*
X119934352Y-58253493D01*
X120129061Y-58133737D01*
X120152957Y-58110892D01*
X120257536Y-57971969D01*
X120390293Y-57780762D01*
X120999285Y-57780762D01*
X121066957Y-57886602D01*
X121246308Y-58064201D01*
X121501848Y-58279221D01*
X121566250Y-58329273D01*
X121822491Y-58548522D01*
X122161092Y-58871408D01*
X122547263Y-59263033D01*
X122946216Y-59688496D01*
X123176428Y-59944566D01*
X123991241Y-60855773D01*
X124710787Y-61633539D01*
X125348998Y-62289312D01*
X125919806Y-62834537D01*
X126437143Y-63280661D01*
X126914939Y-63639131D01*
X127367126Y-63921393D01*
X127807635Y-64138894D01*
X128250398Y-64303079D01*
X128598662Y-64399655D01*
X129106233Y-64486141D01*
X129680080Y-64526564D01*
X130246942Y-64519635D01*
X130733558Y-64464065D01*
X130846972Y-64439231D01*
X131049523Y-64383526D01*
X131173572Y-64315773D01*
X131228366Y-64200032D01*
X131223152Y-64000359D01*
X131167177Y-63680814D01*
X131111738Y-63410127D01*
X130848451Y-62494875D01*
X130441242Y-61555003D01*
X129913816Y-60635295D01*
X129289881Y-59780538D01*
X129032687Y-59482380D01*
X128776951Y-59161742D01*
X128663292Y-58925414D01*
X128693467Y-58780773D01*
X128854466Y-58735000D01*
X129007415Y-58808114D01*
X129238342Y-59013581D01*
X129527981Y-59330586D01*
X129857067Y-59738314D01*
X130146472Y-60130869D01*
X130801987Y-61209095D01*
X131308301Y-62376866D01*
X131652521Y-63603991D01*
X131672810Y-63704539D01*
X131748928Y-64093007D01*
X132085012Y-63814703D01*
X132315432Y-63568763D01*
X132557050Y-63222273D01*
X132720012Y-62929198D01*
X132858459Y-62635080D01*
X132945509Y-62395659D01*
X132992486Y-62152033D01*
X133010713Y-61845300D01*
X133011513Y-61416555D01*
X133011484Y-61412963D01*
X132924641Y-60356601D01*
X132690563Y-59319158D01*
X132322898Y-58320457D01*
X131835297Y-57380320D01*
X131241408Y-56518568D01*
X130554883Y-55755024D01*
X129789371Y-55109508D01*
X128958521Y-54601842D01*
X128081213Y-54253383D01*
X127608214Y-54160933D01*
X127028435Y-54116910D01*
X126409950Y-54121334D01*
X125820832Y-54174226D01*
X125412022Y-54252583D01*
X124637601Y-54523372D01*
X123842213Y-54929935D01*
X123078343Y-55442151D01*
X122520762Y-55911922D01*
X122150502Y-56277354D01*
X121796029Y-56659263D01*
X121480508Y-57029195D01*
X121227104Y-57358696D01*
X121058981Y-57619314D01*
X120999285Y-57780762D01*
X120390293Y-57780762D01*
X120430199Y-57723287D01*
X120641321Y-57407954D01*
X120747711Y-57245439D01*
X121435431Y-56327745D01*
X122230815Y-55513247D01*
X123110881Y-54818190D01*
X124052645Y-54258821D01*
X125033124Y-53851386D01*
X125843906Y-53643155D01*
X126149889Y-53581328D01*
X126365811Y-53509675D01*
X126544327Y-53395207D01*
X126738090Y-53204932D01*
X126975348Y-52934259D01*
X127480640Y-52312858D01*
X128010400Y-51603345D01*
X128514702Y-50875350D01*
X128943622Y-50198507D01*
X128975949Y-50143961D01*
X129360758Y-49490422D01*
X128800235Y-48828604D01*
X128076338Y-47863212D01*
X127473883Y-46813874D01*
X126985587Y-45663012D01*
X126604164Y-44393049D01*
X126322331Y-42986408D01*
X126289187Y-42769286D01*
X126228048Y-42217540D01*
X126182347Y-41523046D01*
X126152312Y-40723845D01*
X126138170Y-39857978D01*
X126140148Y-38963486D01*
X126158474Y-38078411D01*
X126193375Y-37240794D01*
X126245080Y-36488675D01*
X126251214Y-36419286D01*
X126303561Y-35857510D01*
X126347367Y-35451451D01*
X126388677Y-35175982D01*
X126433533Y-35005978D01*
X126487978Y-34916314D01*
X126558056Y-34881864D01*
X126622125Y-34877143D01*
X126737253Y-34894372D01*
X126804745Y-34967459D01*
X126830557Y-35128504D01*
X126820648Y-35409605D01*
X126788120Y-35771620D01*
X126760990Y-36090041D01*
X126728305Y-36545216D01*
X126692955Y-37092668D01*
X126657832Y-37687919D01*
X126629969Y-38204978D01*
X126587605Y-39936243D01*
X126646622Y-41524874D01*
X126808437Y-42979644D01*
X127074467Y-44309326D01*
X127446131Y-45522692D01*
X127924846Y-46628515D01*
X128021024Y-46814060D01*
X128255860Y-47226113D01*
X128521134Y-47644137D01*
X128797412Y-48042903D01*
X129065259Y-48397182D01*
X129305241Y-48681747D01*
X129497923Y-48871369D01*
X129623871Y-48940820D01*
X129650832Y-48929742D01*
X129724709Y-48800337D01*
X129847397Y-48538175D01*
X130003561Y-48180209D01*
X130177865Y-47763391D01*
X130354972Y-47324676D01*
X130519548Y-46901014D01*
X130656255Y-46529360D01*
X130701607Y-46397857D01*
X131095677Y-45094968D01*
X131383944Y-43832798D01*
X131573454Y-42562020D01*
X131671250Y-41233305D01*
X131684377Y-39797327D01*
X131679067Y-39553371D01*
X131639522Y-38554288D01*
X131570687Y-37678504D01*
X131464293Y-36869116D01*
X131312072Y-36069216D01*
X131105755Y-35221899D01*
X130986431Y-34786429D01*
X130398049Y-33029716D01*
X129646675Y-31342481D01*
X128740706Y-29734679D01*
X127688538Y-28216267D01*
X126498565Y-26797198D01*
X125179184Y-25487429D01*
X123738790Y-24296914D01*
X122185780Y-23235611D01*
X120528547Y-22313473D01*
X120424176Y-22261901D01*
X118754552Y-21520821D01*
X117091159Y-20944210D01*
X115400889Y-20523769D01*
X113650636Y-20251199D01*
X111882500Y-20120918D01*
X109950241Y-20137548D01*
X108046177Y-20330592D01*
X106180460Y-20695935D01*
X104363246Y-21229461D01*
X102604689Y-21927055D01*
X100914943Y-22784601D01*
X99304163Y-23797985D01*
X97782502Y-24963090D01*
X96360116Y-26275802D01*
X96141083Y-26500657D01*
X94886171Y-27934374D01*
X93789513Y-29456069D01*
X92850648Y-31066674D01*
X92069117Y-32767121D01*
X91444462Y-34558340D01*
X90976222Y-36441263D01*
X90822571Y-37281072D01*
X90731702Y-38018961D01*
X90674522Y-38883597D01*
X90650652Y-39823525D01*
X89115701Y-39823525D01*
X89132571Y-39001086D01*
X89174821Y-38167873D01*
X89240978Y-37443902D01*
X89279920Y-37157717D01*
X89675287Y-35176630D01*
X90233492Y-33275371D01*
X90953697Y-31455547D01*
X91835065Y-29718768D01*
X92876757Y-28066642D01*
X94077936Y-26500778D01*
X95437764Y-25022786D01*
X95768925Y-24699232D01*
X97266035Y-23388884D01*
X98866000Y-22226695D01*
X100563225Y-21215374D01*
X102352115Y-20357633D01*
X104227075Y-19656181D01*
X106182512Y-19113730D01*
X108027143Y-18760568D01*
X108577592Y-18696674D01*
X109263522Y-18647935D01*
X110042117Y-18614675D01*
X110870558Y-18597219D01*
X111706029Y-18595891D01*
X112505711Y-18611016D01*
G04 #@! TA.AperFunction,EtchedComponent*
G36*
X112505711Y-18611016D02*
G01*
X113226788Y-18642919D01*
X113826442Y-18691923D01*
X114014285Y-18715197D01*
X116054890Y-19088094D01*
X118019633Y-19622832D01*
X119903635Y-20317035D01*
X121702018Y-21168326D01*
X123409903Y-22174328D01*
X125022410Y-23332665D01*
X126534660Y-24640961D01*
X126894564Y-24989286D01*
X128248102Y-26452195D01*
X129445774Y-28007863D01*
X130487167Y-29655503D01*
X131371869Y-31394327D01*
X132099467Y-33223549D01*
X132669547Y-35142381D01*
X132986274Y-36600714D01*
X133067385Y-37157897D01*
X133134140Y-37851302D01*
X133185161Y-38636187D01*
X133219072Y-39467812D01*
X133234496Y-40301436D01*
X133230057Y-41092316D01*
X133204379Y-41795711D01*
X133162106Y-42315797D01*
X132851066Y-44294788D01*
X132374486Y-46200150D01*
X131730957Y-48035406D01*
X130919069Y-49804080D01*
X129937414Y-51509697D01*
X128874736Y-53037323D01*
X128613863Y-53385410D01*
X128451432Y-53614706D01*
X128374705Y-53749791D01*
X128370946Y-53815247D01*
X128427420Y-53835654D01*
X128460535Y-53836708D01*
X128641884Y-53885289D01*
X128931185Y-54015359D01*
X129287836Y-54204256D01*
X129671236Y-54429316D01*
X130040782Y-54667874D01*
X130344668Y-54888429D01*
X131003632Y-55497940D01*
X131629880Y-56253629D01*
X132201315Y-57120559D01*
X132695838Y-58063789D01*
X133091349Y-59048382D01*
X133207931Y-59415357D01*
X133341647Y-59931595D01*
X133419859Y-60413949D01*
X133455425Y-60952524D01*
X133460353Y-61184286D01*
X133458975Y-61609232D01*
X133445514Y-61989821D01*
X133422425Y-62274468D01*
X133403244Y-62384226D01*
X133368827Y-62554933D01*
X133431352Y-62603445D01*
X133598738Y-62578717D01*
X133736100Y-62573896D01*
X133917513Y-62616514D01*
X134169953Y-62717592D01*
X134520396Y-62888150D01*
X134995815Y-63139212D01*
X135074066Y-63181511D01*
X136073974Y-63748233D01*
X137092305Y-64371434D01*
X138075837Y-65016763D01*
X138971352Y-65649866D01*
X139392361Y-65968918D01*
X140234936Y-66626051D01*
X141162647Y-66229856D01*
X142811501Y-65605013D01*
X144435010Y-65151985D01*
X146051426Y-64866478D01*
X147442500Y-64751937D01*
X148887128Y-64762388D01*
X150217034Y-64913318D01*
X151432157Y-65204684D01*
X152532434Y-65636445D01*
X153517804Y-66208558D01*
X154388205Y-66920981D01*
X155143575Y-67773671D01*
X155783854Y-68766587D01*
X156308978Y-69899686D01*
X156696565Y-71088947D01*
X156965664Y-72391259D01*
X157079501Y-73701242D01*
X157041920Y-74998936D01*
X156856766Y-76264376D01*
X156527883Y-77477599D01*
X156059116Y-78618644D01*
X155454308Y-79667546D01*
X154905093Y-80391909D01*
X154166426Y-81135088D01*
X153305452Y-81789817D01*
X152365583Y-82328678D01*
X151390230Y-82724255D01*
X151058763Y-82821103D01*
X150740761Y-82909879D01*
X150494126Y-82988708D01*
X150369911Y-83041203D01*
X150367763Y-83042899D01*
X150363407Y-83146879D01*
X150395727Y-83396042D01*
X150459432Y-83759062D01*
X150549230Y-84204614D01*
X150614360Y-84502665D01*
X150920803Y-85963471D01*
X151187812Y-87451023D01*
X151418628Y-88991492D01*
X151616496Y-90611045D01*
X151784659Y-92335851D01*
X151926359Y-94192080D01*
X152030295Y-95927857D01*
X152043089Y-96248119D01*
X152056680Y-96737100D01*
X152070903Y-97382090D01*
X152085592Y-98170381D01*
X152100580Y-99089267D01*
X152115702Y-100126038D01*
X152130791Y-101267986D01*
X152145682Y-102502404D01*
X152160208Y-103816583D01*
X152174204Y-105197816D01*
X152187503Y-106633393D01*
X152199940Y-108110608D01*
X152211348Y-109616751D01*
X152213967Y-109988572D01*
X152224594Y-111470020D01*
X152235588Y-112906619D01*
X152246831Y-114287372D01*
X152258204Y-115601282D01*
X152269591Y-116837352D01*
X152280874Y-117984585D01*
X152291933Y-119031983D01*
X152302651Y-119968549D01*
X152312910Y-120783288D01*
X152322593Y-121465200D01*
X152331580Y-122003290D01*
X152339755Y-122386560D01*
X152346999Y-122604013D01*
X152349731Y-122643214D01*
X152400879Y-123096786D01*
X153595618Y-123105635D01*
X154173208Y-123117323D01*
X154633520Y-123147633D01*
X155040359Y-123204045D01*
X155457534Y-123294036D01*
X155670813Y-123348857D01*
X156886423Y-123749452D01*
X157969673Y-124267857D01*
X158917625Y-124901838D01*
X159727342Y-125649162D01*
X160395887Y-126507597D01*
X160824126Y-127266657D01*
X161118782Y-127927354D01*
X161313401Y-128497762D01*
X161420145Y-129030170D01*
X161451177Y-129576862D01*
X161439755Y-129913167D01*
X161318748Y-130650188D01*
X161049063Y-131283587D01*
X160629303Y-131815690D01*
X160058070Y-132248821D01*
X160024025Y-132268780D01*
X159812603Y-132381628D01*
X159615027Y-132454352D01*
X159381624Y-132496119D01*
X159062722Y-132516097D01*
X158645714Y-132523159D01*
X158138970Y-132517903D01*
X157746406Y-132486708D01*
X157401608Y-132421037D01*
X157058214Y-132319074D01*
X155900123Y-131845477D01*
X154755081Y-131206761D01*
X153650287Y-130418687D01*
X153344832Y-130167448D01*
X152749285Y-129662210D01*
X152749607Y-130053426D01*
X152755418Y-130282258D01*
X152771194Y-130648867D01*
X152794803Y-131110005D01*
X152824116Y-131622424D01*
X152838129Y-131850714D01*
X152889306Y-132703792D01*
X152945425Y-133704985D01*
X153004893Y-134821100D01*
X153066116Y-136018942D01*
X153127497Y-137265318D01*
X153187444Y-138527031D01*
X153244360Y-139770889D01*
X153296652Y-140963695D01*
X153342724Y-142072257D01*
X153380983Y-143063378D01*
X153393318Y-143407385D01*
X153414290Y-144141408D01*
X153430863Y-144999963D01*
X153443175Y-145961597D01*
X153451361Y-147004853D01*
X153455561Y-148108278D01*
X153455911Y-149250417D01*
X153452549Y-150409815D01*
X153445613Y-151565017D01*
X153435240Y-152694569D01*
X153421568Y-153777016D01*
X153404733Y-154790903D01*
X153384874Y-155714775D01*
X153362129Y-156527178D01*
X153336634Y-157206657D01*
X153308527Y-157731757D01*
X153300808Y-157840357D01*
X153108222Y-160008890D01*
X152871103Y-162015148D01*
X152585733Y-163873633D01*
X152248393Y-165598848D01*
X151855367Y-167205296D01*
X151402935Y-168707479D01*
X150887380Y-170119900D01*
X150304983Y-171457062D01*
X149652028Y-172733468D01*
X149343804Y-173275504D01*
X149148547Y-173601338D01*
X148875183Y-174047289D01*
X148543891Y-174580975D01*
X148174851Y-175170014D01*
X147788240Y-175782024D01*
X147486925Y-176255357D01*
X147037643Y-176962395D01*
X146611926Y-177639749D01*
X146220114Y-178270390D01*
X145872549Y-178837287D01*
X145579569Y-179323409D01*
X145351516Y-179711724D01*
X145198730Y-179985204D01*
X145131550Y-180126816D01*
X145129285Y-180138421D01*
X145201901Y-180202933D01*
X145391502Y-180326431D01*
X145634313Y-180469130D01*
X146034092Y-180740585D01*
X146489657Y-181123527D01*
X146958895Y-181576691D01*
X147399694Y-182058813D01*
X147769944Y-182528630D01*
X147841666Y-182632052D01*
X148351904Y-183485935D01*
X148776318Y-184390689D01*
X149105955Y-185314377D01*
X149331864Y-186225065D01*
X149445092Y-187090816D01*
X149436689Y-187879696D01*
X149395603Y-188175707D01*
X149173330Y-189029025D01*
X148846279Y-189734727D01*
X148413882Y-190293713D01*
X147875568Y-190706884D01*
X147751801Y-190773798D01*
X147179438Y-190984776D01*
X146505979Y-191103799D01*
X145791069Y-191123042D01*
X145378750Y-191085095D01*
X144866278Y-191001490D01*
X144446991Y-190898224D01*
X144042921Y-190750812D01*
X143576096Y-190534770D01*
X143489780Y-190491902D01*
X143137062Y-190307349D01*
X142811836Y-190115347D01*
X142495210Y-189899445D01*
X142168296Y-189643191D01*
X141812203Y-189330135D01*
X141408043Y-188943824D01*
X140936925Y-188467809D01*
X140379961Y-187885637D01*
X139850614Y-187322500D01*
X139134986Y-186567688D01*
X138529439Y-185951627D01*
X138030724Y-185471395D01*
X137635586Y-185124067D01*
X137340775Y-184906722D01*
X137143038Y-184816437D01*
X137068930Y-184822389D01*
X136907734Y-184905862D01*
X136653604Y-185039971D01*
X136466071Y-185139854D01*
X135369326Y-185685652D01*
X134238643Y-186164334D01*
X133046841Y-186584256D01*
X131766744Y-186953778D01*
X130371171Y-187281259D01*
X128832944Y-187575058D01*
X128211071Y-187678692D01*
X127772802Y-187749144D01*
X127188053Y-187843139D01*
X126489474Y-187955428D01*
X125709713Y-188080764D01*
X124881421Y-188213897D01*
X124037247Y-188349581D01*
X123403214Y-188451487D01*
X121880057Y-188694101D01*
X120509968Y-188907202D01*
X119267582Y-189094093D01*
X118127530Y-189258078D01*
X117064445Y-189402458D01*
X116052961Y-189530538D01*
X115067709Y-189645620D01*
X114083323Y-189751007D01*
X113074435Y-189850002D01*
X112015679Y-189945907D01*
X111746428Y-189969254D01*
X111017352Y-190021338D01*
X110165150Y-190064261D01*
X109216514Y-190098026D01*
X108198137Y-190122634D01*
X107136712Y-190138089D01*
X106058932Y-190144393D01*
X104991489Y-190141549D01*
X103961076Y-190129559D01*
X102994387Y-190108427D01*
X102118114Y-190078154D01*
X101358949Y-190038743D01*
X100743586Y-189990197D01*
X100543214Y-189968164D01*
X98733319Y-189712544D01*
X97070387Y-189403657D01*
X95525735Y-189033675D01*
X94070680Y-188594771D01*
X92676538Y-188079117D01*
X91314627Y-187478886D01*
X91173662Y-187411281D01*
X90678990Y-187167695D01*
X90210832Y-186928869D01*
X89807221Y-186714809D01*
X89506189Y-186545521D01*
X89387749Y-186471825D01*
X88988532Y-186202397D01*
X88342753Y-186511879D01*
X87986402Y-186691207D01*
X87617006Y-186896369D01*
X87212595Y-187141607D01*
X86751195Y-187441169D01*
X86210835Y-187809298D01*
X85569542Y-188260241D01*
X84845602Y-188779190D01*
X84030829Y-189358351D01*
X83331424Y-189835248D01*
X82723824Y-190224304D01*
X82184467Y-190539939D01*
X81689793Y-190796573D01*
X81216237Y-191008629D01*
X81175912Y-191025178D01*
X80804055Y-191164667D01*
X80474588Y-191252419D01*
X80115976Y-191302158D01*
X79656681Y-191327609D01*
X79588214Y-191329778D01*
X78971098Y-191327599D01*
X78501145Y-191280932D01*
X78298805Y-191232596D01*
X77701040Y-190964473D01*
X77093340Y-190561748D01*
X76520469Y-190062805D01*
X76027197Y-189506028D01*
X75695490Y-189000509D01*
X75468863Y-188408946D01*
X75375019Y-187746113D01*
X75406275Y-187259737D01*
X75944051Y-187259737D01*
X75956851Y-187918895D01*
X76116928Y-188582073D01*
X76416282Y-189211724D01*
X76724237Y-189635714D01*
X76997113Y-189953214D01*
X76944643Y-189539436D01*
X76943908Y-189006469D01*
X77053877Y-188400605D01*
X77261507Y-187781625D01*
X77388742Y-187503929D01*
X77640898Y-187102115D01*
X78004954Y-186649304D01*
X78438140Y-186189337D01*
X78897688Y-185766054D01*
X79340830Y-185423296D01*
X79542857Y-185295829D01*
X79913609Y-185103402D01*
X80166200Y-185022657D01*
X80322395Y-185049791D01*
X80392835Y-185147299D01*
X80365469Y-185257353D01*
X80205011Y-185415690D01*
X79897708Y-185635035D01*
X79790219Y-185704806D01*
X79202439Y-186131482D01*
X78656078Y-186622820D01*
X78189778Y-187139145D01*
X77842176Y-187640786D01*
X77766955Y-187782203D01*
X77539568Y-188446992D01*
X77454942Y-189214736D01*
X77497128Y-189947352D01*
X77542434Y-190237516D01*
X77613877Y-190410239D01*
X77753418Y-190528820D01*
X77950500Y-190631221D01*
X78666294Y-190885181D01*
X79434036Y-190975416D01*
X80268215Y-190903271D01*
X80464803Y-190865168D01*
X80957968Y-190736391D01*
X81459283Y-190552608D01*
X81987960Y-190302586D01*
X82563208Y-189975094D01*
X83204240Y-189558897D01*
X83930266Y-189042764D01*
X84760498Y-188415462D01*
X85081611Y-188165718D01*
X86009720Y-187460012D01*
X86842930Y-186869130D01*
X87573265Y-186398352D01*
X88192744Y-186052957D01*
X88467487Y-185925052D01*
X88770565Y-185792278D01*
X89014842Y-185678729D01*
X89138975Y-185613799D01*
X89114939Y-185529520D01*
X88978700Y-185338525D01*
X88748644Y-185060042D01*
X88443159Y-184713304D01*
X88080631Y-184317540D01*
X87679446Y-183891980D01*
X87257990Y-183455854D01*
X86834652Y-183028394D01*
X86427816Y-182628830D01*
X86055870Y-182276391D01*
X85737199Y-181990309D01*
X85490192Y-181789812D01*
X85465944Y-181772207D01*
X84752534Y-181347396D01*
X84043368Y-181097719D01*
X83338340Y-181017857D01*
X83000429Y-181033571D01*
X82709855Y-181094449D01*
X82391589Y-181221096D01*
X82134110Y-181348556D01*
X81051761Y-181947473D01*
X80031024Y-182591642D01*
X79087833Y-183267116D01*
X78238123Y-183959946D01*
X77497829Y-184656184D01*
X76882885Y-185341884D01*
X76409225Y-186003096D01*
X76092785Y-186625874D01*
X76086525Y-186642143D01*
X75944051Y-187259737D01*
X75406275Y-187259737D01*
X75418526Y-187069109D01*
X75510305Y-186686676D01*
X75801342Y-186014981D01*
X76257397Y-185309990D01*
X76867544Y-184582683D01*
X77620856Y-183844039D01*
X78506409Y-183105038D01*
X79513277Y-182376660D01*
X80310201Y-181863128D01*
X80655099Y-181646899D01*
X80934532Y-181463502D01*
X81117027Y-181334138D01*
X81172445Y-181282259D01*
X81117139Y-181198053D01*
X80963532Y-181005435D01*
X80733967Y-180731495D01*
X80450787Y-180403328D01*
X80396377Y-180341195D01*
X78820460Y-178442010D01*
X77418626Y-176528980D01*
X76184112Y-174586930D01*
X75110155Y-172600687D01*
X74189990Y-170555077D01*
X73416856Y-168434927D01*
X72783988Y-166225063D01*
X72284624Y-163910312D01*
X71912000Y-161475500D01*
X71883514Y-161242143D01*
X71787039Y-160371929D01*
X71709853Y-159523246D01*
X71650845Y-158666680D01*
X71608906Y-157772818D01*
X71582924Y-156812244D01*
X71571789Y-155755545D01*
X71574392Y-154573308D01*
X71587310Y-153395357D01*
X71599235Y-152612561D01*
X71612383Y-151899837D01*
X71627847Y-151235481D01*
X71646719Y-150597790D01*
X71670089Y-149965060D01*
X71699051Y-149315588D01*
X71734695Y-148627670D01*
X71778115Y-147879602D01*
X71830401Y-147049682D01*
X71892646Y-146116206D01*
X71965942Y-145057470D01*
X72051380Y-143851770D01*
X72105296Y-143099286D01*
X72200274Y-141734298D01*
X72278013Y-140511169D01*
X72339999Y-139391301D01*
X72387717Y-138336094D01*
X72422655Y-137306948D01*
X72446299Y-136265264D01*
X72460136Y-135172441D01*
X72465650Y-133989881D01*
X72465887Y-133735074D01*
X72467142Y-130494076D01*
X71990892Y-130952467D01*
X71598947Y-131292171D01*
X71088489Y-131679563D01*
X70504743Y-132084182D01*
X69892930Y-132475566D01*
X69298273Y-132823254D01*
X68911215Y-133026915D01*
X68177654Y-133340933D01*
X67527480Y-133510207D01*
X66939731Y-133538409D01*
X66473458Y-133454176D01*
X65957363Y-133226476D01*
X65544535Y-132887941D01*
X65264822Y-132466400D01*
X65190603Y-132258053D01*
X65082316Y-131972007D01*
X64939172Y-131831120D01*
X64882405Y-131810929D01*
X64664925Y-131696180D01*
X64399208Y-131473198D01*
X64130018Y-131189527D01*
X63902122Y-130892713D01*
X63760286Y-130630298D01*
X63754144Y-130612657D01*
X63663607Y-130060240D01*
X64116280Y-130060240D01*
X64242414Y-130521523D01*
X64540421Y-130948183D01*
X64709594Y-131111534D01*
X64952497Y-131309405D01*
X65110486Y-131379085D01*
X65224928Y-131322649D01*
X65336777Y-131142973D01*
X65517019Y-130885874D01*
X65789593Y-130604022D01*
X66118399Y-130323582D01*
X66467332Y-130070719D01*
X66800292Y-129871597D01*
X67081175Y-129752381D01*
X67273750Y-129739188D01*
X67386663Y-129843989D01*
X67353530Y-130002680D01*
X67188869Y-130184678D01*
X67002957Y-130309659D01*
X66642956Y-130546951D01*
X66278901Y-130844681D01*
X65960638Y-131157192D01*
X65738013Y-131438826D01*
X65701963Y-131501326D01*
X65579176Y-131890643D01*
X65630889Y-132239597D01*
X65822321Y-132509096D01*
X66216286Y-132804928D01*
X66660039Y-132966554D01*
X67200501Y-133009753D01*
X67301820Y-133006610D01*
X67622043Y-132978984D01*
X67916518Y-132915178D01*
X68242205Y-132797745D01*
X68656063Y-132609240D01*
X68753248Y-132562051D01*
X69689576Y-132065739D01*
X70515079Y-131537932D01*
X71299716Y-130931816D01*
X71671208Y-130609321D01*
X72462773Y-129900357D01*
X72421869Y-129220000D01*
X72405866Y-128910193D01*
X72386197Y-128461761D01*
X72364562Y-127917428D01*
X72342663Y-127319920D01*
X72322938Y-126734957D01*
X72264911Y-124930271D01*
X71345491Y-124983653D01*
X70194860Y-125138277D01*
X69046586Y-125461842D01*
X67924482Y-125943137D01*
X66852362Y-126570947D01*
X65854038Y-127334060D01*
X65341572Y-127810845D01*
X64774663Y-128439636D01*
X64381849Y-129022198D01*
X64162573Y-129561432D01*
X64116280Y-130060240D01*
X63663607Y-130060240D01*
X63662330Y-130052452D01*
X63736420Y-129458334D01*
X63966751Y-128842143D01*
X64343662Y-128215719D01*
X64857491Y-127590901D01*
X65498576Y-126979528D01*
X66257255Y-126393441D01*
X67123868Y-125844479D01*
X68031198Y-125371498D01*
X69053533Y-124952621D01*
X70053358Y-124680645D01*
X71089429Y-124540262D01*
X71265178Y-124528839D01*
X72195000Y-124476802D01*
X72194553Y-124013579D01*
X72189309Y-123840267D01*
X72174359Y-123503300D01*
X72150633Y-123020141D01*
X72119058Y-122408254D01*
X72080564Y-121685100D01*
X72036080Y-120868143D01*
X71986533Y-119974844D01*
X71932853Y-119022667D01*
X71880489Y-118107500D01*
X71819782Y-117051387D01*
X71758849Y-115986608D01*
X71699101Y-114938113D01*
X71641948Y-113930854D01*
X71588801Y-112989781D01*
X71541070Y-112139845D01*
X71500166Y-111405996D01*
X71467499Y-110813184D01*
X71452294Y-110532857D01*
X71424062Y-109896723D01*
X71399713Y-109125697D01*
X71379251Y-108241678D01*
X71362678Y-107266563D01*
X71349996Y-106222248D01*
X71341207Y-105130632D01*
X71336315Y-104013611D01*
X71335783Y-103413063D01*
X72286180Y-103413063D01*
X72288048Y-104468547D01*
X72294544Y-105450824D01*
X72306585Y-106385688D01*
X72325085Y-107298929D01*
X72350961Y-108216340D01*
X72385129Y-109163711D01*
X72428503Y-110166836D01*
X72482001Y-111251505D01*
X72546537Y-112443511D01*
X72623027Y-113768645D01*
X72698387Y-115023214D01*
X72825874Y-117125141D01*
X72941670Y-119060896D01*
X73045796Y-120845359D01*
X73138271Y-122493408D01*
X73219114Y-124019923D01*
X73288344Y-125439781D01*
X73345982Y-126767863D01*
X73392046Y-128019047D01*
X73426556Y-129208212D01*
X73449532Y-130350236D01*
X73460992Y-131460000D01*
X73460957Y-132552381D01*
X73449446Y-133642258D01*
X73426478Y-134744511D01*
X73392072Y-135874018D01*
X73346249Y-137045659D01*
X73289028Y-138274311D01*
X73220428Y-139574855D01*
X73140468Y-140962168D01*
X73049169Y-142451131D01*
X72946549Y-144056621D01*
X72832628Y-145793518D01*
X72740445Y-147181429D01*
X72613701Y-149223093D01*
X72517265Y-151102395D01*
X72451420Y-152835902D01*
X72416455Y-154440177D01*
X72412654Y-155931787D01*
X72440303Y-157327298D01*
X72499688Y-158643275D01*
X72591095Y-159896283D01*
X72714810Y-161102888D01*
X72871118Y-162279657D01*
X73016707Y-163192500D01*
X73504490Y-165509749D01*
X74168432Y-167788000D01*
X75006670Y-170023251D01*
X76017341Y-172211499D01*
X77198581Y-174348741D01*
X78548528Y-176430974D01*
X80065320Y-178454197D01*
X80194256Y-178613929D01*
X80547685Y-179044834D01*
X80906534Y-179474419D01*
X81234871Y-179860177D01*
X81496768Y-180159599D01*
X81557600Y-180226880D01*
X81800799Y-180488184D01*
X81964066Y-180637454D01*
X82089475Y-180696936D01*
X82219103Y-180688873D01*
X82355000Y-180648453D01*
X82731784Y-180577668D01*
X83214777Y-180558280D01*
X83737216Y-180586932D01*
X84232340Y-180660270D01*
X84598033Y-180761188D01*
X85011233Y-180956191D01*
X85476017Y-181254651D01*
X86003448Y-181665729D01*
X86604588Y-182198585D01*
X87290501Y-182862379D01*
X87943781Y-183531523D01*
X88378902Y-183981374D01*
X88791453Y-184398634D01*
X89158809Y-184761138D01*
X89458344Y-185046718D01*
X89667432Y-185233206D01*
X89730403Y-185281964D01*
X89958054Y-185470166D01*
X90123388Y-185663647D01*
X90149234Y-185710080D01*
X90272155Y-185834408D01*
X90537655Y-186011109D01*
X90919072Y-186227185D01*
X91389742Y-186469640D01*
X91923002Y-186725477D01*
X92492188Y-186981699D01*
X93070637Y-187225310D01*
X93631686Y-187443312D01*
X93908769Y-187542609D01*
X95037210Y-187909250D01*
X96166106Y-188224755D01*
X97326485Y-188495113D01*
X98549379Y-188726318D01*
X99865815Y-188924358D01*
X101306825Y-189095225D01*
X102584285Y-189217615D01*
X102766471Y-189224894D01*
X103107142Y-189230060D01*
X103583365Y-189233084D01*
X104172210Y-189233934D01*
X104850745Y-189232582D01*
X105596037Y-189228997D01*
X106385155Y-189223148D01*
X106439643Y-189222669D01*
X107642968Y-189207919D01*
X108695243Y-189185769D01*
X109626741Y-189155039D01*
X110467733Y-189114548D01*
X111248491Y-189063115D01*
X111882500Y-189010357D01*
X113607740Y-188844133D01*
X115268692Y-188664291D01*
X116911987Y-188464813D01*
X118584256Y-188239682D01*
X120332129Y-187982879D01*
X122202238Y-187688386D01*
X122496071Y-187640606D01*
X123893347Y-187412187D01*
X125124521Y-187210045D01*
X126202654Y-187031874D01*
X127140805Y-186875368D01*
X127952037Y-186738222D01*
X128649409Y-186618129D01*
X129245983Y-186512784D01*
X129754819Y-186419882D01*
X130188978Y-186337116D01*
X130561521Y-186262180D01*
X130885508Y-186192770D01*
X131174000Y-186126579D01*
X131435880Y-186062358D01*
X133052422Y-185589644D01*
X134521290Y-185026788D01*
X135260320Y-184681352D01*
X135619900Y-184496609D01*
X135874378Y-184342890D01*
X136069905Y-184178364D01*
X136252627Y-183961201D01*
X136370226Y-183791587D01*
X137331862Y-183791587D01*
X137360216Y-184031481D01*
X137488218Y-184273666D01*
X137728490Y-184556193D01*
X138093655Y-184917115D01*
X138109282Y-184932044D01*
X138362045Y-185184526D01*
X138703020Y-185541102D01*
X139101519Y-185968828D01*
X139526855Y-186434760D01*
X139948341Y-186905952D01*
X139955710Y-186914286D01*
X140704407Y-187742722D01*
X141369041Y-188434429D01*
X141967515Y-189002741D01*
X142517732Y-189460994D01*
X143037595Y-189822522D01*
X143545010Y-190100658D01*
X144057878Y-190308739D01*
X144594103Y-190460097D01*
X144766428Y-190497293D01*
X145392961Y-190597477D01*
X145935810Y-190618405D01*
X146473552Y-190561986D01*
X146587824Y-190541509D01*
X146873905Y-190475886D01*
X147086070Y-190406468D01*
X147154379Y-190368335D01*
X147181254Y-190234514D01*
X147158881Y-189967875D01*
X147095854Y-189607560D01*
X147000770Y-189192710D01*
X146882222Y-188762469D01*
X146748805Y-188355977D01*
X146664845Y-188138929D01*
X146342997Y-187477396D01*
X145920228Y-186771917D01*
X145439286Y-186089340D01*
X145051706Y-185616328D01*
X144797655Y-185323581D01*
X144652877Y-185130616D01*
X144603389Y-185004083D01*
X144635206Y-184910634D01*
X144721071Y-184827857D01*
X144806945Y-184773661D01*
X144896809Y-184775623D01*
X145013974Y-184852382D01*
X145181748Y-185022577D01*
X145423443Y-185304848D01*
X145627403Y-185552580D01*
X146231522Y-186381084D01*
X146757200Y-187281617D01*
X147183498Y-188210170D01*
X147489476Y-189122732D01*
X147624142Y-189749107D01*
X147676750Y-189967466D01*
X147740490Y-190083536D01*
X147755704Y-190089286D01*
X147887880Y-190017233D01*
X148079158Y-189827940D01*
X148298655Y-189561707D01*
X148515484Y-189258833D01*
X148698762Y-188959616D01*
X148817601Y-188704356D01*
X148818004Y-188703193D01*
X148958067Y-188062686D01*
X148982935Y-187319183D01*
X148899475Y-186503915D01*
X148714554Y-185648114D01*
X148435041Y-184783010D01*
X148067801Y-183939836D01*
X147619704Y-183149821D01*
X147585192Y-183096870D01*
X146928975Y-182233116D01*
X146194614Y-181508193D01*
X145396262Y-180928956D01*
X144548070Y-180502258D01*
X143664190Y-180234955D01*
X142758774Y-180133899D01*
X141845975Y-180205947D01*
X141682143Y-180237793D01*
X140949570Y-180449625D01*
X140213054Y-180764811D01*
X139502946Y-181161978D01*
X138849593Y-181619750D01*
X138283346Y-182116757D01*
X137834552Y-182631622D01*
X137533561Y-183142975D01*
X137523604Y-183166460D01*
X137390532Y-183515931D01*
X137331862Y-183791587D01*
X136370226Y-183791587D01*
X136468692Y-183649570D01*
X136573541Y-183490996D01*
X137305077Y-182509745D01*
X138122876Y-181647738D01*
X139008946Y-180918923D01*
X139945292Y-180337249D01*
X140913922Y-179916664D01*
X141356249Y-179783489D01*
X141787634Y-179706827D01*
X142322890Y-179662554D01*
X142893405Y-179651758D01*
X143430569Y-179675526D01*
X143865770Y-179734944D01*
X143902096Y-179743139D01*
X144126448Y-179792341D01*
X144254041Y-179812627D01*
X144264953Y-179810880D01*
X144321120Y-179667280D01*
X144459216Y-179396179D01*
X144664426Y-179023560D01*
X144921932Y-178575403D01*
X145216919Y-178077691D01*
X145534570Y-177556403D01*
X145723528Y-177253214D01*
X146102581Y-176650513D01*
X146534998Y-175963207D01*
X146977426Y-175260190D01*
X147386512Y-174610355D01*
X147550236Y-174350357D01*
X148263597Y-173185223D01*
X148869904Y-172118016D01*
X149384856Y-171113068D01*
X149824152Y-170134709D01*
X150203488Y-169147268D01*
X150538565Y-168115077D01*
X150845080Y-167002465D01*
X150925756Y-166680483D01*
X151269623Y-165190040D01*
X151569571Y-163686372D01*
X151826861Y-162153190D01*
X152042756Y-160574205D01*
X152218518Y-158933130D01*
X152355411Y-157213674D01*
X152454695Y-155399550D01*
X152517634Y-153474470D01*
X152545490Y-151422144D01*
X152539526Y-149226283D01*
X152501003Y-146870601D01*
X152491802Y-146473635D01*
X152471639Y-145642152D01*
X152452741Y-144884274D01*
X152434441Y-144184379D01*
X152416076Y-143526850D01*
X152396980Y-142896067D01*
X152376486Y-142276410D01*
X152353931Y-141652259D01*
X152328647Y-141007997D01*
X152299971Y-140328002D01*
X152267237Y-139596657D01*
X152229778Y-138798340D01*
X152186931Y-137917434D01*
X152138029Y-136938319D01*
X152082407Y-135845375D01*
X152019400Y-134622983D01*
X151948342Y-133255523D01*
X151868568Y-131727377D01*
X151841814Y-131215714D01*
X151758689Y-129623954D01*
X151684202Y-128186572D01*
X151617853Y-126884894D01*
X151559142Y-125700241D01*
X151507569Y-124613939D01*
X151480523Y-124008084D01*
X152454275Y-124008084D01*
X152456294Y-124402157D01*
X152473312Y-124957705D01*
X152505443Y-125681936D01*
X152535911Y-126273105D01*
X152672337Y-128811786D01*
X153141704Y-129295103D01*
X153888178Y-129994745D01*
X154681761Y-130613064D01*
X155501222Y-131140493D01*
X156325327Y-131567468D01*
X157132843Y-131884421D01*
X157902538Y-132081789D01*
X158613180Y-132150006D01*
X159243534Y-132079505D01*
X159293598Y-132066575D01*
X159432168Y-131958772D01*
X159515911Y-131714525D01*
X159550180Y-131315927D01*
X159551618Y-131203288D01*
X159468009Y-130764733D01*
X159231154Y-130317445D01*
X158865769Y-129887988D01*
X158396571Y-129502924D01*
X157848276Y-129188817D01*
X157569334Y-129072905D01*
X157222689Y-128931768D01*
X157032514Y-128811056D01*
X156978543Y-128690192D01*
X157040511Y-128548603D01*
X157045759Y-128541335D01*
X157112359Y-128465829D01*
X157194757Y-128437603D01*
X157328536Y-128464599D01*
X157549277Y-128554760D01*
X157892561Y-128716030D01*
X157948558Y-128742878D01*
X158688700Y-129162432D01*
X159269747Y-129631920D01*
X159686430Y-130144999D01*
X159933477Y-130695322D01*
X160006428Y-131220258D01*
X160023586Y-131506490D01*
X160082190Y-131633259D01*
X160192935Y-131599755D01*
X160366516Y-131405167D01*
X160525592Y-131180878D01*
X160805590Y-130683644D01*
X160956938Y-130180474D01*
X161002704Y-129594108D01*
X161002703Y-129582857D01*
X160925303Y-128873383D01*
X160708574Y-128119348D01*
X160373412Y-127361308D01*
X159940713Y-126639818D01*
X159431372Y-125995433D01*
X158894169Y-125490539D01*
X158184003Y-124998609D01*
X157376943Y-124557657D01*
X156510045Y-124180046D01*
X155620363Y-123878142D01*
X154744954Y-123664311D01*
X153920872Y-123550918D01*
X153185173Y-123550328D01*
X153104297Y-123558458D01*
X152805862Y-123600195D01*
X152578381Y-123646484D01*
X152494777Y-123675530D01*
X152467141Y-123768277D01*
X152454275Y-124008084D01*
X151480523Y-124008084D01*
X151462632Y-123607310D01*
X151423832Y-122661678D01*
X151390668Y-121758367D01*
X151362640Y-120878701D01*
X151339247Y-120004003D01*
X151319988Y-119115597D01*
X151304364Y-118194807D01*
X151291874Y-117222955D01*
X151282018Y-116181367D01*
X151274295Y-115051365D01*
X151268204Y-113814273D01*
X151263246Y-112451415D01*
X151258919Y-110944114D01*
X151254808Y-109308214D01*
X151249357Y-107392292D01*
X151242530Y-105645126D01*
X151233918Y-104054050D01*
X151223111Y-102606393D01*
X151209701Y-101289488D01*
X151193277Y-100090666D01*
X151173430Y-98997258D01*
X151149752Y-97996595D01*
X151121832Y-97076009D01*
X151089261Y-96222832D01*
X151051630Y-95424394D01*
X151008529Y-94668027D01*
X150959550Y-93941062D01*
X150904281Y-93230831D01*
X150842316Y-92524665D01*
X150773242Y-91809896D01*
X150696653Y-91073854D01*
X150652392Y-90666429D01*
X150289087Y-87943472D01*
X149813391Y-85357861D01*
X149225660Y-82910939D01*
X148526246Y-80604048D01*
X147715504Y-78438532D01*
X147026527Y-76891098D01*
X146789956Y-76415072D01*
X146553566Y-75971495D01*
X146338839Y-75598517D01*
X146167259Y-75334289D01*
X146106493Y-75257243D01*
X145915323Y-75017957D01*
X145678993Y-74685972D01*
X145443006Y-74325744D01*
X145401428Y-74258555D01*
X144702294Y-73146514D01*
X144044115Y-72168307D01*
X143399895Y-71289544D01*
X142742637Y-70475836D01*
X142045345Y-69692793D01*
X141281022Y-68906026D01*
X140930417Y-68563202D01*
X139501084Y-67291736D01*
X141034138Y-67291736D01*
X142069842Y-68342833D01*
X142725502Y-69021278D01*
X143282504Y-69629729D01*
X143781008Y-70215008D01*
X144261173Y-70823940D01*
X144669416Y-71373789D01*
X144981071Y-71786635D01*
X145215611Y-72055079D01*
X145388208Y-72190924D01*
X145514032Y-72205972D01*
X145608253Y-72112027D01*
X145611330Y-72106614D01*
X145864055Y-71764736D01*
X146220806Y-71418307D01*
X146616043Y-71127296D01*
X146785820Y-71031977D01*
X147116487Y-70892692D01*
X147446583Y-70821400D01*
X147862584Y-70800086D01*
X147899393Y-70800000D01*
X148571037Y-70878953D01*
X149158970Y-71100492D01*
X149653675Y-71441640D01*
X150045631Y-71879415D01*
X150325322Y-72390841D01*
X150483227Y-72952937D01*
X150509828Y-73542724D01*
X150395607Y-74137225D01*
X150131045Y-74713459D01*
X149731635Y-75223189D01*
X149295095Y-75568182D01*
X148775176Y-75822856D01*
X148239935Y-75957295D01*
X148031030Y-75970714D01*
X147673866Y-75970714D01*
X147997229Y-76673750D01*
X148448137Y-77708155D01*
X148897372Y-78837955D01*
X149312829Y-79979684D01*
X149587279Y-80807348D01*
X149982500Y-82060767D01*
X150371222Y-82010611D01*
X150647937Y-81950008D01*
X151014833Y-81837054D01*
X151397172Y-81695012D01*
X151434399Y-81679678D01*
X152468654Y-81154400D01*
X153391528Y-80490626D01*
X154196464Y-79697945D01*
X154876904Y-78785946D01*
X155426289Y-77764217D01*
X155838061Y-76642345D01*
X156105662Y-75429921D01*
X156188982Y-74728336D01*
X156214826Y-73507171D01*
X156089797Y-72319658D01*
X155822020Y-71182396D01*
X155419618Y-70111981D01*
X154890714Y-69125013D01*
X154243432Y-68238088D01*
X153485895Y-67467806D01*
X152626227Y-66830763D01*
X152206345Y-66591007D01*
X151128700Y-66129700D01*
X149959201Y-65819054D01*
X148706476Y-65658666D01*
X147379154Y-65648136D01*
X145985865Y-65787063D01*
X144535238Y-66075044D01*
X143035900Y-66511679D01*
X141516890Y-67087941D01*
X141034138Y-67291736D01*
X139501084Y-67291736D01*
X139406889Y-67207945D01*
X137740555Y-65940536D01*
X135955830Y-64778445D01*
X134477343Y-63945873D01*
X134060894Y-63720366D01*
X133701592Y-63513818D01*
X133430842Y-63345189D01*
X133280053Y-63233438D01*
X133261929Y-63212196D01*
X133196557Y-63168901D01*
X133110330Y-63268240D01*
X133018547Y-63452989D01*
X132673087Y-64007147D01*
X132195403Y-64453444D01*
X131604036Y-64784945D01*
X130917528Y-64994714D01*
X130154420Y-65075816D01*
X129333253Y-65021316D01*
X128990675Y-64959567D01*
X128372987Y-64798090D01*
X127786601Y-64576583D01*
X127212093Y-64281310D01*
X126630038Y-63898534D01*
X126021014Y-63414516D01*
X125365596Y-62815520D01*
X124644361Y-62087810D01*
X124087621Y-61491948D01*
X122914181Y-60212110D01*
X122478340Y-60252096D01*
X122220500Y-60260282D01*
X121832752Y-60253639D01*
X121365871Y-60233795D01*
X120870628Y-60202380D01*
X120827929Y-60199157D01*
X119613358Y-60106232D01*
X118287929Y-60546719D01*
X116343960Y-61103717D01*
X114398858Y-61481466D01*
X112444000Y-61680550D01*
X110470758Y-61701551D01*
X108470509Y-61545051D01*
X106953308Y-61312631D01*
X105743401Y-61089612D01*
X102107392Y-61548967D01*
X101312639Y-61647890D01*
X100571936Y-61737239D01*
X99905071Y-61814838D01*
X99331837Y-61878511D01*
X98872024Y-61926082D01*
X98545423Y-61955375D01*
X98371825Y-61964215D01*
X98350607Y-61961975D01*
X98238750Y-61995173D01*
X98005586Y-62116425D01*
X97678455Y-62309763D01*
X97284696Y-62559220D01*
X96968875Y-62768948D01*
X96165272Y-63298816D01*
X95473504Y-63720674D01*
X94868112Y-64045113D01*
X94323634Y-64282723D01*
X93814608Y-64444094D01*
X93315573Y-64539816D01*
X92801068Y-64580478D01*
X92605714Y-64583681D01*
X92175730Y-64578503D01*
X91863196Y-64552628D01*
X91604342Y-64493986D01*
X91335394Y-64390508D01*
X91159998Y-64310080D01*
X90576068Y-64034538D01*
X89617855Y-64501500D01*
X88060142Y-65336007D01*
X86494775Y-66321146D01*
X84960572Y-67432171D01*
X84698685Y-67637301D01*
X84098830Y-68140206D01*
X83427897Y-68749209D01*
X82724381Y-69425807D01*
X82026778Y-70131494D01*
X81373581Y-70827765D01*
X80803285Y-71476114D01*
X80539281Y-71797857D01*
X79236310Y-73570636D01*
X78048123Y-75465493D01*
X76973736Y-77485271D01*
X76012170Y-79632816D01*
X75162443Y-81910972D01*
X74423573Y-84322583D01*
X73794579Y-86870494D01*
X73274480Y-89557548D01*
X72862295Y-92386590D01*
X72605977Y-94793929D01*
X72515503Y-95878343D01*
X72441946Y-96946792D01*
X72384118Y-98031305D01*
X72340830Y-99163911D01*
X72310895Y-100376642D01*
X72293124Y-101701526D01*
X72286328Y-103170594D01*
X72286180Y-103413063D01*
X71335783Y-103413063D01*
X71335321Y-102893083D01*
X71338229Y-101790945D01*
X71345041Y-100729094D01*
X71355758Y-99729428D01*
X71370385Y-98813843D01*
X71388923Y-98004238D01*
X71411375Y-97322508D01*
X71437743Y-96790553D01*
X71450697Y-96608214D01*
X71603760Y-94940357D01*
X71792087Y-93264171D01*
X72010608Y-91613811D01*
X72254254Y-90023434D01*
X72517956Y-88527196D01*
X72796647Y-87159253D01*
X72954916Y-86472132D01*
X73059768Y-86021875D01*
X73142000Y-85637279D01*
X73195145Y-85351212D01*
X73212738Y-85196547D01*
X73209215Y-85179454D01*
X73097363Y-85150530D01*
X72873374Y-85134202D01*
X72781155Y-85132857D01*
X72447297Y-85102000D01*
X71997252Y-85018447D01*
X71483744Y-84895722D01*
X70959497Y-84747353D01*
X70477237Y-84586866D01*
X70161491Y-84460800D01*
X69119369Y-83902340D01*
X68171741Y-83204590D01*
X67326979Y-82385655D01*
X66593455Y-81463645D01*
X65979542Y-80456666D01*
X65493611Y-79382828D01*
X65144035Y-78260237D01*
X64939187Y-77107002D01*
X64914922Y-76560357D01*
X65731730Y-76560357D01*
X65756540Y-77336899D01*
X65851889Y-78010034D01*
X66033393Y-78649269D01*
X66316664Y-79324114D01*
X66383828Y-79463214D01*
X66887492Y-80324953D01*
X67519785Y-81142868D01*
X68256440Y-81899909D01*
X69073189Y-82579024D01*
X69945763Y-83163162D01*
X70849895Y-83635272D01*
X71761316Y-83978302D01*
X72655758Y-84175203D01*
X73147500Y-84215483D01*
X73510357Y-84225129D01*
X73994695Y-82705958D01*
X74200564Y-82080391D01*
X74437265Y-81393363D01*
X74680225Y-80714353D01*
X74904867Y-80112844D01*
X74981209Y-79916786D01*
X75159223Y-79466491D01*
X75314316Y-79073990D01*
X75433872Y-78771226D01*
X75505274Y-78590141D01*
X75518642Y-78556072D01*
X75454722Y-78509630D01*
X75228719Y-78489809D01*
X74906074Y-78495934D01*
X74273870Y-78471625D01*
X73738178Y-78321576D01*
X73250257Y-78028756D01*
X73025682Y-77838904D01*
X72589538Y-77336956D01*
X72318430Y-76774343D01*
X72202669Y-76128696D01*
X72196772Y-75925357D01*
X72268618Y-75254120D01*
X72490621Y-74675815D01*
X72872478Y-74168542D01*
X73048738Y-74001035D01*
X73616605Y-73616386D01*
X74247692Y-73395250D01*
X74917458Y-73342350D01*
X75601360Y-73462410D01*
X75693248Y-73492064D01*
X76010506Y-73648346D01*
X76355932Y-73893628D01*
X76685577Y-74187497D01*
X76955493Y-74489538D01*
X77121729Y-74759336D01*
X77144473Y-74826580D01*
X77226456Y-75020495D01*
X77320399Y-75045382D01*
X77406643Y-74896093D01*
X77406888Y-74895324D01*
X77507868Y-74678251D01*
X77704396Y-74342675D01*
X77979549Y-73912452D01*
X78316402Y-73411441D01*
X78698035Y-72863500D01*
X79107522Y-72292485D01*
X79527943Y-71722256D01*
X79942373Y-71176669D01*
X80333890Y-70679583D01*
X80685572Y-70254854D01*
X80757431Y-70171757D01*
X80989856Y-69892024D01*
X81166589Y-69653484D01*
X81259172Y-69495560D01*
X81266428Y-69466694D01*
X81200681Y-69315402D01*
X81028431Y-69092248D01*
X80787162Y-68835749D01*
X80514359Y-68584421D01*
X80247507Y-68376781D01*
X80137718Y-68306913D01*
X79490686Y-68015293D01*
X78696964Y-67796517D01*
X77777248Y-67653450D01*
X76752236Y-67588955D01*
X75642625Y-67605897D01*
X75250746Y-67630644D01*
X73812866Y-67808789D01*
X72491893Y-68121017D01*
X71278343Y-68571247D01*
X70162735Y-69163400D01*
X69135587Y-69901396D01*
X68591637Y-70383502D01*
X67703751Y-71338065D01*
X66974465Y-72357397D01*
X66408433Y-73431445D01*
X66010309Y-74550160D01*
X65784746Y-75703488D01*
X65731730Y-76560357D01*
X64914922Y-76560357D01*
X64887438Y-75941231D01*
X64997160Y-74781031D01*
X65229476Y-73793572D01*
X65632166Y-72767830D01*
X66197379Y-71764808D01*
X66906246Y-70803573D01*
X67739897Y-69903192D01*
X68679464Y-69082733D01*
X69706077Y-68361264D01*
X70800868Y-67757852D01*
X71505562Y-67451404D01*
X72211864Y-67196134D01*
X72881217Y-67003597D01*
X73557413Y-66866650D01*
X74284240Y-66778149D01*
X75105489Y-66730950D01*
X76001873Y-66717857D01*
X77146567Y-66739035D01*
X78132551Y-66805971D01*
X78977932Y-66923769D01*
X79700815Y-67097530D01*
X80319305Y-67332360D01*
X80851508Y-67633360D01*
X81315529Y-68005634D01*
X81594346Y-68294125D01*
X82029322Y-68787486D01*
X82713768Y-68145737D01*
X83842506Y-67156013D01*
X85086726Y-66187218D01*
X86397013Y-65273694D01*
X87723952Y-64449784D01*
X89018127Y-63749829D01*
X89090535Y-63714057D01*
X89384055Y-63562122D01*
X89600788Y-63435224D01*
X89700453Y-63357278D01*
X89702857Y-63350541D01*
X89648892Y-63252194D01*
X89509559Y-63063730D01*
X89371463Y-62893761D01*
X88922958Y-62242955D01*
X88654083Y-61570645D01*
X88573078Y-60940243D01*
X89143086Y-60940243D01*
X89271075Y-61633105D01*
X89575725Y-62332715D01*
X89710450Y-62556833D01*
X89927677Y-62882733D01*
X90069062Y-63050978D01*
X90148366Y-63061672D01*
X90179349Y-62914919D01*
X90175771Y-62610824D01*
X90173512Y-62560329D01*
X90227007Y-61785093D01*
X90458879Y-61027851D01*
X90866515Y-60294029D01*
X91447301Y-59589055D01*
X91743359Y-59301847D01*
X92129316Y-58972751D01*
X92519531Y-58680299D01*
X92883028Y-58443890D01*
X93188834Y-58282921D01*
X93405973Y-58216789D01*
X93466118Y-58222989D01*
X93590869Y-58322001D01*
X93559524Y-58468389D01*
X93367974Y-58668069D01*
X93012108Y-58926955D01*
X92947727Y-58969045D01*
X92218996Y-59512836D01*
X91601063Y-60121947D01*
X91122666Y-60766144D01*
X90960511Y-61059544D01*
X90803794Y-61397829D01*
X90714316Y-61668714D01*
X90675325Y-61950149D01*
X90670071Y-62320082D01*
X90671462Y-62404620D01*
X90681765Y-62781569D01*
X90696493Y-63113290D01*
X90712762Y-63337319D01*
X90715637Y-63361429D01*
X90836896Y-63621132D01*
X91106183Y-63834977D01*
X91495045Y-63999166D01*
X91975025Y-64109905D01*
X92517669Y-64163399D01*
X93094520Y-64155852D01*
X93677123Y-64083469D01*
X94237023Y-63942456D01*
X94460832Y-63860938D01*
X94754605Y-63739109D01*
X95028138Y-63615924D01*
X95297854Y-63480425D01*
X95580176Y-63321654D01*
X95891530Y-63128654D01*
X96248340Y-62890466D01*
X96667029Y-62596133D01*
X97164022Y-62234697D01*
X97755743Y-61795200D01*
X98458615Y-61266684D01*
X98917861Y-60919133D01*
X99636071Y-60919133D01*
X99953571Y-60875540D01*
X100146527Y-60850116D01*
X100483032Y-60806880D01*
X100926603Y-60750473D01*
X101440754Y-60685539D01*
X101881314Y-60630204D01*
X102393807Y-60563527D01*
X102834313Y-60501480D01*
X103175281Y-60448337D01*
X103389164Y-60408374D01*
X103449924Y-60386829D01*
X103353167Y-60335986D01*
X103133299Y-60236461D01*
X102835508Y-60107341D01*
X102504978Y-59967710D01*
X102186897Y-59836657D01*
X101926451Y-59733267D01*
X101768826Y-59676626D01*
X101767857Y-59676341D01*
X101643343Y-59706456D01*
X101404290Y-59814871D01*
X101088002Y-59980595D01*
X100731789Y-60182638D01*
X100372957Y-60400010D01*
X100048813Y-60611719D01*
X99847352Y-60756888D01*
X99636071Y-60919133D01*
X98917861Y-60919133D01*
X99273214Y-60650208D01*
X99779539Y-60285448D01*
X100326645Y-59923834D01*
X100879587Y-59585649D01*
X101403422Y-59291173D01*
X101863205Y-59060688D01*
X102223991Y-58914475D01*
X102304448Y-58890902D01*
X102363638Y-58865112D01*
X102381678Y-58816270D01*
X102346381Y-58729081D01*
X102245562Y-58588251D01*
X102067035Y-58378483D01*
X101798612Y-58084482D01*
X101428107Y-57690953D01*
X100943733Y-57183016D01*
X100340560Y-56556694D01*
X99839685Y-56048400D01*
X99421826Y-55641496D01*
X99067700Y-55319347D01*
X98758026Y-55065314D01*
X98473520Y-54862763D01*
X98194899Y-54695056D01*
X97902883Y-54545556D01*
X97867143Y-54528577D01*
X97495622Y-54370357D01*
X97172370Y-54284694D01*
X96804591Y-54251089D01*
X96594550Y-54247467D01*
X96298327Y-54249950D01*
X96067106Y-54270225D01*
X95854538Y-54323256D01*
X95614275Y-54424011D01*
X95299967Y-54587455D01*
X94961693Y-54774727D01*
X93730236Y-55506381D01*
X92620428Y-56256878D01*
X91642702Y-57017123D01*
X90807490Y-57778020D01*
X90125225Y-58530475D01*
X89606341Y-59265393D01*
X89420131Y-59605685D01*
X89192517Y-60261861D01*
X89143086Y-60940243D01*
X88573078Y-60940243D01*
X88564874Y-60876403D01*
X88655370Y-60159804D01*
X88925607Y-59420419D01*
X89375624Y-58657823D01*
X89791523Y-58117222D01*
X90386721Y-57483930D01*
X91138411Y-56810454D01*
X92029687Y-56109983D01*
X93043642Y-55395710D01*
X94163369Y-54680823D01*
X94309501Y-54592335D01*
X94607216Y-54413106D01*
X94005364Y-53693875D01*
X93200499Y-52650375D01*
X92415645Y-51478213D01*
X91681217Y-50229856D01*
X91027632Y-48957774D01*
X90485304Y-47714432D01*
X90380630Y-47441072D01*
X90114576Y-46654895D01*
X89853076Y-45751643D01*
X89612423Y-44795289D01*
X89408910Y-43849804D01*
X89279920Y-43119426D01*
X89202637Y-42462726D01*
X89149260Y-41674360D01*
X89119791Y-40802511D01*
X89114228Y-39895359D01*
X89115701Y-39823525D01*
X90650652Y-39823525D01*
X90659709Y-40787290D01*
X90701314Y-41723437D01*
X90775085Y-42580513D01*
X90866618Y-43230223D01*
X91125582Y-44515545D01*
X91431531Y-45687139D01*
X91801709Y-46810252D01*
X91840902Y-46916956D01*
X92008611Y-47340979D01*
X92221020Y-47835474D01*
X92460738Y-48364196D01*
X92710373Y-48890901D01*
X92952534Y-49379343D01*
X93169831Y-49793279D01*
X93344873Y-50096464D01*
X93418838Y-50205522D01*
X93544685Y-50355367D01*
X93638415Y-50370352D01*
X93777736Y-50260027D01*
X93787861Y-50250879D01*
X94048795Y-49920750D01*
X94292130Y-49423666D01*
X94511863Y-48773729D01*
X94651291Y-48222592D01*
X94873990Y-47102288D01*
X95031546Y-46001253D01*
X95122810Y-44897864D01*
X95146631Y-43770499D01*
X95101859Y-42597538D01*
X94987344Y-41357357D01*
X94801936Y-40028336D01*
X94544485Y-38588852D01*
X94213841Y-37017284D01*
X94007489Y-36118985D01*
X93867567Y-35518245D01*
X93767944Y-35069055D01*
X93705074Y-34746913D01*
X93675410Y-34527319D01*
X93675407Y-34385770D01*
X93701518Y-34297767D01*
X93737160Y-34251105D01*
X93877070Y-34165974D01*
X93976821Y-34216250D01*
X94034960Y-34342114D01*
X94124267Y-34623478D01*
X94239235Y-35038159D01*
X94374360Y-35563977D01*
X94524134Y-36178747D01*
X94683050Y-36860287D01*
X94845604Y-37586415D01*
X95006287Y-38334947D01*
X95043732Y-38514359D01*
X95313815Y-39935396D01*
X95505136Y-41232311D01*
X95620444Y-42443066D01*
X95662493Y-43605626D01*
X95634032Y-44757953D01*
X95563482Y-45686251D01*
X95428720Y-46873909D01*
X95269673Y-47890156D01*
X95083775Y-48743709D01*
X94868458Y-49443281D01*
X94621154Y-49997588D01*
X94339297Y-50415343D01*
X94102564Y-50645171D01*
X93944816Y-50787976D01*
X93875834Y-50887499D01*
X93875714Y-50889750D01*
X93930033Y-51007214D01*
X94079562Y-51237474D01*
X94304156Y-51553290D01*
X94583674Y-51927421D01*
X94897971Y-52332629D01*
X95226905Y-52741672D01*
X95395671Y-52945207D01*
X96067310Y-53745714D01*
X96561874Y-53745714D01*
X97152379Y-53813837D01*
X97793552Y-54004660D01*
X98424429Y-54297864D01*
X98678676Y-54451218D01*
X98872198Y-54600545D01*
X99170616Y-54860407D01*
X99552702Y-55210920D01*
X99997229Y-55632199D01*
X100482968Y-56104360D01*
X100988693Y-56607519D01*
X101092345Y-56712121D01*
X101576103Y-57197993D01*
X102021993Y-57639081D01*
X102413371Y-58019451D01*
X102733594Y-58323173D01*
X102966021Y-58534314D01*
X103094008Y-58636942D01*
X103110738Y-58644286D01*
X103229756Y-58642941D01*
X103241964Y-58642346D01*
X103331339Y-58670388D01*
X103550822Y-58746973D01*
X103860253Y-58857979D01*
X104007926Y-58911671D01*
X105345050Y-59342900D01*
X106775146Y-59701821D01*
X108217962Y-59970069D01*
X109161071Y-60090874D01*
X109727339Y-60129496D01*
X110424453Y-60147216D01*
X111203191Y-60145310D01*
X112014333Y-60125052D01*
X112808656Y-60087715D01*
X113536938Y-60034573D01*
X114149958Y-59966902D01*
X114194782Y-59960577D01*
X114710600Y-59874960D01*
X115320720Y-59756372D01*
X115944860Y-59621220D01*
X116447952Y-59500078D01*
X116962133Y-59357507D01*
X117431361Y-59212091D01*
X117521270Y-59184228D01*
X118095164Y-58991562D01*
X118653618Y-58790833D01*
X119166432Y-58593363D01*
X119603410Y-58410475D01*
X119934352Y-58253493D01*
X120129061Y-58133737D01*
X120152957Y-58110892D01*
X120257536Y-57971969D01*
X120390293Y-57780762D01*
X120999285Y-57780762D01*
X121066957Y-57886602D01*
X121246308Y-58064201D01*
X121501848Y-58279221D01*
X121566250Y-58329273D01*
X121822491Y-58548522D01*
X122161092Y-58871408D01*
X122547263Y-59263033D01*
X122946216Y-59688496D01*
X123176428Y-59944566D01*
X123991241Y-60855773D01*
X124710787Y-61633539D01*
X125348998Y-62289312D01*
X125919806Y-62834537D01*
X126437143Y-63280661D01*
X126914939Y-63639131D01*
X127367126Y-63921393D01*
X127807635Y-64138894D01*
X128250398Y-64303079D01*
X128598662Y-64399655D01*
X129106233Y-64486141D01*
X129680080Y-64526564D01*
X130246942Y-64519635D01*
X130733558Y-64464065D01*
X130846972Y-64439231D01*
X131049523Y-64383526D01*
X131173572Y-64315773D01*
X131228366Y-64200032D01*
X131223152Y-64000359D01*
X131167177Y-63680814D01*
X131111738Y-63410127D01*
X130848451Y-62494875D01*
X130441242Y-61555003D01*
X129913816Y-60635295D01*
X129289881Y-59780538D01*
X129032687Y-59482380D01*
X128776951Y-59161742D01*
X128663292Y-58925414D01*
X128693467Y-58780773D01*
X128854466Y-58735000D01*
X129007415Y-58808114D01*
X129238342Y-59013581D01*
X129527981Y-59330586D01*
X129857067Y-59738314D01*
X130146472Y-60130869D01*
X130801987Y-61209095D01*
X131308301Y-62376866D01*
X131652521Y-63603991D01*
X131672810Y-63704539D01*
X131748928Y-64093007D01*
X132085012Y-63814703D01*
X132315432Y-63568763D01*
X132557050Y-63222273D01*
X132720012Y-62929198D01*
X132858459Y-62635080D01*
X132945509Y-62395659D01*
X132992486Y-62152033D01*
X133010713Y-61845300D01*
X133011513Y-61416555D01*
X133011484Y-61412963D01*
X132924641Y-60356601D01*
X132690563Y-59319158D01*
X132322898Y-58320457D01*
X131835297Y-57380320D01*
X131241408Y-56518568D01*
X130554883Y-55755024D01*
X129789371Y-55109508D01*
X128958521Y-54601842D01*
X128081213Y-54253383D01*
X127608214Y-54160933D01*
X127028435Y-54116910D01*
X126409950Y-54121334D01*
X125820832Y-54174226D01*
X125412022Y-54252583D01*
X124637601Y-54523372D01*
X123842213Y-54929935D01*
X123078343Y-55442151D01*
X122520762Y-55911922D01*
X122150502Y-56277354D01*
X121796029Y-56659263D01*
X121480508Y-57029195D01*
X121227104Y-57358696D01*
X121058981Y-57619314D01*
X120999285Y-57780762D01*
X120390293Y-57780762D01*
X120430199Y-57723287D01*
X120641321Y-57407954D01*
X120747711Y-57245439D01*
X121435431Y-56327745D01*
X122230815Y-55513247D01*
X123110881Y-54818190D01*
X124052645Y-54258821D01*
X125033124Y-53851386D01*
X125843906Y-53643155D01*
X126149889Y-53581328D01*
X126365811Y-53509675D01*
X126544327Y-53395207D01*
X126738090Y-53204932D01*
X126975348Y-52934259D01*
X127480640Y-52312858D01*
X128010400Y-51603345D01*
X128514702Y-50875350D01*
X128943622Y-50198507D01*
X128975949Y-50143961D01*
X129360758Y-49490422D01*
X128800235Y-48828604D01*
X128076338Y-47863212D01*
X127473883Y-46813874D01*
X126985587Y-45663012D01*
X126604164Y-44393049D01*
X126322331Y-42986408D01*
X126289187Y-42769286D01*
X126228048Y-42217540D01*
X126182347Y-41523046D01*
X126152312Y-40723845D01*
X126138170Y-39857978D01*
X126140148Y-38963486D01*
X126158474Y-38078411D01*
X126193375Y-37240794D01*
X126245080Y-36488675D01*
X126251214Y-36419286D01*
X126303561Y-35857510D01*
X126347367Y-35451451D01*
X126388677Y-35175982D01*
X126433533Y-35005978D01*
X126487978Y-34916314D01*
X126558056Y-34881864D01*
X126622125Y-34877143D01*
X126737253Y-34894372D01*
X126804745Y-34967459D01*
X126830557Y-35128504D01*
X126820648Y-35409605D01*
X126788120Y-35771620D01*
X126760990Y-36090041D01*
X126728305Y-36545216D01*
X126692955Y-37092668D01*
X126657832Y-37687919D01*
X126629969Y-38204978D01*
X126587605Y-39936243D01*
X126646622Y-41524874D01*
X126808437Y-42979644D01*
X127074467Y-44309326D01*
X127446131Y-45522692D01*
X127924846Y-46628515D01*
X128021024Y-46814060D01*
X128255860Y-47226113D01*
X128521134Y-47644137D01*
X128797412Y-48042903D01*
X129065259Y-48397182D01*
X129305241Y-48681747D01*
X129497923Y-48871369D01*
X129623871Y-48940820D01*
X129650832Y-48929742D01*
X129724709Y-48800337D01*
X129847397Y-48538175D01*
X130003561Y-48180209D01*
X130177865Y-47763391D01*
X130354972Y-47324676D01*
X130519548Y-46901014D01*
X130656255Y-46529360D01*
X130701607Y-46397857D01*
X131095677Y-45094968D01*
X131383944Y-43832798D01*
X131573454Y-42562020D01*
X131671250Y-41233305D01*
X131684377Y-39797327D01*
X131679067Y-39553371D01*
X131639522Y-38554288D01*
X131570687Y-37678504D01*
X131464293Y-36869116D01*
X131312072Y-36069216D01*
X131105755Y-35221899D01*
X130986431Y-34786429D01*
X130398049Y-33029716D01*
X129646675Y-31342481D01*
X128740706Y-29734679D01*
X127688538Y-28216267D01*
X126498565Y-26797198D01*
X125179184Y-25487429D01*
X123738790Y-24296914D01*
X122185780Y-23235611D01*
X120528547Y-22313473D01*
X120424176Y-22261901D01*
X118754552Y-21520821D01*
X117091159Y-20944210D01*
X115400889Y-20523769D01*
X113650636Y-20251199D01*
X111882500Y-20120918D01*
X109950241Y-20137548D01*
X108046177Y-20330592D01*
X106180460Y-20695935D01*
X104363246Y-21229461D01*
X102604689Y-21927055D01*
X100914943Y-22784601D01*
X99304163Y-23797985D01*
X97782502Y-24963090D01*
X96360116Y-26275802D01*
X96141083Y-26500657D01*
X94886171Y-27934374D01*
X93789513Y-29456069D01*
X92850648Y-31066674D01*
X92069117Y-32767121D01*
X91444462Y-34558340D01*
X90976222Y-36441263D01*
X90822571Y-37281072D01*
X90731702Y-38018961D01*
X90674522Y-38883597D01*
X90650652Y-39823525D01*
X89115701Y-39823525D01*
X89132571Y-39001086D01*
X89174821Y-38167873D01*
X89240978Y-37443902D01*
X89279920Y-37157717D01*
X89675287Y-35176630D01*
X90233492Y-33275371D01*
X90953697Y-31455547D01*
X91835065Y-29718768D01*
X92876757Y-28066642D01*
X94077936Y-26500778D01*
X95437764Y-25022786D01*
X95768925Y-24699232D01*
X97266035Y-23388884D01*
X98866000Y-22226695D01*
X100563225Y-21215374D01*
X102352115Y-20357633D01*
X104227075Y-19656181D01*
X106182512Y-19113730D01*
X108027143Y-18760568D01*
X108577592Y-18696674D01*
X109263522Y-18647935D01*
X110042117Y-18614675D01*
X110870558Y-18597219D01*
X111706029Y-18595891D01*
X112505711Y-18611016D01*
G37*
G04 #@! TD.AperFunction*
D12*
X93700000Y-70800000D03*
X93700000Y-74000000D03*
X98600000Y-74000000D03*
X98600000Y-70800000D03*
X125200000Y-69700000D03*
X125200000Y-72900000D03*
X130100000Y-72900000D03*
X130100000Y-69700000D03*
D13*
X110660000Y-175900000D03*
X110660000Y-173360000D03*
X110660000Y-170820000D03*
X110660000Y-168280000D03*
X110660000Y-165740000D03*
X110660000Y-163200000D03*
X110660000Y-160660000D03*
X110660000Y-158120000D03*
X110660000Y-155580000D03*
X113200000Y-155580000D03*
X115740000Y-155580000D03*
X118280000Y-155580000D03*
X120820000Y-155580000D03*
X123360000Y-155580000D03*
X125900000Y-155580000D03*
X125900000Y-158120000D03*
X125900000Y-160660000D03*
X125900000Y-163200000D03*
X125900000Y-165740000D03*
X125900000Y-168280000D03*
X125900000Y-170820000D03*
X125900000Y-173360000D03*
X125900000Y-175900000D03*
D14*
X109180000Y-118600000D03*
X111720000Y-118600000D03*
X114260000Y-118600000D03*
X116800000Y-118600000D03*
D15*
X131900000Y-154100000D03*
X138400000Y-154100000D03*
X131900000Y-158600000D03*
X138400000Y-158600000D03*
X79800000Y-160700000D03*
X86300000Y-160700000D03*
X79800000Y-165200000D03*
X86300000Y-165200000D03*
X88600000Y-170600000D03*
X95100000Y-170600000D03*
X88600000Y-175100000D03*
X95100000Y-175100000D03*
D16*
X83100000Y-138000000D03*
D17*
X83100000Y-140000000D03*
X83100000Y-142000000D03*
X83100000Y-144000000D03*
D15*
X88600000Y-151000000D03*
X95100000Y-151000000D03*
X88600000Y-155500000D03*
X95100000Y-155500000D03*
X96600000Y-160700000D03*
X103100000Y-160700000D03*
X96600000Y-165200000D03*
X103100000Y-165200000D03*
X137500000Y-164900000D03*
X144000000Y-164900000D03*
X137500000Y-169400000D03*
X144000000Y-169400000D03*
D18*
X138700000Y-135800000D03*
D15*
X143700000Y-135800000D03*
D19*
X103200000Y-126400000D03*
X111900000Y-166900000D03*
X124100000Y-133500000D03*
X130100000Y-74800000D03*
X97000000Y-74000000D03*
X99900000Y-160700000D03*
X125200000Y-71400000D03*
X93700000Y-72300000D03*
X96800000Y-70800000D03*
X128300000Y-69700000D03*
X96000000Y-73200000D03*
X135600000Y-155400000D03*
X129700000Y-166700000D03*
X131900000Y-165300000D03*
D20*
X111900000Y-166900000D02*
X119440000Y-166900000D01*
X99900000Y-162000000D02*
X103100000Y-165200000D01*
X88600000Y-155500000D02*
X95100000Y-155500000D01*
D21*
X103200000Y-126400000D02*
X103200000Y-121200000D01*
D20*
X131900000Y-154100000D02*
X138400000Y-154100000D01*
X99900000Y-160700000D02*
X99900000Y-162000000D01*
D21*
X97000000Y-74000000D02*
X98600000Y-74000000D01*
X109180000Y-118600000D02*
X124080000Y-133500000D01*
X105800000Y-118600000D02*
X109180000Y-118600000D01*
X124080000Y-133500000D02*
X124100000Y-133500000D01*
D20*
X119440000Y-166900000D02*
X125900000Y-173360000D01*
D21*
X130100000Y-74800000D02*
X130100000Y-72900000D01*
X103200000Y-121200000D02*
X105800000Y-118600000D01*
D20*
X88600000Y-175100000D02*
X95100000Y-175100000D01*
X96600000Y-165200000D02*
X103100000Y-165200000D01*
X137500000Y-164900000D02*
X144000000Y-164900000D01*
X79800000Y-165200000D02*
X86300000Y-165200000D01*
D21*
X93700000Y-72300000D02*
X93700000Y-70800000D01*
X125200000Y-71400000D02*
X125200000Y-69700000D01*
D20*
X96800000Y-70800000D02*
X98600000Y-70800000D01*
X93700000Y-74000000D02*
X95200000Y-74000000D01*
X95200000Y-74000000D02*
X96000000Y-73200000D01*
X128300000Y-69700000D02*
X130100000Y-69700000D01*
X111835000Y-156755000D02*
X134245000Y-156755000D01*
X110660000Y-155580000D02*
X111835000Y-156755000D01*
X134245000Y-156755000D02*
X135600000Y-155400000D01*
X129700000Y-166700000D02*
X128120000Y-168280000D01*
X128120000Y-168280000D02*
X125900000Y-168280000D01*
X88600000Y-151000000D02*
X95100000Y-151000000D01*
X79800000Y-160700000D02*
X86300000Y-160700000D01*
X88600000Y-170600000D02*
X95100000Y-170600000D01*
X96600000Y-160700000D02*
X97700000Y-160700000D01*
X102300000Y-159900000D02*
X103100000Y-160700000D01*
X98500000Y-159900000D02*
X102300000Y-159900000D01*
X97700000Y-160700000D02*
X98500000Y-159900000D01*
X125900000Y-165740000D02*
X131460000Y-165740000D01*
X131460000Y-165740000D02*
X131900000Y-165300000D01*
X131900000Y-158600000D02*
X138400000Y-158600000D01*
X131300000Y-163200000D02*
X137500000Y-169400000D01*
X125900000Y-163200000D02*
X131300000Y-163200000D01*
X137500000Y-169400000D02*
X144000000Y-169400000D01*
G04 #@! TA.AperFunction,Conductor*
G36*
X124614663Y-157408185D02*
G01*
X124660418Y-157460989D01*
X124670362Y-157530147D01*
X124661180Y-157562310D01*
X124610703Y-157677385D01*
X124555436Y-157895628D01*
X124555434Y-157895640D01*
X124536844Y-158119994D01*
X124536844Y-158120005D01*
X124555434Y-158344359D01*
X124555436Y-158344371D01*
X124610703Y-158562614D01*
X124701140Y-158768792D01*
X124824276Y-158957265D01*
X124824284Y-158957276D01*
X124976756Y-159122902D01*
X124976760Y-159122906D01*
X125154424Y-159261189D01*
X125154429Y-159261191D01*
X125154431Y-159261193D01*
X125190930Y-159280946D01*
X125240520Y-159330165D01*
X125255628Y-159398382D01*
X125231457Y-159463937D01*
X125190930Y-159499054D01*
X125154431Y-159518806D01*
X125154422Y-159518812D01*
X124976761Y-159657092D01*
X124976756Y-159657097D01*
X124824284Y-159822723D01*
X124824276Y-159822734D01*
X124701140Y-160011207D01*
X124610703Y-160217385D01*
X124555436Y-160435628D01*
X124555434Y-160435640D01*
X124536844Y-160659994D01*
X124536844Y-160660005D01*
X124555434Y-160884359D01*
X124555436Y-160884371D01*
X124610703Y-161102614D01*
X124701140Y-161308792D01*
X124824276Y-161497265D01*
X124824284Y-161497276D01*
X124976756Y-161662902D01*
X124976760Y-161662906D01*
X125154424Y-161801189D01*
X125154429Y-161801191D01*
X125154431Y-161801193D01*
X125190930Y-161820946D01*
X125240520Y-161870165D01*
X125255628Y-161938382D01*
X125231457Y-162003937D01*
X125190930Y-162039054D01*
X125154431Y-162058806D01*
X125154422Y-162058812D01*
X124976761Y-162197092D01*
X124976756Y-162197097D01*
X124824284Y-162362723D01*
X124824276Y-162362734D01*
X124701140Y-162551207D01*
X124610703Y-162757385D01*
X124555436Y-162975628D01*
X124555434Y-162975640D01*
X124536844Y-163199994D01*
X124536844Y-163200005D01*
X124555434Y-163424359D01*
X124555436Y-163424371D01*
X124610703Y-163642614D01*
X124701140Y-163848792D01*
X124824276Y-164037265D01*
X124824284Y-164037276D01*
X124976756Y-164202902D01*
X124976760Y-164202906D01*
X125154424Y-164341189D01*
X125154429Y-164341191D01*
X125154431Y-164341193D01*
X125190930Y-164360946D01*
X125240520Y-164410165D01*
X125255628Y-164478382D01*
X125231457Y-164543937D01*
X125190930Y-164579054D01*
X125154431Y-164598806D01*
X125154422Y-164598812D01*
X124976761Y-164737092D01*
X124976756Y-164737097D01*
X124824284Y-164902723D01*
X124824276Y-164902734D01*
X124701140Y-165091207D01*
X124610703Y-165297385D01*
X124555436Y-165515628D01*
X124555434Y-165515640D01*
X124536844Y-165739994D01*
X124536844Y-165740005D01*
X124555434Y-165964359D01*
X124555436Y-165964371D01*
X124610703Y-166182614D01*
X124701140Y-166388792D01*
X124824276Y-166577265D01*
X124824284Y-166577276D01*
X124976756Y-166742902D01*
X124976760Y-166742906D01*
X125154424Y-166881189D01*
X125154429Y-166881191D01*
X125154431Y-166881193D01*
X125190930Y-166900946D01*
X125240520Y-166950165D01*
X125255628Y-167018382D01*
X125231457Y-167083937D01*
X125190930Y-167119054D01*
X125154431Y-167138806D01*
X125154422Y-167138812D01*
X124976761Y-167277092D01*
X124976756Y-167277097D01*
X124824284Y-167442723D01*
X124824276Y-167442734D01*
X124701140Y-167631207D01*
X124610703Y-167837385D01*
X124555436Y-168055628D01*
X124555434Y-168055640D01*
X124536844Y-168279994D01*
X124536844Y-168280005D01*
X124555434Y-168504359D01*
X124555436Y-168504371D01*
X124610703Y-168722614D01*
X124701140Y-168928792D01*
X124824276Y-169117265D01*
X124824284Y-169117276D01*
X124976756Y-169282902D01*
X124976760Y-169282906D01*
X125154424Y-169421189D01*
X125154429Y-169421191D01*
X125154431Y-169421193D01*
X125190930Y-169440946D01*
X125240520Y-169490165D01*
X125255628Y-169558382D01*
X125231457Y-169623937D01*
X125190930Y-169659054D01*
X125154431Y-169678806D01*
X125154422Y-169678812D01*
X124976761Y-169817092D01*
X124976756Y-169817097D01*
X124824284Y-169982723D01*
X124824276Y-169982734D01*
X124701140Y-170171207D01*
X124610703Y-170377385D01*
X124555436Y-170595628D01*
X124555434Y-170595640D01*
X124536844Y-170819994D01*
X124536844Y-170820005D01*
X124555434Y-171044359D01*
X124555436Y-171044371D01*
X124610703Y-171262614D01*
X124701140Y-171468792D01*
X124824276Y-171657265D01*
X124824284Y-171657276D01*
X124976756Y-171822902D01*
X124976760Y-171822906D01*
X125154424Y-171961189D01*
X125190930Y-171980945D01*
X125197695Y-171984606D01*
X125247286Y-172033825D01*
X125262394Y-172102042D01*
X125238224Y-172167597D01*
X125209802Y-172195236D01*
X125028922Y-172321890D01*
X125028920Y-172321891D01*
X124861891Y-172488920D01*
X124861886Y-172488926D01*
X124726400Y-172682420D01*
X124726399Y-172682422D01*
X124626570Y-172896507D01*
X124626567Y-172896513D01*
X124569364Y-173109999D01*
X124569364Y-173110000D01*
X125466988Y-173110000D01*
X125434075Y-173167007D01*
X125400000Y-173294174D01*
X125400000Y-173425826D01*
X125434075Y-173552993D01*
X125466988Y-173610000D01*
X124569364Y-173610000D01*
X124626567Y-173823486D01*
X124626570Y-173823492D01*
X124726399Y-174037578D01*
X124861894Y-174231082D01*
X125028917Y-174398105D01*
X125209802Y-174524763D01*
X125253427Y-174579340D01*
X125260619Y-174648839D01*
X125229097Y-174711193D01*
X125197697Y-174735392D01*
X125154427Y-174758809D01*
X125154422Y-174758812D01*
X124976761Y-174897092D01*
X124976756Y-174897097D01*
X124824284Y-175062723D01*
X124824276Y-175062734D01*
X124701140Y-175251207D01*
X124610703Y-175457385D01*
X124555436Y-175675628D01*
X124555434Y-175675640D01*
X124536844Y-175899994D01*
X124536844Y-175900005D01*
X124555434Y-176124359D01*
X124555436Y-176124371D01*
X124610703Y-176342614D01*
X124701140Y-176548792D01*
X124824276Y-176737265D01*
X124824284Y-176737276D01*
X124976756Y-176902902D01*
X124976760Y-176902906D01*
X125154424Y-177041189D01*
X125154425Y-177041189D01*
X125154427Y-177041191D01*
X125281135Y-177109761D01*
X125352426Y-177148342D01*
X125396504Y-177163474D01*
X125413821Y-177169419D01*
X125470837Y-177209804D01*
X125496968Y-177274603D01*
X125483917Y-177343243D01*
X125435828Y-177393931D01*
X125374248Y-177410698D01*
X110874907Y-177491250D01*
X110807759Y-177471938D01*
X110761712Y-177419389D01*
X110751384Y-177350287D01*
X110780055Y-177286571D01*
X110838623Y-177248471D01*
X110853800Y-177244944D01*
X110994635Y-177221444D01*
X111207574Y-177148342D01*
X111405576Y-177041189D01*
X111583240Y-176902906D01*
X111735722Y-176737268D01*
X111858860Y-176548791D01*
X111949296Y-176342616D01*
X112004564Y-176124368D01*
X112004565Y-176124359D01*
X112023156Y-175900005D01*
X112023156Y-175899994D01*
X112004565Y-175675640D01*
X112004563Y-175675628D01*
X111949296Y-175457385D01*
X111943993Y-175445296D01*
X111858860Y-175251209D01*
X111849106Y-175236280D01*
X111735723Y-175062734D01*
X111735715Y-175062723D01*
X111583243Y-174897097D01*
X111583238Y-174897092D01*
X111405577Y-174758812D01*
X111405578Y-174758812D01*
X111405576Y-174758811D01*
X111369070Y-174739055D01*
X111319479Y-174689836D01*
X111304371Y-174621619D01*
X111328541Y-174556064D01*
X111369070Y-174520945D01*
X111369084Y-174520936D01*
X111405576Y-174501189D01*
X111583240Y-174362906D01*
X111735722Y-174197268D01*
X111858860Y-174008791D01*
X111949296Y-173802616D01*
X112004564Y-173584368D01*
X112012715Y-173486000D01*
X112023156Y-173360005D01*
X112023156Y-173359994D01*
X112004565Y-173135640D01*
X112004563Y-173135628D01*
X111949296Y-172917385D01*
X111940138Y-172896507D01*
X111858860Y-172711209D01*
X111855580Y-172706189D01*
X111735723Y-172522734D01*
X111735715Y-172522723D01*
X111583243Y-172357097D01*
X111583238Y-172357092D01*
X111405577Y-172218812D01*
X111405578Y-172218812D01*
X111405576Y-172218811D01*
X111369070Y-172199055D01*
X111319479Y-172149836D01*
X111304371Y-172081619D01*
X111328541Y-172016064D01*
X111369070Y-171980945D01*
X111369084Y-171980936D01*
X111405576Y-171961189D01*
X111583240Y-171822906D01*
X111702644Y-171693200D01*
X111735715Y-171657276D01*
X111735717Y-171657273D01*
X111735722Y-171657268D01*
X111858860Y-171468791D01*
X111949296Y-171262616D01*
X112004564Y-171044368D01*
X112023156Y-170820000D01*
X112004564Y-170595632D01*
X111949296Y-170377384D01*
X111858860Y-170171209D01*
X111849106Y-170156280D01*
X111735723Y-169982734D01*
X111735715Y-169982723D01*
X111583243Y-169817097D01*
X111583238Y-169817092D01*
X111405577Y-169678812D01*
X111405578Y-169678812D01*
X111405576Y-169678811D01*
X111369070Y-169659055D01*
X111319479Y-169609836D01*
X111304371Y-169541619D01*
X111328541Y-169476064D01*
X111369070Y-169440945D01*
X111369084Y-169440936D01*
X111405576Y-169421189D01*
X111583240Y-169282906D01*
X111735722Y-169117268D01*
X111858860Y-168928791D01*
X111949296Y-168722616D01*
X112004564Y-168504368D01*
X112023156Y-168280000D01*
X112004564Y-168055632D01*
X111949296Y-167837384D01*
X111858860Y-167631209D01*
X111855989Y-167626815D01*
X111735723Y-167442734D01*
X111735715Y-167442723D01*
X111583243Y-167277097D01*
X111583238Y-167277092D01*
X111405577Y-167138812D01*
X111405578Y-167138812D01*
X111405576Y-167138811D01*
X111369070Y-167119055D01*
X111319479Y-167069836D01*
X111304371Y-167001619D01*
X111328541Y-166936064D01*
X111369070Y-166900945D01*
X111369084Y-166900936D01*
X111405576Y-166881189D01*
X111583240Y-166742906D01*
X111735722Y-166577268D01*
X111858860Y-166388791D01*
X111949296Y-166182616D01*
X112004564Y-165964368D01*
X112023156Y-165740000D01*
X112021670Y-165722068D01*
X112004565Y-165515640D01*
X112004563Y-165515628D01*
X111985392Y-165439925D01*
X111949296Y-165297384D01*
X111858860Y-165091209D01*
X111855989Y-165086815D01*
X111735723Y-164902734D01*
X111735715Y-164902723D01*
X111583243Y-164737097D01*
X111583238Y-164737092D01*
X111405577Y-164598812D01*
X111405578Y-164598812D01*
X111405576Y-164598811D01*
X111369070Y-164579055D01*
X111319479Y-164529836D01*
X111304371Y-164461619D01*
X111328541Y-164396064D01*
X111369070Y-164360945D01*
X111369084Y-164360936D01*
X111405576Y-164341189D01*
X111583240Y-164202906D01*
X111735722Y-164037268D01*
X111858860Y-163848791D01*
X111949296Y-163642616D01*
X112004564Y-163424368D01*
X112023156Y-163200000D01*
X112014721Y-163098208D01*
X112004565Y-162975640D01*
X112004563Y-162975628D01*
X111949296Y-162757385D01*
X111858859Y-162551207D01*
X111735723Y-162362734D01*
X111735715Y-162362723D01*
X111583243Y-162197097D01*
X111583238Y-162197092D01*
X111405577Y-162058812D01*
X111405578Y-162058812D01*
X111405576Y-162058811D01*
X111369070Y-162039055D01*
X111319479Y-161989836D01*
X111304371Y-161921619D01*
X111328541Y-161856064D01*
X111369070Y-161820945D01*
X111369084Y-161820936D01*
X111405576Y-161801189D01*
X111583240Y-161662906D01*
X111735722Y-161497268D01*
X111858860Y-161308791D01*
X111949296Y-161102616D01*
X112004564Y-160884368D01*
X112023156Y-160660000D01*
X112010849Y-160511483D01*
X112004565Y-160435640D01*
X112004563Y-160435628D01*
X111949296Y-160217385D01*
X111858859Y-160011207D01*
X111735723Y-159822734D01*
X111735715Y-159822723D01*
X111583243Y-159657097D01*
X111583238Y-159657092D01*
X111405577Y-159518812D01*
X111405578Y-159518812D01*
X111405576Y-159518811D01*
X111369070Y-159499055D01*
X111319479Y-159449836D01*
X111304371Y-159381619D01*
X111328541Y-159316064D01*
X111369070Y-159280945D01*
X111369084Y-159280936D01*
X111405576Y-159261189D01*
X111583240Y-159122906D01*
X111735722Y-158957268D01*
X111858860Y-158768791D01*
X111949296Y-158562616D01*
X112004564Y-158344368D01*
X112023156Y-158120000D01*
X112004564Y-157895632D01*
X111949296Y-157677384D01*
X111898819Y-157562309D01*
X111889917Y-157493010D01*
X111919894Y-157429898D01*
X111979234Y-157393011D01*
X112012376Y-157388500D01*
X124547624Y-157388500D01*
X124614663Y-157408185D01*
G37*
G04 #@! TD.AperFunction*
M02*
