G04 #@! TF.GenerationSoftware,KiCad,Pcbnew,8.0.5-8.0.5-0~ubuntu24.04.1*
G04 #@! TF.CreationDate,2024-10-08T07:53:09+09:00*
G04 #@! TF.ProjectId,gopher_party_rp2040_sw,676f7068-6572-45f7-9061-7274795f7270,rev?*
G04 #@! TF.SameCoordinates,Original*
G04 #@! TF.FileFunction,Legend,Bot*
G04 #@! TF.FilePolarity,Positive*
%FSLAX46Y46*%
G04 Gerber Fmt 4.6, Leading zero omitted, Abs format (unit mm)*
G04 Created by KiCad (PCBNEW 8.0.5-8.0.5-0~ubuntu24.04.1) date 2024-10-08 07:53:09*
%MOMM*%
%LPD*%
G01*
G04 APERTURE LIST*
%ADD10C,0.150000*%
%ADD11C,0.120000*%
G04 APERTURE END LIST*
D10*
X106929166Y-66404819D02*
X107262499Y-65928628D01*
X107500594Y-66404819D02*
X107500594Y-65404819D01*
X107500594Y-65404819D02*
X107119642Y-65404819D01*
X107119642Y-65404819D02*
X107024404Y-65452438D01*
X107024404Y-65452438D02*
X106976785Y-65500057D01*
X106976785Y-65500057D02*
X106929166Y-65595295D01*
X106929166Y-65595295D02*
X106929166Y-65738152D01*
X106929166Y-65738152D02*
X106976785Y-65833390D01*
X106976785Y-65833390D02*
X107024404Y-65881009D01*
X107024404Y-65881009D02*
X107119642Y-65928628D01*
X107119642Y-65928628D02*
X107500594Y-65928628D01*
X106548213Y-65500057D02*
X106500594Y-65452438D01*
X106500594Y-65452438D02*
X106405356Y-65404819D01*
X106405356Y-65404819D02*
X106167261Y-65404819D01*
X106167261Y-65404819D02*
X106072023Y-65452438D01*
X106072023Y-65452438D02*
X106024404Y-65500057D01*
X106024404Y-65500057D02*
X105976785Y-65595295D01*
X105976785Y-65595295D02*
X105976785Y-65690533D01*
X105976785Y-65690533D02*
X106024404Y-65833390D01*
X106024404Y-65833390D02*
X106595832Y-66404819D01*
X106595832Y-66404819D02*
X105976785Y-66404819D01*
D11*
X107021078Y-66890000D02*
X106503922Y-66890000D01*
X107021078Y-68310000D02*
X106503922Y-68310000D01*
M02*
