G04 #@! TF.GenerationSoftware,KiCad,Pcbnew,8.0.5-8.0.5-0~ubuntu24.04.1*
G04 #@! TF.CreationDate,2024-10-08T07:53:09+09:00*
G04 #@! TF.ProjectId,gopher_party_rp2040_sw,676f7068-6572-45f7-9061-7274795f7270,rev?*
G04 #@! TF.SameCoordinates,Original*
G04 #@! TF.FileFunction,Profile,NP*
%FSLAX46Y46*%
G04 Gerber Fmt 4.6, Leading zero omitted, Abs format (unit mm)*
G04 Created by KiCad (PCBNEW 8.0.5-8.0.5-0~ubuntu24.04.1) date 2024-10-08 07:53:09*
%MOMM*%
%LPD*%
G01*
G04 APERTURE LIST*
G04 #@! TA.AperFunction,Profile*
%ADD10C,0.050000*%
G04 #@! TD*
G04 APERTURE END LIST*
D10*
X61780000Y-122360000D02*
X61810000Y-121790000D01*
X61810000Y-121790000D02*
X61940000Y-121240000D01*
X61850000Y-122840000D02*
X61780000Y-122360000D01*
X61890000Y-122940000D02*
X61850000Y-122840000D01*
X61940000Y-121240000D02*
X62050000Y-120990000D01*
X62040000Y-123170000D02*
X61890000Y-122940000D01*
X62050000Y-120990000D02*
X62280000Y-120610000D01*
X62280000Y-120610000D02*
X62580000Y-120240000D01*
X62360000Y-123550000D02*
X62040000Y-123170000D01*
X62580000Y-120240000D02*
X63010000Y-119770000D01*
X62670000Y-123840000D02*
X62360000Y-123550000D01*
X62860000Y-70600000D02*
X62870000Y-70100000D01*
X62870000Y-70100000D02*
X62880000Y-69420000D01*
X62880000Y-69420000D02*
X63080000Y-68190000D01*
X62930000Y-71390000D02*
X62860000Y-70600000D01*
X62960000Y-124060000D02*
X62670000Y-123840000D01*
X63010000Y-119770000D02*
X63510000Y-119280000D01*
X63040000Y-124140000D02*
X62960000Y-124060000D01*
X63070000Y-72150000D02*
X62930000Y-71390000D01*
X63080000Y-68190000D02*
X63440000Y-67010000D01*
X63180000Y-124370000D02*
X63040000Y-124140000D01*
X63270000Y-72730000D02*
X63070000Y-72150000D01*
X63440000Y-67010000D02*
X63910000Y-66010000D01*
X63490000Y-124940000D02*
X63180000Y-124370000D01*
X63510000Y-119280000D02*
X64050000Y-118830000D01*
X63620000Y-73550000D02*
X63270000Y-72730000D01*
X63910000Y-66010000D02*
X64120000Y-65630000D01*
X63910000Y-125330000D02*
X63490000Y-124940000D01*
X63980000Y-74240000D02*
X63620000Y-73550000D01*
X64050000Y-118830000D02*
X64540000Y-118470000D01*
X64120000Y-65630000D02*
X64730000Y-64790000D01*
X64210000Y-125500000D02*
X63910000Y-125330000D01*
X64450000Y-125580000D02*
X64210000Y-125500000D01*
X64490000Y-75010000D02*
X63980000Y-74240000D01*
X64540000Y-118470000D02*
X65640000Y-117840000D01*
X64730000Y-64790000D02*
X65460000Y-63980000D01*
X64830000Y-125610000D02*
X64450000Y-125580000D01*
X65020000Y-75630000D02*
X64490000Y-75010000D01*
X65460000Y-63980000D02*
X66250000Y-63240000D01*
X65520000Y-125610000D02*
X64830000Y-125610000D01*
X65640000Y-117840000D02*
X65730000Y-117790000D01*
X65700000Y-76260000D02*
X65020000Y-75630000D01*
X65730000Y-117790000D02*
X66880000Y-117300000D01*
X65850000Y-125580000D02*
X65520000Y-125610000D01*
X66170000Y-125520000D02*
X65850000Y-125580000D01*
X66250000Y-63240000D02*
X67150000Y-62560000D01*
X66650000Y-76900000D02*
X65700000Y-76260000D01*
X66870000Y-125200000D02*
X66170000Y-125520000D01*
X66880000Y-117300000D02*
X68040000Y-116990000D01*
X67150000Y-62560000D02*
X67460000Y-62350000D01*
X67320000Y-77270000D02*
X66650000Y-76900000D01*
X67320000Y-124970000D02*
X66870000Y-125200000D01*
X67460000Y-62350000D02*
X68110000Y-61950000D01*
X67530000Y-124850000D02*
X67320000Y-124970000D01*
X68040000Y-116990000D02*
X69210000Y-116840000D01*
X68090000Y-124510000D02*
X67530000Y-124850000D01*
X68110000Y-61950000D02*
X68980000Y-61530000D01*
X68450000Y-77770000D02*
X67320000Y-77270000D01*
X68570000Y-124200000D02*
X68090000Y-124510000D01*
X68980000Y-61530000D02*
X70130000Y-61110000D01*
X69110000Y-123820000D02*
X68570000Y-124200000D01*
X69210000Y-116840000D02*
X70010000Y-116790000D01*
X69220000Y-78060000D02*
X68450000Y-77770000D01*
X69280000Y-94250000D02*
X69310000Y-93280000D01*
X69280000Y-95880000D02*
X69280000Y-94250000D01*
X69310000Y-93280000D02*
X69360000Y-91520000D01*
X69310000Y-98550000D02*
X69280000Y-95880000D01*
X69330000Y-99490000D02*
X69310000Y-98550000D01*
X69360000Y-91520000D02*
X69410000Y-90400000D01*
X69380000Y-101130000D02*
X69330000Y-99490000D01*
X69390000Y-145480000D02*
X69400000Y-144680000D01*
X69390000Y-145750000D02*
X69390000Y-145480000D01*
X69390000Y-146310000D02*
X69390000Y-145750000D01*
X69390000Y-146830000D02*
X69390000Y-146310000D01*
X69400000Y-101900000D02*
X69380000Y-101130000D01*
X69400000Y-144680000D02*
X69410000Y-144260000D01*
X69400000Y-147450000D02*
X69390000Y-146830000D01*
X69410000Y-90400000D02*
X69500000Y-89000000D01*
X69410000Y-144260000D02*
X69420000Y-143790000D01*
X69420000Y-143790000D02*
X69430000Y-143290000D01*
X69420000Y-148330000D02*
X69400000Y-147450000D01*
X69430000Y-143290000D02*
X69460000Y-142550000D01*
X69450000Y-103320000D02*
X69400000Y-101900000D01*
X69450000Y-149090000D02*
X69420000Y-148330000D01*
X69460000Y-142550000D02*
X69480000Y-141790000D01*
X69470000Y-103990000D02*
X69450000Y-103320000D01*
X69470000Y-149560000D02*
X69450000Y-149090000D01*
X69480000Y-141790000D02*
X69510000Y-141080000D01*
X69500000Y-89000000D02*
X69590000Y-87740000D01*
X69510000Y-104760000D02*
X69470000Y-103990000D01*
X69510000Y-141080000D02*
X69530000Y-140540000D01*
X69530000Y-140540000D02*
X69550000Y-140180000D01*
X69550000Y-140180000D02*
X69580000Y-139510000D01*
X69570000Y-106170000D02*
X69510000Y-104760000D01*
X69580000Y-139510000D02*
X69610000Y-139140000D01*
X69590000Y-87740000D02*
X69710000Y-86540000D01*
X69600000Y-106940000D02*
X69570000Y-106170000D01*
X69600000Y-151000000D02*
X69470000Y-149560000D01*
X69610000Y-139140000D02*
X69630000Y-138740000D01*
X69630000Y-138740000D02*
X69650000Y-138320000D01*
X69650000Y-138320000D02*
X69680000Y-137920000D01*
X69660000Y-108070000D02*
X69600000Y-106940000D01*
X69680000Y-137920000D02*
X69730000Y-137190000D01*
X69700000Y-152120000D02*
X69600000Y-151000000D01*
X69710000Y-86540000D02*
X69780000Y-85890000D01*
X69730000Y-123310000D02*
X69110000Y-123820000D01*
X69730000Y-137190000D02*
X69760000Y-136720000D01*
X69760000Y-136720000D02*
X69800000Y-136030000D01*
X69780000Y-85890000D02*
X69860000Y-85140000D01*
X69800000Y-110830000D02*
X69660000Y-108070000D01*
X69800000Y-136030000D02*
X69830000Y-135530000D01*
X69830000Y-135530000D02*
X69870000Y-134940000D01*
X69860000Y-85140000D02*
X69980000Y-84260000D01*
X69870000Y-134940000D02*
X69900000Y-134370000D01*
X69890000Y-78300000D02*
X69220000Y-78060000D01*
X69900000Y-113100000D02*
X69800000Y-110830000D01*
X69900000Y-134370000D02*
X70010000Y-132440000D01*
X69910000Y-153580000D02*
X69700000Y-152120000D01*
X69980000Y-84260000D02*
X70110000Y-83460000D01*
X70010000Y-116790000D02*
X70090000Y-116790000D01*
X70010000Y-132440000D02*
X70060000Y-131410000D01*
X70020000Y-115600000D02*
X69900000Y-113100000D01*
X70050000Y-154570000D02*
X69910000Y-153580000D01*
X70060000Y-116390000D02*
X70020000Y-115600000D01*
X70060000Y-131410000D02*
X70120000Y-130190000D01*
X70080000Y-122980000D02*
X69730000Y-123310000D01*
X70090000Y-116790000D02*
X70060000Y-116390000D01*
X70110000Y-83460000D02*
X70300000Y-82260000D01*
X70120000Y-130190000D02*
X70150000Y-129230000D01*
X70130000Y-61110000D02*
X71390000Y-60800000D01*
X70150000Y-129230000D02*
X70180000Y-128150000D01*
X70180000Y-128150000D02*
X70200000Y-127360000D01*
X70200000Y-127360000D02*
X70230000Y-125850000D01*
X70200000Y-155360000D02*
X70050000Y-154570000D01*
X70230000Y-125850000D02*
X70260000Y-124330000D01*
X70260000Y-124330000D02*
X70270000Y-123400000D01*
X70270000Y-123400000D02*
X70280000Y-122940000D01*
X70280000Y-122940000D02*
X70300000Y-122780000D01*
X70300000Y-82260000D02*
X70540000Y-80860000D01*
X70300000Y-122780000D02*
X70080000Y-122980000D01*
X70380000Y-78450000D02*
X69890000Y-78300000D01*
X70540000Y-80860000D02*
X70720000Y-79960000D01*
X70720000Y-79960000D02*
X70840000Y-79340000D01*
X70840000Y-79340000D02*
X70910000Y-78980000D01*
X70910000Y-78980000D02*
X70940000Y-78730000D01*
X70920000Y-78610000D02*
X70380000Y-78450000D01*
X70940000Y-78730000D02*
X70920000Y-78610000D01*
X71000000Y-158760000D02*
X70200000Y-155360000D01*
X71220000Y-159600000D02*
X71000000Y-158760000D01*
X71390000Y-60800000D02*
X72540000Y-60630000D01*
X71670000Y-160870000D02*
X71220000Y-159600000D01*
X71960000Y-161710000D02*
X71670000Y-160870000D01*
X72360000Y-162640000D02*
X71960000Y-161710000D01*
X72540000Y-60630000D02*
X73760000Y-60570000D01*
X72770000Y-163600000D02*
X72360000Y-162640000D01*
X72930000Y-178080000D02*
X72940000Y-177970000D01*
X72940000Y-177970000D02*
X72990000Y-177550000D01*
X72990000Y-177550000D02*
X73020000Y-177320000D01*
X73020000Y-177320000D02*
X73290000Y-176560000D01*
X73020000Y-178810000D02*
X72930000Y-178080000D01*
X73250000Y-164510000D02*
X72770000Y-163600000D01*
X73290000Y-176560000D02*
X73770000Y-175760000D01*
X73310000Y-179570000D02*
X73020000Y-178810000D01*
X73380000Y-179710000D02*
X73310000Y-179570000D01*
X73460000Y-179830000D02*
X73380000Y-179710000D01*
X73720000Y-180190000D02*
X73460000Y-179830000D01*
X73760000Y-60570000D02*
X74920000Y-60620000D01*
X73770000Y-175760000D02*
X74140000Y-175310000D01*
X73780000Y-165530000D02*
X73250000Y-164510000D01*
X74140000Y-175310000D02*
X74550000Y-174820000D01*
X74200000Y-166200000D02*
X73780000Y-165530000D01*
X74200000Y-180710000D02*
X73720000Y-180190000D01*
X74550000Y-174820000D02*
X75020000Y-174370000D01*
X74590000Y-181060000D02*
X74200000Y-180710000D01*
X74920000Y-60620000D02*
X76060000Y-60790000D01*
X74980000Y-167420000D02*
X74200000Y-166200000D01*
X75020000Y-174370000D02*
X75630000Y-173850000D01*
X75020000Y-181390000D02*
X74590000Y-181060000D01*
X75410000Y-181610000D02*
X75020000Y-181390000D01*
X75480000Y-168090000D02*
X74980000Y-167420000D01*
X75630000Y-173850000D02*
X76490000Y-173180000D01*
X75740000Y-181720000D02*
X75410000Y-181610000D01*
X75860000Y-168590000D02*
X75480000Y-168090000D01*
X76050000Y-181780000D02*
X75740000Y-181720000D01*
X76060000Y-60790000D02*
X77040000Y-61050000D01*
X76260000Y-169120000D02*
X75860000Y-168590000D01*
X76480000Y-169370000D02*
X76260000Y-169120000D01*
X76490000Y-173180000D02*
X77040000Y-172790000D01*
X76490000Y-181810000D02*
X76050000Y-181780000D01*
X76920000Y-181790000D02*
X76490000Y-181810000D01*
X76980000Y-169940000D02*
X76480000Y-169370000D01*
X77040000Y-61050000D02*
X77980000Y-61440000D01*
X77040000Y-172790000D02*
X77500000Y-172500000D01*
X77350000Y-170350000D02*
X76980000Y-169940000D01*
X77400000Y-181750000D02*
X76920000Y-181790000D01*
X77500000Y-172500000D02*
X77970000Y-172200000D01*
X77730000Y-170780000D02*
X77350000Y-170350000D01*
X77850000Y-181670000D02*
X77400000Y-181750000D01*
X77970000Y-172200000D02*
X78250000Y-172030000D01*
X77980000Y-61440000D02*
X78760000Y-61910000D01*
X78040000Y-171100000D02*
X77730000Y-170780000D01*
X78250000Y-172030000D02*
X78440000Y-171910000D01*
X78300000Y-171370000D02*
X78040000Y-171100000D01*
X78360000Y-181520000D02*
X77850000Y-181670000D01*
X78440000Y-171910000D02*
X78530000Y-171850000D01*
X78530000Y-171850000D02*
X78640000Y-171780000D01*
X78590000Y-171690000D02*
X78300000Y-171370000D01*
X78640000Y-171780000D02*
X78650000Y-171770000D01*
X78650000Y-171770000D02*
X78590000Y-171690000D01*
X78760000Y-61910000D02*
X79210000Y-62290000D01*
X78850000Y-181320000D02*
X78360000Y-181520000D01*
X79210000Y-62290000D02*
X79500000Y-62560000D01*
X79210000Y-181140000D02*
X78850000Y-181320000D01*
X79500000Y-62560000D02*
X79520000Y-62590000D01*
X79520000Y-62590000D02*
X79840000Y-62300000D01*
X79840000Y-62300000D02*
X80340000Y-61860000D01*
X79890000Y-180770000D02*
X79210000Y-181140000D01*
X80340000Y-61860000D02*
X81180000Y-61180000D01*
X80490000Y-180390000D02*
X79890000Y-180770000D01*
X81180000Y-61180000D02*
X81990000Y-60530000D01*
X81180000Y-179940000D02*
X80490000Y-180390000D01*
X81910000Y-179450000D02*
X81180000Y-179940000D01*
X81990000Y-60530000D02*
X82850000Y-59930000D01*
X82850000Y-59930000D02*
X83330000Y-59610000D01*
X82910000Y-178740000D02*
X81910000Y-179450000D01*
X83330000Y-59610000D02*
X83900000Y-59220000D01*
X83780000Y-178140000D02*
X82910000Y-178740000D01*
X83900000Y-59220000D02*
X84730000Y-58740000D01*
X84730000Y-58740000D02*
X85340000Y-58400000D01*
X84740000Y-177520000D02*
X83780000Y-178140000D01*
X85340000Y-58400000D02*
X85850000Y-58100000D01*
X85490000Y-177060000D02*
X84740000Y-177520000D01*
X85850000Y-58100000D02*
X86680000Y-57720000D01*
X85980000Y-176820000D02*
X85490000Y-177060000D01*
X86120000Y-176780000D02*
X85980000Y-176820000D01*
X86230000Y-176790000D02*
X86120000Y-176780000D01*
X86310000Y-176850000D02*
X86230000Y-176790000D01*
X86520000Y-176980000D02*
X86310000Y-176850000D01*
X86680000Y-57720000D02*
X87710000Y-57240000D01*
X86960000Y-177190000D02*
X86520000Y-176980000D01*
X87710000Y-57240000D02*
X87930000Y-57140000D01*
X87920000Y-177600000D02*
X86960000Y-177190000D01*
X87930000Y-57140000D02*
X88880000Y-56790000D01*
X88880000Y-56790000D02*
X89640000Y-56510000D01*
X89170000Y-178060000D02*
X87920000Y-177600000D01*
X89640000Y-56510000D02*
X90040000Y-56360000D01*
X90040000Y-56360000D02*
X90370000Y-56250000D01*
X90370000Y-56250000D02*
X90860000Y-56100000D01*
X90860000Y-56100000D02*
X91360000Y-55950000D01*
X91040000Y-178690000D02*
X89170000Y-178060000D01*
X91360000Y-55950000D02*
X91940000Y-54640000D01*
X91940000Y-54640000D02*
X93040000Y-52270000D01*
X92680000Y-179180000D02*
X91040000Y-178690000D01*
X93040000Y-52270000D02*
X94270000Y-49570000D01*
X94270000Y-49570000D02*
X94950000Y-48090000D01*
X94950000Y-48090000D02*
X95760000Y-46300000D01*
X95430000Y-179830000D02*
X92680000Y-179180000D01*
X95760000Y-46300000D02*
X97280000Y-42960000D01*
X96370000Y-179990000D02*
X95430000Y-179830000D01*
X97280000Y-42960000D02*
X98870000Y-39480000D01*
X98340000Y-180350000D02*
X96370000Y-179990000D01*
X98870000Y-39480000D02*
X101930000Y-32770000D01*
X99260000Y-180470000D02*
X98340000Y-180350000D01*
X101120000Y-180720000D02*
X99260000Y-180470000D01*
X101700000Y-180770000D02*
X101120000Y-180720000D01*
X101930000Y-32770000D02*
X105090000Y-25890000D01*
X102710000Y-180830000D02*
X101700000Y-180770000D01*
X103600000Y-180860000D02*
X102710000Y-180830000D01*
X104960000Y-180920000D02*
X103600000Y-180860000D01*
X105090000Y-25890000D02*
X106330000Y-23220000D01*
X106330000Y-23220000D02*
X107320000Y-21240000D01*
X106630000Y-180930000D02*
X104960000Y-180920000D01*
X107320000Y-21240000D02*
X107470000Y-21050000D01*
X107470000Y-21050000D02*
X107520000Y-21000000D01*
X107520000Y-21000000D02*
X107550000Y-20980000D01*
X107550000Y-20980000D02*
X107730000Y-21040000D01*
X107730000Y-21040000D02*
X107910000Y-21270000D01*
X107900000Y-180930000D02*
X106630000Y-180930000D01*
X107910000Y-21270000D02*
X108080000Y-21630000D01*
X108080000Y-21630000D02*
X108740000Y-22810000D01*
X108740000Y-22810000D02*
X110760000Y-26240000D01*
X109410000Y-180920000D02*
X107900000Y-180930000D01*
X110570000Y-180860000D02*
X109410000Y-180920000D01*
X110760000Y-26240000D02*
X112570000Y-29320000D01*
X112430000Y-180680000D02*
X110570000Y-180860000D01*
X112570000Y-29320000D02*
X114660000Y-32840000D01*
X114660000Y-32840000D02*
X115640000Y-34500000D01*
X114920000Y-180440000D02*
X112430000Y-180680000D01*
X115640000Y-34500000D02*
X116390000Y-35770000D01*
X115740000Y-180310000D02*
X114920000Y-180440000D01*
X116390000Y-35770000D02*
X118500000Y-39340000D01*
X118500000Y-39340000D02*
X121630000Y-44630000D01*
X118570000Y-179900000D02*
X115740000Y-180310000D01*
X120720000Y-179460000D02*
X118570000Y-179900000D01*
X121630000Y-44630000D02*
X122890000Y-46750000D01*
X122600000Y-179070000D02*
X120720000Y-179460000D01*
X122890000Y-46750000D02*
X124350000Y-49240000D01*
X124350000Y-49240000D02*
X126600000Y-53030000D01*
X125110000Y-178420000D02*
X122600000Y-179070000D01*
X126120000Y-178140000D02*
X125110000Y-178420000D01*
X126600000Y-53030000D02*
X127700000Y-54890000D01*
X127670000Y-177660000D02*
X126120000Y-178140000D01*
X127700000Y-54890000D02*
X128210000Y-55740000D01*
X128210000Y-55740000D02*
X128270000Y-55840000D01*
X128270000Y-55840000D02*
X129130000Y-56230000D01*
X129020000Y-177240000D02*
X127670000Y-177660000D01*
X129130000Y-56230000D02*
X129740000Y-56510000D01*
X129700000Y-177030000D02*
X129020000Y-177240000D01*
X129740000Y-56510000D02*
X131080000Y-57150000D01*
X131040000Y-176540000D02*
X129700000Y-177030000D01*
X131080000Y-57150000D02*
X132070000Y-57720000D01*
X131570000Y-176350000D02*
X131040000Y-176540000D01*
X132070000Y-57720000D02*
X132810000Y-58140000D01*
X132520000Y-176000000D02*
X131570000Y-176350000D01*
X132810000Y-58140000D02*
X133350000Y-58480000D01*
X133350000Y-58480000D02*
X134390000Y-59180000D01*
X133410000Y-175660000D02*
X132520000Y-176000000D01*
X134390000Y-59180000D02*
X135360000Y-59870000D01*
X134520000Y-175220000D02*
X133410000Y-175660000D01*
X134910000Y-175070000D02*
X134520000Y-175220000D01*
X135140000Y-174980000D02*
X134910000Y-175070000D01*
X135360000Y-59870000D02*
X135890000Y-60290000D01*
X135500000Y-175270000D02*
X135140000Y-174980000D01*
X135870000Y-175610000D02*
X135500000Y-175270000D01*
X135890000Y-60290000D02*
X136210000Y-60540000D01*
X136210000Y-60540000D02*
X136970000Y-60220000D01*
X136210000Y-175950000D02*
X135870000Y-175610000D01*
X136630000Y-176370000D02*
X136210000Y-175950000D01*
X136970000Y-60220000D02*
X137870000Y-59880000D01*
X137240000Y-177000000D02*
X136630000Y-176370000D01*
X137870000Y-59880000D02*
X138730000Y-59560000D01*
X137900000Y-177680000D02*
X137240000Y-177000000D01*
X138450000Y-178240000D02*
X137900000Y-177680000D01*
X138730000Y-59560000D02*
X140030000Y-59180000D01*
X139500000Y-179280000D02*
X138450000Y-178240000D01*
X140030000Y-59180000D02*
X141330000Y-58920000D01*
X140060000Y-179770000D02*
X139500000Y-179280000D01*
X140730000Y-180290000D02*
X140060000Y-179770000D01*
X141220000Y-180590000D02*
X140730000Y-180290000D01*
X141330000Y-58920000D02*
X142610000Y-58780000D01*
X141570000Y-169910000D02*
X141570000Y-170000000D01*
X141570000Y-170000000D02*
X141720000Y-170090000D01*
X141610000Y-180800000D02*
X141220000Y-180590000D01*
X141720000Y-170090000D02*
X142120000Y-170230000D01*
X141790000Y-169490000D02*
X141570000Y-169910000D01*
X142030000Y-169050000D02*
X141790000Y-169490000D01*
X142120000Y-170230000D02*
X142740000Y-170480000D01*
X142140000Y-181030000D02*
X141610000Y-180800000D01*
X142300000Y-168570000D02*
X142030000Y-169050000D01*
X142610000Y-58780000D02*
X143750000Y-58740000D01*
X142640000Y-167950000D02*
X142300000Y-168570000D01*
X142740000Y-170480000D02*
X143570000Y-170970000D01*
X143000000Y-167320000D02*
X142640000Y-167950000D01*
X143050000Y-181280000D02*
X142140000Y-181030000D01*
X143460000Y-166530000D02*
X143000000Y-167320000D01*
X143570000Y-170970000D02*
X144080000Y-171350000D01*
X143750000Y-58740000D02*
X144930000Y-58780000D01*
X143810000Y-181340000D02*
X143050000Y-181280000D01*
X143930000Y-165700000D02*
X143460000Y-166530000D01*
X144080000Y-171350000D02*
X144400000Y-171600000D01*
X144400000Y-171600000D02*
X145010000Y-172190000D01*
X144530000Y-181230000D02*
X143810000Y-181340000D01*
X144580000Y-164570000D02*
X143930000Y-165700000D01*
X144930000Y-58780000D02*
X145960000Y-58900000D01*
X144970000Y-163860000D02*
X144580000Y-164570000D01*
X145010000Y-172190000D02*
X145150000Y-172320000D01*
X145150000Y-172320000D02*
X145810000Y-173120000D01*
X145350000Y-180920000D02*
X144530000Y-181230000D01*
X145730000Y-162440000D02*
X144970000Y-163860000D01*
X145810000Y-173120000D02*
X146230000Y-173760000D01*
X145960000Y-58900000D02*
X146890000Y-59120000D01*
X146040000Y-180430000D02*
X145350000Y-180920000D01*
X146120000Y-76660000D02*
X146270000Y-77310000D01*
X146230000Y-173760000D02*
X146710000Y-174710000D01*
X146270000Y-77310000D02*
X146590000Y-78730000D01*
X146420000Y-161040000D02*
X145730000Y-162440000D01*
X146550000Y-179850000D02*
X146040000Y-180430000D01*
X146590000Y-78730000D02*
X146780000Y-79660000D01*
X146630000Y-76470000D02*
X146120000Y-76660000D01*
X146710000Y-174710000D02*
X146900000Y-175250000D01*
X146780000Y-79660000D02*
X147030000Y-81050000D01*
X146890000Y-59120000D02*
X147040000Y-59170000D01*
X146900000Y-175250000D02*
X147040000Y-175650000D01*
X146920000Y-179170000D02*
X146550000Y-179850000D01*
X146970000Y-159790000D02*
X146420000Y-161040000D01*
X147030000Y-81050000D02*
X147260000Y-82620000D01*
X147040000Y-59170000D02*
X147760000Y-59430000D01*
X147040000Y-175650000D02*
X147230000Y-176620000D01*
X147170000Y-178380000D02*
X146920000Y-179170000D01*
X147230000Y-176620000D02*
X147270000Y-177500000D01*
X147240000Y-76270000D02*
X146630000Y-76470000D01*
X147260000Y-82620000D02*
X147380000Y-83600000D01*
X147270000Y-177500000D02*
X147170000Y-178380000D01*
X147380000Y-83600000D02*
X147490000Y-84680000D01*
X147490000Y-84680000D02*
X147630000Y-86460000D01*
X147590000Y-158110000D02*
X146970000Y-159790000D01*
X147630000Y-86460000D02*
X147750000Y-88780000D01*
X147720000Y-105800000D02*
X147730000Y-107610000D01*
X147730000Y-107610000D02*
X147740000Y-108750000D01*
X147740000Y-108750000D02*
X147790000Y-110320000D01*
X147750000Y-88780000D02*
X147800000Y-90800000D01*
X147760000Y-59430000D02*
X148210000Y-59650000D01*
X147760000Y-102890000D02*
X147720000Y-105800000D01*
X147770000Y-101620000D02*
X147760000Y-102890000D01*
X147790000Y-110320000D02*
X147810000Y-111170000D01*
X147800000Y-90800000D02*
X147850000Y-94470000D01*
X147800000Y-99570000D02*
X147770000Y-101620000D01*
X147810000Y-111170000D02*
X147850000Y-112050000D01*
X147830000Y-97170000D02*
X147800000Y-99570000D01*
X147850000Y-94470000D02*
X147830000Y-97170000D01*
X147850000Y-112050000D02*
X147900000Y-112860000D01*
X147870000Y-157250000D02*
X147590000Y-158110000D01*
X147900000Y-112860000D02*
X147940000Y-113530000D01*
X147940000Y-113530000D02*
X148010000Y-114680000D01*
X148010000Y-114680000D02*
X148080000Y-115580000D01*
X148080000Y-115580000D02*
X148100000Y-115900000D01*
X148100000Y-115900000D02*
X148470000Y-116170000D01*
X148180000Y-156130000D02*
X147870000Y-157250000D01*
X148210000Y-59650000D02*
X148720000Y-59910000D01*
X148340000Y-75790000D02*
X147240000Y-76270000D01*
X148340000Y-121890000D02*
X148340000Y-122430000D01*
X148340000Y-122430000D02*
X148350000Y-123160000D01*
X148350000Y-123160000D02*
X148370000Y-123850000D01*
X148370000Y-121340000D02*
X148340000Y-121890000D01*
X148370000Y-123850000D02*
X148410000Y-124810000D01*
X148410000Y-120910000D02*
X148370000Y-121340000D01*
X148410000Y-124810000D02*
X148480000Y-126150000D01*
X148460000Y-120580000D02*
X148410000Y-120910000D01*
X148460000Y-154820000D02*
X148180000Y-156130000D01*
X148470000Y-116170000D02*
X148940000Y-116610000D01*
X148480000Y-126150000D02*
X148550000Y-127500000D01*
X148520000Y-120320000D02*
X148460000Y-120580000D01*
X148550000Y-127500000D02*
X148650000Y-129070000D01*
X148610000Y-120100000D02*
X148520000Y-120320000D01*
X148650000Y-129070000D02*
X148820000Y-131590000D01*
X148690000Y-153500000D02*
X148460000Y-154820000D01*
X148720000Y-59910000D02*
X149310000Y-60330000D01*
X148720000Y-119920000D02*
X148610000Y-120100000D01*
X148820000Y-131590000D02*
X148910000Y-132790000D01*
X148910000Y-132790000D02*
X148970000Y-133690000D01*
X148910000Y-151880000D02*
X148690000Y-153500000D01*
X148940000Y-116610000D02*
X149260000Y-117160000D01*
X148970000Y-119510000D02*
X148720000Y-119920000D01*
X148970000Y-133690000D02*
X149060000Y-135130000D01*
X149060000Y-135130000D02*
X149170000Y-136860000D01*
X149080000Y-150300000D02*
X148910000Y-151880000D01*
X149160000Y-149370000D02*
X149080000Y-150300000D01*
X149170000Y-136860000D02*
X149220000Y-137780000D01*
X149190000Y-119070000D02*
X148970000Y-119510000D01*
X149220000Y-137780000D02*
X149270000Y-138790000D01*
X149260000Y-117160000D02*
X149420000Y-117780000D01*
X149260000Y-148220000D02*
X149160000Y-149370000D01*
X149270000Y-138790000D02*
X149330000Y-140190000D01*
X149310000Y-60330000D02*
X149630000Y-60570000D01*
X149320000Y-147200000D02*
X149260000Y-148220000D01*
X149330000Y-140190000D02*
X149390000Y-141730000D01*
X149340000Y-75130000D02*
X148340000Y-75790000D01*
X149390000Y-118430000D02*
X149190000Y-119070000D01*
X149390000Y-141730000D02*
X149420000Y-143810000D01*
X149400000Y-145300000D02*
X149320000Y-147200000D01*
X149420000Y-117780000D02*
X149390000Y-118430000D01*
X149420000Y-143810000D02*
X149400000Y-145300000D01*
X149630000Y-60570000D02*
X150400000Y-61330000D01*
X150220000Y-74320000D02*
X149340000Y-75130000D01*
X150400000Y-61330000D02*
X151060000Y-62230000D01*
X151000000Y-73380000D02*
X150220000Y-74320000D01*
X151060000Y-62230000D02*
X151180000Y-62450000D01*
X151180000Y-62450000D02*
X151330000Y-62730000D01*
X151330000Y-62730000D02*
X151600000Y-63220000D01*
X151530000Y-72490000D02*
X151000000Y-73380000D01*
X151600000Y-63220000D02*
X151850000Y-63830000D01*
X151850000Y-63830000D02*
X152000000Y-64230000D01*
X152000000Y-64230000D02*
X152040000Y-64320000D01*
X152000000Y-71420000D02*
X151530000Y-72490000D01*
X152040000Y-64320000D02*
X152270000Y-65150000D01*
X152270000Y-65150000D02*
X152360000Y-65500000D01*
X152340000Y-70240000D02*
X152000000Y-71420000D01*
X152360000Y-65500000D02*
X152540000Y-66690000D01*
X152530000Y-69090000D02*
X152340000Y-70240000D01*
X152540000Y-66690000D02*
X152600000Y-67900000D01*
X152550000Y-68770000D02*
X152530000Y-69090000D01*
X152600000Y-67900000D02*
X152550000Y-68770000D01*
M02*
