G04 #@! TF.GenerationSoftware,KiCad,Pcbnew,8.0.5-8.0.5-0~ubuntu24.04.1*
G04 #@! TF.CreationDate,2024-10-08T07:53:09+09:00*
G04 #@! TF.ProjectId,gopher_party_rp2040_sw,676f7068-6572-45f7-9061-7274795f7270,rev?*
G04 #@! TF.SameCoordinates,Original*
G04 #@! TF.FileFunction,Legend,Top*
G04 #@! TF.FilePolarity,Positive*
%FSLAX46Y46*%
G04 Gerber Fmt 4.6, Leading zero omitted, Abs format (unit mm)*
G04 Created by KiCad (PCBNEW 8.0.5-8.0.5-0~ubuntu24.04.1) date 2024-10-08 07:53:09*
%MOMM*%
%LPD*%
G01*
G04 APERTURE LIST*
%ADD10C,0.150000*%
%ADD11C,0.120000*%
%ADD12C,0.100000*%
G04 APERTURE END LIST*
D10*
X106353333Y-120785009D02*
X106496190Y-120832628D01*
X106496190Y-120832628D02*
X106543809Y-120880247D01*
X106543809Y-120880247D02*
X106591428Y-120975485D01*
X106591428Y-120975485D02*
X106591428Y-121118342D01*
X106591428Y-121118342D02*
X106543809Y-121213580D01*
X106543809Y-121213580D02*
X106496190Y-121261200D01*
X106496190Y-121261200D02*
X106400952Y-121308819D01*
X106400952Y-121308819D02*
X106020000Y-121308819D01*
X106020000Y-121308819D02*
X106020000Y-120308819D01*
X106020000Y-120308819D02*
X106353333Y-120308819D01*
X106353333Y-120308819D02*
X106448571Y-120356438D01*
X106448571Y-120356438D02*
X106496190Y-120404057D01*
X106496190Y-120404057D02*
X106543809Y-120499295D01*
X106543809Y-120499295D02*
X106543809Y-120594533D01*
X106543809Y-120594533D02*
X106496190Y-120689771D01*
X106496190Y-120689771D02*
X106448571Y-120737390D01*
X106448571Y-120737390D02*
X106353333Y-120785009D01*
X106353333Y-120785009D02*
X106020000Y-120785009D01*
X107020000Y-121308819D02*
X107020000Y-120642152D01*
X107020000Y-120832628D02*
X107067619Y-120737390D01*
X107067619Y-120737390D02*
X107115238Y-120689771D01*
X107115238Y-120689771D02*
X107210476Y-120642152D01*
X107210476Y-120642152D02*
X107305714Y-120642152D01*
X108067619Y-121308819D02*
X108067619Y-120308819D01*
X108067619Y-121261200D02*
X107972381Y-121308819D01*
X107972381Y-121308819D02*
X107781905Y-121308819D01*
X107781905Y-121308819D02*
X107686667Y-121261200D01*
X107686667Y-121261200D02*
X107639048Y-121213580D01*
X107639048Y-121213580D02*
X107591429Y-121118342D01*
X107591429Y-121118342D02*
X107591429Y-120832628D01*
X107591429Y-120832628D02*
X107639048Y-120737390D01*
X107639048Y-120737390D02*
X107686667Y-120689771D01*
X107686667Y-120689771D02*
X107781905Y-120642152D01*
X107781905Y-120642152D02*
X107972381Y-120642152D01*
X107972381Y-120642152D02*
X108067619Y-120689771D01*
X109067619Y-121308819D02*
X108496191Y-121308819D01*
X108781905Y-121308819D02*
X108781905Y-120308819D01*
X108781905Y-120308819D02*
X108686667Y-120451676D01*
X108686667Y-120451676D02*
X108591429Y-120546914D01*
X108591429Y-120546914D02*
X108496191Y-120594533D01*
X79066666Y-126794819D02*
X79066666Y-127509104D01*
X79066666Y-127509104D02*
X79019047Y-127651961D01*
X79019047Y-127651961D02*
X78923809Y-127747200D01*
X78923809Y-127747200D02*
X78780952Y-127794819D01*
X78780952Y-127794819D02*
X78685714Y-127794819D01*
X80066666Y-127794819D02*
X79495238Y-127794819D01*
X79780952Y-127794819D02*
X79780952Y-126794819D01*
X79780952Y-126794819D02*
X79685714Y-126937676D01*
X79685714Y-126937676D02*
X79590476Y-127032914D01*
X79590476Y-127032914D02*
X79495238Y-127080533D01*
X137057142Y-126484819D02*
X136580952Y-126484819D01*
X136580952Y-126484819D02*
X136580952Y-125484819D01*
X137342857Y-126437200D02*
X137485714Y-126484819D01*
X137485714Y-126484819D02*
X137723809Y-126484819D01*
X137723809Y-126484819D02*
X137819047Y-126437200D01*
X137819047Y-126437200D02*
X137866666Y-126389580D01*
X137866666Y-126389580D02*
X137914285Y-126294342D01*
X137914285Y-126294342D02*
X137914285Y-126199104D01*
X137914285Y-126199104D02*
X137866666Y-126103866D01*
X137866666Y-126103866D02*
X137819047Y-126056247D01*
X137819047Y-126056247D02*
X137723809Y-126008628D01*
X137723809Y-126008628D02*
X137533333Y-125961009D01*
X137533333Y-125961009D02*
X137438095Y-125913390D01*
X137438095Y-125913390D02*
X137390476Y-125865771D01*
X137390476Y-125865771D02*
X137342857Y-125770533D01*
X137342857Y-125770533D02*
X137342857Y-125675295D01*
X137342857Y-125675295D02*
X137390476Y-125580057D01*
X137390476Y-125580057D02*
X137438095Y-125532438D01*
X137438095Y-125532438D02*
X137533333Y-125484819D01*
X137533333Y-125484819D02*
X137771428Y-125484819D01*
X137771428Y-125484819D02*
X137914285Y-125532438D01*
X138866666Y-126484819D02*
X138295238Y-126484819D01*
X138580952Y-126484819D02*
X138580952Y-125484819D01*
X138580952Y-125484819D02*
X138485714Y-125627676D01*
X138485714Y-125627676D02*
X138390476Y-125722914D01*
X138390476Y-125722914D02*
X138295238Y-125770533D01*
D11*
X89100000Y-69650000D02*
X96400000Y-69650000D01*
X89100000Y-75150000D02*
X96400000Y-75150000D01*
X96400000Y-75150000D02*
X96400000Y-74000000D01*
X119700000Y-68750000D02*
X127000000Y-68750000D01*
X119700000Y-74250000D02*
X127000000Y-74250000D01*
X127000000Y-74250000D02*
X127000000Y-73100000D01*
X94120000Y-108300000D02*
X121520000Y-108300000D01*
X94120000Y-135600000D02*
X94120000Y-108300000D01*
X94542000Y-111595000D02*
X117642000Y-111595000D01*
X94542000Y-128195000D02*
X94542000Y-111595000D01*
X102821000Y-108789000D02*
X102821000Y-111202000D01*
X102821000Y-108789000D02*
X112600000Y-108789000D01*
X112600000Y-108789000D02*
X112600000Y-111202000D01*
X112600000Y-111202000D02*
X102821000Y-111202000D01*
X117642000Y-111595000D02*
X120728000Y-111595000D01*
X117642000Y-128195000D02*
X94542000Y-128195000D01*
X117642000Y-128195000D02*
X120982000Y-128220000D01*
X120982000Y-111583000D02*
X120728000Y-111595000D01*
X120982000Y-128220000D02*
X120982000Y-111583000D01*
X121520000Y-108300000D02*
X121520000Y-135600000D01*
X121520000Y-135600000D02*
X94120000Y-135600000D01*
X127950000Y-147000000D02*
X127950000Y-148500000D01*
X129200000Y-151000000D02*
X133700000Y-151000000D01*
X133700000Y-144500000D02*
X129200000Y-144500000D01*
X134950000Y-148500000D02*
X134950000Y-147000000D01*
X75850000Y-153600000D02*
X75850000Y-155100000D01*
X77100000Y-157600000D02*
X81600000Y-157600000D01*
X81600000Y-151100000D02*
X77100000Y-151100000D01*
X82850000Y-155100000D02*
X82850000Y-153600000D01*
X84650000Y-163500000D02*
X84650000Y-165000000D01*
X85900000Y-167500000D02*
X90400000Y-167500000D01*
X90400000Y-161000000D02*
X85900000Y-161000000D01*
X91650000Y-165000000D02*
X91650000Y-163500000D01*
X78340000Y-128340000D02*
X79400000Y-128340000D01*
X78340000Y-129400000D02*
X78340000Y-128340000D01*
X78340000Y-130400000D02*
X78340000Y-136460000D01*
X78340000Y-130400000D02*
X80460000Y-130400000D01*
X78340000Y-136460000D02*
X80460000Y-136460000D01*
X80460000Y-130400000D02*
X80460000Y-136460000D01*
X84650000Y-143900000D02*
X84650000Y-145400000D01*
X85900000Y-147900000D02*
X90400000Y-147900000D01*
X90400000Y-141400000D02*
X85900000Y-141400000D01*
X91650000Y-145400000D02*
X91650000Y-143900000D01*
X97566588Y-72660000D02*
G75*
G02*
X88073412Y-72660000I-4746588J0D01*
G01*
X88073412Y-72660000D02*
G75*
G02*
X97566588Y-72660000I4746588J0D01*
G01*
X128086588Y-71656588D02*
G75*
G02*
X118593412Y-71656588I-4746588J0D01*
G01*
X118593412Y-71656588D02*
G75*
G02*
X128086588Y-71656588I4746588J0D01*
G01*
D12*
X110230000Y-91460000D02*
X111150000Y-91570000D01*
X112120000Y-91790000D01*
X112860000Y-91970000D01*
X113020000Y-92500000D01*
X113120000Y-92800000D01*
X113190000Y-93040000D01*
X113390000Y-93980000D01*
X113520000Y-95020000D01*
X113510000Y-96130000D01*
X113470000Y-96810000D01*
X113420000Y-97230000D01*
X113360000Y-97480000D01*
X113210000Y-97820000D01*
X112880000Y-98350000D01*
X112430000Y-98800000D01*
X112000000Y-99050000D01*
X111860000Y-99150000D01*
X111460000Y-99290000D01*
X110960000Y-99390000D01*
X110500000Y-99370000D01*
X110160000Y-99160000D01*
X109840000Y-98820000D01*
X109550000Y-98380000D01*
X109340000Y-97970000D01*
X109000000Y-97150000D01*
X108980000Y-96080000D01*
X108960000Y-94840000D01*
X108930000Y-93530000D01*
X108930000Y-92630000D01*
X108930000Y-92090000D01*
X108960000Y-91550000D01*
X109000000Y-91500000D01*
X109240000Y-91430000D01*
X109690000Y-91420000D01*
X110230000Y-91460000D01*
G36*
X110230000Y-91460000D02*
G01*
X111150000Y-91570000D01*
X112120000Y-91790000D01*
X112860000Y-91970000D01*
X113020000Y-92500000D01*
X113120000Y-92800000D01*
X113190000Y-93040000D01*
X113390000Y-93980000D01*
X113520000Y-95020000D01*
X113510000Y-96130000D01*
X113470000Y-96810000D01*
X113420000Y-97230000D01*
X113360000Y-97480000D01*
X113210000Y-97820000D01*
X112880000Y-98350000D01*
X112430000Y-98800000D01*
X112000000Y-99050000D01*
X111860000Y-99150000D01*
X111460000Y-99290000D01*
X110960000Y-99390000D01*
X110500000Y-99370000D01*
X110160000Y-99160000D01*
X109840000Y-98820000D01*
X109550000Y-98380000D01*
X109340000Y-97970000D01*
X109000000Y-97150000D01*
X108980000Y-96080000D01*
X108960000Y-94840000D01*
X108930000Y-93530000D01*
X108930000Y-92630000D01*
X108930000Y-92090000D01*
X108960000Y-91550000D01*
X109000000Y-91500000D01*
X109240000Y-91430000D01*
X109690000Y-91420000D01*
X110230000Y-91460000D01*
G37*
X108250000Y-91580000D02*
X108280000Y-91650000D01*
X108310000Y-91800000D01*
X108340000Y-92060000D01*
X108350000Y-92390000D01*
X108370000Y-92890000D01*
X108380000Y-93480000D01*
X108390000Y-94150000D01*
X108400000Y-94770000D01*
X108390000Y-95460000D01*
X108390000Y-95720000D01*
X108350000Y-96440000D01*
X108340000Y-96640000D01*
X108280000Y-97130000D01*
X108190000Y-97620000D01*
X108100000Y-97920000D01*
X107940000Y-98380000D01*
X107640000Y-98900000D01*
X107230000Y-99290000D01*
X106750000Y-99530000D01*
X106240000Y-99620000D01*
X105860000Y-99590000D01*
X105410000Y-99490000D01*
X105210000Y-99430000D01*
X104710000Y-99120000D01*
X104310000Y-98680000D01*
X103970000Y-98090000D01*
X103700000Y-97390000D01*
X103530000Y-96560000D01*
X103460000Y-95680000D01*
X103500000Y-94720000D01*
X103590000Y-94020000D01*
X103670000Y-93570000D01*
X103740000Y-93130000D01*
X103810000Y-92830000D01*
X103880000Y-92640000D01*
X104050000Y-92590000D01*
X104660000Y-92410000D01*
X105190000Y-92270000D01*
X106480000Y-91930000D01*
X107100000Y-91780000D01*
X107770000Y-91620000D01*
X108200000Y-91550000D01*
X108250000Y-91580000D01*
G36*
X108250000Y-91580000D02*
G01*
X108280000Y-91650000D01*
X108310000Y-91800000D01*
X108340000Y-92060000D01*
X108350000Y-92390000D01*
X108370000Y-92890000D01*
X108380000Y-93480000D01*
X108390000Y-94150000D01*
X108400000Y-94770000D01*
X108390000Y-95460000D01*
X108390000Y-95720000D01*
X108350000Y-96440000D01*
X108340000Y-96640000D01*
X108280000Y-97130000D01*
X108190000Y-97620000D01*
X108100000Y-97920000D01*
X107940000Y-98380000D01*
X107640000Y-98900000D01*
X107230000Y-99290000D01*
X106750000Y-99530000D01*
X106240000Y-99620000D01*
X105860000Y-99590000D01*
X105410000Y-99490000D01*
X105210000Y-99430000D01*
X104710000Y-99120000D01*
X104310000Y-98680000D01*
X103970000Y-98090000D01*
X103700000Y-97390000D01*
X103530000Y-96560000D01*
X103460000Y-95680000D01*
X103500000Y-94720000D01*
X103590000Y-94020000D01*
X103670000Y-93570000D01*
X103740000Y-93130000D01*
X103810000Y-92830000D01*
X103880000Y-92640000D01*
X104050000Y-92590000D01*
X104660000Y-92410000D01*
X105190000Y-92270000D01*
X106480000Y-91930000D01*
X107100000Y-91780000D01*
X107770000Y-91620000D01*
X108200000Y-91550000D01*
X108250000Y-91580000D01*
G37*
X134820000Y-71930000D02*
X134770000Y-73120000D01*
X134570000Y-74500000D01*
X134170000Y-75840000D01*
X133590000Y-77190000D01*
X132510000Y-78920000D01*
X131490000Y-80100000D01*
X130440000Y-81030000D01*
X129170000Y-81920000D01*
X127970000Y-82560000D01*
X126640000Y-83080000D01*
X124820000Y-83470000D01*
X123750000Y-83580000D01*
X122660000Y-83590000D01*
X121860000Y-83540000D01*
X121140000Y-83460000D01*
X120580000Y-83340000D01*
X119200000Y-82920000D01*
X117810000Y-82290000D01*
X116610000Y-81580000D01*
X115450000Y-80680000D01*
X114360000Y-79580000D01*
X113560000Y-78550000D01*
X112770000Y-77220000D01*
X112260000Y-76080000D01*
X111870000Y-74770000D01*
X111620000Y-73370000D01*
X111540000Y-71860000D01*
X118520000Y-71780000D01*
X118580000Y-72250000D01*
X118690000Y-72950000D01*
X118970000Y-73680000D01*
X119420000Y-74460000D01*
X120000000Y-75120000D01*
X120760000Y-75730000D01*
X121710000Y-76170000D01*
X122410000Y-76370000D01*
X123320000Y-76470000D01*
X123800000Y-76440000D01*
X124430000Y-76320000D01*
X125150000Y-76120000D01*
X125500000Y-75950000D01*
X125970000Y-75670000D01*
X126440000Y-75320000D01*
X126930000Y-74850000D01*
X127250000Y-74440000D01*
X127530000Y-74010000D01*
X127900000Y-73190000D01*
X128120000Y-72190000D01*
X128130000Y-71890000D01*
X128150000Y-71480000D01*
X134790000Y-71440000D01*
X134820000Y-71930000D01*
G36*
X134820000Y-71930000D02*
G01*
X134770000Y-73120000D01*
X134570000Y-74500000D01*
X134170000Y-75840000D01*
X133590000Y-77190000D01*
X132510000Y-78920000D01*
X131490000Y-80100000D01*
X130440000Y-81030000D01*
X129170000Y-81920000D01*
X127970000Y-82560000D01*
X126640000Y-83080000D01*
X124820000Y-83470000D01*
X123750000Y-83580000D01*
X122660000Y-83590000D01*
X121860000Y-83540000D01*
X121140000Y-83460000D01*
X120580000Y-83340000D01*
X119200000Y-82920000D01*
X117810000Y-82290000D01*
X116610000Y-81580000D01*
X115450000Y-80680000D01*
X114360000Y-79580000D01*
X113560000Y-78550000D01*
X112770000Y-77220000D01*
X112260000Y-76080000D01*
X111870000Y-74770000D01*
X111620000Y-73370000D01*
X111540000Y-71860000D01*
X118520000Y-71780000D01*
X118580000Y-72250000D01*
X118690000Y-72950000D01*
X118970000Y-73680000D01*
X119420000Y-74460000D01*
X120000000Y-75120000D01*
X120760000Y-75730000D01*
X121710000Y-76170000D01*
X122410000Y-76370000D01*
X123320000Y-76470000D01*
X123800000Y-76440000D01*
X124430000Y-76320000D01*
X125150000Y-76120000D01*
X125500000Y-75950000D01*
X125970000Y-75670000D01*
X126440000Y-75320000D01*
X126930000Y-74850000D01*
X127250000Y-74440000D01*
X127530000Y-74010000D01*
X127900000Y-73190000D01*
X128120000Y-72190000D01*
X128130000Y-71890000D01*
X128150000Y-71480000D01*
X134790000Y-71440000D01*
X134820000Y-71930000D01*
G37*
X111820000Y-35030000D02*
X111900000Y-35350000D01*
X112070000Y-36150000D01*
X112140000Y-36560000D01*
X112530000Y-36710000D01*
X113820000Y-37230000D01*
X112950000Y-37730000D01*
X112710000Y-37880000D01*
X112490000Y-38020000D01*
X112410000Y-38080000D01*
X112290000Y-38210000D01*
X112240000Y-38340000D01*
X112240000Y-38390000D01*
X112230000Y-38620000D01*
X112210000Y-38930000D01*
X112190000Y-39130000D01*
X112170000Y-39340000D01*
X112140000Y-39560000D01*
X112090000Y-39790000D01*
X112050000Y-39880000D01*
X111960000Y-39810000D01*
X111660000Y-39550000D01*
X111020000Y-38950000D01*
X110790000Y-38730000D01*
X110740000Y-38740000D01*
X110430000Y-38820000D01*
X109990000Y-38930000D01*
X109670000Y-39010000D01*
X109330000Y-39080000D01*
X109160000Y-39080000D01*
X109110000Y-39000000D01*
X109160000Y-38830000D01*
X109390000Y-38310000D01*
X109510000Y-38030000D01*
X109620000Y-37740000D01*
X109650000Y-37520000D01*
X109610000Y-37330000D01*
X109500000Y-37100000D01*
X109320000Y-36800000D01*
X109130000Y-36490000D01*
X109010000Y-36290000D01*
X108860000Y-36050000D01*
X108880000Y-36040000D01*
X109030000Y-36020000D01*
X109340000Y-36020000D01*
X109660000Y-36040000D01*
X110010000Y-36070000D01*
X110340000Y-36090000D01*
X110630000Y-36110000D01*
X110700000Y-36040000D01*
X110890000Y-35810000D01*
X111240000Y-35390000D01*
X111490000Y-35090000D01*
X111670000Y-34900000D01*
X111750000Y-34830000D01*
X111820000Y-35030000D01*
G36*
X111820000Y-35030000D02*
G01*
X111900000Y-35350000D01*
X112070000Y-36150000D01*
X112140000Y-36560000D01*
X112530000Y-36710000D01*
X113820000Y-37230000D01*
X112950000Y-37730000D01*
X112710000Y-37880000D01*
X112490000Y-38020000D01*
X112410000Y-38080000D01*
X112290000Y-38210000D01*
X112240000Y-38340000D01*
X112240000Y-38390000D01*
X112230000Y-38620000D01*
X112210000Y-38930000D01*
X112190000Y-39130000D01*
X112170000Y-39340000D01*
X112140000Y-39560000D01*
X112090000Y-39790000D01*
X112050000Y-39880000D01*
X111960000Y-39810000D01*
X111660000Y-39550000D01*
X111020000Y-38950000D01*
X110790000Y-38730000D01*
X110740000Y-38740000D01*
X110430000Y-38820000D01*
X109990000Y-38930000D01*
X109670000Y-39010000D01*
X109330000Y-39080000D01*
X109160000Y-39080000D01*
X109110000Y-39000000D01*
X109160000Y-38830000D01*
X109390000Y-38310000D01*
X109510000Y-38030000D01*
X109620000Y-37740000D01*
X109650000Y-37520000D01*
X109610000Y-37330000D01*
X109500000Y-37100000D01*
X109320000Y-36800000D01*
X109130000Y-36490000D01*
X109010000Y-36290000D01*
X108860000Y-36050000D01*
X108880000Y-36040000D01*
X109030000Y-36020000D01*
X109340000Y-36020000D01*
X109660000Y-36040000D01*
X110010000Y-36070000D01*
X110340000Y-36090000D01*
X110630000Y-36110000D01*
X110700000Y-36040000D01*
X110890000Y-35810000D01*
X111240000Y-35390000D01*
X111490000Y-35090000D01*
X111670000Y-34900000D01*
X111750000Y-34830000D01*
X111820000Y-35030000D01*
G37*
X114430000Y-44350000D02*
X115010000Y-44730000D01*
X115410000Y-45010000D01*
X115730000Y-45200000D01*
X116000000Y-45300000D01*
X116230000Y-45310000D01*
X116470000Y-45250000D01*
X116880000Y-45090000D01*
X117200000Y-44960000D01*
X117530000Y-44830000D01*
X117760000Y-44740000D01*
X118040000Y-44630000D01*
X118290000Y-44540000D01*
X118370000Y-44530000D01*
X118380000Y-44530000D01*
X118360000Y-44650000D01*
X118320000Y-44850000D01*
X117980000Y-46130000D01*
X117770000Y-46890000D01*
X117770000Y-46920000D01*
X117950000Y-47140000D01*
X118290000Y-47550000D01*
X118470000Y-47750000D01*
X118770000Y-48120000D01*
X119030000Y-48420000D01*
X119290000Y-48730000D01*
X119390000Y-48840000D01*
X119240000Y-48870000D01*
X118920000Y-48920000D01*
X118360000Y-48960000D01*
X116880000Y-48980000D01*
X116760000Y-49180000D01*
X116560000Y-49510000D01*
X116310000Y-49930000D01*
X116210000Y-50090000D01*
X116050000Y-50340000D01*
X115860000Y-50640000D01*
X115750000Y-50810000D01*
X115580000Y-51050000D01*
X115510000Y-51130000D01*
X115450000Y-51020000D01*
X115330000Y-50740000D01*
X115020000Y-49960000D01*
X114810000Y-49400000D01*
X114590000Y-48810000D01*
X113950000Y-48660000D01*
X113250000Y-48490000D01*
X112580000Y-48330000D01*
X112090000Y-48190000D01*
X112150000Y-48150000D01*
X112210000Y-48100000D01*
X112800000Y-47630000D01*
X113440000Y-47120000D01*
X114070000Y-46590000D01*
X114040000Y-46060000D01*
X114000000Y-45330000D01*
X113970000Y-44660000D01*
X113930000Y-44020000D01*
X114430000Y-44350000D01*
G36*
X114430000Y-44350000D02*
G01*
X115010000Y-44730000D01*
X115410000Y-45010000D01*
X115730000Y-45200000D01*
X116000000Y-45300000D01*
X116230000Y-45310000D01*
X116470000Y-45250000D01*
X116880000Y-45090000D01*
X117200000Y-44960000D01*
X117530000Y-44830000D01*
X117760000Y-44740000D01*
X118040000Y-44630000D01*
X118290000Y-44540000D01*
X118370000Y-44530000D01*
X118380000Y-44530000D01*
X118360000Y-44650000D01*
X118320000Y-44850000D01*
X117980000Y-46130000D01*
X117770000Y-46890000D01*
X117770000Y-46920000D01*
X117950000Y-47140000D01*
X118290000Y-47550000D01*
X118470000Y-47750000D01*
X118770000Y-48120000D01*
X119030000Y-48420000D01*
X119290000Y-48730000D01*
X119390000Y-48840000D01*
X119240000Y-48870000D01*
X118920000Y-48920000D01*
X118360000Y-48960000D01*
X116880000Y-48980000D01*
X116760000Y-49180000D01*
X116560000Y-49510000D01*
X116310000Y-49930000D01*
X116210000Y-50090000D01*
X116050000Y-50340000D01*
X115860000Y-50640000D01*
X115750000Y-50810000D01*
X115580000Y-51050000D01*
X115510000Y-51130000D01*
X115450000Y-51020000D01*
X115330000Y-50740000D01*
X115020000Y-49960000D01*
X114810000Y-49400000D01*
X114590000Y-48810000D01*
X113950000Y-48660000D01*
X113250000Y-48490000D01*
X112580000Y-48330000D01*
X112090000Y-48190000D01*
X112150000Y-48150000D01*
X112210000Y-48100000D01*
X112800000Y-47630000D01*
X113440000Y-47120000D01*
X114070000Y-46590000D01*
X114040000Y-46060000D01*
X114000000Y-45330000D01*
X113970000Y-44660000D01*
X113930000Y-44020000D01*
X114430000Y-44350000D01*
G37*
X124930000Y-60420000D02*
X126440000Y-60730000D01*
X127790000Y-61220000D01*
X129080000Y-61880000D01*
X130370000Y-62790000D01*
X131670000Y-64000000D01*
X132560000Y-65040000D01*
X133340000Y-66240000D01*
X134010000Y-67570000D01*
X134430000Y-68900000D01*
X134730000Y-70380000D01*
X134790000Y-71410000D01*
X132570000Y-71470000D01*
X129890000Y-71450000D01*
X128600000Y-71470000D01*
X128150000Y-71420000D01*
X128100000Y-70950000D01*
X127970000Y-70310000D01*
X127720000Y-69650000D01*
X127430000Y-69130000D01*
X127090000Y-68640000D01*
X126760000Y-68280000D01*
X126430000Y-67960000D01*
X125960000Y-67610000D01*
X125450000Y-67350000D01*
X124800000Y-67060000D01*
X124270000Y-66940000D01*
X123640000Y-66870000D01*
X123000000Y-66870000D01*
X122450000Y-66930000D01*
X121810000Y-67100000D01*
X121220000Y-67350000D01*
X120870000Y-67540000D01*
X120320000Y-67930000D01*
X119850000Y-68300000D01*
X119460000Y-68800000D01*
X119120000Y-69350000D01*
X118850000Y-69920000D01*
X118680000Y-70450000D01*
X118590000Y-70950000D01*
X118550000Y-71220000D01*
X118540000Y-71500000D01*
X118530000Y-71740000D01*
X111520000Y-71850000D01*
X111540000Y-71310000D01*
X111610000Y-70460000D01*
X111830000Y-69280000D01*
X111880000Y-69050000D01*
X112180000Y-68110000D01*
X112870000Y-66510000D01*
X113590000Y-65330000D01*
X114410000Y-64230000D01*
X115470000Y-63180000D01*
X116530000Y-62350000D01*
X117920000Y-61540000D01*
X119410000Y-60900000D01*
X120610000Y-60560000D01*
X121850000Y-60360000D01*
X123340000Y-60310000D01*
X124930000Y-60420000D01*
G36*
X124930000Y-60420000D02*
G01*
X126440000Y-60730000D01*
X127790000Y-61220000D01*
X129080000Y-61880000D01*
X130370000Y-62790000D01*
X131670000Y-64000000D01*
X132560000Y-65040000D01*
X133340000Y-66240000D01*
X134010000Y-67570000D01*
X134430000Y-68900000D01*
X134730000Y-70380000D01*
X134790000Y-71410000D01*
X132570000Y-71470000D01*
X129890000Y-71450000D01*
X128600000Y-71470000D01*
X128150000Y-71420000D01*
X128100000Y-70950000D01*
X127970000Y-70310000D01*
X127720000Y-69650000D01*
X127430000Y-69130000D01*
X127090000Y-68640000D01*
X126760000Y-68280000D01*
X126430000Y-67960000D01*
X125960000Y-67610000D01*
X125450000Y-67350000D01*
X124800000Y-67060000D01*
X124270000Y-66940000D01*
X123640000Y-66870000D01*
X123000000Y-66870000D01*
X122450000Y-66930000D01*
X121810000Y-67100000D01*
X121220000Y-67350000D01*
X120870000Y-67540000D01*
X120320000Y-67930000D01*
X119850000Y-68300000D01*
X119460000Y-68800000D01*
X119120000Y-69350000D01*
X118850000Y-69920000D01*
X118680000Y-70450000D01*
X118590000Y-70950000D01*
X118550000Y-71220000D01*
X118540000Y-71500000D01*
X118530000Y-71740000D01*
X111520000Y-71850000D01*
X111540000Y-71310000D01*
X111610000Y-70460000D01*
X111830000Y-69280000D01*
X111880000Y-69050000D01*
X112180000Y-68110000D01*
X112870000Y-66510000D01*
X113590000Y-65330000D01*
X114410000Y-64230000D01*
X115470000Y-63180000D01*
X116530000Y-62350000D01*
X117920000Y-61540000D01*
X119410000Y-60900000D01*
X120610000Y-60560000D01*
X121850000Y-60360000D01*
X123340000Y-60310000D01*
X124930000Y-60420000D01*
G37*
X104590000Y-72610000D02*
X104600000Y-73360000D01*
X104600000Y-73980000D01*
X104470000Y-75010000D01*
X104420000Y-75400000D01*
X104050000Y-76810000D01*
X103520000Y-78140000D01*
X102810000Y-79410000D01*
X101940000Y-80610000D01*
X100180000Y-82340000D01*
X98960000Y-83190000D01*
X97640000Y-83890000D01*
X96260000Y-84400000D01*
X94640000Y-84760000D01*
X93810000Y-84840000D01*
X92950000Y-84870000D01*
X92240000Y-84850000D01*
X91390000Y-84800000D01*
X90580000Y-84660000D01*
X89510000Y-84350000D01*
X89000000Y-84200000D01*
X87690000Y-83630000D01*
X86460000Y-82910000D01*
X85330000Y-82040000D01*
X84630000Y-81360000D01*
X84300000Y-81040000D01*
X83360000Y-79870000D01*
X82730000Y-78830000D01*
X82040000Y-77340000D01*
X81700000Y-76340000D01*
X81470000Y-75350000D01*
X81360000Y-74420000D01*
X81330000Y-73430000D01*
X81310000Y-73130000D01*
X88040000Y-73060000D01*
X88140000Y-73810000D01*
X88390000Y-74510000D01*
X88650000Y-75030000D01*
X88900000Y-75440000D01*
X89200000Y-75810000D01*
X89550000Y-76170000D01*
X89940000Y-76500000D01*
X90350000Y-76780000D01*
X90760000Y-76990000D01*
X91150000Y-77160000D01*
X91650000Y-77320000D01*
X92120000Y-77410000D01*
X92840000Y-77460000D01*
X93310000Y-77440000D01*
X93980000Y-77320000D01*
X94470000Y-77170000D01*
X94920000Y-76970000D01*
X95420000Y-76700000D01*
X95800000Y-76420000D01*
X96100000Y-76160000D01*
X96430000Y-75830000D01*
X96750000Y-75420000D01*
X96960000Y-75080000D01*
X97210000Y-74600000D01*
X97390000Y-74140000D01*
X97540000Y-73520000D01*
X97620000Y-72920000D01*
X97600000Y-72530000D01*
X104590000Y-72610000D01*
G36*
X104590000Y-72610000D02*
G01*
X104600000Y-73360000D01*
X104600000Y-73980000D01*
X104470000Y-75010000D01*
X104420000Y-75400000D01*
X104050000Y-76810000D01*
X103520000Y-78140000D01*
X102810000Y-79410000D01*
X101940000Y-80610000D01*
X100180000Y-82340000D01*
X98960000Y-83190000D01*
X97640000Y-83890000D01*
X96260000Y-84400000D01*
X94640000Y-84760000D01*
X93810000Y-84840000D01*
X92950000Y-84870000D01*
X92240000Y-84850000D01*
X91390000Y-84800000D01*
X90580000Y-84660000D01*
X89510000Y-84350000D01*
X89000000Y-84200000D01*
X87690000Y-83630000D01*
X86460000Y-82910000D01*
X85330000Y-82040000D01*
X84630000Y-81360000D01*
X84300000Y-81040000D01*
X83360000Y-79870000D01*
X82730000Y-78830000D01*
X82040000Y-77340000D01*
X81700000Y-76340000D01*
X81470000Y-75350000D01*
X81360000Y-74420000D01*
X81330000Y-73430000D01*
X81310000Y-73130000D01*
X88040000Y-73060000D01*
X88140000Y-73810000D01*
X88390000Y-74510000D01*
X88650000Y-75030000D01*
X88900000Y-75440000D01*
X89200000Y-75810000D01*
X89550000Y-76170000D01*
X89940000Y-76500000D01*
X90350000Y-76780000D01*
X90760000Y-76990000D01*
X91150000Y-77160000D01*
X91650000Y-77320000D01*
X92120000Y-77410000D01*
X92840000Y-77460000D01*
X93310000Y-77440000D01*
X93980000Y-77320000D01*
X94470000Y-77170000D01*
X94920000Y-76970000D01*
X95420000Y-76700000D01*
X95800000Y-76420000D01*
X96100000Y-76160000D01*
X96430000Y-75830000D01*
X96750000Y-75420000D01*
X96960000Y-75080000D01*
X97210000Y-74600000D01*
X97390000Y-74140000D01*
X97540000Y-73520000D01*
X97620000Y-72920000D01*
X97600000Y-72530000D01*
X104590000Y-72610000D01*
G37*
X105320000Y-41190000D02*
X105690000Y-41870000D01*
X106050000Y-42580000D01*
X106660000Y-43750000D01*
X106810000Y-44000000D01*
X106930000Y-44140000D01*
X107040000Y-44220000D01*
X107160000Y-44260000D01*
X107970000Y-44380000D01*
X109360000Y-44580000D01*
X110580000Y-44750000D01*
X110070000Y-45230000D01*
X109590000Y-45740000D01*
X108930000Y-46400000D01*
X107900000Y-47430000D01*
X107900000Y-47450000D01*
X108010000Y-48070000D01*
X108120000Y-48730000D01*
X108210000Y-49230000D01*
X108290000Y-49710000D01*
X108360000Y-50170000D01*
X108410000Y-50460000D01*
X108420000Y-50570000D01*
X108440000Y-50700000D01*
X108460000Y-50840000D01*
X108470000Y-50940000D01*
X108480000Y-51040000D01*
X108450000Y-51040000D01*
X108380000Y-51010000D01*
X108030000Y-50830000D01*
X107430000Y-50530000D01*
X106210000Y-49890000D01*
X105660000Y-49610000D01*
X105180000Y-49350000D01*
X104960000Y-49460000D01*
X103960000Y-49990000D01*
X103160000Y-50410000D01*
X102520000Y-50740000D01*
X102180000Y-50910000D01*
X101910000Y-51040000D01*
X101910000Y-50950000D01*
X101930000Y-50760000D01*
X102000000Y-50230000D01*
X102160000Y-49220000D01*
X102330000Y-48230000D01*
X102440000Y-47610000D01*
X102480000Y-47400000D01*
X102250000Y-47170000D01*
X101790000Y-46730000D01*
X101540000Y-46480000D01*
X101090000Y-46040000D01*
X100790000Y-45750000D01*
X100530000Y-45500000D01*
X100340000Y-45310000D01*
X100140000Y-45100000D01*
X99950000Y-44910000D01*
X99880000Y-44820000D01*
X99970000Y-44790000D01*
X100470000Y-44680000D01*
X101370000Y-44530000D01*
X102240000Y-44400000D01*
X103420000Y-44210000D01*
X103550000Y-44180000D01*
X104250000Y-42760000D01*
X104710000Y-41780000D01*
X105050000Y-41130000D01*
X105170000Y-40920000D01*
X105320000Y-41190000D01*
G36*
X105320000Y-41190000D02*
G01*
X105690000Y-41870000D01*
X106050000Y-42580000D01*
X106660000Y-43750000D01*
X106810000Y-44000000D01*
X106930000Y-44140000D01*
X107040000Y-44220000D01*
X107160000Y-44260000D01*
X107970000Y-44380000D01*
X109360000Y-44580000D01*
X110580000Y-44750000D01*
X110070000Y-45230000D01*
X109590000Y-45740000D01*
X108930000Y-46400000D01*
X107900000Y-47430000D01*
X107900000Y-47450000D01*
X108010000Y-48070000D01*
X108120000Y-48730000D01*
X108210000Y-49230000D01*
X108290000Y-49710000D01*
X108360000Y-50170000D01*
X108410000Y-50460000D01*
X108420000Y-50570000D01*
X108440000Y-50700000D01*
X108460000Y-50840000D01*
X108470000Y-50940000D01*
X108480000Y-51040000D01*
X108450000Y-51040000D01*
X108380000Y-51010000D01*
X108030000Y-50830000D01*
X107430000Y-50530000D01*
X106210000Y-49890000D01*
X105660000Y-49610000D01*
X105180000Y-49350000D01*
X104960000Y-49460000D01*
X103960000Y-49990000D01*
X103160000Y-50410000D01*
X102520000Y-50740000D01*
X102180000Y-50910000D01*
X101910000Y-51040000D01*
X101910000Y-50950000D01*
X101930000Y-50760000D01*
X102000000Y-50230000D01*
X102160000Y-49220000D01*
X102330000Y-48230000D01*
X102440000Y-47610000D01*
X102480000Y-47400000D01*
X102250000Y-47170000D01*
X101790000Y-46730000D01*
X101540000Y-46480000D01*
X101090000Y-46040000D01*
X100790000Y-45750000D01*
X100530000Y-45500000D01*
X100340000Y-45310000D01*
X100140000Y-45100000D01*
X99950000Y-44910000D01*
X99880000Y-44820000D01*
X99970000Y-44790000D01*
X100470000Y-44680000D01*
X101370000Y-44530000D01*
X102240000Y-44400000D01*
X103420000Y-44210000D01*
X103550000Y-44180000D01*
X104250000Y-42760000D01*
X104710000Y-41780000D01*
X105050000Y-41130000D01*
X105170000Y-40920000D01*
X105320000Y-41190000D01*
G37*
X93480000Y-61600000D02*
X94250000Y-61650000D01*
X95040000Y-61740000D01*
X95820000Y-61890000D01*
X96900000Y-62240000D01*
X98280000Y-62850000D01*
X99540000Y-63610000D01*
X100620000Y-64470000D01*
X101690000Y-65540000D01*
X102600000Y-66710000D01*
X103310000Y-67930000D01*
X103860000Y-69190000D01*
X104280000Y-70620000D01*
X104360000Y-71060000D01*
X104540000Y-72100000D01*
X104570000Y-72200000D01*
X104590000Y-72510000D01*
X104590000Y-72580000D01*
X103230000Y-72610000D01*
X100540000Y-72560000D01*
X98170000Y-72520000D01*
X97720000Y-72500000D01*
X97620000Y-72490000D01*
X97550000Y-71850000D01*
X97410000Y-71280000D01*
X97220000Y-70710000D01*
X96960000Y-70240000D01*
X96600000Y-69710000D01*
X96260000Y-69290000D01*
X95870000Y-68960000D01*
X95420000Y-68620000D01*
X94960000Y-68360000D01*
X94520000Y-68160000D01*
X93950000Y-67990000D01*
X93460000Y-67900000D01*
X92920000Y-67860000D01*
X92430000Y-67870000D01*
X91920000Y-67940000D01*
X91160000Y-68140000D01*
X90510000Y-68450000D01*
X89850000Y-68890000D01*
X89460000Y-69230000D01*
X89180000Y-69530000D01*
X88830000Y-69980000D01*
X88500000Y-70570000D01*
X88260000Y-71160000D01*
X88150000Y-71530000D01*
X88050000Y-72070000D01*
X88010000Y-72500000D01*
X88010000Y-72820000D01*
X88030000Y-73040000D01*
X84850000Y-73130000D01*
X81310000Y-73140000D01*
X81310000Y-72630000D01*
X81320000Y-72280000D01*
X81430000Y-71230000D01*
X81660000Y-70130000D01*
X82010000Y-69100000D01*
X82820000Y-67420000D01*
X83330000Y-66600000D01*
X83630000Y-66200000D01*
X84380000Y-65370000D01*
X84970000Y-64750000D01*
X86010000Y-63870000D01*
X87270000Y-63020000D01*
X88550000Y-62390000D01*
X89910000Y-61950000D01*
X91590000Y-61640000D01*
X92640000Y-61580000D01*
X93480000Y-61600000D01*
G36*
X93480000Y-61600000D02*
G01*
X94250000Y-61650000D01*
X95040000Y-61740000D01*
X95820000Y-61890000D01*
X96900000Y-62240000D01*
X98280000Y-62850000D01*
X99540000Y-63610000D01*
X100620000Y-64470000D01*
X101690000Y-65540000D01*
X102600000Y-66710000D01*
X103310000Y-67930000D01*
X103860000Y-69190000D01*
X104280000Y-70620000D01*
X104360000Y-71060000D01*
X104540000Y-72100000D01*
X104570000Y-72200000D01*
X104590000Y-72510000D01*
X104590000Y-72580000D01*
X103230000Y-72610000D01*
X100540000Y-72560000D01*
X98170000Y-72520000D01*
X97720000Y-72500000D01*
X97620000Y-72490000D01*
X97550000Y-71850000D01*
X97410000Y-71280000D01*
X97220000Y-70710000D01*
X96960000Y-70240000D01*
X96600000Y-69710000D01*
X96260000Y-69290000D01*
X95870000Y-68960000D01*
X95420000Y-68620000D01*
X94960000Y-68360000D01*
X94520000Y-68160000D01*
X93950000Y-67990000D01*
X93460000Y-67900000D01*
X92920000Y-67860000D01*
X92430000Y-67870000D01*
X91920000Y-67940000D01*
X91160000Y-68140000D01*
X90510000Y-68450000D01*
X89850000Y-68890000D01*
X89460000Y-69230000D01*
X89180000Y-69530000D01*
X88830000Y-69980000D01*
X88500000Y-70570000D01*
X88260000Y-71160000D01*
X88150000Y-71530000D01*
X88050000Y-72070000D01*
X88010000Y-72500000D01*
X88010000Y-72820000D01*
X88030000Y-73040000D01*
X84850000Y-73130000D01*
X81310000Y-73140000D01*
X81310000Y-72630000D01*
X81320000Y-72280000D01*
X81430000Y-71230000D01*
X81660000Y-70130000D01*
X82010000Y-69100000D01*
X82820000Y-67420000D01*
X83330000Y-66600000D01*
X83630000Y-66200000D01*
X84380000Y-65370000D01*
X84970000Y-64750000D01*
X86010000Y-63870000D01*
X87270000Y-63020000D01*
X88550000Y-62390000D01*
X89910000Y-61950000D01*
X91590000Y-61640000D01*
X92640000Y-61580000D01*
X93480000Y-61600000D01*
G37*
X133050000Y-106830000D02*
X133770000Y-106860000D01*
X135430000Y-107040000D01*
X136680000Y-107360000D01*
X137760000Y-107700000D01*
X139040000Y-108330000D01*
X139870000Y-108930000D01*
X140750000Y-109760000D01*
X141390000Y-110730000D01*
X141790000Y-111470000D01*
X142000000Y-112010000D01*
X142190000Y-112650000D01*
X142270000Y-113110000D01*
X142280000Y-113200000D01*
X142250000Y-113260000D01*
X142170000Y-113250000D01*
X141970000Y-113280000D01*
X141720000Y-113400000D01*
X141570000Y-113520000D01*
X141420000Y-113720000D01*
X141290000Y-114000000D01*
X141240000Y-114130000D01*
X141060000Y-114580000D01*
X141020000Y-114700000D01*
X140810000Y-115210000D01*
X140760000Y-115340000D01*
X140580000Y-115680000D01*
X140510000Y-115820000D01*
X140290000Y-116110000D01*
X140080000Y-116230000D01*
X139890000Y-116160000D01*
X139810000Y-116060000D01*
X139750000Y-115950000D01*
X139690000Y-115780000D01*
X139570000Y-115460000D01*
X139530000Y-115330000D01*
X139440000Y-115030000D01*
X139310000Y-114600000D01*
X139230000Y-114360000D01*
X139050000Y-113870000D01*
X138760000Y-113400000D01*
X138440000Y-113130000D01*
X138050000Y-113020000D01*
X137770000Y-113060000D01*
X137550000Y-113190000D01*
X137360000Y-113470000D01*
X137090000Y-114000000D01*
X137020000Y-114170000D01*
X136880000Y-114480000D01*
X136710000Y-114960000D01*
X136590000Y-115310000D01*
X136510000Y-115550000D01*
X136390000Y-115840000D01*
X136330000Y-116000000D01*
X136100000Y-116500000D01*
X135890000Y-116780000D01*
X135520000Y-117080000D01*
X135200000Y-117110000D01*
X134900000Y-116970000D01*
X134660000Y-116680000D01*
X134400000Y-116170000D01*
X134170000Y-115610000D01*
X134010000Y-114870000D01*
X133810000Y-114050000D01*
X133610000Y-113490000D01*
X133400000Y-113080000D01*
X133150000Y-112860000D01*
X132890000Y-112820000D01*
X132650000Y-112840000D01*
X132280000Y-113000000D01*
X131880000Y-113310000D01*
X131460000Y-113770000D01*
X131020000Y-114380000D01*
X130760000Y-114800000D01*
X130390000Y-115380000D01*
X130190000Y-115680000D01*
X129870000Y-116150000D01*
X129580000Y-116430000D01*
X129340000Y-116600000D01*
X129070000Y-116680000D01*
X128770000Y-116720000D01*
X128100000Y-116760000D01*
X127580000Y-116570000D01*
X127180000Y-116090000D01*
X126820000Y-115650000D01*
X126670000Y-115310000D01*
X126560000Y-114980000D01*
X126520000Y-114870000D01*
X126460000Y-114640000D01*
X126380000Y-114300000D01*
X126360000Y-114210000D01*
X126130000Y-113510000D01*
X125810000Y-112980000D01*
X125440000Y-112620000D01*
X125000000Y-112460000D01*
X124520000Y-112480000D01*
X123990000Y-112680000D01*
X123630000Y-112930000D01*
X123410000Y-113090000D01*
X123260000Y-113210000D01*
X123180000Y-113250000D01*
X123160000Y-113190000D01*
X123200000Y-113000000D01*
X123310000Y-112620000D01*
X123420000Y-112290000D01*
X123890000Y-111130000D01*
X123980000Y-110940000D01*
X124540000Y-110000000D01*
X125190000Y-109200000D01*
X126010000Y-108490000D01*
X126980000Y-107890000D01*
X128220000Y-107380000D01*
X129280000Y-107080000D01*
X130370000Y-106910000D01*
X131550000Y-106820000D01*
X132630000Y-106820000D01*
X133050000Y-106830000D01*
G36*
X133050000Y-106830000D02*
G01*
X133770000Y-106860000D01*
X135430000Y-107040000D01*
X136680000Y-107360000D01*
X137760000Y-107700000D01*
X139040000Y-108330000D01*
X139870000Y-108930000D01*
X140750000Y-109760000D01*
X141390000Y-110730000D01*
X141790000Y-111470000D01*
X142000000Y-112010000D01*
X142190000Y-112650000D01*
X142270000Y-113110000D01*
X142280000Y-113200000D01*
X142250000Y-113260000D01*
X142170000Y-113250000D01*
X141970000Y-113280000D01*
X141720000Y-113400000D01*
X141570000Y-113520000D01*
X141420000Y-113720000D01*
X141290000Y-114000000D01*
X141240000Y-114130000D01*
X141060000Y-114580000D01*
X141020000Y-114700000D01*
X140810000Y-115210000D01*
X140760000Y-115340000D01*
X140580000Y-115680000D01*
X140510000Y-115820000D01*
X140290000Y-116110000D01*
X140080000Y-116230000D01*
X139890000Y-116160000D01*
X139810000Y-116060000D01*
X139750000Y-115950000D01*
X139690000Y-115780000D01*
X139570000Y-115460000D01*
X139530000Y-115330000D01*
X139440000Y-115030000D01*
X139310000Y-114600000D01*
X139230000Y-114360000D01*
X139050000Y-113870000D01*
X138760000Y-113400000D01*
X138440000Y-113130000D01*
X138050000Y-113020000D01*
X137770000Y-113060000D01*
X137550000Y-113190000D01*
X137360000Y-113470000D01*
X137090000Y-114000000D01*
X137020000Y-114170000D01*
X136880000Y-114480000D01*
X136710000Y-114960000D01*
X136590000Y-115310000D01*
X136510000Y-115550000D01*
X136390000Y-115840000D01*
X136330000Y-116000000D01*
X136100000Y-116500000D01*
X135890000Y-116780000D01*
X135520000Y-117080000D01*
X135200000Y-117110000D01*
X134900000Y-116970000D01*
X134660000Y-116680000D01*
X134400000Y-116170000D01*
X134170000Y-115610000D01*
X134010000Y-114870000D01*
X133810000Y-114050000D01*
X133610000Y-113490000D01*
X133400000Y-113080000D01*
X133150000Y-112860000D01*
X132890000Y-112820000D01*
X132650000Y-112840000D01*
X132280000Y-113000000D01*
X131880000Y-113310000D01*
X131460000Y-113770000D01*
X131020000Y-114380000D01*
X130760000Y-114800000D01*
X130390000Y-115380000D01*
X130190000Y-115680000D01*
X129870000Y-116150000D01*
X129580000Y-116430000D01*
X129340000Y-116600000D01*
X129070000Y-116680000D01*
X128770000Y-116720000D01*
X128100000Y-116760000D01*
X127580000Y-116570000D01*
X127180000Y-116090000D01*
X126820000Y-115650000D01*
X126670000Y-115310000D01*
X126560000Y-114980000D01*
X126520000Y-114870000D01*
X126460000Y-114640000D01*
X126380000Y-114300000D01*
X126360000Y-114210000D01*
X126130000Y-113510000D01*
X125810000Y-112980000D01*
X125440000Y-112620000D01*
X125000000Y-112460000D01*
X124520000Y-112480000D01*
X123990000Y-112680000D01*
X123630000Y-112930000D01*
X123410000Y-113090000D01*
X123260000Y-113210000D01*
X123180000Y-113250000D01*
X123160000Y-113190000D01*
X123200000Y-113000000D01*
X123310000Y-112620000D01*
X123420000Y-112290000D01*
X123890000Y-111130000D01*
X123980000Y-110940000D01*
X124540000Y-110000000D01*
X125190000Y-109200000D01*
X126010000Y-108490000D01*
X126980000Y-107890000D01*
X128220000Y-107380000D01*
X129280000Y-107080000D01*
X130370000Y-106910000D01*
X131550000Y-106820000D01*
X132630000Y-106820000D01*
X133050000Y-106830000D01*
G37*
D11*
X92650000Y-153600000D02*
X92650000Y-155100000D01*
X93900000Y-157600000D02*
X98400000Y-157600000D01*
X98400000Y-151100000D02*
X93900000Y-151100000D01*
X99650000Y-155100000D02*
X99650000Y-153600000D01*
X133550000Y-157800000D02*
X133550000Y-159300000D01*
X134800000Y-161800000D02*
X139300000Y-161800000D01*
X139300000Y-155300000D02*
X134800000Y-155300000D01*
X140550000Y-159300000D02*
X140550000Y-157800000D01*
X131300000Y-134699999D02*
G75*
G02*
X131300000Y-131700000I6400000J1499999D01*
G01*
X143930000Y-133200000D02*
G75*
G02*
X131470000Y-133200000I-6230000J0D01*
G01*
X131470000Y-133200000D02*
G75*
G02*
X143930000Y-133200000I6230000J0D01*
G01*
M02*
