G04 #@! TF.GenerationSoftware,KiCad,Pcbnew,8.0.5-8.0.5-0~ubuntu24.04.1*
G04 #@! TF.CreationDate,2024-10-08T07:53:09+09:00*
G04 #@! TF.ProjectId,gopher_party_rp2040_sw,676f7068-6572-45f7-9061-7274795f7270,rev?*
G04 #@! TF.SameCoordinates,Original*
G04 #@! TF.FileFunction,Copper,L2,Bot*
G04 #@! TF.FilePolarity,Positive*
%FSLAX46Y46*%
G04 Gerber Fmt 4.6, Leading zero omitted, Abs format (unit mm)*
G04 Created by KiCad (PCBNEW 8.0.5-8.0.5-0~ubuntu24.04.1) date 2024-10-08 07:53:09*
%MOMM*%
%LPD*%
G01*
G04 APERTURE LIST*
G04 Aperture macros list*
%AMRoundRect*
0 Rectangle with rounded corners*
0 $1 Rounding radius*
0 $2 $3 $4 $5 $6 $7 $8 $9 X,Y pos of 4 corners*
0 Add a 4 corners polygon primitive as box body*
4,1,4,$2,$3,$4,$5,$6,$7,$8,$9,$2,$3,0*
0 Add four circle primitives for the rounded corners*
1,1,$1+$1,$2,$3*
1,1,$1+$1,$4,$5*
1,1,$1+$1,$6,$7*
1,1,$1+$1,$8,$9*
0 Add four rect primitives between the rounded corners*
20,1,$1+$1,$2,$3,$4,$5,0*
20,1,$1+$1,$4,$5,$6,$7,0*
20,1,$1+$1,$6,$7,$8,$9,0*
20,1,$1+$1,$8,$9,$2,$3,0*%
G04 Aperture macros list end*
%ADD10C,0.300000*%
G04 #@! TA.AperFunction,NonConductor*
%ADD11C,0.300000*%
G04 #@! TD*
G04 #@! TA.AperFunction,ComponentPad*
%ADD12O,1.700000X1.700000*%
G04 #@! TD*
G04 #@! TA.AperFunction,ComponentPad*
%ADD13O,1.600000X2.000000*%
G04 #@! TD*
G04 #@! TA.AperFunction,ComponentPad*
%ADD14C,2.000000*%
G04 #@! TD*
G04 #@! TA.AperFunction,ComponentPad*
%ADD15R,1.350000X1.350000*%
G04 #@! TD*
G04 #@! TA.AperFunction,ComponentPad*
%ADD16O,1.350000X1.350000*%
G04 #@! TD*
G04 #@! TA.AperFunction,ComponentPad*
%ADD17R,2.000000X2.000000*%
G04 #@! TD*
G04 #@! TA.AperFunction,SMDPad,CuDef*
%ADD18RoundRect,0.243750X0.243750X0.456250X-0.243750X0.456250X-0.243750X-0.456250X0.243750X-0.456250X0*%
G04 #@! TD*
G04 #@! TA.AperFunction,ViaPad*
%ADD19C,0.600000*%
G04 #@! TD*
G04 #@! TA.AperFunction,Conductor*
%ADD20C,0.600000*%
G04 #@! TD*
G04 #@! TA.AperFunction,Conductor*
%ADD21C,0.250000*%
G04 #@! TD*
G04 #@! TA.AperFunction,Conductor*
%ADD22C,0.200000*%
G04 #@! TD*
G04 APERTURE END LIST*
D10*
D11*
X113425002Y-61626134D02*
X113425002Y-62697563D01*
X113425002Y-62697563D02*
X113496431Y-62911848D01*
X113496431Y-62911848D02*
X113639288Y-63054706D01*
X113639288Y-63054706D02*
X113853574Y-63126134D01*
X113853574Y-63126134D02*
X113996431Y-63126134D01*
X111996431Y-63126134D02*
X112710717Y-63126134D01*
X112710717Y-63126134D02*
X112710717Y-61626134D01*
X110639288Y-62983277D02*
X110710716Y-63054706D01*
X110710716Y-63054706D02*
X110925002Y-63126134D01*
X110925002Y-63126134D02*
X111067859Y-63126134D01*
X111067859Y-63126134D02*
X111282145Y-63054706D01*
X111282145Y-63054706D02*
X111425002Y-62911848D01*
X111425002Y-62911848D02*
X111496431Y-62768991D01*
X111496431Y-62768991D02*
X111567859Y-62483277D01*
X111567859Y-62483277D02*
X111567859Y-62268991D01*
X111567859Y-62268991D02*
X111496431Y-61983277D01*
X111496431Y-61983277D02*
X111425002Y-61840420D01*
X111425002Y-61840420D02*
X111282145Y-61697563D01*
X111282145Y-61697563D02*
X111067859Y-61626134D01*
X111067859Y-61626134D02*
X110925002Y-61626134D01*
X110925002Y-61626134D02*
X110710716Y-61697563D01*
X110710716Y-61697563D02*
X110639288Y-61768991D01*
X109567859Y-61626134D02*
X109567859Y-62697563D01*
X109567859Y-62697563D02*
X109639288Y-62911848D01*
X109639288Y-62911848D02*
X109782145Y-63054706D01*
X109782145Y-63054706D02*
X109996431Y-63126134D01*
X109996431Y-63126134D02*
X110139288Y-63126134D01*
X108139288Y-63126134D02*
X108853574Y-63126134D01*
X108853574Y-63126134D02*
X108853574Y-61626134D01*
X106782145Y-62983277D02*
X106853573Y-63054706D01*
X106853573Y-63054706D02*
X107067859Y-63126134D01*
X107067859Y-63126134D02*
X107210716Y-63126134D01*
X107210716Y-63126134D02*
X107425002Y-63054706D01*
X107425002Y-63054706D02*
X107567859Y-62911848D01*
X107567859Y-62911848D02*
X107639288Y-62768991D01*
X107639288Y-62768991D02*
X107710716Y-62483277D01*
X107710716Y-62483277D02*
X107710716Y-62268991D01*
X107710716Y-62268991D02*
X107639288Y-61983277D01*
X107639288Y-61983277D02*
X107567859Y-61840420D01*
X107567859Y-61840420D02*
X107425002Y-61697563D01*
X107425002Y-61697563D02*
X107210716Y-61626134D01*
X107210716Y-61626134D02*
X107067859Y-61626134D01*
X107067859Y-61626134D02*
X106853573Y-61697563D01*
X106853573Y-61697563D02*
X106782145Y-61768991D01*
X105710716Y-61626134D02*
X105710716Y-62697563D01*
X105710716Y-62697563D02*
X105782145Y-62911848D01*
X105782145Y-62911848D02*
X105925002Y-63054706D01*
X105925002Y-63054706D02*
X106139288Y-63126134D01*
X106139288Y-63126134D02*
X106282145Y-63126134D01*
X104282145Y-63126134D02*
X104996431Y-63126134D01*
X104996431Y-63126134D02*
X104996431Y-61626134D01*
X102925002Y-62983277D02*
X102996430Y-63054706D01*
X102996430Y-63054706D02*
X103210716Y-63126134D01*
X103210716Y-63126134D02*
X103353573Y-63126134D01*
X103353573Y-63126134D02*
X103567859Y-63054706D01*
X103567859Y-63054706D02*
X103710716Y-62911848D01*
X103710716Y-62911848D02*
X103782145Y-62768991D01*
X103782145Y-62768991D02*
X103853573Y-62483277D01*
X103853573Y-62483277D02*
X103853573Y-62268991D01*
X103853573Y-62268991D02*
X103782145Y-61983277D01*
X103782145Y-61983277D02*
X103710716Y-61840420D01*
X103710716Y-61840420D02*
X103567859Y-61697563D01*
X103567859Y-61697563D02*
X103353573Y-61626134D01*
X103353573Y-61626134D02*
X103210716Y-61626134D01*
X103210716Y-61626134D02*
X102996430Y-61697563D01*
X102996430Y-61697563D02*
X102925002Y-61768991D01*
X101853573Y-61626134D02*
X101853573Y-62697563D01*
X101853573Y-62697563D02*
X101925002Y-62911848D01*
X101925002Y-62911848D02*
X102067859Y-63054706D01*
X102067859Y-63054706D02*
X102282145Y-63126134D01*
X102282145Y-63126134D02*
X102425002Y-63126134D01*
X100425002Y-63126134D02*
X101139288Y-63126134D01*
X101139288Y-63126134D02*
X101139288Y-61626134D01*
X99067859Y-62983277D02*
X99139287Y-63054706D01*
X99139287Y-63054706D02*
X99353573Y-63126134D01*
X99353573Y-63126134D02*
X99496430Y-63126134D01*
X99496430Y-63126134D02*
X99710716Y-63054706D01*
X99710716Y-63054706D02*
X99853573Y-62911848D01*
X99853573Y-62911848D02*
X99925002Y-62768991D01*
X99925002Y-62768991D02*
X99996430Y-62483277D01*
X99996430Y-62483277D02*
X99996430Y-62268991D01*
X99996430Y-62268991D02*
X99925002Y-61983277D01*
X99925002Y-61983277D02*
X99853573Y-61840420D01*
X99853573Y-61840420D02*
X99710716Y-61697563D01*
X99710716Y-61697563D02*
X99496430Y-61626134D01*
X99496430Y-61626134D02*
X99353573Y-61626134D01*
X99353573Y-61626134D02*
X99139287Y-61697563D01*
X99139287Y-61697563D02*
X99067859Y-61768991D01*
D12*
X106960000Y-167300000D03*
X106960000Y-164760000D03*
X106960000Y-162220000D03*
X106960000Y-159680000D03*
X106960000Y-157140000D03*
X106960000Y-154600000D03*
X106960000Y-152060000D03*
X106960000Y-149520000D03*
X106960000Y-146980000D03*
X109500000Y-146980000D03*
X112040000Y-146980000D03*
X114580000Y-146980000D03*
X117120000Y-146980000D03*
X119660000Y-146980000D03*
X122200000Y-146980000D03*
X122200000Y-149520000D03*
X122200000Y-152060000D03*
X122200000Y-154600000D03*
X122200000Y-157140000D03*
X122200000Y-159680000D03*
X122200000Y-162220000D03*
X122200000Y-164760000D03*
X122200000Y-167300000D03*
D13*
X103900000Y-110000000D03*
X106440000Y-110000000D03*
X108980000Y-110000000D03*
X111520000Y-110000000D03*
D14*
X128200000Y-145500000D03*
X134700000Y-145500000D03*
X128200000Y-150000000D03*
X134700000Y-150000000D03*
X76100000Y-152100000D03*
X82600000Y-152100000D03*
X76100000Y-156600000D03*
X82600000Y-156600000D03*
X84900000Y-162000000D03*
X91400000Y-162000000D03*
X84900000Y-166500000D03*
X91400000Y-166500000D03*
D15*
X79400000Y-129400000D03*
D16*
X79400000Y-131400000D03*
X79400000Y-133400000D03*
X79400000Y-135400000D03*
D14*
X84900000Y-142400000D03*
X91400000Y-142400000D03*
X84900000Y-146900000D03*
X91400000Y-146900000D03*
X92900000Y-152100000D03*
X99400000Y-152100000D03*
X92900000Y-156600000D03*
X99400000Y-156600000D03*
X133800000Y-156300000D03*
X140300000Y-156300000D03*
X133800000Y-160800000D03*
X140300000Y-160800000D03*
D17*
X135200000Y-133200000D03*
D14*
X140200000Y-133200000D03*
D18*
X107700000Y-67600000D03*
X105825000Y-67600000D03*
D19*
X123600000Y-73100000D03*
X93000000Y-74000000D03*
X99500000Y-117800000D03*
X120400000Y-124900000D03*
X117500000Y-164800000D03*
X109100000Y-168200000D03*
X96200000Y-152100000D03*
X90300000Y-72400000D03*
X120900000Y-71500000D03*
X93500000Y-70800000D03*
X92700000Y-71600000D03*
X124400000Y-69900000D03*
X116200000Y-152100000D03*
D20*
X123600000Y-74600000D02*
X123600000Y-73100000D01*
D21*
X131400000Y-153900000D02*
X133800000Y-156300000D01*
X124773833Y-171700000D02*
X119700000Y-171700000D01*
X76100000Y-156600000D02*
X76100000Y-160200000D01*
X119700000Y-171700000D02*
X117500000Y-169500000D01*
X117500000Y-169500000D02*
X117500000Y-164800000D01*
X131400000Y-148700000D02*
X131400000Y-153900000D01*
X82600000Y-156600000D02*
X91000000Y-156600000D01*
D20*
X117500000Y-75500000D02*
X122700000Y-75500000D01*
D21*
X135700000Y-159700000D02*
X135700000Y-160773833D01*
X133800000Y-156300000D02*
X133800000Y-157800000D01*
D20*
X117500000Y-75500000D02*
X117500000Y-101600000D01*
D21*
X93375000Y-168475000D02*
X91400000Y-166500000D01*
X135700000Y-160773833D02*
X124773833Y-171700000D01*
X82400000Y-166500000D02*
X84900000Y-166500000D01*
D20*
X105400000Y-105900000D02*
X103900000Y-107400000D01*
D21*
X91000000Y-156600000D02*
X92900000Y-156600000D01*
X91400000Y-146900000D02*
X96200000Y-151700000D01*
D20*
X123550000Y-128050000D02*
X123550000Y-163410000D01*
X99500000Y-117800000D02*
X99500000Y-119800000D01*
X117500000Y-101600000D02*
X113200000Y-105900000D01*
X117500000Y-75500000D02*
X93400000Y-75500000D01*
X99500000Y-119800000D02*
X89900000Y-129400000D01*
D21*
X109100000Y-168200000D02*
X108825000Y-168475000D01*
X76100000Y-160200000D02*
X82400000Y-166500000D01*
D20*
X93000000Y-75100000D02*
X93000000Y-74000000D01*
D21*
X133800000Y-157800000D02*
X135700000Y-159700000D01*
X140200000Y-140000000D02*
X140200000Y-133200000D01*
D20*
X113200000Y-105900000D02*
X105400000Y-105900000D01*
X122700000Y-75500000D02*
X123600000Y-74600000D01*
X103900000Y-107400000D02*
X103900000Y-110000000D01*
D21*
X128200000Y-145500000D02*
X131400000Y-148700000D01*
X108825000Y-168475000D02*
X93375000Y-168475000D01*
D20*
X123550000Y-163410000D02*
X122200000Y-164760000D01*
D21*
X134700000Y-145500000D02*
X140200000Y-140000000D01*
D20*
X120400000Y-124900000D02*
X123550000Y-128050000D01*
D21*
X96200000Y-151700000D02*
X96200000Y-152100000D01*
D20*
X93400000Y-75500000D02*
X93000000Y-75100000D01*
X89900000Y-129400000D02*
X79400000Y-129400000D01*
X103000000Y-115020000D02*
X104880000Y-115020000D01*
X119100000Y-71500000D02*
X120900000Y-71500000D01*
X87300000Y-72400000D02*
X90300000Y-72400000D01*
X104880000Y-115020000D02*
X106440000Y-113460000D01*
X106440000Y-110000000D02*
X106440000Y-108860000D01*
X124900000Y-164600000D02*
X122200000Y-167300000D01*
X124900000Y-118200000D02*
X124900000Y-164600000D01*
X103000000Y-115020000D02*
X95620000Y-115020000D01*
X86600000Y-106000000D02*
X86600000Y-73100000D01*
X106440000Y-113460000D02*
X106440000Y-110000000D01*
X103000000Y-122000000D02*
X93600000Y-131400000D01*
X118200000Y-72400000D02*
X119100000Y-71500000D01*
X113900000Y-107200000D02*
X124900000Y-118200000D01*
X108100000Y-107200000D02*
X113900000Y-107200000D01*
X93600000Y-131400000D02*
X79400000Y-131400000D01*
X106440000Y-108860000D02*
X108100000Y-107200000D01*
X95620000Y-115020000D02*
X86600000Y-106000000D01*
X103000000Y-115020000D02*
X103000000Y-122000000D01*
X87200000Y-72500000D02*
X87300000Y-72400000D01*
X86600000Y-73100000D02*
X87200000Y-72500000D01*
X90300000Y-72400000D02*
X118200000Y-72400000D01*
D22*
X95200000Y-67600000D02*
X95000000Y-67800000D01*
X95000000Y-67800000D02*
X93500000Y-69300000D01*
X105825000Y-67600000D02*
X95200000Y-67600000D01*
X93500000Y-69300000D02*
X93500000Y-70800000D01*
X92700000Y-71600000D02*
X118151472Y-71600000D01*
X119851472Y-69900000D02*
X124400000Y-69900000D01*
X118151472Y-71600000D02*
X119851472Y-69900000D01*
D21*
X112500000Y-110000000D02*
X111520000Y-110000000D01*
X113215000Y-161045000D02*
X113215000Y-110715000D01*
X106960000Y-167300000D02*
X113215000Y-161045000D01*
X113215000Y-110715000D02*
X112500000Y-110000000D01*
X110675000Y-161045000D02*
X110675000Y-111695000D01*
X110675000Y-161045000D02*
X106960000Y-164760000D01*
X110675000Y-111695000D02*
X108980000Y-110000000D01*
X77600000Y-156573833D02*
X85426167Y-164400000D01*
X91700000Y-164400000D02*
X93880000Y-162220000D01*
X77600000Y-135200000D02*
X77600000Y-156573833D01*
X79400000Y-133400000D02*
X77600000Y-135200000D01*
X85426167Y-164400000D02*
X91700000Y-164400000D01*
X93880000Y-162220000D02*
X106960000Y-162220000D01*
X78600000Y-154473833D02*
X78600000Y-136200000D01*
X83806167Y-159680000D02*
X106960000Y-159680000D01*
X78600000Y-136200000D02*
X79400000Y-135400000D01*
X78600000Y-154473833D02*
X83806167Y-159680000D01*
X137100000Y-149200000D02*
X135500000Y-147600000D01*
X116200000Y-152100000D02*
X116200000Y-170200000D01*
X125300000Y-172600000D02*
X137100000Y-160800000D01*
X133100000Y-147600000D02*
X132100000Y-146600000D01*
X116200000Y-170200000D02*
X118600000Y-172600000D01*
X135500000Y-147600000D02*
X133100000Y-147600000D01*
X118600000Y-172600000D02*
X125300000Y-172600000D01*
X135200000Y-137700000D02*
X135200000Y-133200000D01*
X132100000Y-140800000D02*
X135200000Y-137700000D01*
X137100000Y-160800000D02*
X137100000Y-149200000D01*
X132100000Y-146600000D02*
X132100000Y-140800000D01*
X128100000Y-73600000D02*
X126000000Y-75700000D01*
X120200000Y-168800000D02*
X120200000Y-161680000D01*
X122800000Y-169100000D02*
X120500000Y-169100000D01*
X116100000Y-67600000D02*
X118000000Y-65700000D01*
X126000000Y-165900000D02*
X122800000Y-169100000D01*
X127200000Y-65700000D02*
X128100000Y-66600000D01*
X126000000Y-75700000D02*
X126000000Y-165900000D01*
X120200000Y-161680000D02*
X122200000Y-159680000D01*
X128100000Y-66600000D02*
X128100000Y-73600000D01*
X107700000Y-67600000D02*
X116100000Y-67600000D01*
X120500000Y-169100000D02*
X120200000Y-168800000D01*
X118000000Y-65700000D02*
X127200000Y-65700000D01*
X107421701Y-153400000D02*
X108200000Y-154178299D01*
X98000000Y-152900000D02*
X98700000Y-153600000D01*
X98700000Y-153600000D02*
X106108299Y-153600000D01*
X106308299Y-153400000D02*
X107421701Y-153400000D01*
X91400000Y-142400000D02*
X98000000Y-149000000D01*
X108200000Y-155900000D02*
X106960000Y-157140000D01*
X106108299Y-153600000D02*
X106308299Y-153400000D01*
X98000000Y-149000000D02*
X98000000Y-152900000D01*
X108200000Y-154178299D02*
X108200000Y-155900000D01*
X85100000Y-154600000D02*
X82600000Y-152100000D01*
X106960000Y-154600000D02*
X85100000Y-154600000D01*
X107400000Y-161000000D02*
X109200000Y-159200000D01*
X92400000Y-161000000D02*
X107400000Y-161000000D01*
X109200000Y-153000000D02*
X108260000Y-152060000D01*
X91400000Y-162000000D02*
X92400000Y-161000000D01*
X108260000Y-152060000D02*
X106960000Y-152060000D01*
X109200000Y-159200000D02*
X109200000Y-153000000D01*
X106960000Y-149520000D02*
X101980000Y-149520000D01*
X101980000Y-149520000D02*
X99400000Y-152100000D01*
X119300000Y-169100000D02*
X119300000Y-160040000D01*
X128200000Y-150000000D02*
X128200000Y-165100000D01*
X119300000Y-160040000D02*
X122200000Y-157140000D01*
X123200000Y-170100000D02*
X120300000Y-170100000D01*
X128200000Y-165100000D02*
X123200000Y-170100000D01*
X120300000Y-170100000D02*
X119300000Y-169100000D01*
X119800000Y-170800000D02*
X118500000Y-169500000D01*
X118500000Y-158300000D02*
X122200000Y-154600000D01*
X133800000Y-160800000D02*
X123800000Y-170800000D01*
X123800000Y-170800000D02*
X119800000Y-170800000D01*
X118500000Y-169500000D02*
X118500000Y-158300000D01*
G04 #@! TA.AperFunction,Conductor*
G36*
X105805203Y-168024943D02*
G01*
X105827804Y-168050829D01*
X105884278Y-168137268D01*
X105884283Y-168137273D01*
X105884284Y-168137276D01*
X106036756Y-168302902D01*
X106036760Y-168302906D01*
X106214424Y-168441189D01*
X106214425Y-168441189D01*
X106214427Y-168441191D01*
X106341135Y-168509761D01*
X106412426Y-168548342D01*
X106625365Y-168621444D01*
X106779996Y-168647247D01*
X106842879Y-168677696D01*
X106879319Y-168737311D01*
X106877745Y-168807162D01*
X106838655Y-168865074D01*
X106774461Y-168892659D01*
X106760274Y-168893553D01*
X105724689Y-168899307D01*
X105657541Y-168879995D01*
X105611494Y-168827446D01*
X105600000Y-168775309D01*
X105600000Y-168118656D01*
X105619685Y-168051617D01*
X105672489Y-168005862D01*
X105741647Y-167995918D01*
X105805203Y-168024943D01*
G37*
G04 #@! TD.AperFunction*
G04 #@! TA.AperFunction,Conductor*
G36*
X121011905Y-147653515D02*
G01*
X121033804Y-147678787D01*
X121124278Y-147817268D01*
X121124283Y-147817273D01*
X121124284Y-147817276D01*
X121276756Y-147982902D01*
X121276760Y-147982906D01*
X121454424Y-148121189D01*
X121454429Y-148121191D01*
X121454431Y-148121193D01*
X121490930Y-148140946D01*
X121540520Y-148190165D01*
X121555628Y-148258382D01*
X121531457Y-148323937D01*
X121490930Y-148359054D01*
X121454431Y-148378806D01*
X121454422Y-148378812D01*
X121276761Y-148517092D01*
X121276756Y-148517097D01*
X121124284Y-148682723D01*
X121124276Y-148682734D01*
X121001140Y-148871207D01*
X120910703Y-149077385D01*
X120855436Y-149295628D01*
X120855434Y-149295640D01*
X120836844Y-149519994D01*
X120836844Y-149520005D01*
X120855434Y-149744359D01*
X120855436Y-149744371D01*
X120910703Y-149962614D01*
X121001140Y-150168792D01*
X121124276Y-150357265D01*
X121124284Y-150357276D01*
X121276756Y-150522902D01*
X121276760Y-150522906D01*
X121454424Y-150661189D01*
X121454429Y-150661191D01*
X121454431Y-150661193D01*
X121490930Y-150680946D01*
X121540520Y-150730165D01*
X121555628Y-150798382D01*
X121531457Y-150863937D01*
X121490930Y-150899054D01*
X121454431Y-150918806D01*
X121454422Y-150918812D01*
X121276761Y-151057092D01*
X121276756Y-151057097D01*
X121124284Y-151222723D01*
X121124276Y-151222734D01*
X121001140Y-151411207D01*
X120910703Y-151617385D01*
X120855436Y-151835628D01*
X120855434Y-151835640D01*
X120836844Y-152059994D01*
X120836844Y-152060005D01*
X120855434Y-152284359D01*
X120855436Y-152284371D01*
X120910703Y-152502614D01*
X121001140Y-152708792D01*
X121124276Y-152897265D01*
X121124284Y-152897276D01*
X121276756Y-153062902D01*
X121276760Y-153062906D01*
X121454424Y-153201189D01*
X121454429Y-153201191D01*
X121454431Y-153201193D01*
X121490930Y-153220946D01*
X121540520Y-153270165D01*
X121555628Y-153338382D01*
X121531457Y-153403937D01*
X121490930Y-153439054D01*
X121454431Y-153458806D01*
X121454422Y-153458812D01*
X121276761Y-153597092D01*
X121276756Y-153597097D01*
X121124284Y-153762723D01*
X121124276Y-153762734D01*
X121001140Y-153951207D01*
X120910703Y-154157385D01*
X120855436Y-154375628D01*
X120855434Y-154375640D01*
X120836844Y-154599994D01*
X120836844Y-154600005D01*
X120855435Y-154824364D01*
X120883461Y-154935037D01*
X120880836Y-155004857D01*
X120850936Y-155053158D01*
X118765890Y-157138206D01*
X118096167Y-157807929D01*
X118068178Y-157835918D01*
X118007927Y-157896168D01*
X117938603Y-157999918D01*
X117938598Y-157999927D01*
X117890845Y-158115214D01*
X117890843Y-158115222D01*
X117866500Y-158237601D01*
X117866500Y-168708539D01*
X117846815Y-168775578D01*
X117794011Y-168821333D01*
X117743189Y-168832537D01*
X116958189Y-168836898D01*
X116891041Y-168817586D01*
X116844994Y-168765037D01*
X116833500Y-168712900D01*
X116833500Y-152647160D01*
X116852507Y-152581188D01*
X116933039Y-152453022D01*
X116933041Y-152453019D01*
X116933041Y-152453017D01*
X116933043Y-152453015D01*
X116993217Y-152281047D01*
X117013616Y-152100000D01*
X117009109Y-152060000D01*
X116993218Y-151918958D01*
X116993217Y-151918953D01*
X116933043Y-151746985D01*
X116836111Y-151592719D01*
X116707281Y-151463889D01*
X116686522Y-151450845D01*
X116553017Y-151366958D01*
X116553016Y-151366957D01*
X116553015Y-151366957D01*
X116498693Y-151347949D01*
X116381046Y-151306782D01*
X116381041Y-151306781D01*
X116200004Y-151286384D01*
X116199996Y-151286384D01*
X116018958Y-151306781D01*
X116018953Y-151306782D01*
X115846982Y-151366958D01*
X115692718Y-151463889D01*
X115563889Y-151592718D01*
X115466958Y-151746982D01*
X115406782Y-151918953D01*
X115406781Y-151918958D01*
X115386384Y-152099996D01*
X115386384Y-152100003D01*
X115406781Y-152281041D01*
X115406782Y-152281046D01*
X115466958Y-152453019D01*
X115466960Y-152453022D01*
X115547493Y-152581188D01*
X115566500Y-152647160D01*
X115566500Y-168721317D01*
X115546815Y-168788356D01*
X115494011Y-168834111D01*
X115443189Y-168845315D01*
X107174908Y-168891250D01*
X107107760Y-168871938D01*
X107061713Y-168819389D01*
X107051385Y-168750287D01*
X107080056Y-168686571D01*
X107138624Y-168648471D01*
X107153804Y-168644944D01*
X107294635Y-168621444D01*
X107507574Y-168548342D01*
X107705576Y-168441189D01*
X107883240Y-168302906D01*
X108035722Y-168137268D01*
X108158860Y-167948791D01*
X108249296Y-167742616D01*
X108304564Y-167524368D01*
X108323156Y-167300000D01*
X108304564Y-167075632D01*
X108276538Y-166964960D01*
X108279163Y-166895140D01*
X108309061Y-166846841D01*
X113707071Y-161448833D01*
X113776400Y-161345075D01*
X113824155Y-161229785D01*
X113848500Y-161107394D01*
X113848500Y-160982606D01*
X113848500Y-148336905D01*
X113868185Y-148269866D01*
X113920989Y-148224111D01*
X113990147Y-148214167D01*
X114027606Y-148226557D01*
X114027728Y-148226281D01*
X114030664Y-148227569D01*
X114031521Y-148227852D01*
X114032426Y-148228342D01*
X114245365Y-148301444D01*
X114467431Y-148338500D01*
X114692569Y-148338500D01*
X114914635Y-148301444D01*
X115127574Y-148228342D01*
X115325576Y-148121189D01*
X115503240Y-147982906D01*
X115655722Y-147817268D01*
X115746193Y-147678790D01*
X115799338Y-147633437D01*
X115868569Y-147624013D01*
X115931905Y-147653515D01*
X115953804Y-147678787D01*
X116044278Y-147817268D01*
X116044283Y-147817273D01*
X116044284Y-147817276D01*
X116196756Y-147982902D01*
X116196760Y-147982906D01*
X116374424Y-148121189D01*
X116374425Y-148121189D01*
X116374427Y-148121191D01*
X116475824Y-148176064D01*
X116572426Y-148228342D01*
X116785365Y-148301444D01*
X117007431Y-148338500D01*
X117232569Y-148338500D01*
X117454635Y-148301444D01*
X117667574Y-148228342D01*
X117865576Y-148121189D01*
X118043240Y-147982906D01*
X118195722Y-147817268D01*
X118286193Y-147678790D01*
X118339338Y-147633437D01*
X118408569Y-147624013D01*
X118471905Y-147653515D01*
X118493804Y-147678787D01*
X118584278Y-147817268D01*
X118584283Y-147817273D01*
X118584284Y-147817276D01*
X118736756Y-147982902D01*
X118736760Y-147982906D01*
X118914424Y-148121189D01*
X118914425Y-148121189D01*
X118914427Y-148121191D01*
X119015824Y-148176064D01*
X119112426Y-148228342D01*
X119325365Y-148301444D01*
X119547431Y-148338500D01*
X119772569Y-148338500D01*
X119994635Y-148301444D01*
X120207574Y-148228342D01*
X120405576Y-148121189D01*
X120583240Y-147982906D01*
X120735722Y-147817268D01*
X120826193Y-147678790D01*
X120879338Y-147633437D01*
X120948569Y-147624013D01*
X121011905Y-147653515D01*
G37*
G04 #@! TD.AperFunction*
G04 #@! TA.AperFunction,Conductor*
G36*
X123557905Y-162884332D02*
G01*
X123595236Y-162943393D01*
X123600000Y-162977432D01*
X123600000Y-164012476D01*
X123580315Y-164079515D01*
X123527511Y-164125270D01*
X123458353Y-164135214D01*
X123394797Y-164106189D01*
X123374425Y-164083600D01*
X123238109Y-163888922D01*
X123238108Y-163888920D01*
X123071082Y-163721894D01*
X122890197Y-163595236D01*
X122846572Y-163540659D01*
X122839380Y-163471160D01*
X122870902Y-163408806D01*
X122902300Y-163384608D01*
X122945576Y-163361189D01*
X123123240Y-163222906D01*
X123275722Y-163057268D01*
X123372192Y-162909608D01*
X123425338Y-162864254D01*
X123494569Y-162854830D01*
X123557905Y-162884332D01*
G37*
G04 #@! TD.AperFunction*
G04 #@! TA.AperFunction,Conductor*
G36*
X123557905Y-160344332D02*
G01*
X123595236Y-160403393D01*
X123600000Y-160437432D01*
X123600000Y-161462567D01*
X123580315Y-161529606D01*
X123527511Y-161575361D01*
X123458353Y-161585305D01*
X123394797Y-161556280D01*
X123372192Y-161530389D01*
X123289508Y-161403833D01*
X123275722Y-161382732D01*
X123275719Y-161382729D01*
X123275715Y-161382723D01*
X123123243Y-161217097D01*
X123123238Y-161217092D01*
X122945577Y-161078812D01*
X122945578Y-161078812D01*
X122945576Y-161078811D01*
X122909070Y-161059055D01*
X122859479Y-161009836D01*
X122844371Y-160941619D01*
X122868541Y-160876064D01*
X122909070Y-160840945D01*
X122912823Y-160838914D01*
X122945576Y-160821189D01*
X123123240Y-160682906D01*
X123275722Y-160517268D01*
X123372192Y-160369608D01*
X123425338Y-160324254D01*
X123494569Y-160314830D01*
X123557905Y-160344332D01*
G37*
G04 #@! TD.AperFunction*
G04 #@! TA.AperFunction,Conductor*
G36*
X123557905Y-157804332D02*
G01*
X123595236Y-157863393D01*
X123600000Y-157897432D01*
X123600000Y-158922567D01*
X123580315Y-158989606D01*
X123527511Y-159035361D01*
X123458353Y-159045305D01*
X123394797Y-159016280D01*
X123372192Y-158990389D01*
X123275723Y-158842734D01*
X123275715Y-158842723D01*
X123123243Y-158677097D01*
X123123238Y-158677092D01*
X122945577Y-158538812D01*
X122945578Y-158538812D01*
X122945576Y-158538811D01*
X122909070Y-158519055D01*
X122859479Y-158469836D01*
X122844371Y-158401619D01*
X122868541Y-158336064D01*
X122909070Y-158300945D01*
X122909084Y-158300936D01*
X122945576Y-158281189D01*
X123123240Y-158142906D01*
X123275722Y-157977268D01*
X123372192Y-157829608D01*
X123425338Y-157784254D01*
X123494569Y-157774830D01*
X123557905Y-157804332D01*
G37*
G04 #@! TD.AperFunction*
G04 #@! TA.AperFunction,Conductor*
G36*
X123557905Y-155264332D02*
G01*
X123595236Y-155323393D01*
X123600000Y-155357432D01*
X123600000Y-156382567D01*
X123580315Y-156449606D01*
X123527511Y-156495361D01*
X123458353Y-156505305D01*
X123394797Y-156476280D01*
X123372192Y-156450389D01*
X123275723Y-156302734D01*
X123275715Y-156302723D01*
X123123243Y-156137097D01*
X123123238Y-156137092D01*
X122945577Y-155998812D01*
X122945578Y-155998812D01*
X122945576Y-155998811D01*
X122909070Y-155979055D01*
X122859479Y-155929836D01*
X122844371Y-155861619D01*
X122868541Y-155796064D01*
X122909070Y-155760945D01*
X122909084Y-155760936D01*
X122945576Y-155741189D01*
X123123240Y-155602906D01*
X123275722Y-155437268D01*
X123372192Y-155289608D01*
X123425338Y-155244254D01*
X123494569Y-155234830D01*
X123557905Y-155264332D01*
G37*
G04 #@! TD.AperFunction*
G04 #@! TA.AperFunction,Conductor*
G36*
X123557905Y-152724332D02*
G01*
X123595236Y-152783393D01*
X123600000Y-152817432D01*
X123600000Y-153842567D01*
X123580315Y-153909606D01*
X123527511Y-153955361D01*
X123458353Y-153965305D01*
X123394797Y-153936280D01*
X123372192Y-153910389D01*
X123275723Y-153762734D01*
X123275715Y-153762723D01*
X123123243Y-153597097D01*
X123123238Y-153597092D01*
X122945577Y-153458812D01*
X122945578Y-153458812D01*
X122945576Y-153458811D01*
X122909070Y-153439055D01*
X122859479Y-153389836D01*
X122844371Y-153321619D01*
X122868541Y-153256064D01*
X122909070Y-153220945D01*
X122909084Y-153220936D01*
X122945576Y-153201189D01*
X123123240Y-153062906D01*
X123275722Y-152897268D01*
X123372192Y-152749608D01*
X123425338Y-152704254D01*
X123494569Y-152694830D01*
X123557905Y-152724332D01*
G37*
G04 #@! TD.AperFunction*
G04 #@! TA.AperFunction,Conductor*
G36*
X123557905Y-150184332D02*
G01*
X123595236Y-150243393D01*
X123600000Y-150277432D01*
X123600000Y-151302567D01*
X123580315Y-151369606D01*
X123527511Y-151415361D01*
X123458353Y-151425305D01*
X123394797Y-151396280D01*
X123372192Y-151370389D01*
X123275723Y-151222734D01*
X123275715Y-151222723D01*
X123123243Y-151057097D01*
X123123238Y-151057092D01*
X122945577Y-150918812D01*
X122945578Y-150918812D01*
X122945576Y-150918811D01*
X122909070Y-150899055D01*
X122859479Y-150849836D01*
X122844371Y-150781619D01*
X122868541Y-150716064D01*
X122909070Y-150680945D01*
X122909084Y-150680936D01*
X122945576Y-150661189D01*
X123123240Y-150522906D01*
X123275722Y-150357268D01*
X123372192Y-150209608D01*
X123425338Y-150164254D01*
X123494569Y-150154830D01*
X123557905Y-150184332D01*
G37*
G04 #@! TD.AperFunction*
G04 #@! TA.AperFunction,Conductor*
G36*
X123557905Y-147644332D02*
G01*
X123595236Y-147703393D01*
X123600000Y-147737432D01*
X123600000Y-148762567D01*
X123580315Y-148829606D01*
X123527511Y-148875361D01*
X123458353Y-148885305D01*
X123394797Y-148856280D01*
X123372192Y-148830389D01*
X123275723Y-148682734D01*
X123275715Y-148682723D01*
X123123243Y-148517097D01*
X123123238Y-148517092D01*
X122945577Y-148378812D01*
X122945578Y-148378812D01*
X122945576Y-148378811D01*
X122909070Y-148359055D01*
X122859479Y-148309836D01*
X122844371Y-148241619D01*
X122868541Y-148176064D01*
X122909070Y-148140945D01*
X122909084Y-148140936D01*
X122945576Y-148121189D01*
X123123240Y-147982906D01*
X123275722Y-147817268D01*
X123372192Y-147669608D01*
X123425338Y-147624254D01*
X123494569Y-147614830D01*
X123557905Y-147644332D01*
G37*
G04 #@! TD.AperFunction*
G04 #@! TA.AperFunction,Conductor*
G36*
X123543039Y-145419685D02*
G01*
X123588794Y-145472489D01*
X123600000Y-145524000D01*
X123600000Y-146222567D01*
X123580315Y-146289606D01*
X123527511Y-146335361D01*
X123458353Y-146345305D01*
X123394797Y-146316280D01*
X123372192Y-146290389D01*
X123275723Y-146142734D01*
X123275715Y-146142723D01*
X123123243Y-145977097D01*
X123123238Y-145977092D01*
X122945577Y-145838812D01*
X122945572Y-145838808D01*
X122747580Y-145731661D01*
X122747577Y-145731659D01*
X122747574Y-145731658D01*
X122747571Y-145731657D01*
X122747569Y-145731656D01*
X122534637Y-145658556D01*
X122461243Y-145646309D01*
X122398357Y-145615859D01*
X122361918Y-145556244D01*
X122363493Y-145486392D01*
X122402583Y-145428480D01*
X122466776Y-145400896D01*
X122481652Y-145400000D01*
X123476000Y-145400000D01*
X123543039Y-145419685D01*
G37*
G04 #@! TD.AperFunction*
M02*
