G04 #@! TF.GenerationSoftware,KiCad,Pcbnew,8.0.5-8.0.5-0~ubuntu24.04.1*
G04 #@! TF.CreationDate,2024-10-08T07:55:42+09:00*
G04 #@! TF.ProjectId,gopher2_rp2040_sw,676f7068-6572-4325-9f72-70323034305f,rev?*
G04 #@! TF.SameCoordinates,Original*
G04 #@! TF.FileFunction,Copper,L2,Bot*
G04 #@! TF.FilePolarity,Positive*
%FSLAX46Y46*%
G04 Gerber Fmt 4.6, Leading zero omitted, Abs format (unit mm)*
G04 Created by KiCad (PCBNEW 8.0.5-8.0.5-0~ubuntu24.04.1) date 2024-10-08 07:55:42*
%MOMM*%
%LPD*%
G01*
G04 APERTURE LIST*
G04 Aperture macros list*
%AMRoundRect*
0 Rectangle with rounded corners*
0 $1 Rounding radius*
0 $2 $3 $4 $5 $6 $7 $8 $9 X,Y pos of 4 corners*
0 Add a 4 corners polygon primitive as box body*
4,1,4,$2,$3,$4,$5,$6,$7,$8,$9,$2,$3,0*
0 Add four circle primitives for the rounded corners*
1,1,$1+$1,$2,$3*
1,1,$1+$1,$4,$5*
1,1,$1+$1,$6,$7*
1,1,$1+$1,$8,$9*
0 Add four rect primitives between the rounded corners*
20,1,$1+$1,$2,$3,$4,$5,0*
20,1,$1+$1,$4,$5,$6,$7,0*
20,1,$1+$1,$6,$7,$8,$9,0*
20,1,$1+$1,$8,$9,$2,$3,0*%
G04 Aperture macros list end*
%ADD10C,0.300000*%
G04 #@! TA.AperFunction,NonConductor*
%ADD11C,0.300000*%
G04 #@! TD*
G04 #@! TA.AperFunction,ComponentPad*
%ADD12O,1.700000X1.700000*%
G04 #@! TD*
G04 #@! TA.AperFunction,ComponentPad*
%ADD13O,1.600000X2.000000*%
G04 #@! TD*
G04 #@! TA.AperFunction,ComponentPad*
%ADD14C,2.000000*%
G04 #@! TD*
G04 #@! TA.AperFunction,ComponentPad*
%ADD15R,1.350000X1.350000*%
G04 #@! TD*
G04 #@! TA.AperFunction,ComponentPad*
%ADD16O,1.350000X1.350000*%
G04 #@! TD*
G04 #@! TA.AperFunction,ComponentPad*
%ADD17R,2.000000X2.000000*%
G04 #@! TD*
G04 #@! TA.AperFunction,SMDPad,CuDef*
%ADD18RoundRect,0.243750X0.243750X0.456250X-0.243750X0.456250X-0.243750X-0.456250X0.243750X-0.456250X0*%
G04 #@! TD*
G04 #@! TA.AperFunction,ViaPad*
%ADD19C,0.600000*%
G04 #@! TD*
G04 #@! TA.AperFunction,Conductor*
%ADD20C,0.250000*%
G04 #@! TD*
G04 #@! TA.AperFunction,Conductor*
%ADD21C,0.600000*%
G04 #@! TD*
G04 #@! TA.AperFunction,Conductor*
%ADD22C,0.200000*%
G04 #@! TD*
G04 APERTURE END LIST*
D10*
D11*
X110275035Y-87060597D02*
X110275035Y-88132026D01*
X110275035Y-88132026D02*
X110346464Y-88346311D01*
X110346464Y-88346311D02*
X110489321Y-88489169D01*
X110489321Y-88489169D02*
X110703607Y-88560597D01*
X110703607Y-88560597D02*
X110846464Y-88560597D01*
X108846464Y-88560597D02*
X109560750Y-88560597D01*
X109560750Y-88560597D02*
X109560750Y-87060597D01*
X107489321Y-88417740D02*
X107560749Y-88489169D01*
X107560749Y-88489169D02*
X107775035Y-88560597D01*
X107775035Y-88560597D02*
X107917892Y-88560597D01*
X107917892Y-88560597D02*
X108132178Y-88489169D01*
X108132178Y-88489169D02*
X108275035Y-88346311D01*
X108275035Y-88346311D02*
X108346464Y-88203454D01*
X108346464Y-88203454D02*
X108417892Y-87917740D01*
X108417892Y-87917740D02*
X108417892Y-87703454D01*
X108417892Y-87703454D02*
X108346464Y-87417740D01*
X108346464Y-87417740D02*
X108275035Y-87274883D01*
X108275035Y-87274883D02*
X108132178Y-87132026D01*
X108132178Y-87132026D02*
X107917892Y-87060597D01*
X107917892Y-87060597D02*
X107775035Y-87060597D01*
X107775035Y-87060597D02*
X107560749Y-87132026D01*
X107560749Y-87132026D02*
X107489321Y-87203454D01*
X106417892Y-87060597D02*
X106417892Y-88132026D01*
X106417892Y-88132026D02*
X106489321Y-88346311D01*
X106489321Y-88346311D02*
X106632178Y-88489169D01*
X106632178Y-88489169D02*
X106846464Y-88560597D01*
X106846464Y-88560597D02*
X106989321Y-88560597D01*
X104989321Y-88560597D02*
X105703607Y-88560597D01*
X105703607Y-88560597D02*
X105703607Y-87060597D01*
X103632178Y-88417740D02*
X103703606Y-88489169D01*
X103703606Y-88489169D02*
X103917892Y-88560597D01*
X103917892Y-88560597D02*
X104060749Y-88560597D01*
X104060749Y-88560597D02*
X104275035Y-88489169D01*
X104275035Y-88489169D02*
X104417892Y-88346311D01*
X104417892Y-88346311D02*
X104489321Y-88203454D01*
X104489321Y-88203454D02*
X104560749Y-87917740D01*
X104560749Y-87917740D02*
X104560749Y-87703454D01*
X104560749Y-87703454D02*
X104489321Y-87417740D01*
X104489321Y-87417740D02*
X104417892Y-87274883D01*
X104417892Y-87274883D02*
X104275035Y-87132026D01*
X104275035Y-87132026D02*
X104060749Y-87060597D01*
X104060749Y-87060597D02*
X103917892Y-87060597D01*
X103917892Y-87060597D02*
X103703606Y-87132026D01*
X103703606Y-87132026D02*
X103632178Y-87203454D01*
X102560749Y-87060597D02*
X102560749Y-88132026D01*
X102560749Y-88132026D02*
X102632178Y-88346311D01*
X102632178Y-88346311D02*
X102775035Y-88489169D01*
X102775035Y-88489169D02*
X102989321Y-88560597D01*
X102989321Y-88560597D02*
X103132178Y-88560597D01*
X101132178Y-88560597D02*
X101846464Y-88560597D01*
X101846464Y-88560597D02*
X101846464Y-87060597D01*
X99775035Y-88417740D02*
X99846463Y-88489169D01*
X99846463Y-88489169D02*
X100060749Y-88560597D01*
X100060749Y-88560597D02*
X100203606Y-88560597D01*
X100203606Y-88560597D02*
X100417892Y-88489169D01*
X100417892Y-88489169D02*
X100560749Y-88346311D01*
X100560749Y-88346311D02*
X100632178Y-88203454D01*
X100632178Y-88203454D02*
X100703606Y-87917740D01*
X100703606Y-87917740D02*
X100703606Y-87703454D01*
X100703606Y-87703454D02*
X100632178Y-87417740D01*
X100632178Y-87417740D02*
X100560749Y-87274883D01*
X100560749Y-87274883D02*
X100417892Y-87132026D01*
X100417892Y-87132026D02*
X100203606Y-87060597D01*
X100203606Y-87060597D02*
X100060749Y-87060597D01*
X100060749Y-87060597D02*
X99846463Y-87132026D01*
X99846463Y-87132026D02*
X99775035Y-87203454D01*
X98703606Y-87060597D02*
X98703606Y-88132026D01*
X98703606Y-88132026D02*
X98775035Y-88346311D01*
X98775035Y-88346311D02*
X98917892Y-88489169D01*
X98917892Y-88489169D02*
X99132178Y-88560597D01*
X99132178Y-88560597D02*
X99275035Y-88560597D01*
X97275035Y-88560597D02*
X97989321Y-88560597D01*
X97989321Y-88560597D02*
X97989321Y-87060597D01*
X95917892Y-88417740D02*
X95989320Y-88489169D01*
X95989320Y-88489169D02*
X96203606Y-88560597D01*
X96203606Y-88560597D02*
X96346463Y-88560597D01*
X96346463Y-88560597D02*
X96560749Y-88489169D01*
X96560749Y-88489169D02*
X96703606Y-88346311D01*
X96703606Y-88346311D02*
X96775035Y-88203454D01*
X96775035Y-88203454D02*
X96846463Y-87917740D01*
X96846463Y-87917740D02*
X96846463Y-87703454D01*
X96846463Y-87703454D02*
X96775035Y-87417740D01*
X96775035Y-87417740D02*
X96703606Y-87274883D01*
X96703606Y-87274883D02*
X96560749Y-87132026D01*
X96560749Y-87132026D02*
X96346463Y-87060597D01*
X96346463Y-87060597D02*
X96203606Y-87060597D01*
X96203606Y-87060597D02*
X95989320Y-87132026D01*
X95989320Y-87132026D02*
X95917892Y-87203454D01*
D12*
X111060000Y-155400000D03*
X111060000Y-152860000D03*
X111060000Y-150320000D03*
X111060000Y-147780000D03*
X111060000Y-145240000D03*
X111060000Y-142700000D03*
X111060000Y-140160000D03*
X111060000Y-137620000D03*
X111060000Y-135080000D03*
X113600000Y-135080000D03*
X116140000Y-135080000D03*
X118680000Y-135080000D03*
X121220000Y-135080000D03*
X123760000Y-135080000D03*
X126300000Y-135080000D03*
X126300000Y-137620000D03*
X126300000Y-140160000D03*
X126300000Y-142700000D03*
X126300000Y-145240000D03*
X126300000Y-147780000D03*
X126300000Y-150320000D03*
X126300000Y-152860000D03*
X126300000Y-155400000D03*
D13*
X109580000Y-98100000D03*
X112120000Y-98100000D03*
X114660000Y-98100000D03*
X117200000Y-98100000D03*
D14*
X132300000Y-133600000D03*
X138800000Y-133600000D03*
X132300000Y-138100000D03*
X138800000Y-138100000D03*
X80200000Y-140200000D03*
X86700000Y-140200000D03*
X80200000Y-144700000D03*
X86700000Y-144700000D03*
X89000000Y-150100000D03*
X95500000Y-150100000D03*
X89000000Y-154600000D03*
X95500000Y-154600000D03*
D15*
X83500000Y-117500000D03*
D16*
X83500000Y-119500000D03*
X83500000Y-121500000D03*
X83500000Y-123500000D03*
D14*
X89000000Y-130500000D03*
X95500000Y-130500000D03*
X89000000Y-135000000D03*
X95500000Y-135000000D03*
X97000000Y-140200000D03*
X103500000Y-140200000D03*
X97000000Y-144700000D03*
X103500000Y-144700000D03*
X137900000Y-144400000D03*
X144400000Y-144400000D03*
X137900000Y-148900000D03*
X144400000Y-148900000D03*
D17*
X137400000Y-115500000D03*
D14*
X142400000Y-115500000D03*
D18*
X113100000Y-57200000D03*
X111225000Y-57200000D03*
D19*
X103600000Y-105900000D03*
X124500000Y-113000000D03*
X127000000Y-63400000D03*
X121600000Y-152900000D03*
X113200000Y-156300000D03*
X97700000Y-64500000D03*
X100300000Y-140200000D03*
X124600000Y-61800000D03*
X95300000Y-63000000D03*
X98600000Y-61300000D03*
X97900000Y-62200000D03*
X127500000Y-60200000D03*
X120300000Y-140200000D03*
D20*
X135500000Y-142000000D02*
X137900000Y-144400000D01*
D21*
X97700000Y-67000000D02*
X97700000Y-64500000D01*
X98600000Y-67900000D02*
X97700000Y-67000000D01*
D20*
X128873833Y-159800000D02*
X123800000Y-159800000D01*
D21*
X126400000Y-67900000D02*
X127000000Y-67300000D01*
D22*
X142400000Y-130000000D02*
X138800000Y-133600000D01*
D20*
X80200000Y-144700000D02*
X80200000Y-148300000D01*
X123800000Y-159800000D02*
X121600000Y-157600000D01*
X121600000Y-157600000D02*
X121600000Y-152900000D01*
D21*
X117300000Y-94000000D02*
X117300000Y-67900000D01*
X117300000Y-94000000D02*
X112400000Y-94000000D01*
D20*
X135500000Y-136800000D02*
X135500000Y-142000000D01*
X86700000Y-144700000D02*
X95100000Y-144700000D01*
X139800000Y-147800000D02*
X139800000Y-148873833D01*
D21*
X112400000Y-94000000D02*
X109580000Y-96820000D01*
D20*
X137900000Y-144400000D02*
X137900000Y-145900000D01*
X97475000Y-156575000D02*
X95500000Y-154600000D01*
X139800000Y-148873833D02*
X128873833Y-159800000D01*
X86500000Y-154600000D02*
X89000000Y-154600000D01*
X95100000Y-144700000D02*
X97000000Y-144700000D01*
D21*
X109580000Y-96820000D02*
X109580000Y-98100000D01*
D20*
X95500000Y-135000000D02*
X100300000Y-139800000D01*
D21*
X127650000Y-116150000D02*
X127650000Y-151510000D01*
X103600000Y-105900000D02*
X103600000Y-107900000D01*
X117300000Y-67900000D02*
X98600000Y-67900000D01*
X103600000Y-107900000D02*
X94000000Y-117500000D01*
D20*
X113200000Y-156300000D02*
X112925000Y-156575000D01*
X80200000Y-148300000D02*
X86500000Y-154600000D01*
X137900000Y-145900000D02*
X139800000Y-147800000D01*
D21*
X127000000Y-67300000D02*
X127000000Y-63400000D01*
D20*
X132300000Y-133600000D02*
X135500000Y-136800000D01*
X112925000Y-156575000D02*
X97475000Y-156575000D01*
D21*
X127650000Y-151510000D02*
X126300000Y-152860000D01*
D22*
X142400000Y-115500000D02*
X142400000Y-130000000D01*
D21*
X124500000Y-113000000D02*
X127650000Y-116150000D01*
D20*
X100300000Y-139800000D02*
X100300000Y-140200000D01*
D21*
X117300000Y-67900000D02*
X126400000Y-67900000D01*
X94000000Y-117500000D02*
X83500000Y-117500000D01*
X95300000Y-63000000D02*
X122000000Y-63000000D01*
X122000000Y-63000000D02*
X123200000Y-61800000D01*
X90700000Y-94100000D02*
X86500000Y-89900000D01*
X88200000Y-63000000D02*
X95300000Y-63000000D01*
X86500000Y-89800000D02*
X86500000Y-64700000D01*
X107100000Y-103120000D02*
X99720000Y-103120000D01*
X112120000Y-98320000D02*
X112120000Y-98100000D01*
X129000000Y-152700000D02*
X126300000Y-155400000D01*
X123200000Y-61800000D02*
X124600000Y-61800000D01*
X107100000Y-103120000D02*
X112120000Y-98100000D01*
X107100000Y-110100000D02*
X97700000Y-119500000D01*
X112120000Y-98100000D02*
X114920000Y-95300000D01*
X86500000Y-89900000D02*
X86500000Y-89800000D01*
X97700000Y-119500000D02*
X83500000Y-119500000D01*
X118000000Y-95300000D02*
X129000000Y-106300000D01*
X99720000Y-103120000D02*
X90700000Y-94100000D01*
X107100000Y-103120000D02*
X107100000Y-110100000D01*
X129000000Y-106300000D02*
X129000000Y-152700000D01*
X87100000Y-64100000D02*
X88200000Y-63000000D01*
X114920000Y-95300000D02*
X118000000Y-95300000D01*
X86500000Y-64700000D02*
X87100000Y-64100000D01*
D20*
X99500000Y-57200000D02*
X98600000Y-58100000D01*
X98600000Y-58100000D02*
X98600000Y-61300000D01*
X111225000Y-57200000D02*
X99500000Y-57200000D01*
X104800000Y-62200000D02*
X97900000Y-62200000D01*
X106800000Y-60200000D02*
X104800000Y-62200000D01*
X127500000Y-60200000D02*
X106800000Y-60200000D01*
X117315000Y-149145000D02*
X111060000Y-155400000D01*
X117315000Y-133785001D02*
X117315000Y-149145000D01*
X119768346Y-100668346D02*
X119768346Y-131331655D01*
X119768346Y-131331655D02*
X117315000Y-133785001D01*
X117200000Y-98100000D02*
X119768346Y-100668346D01*
X114775000Y-149145000D02*
X111060000Y-152860000D01*
X114660000Y-98100000D02*
X114775000Y-98215000D01*
X114775000Y-98215000D02*
X114775000Y-149145000D01*
X81700000Y-144673833D02*
X89526167Y-152500000D01*
X95800000Y-152500000D02*
X97980000Y-150320000D01*
X81700000Y-123300000D02*
X81700000Y-144673833D01*
X83500000Y-121500000D02*
X81700000Y-123300000D01*
X89526167Y-152500000D02*
X95800000Y-152500000D01*
X97980000Y-150320000D02*
X111060000Y-150320000D01*
X82700000Y-142573833D02*
X82700000Y-124300000D01*
X87906167Y-147780000D02*
X111060000Y-147780000D01*
X82700000Y-124300000D02*
X83500000Y-123500000D01*
X82700000Y-142573833D02*
X87906167Y-147780000D01*
X137400000Y-115500000D02*
X137400000Y-134073833D01*
X129400000Y-160700000D02*
X122700000Y-160700000D01*
X137475000Y-115325000D02*
X137600000Y-115200000D01*
X141200000Y-137873833D02*
X141200000Y-148900000D01*
X141200000Y-148900000D02*
X129400000Y-160700000D01*
X137400000Y-134073833D02*
X141200000Y-137873833D01*
X120300000Y-158300000D02*
X120300000Y-140200000D01*
X122700000Y-160700000D02*
X120300000Y-158300000D01*
X124300000Y-156900000D02*
X124300000Y-149780000D01*
X126900000Y-157200000D02*
X124600000Y-157200000D01*
X130800000Y-132700000D02*
X130800000Y-153300000D01*
X130800000Y-153300000D02*
X126900000Y-157200000D01*
X124600000Y-157200000D02*
X124300000Y-156900000D01*
X132000000Y-59500000D02*
X132000000Y-131500000D01*
X113100000Y-57200000D02*
X129700000Y-57200000D01*
X124300000Y-149780000D02*
X126300000Y-147780000D01*
X132000000Y-131500000D02*
X130800000Y-132700000D01*
X129700000Y-57200000D02*
X132000000Y-59500000D01*
X111521701Y-141500000D02*
X112300000Y-142278299D01*
X102100000Y-141000000D02*
X102800000Y-141700000D01*
X102800000Y-141700000D02*
X110208299Y-141700000D01*
X110408299Y-141500000D02*
X111521701Y-141500000D01*
X95500000Y-130500000D02*
X102100000Y-137100000D01*
X112300000Y-144000000D02*
X111060000Y-145240000D01*
X110208299Y-141700000D02*
X110408299Y-141500000D01*
X102100000Y-137100000D02*
X102100000Y-141000000D01*
X112300000Y-142278299D02*
X112300000Y-144000000D01*
X89200000Y-142700000D02*
X86700000Y-140200000D01*
X111060000Y-142700000D02*
X89200000Y-142700000D01*
X111500000Y-149100000D02*
X113300000Y-147300000D01*
X96500000Y-149100000D02*
X111500000Y-149100000D01*
X113300000Y-141100000D02*
X112360000Y-140160000D01*
X95500000Y-150100000D02*
X96500000Y-149100000D01*
X112360000Y-140160000D02*
X111060000Y-140160000D01*
X113300000Y-147300000D02*
X113300000Y-141100000D01*
X111060000Y-137620000D02*
X106080000Y-137620000D01*
X106080000Y-137620000D02*
X103500000Y-140200000D01*
X123400000Y-157200000D02*
X123400000Y-148140000D01*
X132300000Y-138100000D02*
X132300000Y-153200000D01*
X123400000Y-148140000D02*
X126300000Y-145240000D01*
X127300000Y-158200000D02*
X124400000Y-158200000D01*
X132300000Y-153200000D02*
X127300000Y-158200000D01*
X124400000Y-158200000D02*
X123400000Y-157200000D01*
X123900000Y-158900000D02*
X122600000Y-157600000D01*
X122600000Y-146400000D02*
X126300000Y-142700000D01*
X137900000Y-148900000D02*
X127900000Y-158900000D01*
X127900000Y-158900000D02*
X123900000Y-158900000D01*
X122600000Y-157600000D02*
X122600000Y-146400000D01*
G04 #@! TA.AperFunction,Conductor*
G36*
X109905203Y-156124943D02*
G01*
X109927804Y-156150829D01*
X109984278Y-156237268D01*
X109984283Y-156237273D01*
X109984284Y-156237276D01*
X110136756Y-156402902D01*
X110136760Y-156402906D01*
X110314424Y-156541189D01*
X110314425Y-156541189D01*
X110314427Y-156541191D01*
X110441135Y-156609761D01*
X110512426Y-156648342D01*
X110725365Y-156721444D01*
X110879996Y-156747247D01*
X110942879Y-156777696D01*
X110979319Y-156837311D01*
X110977745Y-156907162D01*
X110938655Y-156965074D01*
X110874461Y-156992659D01*
X110860274Y-156993553D01*
X109824689Y-156999307D01*
X109757541Y-156979995D01*
X109711494Y-156927446D01*
X109700000Y-156875309D01*
X109700000Y-156218656D01*
X109719685Y-156151617D01*
X109772489Y-156105862D01*
X109841647Y-156095918D01*
X109905203Y-156124943D01*
G37*
G04 #@! TD.AperFunction*
G04 #@! TA.AperFunction,Conductor*
G36*
X125111905Y-135753515D02*
G01*
X125133804Y-135778787D01*
X125224278Y-135917268D01*
X125224283Y-135917273D01*
X125224284Y-135917276D01*
X125376756Y-136082902D01*
X125376760Y-136082906D01*
X125554424Y-136221189D01*
X125554429Y-136221191D01*
X125554431Y-136221193D01*
X125590930Y-136240946D01*
X125640520Y-136290165D01*
X125655628Y-136358382D01*
X125631457Y-136423937D01*
X125590930Y-136459054D01*
X125554431Y-136478806D01*
X125554422Y-136478812D01*
X125376761Y-136617092D01*
X125376756Y-136617097D01*
X125224284Y-136782723D01*
X125224276Y-136782734D01*
X125101140Y-136971207D01*
X125010703Y-137177385D01*
X124955436Y-137395628D01*
X124955434Y-137395640D01*
X124936844Y-137619994D01*
X124936844Y-137620005D01*
X124955434Y-137844359D01*
X124955436Y-137844371D01*
X125010703Y-138062614D01*
X125101140Y-138268792D01*
X125224276Y-138457265D01*
X125224284Y-138457276D01*
X125376756Y-138622902D01*
X125376760Y-138622906D01*
X125554424Y-138761189D01*
X125554429Y-138761191D01*
X125554431Y-138761193D01*
X125590930Y-138780946D01*
X125640520Y-138830165D01*
X125655628Y-138898382D01*
X125631457Y-138963937D01*
X125590930Y-138999054D01*
X125554431Y-139018806D01*
X125554422Y-139018812D01*
X125376761Y-139157092D01*
X125376756Y-139157097D01*
X125224284Y-139322723D01*
X125224276Y-139322734D01*
X125101140Y-139511207D01*
X125010703Y-139717385D01*
X124955436Y-139935628D01*
X124955434Y-139935640D01*
X124936844Y-140159994D01*
X124936844Y-140160005D01*
X124955434Y-140384359D01*
X124955436Y-140384371D01*
X125010703Y-140602614D01*
X125101140Y-140808792D01*
X125224276Y-140997265D01*
X125224284Y-140997276D01*
X125376756Y-141162902D01*
X125376760Y-141162906D01*
X125554424Y-141301189D01*
X125554429Y-141301191D01*
X125554431Y-141301193D01*
X125590930Y-141320946D01*
X125640520Y-141370165D01*
X125655628Y-141438382D01*
X125631457Y-141503937D01*
X125590930Y-141539054D01*
X125554431Y-141558806D01*
X125554422Y-141558812D01*
X125376761Y-141697092D01*
X125376756Y-141697097D01*
X125224284Y-141862723D01*
X125224276Y-141862734D01*
X125101140Y-142051207D01*
X125010703Y-142257385D01*
X124955436Y-142475628D01*
X124955434Y-142475640D01*
X124936844Y-142699994D01*
X124936844Y-142700005D01*
X124955435Y-142924364D01*
X124983461Y-143035037D01*
X124980836Y-143104857D01*
X124950936Y-143153158D01*
X122865890Y-145238206D01*
X122196167Y-145907929D01*
X122168178Y-145935918D01*
X122107927Y-145996168D01*
X122038603Y-146099918D01*
X122038598Y-146099927D01*
X121990845Y-146215214D01*
X121990843Y-146215222D01*
X121966500Y-146337601D01*
X121966500Y-156808539D01*
X121946815Y-156875578D01*
X121894011Y-156921333D01*
X121843189Y-156932537D01*
X121058189Y-156936898D01*
X120991041Y-156917586D01*
X120944994Y-156865037D01*
X120933500Y-156812900D01*
X120933500Y-140747160D01*
X120952507Y-140681188D01*
X121033039Y-140553022D01*
X121033041Y-140553019D01*
X121033041Y-140553017D01*
X121033043Y-140553015D01*
X121093217Y-140381047D01*
X121113616Y-140200000D01*
X121109109Y-140160000D01*
X121093218Y-140018958D01*
X121093217Y-140018953D01*
X121033043Y-139846985D01*
X120936111Y-139692719D01*
X120807281Y-139563889D01*
X120786522Y-139550845D01*
X120653017Y-139466958D01*
X120653016Y-139466957D01*
X120653015Y-139466957D01*
X120598693Y-139447949D01*
X120481046Y-139406782D01*
X120481041Y-139406781D01*
X120300004Y-139386384D01*
X120299996Y-139386384D01*
X120118958Y-139406781D01*
X120118953Y-139406782D01*
X119946982Y-139466958D01*
X119792718Y-139563889D01*
X119663889Y-139692718D01*
X119566958Y-139846982D01*
X119506782Y-140018953D01*
X119506781Y-140018958D01*
X119486384Y-140199996D01*
X119486384Y-140200003D01*
X119506781Y-140381041D01*
X119506782Y-140381046D01*
X119566958Y-140553019D01*
X119566960Y-140553022D01*
X119647493Y-140681188D01*
X119666500Y-140747160D01*
X119666500Y-156821317D01*
X119646815Y-156888356D01*
X119594011Y-156934111D01*
X119543189Y-156945315D01*
X111274908Y-156991250D01*
X111207760Y-156971938D01*
X111161713Y-156919389D01*
X111151385Y-156850287D01*
X111180056Y-156786571D01*
X111238624Y-156748471D01*
X111253804Y-156744944D01*
X111394635Y-156721444D01*
X111607574Y-156648342D01*
X111805576Y-156541189D01*
X111983240Y-156402906D01*
X112135722Y-156237268D01*
X112258860Y-156048791D01*
X112349296Y-155842616D01*
X112404564Y-155624368D01*
X112423156Y-155400000D01*
X112404564Y-155175632D01*
X112376538Y-155064960D01*
X112379163Y-154995140D01*
X112409061Y-154946841D01*
X117807071Y-149548833D01*
X117876400Y-149445075D01*
X117924155Y-149329785D01*
X117948500Y-149207394D01*
X117948500Y-149082606D01*
X117948500Y-136436905D01*
X117968185Y-136369866D01*
X118020989Y-136324111D01*
X118090147Y-136314167D01*
X118127606Y-136326557D01*
X118127728Y-136326281D01*
X118130664Y-136327569D01*
X118131521Y-136327852D01*
X118132426Y-136328342D01*
X118345365Y-136401444D01*
X118567431Y-136438500D01*
X118792569Y-136438500D01*
X119014635Y-136401444D01*
X119227574Y-136328342D01*
X119425576Y-136221189D01*
X119603240Y-136082906D01*
X119755722Y-135917268D01*
X119846193Y-135778790D01*
X119899338Y-135733437D01*
X119968569Y-135724013D01*
X120031905Y-135753515D01*
X120053804Y-135778787D01*
X120144278Y-135917268D01*
X120144283Y-135917273D01*
X120144284Y-135917276D01*
X120296756Y-136082902D01*
X120296760Y-136082906D01*
X120474424Y-136221189D01*
X120474425Y-136221189D01*
X120474427Y-136221191D01*
X120575824Y-136276064D01*
X120672426Y-136328342D01*
X120885365Y-136401444D01*
X121107431Y-136438500D01*
X121332569Y-136438500D01*
X121554635Y-136401444D01*
X121767574Y-136328342D01*
X121965576Y-136221189D01*
X122143240Y-136082906D01*
X122295722Y-135917268D01*
X122386193Y-135778790D01*
X122439338Y-135733437D01*
X122508569Y-135724013D01*
X122571905Y-135753515D01*
X122593804Y-135778787D01*
X122684278Y-135917268D01*
X122684283Y-135917273D01*
X122684284Y-135917276D01*
X122836756Y-136082902D01*
X122836760Y-136082906D01*
X123014424Y-136221189D01*
X123014425Y-136221189D01*
X123014427Y-136221191D01*
X123115824Y-136276064D01*
X123212426Y-136328342D01*
X123425365Y-136401444D01*
X123647431Y-136438500D01*
X123872569Y-136438500D01*
X124094635Y-136401444D01*
X124307574Y-136328342D01*
X124505576Y-136221189D01*
X124683240Y-136082906D01*
X124835722Y-135917268D01*
X124926193Y-135778790D01*
X124979338Y-135733437D01*
X125048569Y-135724013D01*
X125111905Y-135753515D01*
G37*
G04 #@! TD.AperFunction*
G04 #@! TA.AperFunction,Conductor*
G36*
X127657905Y-150984332D02*
G01*
X127695236Y-151043393D01*
X127700000Y-151077432D01*
X127700000Y-152112476D01*
X127680315Y-152179515D01*
X127627511Y-152225270D01*
X127558353Y-152235214D01*
X127494797Y-152206189D01*
X127474425Y-152183600D01*
X127338109Y-151988922D01*
X127338108Y-151988920D01*
X127171082Y-151821894D01*
X126990197Y-151695236D01*
X126946572Y-151640659D01*
X126939380Y-151571160D01*
X126970902Y-151508806D01*
X127002300Y-151484608D01*
X127045576Y-151461189D01*
X127223240Y-151322906D01*
X127375722Y-151157268D01*
X127472192Y-151009608D01*
X127525338Y-150964254D01*
X127594569Y-150954830D01*
X127657905Y-150984332D01*
G37*
G04 #@! TD.AperFunction*
G04 #@! TA.AperFunction,Conductor*
G36*
X127657905Y-148444332D02*
G01*
X127695236Y-148503393D01*
X127700000Y-148537432D01*
X127700000Y-149562567D01*
X127680315Y-149629606D01*
X127627511Y-149675361D01*
X127558353Y-149685305D01*
X127494797Y-149656280D01*
X127472192Y-149630389D01*
X127389508Y-149503833D01*
X127375722Y-149482732D01*
X127375719Y-149482729D01*
X127375715Y-149482723D01*
X127223243Y-149317097D01*
X127223238Y-149317092D01*
X127045577Y-149178812D01*
X127045578Y-149178812D01*
X127045576Y-149178811D01*
X127009070Y-149159055D01*
X126959479Y-149109836D01*
X126944371Y-149041619D01*
X126968541Y-148976064D01*
X127009070Y-148940945D01*
X127012823Y-148938914D01*
X127045576Y-148921189D01*
X127223240Y-148782906D01*
X127375722Y-148617268D01*
X127472192Y-148469608D01*
X127525338Y-148424254D01*
X127594569Y-148414830D01*
X127657905Y-148444332D01*
G37*
G04 #@! TD.AperFunction*
G04 #@! TA.AperFunction,Conductor*
G36*
X127657905Y-145904332D02*
G01*
X127695236Y-145963393D01*
X127700000Y-145997432D01*
X127700000Y-147022567D01*
X127680315Y-147089606D01*
X127627511Y-147135361D01*
X127558353Y-147145305D01*
X127494797Y-147116280D01*
X127472192Y-147090389D01*
X127375723Y-146942734D01*
X127375715Y-146942723D01*
X127223243Y-146777097D01*
X127223238Y-146777092D01*
X127045577Y-146638812D01*
X127045578Y-146638812D01*
X127045576Y-146638811D01*
X127009070Y-146619055D01*
X126959479Y-146569836D01*
X126944371Y-146501619D01*
X126968541Y-146436064D01*
X127009070Y-146400945D01*
X127009084Y-146400936D01*
X127045576Y-146381189D01*
X127223240Y-146242906D01*
X127375722Y-146077268D01*
X127472192Y-145929608D01*
X127525338Y-145884254D01*
X127594569Y-145874830D01*
X127657905Y-145904332D01*
G37*
G04 #@! TD.AperFunction*
G04 #@! TA.AperFunction,Conductor*
G36*
X127657905Y-143364332D02*
G01*
X127695236Y-143423393D01*
X127700000Y-143457432D01*
X127700000Y-144482567D01*
X127680315Y-144549606D01*
X127627511Y-144595361D01*
X127558353Y-144605305D01*
X127494797Y-144576280D01*
X127472192Y-144550389D01*
X127375723Y-144402734D01*
X127375715Y-144402723D01*
X127223243Y-144237097D01*
X127223238Y-144237092D01*
X127045577Y-144098812D01*
X127045578Y-144098812D01*
X127045576Y-144098811D01*
X127009070Y-144079055D01*
X126959479Y-144029836D01*
X126944371Y-143961619D01*
X126968541Y-143896064D01*
X127009070Y-143860945D01*
X127009084Y-143860936D01*
X127045576Y-143841189D01*
X127223240Y-143702906D01*
X127375722Y-143537268D01*
X127472192Y-143389608D01*
X127525338Y-143344254D01*
X127594569Y-143334830D01*
X127657905Y-143364332D01*
G37*
G04 #@! TD.AperFunction*
G04 #@! TA.AperFunction,Conductor*
G36*
X127657905Y-140824332D02*
G01*
X127695236Y-140883393D01*
X127700000Y-140917432D01*
X127700000Y-141942567D01*
X127680315Y-142009606D01*
X127627511Y-142055361D01*
X127558353Y-142065305D01*
X127494797Y-142036280D01*
X127472192Y-142010389D01*
X127375723Y-141862734D01*
X127375715Y-141862723D01*
X127223243Y-141697097D01*
X127223238Y-141697092D01*
X127045577Y-141558812D01*
X127045578Y-141558812D01*
X127045576Y-141558811D01*
X127009070Y-141539055D01*
X126959479Y-141489836D01*
X126944371Y-141421619D01*
X126968541Y-141356064D01*
X127009070Y-141320945D01*
X127009084Y-141320936D01*
X127045576Y-141301189D01*
X127223240Y-141162906D01*
X127375722Y-140997268D01*
X127472192Y-140849608D01*
X127525338Y-140804254D01*
X127594569Y-140794830D01*
X127657905Y-140824332D01*
G37*
G04 #@! TD.AperFunction*
G04 #@! TA.AperFunction,Conductor*
G36*
X127657905Y-138284332D02*
G01*
X127695236Y-138343393D01*
X127700000Y-138377432D01*
X127700000Y-139402567D01*
X127680315Y-139469606D01*
X127627511Y-139515361D01*
X127558353Y-139525305D01*
X127494797Y-139496280D01*
X127472192Y-139470389D01*
X127375723Y-139322734D01*
X127375715Y-139322723D01*
X127223243Y-139157097D01*
X127223238Y-139157092D01*
X127045577Y-139018812D01*
X127045578Y-139018812D01*
X127045576Y-139018811D01*
X127009070Y-138999055D01*
X126959479Y-138949836D01*
X126944371Y-138881619D01*
X126968541Y-138816064D01*
X127009070Y-138780945D01*
X127009084Y-138780936D01*
X127045576Y-138761189D01*
X127223240Y-138622906D01*
X127375722Y-138457268D01*
X127472192Y-138309608D01*
X127525338Y-138264254D01*
X127594569Y-138254830D01*
X127657905Y-138284332D01*
G37*
G04 #@! TD.AperFunction*
G04 #@! TA.AperFunction,Conductor*
G36*
X127657905Y-135744332D02*
G01*
X127695236Y-135803393D01*
X127700000Y-135837432D01*
X127700000Y-136862567D01*
X127680315Y-136929606D01*
X127627511Y-136975361D01*
X127558353Y-136985305D01*
X127494797Y-136956280D01*
X127472192Y-136930389D01*
X127375723Y-136782734D01*
X127375715Y-136782723D01*
X127223243Y-136617097D01*
X127223238Y-136617092D01*
X127045577Y-136478812D01*
X127045578Y-136478812D01*
X127045576Y-136478811D01*
X127009070Y-136459055D01*
X126959479Y-136409836D01*
X126944371Y-136341619D01*
X126968541Y-136276064D01*
X127009070Y-136240945D01*
X127009084Y-136240936D01*
X127045576Y-136221189D01*
X127223240Y-136082906D01*
X127375722Y-135917268D01*
X127472192Y-135769608D01*
X127525338Y-135724254D01*
X127594569Y-135714830D01*
X127657905Y-135744332D01*
G37*
G04 #@! TD.AperFunction*
G04 #@! TA.AperFunction,Conductor*
G36*
X127643039Y-133519685D02*
G01*
X127688794Y-133572489D01*
X127700000Y-133624000D01*
X127700000Y-134322567D01*
X127680315Y-134389606D01*
X127627511Y-134435361D01*
X127558353Y-134445305D01*
X127494797Y-134416280D01*
X127472192Y-134390389D01*
X127375723Y-134242734D01*
X127375715Y-134242723D01*
X127223243Y-134077097D01*
X127223238Y-134077092D01*
X127045577Y-133938812D01*
X127045572Y-133938808D01*
X126847580Y-133831661D01*
X126847577Y-133831659D01*
X126847574Y-133831658D01*
X126847571Y-133831657D01*
X126847569Y-133831656D01*
X126634637Y-133758556D01*
X126561243Y-133746309D01*
X126498357Y-133715859D01*
X126461918Y-133656244D01*
X126463493Y-133586392D01*
X126502583Y-133528480D01*
X126566776Y-133500896D01*
X126581652Y-133500000D01*
X127576000Y-133500000D01*
X127643039Y-133519685D01*
G37*
G04 #@! TD.AperFunction*
M02*
