G04 #@! TF.GenerationSoftware,KiCad,Pcbnew,8.0.5-8.0.5-0~ubuntu24.04.1*
G04 #@! TF.CreationDate,2024-10-08T07:55:42+09:00*
G04 #@! TF.ProjectId,gopher2_rp2040_sw,676f7068-6572-4325-9f72-70323034305f,rev?*
G04 #@! TF.SameCoordinates,Original*
G04 #@! TF.FileFunction,Copper,L1,Top*
G04 #@! TF.FilePolarity,Positive*
%FSLAX46Y46*%
G04 Gerber Fmt 4.6, Leading zero omitted, Abs format (unit mm)*
G04 Created by KiCad (PCBNEW 8.0.5-8.0.5-0~ubuntu24.04.1) date 2024-10-08 07:55:42*
%MOMM*%
%LPD*%
G01*
G04 APERTURE LIST*
G04 #@! TA.AperFunction,EtchedComponent*
%ADD10C,0.010000*%
G04 #@! TD*
G04 #@! TA.AperFunction,SMDPad,CuDef*
%ADD11R,1.500000X1.000000*%
G04 #@! TD*
G04 #@! TA.AperFunction,ComponentPad*
%ADD12O,1.700000X1.700000*%
G04 #@! TD*
G04 #@! TA.AperFunction,ComponentPad*
%ADD13O,1.600000X2.000000*%
G04 #@! TD*
G04 #@! TA.AperFunction,ComponentPad*
%ADD14C,2.000000*%
G04 #@! TD*
G04 #@! TA.AperFunction,ComponentPad*
%ADD15R,1.350000X1.350000*%
G04 #@! TD*
G04 #@! TA.AperFunction,ComponentPad*
%ADD16O,1.350000X1.350000*%
G04 #@! TD*
G04 #@! TA.AperFunction,ComponentPad*
%ADD17R,2.000000X2.000000*%
G04 #@! TD*
G04 #@! TA.AperFunction,ViaPad*
%ADD18C,0.600000*%
G04 #@! TD*
G04 #@! TA.AperFunction,Conductor*
%ADD19C,0.600000*%
G04 #@! TD*
G04 #@! TA.AperFunction,Conductor*
%ADD20C,0.250000*%
G04 #@! TD*
G04 #@! TA.AperFunction,Conductor*
%ADD21C,0.200000*%
G04 #@! TD*
G04 APERTURE END LIST*
D10*
X128711367Y-50278810D02*
X130924211Y-50762439D01*
X131658823Y-51058059D01*
X133578523Y-52244804D01*
X135407772Y-53874471D01*
X136928558Y-55726784D01*
X137791059Y-57253976D01*
X138507105Y-59706992D01*
X138706761Y-62399598D01*
X138393918Y-65067174D01*
X137643312Y-67300187D01*
X136115879Y-69688161D01*
X134084440Y-71576478D01*
X131623328Y-72916765D01*
X128806874Y-73660651D01*
X127693961Y-73774779D01*
X126247210Y-73809020D01*
X124936283Y-73747124D01*
X124141429Y-73623367D01*
X121326984Y-72478951D01*
X118903365Y-70753447D01*
X116954633Y-68519292D01*
X115805006Y-66439614D01*
X115018248Y-63779552D01*
X114926727Y-61647012D01*
X115977143Y-61647012D01*
X116041805Y-63162730D01*
X116209637Y-64571016D01*
X116397552Y-65402348D01*
X117562251Y-67831613D01*
X119246401Y-69832912D01*
X121344978Y-71358878D01*
X123752962Y-72362143D01*
X126365330Y-72795340D01*
X129077061Y-72611103D01*
X131112817Y-72039266D01*
X133418413Y-70802958D01*
X135257644Y-69087752D01*
X136608073Y-67005735D01*
X137447264Y-64668993D01*
X137752779Y-62189613D01*
X137502180Y-59679681D01*
X136673032Y-57251284D01*
X135242896Y-55016509D01*
X134652191Y-54358039D01*
X132953481Y-52890415D01*
X131125401Y-51935025D01*
X128960803Y-51403604D01*
X127353471Y-51248019D01*
X125749340Y-51191239D01*
X124588230Y-51266191D01*
X123592624Y-51515556D01*
X122485005Y-51982017D01*
X122438343Y-52003958D01*
X119898520Y-53535212D01*
X117980992Y-55434759D01*
X116696048Y-57687242D01*
X116053974Y-60277309D01*
X115977143Y-61647012D01*
X114926727Y-61647012D01*
X114902444Y-61081200D01*
X115416438Y-58450250D01*
X116519074Y-55992393D01*
X118169198Y-53813317D01*
X120325655Y-52018715D01*
X121729169Y-51225856D01*
X123845920Y-50515046D01*
X126262628Y-50197855D01*
X128711367Y-50278810D01*
G04 #@! TA.AperFunction,EtchedComponent*
G36*
X128711367Y-50278810D02*
G01*
X130924211Y-50762439D01*
X131658823Y-51058059D01*
X133578523Y-52244804D01*
X135407772Y-53874471D01*
X136928558Y-55726784D01*
X137791059Y-57253976D01*
X138507105Y-59706992D01*
X138706761Y-62399598D01*
X138393918Y-65067174D01*
X137643312Y-67300187D01*
X136115879Y-69688161D01*
X134084440Y-71576478D01*
X131623328Y-72916765D01*
X128806874Y-73660651D01*
X127693961Y-73774779D01*
X126247210Y-73809020D01*
X124936283Y-73747124D01*
X124141429Y-73623367D01*
X121326984Y-72478951D01*
X118903365Y-70753447D01*
X116954633Y-68519292D01*
X115805006Y-66439614D01*
X115018248Y-63779552D01*
X114926727Y-61647012D01*
X115977143Y-61647012D01*
X116041805Y-63162730D01*
X116209637Y-64571016D01*
X116397552Y-65402348D01*
X117562251Y-67831613D01*
X119246401Y-69832912D01*
X121344978Y-71358878D01*
X123752962Y-72362143D01*
X126365330Y-72795340D01*
X129077061Y-72611103D01*
X131112817Y-72039266D01*
X133418413Y-70802958D01*
X135257644Y-69087752D01*
X136608073Y-67005735D01*
X137447264Y-64668993D01*
X137752779Y-62189613D01*
X137502180Y-59679681D01*
X136673032Y-57251284D01*
X135242896Y-55016509D01*
X134652191Y-54358039D01*
X132953481Y-52890415D01*
X131125401Y-51935025D01*
X128960803Y-51403604D01*
X127353471Y-51248019D01*
X125749340Y-51191239D01*
X124588230Y-51266191D01*
X123592624Y-51515556D01*
X122485005Y-51982017D01*
X122438343Y-52003958D01*
X119898520Y-53535212D01*
X117980992Y-55434759D01*
X116696048Y-57687242D01*
X116053974Y-60277309D01*
X115977143Y-61647012D01*
X114926727Y-61647012D01*
X114902444Y-61081200D01*
X115416438Y-58450250D01*
X116519074Y-55992393D01*
X118169198Y-53813317D01*
X120325655Y-52018715D01*
X121729169Y-51225856D01*
X123845920Y-50515046D01*
X126262628Y-50197855D01*
X128711367Y-50278810D01*
G37*
G04 #@! TD.AperFunction*
X99691359Y-51412525D02*
X100950816Y-51600591D01*
X102103558Y-51990994D01*
X102988228Y-52407445D01*
X105558244Y-54071113D01*
X107544673Y-56161812D01*
X108923798Y-58641134D01*
X109671900Y-61470674D01*
X109808572Y-63451409D01*
X109473913Y-66198144D01*
X108530014Y-68685141D01*
X107066990Y-70852173D01*
X105174957Y-72639014D01*
X102944030Y-73985436D01*
X100464326Y-74831212D01*
X97825961Y-75116114D01*
X95119048Y-74779915D01*
X93589582Y-74291089D01*
X92269189Y-73612701D01*
X90824359Y-72638379D01*
X89888571Y-71864910D01*
X87946238Y-69616552D01*
X86663816Y-67118905D01*
X86056012Y-64447507D01*
X86100014Y-62952506D01*
X87107595Y-62952506D01*
X87270736Y-65358542D01*
X87888712Y-67485604D01*
X87947516Y-67613401D01*
X89152483Y-69535593D01*
X90789035Y-71295612D01*
X92630151Y-72672357D01*
X93684879Y-73201167D01*
X95736069Y-73741843D01*
X98093624Y-73923174D01*
X100424265Y-73738698D01*
X101940400Y-73361213D01*
X103152950Y-72770429D01*
X104512024Y-71866504D01*
X105402904Y-71131030D01*
X107170149Y-69041282D01*
X108318088Y-66699691D01*
X108861946Y-64216962D01*
X108816945Y-61703798D01*
X108198307Y-59270903D01*
X107021256Y-57028980D01*
X105301014Y-55088734D01*
X103052805Y-53560868D01*
X102981885Y-53524838D01*
X101730210Y-52961298D01*
X100581546Y-52643564D01*
X99229065Y-52507419D01*
X98017418Y-52485781D01*
X95081778Y-52800373D01*
X92532276Y-53740910D01*
X90385595Y-55297385D01*
X88658417Y-57459790D01*
X88124332Y-58420786D01*
X87393918Y-60546815D01*
X87107595Y-62952506D01*
X86100014Y-62952506D01*
X86137530Y-61677894D01*
X86923076Y-58885606D01*
X87228169Y-58199157D01*
X88831539Y-55590745D01*
X90846050Y-53596276D01*
X93254433Y-52226691D01*
X96039423Y-51492933D01*
X98017418Y-51362071D01*
X99691359Y-51412525D01*
G04 #@! TA.AperFunction,EtchedComponent*
G36*
X99691359Y-51412525D02*
G01*
X100950816Y-51600591D01*
X102103558Y-51990994D01*
X102988228Y-52407445D01*
X105558244Y-54071113D01*
X107544673Y-56161812D01*
X108923798Y-58641134D01*
X109671900Y-61470674D01*
X109808572Y-63451409D01*
X109473913Y-66198144D01*
X108530014Y-68685141D01*
X107066990Y-70852173D01*
X105174957Y-72639014D01*
X102944030Y-73985436D01*
X100464326Y-74831212D01*
X97825961Y-75116114D01*
X95119048Y-74779915D01*
X93589582Y-74291089D01*
X92269189Y-73612701D01*
X90824359Y-72638379D01*
X89888571Y-71864910D01*
X87946238Y-69616552D01*
X86663816Y-67118905D01*
X86056012Y-64447507D01*
X86100014Y-62952506D01*
X87107595Y-62952506D01*
X87270736Y-65358542D01*
X87888712Y-67485604D01*
X87947516Y-67613401D01*
X89152483Y-69535593D01*
X90789035Y-71295612D01*
X92630151Y-72672357D01*
X93684879Y-73201167D01*
X95736069Y-73741843D01*
X98093624Y-73923174D01*
X100424265Y-73738698D01*
X101940400Y-73361213D01*
X103152950Y-72770429D01*
X104512024Y-71866504D01*
X105402904Y-71131030D01*
X107170149Y-69041282D01*
X108318088Y-66699691D01*
X108861946Y-64216962D01*
X108816945Y-61703798D01*
X108198307Y-59270903D01*
X107021256Y-57028980D01*
X105301014Y-55088734D01*
X103052805Y-53560868D01*
X102981885Y-53524838D01*
X101730210Y-52961298D01*
X100581546Y-52643564D01*
X99229065Y-52507419D01*
X98017418Y-52485781D01*
X95081778Y-52800373D01*
X92532276Y-53740910D01*
X90385595Y-55297385D01*
X88658417Y-57459790D01*
X88124332Y-58420786D01*
X87393918Y-60546815D01*
X87107595Y-62952506D01*
X86100014Y-62952506D01*
X86137530Y-61677894D01*
X86923076Y-58885606D01*
X87228169Y-58199157D01*
X88831539Y-55590745D01*
X90846050Y-53596276D01*
X93254433Y-52226691D01*
X96039423Y-51492933D01*
X98017418Y-51362071D01*
X99691359Y-51412525D01*
G37*
G04 #@! TD.AperFunction*
X115022404Y-70000490D02*
X115814554Y-70329667D01*
X116340000Y-70667250D01*
X117377432Y-71672437D01*
X117724251Y-72561185D01*
X118104572Y-73486577D01*
X119027366Y-74151043D01*
X120638282Y-75199028D01*
X121806636Y-76479141D01*
X122519453Y-77874298D01*
X122763758Y-79267413D01*
X122526579Y-80541404D01*
X121794941Y-81579185D01*
X120555870Y-82263674D01*
X119942305Y-82407943D01*
X118517143Y-82642539D01*
X118517143Y-85748618D01*
X118497712Y-87305959D01*
X118413208Y-88296487D01*
X118224315Y-88899978D01*
X117891716Y-89296207D01*
X117710691Y-89436172D01*
X116556619Y-89919565D01*
X115265107Y-89960936D01*
X114149469Y-89568871D01*
X113858304Y-89330606D01*
X113343578Y-88876304D01*
X112923703Y-88907880D01*
X112366677Y-89330606D01*
X111130487Y-89951411D01*
X109823889Y-89949650D01*
X108672386Y-89344399D01*
X108345364Y-88990441D01*
X107941300Y-88371399D01*
X107723184Y-87691012D01*
X107655784Y-86730157D01*
X107690634Y-85671635D01*
X108728632Y-85671635D01*
X108758850Y-87056591D01*
X108879335Y-88088847D01*
X108940251Y-88306214D01*
X109440645Y-88740178D01*
X110313104Y-88891275D01*
X111258118Y-88759769D01*
X111976174Y-88345919D01*
X112012505Y-88303534D01*
X112271371Y-87617730D01*
X112486453Y-86339113D01*
X112622477Y-84746563D01*
X113786520Y-84746563D01*
X113832990Y-86109983D01*
X113948888Y-87286028D01*
X114136281Y-88088309D01*
X114175624Y-88174556D01*
X114826222Y-88730406D01*
X115795352Y-88888204D01*
X116779357Y-88634435D01*
X117221225Y-88310084D01*
X117567618Y-87834205D01*
X117740299Y-87192441D01*
X117753721Y-86210748D01*
X117622335Y-84715080D01*
X117563062Y-84193298D01*
X117388286Y-83048297D01*
X117103820Y-82404486D01*
X116552210Y-82017616D01*
X116024073Y-81805950D01*
X115046279Y-81444100D01*
X114331186Y-81176516D01*
X114253572Y-81146953D01*
X114043004Y-81395964D01*
X113893595Y-82203163D01*
X113807411Y-83382160D01*
X113786520Y-84746563D01*
X112622477Y-84746563D01*
X112633145Y-84621669D01*
X112648216Y-84325259D01*
X112805420Y-80940508D01*
X111941996Y-81192481D01*
X110880325Y-81477380D01*
X110118512Y-81661136D01*
X109325157Y-82081377D01*
X108939808Y-83003201D01*
X108939227Y-83006188D01*
X108788739Y-84224620D01*
X108728632Y-85671635D01*
X107690634Y-85671635D01*
X107703867Y-85269708D01*
X107714735Y-85068382D01*
X107874273Y-82173529D01*
X106546102Y-82173529D01*
X105200180Y-81899781D01*
X104434548Y-81315130D01*
X103589329Y-79918289D01*
X103486199Y-79047061D01*
X104387631Y-79047061D01*
X104825427Y-80194531D01*
X104966239Y-80369852D01*
X105870607Y-80884364D01*
X107275109Y-81043176D01*
X109039994Y-80843018D01*
X110385903Y-80496690D01*
X112280122Y-80048173D01*
X113892491Y-80044593D01*
X115531247Y-80496023D01*
X115977143Y-80679411D01*
X117859808Y-81266472D01*
X119534522Y-81351522D01*
X120850323Y-80929560D01*
X120976405Y-80844995D01*
X121638315Y-79976457D01*
X121751900Y-78852589D01*
X121374196Y-77630083D01*
X120562236Y-76465633D01*
X119373056Y-75515933D01*
X118957845Y-75299370D01*
X118036060Y-74904279D01*
X117383164Y-74810774D01*
X116664626Y-75030314D01*
X115886900Y-75404559D01*
X113789399Y-76063268D01*
X111533696Y-76115151D01*
X109388833Y-75557254D01*
X109212062Y-75477798D01*
X108256581Y-75063987D01*
X107641265Y-74970725D01*
X107052106Y-75195126D01*
X106623699Y-75453999D01*
X105332332Y-76541655D01*
X104571788Y-77784389D01*
X104387631Y-79047061D01*
X103486199Y-79047061D01*
X103410308Y-78405956D01*
X103874548Y-76896830D01*
X104959113Y-75509609D01*
X105666289Y-74940705D01*
X106659551Y-74049817D01*
X107459658Y-73006219D01*
X107567352Y-72808751D01*
X108488579Y-71426247D01*
X109708527Y-70533797D01*
X111371980Y-70048815D01*
X112632314Y-69919661D01*
X114051730Y-69881983D01*
X115022404Y-70000490D01*
G04 #@! TA.AperFunction,EtchedComponent*
G36*
X115022404Y-70000490D02*
G01*
X115814554Y-70329667D01*
X116340000Y-70667250D01*
X117377432Y-71672437D01*
X117724251Y-72561185D01*
X118104572Y-73486577D01*
X119027366Y-74151043D01*
X120638282Y-75199028D01*
X121806636Y-76479141D01*
X122519453Y-77874298D01*
X122763758Y-79267413D01*
X122526579Y-80541404D01*
X121794941Y-81579185D01*
X120555870Y-82263674D01*
X119942305Y-82407943D01*
X118517143Y-82642539D01*
X118517143Y-85748618D01*
X118497712Y-87305959D01*
X118413208Y-88296487D01*
X118224315Y-88899978D01*
X117891716Y-89296207D01*
X117710691Y-89436172D01*
X116556619Y-89919565D01*
X115265107Y-89960936D01*
X114149469Y-89568871D01*
X113858304Y-89330606D01*
X113343578Y-88876304D01*
X112923703Y-88907880D01*
X112366677Y-89330606D01*
X111130487Y-89951411D01*
X109823889Y-89949650D01*
X108672386Y-89344399D01*
X108345364Y-88990441D01*
X107941300Y-88371399D01*
X107723184Y-87691012D01*
X107655784Y-86730157D01*
X107690634Y-85671635D01*
X108728632Y-85671635D01*
X108758850Y-87056591D01*
X108879335Y-88088847D01*
X108940251Y-88306214D01*
X109440645Y-88740178D01*
X110313104Y-88891275D01*
X111258118Y-88759769D01*
X111976174Y-88345919D01*
X112012505Y-88303534D01*
X112271371Y-87617730D01*
X112486453Y-86339113D01*
X112622477Y-84746563D01*
X113786520Y-84746563D01*
X113832990Y-86109983D01*
X113948888Y-87286028D01*
X114136281Y-88088309D01*
X114175624Y-88174556D01*
X114826222Y-88730406D01*
X115795352Y-88888204D01*
X116779357Y-88634435D01*
X117221225Y-88310084D01*
X117567618Y-87834205D01*
X117740299Y-87192441D01*
X117753721Y-86210748D01*
X117622335Y-84715080D01*
X117563062Y-84193298D01*
X117388286Y-83048297D01*
X117103820Y-82404486D01*
X116552210Y-82017616D01*
X116024073Y-81805950D01*
X115046279Y-81444100D01*
X114331186Y-81176516D01*
X114253572Y-81146953D01*
X114043004Y-81395964D01*
X113893595Y-82203163D01*
X113807411Y-83382160D01*
X113786520Y-84746563D01*
X112622477Y-84746563D01*
X112633145Y-84621669D01*
X112648216Y-84325259D01*
X112805420Y-80940508D01*
X111941996Y-81192481D01*
X110880325Y-81477380D01*
X110118512Y-81661136D01*
X109325157Y-82081377D01*
X108939808Y-83003201D01*
X108939227Y-83006188D01*
X108788739Y-84224620D01*
X108728632Y-85671635D01*
X107690634Y-85671635D01*
X107703867Y-85269708D01*
X107714735Y-85068382D01*
X107874273Y-82173529D01*
X106546102Y-82173529D01*
X105200180Y-81899781D01*
X104434548Y-81315130D01*
X103589329Y-79918289D01*
X103486199Y-79047061D01*
X104387631Y-79047061D01*
X104825427Y-80194531D01*
X104966239Y-80369852D01*
X105870607Y-80884364D01*
X107275109Y-81043176D01*
X109039994Y-80843018D01*
X110385903Y-80496690D01*
X112280122Y-80048173D01*
X113892491Y-80044593D01*
X115531247Y-80496023D01*
X115977143Y-80679411D01*
X117859808Y-81266472D01*
X119534522Y-81351522D01*
X120850323Y-80929560D01*
X120976405Y-80844995D01*
X121638315Y-79976457D01*
X121751900Y-78852589D01*
X121374196Y-77630083D01*
X120562236Y-76465633D01*
X119373056Y-75515933D01*
X118957845Y-75299370D01*
X118036060Y-74904279D01*
X117383164Y-74810774D01*
X116664626Y-75030314D01*
X115886900Y-75404559D01*
X113789399Y-76063268D01*
X111533696Y-76115151D01*
X109388833Y-75557254D01*
X109212062Y-75477798D01*
X108256581Y-75063987D01*
X107641265Y-74970725D01*
X107052106Y-75195126D01*
X106623699Y-75453999D01*
X105332332Y-76541655D01*
X104571788Y-77784389D01*
X104387631Y-79047061D01*
X103486199Y-79047061D01*
X103410308Y-78405956D01*
X103874548Y-76896830D01*
X104959113Y-75509609D01*
X105666289Y-74940705D01*
X106659551Y-74049817D01*
X107459658Y-73006219D01*
X107567352Y-72808751D01*
X108488579Y-71426247D01*
X109708527Y-70533797D01*
X111371980Y-70048815D01*
X112632314Y-69919661D01*
X114051730Y-69881983D01*
X115022404Y-70000490D01*
G37*
G04 #@! TD.AperFunction*
X120969317Y-43794845D02*
X123930958Y-44027204D01*
X125454612Y-44248256D01*
X129451753Y-45198945D01*
X133227981Y-46543845D01*
X136602220Y-48211145D01*
X138450451Y-49402215D01*
X139696616Y-50299437D01*
X141534737Y-49551375D01*
X143463572Y-49004059D01*
X145613404Y-48773346D01*
X147731696Y-48858840D01*
X149565913Y-49260141D01*
X150271899Y-49565156D01*
X152182196Y-50895174D01*
X153719348Y-52562350D01*
X154340013Y-53573887D01*
X154782628Y-54934304D01*
X155042308Y-56704544D01*
X155098273Y-58566258D01*
X154929743Y-60201098D01*
X154804530Y-60690372D01*
X154038244Y-62239847D01*
X152819789Y-63808908D01*
X151371229Y-65140779D01*
X150431240Y-65747337D01*
X149094406Y-66449398D01*
X149598238Y-68428375D01*
X150016072Y-70149599D01*
X150361205Y-71790031D01*
X150641707Y-73448383D01*
X150865644Y-75223364D01*
X151041085Y-77213687D01*
X151176097Y-79518061D01*
X151278747Y-82235199D01*
X151357104Y-85463810D01*
X151419235Y-89302606D01*
X151440617Y-90970537D01*
X151608740Y-104810193D01*
X154317587Y-105675792D01*
X156389105Y-106443193D01*
X157820666Y-107249537D01*
X158697137Y-108170734D01*
X159103388Y-109282692D01*
X159157143Y-110004404D01*
X158908018Y-111738807D01*
X158227515Y-113193001D01*
X157215948Y-114172303D01*
X156936342Y-114314491D01*
X155831770Y-114438966D01*
X154475088Y-114097919D01*
X153111043Y-113370343D01*
X152498135Y-112882077D01*
X152189606Y-112627055D01*
X151998309Y-112617661D01*
X151908305Y-112964412D01*
X151903654Y-113777829D01*
X151968420Y-115168428D01*
X152024720Y-116164705D01*
X152126572Y-118055187D01*
X152243595Y-120409602D01*
X152362230Y-122945411D01*
X152468917Y-125380075D01*
X152481835Y-125689705D01*
X152515405Y-131549691D01*
X152128842Y-137096556D01*
X151336407Y-142269120D01*
X150152367Y-147006199D01*
X148590985Y-151246614D01*
X146666526Y-154929181D01*
X145164373Y-157075142D01*
X144371700Y-158105678D01*
X143818899Y-158880158D01*
X143611214Y-159250049D01*
X143615552Y-159261020D01*
X145277867Y-160564246D01*
X146725601Y-162155651D01*
X147839569Y-163863938D01*
X148500583Y-165517811D01*
X148630881Y-166469134D01*
X148305436Y-167810769D01*
X147434260Y-169071610D01*
X146186400Y-170041654D01*
X145516786Y-170337754D01*
X144301938Y-170558635D01*
X143184747Y-170293813D01*
X142046233Y-169480470D01*
X140767415Y-168055782D01*
X140469860Y-167672990D01*
X139489867Y-166498464D01*
X138515176Y-165509211D01*
X137749726Y-164911331D01*
X137722244Y-164896278D01*
X136974178Y-164569405D01*
X136339936Y-164580930D01*
X135477594Y-164951521D01*
X135301178Y-165042615D01*
X132525868Y-166268400D01*
X129193242Y-167367320D01*
X125468035Y-168287444D01*
X124220301Y-168535577D01*
X122487074Y-168836373D01*
X120849457Y-169058003D01*
X119143067Y-169211808D01*
X117203516Y-169309128D01*
X114866421Y-169361306D01*
X111985715Y-169379651D01*
X109268729Y-169375569D01*
X107131274Y-169345906D01*
X105427306Y-169279800D01*
X104010782Y-169166392D01*
X102735658Y-168994823D01*
X101455892Y-168754233D01*
X100383101Y-168516881D01*
X98506343Y-168043587D01*
X96613071Y-167497621D01*
X94990352Y-166964527D01*
X94329891Y-166713052D01*
X93103607Y-166227294D01*
X92306183Y-166009622D01*
X91697232Y-166039214D01*
X91036364Y-166295246D01*
X90803339Y-166407578D01*
X89879382Y-166974583D01*
X88686147Y-167860565D01*
X87491864Y-168865084D01*
X86403888Y-169812624D01*
X85603005Y-170361313D01*
X84843601Y-170619629D01*
X83880064Y-170696048D01*
X83337259Y-170700000D01*
X82033810Y-170645889D01*
X81160781Y-170419433D01*
X80426659Y-169924446D01*
X80113443Y-169636297D01*
X79076153Y-168325670D01*
X78839149Y-167405465D01*
X79847599Y-167405465D01*
X80067724Y-168111140D01*
X80505726Y-168953627D01*
X80951185Y-167865784D01*
X81508792Y-166782811D01*
X82213464Y-165778567D01*
X82928263Y-165008043D01*
X83516248Y-164626231D01*
X83775351Y-164669331D01*
X83793682Y-165200888D01*
X83255254Y-166140814D01*
X83010647Y-166466750D01*
X82100641Y-167864580D01*
X81781894Y-168948085D01*
X82058888Y-169679679D01*
X82594286Y-169958188D01*
X83489763Y-170055379D01*
X84434544Y-169808214D01*
X85563335Y-169152687D01*
X87010838Y-168024789D01*
X87451384Y-167650250D01*
X88644811Y-166685612D01*
X89759929Y-165890635D01*
X90581380Y-165417153D01*
X90667858Y-165382560D01*
X91376025Y-165052907D01*
X91650610Y-164780371D01*
X91358236Y-164198684D01*
X90653472Y-163369526D01*
X89720688Y-162470539D01*
X88744250Y-161679365D01*
X87908529Y-161173645D01*
X87906315Y-161172691D01*
X87071273Y-160861436D01*
X86394534Y-160815358D01*
X85573226Y-161056086D01*
X84773604Y-161396415D01*
X83419442Y-162190994D01*
X82063410Y-163307340D01*
X80888768Y-164561011D01*
X80078774Y-165767561D01*
X79854299Y-166347543D01*
X79847599Y-167405465D01*
X78839149Y-167405465D01*
X78737384Y-167010351D01*
X79075390Y-165594292D01*
X79158238Y-165417436D01*
X80087123Y-163936840D01*
X81322519Y-162506936D01*
X82617790Y-161399289D01*
X83049782Y-161132513D01*
X84049564Y-160593471D01*
X81656939Y-157709235D01*
X79386157Y-154581966D01*
X77643722Y-151347485D01*
X76489920Y-148132018D01*
X76071514Y-146014361D01*
X75967376Y-144752315D01*
X75884156Y-142860756D01*
X75822108Y-140456926D01*
X75781485Y-137658068D01*
X75762539Y-134581424D01*
X75765522Y-131344238D01*
X75790688Y-128063751D01*
X75838290Y-124857207D01*
X75908580Y-121841848D01*
X76001811Y-119134916D01*
X76012993Y-118872170D01*
X76087807Y-116975898D01*
X76136418Y-115377721D01*
X76155937Y-114209841D01*
X76143475Y-113604461D01*
X76129361Y-113549376D01*
X75796968Y-113753392D01*
X75108865Y-114261379D01*
X74859361Y-114454741D01*
X73240426Y-115449173D01*
X71815254Y-115729488D01*
X70557750Y-115293518D01*
X69441820Y-114139098D01*
X69345494Y-113996941D01*
X68577333Y-112345731D01*
X68541837Y-111774251D01*
X69274805Y-111774251D01*
X69579135Y-112200595D01*
X70271591Y-112007640D01*
X70459405Y-111889414D01*
X71430026Y-111376966D01*
X71959122Y-111450523D01*
X72071429Y-111869117D01*
X71803804Y-112364854D01*
X71571573Y-112429411D01*
X70935656Y-112692932D01*
X70620000Y-112989705D01*
X70351204Y-113587555D01*
X70620000Y-114110294D01*
X71464198Y-114615173D01*
X72630168Y-114543309D01*
X74002021Y-113913876D01*
X74673935Y-113439536D01*
X75511244Y-112750681D01*
X75990107Y-112169534D01*
X76223206Y-111445207D01*
X76323223Y-110326814D01*
X76351579Y-109704242D01*
X76361562Y-108447472D01*
X76285005Y-107548625D01*
X76138449Y-107200058D01*
X76136242Y-107200000D01*
X75542635Y-107330361D01*
X74504376Y-107666081D01*
X73246265Y-108124112D01*
X71993105Y-108621404D01*
X70969695Y-109074910D01*
X70721601Y-109200326D01*
X69848197Y-109917303D01*
X69381415Y-110752667D01*
X69274805Y-111774251D01*
X68541837Y-111774251D01*
X68480899Y-110793181D01*
X69054458Y-109420776D01*
X69452695Y-108958532D01*
X70400398Y-108276979D01*
X71792573Y-107562753D01*
X73361885Y-106928715D01*
X74840993Y-106487725D01*
X75608926Y-106359589D01*
X75976735Y-106257005D01*
X76232677Y-105965493D01*
X76376964Y-105401089D01*
X76409804Y-104479833D01*
X76331408Y-103117761D01*
X76141986Y-101230910D01*
X75841748Y-98735318D01*
X75632101Y-97093300D01*
X75159978Y-92485163D01*
X74891445Y-87678142D01*
X74839220Y-83735108D01*
X76475149Y-83735108D01*
X76666616Y-89728033D01*
X77190326Y-95127809D01*
X77389979Y-96738139D01*
X77558266Y-98282259D01*
X77696338Y-99831128D01*
X77805346Y-101455705D01*
X77886439Y-103226948D01*
X77940769Y-105215816D01*
X77969487Y-107493269D01*
X77973743Y-110130263D01*
X77954687Y-113197759D01*
X77913470Y-116766715D01*
X77851243Y-120908090D01*
X77769156Y-125692842D01*
X77725260Y-128117647D01*
X77648449Y-132444401D01*
X77594226Y-136098824D01*
X77569349Y-139155468D01*
X77580578Y-141688882D01*
X77634672Y-143773618D01*
X77738390Y-145484226D01*
X77898491Y-146895256D01*
X78121734Y-148081259D01*
X78414879Y-149116787D01*
X78784684Y-150076388D01*
X79237909Y-151034615D01*
X79781312Y-152066017D01*
X79919675Y-152321270D01*
X80860570Y-153853509D01*
X82014232Y-155433848D01*
X83268800Y-156940218D01*
X84512414Y-158250549D01*
X85633212Y-159242771D01*
X86519334Y-159794816D01*
X86834950Y-159867647D01*
X87784139Y-160001439D01*
X88755521Y-160463671D01*
X89897677Y-161345628D01*
X91121429Y-162501086D01*
X92464153Y-163665857D01*
X93985803Y-164619921D01*
X95836287Y-165433493D01*
X98165513Y-166176792D01*
X99973003Y-166647149D01*
X104497730Y-167473445D01*
X109487487Y-167872480D01*
X114809191Y-167840081D01*
X120329756Y-167372073D01*
X120875715Y-167302713D01*
X124913218Y-166623448D01*
X128680863Y-165692975D01*
X132080386Y-164547397D01*
X134388270Y-163505178D01*
X137327821Y-163505178D01*
X138536053Y-164275704D01*
X139421108Y-165002846D01*
X140448025Y-166078047D01*
X141149102Y-166946137D01*
X142282198Y-168367824D01*
X143196549Y-169208647D01*
X144018912Y-169544707D01*
X144876039Y-169452106D01*
X145157466Y-169352683D01*
X145580058Y-169067894D01*
X145681025Y-168576316D01*
X145443274Y-167737516D01*
X144849716Y-166411056D01*
X144782510Y-166271736D01*
X144308261Y-165188340D01*
X144050760Y-164387603D01*
X144048027Y-164090756D01*
X144484576Y-164083444D01*
X145069636Y-164707016D01*
X145737416Y-165878613D01*
X146088905Y-166661087D01*
X146593828Y-167744046D01*
X146951367Y-168180120D01*
X147211689Y-168050061D01*
X147561175Y-166836591D01*
X147377260Y-165406832D01*
X146763145Y-163903169D01*
X145822030Y-162467985D01*
X144657114Y-161243664D01*
X143371599Y-160372592D01*
X142068685Y-159997152D01*
X141410898Y-160046779D01*
X140612582Y-160434175D01*
X139599596Y-161197284D01*
X138868436Y-161889236D01*
X137327821Y-163505178D01*
X134388270Y-163505178D01*
X135013527Y-163222818D01*
X137382022Y-161755342D01*
X138475934Y-160836029D01*
X139457873Y-159961745D01*
X140293144Y-159343782D01*
X140783687Y-159120588D01*
X141366083Y-158826151D01*
X142221507Y-158032297D01*
X143238510Y-156873213D01*
X144305645Y-155483083D01*
X145311462Y-153996094D01*
X145971242Y-152874678D01*
X146664981Y-151432684D01*
X147433864Y-149575168D01*
X148156028Y-147605610D01*
X148462290Y-146671144D01*
X149315833Y-143559717D01*
X149968931Y-140292769D01*
X150427991Y-136776134D01*
X150699422Y-132915645D01*
X150789629Y-128617135D01*
X150705021Y-123786438D01*
X150452005Y-118329387D01*
X150423649Y-117845588D01*
X150338453Y-116134548D01*
X150246186Y-113787041D01*
X150149974Y-110913584D01*
X150052944Y-107624695D01*
X150024615Y-106549836D01*
X151687245Y-106549836D01*
X151717444Y-107495607D01*
X151800889Y-108781966D01*
X151804666Y-108830339D01*
X151928295Y-110189507D01*
X152112255Y-111036831D01*
X152474956Y-111605128D01*
X153134807Y-112127216D01*
X153656917Y-112472251D01*
X154813859Y-113176251D01*
X155618268Y-113490458D01*
X156295789Y-113476578D01*
X156768895Y-113323271D01*
X157288216Y-112858247D01*
X157153454Y-112189766D01*
X156381953Y-111397866D01*
X156345664Y-111370422D01*
X155694515Y-110718892D01*
X155677591Y-110329055D01*
X156218234Y-110312333D01*
X156887753Y-110582485D01*
X157681516Y-110990828D01*
X158159286Y-111234583D01*
X158411618Y-111107159D01*
X158455244Y-110513339D01*
X158325565Y-109690256D01*
X158057986Y-108875042D01*
X157727597Y-108343113D01*
X157166964Y-107978420D01*
X156182469Y-107516019D01*
X154968942Y-107027118D01*
X153721215Y-106582922D01*
X152634119Y-106254639D01*
X151902484Y-106113476D01*
X151716887Y-106146320D01*
X151687245Y-106549836D01*
X150024615Y-106549836D01*
X149958223Y-104030891D01*
X149868939Y-100242691D01*
X149788218Y-96370612D01*
X149736696Y-93566176D01*
X149661839Y-89360128D01*
X149592331Y-85824522D01*
X149524331Y-82882800D01*
X149453997Y-80458404D01*
X149377488Y-78474777D01*
X149290962Y-76855361D01*
X149190578Y-75523599D01*
X149072494Y-74402933D01*
X148932869Y-73416806D01*
X148767861Y-72488660D01*
X148649609Y-71901470D01*
X147369263Y-66706801D01*
X145811869Y-62176843D01*
X143942579Y-58272084D01*
X141726545Y-54953009D01*
X139128921Y-52180104D01*
X138251551Y-51520416D01*
X141027600Y-51520416D01*
X141972158Y-52559472D01*
X142764881Y-53497733D01*
X143418956Y-54378319D01*
X143457247Y-54436748D01*
X143930351Y-54974939D01*
X144566071Y-55133205D01*
X145424239Y-55040157D01*
X146495846Y-54966864D01*
X147259246Y-55258075D01*
X147742493Y-55667785D01*
X148485338Y-56830329D01*
X148549800Y-58139622D01*
X147930063Y-59461783D01*
X147908572Y-59490160D01*
X147447845Y-60127277D01*
X147250384Y-60643732D01*
X147319442Y-61268555D01*
X147658272Y-62230780D01*
X147958147Y-62980220D01*
X148733436Y-64905761D01*
X149949697Y-64167043D01*
X151048566Y-63342943D01*
X152034814Y-62364905D01*
X152067721Y-62325120D01*
X153115382Y-60515584D01*
X153563636Y-58515368D01*
X153455712Y-56469135D01*
X152834840Y-54521547D01*
X151744248Y-52817266D01*
X150227167Y-51500956D01*
X148621132Y-50791418D01*
X146966195Y-50539934D01*
X145021385Y-50547392D01*
X143146927Y-50795695D01*
X142018800Y-51123105D01*
X141027600Y-51520416D01*
X138251551Y-51520416D01*
X136114859Y-49913855D01*
X132649512Y-48114749D01*
X128698033Y-46743272D01*
X125864287Y-46064838D01*
X123252890Y-45685720D01*
X120097381Y-45474552D01*
X116558756Y-45422527D01*
X112798012Y-45520835D01*
X108976145Y-45760671D01*
X105254150Y-46133225D01*
X101793024Y-46629689D01*
X98753764Y-47241257D01*
X97308203Y-47627102D01*
X94976390Y-48420592D01*
X92530179Y-49420208D01*
X90179990Y-50527530D01*
X88136245Y-51644140D01*
X86740202Y-52570043D01*
X85033267Y-54183280D01*
X83314024Y-56374637D01*
X81675342Y-58983060D01*
X80210091Y-61847498D01*
X79011141Y-64806900D01*
X78279063Y-67243090D01*
X77287863Y-72326404D01*
X76684394Y-77879154D01*
X76475149Y-83735108D01*
X74839220Y-83735108D01*
X74827958Y-82884847D01*
X74970973Y-78317886D01*
X75321947Y-74189868D01*
X75467543Y-73072113D01*
X75703534Y-71349756D01*
X75880784Y-69922864D01*
X75982334Y-68938322D01*
X75991224Y-68543017D01*
X75990529Y-68542291D01*
X75630161Y-68330987D01*
X74842364Y-67907488D01*
X74378274Y-67664679D01*
X72407565Y-66242765D01*
X70880723Y-64324325D01*
X69890976Y-62064959D01*
X69531549Y-59620266D01*
X69531429Y-59575000D01*
X71527143Y-59575000D01*
X71551155Y-61147245D01*
X71658888Y-62205680D01*
X71903884Y-62982904D01*
X72339689Y-63711518D01*
X72544476Y-63994408D01*
X73353069Y-64869577D01*
X74411886Y-65747579D01*
X75485490Y-66456740D01*
X76338440Y-66825386D01*
X76450163Y-66842315D01*
X76660130Y-66526525D01*
X76992341Y-65691665D01*
X77287364Y-64797129D01*
X77629311Y-63619783D01*
X77736212Y-62898026D01*
X77598419Y-62377334D01*
X77206287Y-61803184D01*
X77172201Y-61758520D01*
X76524151Y-60380767D01*
X76556843Y-58939378D01*
X77019705Y-57934419D01*
X77538117Y-57370429D01*
X78223675Y-57179065D01*
X79106134Y-57229005D01*
X79903409Y-57287332D01*
X80472778Y-57162684D01*
X80999186Y-56733323D01*
X81667582Y-55877507D01*
X82115143Y-55248345D01*
X83631714Y-53100117D01*
X81815923Y-52651704D01*
X79311895Y-52320175D01*
X76934199Y-52546284D01*
X74818715Y-53292705D01*
X73101325Y-54522110D01*
X72504518Y-55209518D01*
X72008844Y-55956607D01*
X71715333Y-56694162D01*
X71572451Y-57652360D01*
X71528664Y-59061381D01*
X71527143Y-59575000D01*
X69531429Y-59575000D01*
X69863329Y-57195128D01*
X70792211Y-54985681D01*
X72217847Y-53101577D01*
X74040007Y-51697730D01*
X74890232Y-51292246D01*
X76705770Y-50828594D01*
X78876828Y-50656340D01*
X81090353Y-50776316D01*
X83033295Y-51189355D01*
X83264133Y-51269961D01*
X84841123Y-51854984D01*
X86994283Y-50422399D01*
X89221328Y-49117225D01*
X91904702Y-47823756D01*
X94782352Y-46659621D01*
X97108572Y-45882438D01*
X99698242Y-45252816D01*
X102835745Y-44717815D01*
X106356182Y-44286940D01*
X110094656Y-43969700D01*
X113886269Y-43775599D01*
X117566122Y-43714145D01*
X120969317Y-43794845D01*
G04 #@! TA.AperFunction,EtchedComponent*
G36*
X120969317Y-43794845D02*
G01*
X123930958Y-44027204D01*
X125454612Y-44248256D01*
X129451753Y-45198945D01*
X133227981Y-46543845D01*
X136602220Y-48211145D01*
X138450451Y-49402215D01*
X139696616Y-50299437D01*
X141534737Y-49551375D01*
X143463572Y-49004059D01*
X145613404Y-48773346D01*
X147731696Y-48858840D01*
X149565913Y-49260141D01*
X150271899Y-49565156D01*
X152182196Y-50895174D01*
X153719348Y-52562350D01*
X154340013Y-53573887D01*
X154782628Y-54934304D01*
X155042308Y-56704544D01*
X155098273Y-58566258D01*
X154929743Y-60201098D01*
X154804530Y-60690372D01*
X154038244Y-62239847D01*
X152819789Y-63808908D01*
X151371229Y-65140779D01*
X150431240Y-65747337D01*
X149094406Y-66449398D01*
X149598238Y-68428375D01*
X150016072Y-70149599D01*
X150361205Y-71790031D01*
X150641707Y-73448383D01*
X150865644Y-75223364D01*
X151041085Y-77213687D01*
X151176097Y-79518061D01*
X151278747Y-82235199D01*
X151357104Y-85463810D01*
X151419235Y-89302606D01*
X151440617Y-90970537D01*
X151608740Y-104810193D01*
X154317587Y-105675792D01*
X156389105Y-106443193D01*
X157820666Y-107249537D01*
X158697137Y-108170734D01*
X159103388Y-109282692D01*
X159157143Y-110004404D01*
X158908018Y-111738807D01*
X158227515Y-113193001D01*
X157215948Y-114172303D01*
X156936342Y-114314491D01*
X155831770Y-114438966D01*
X154475088Y-114097919D01*
X153111043Y-113370343D01*
X152498135Y-112882077D01*
X152189606Y-112627055D01*
X151998309Y-112617661D01*
X151908305Y-112964412D01*
X151903654Y-113777829D01*
X151968420Y-115168428D01*
X152024720Y-116164705D01*
X152126572Y-118055187D01*
X152243595Y-120409602D01*
X152362230Y-122945411D01*
X152468917Y-125380075D01*
X152481835Y-125689705D01*
X152515405Y-131549691D01*
X152128842Y-137096556D01*
X151336407Y-142269120D01*
X150152367Y-147006199D01*
X148590985Y-151246614D01*
X146666526Y-154929181D01*
X145164373Y-157075142D01*
X144371700Y-158105678D01*
X143818899Y-158880158D01*
X143611214Y-159250049D01*
X143615552Y-159261020D01*
X145277867Y-160564246D01*
X146725601Y-162155651D01*
X147839569Y-163863938D01*
X148500583Y-165517811D01*
X148630881Y-166469134D01*
X148305436Y-167810769D01*
X147434260Y-169071610D01*
X146186400Y-170041654D01*
X145516786Y-170337754D01*
X144301938Y-170558635D01*
X143184747Y-170293813D01*
X142046233Y-169480470D01*
X140767415Y-168055782D01*
X140469860Y-167672990D01*
X139489867Y-166498464D01*
X138515176Y-165509211D01*
X137749726Y-164911331D01*
X137722244Y-164896278D01*
X136974178Y-164569405D01*
X136339936Y-164580930D01*
X135477594Y-164951521D01*
X135301178Y-165042615D01*
X132525868Y-166268400D01*
X129193242Y-167367320D01*
X125468035Y-168287444D01*
X124220301Y-168535577D01*
X122487074Y-168836373D01*
X120849457Y-169058003D01*
X119143067Y-169211808D01*
X117203516Y-169309128D01*
X114866421Y-169361306D01*
X111985715Y-169379651D01*
X109268729Y-169375569D01*
X107131274Y-169345906D01*
X105427306Y-169279800D01*
X104010782Y-169166392D01*
X102735658Y-168994823D01*
X101455892Y-168754233D01*
X100383101Y-168516881D01*
X98506343Y-168043587D01*
X96613071Y-167497621D01*
X94990352Y-166964527D01*
X94329891Y-166713052D01*
X93103607Y-166227294D01*
X92306183Y-166009622D01*
X91697232Y-166039214D01*
X91036364Y-166295246D01*
X90803339Y-166407578D01*
X89879382Y-166974583D01*
X88686147Y-167860565D01*
X87491864Y-168865084D01*
X86403888Y-169812624D01*
X85603005Y-170361313D01*
X84843601Y-170619629D01*
X83880064Y-170696048D01*
X83337259Y-170700000D01*
X82033810Y-170645889D01*
X81160781Y-170419433D01*
X80426659Y-169924446D01*
X80113443Y-169636297D01*
X79076153Y-168325670D01*
X78839149Y-167405465D01*
X79847599Y-167405465D01*
X80067724Y-168111140D01*
X80505726Y-168953627D01*
X80951185Y-167865784D01*
X81508792Y-166782811D01*
X82213464Y-165778567D01*
X82928263Y-165008043D01*
X83516248Y-164626231D01*
X83775351Y-164669331D01*
X83793682Y-165200888D01*
X83255254Y-166140814D01*
X83010647Y-166466750D01*
X82100641Y-167864580D01*
X81781894Y-168948085D01*
X82058888Y-169679679D01*
X82594286Y-169958188D01*
X83489763Y-170055379D01*
X84434544Y-169808214D01*
X85563335Y-169152687D01*
X87010838Y-168024789D01*
X87451384Y-167650250D01*
X88644811Y-166685612D01*
X89759929Y-165890635D01*
X90581380Y-165417153D01*
X90667858Y-165382560D01*
X91376025Y-165052907D01*
X91650610Y-164780371D01*
X91358236Y-164198684D01*
X90653472Y-163369526D01*
X89720688Y-162470539D01*
X88744250Y-161679365D01*
X87908529Y-161173645D01*
X87906315Y-161172691D01*
X87071273Y-160861436D01*
X86394534Y-160815358D01*
X85573226Y-161056086D01*
X84773604Y-161396415D01*
X83419442Y-162190994D01*
X82063410Y-163307340D01*
X80888768Y-164561011D01*
X80078774Y-165767561D01*
X79854299Y-166347543D01*
X79847599Y-167405465D01*
X78839149Y-167405465D01*
X78737384Y-167010351D01*
X79075390Y-165594292D01*
X79158238Y-165417436D01*
X80087123Y-163936840D01*
X81322519Y-162506936D01*
X82617790Y-161399289D01*
X83049782Y-161132513D01*
X84049564Y-160593471D01*
X81656939Y-157709235D01*
X79386157Y-154581966D01*
X77643722Y-151347485D01*
X76489920Y-148132018D01*
X76071514Y-146014361D01*
X75967376Y-144752315D01*
X75884156Y-142860756D01*
X75822108Y-140456926D01*
X75781485Y-137658068D01*
X75762539Y-134581424D01*
X75765522Y-131344238D01*
X75790688Y-128063751D01*
X75838290Y-124857207D01*
X75908580Y-121841848D01*
X76001811Y-119134916D01*
X76012993Y-118872170D01*
X76087807Y-116975898D01*
X76136418Y-115377721D01*
X76155937Y-114209841D01*
X76143475Y-113604461D01*
X76129361Y-113549376D01*
X75796968Y-113753392D01*
X75108865Y-114261379D01*
X74859361Y-114454741D01*
X73240426Y-115449173D01*
X71815254Y-115729488D01*
X70557750Y-115293518D01*
X69441820Y-114139098D01*
X69345494Y-113996941D01*
X68577333Y-112345731D01*
X68541837Y-111774251D01*
X69274805Y-111774251D01*
X69579135Y-112200595D01*
X70271591Y-112007640D01*
X70459405Y-111889414D01*
X71430026Y-111376966D01*
X71959122Y-111450523D01*
X72071429Y-111869117D01*
X71803804Y-112364854D01*
X71571573Y-112429411D01*
X70935656Y-112692932D01*
X70620000Y-112989705D01*
X70351204Y-113587555D01*
X70620000Y-114110294D01*
X71464198Y-114615173D01*
X72630168Y-114543309D01*
X74002021Y-113913876D01*
X74673935Y-113439536D01*
X75511244Y-112750681D01*
X75990107Y-112169534D01*
X76223206Y-111445207D01*
X76323223Y-110326814D01*
X76351579Y-109704242D01*
X76361562Y-108447472D01*
X76285005Y-107548625D01*
X76138449Y-107200058D01*
X76136242Y-107200000D01*
X75542635Y-107330361D01*
X74504376Y-107666081D01*
X73246265Y-108124112D01*
X71993105Y-108621404D01*
X70969695Y-109074910D01*
X70721601Y-109200326D01*
X69848197Y-109917303D01*
X69381415Y-110752667D01*
X69274805Y-111774251D01*
X68541837Y-111774251D01*
X68480899Y-110793181D01*
X69054458Y-109420776D01*
X69452695Y-108958532D01*
X70400398Y-108276979D01*
X71792573Y-107562753D01*
X73361885Y-106928715D01*
X74840993Y-106487725D01*
X75608926Y-106359589D01*
X75976735Y-106257005D01*
X76232677Y-105965493D01*
X76376964Y-105401089D01*
X76409804Y-104479833D01*
X76331408Y-103117761D01*
X76141986Y-101230910D01*
X75841748Y-98735318D01*
X75632101Y-97093300D01*
X75159978Y-92485163D01*
X74891445Y-87678142D01*
X74839220Y-83735108D01*
X76475149Y-83735108D01*
X76666616Y-89728033D01*
X77190326Y-95127809D01*
X77389979Y-96738139D01*
X77558266Y-98282259D01*
X77696338Y-99831128D01*
X77805346Y-101455705D01*
X77886439Y-103226948D01*
X77940769Y-105215816D01*
X77969487Y-107493269D01*
X77973743Y-110130263D01*
X77954687Y-113197759D01*
X77913470Y-116766715D01*
X77851243Y-120908090D01*
X77769156Y-125692842D01*
X77725260Y-128117647D01*
X77648449Y-132444401D01*
X77594226Y-136098824D01*
X77569349Y-139155468D01*
X77580578Y-141688882D01*
X77634672Y-143773618D01*
X77738390Y-145484226D01*
X77898491Y-146895256D01*
X78121734Y-148081259D01*
X78414879Y-149116787D01*
X78784684Y-150076388D01*
X79237909Y-151034615D01*
X79781312Y-152066017D01*
X79919675Y-152321270D01*
X80860570Y-153853509D01*
X82014232Y-155433848D01*
X83268800Y-156940218D01*
X84512414Y-158250549D01*
X85633212Y-159242771D01*
X86519334Y-159794816D01*
X86834950Y-159867647D01*
X87784139Y-160001439D01*
X88755521Y-160463671D01*
X89897677Y-161345628D01*
X91121429Y-162501086D01*
X92464153Y-163665857D01*
X93985803Y-164619921D01*
X95836287Y-165433493D01*
X98165513Y-166176792D01*
X99973003Y-166647149D01*
X104497730Y-167473445D01*
X109487487Y-167872480D01*
X114809191Y-167840081D01*
X120329756Y-167372073D01*
X120875715Y-167302713D01*
X124913218Y-166623448D01*
X128680863Y-165692975D01*
X132080386Y-164547397D01*
X134388270Y-163505178D01*
X137327821Y-163505178D01*
X138536053Y-164275704D01*
X139421108Y-165002846D01*
X140448025Y-166078047D01*
X141149102Y-166946137D01*
X142282198Y-168367824D01*
X143196549Y-169208647D01*
X144018912Y-169544707D01*
X144876039Y-169452106D01*
X145157466Y-169352683D01*
X145580058Y-169067894D01*
X145681025Y-168576316D01*
X145443274Y-167737516D01*
X144849716Y-166411056D01*
X144782510Y-166271736D01*
X144308261Y-165188340D01*
X144050760Y-164387603D01*
X144048027Y-164090756D01*
X144484576Y-164083444D01*
X145069636Y-164707016D01*
X145737416Y-165878613D01*
X146088905Y-166661087D01*
X146593828Y-167744046D01*
X146951367Y-168180120D01*
X147211689Y-168050061D01*
X147561175Y-166836591D01*
X147377260Y-165406832D01*
X146763145Y-163903169D01*
X145822030Y-162467985D01*
X144657114Y-161243664D01*
X143371599Y-160372592D01*
X142068685Y-159997152D01*
X141410898Y-160046779D01*
X140612582Y-160434175D01*
X139599596Y-161197284D01*
X138868436Y-161889236D01*
X137327821Y-163505178D01*
X134388270Y-163505178D01*
X135013527Y-163222818D01*
X137382022Y-161755342D01*
X138475934Y-160836029D01*
X139457873Y-159961745D01*
X140293144Y-159343782D01*
X140783687Y-159120588D01*
X141366083Y-158826151D01*
X142221507Y-158032297D01*
X143238510Y-156873213D01*
X144305645Y-155483083D01*
X145311462Y-153996094D01*
X145971242Y-152874678D01*
X146664981Y-151432684D01*
X147433864Y-149575168D01*
X148156028Y-147605610D01*
X148462290Y-146671144D01*
X149315833Y-143559717D01*
X149968931Y-140292769D01*
X150427991Y-136776134D01*
X150699422Y-132915645D01*
X150789629Y-128617135D01*
X150705021Y-123786438D01*
X150452005Y-118329387D01*
X150423649Y-117845588D01*
X150338453Y-116134548D01*
X150246186Y-113787041D01*
X150149974Y-110913584D01*
X150052944Y-107624695D01*
X150024615Y-106549836D01*
X151687245Y-106549836D01*
X151717444Y-107495607D01*
X151800889Y-108781966D01*
X151804666Y-108830339D01*
X151928295Y-110189507D01*
X152112255Y-111036831D01*
X152474956Y-111605128D01*
X153134807Y-112127216D01*
X153656917Y-112472251D01*
X154813859Y-113176251D01*
X155618268Y-113490458D01*
X156295789Y-113476578D01*
X156768895Y-113323271D01*
X157288216Y-112858247D01*
X157153454Y-112189766D01*
X156381953Y-111397866D01*
X156345664Y-111370422D01*
X155694515Y-110718892D01*
X155677591Y-110329055D01*
X156218234Y-110312333D01*
X156887753Y-110582485D01*
X157681516Y-110990828D01*
X158159286Y-111234583D01*
X158411618Y-111107159D01*
X158455244Y-110513339D01*
X158325565Y-109690256D01*
X158057986Y-108875042D01*
X157727597Y-108343113D01*
X157166964Y-107978420D01*
X156182469Y-107516019D01*
X154968942Y-107027118D01*
X153721215Y-106582922D01*
X152634119Y-106254639D01*
X151902484Y-106113476D01*
X151716887Y-106146320D01*
X151687245Y-106549836D01*
X150024615Y-106549836D01*
X149958223Y-104030891D01*
X149868939Y-100242691D01*
X149788218Y-96370612D01*
X149736696Y-93566176D01*
X149661839Y-89360128D01*
X149592331Y-85824522D01*
X149524331Y-82882800D01*
X149453997Y-80458404D01*
X149377488Y-78474777D01*
X149290962Y-76855361D01*
X149190578Y-75523599D01*
X149072494Y-74402933D01*
X148932869Y-73416806D01*
X148767861Y-72488660D01*
X148649609Y-71901470D01*
X147369263Y-66706801D01*
X145811869Y-62176843D01*
X143942579Y-58272084D01*
X141726545Y-54953009D01*
X139128921Y-52180104D01*
X138251551Y-51520416D01*
X141027600Y-51520416D01*
X141972158Y-52559472D01*
X142764881Y-53497733D01*
X143418956Y-54378319D01*
X143457247Y-54436748D01*
X143930351Y-54974939D01*
X144566071Y-55133205D01*
X145424239Y-55040157D01*
X146495846Y-54966864D01*
X147259246Y-55258075D01*
X147742493Y-55667785D01*
X148485338Y-56830329D01*
X148549800Y-58139622D01*
X147930063Y-59461783D01*
X147908572Y-59490160D01*
X147447845Y-60127277D01*
X147250384Y-60643732D01*
X147319442Y-61268555D01*
X147658272Y-62230780D01*
X147958147Y-62980220D01*
X148733436Y-64905761D01*
X149949697Y-64167043D01*
X151048566Y-63342943D01*
X152034814Y-62364905D01*
X152067721Y-62325120D01*
X153115382Y-60515584D01*
X153563636Y-58515368D01*
X153455712Y-56469135D01*
X152834840Y-54521547D01*
X151744248Y-52817266D01*
X150227167Y-51500956D01*
X148621132Y-50791418D01*
X146966195Y-50539934D01*
X145021385Y-50547392D01*
X143146927Y-50795695D01*
X142018800Y-51123105D01*
X141027600Y-51520416D01*
X138251551Y-51520416D01*
X136114859Y-49913855D01*
X132649512Y-48114749D01*
X128698033Y-46743272D01*
X125864287Y-46064838D01*
X123252890Y-45685720D01*
X120097381Y-45474552D01*
X116558756Y-45422527D01*
X112798012Y-45520835D01*
X108976145Y-45760671D01*
X105254150Y-46133225D01*
X101793024Y-46629689D01*
X98753764Y-47241257D01*
X97308203Y-47627102D01*
X94976390Y-48420592D01*
X92530179Y-49420208D01*
X90179990Y-50527530D01*
X88136245Y-51644140D01*
X86740202Y-52570043D01*
X85033267Y-54183280D01*
X83314024Y-56374637D01*
X81675342Y-58983060D01*
X80210091Y-61847498D01*
X79011141Y-64806900D01*
X78279063Y-67243090D01*
X77287863Y-72326404D01*
X76684394Y-77879154D01*
X76475149Y-83735108D01*
X74839220Y-83735108D01*
X74827958Y-82884847D01*
X74970973Y-78317886D01*
X75321947Y-74189868D01*
X75467543Y-73072113D01*
X75703534Y-71349756D01*
X75880784Y-69922864D01*
X75982334Y-68938322D01*
X75991224Y-68543017D01*
X75990529Y-68542291D01*
X75630161Y-68330987D01*
X74842364Y-67907488D01*
X74378274Y-67664679D01*
X72407565Y-66242765D01*
X70880723Y-64324325D01*
X69890976Y-62064959D01*
X69531549Y-59620266D01*
X69531429Y-59575000D01*
X71527143Y-59575000D01*
X71551155Y-61147245D01*
X71658888Y-62205680D01*
X71903884Y-62982904D01*
X72339689Y-63711518D01*
X72544476Y-63994408D01*
X73353069Y-64869577D01*
X74411886Y-65747579D01*
X75485490Y-66456740D01*
X76338440Y-66825386D01*
X76450163Y-66842315D01*
X76660130Y-66526525D01*
X76992341Y-65691665D01*
X77287364Y-64797129D01*
X77629311Y-63619783D01*
X77736212Y-62898026D01*
X77598419Y-62377334D01*
X77206287Y-61803184D01*
X77172201Y-61758520D01*
X76524151Y-60380767D01*
X76556843Y-58939378D01*
X77019705Y-57934419D01*
X77538117Y-57370429D01*
X78223675Y-57179065D01*
X79106134Y-57229005D01*
X79903409Y-57287332D01*
X80472778Y-57162684D01*
X80999186Y-56733323D01*
X81667582Y-55877507D01*
X82115143Y-55248345D01*
X83631714Y-53100117D01*
X81815923Y-52651704D01*
X79311895Y-52320175D01*
X76934199Y-52546284D01*
X74818715Y-53292705D01*
X73101325Y-54522110D01*
X72504518Y-55209518D01*
X72008844Y-55956607D01*
X71715333Y-56694162D01*
X71572451Y-57652360D01*
X71528664Y-59061381D01*
X71527143Y-59575000D01*
X69531429Y-59575000D01*
X69863329Y-57195128D01*
X70792211Y-54985681D01*
X72217847Y-53101577D01*
X74040007Y-51697730D01*
X74890232Y-51292246D01*
X76705770Y-50828594D01*
X78876828Y-50656340D01*
X81090353Y-50776316D01*
X83033295Y-51189355D01*
X83264133Y-51269961D01*
X84841123Y-51854984D01*
X86994283Y-50422399D01*
X89221328Y-49117225D01*
X91904702Y-47823756D01*
X94782352Y-46659621D01*
X97108572Y-45882438D01*
X99698242Y-45252816D01*
X102835745Y-44717815D01*
X106356182Y-44286940D01*
X110094656Y-43969700D01*
X113886269Y-43775599D01*
X117566122Y-43714145D01*
X120969317Y-43794845D01*
G37*
G04 #@! TD.AperFunction*
D11*
X95300000Y-61300000D03*
X95300000Y-64500000D03*
X100200000Y-64500000D03*
X100200000Y-61300000D03*
X124600000Y-60200000D03*
X124600000Y-63400000D03*
X129500000Y-63400000D03*
X129500000Y-60200000D03*
D12*
X111060000Y-155400000D03*
X111060000Y-152860000D03*
X111060000Y-150320000D03*
X111060000Y-147780000D03*
X111060000Y-145240000D03*
X111060000Y-142700000D03*
X111060000Y-140160000D03*
X111060000Y-137620000D03*
X111060000Y-135080000D03*
X113600000Y-135080000D03*
X116140000Y-135080000D03*
X118680000Y-135080000D03*
X121220000Y-135080000D03*
X123760000Y-135080000D03*
X126300000Y-135080000D03*
X126300000Y-137620000D03*
X126300000Y-140160000D03*
X126300000Y-142700000D03*
X126300000Y-145240000D03*
X126300000Y-147780000D03*
X126300000Y-150320000D03*
X126300000Y-152860000D03*
X126300000Y-155400000D03*
D13*
X109580000Y-98100000D03*
X112120000Y-98100000D03*
X114660000Y-98100000D03*
X117200000Y-98100000D03*
D14*
X132300000Y-133600000D03*
X138800000Y-133600000D03*
X132300000Y-138100000D03*
X138800000Y-138100000D03*
X80200000Y-140200000D03*
X86700000Y-140200000D03*
X80200000Y-144700000D03*
X86700000Y-144700000D03*
X89000000Y-150100000D03*
X95500000Y-150100000D03*
X89000000Y-154600000D03*
X95500000Y-154600000D03*
D15*
X83500000Y-117500000D03*
D16*
X83500000Y-119500000D03*
X83500000Y-121500000D03*
X83500000Y-123500000D03*
D14*
X89000000Y-130500000D03*
X95500000Y-130500000D03*
X89000000Y-135000000D03*
X95500000Y-135000000D03*
X97000000Y-140200000D03*
X103500000Y-140200000D03*
X97000000Y-144700000D03*
X103500000Y-144700000D03*
X137900000Y-144400000D03*
X144400000Y-144400000D03*
X137900000Y-148900000D03*
X144400000Y-148900000D03*
D17*
X137400000Y-115500000D03*
D14*
X142400000Y-115500000D03*
D18*
X103600000Y-105900000D03*
X124500000Y-113000000D03*
X127000000Y-63400000D03*
X121600000Y-152900000D03*
X113200000Y-156300000D03*
X97700000Y-64500000D03*
X100300000Y-140200000D03*
X124600000Y-61800000D03*
X95300000Y-63000000D03*
X98600000Y-61300000D03*
X97900000Y-62200000D03*
X127500000Y-60200000D03*
X120300000Y-140200000D03*
D19*
X97700000Y-64500000D02*
X100200000Y-64500000D01*
D20*
X100300000Y-141500000D02*
X103500000Y-144700000D01*
X89000000Y-135000000D02*
X95500000Y-135000000D01*
D19*
X103600000Y-105900000D02*
X103600000Y-100700000D01*
D20*
X132300000Y-133600000D02*
X138800000Y-133600000D01*
X100300000Y-140200000D02*
X100300000Y-141500000D01*
X121640000Y-152860000D02*
X126300000Y-152860000D01*
D19*
X109580000Y-98100000D02*
X124480000Y-113000000D01*
D20*
X121600000Y-152900000D02*
X116600000Y-152900000D01*
X116600000Y-152900000D02*
X113200000Y-156300000D01*
X121600000Y-152900000D02*
X121640000Y-152860000D01*
D19*
X106200000Y-98100000D02*
X109580000Y-98100000D01*
X124480000Y-113000000D02*
X124500000Y-113000000D01*
X103600000Y-100700000D02*
X106200000Y-98100000D01*
D20*
X89000000Y-154600000D02*
X95500000Y-154600000D01*
X97000000Y-144700000D02*
X103500000Y-144700000D01*
X137900000Y-144400000D02*
X144400000Y-144400000D01*
X80200000Y-144700000D02*
X86700000Y-144700000D01*
D19*
X127000000Y-63400000D02*
X129500000Y-63400000D01*
X124600000Y-61800000D02*
X124600000Y-60200000D01*
X95300000Y-63000000D02*
X95300000Y-61300000D01*
D20*
X98600000Y-61300000D02*
X100200000Y-61300000D01*
X95600000Y-64500000D02*
X97900000Y-62200000D01*
X127500000Y-60200000D02*
X129500000Y-60200000D01*
D21*
X95300000Y-64500000D02*
X95600000Y-64500000D01*
D20*
X112680000Y-136700000D02*
X111060000Y-135080000D01*
X117500000Y-136700000D02*
X112680000Y-136700000D01*
X120300000Y-140200000D02*
X120300000Y-139500000D01*
X120300000Y-139500000D02*
X117500000Y-136700000D01*
X89000000Y-130500000D02*
X95500000Y-130500000D01*
X80200000Y-140200000D02*
X86700000Y-140200000D01*
X89000000Y-150100000D02*
X95500000Y-150100000D01*
X97000000Y-140200000D02*
X98100000Y-140200000D01*
X102700000Y-139400000D02*
X103500000Y-140200000D01*
X98900000Y-139400000D02*
X102700000Y-139400000D01*
X98100000Y-140200000D02*
X98900000Y-139400000D01*
X132300000Y-138100000D02*
X138800000Y-138100000D01*
X137900000Y-148900000D02*
X144400000Y-148900000D01*
G04 #@! TA.AperFunction,Conductor*
G36*
X125111905Y-135753515D02*
G01*
X125133804Y-135778787D01*
X125224278Y-135917268D01*
X125224283Y-135917273D01*
X125224284Y-135917276D01*
X125376756Y-136082902D01*
X125376761Y-136082907D01*
X125435981Y-136129000D01*
X125554424Y-136221189D01*
X125554429Y-136221191D01*
X125554431Y-136221193D01*
X125590930Y-136240946D01*
X125640520Y-136290165D01*
X125655628Y-136358382D01*
X125631457Y-136423937D01*
X125590930Y-136459054D01*
X125554431Y-136478806D01*
X125554422Y-136478812D01*
X125376761Y-136617092D01*
X125376756Y-136617097D01*
X125224284Y-136782723D01*
X125224276Y-136782734D01*
X125101140Y-136971207D01*
X125010703Y-137177385D01*
X124955436Y-137395628D01*
X124955434Y-137395640D01*
X124936844Y-137619994D01*
X124936844Y-137620005D01*
X124955434Y-137844359D01*
X124955436Y-137844371D01*
X125010703Y-138062614D01*
X125101140Y-138268792D01*
X125224276Y-138457265D01*
X125224284Y-138457276D01*
X125376756Y-138622902D01*
X125376760Y-138622906D01*
X125554424Y-138761189D01*
X125554429Y-138761191D01*
X125554431Y-138761193D01*
X125590930Y-138780946D01*
X125640520Y-138830165D01*
X125655628Y-138898382D01*
X125631457Y-138963937D01*
X125590930Y-138999054D01*
X125554431Y-139018806D01*
X125554422Y-139018812D01*
X125376761Y-139157092D01*
X125376756Y-139157097D01*
X125224284Y-139322723D01*
X125224276Y-139322734D01*
X125101140Y-139511207D01*
X125010703Y-139717385D01*
X124955436Y-139935628D01*
X124955434Y-139935640D01*
X124936844Y-140159994D01*
X124936844Y-140160005D01*
X124955434Y-140384359D01*
X124955436Y-140384371D01*
X125010703Y-140602614D01*
X125101140Y-140808792D01*
X125224276Y-140997265D01*
X125224284Y-140997276D01*
X125376756Y-141162902D01*
X125376760Y-141162906D01*
X125554424Y-141301189D01*
X125554429Y-141301191D01*
X125554431Y-141301193D01*
X125590930Y-141320946D01*
X125640520Y-141370165D01*
X125655628Y-141438382D01*
X125631457Y-141503937D01*
X125590930Y-141539054D01*
X125554431Y-141558806D01*
X125554422Y-141558812D01*
X125376761Y-141697092D01*
X125376756Y-141697097D01*
X125224284Y-141862723D01*
X125224276Y-141862734D01*
X125101140Y-142051207D01*
X125010703Y-142257385D01*
X124955436Y-142475628D01*
X124955434Y-142475640D01*
X124936844Y-142699994D01*
X124936844Y-142700005D01*
X124955434Y-142924359D01*
X124955436Y-142924371D01*
X125010703Y-143142614D01*
X125101140Y-143348792D01*
X125224276Y-143537265D01*
X125224284Y-143537276D01*
X125376756Y-143702902D01*
X125376760Y-143702906D01*
X125554424Y-143841189D01*
X125554429Y-143841191D01*
X125554431Y-143841193D01*
X125590930Y-143860946D01*
X125640520Y-143910165D01*
X125655628Y-143978382D01*
X125631457Y-144043937D01*
X125590930Y-144079054D01*
X125554431Y-144098806D01*
X125554422Y-144098812D01*
X125376761Y-144237092D01*
X125376756Y-144237097D01*
X125224284Y-144402723D01*
X125224276Y-144402734D01*
X125101140Y-144591207D01*
X125010703Y-144797385D01*
X124955436Y-145015628D01*
X124955434Y-145015640D01*
X124936844Y-145239994D01*
X124936844Y-145240005D01*
X124955434Y-145464359D01*
X124955436Y-145464371D01*
X125010703Y-145682614D01*
X125101140Y-145888792D01*
X125224276Y-146077265D01*
X125224284Y-146077276D01*
X125376756Y-146242902D01*
X125376760Y-146242906D01*
X125554424Y-146381189D01*
X125554429Y-146381191D01*
X125554431Y-146381193D01*
X125590930Y-146400946D01*
X125640520Y-146450165D01*
X125655628Y-146518382D01*
X125631457Y-146583937D01*
X125590930Y-146619054D01*
X125554431Y-146638806D01*
X125554422Y-146638812D01*
X125376761Y-146777092D01*
X125376756Y-146777097D01*
X125224284Y-146942723D01*
X125224276Y-146942734D01*
X125101140Y-147131207D01*
X125010703Y-147337385D01*
X124955436Y-147555628D01*
X124955434Y-147555640D01*
X124936844Y-147779994D01*
X124936844Y-147780005D01*
X124955434Y-148004359D01*
X124955436Y-148004371D01*
X125010703Y-148222614D01*
X125101140Y-148428792D01*
X125224276Y-148617265D01*
X125224284Y-148617276D01*
X125376756Y-148782902D01*
X125376760Y-148782906D01*
X125554424Y-148921189D01*
X125554429Y-148921191D01*
X125554431Y-148921193D01*
X125590930Y-148940946D01*
X125640520Y-148990165D01*
X125655628Y-149058382D01*
X125631457Y-149123937D01*
X125590930Y-149159054D01*
X125554431Y-149178806D01*
X125554422Y-149178812D01*
X125376761Y-149317092D01*
X125376756Y-149317097D01*
X125224284Y-149482723D01*
X125224276Y-149482734D01*
X125101140Y-149671207D01*
X125010703Y-149877385D01*
X124955436Y-150095628D01*
X124955434Y-150095640D01*
X124936844Y-150319994D01*
X124936844Y-150320005D01*
X124955434Y-150544359D01*
X124955436Y-150544371D01*
X125010703Y-150762614D01*
X125101140Y-150968792D01*
X125224276Y-151157265D01*
X125224284Y-151157276D01*
X125376756Y-151322902D01*
X125376760Y-151322906D01*
X125554424Y-151461189D01*
X125590930Y-151480945D01*
X125597695Y-151484606D01*
X125647286Y-151533825D01*
X125662394Y-151602042D01*
X125638224Y-151667597D01*
X125609802Y-151695236D01*
X125428922Y-151821890D01*
X125428920Y-151821891D01*
X125261891Y-151988920D01*
X125261886Y-151988926D01*
X125126400Y-152182420D01*
X125126399Y-152182422D01*
X125026570Y-152396507D01*
X125026567Y-152396513D01*
X124969364Y-152609999D01*
X124969364Y-152610000D01*
X125866988Y-152610000D01*
X125834075Y-152667007D01*
X125800000Y-152794174D01*
X125800000Y-152925826D01*
X125834075Y-153052993D01*
X125866988Y-153110000D01*
X124969364Y-153110000D01*
X125026567Y-153323486D01*
X125026570Y-153323492D01*
X125126399Y-153537578D01*
X125261894Y-153731082D01*
X125428917Y-153898105D01*
X125609802Y-154024763D01*
X125653427Y-154079340D01*
X125660619Y-154148839D01*
X125629097Y-154211193D01*
X125597697Y-154235392D01*
X125554427Y-154258809D01*
X125554422Y-154258812D01*
X125376761Y-154397092D01*
X125376756Y-154397097D01*
X125224284Y-154562723D01*
X125224276Y-154562734D01*
X125101140Y-154751207D01*
X125010703Y-154957385D01*
X124955436Y-155175628D01*
X124955434Y-155175640D01*
X124936844Y-155399994D01*
X124936844Y-155400005D01*
X124955434Y-155624359D01*
X124955436Y-155624371D01*
X125010703Y-155842614D01*
X125101140Y-156048792D01*
X125224276Y-156237265D01*
X125224284Y-156237276D01*
X125376756Y-156402902D01*
X125376760Y-156402906D01*
X125554424Y-156541189D01*
X125554425Y-156541189D01*
X125554427Y-156541191D01*
X125654751Y-156595483D01*
X125752426Y-156648342D01*
X125796504Y-156663474D01*
X125813821Y-156669419D01*
X125870837Y-156709804D01*
X125896968Y-156774603D01*
X125883917Y-156843243D01*
X125835828Y-156893931D01*
X125774248Y-156910698D01*
X111274907Y-156991250D01*
X111207759Y-156971938D01*
X111161712Y-156919389D01*
X111151384Y-156850287D01*
X111180055Y-156786571D01*
X111238623Y-156748471D01*
X111253800Y-156744944D01*
X111394635Y-156721444D01*
X111607574Y-156648342D01*
X111805576Y-156541189D01*
X111983240Y-156402906D01*
X112135722Y-156237268D01*
X112258860Y-156048791D01*
X112349296Y-155842616D01*
X112404564Y-155624368D01*
X112423156Y-155400000D01*
X112404564Y-155175632D01*
X112349296Y-154957384D01*
X112258860Y-154751209D01*
X112249106Y-154736280D01*
X112135723Y-154562734D01*
X112135715Y-154562723D01*
X111983243Y-154397097D01*
X111983238Y-154397092D01*
X111805577Y-154258812D01*
X111805578Y-154258812D01*
X111805576Y-154258811D01*
X111769070Y-154239055D01*
X111719479Y-154189836D01*
X111704371Y-154121619D01*
X111728541Y-154056064D01*
X111769070Y-154020945D01*
X111769084Y-154020936D01*
X111805576Y-154001189D01*
X111983240Y-153862906D01*
X112135722Y-153697268D01*
X112258860Y-153508791D01*
X112349296Y-153302616D01*
X112404564Y-153084368D01*
X112412715Y-152986000D01*
X112423156Y-152860005D01*
X112423156Y-152859994D01*
X112404565Y-152635640D01*
X112404563Y-152635628D01*
X112349296Y-152417385D01*
X112340138Y-152396507D01*
X112258860Y-152211209D01*
X112255580Y-152206189D01*
X112135723Y-152022734D01*
X112135715Y-152022723D01*
X111983243Y-151857097D01*
X111983238Y-151857092D01*
X111805577Y-151718812D01*
X111805578Y-151718812D01*
X111805576Y-151718811D01*
X111769070Y-151699055D01*
X111719479Y-151649836D01*
X111704371Y-151581619D01*
X111728541Y-151516064D01*
X111769070Y-151480945D01*
X111769084Y-151480936D01*
X111805576Y-151461189D01*
X111983240Y-151322906D01*
X112135722Y-151157268D01*
X112258860Y-150968791D01*
X112349296Y-150762616D01*
X112404564Y-150544368D01*
X112423156Y-150320000D01*
X112404564Y-150095632D01*
X112349296Y-149877384D01*
X112258860Y-149671209D01*
X112249106Y-149656280D01*
X112135723Y-149482734D01*
X112135715Y-149482723D01*
X111983243Y-149317097D01*
X111983238Y-149317092D01*
X111805577Y-149178812D01*
X111805578Y-149178812D01*
X111805576Y-149178811D01*
X111769070Y-149159055D01*
X111719479Y-149109836D01*
X111704371Y-149041619D01*
X111728541Y-148976064D01*
X111769070Y-148940945D01*
X111769084Y-148940936D01*
X111805576Y-148921189D01*
X111983240Y-148782906D01*
X112135722Y-148617268D01*
X112258860Y-148428791D01*
X112349296Y-148222616D01*
X112404564Y-148004368D01*
X112404565Y-148004359D01*
X112423156Y-147780005D01*
X112423156Y-147779994D01*
X112404565Y-147555640D01*
X112404563Y-147555628D01*
X112349296Y-147337385D01*
X112258859Y-147131207D01*
X112135723Y-146942734D01*
X112135715Y-146942723D01*
X111983243Y-146777097D01*
X111983238Y-146777092D01*
X111805577Y-146638812D01*
X111805578Y-146638812D01*
X111805576Y-146638811D01*
X111769070Y-146619055D01*
X111719479Y-146569836D01*
X111704371Y-146501619D01*
X111728541Y-146436064D01*
X111769070Y-146400945D01*
X111769084Y-146400936D01*
X111805576Y-146381189D01*
X111983240Y-146242906D01*
X112135722Y-146077268D01*
X112258860Y-145888791D01*
X112349296Y-145682616D01*
X112404564Y-145464368D01*
X112423156Y-145240000D01*
X112404564Y-145015632D01*
X112349296Y-144797384D01*
X112258860Y-144591209D01*
X112249106Y-144576280D01*
X112135723Y-144402734D01*
X112135715Y-144402723D01*
X111983243Y-144237097D01*
X111983238Y-144237092D01*
X111805577Y-144098812D01*
X111805578Y-144098812D01*
X111805576Y-144098811D01*
X111769070Y-144079055D01*
X111719479Y-144029836D01*
X111704371Y-143961619D01*
X111728541Y-143896064D01*
X111769070Y-143860945D01*
X111769084Y-143860936D01*
X111805576Y-143841189D01*
X111983240Y-143702906D01*
X112135722Y-143537268D01*
X112258860Y-143348791D01*
X112349296Y-143142616D01*
X112404564Y-142924368D01*
X112423156Y-142700000D01*
X112404564Y-142475632D01*
X112349296Y-142257384D01*
X112258860Y-142051209D01*
X112249106Y-142036280D01*
X112135723Y-141862734D01*
X112135715Y-141862723D01*
X111983243Y-141697097D01*
X111983238Y-141697092D01*
X111805577Y-141558812D01*
X111805578Y-141558812D01*
X111805576Y-141558811D01*
X111769070Y-141539055D01*
X111719479Y-141489836D01*
X111704371Y-141421619D01*
X111728541Y-141356064D01*
X111769070Y-141320945D01*
X111769084Y-141320936D01*
X111805576Y-141301189D01*
X111983240Y-141162906D01*
X112082614Y-141054957D01*
X112135715Y-140997276D01*
X112135717Y-140997273D01*
X112135722Y-140997268D01*
X112258860Y-140808791D01*
X112349296Y-140602616D01*
X112404564Y-140384368D01*
X112404839Y-140381047D01*
X112423156Y-140160005D01*
X112423156Y-140159994D01*
X112404565Y-139935640D01*
X112404563Y-139935628D01*
X112349296Y-139717385D01*
X112337331Y-139690108D01*
X112258860Y-139511209D01*
X112249106Y-139496280D01*
X112135723Y-139322734D01*
X112135715Y-139322723D01*
X111983243Y-139157097D01*
X111983238Y-139157092D01*
X111805577Y-139018812D01*
X111805578Y-139018812D01*
X111805576Y-139018811D01*
X111769070Y-138999055D01*
X111719479Y-138949836D01*
X111704371Y-138881619D01*
X111728541Y-138816064D01*
X111769070Y-138780945D01*
X111769084Y-138780936D01*
X111805576Y-138761189D01*
X111983240Y-138622906D01*
X112135722Y-138457268D01*
X112258860Y-138268791D01*
X112349296Y-138062616D01*
X112404564Y-137844368D01*
X112423156Y-137620000D01*
X112409345Y-137453324D01*
X112423426Y-137384888D01*
X112472271Y-137334929D01*
X112540372Y-137319308D01*
X112557109Y-137321466D01*
X112617604Y-137333499D01*
X112617605Y-137333500D01*
X112617606Y-137333500D01*
X117186234Y-137333500D01*
X117253273Y-137353185D01*
X117273915Y-137369819D01*
X119568082Y-139663986D01*
X119601567Y-139725309D01*
X119596583Y-139795001D01*
X119585397Y-139817635D01*
X119566958Y-139846982D01*
X119506782Y-140018953D01*
X119506781Y-140018958D01*
X119486384Y-140199996D01*
X119486384Y-140200003D01*
X119506781Y-140381041D01*
X119506782Y-140381046D01*
X119547949Y-140498693D01*
X119566957Y-140553015D01*
X119663889Y-140707281D01*
X119792719Y-140836111D01*
X119946985Y-140933043D01*
X120118953Y-140993217D01*
X120118958Y-140993218D01*
X120299996Y-141013616D01*
X120300000Y-141013616D01*
X120300004Y-141013616D01*
X120481041Y-140993218D01*
X120481044Y-140993217D01*
X120481047Y-140993217D01*
X120653015Y-140933043D01*
X120807281Y-140836111D01*
X120936111Y-140707281D01*
X121033043Y-140553015D01*
X121093217Y-140381047D01*
X121113616Y-140200000D01*
X121109109Y-140160000D01*
X121093218Y-140018958D01*
X121093217Y-140018953D01*
X121033043Y-139846985D01*
X120952506Y-139718811D01*
X120933500Y-139652839D01*
X120933500Y-139437605D01*
X120933499Y-139437601D01*
X120914352Y-139341343D01*
X120909155Y-139315215D01*
X120861400Y-139199925D01*
X120861399Y-139199924D01*
X120861396Y-139199918D01*
X120792072Y-139096168D01*
X120792071Y-139096167D01*
X120703833Y-139007929D01*
X119540263Y-137844359D01*
X118321372Y-136625467D01*
X118287887Y-136564144D01*
X118292871Y-136494452D01*
X118334743Y-136438519D01*
X118400207Y-136414102D01*
X118429459Y-136415476D01*
X118567431Y-136438500D01*
X118567432Y-136438500D01*
X118792569Y-136438500D01*
X119014635Y-136401444D01*
X119227574Y-136328342D01*
X119425576Y-136221189D01*
X119603240Y-136082906D01*
X119755722Y-135917268D01*
X119846193Y-135778790D01*
X119899338Y-135733437D01*
X119968569Y-135724013D01*
X120031905Y-135753515D01*
X120053804Y-135778787D01*
X120144278Y-135917268D01*
X120144283Y-135917273D01*
X120144284Y-135917276D01*
X120296756Y-136082902D01*
X120296761Y-136082907D01*
X120355981Y-136129000D01*
X120474424Y-136221189D01*
X120474425Y-136221189D01*
X120474427Y-136221191D01*
X120575824Y-136276064D01*
X120672426Y-136328342D01*
X120885365Y-136401444D01*
X121107431Y-136438500D01*
X121332569Y-136438500D01*
X121554635Y-136401444D01*
X121767574Y-136328342D01*
X121965576Y-136221189D01*
X122143240Y-136082906D01*
X122295722Y-135917268D01*
X122386193Y-135778790D01*
X122439338Y-135733437D01*
X122508569Y-135724013D01*
X122571905Y-135753515D01*
X122593804Y-135778787D01*
X122684278Y-135917268D01*
X122684283Y-135917273D01*
X122684284Y-135917276D01*
X122836756Y-136082902D01*
X122836761Y-136082907D01*
X122895981Y-136129000D01*
X123014424Y-136221189D01*
X123014425Y-136221189D01*
X123014427Y-136221191D01*
X123115824Y-136276064D01*
X123212426Y-136328342D01*
X123425365Y-136401444D01*
X123647431Y-136438500D01*
X123872569Y-136438500D01*
X124094635Y-136401444D01*
X124307574Y-136328342D01*
X124505576Y-136221189D01*
X124683240Y-136082906D01*
X124835722Y-135917268D01*
X124926193Y-135778790D01*
X124979338Y-135733437D01*
X125048569Y-135724013D01*
X125111905Y-135753515D01*
G37*
G04 #@! TD.AperFunction*
M02*
