G04 #@! TF.GenerationSoftware,KiCad,Pcbnew,8.0.5-8.0.5-0~ubuntu24.04.1*
G04 #@! TF.CreationDate,2024-10-08T07:52:30+09:00*
G04 #@! TF.ProjectId,gopher_bird_rp2040_sw,676f7068-6572-45f6-9269-72645f727032,rev?*
G04 #@! TF.SameCoordinates,Original*
G04 #@! TF.FileFunction,Copper,L2,Bot*
G04 #@! TF.FilePolarity,Positive*
%FSLAX46Y46*%
G04 Gerber Fmt 4.6, Leading zero omitted, Abs format (unit mm)*
G04 Created by KiCad (PCBNEW 8.0.5-8.0.5-0~ubuntu24.04.1) date 2024-10-08 07:52:30*
%MOMM*%
%LPD*%
G01*
G04 APERTURE LIST*
G04 Aperture macros list*
%AMRoundRect*
0 Rectangle with rounded corners*
0 $1 Rounding radius*
0 $2 $3 $4 $5 $6 $7 $8 $9 X,Y pos of 4 corners*
0 Add a 4 corners polygon primitive as box body*
4,1,4,$2,$3,$4,$5,$6,$7,$8,$9,$2,$3,0*
0 Add four circle primitives for the rounded corners*
1,1,$1+$1,$2,$3*
1,1,$1+$1,$4,$5*
1,1,$1+$1,$6,$7*
1,1,$1+$1,$8,$9*
0 Add four rect primitives between the rounded corners*
20,1,$1+$1,$2,$3,$4,$5,0*
20,1,$1+$1,$4,$5,$6,$7,0*
20,1,$1+$1,$6,$7,$8,$9,0*
20,1,$1+$1,$8,$9,$2,$3,0*%
G04 Aperture macros list end*
%ADD10C,0.300000*%
G04 #@! TA.AperFunction,NonConductor*
%ADD11C,0.300000*%
G04 #@! TD*
G04 #@! TA.AperFunction,ComponentPad*
%ADD12O,1.700000X1.700000*%
G04 #@! TD*
G04 #@! TA.AperFunction,ComponentPad*
%ADD13O,1.600000X2.000000*%
G04 #@! TD*
G04 #@! TA.AperFunction,ComponentPad*
%ADD14C,2.000000*%
G04 #@! TD*
G04 #@! TA.AperFunction,ComponentPad*
%ADD15R,1.350000X1.350000*%
G04 #@! TD*
G04 #@! TA.AperFunction,ComponentPad*
%ADD16O,1.350000X1.350000*%
G04 #@! TD*
G04 #@! TA.AperFunction,ComponentPad*
%ADD17R,2.000000X2.000000*%
G04 #@! TD*
G04 #@! TA.AperFunction,SMDPad,CuDef*
%ADD18RoundRect,0.243750X0.243750X0.456250X-0.243750X0.456250X-0.243750X-0.456250X0.243750X-0.456250X0*%
G04 #@! TD*
G04 #@! TA.AperFunction,ViaPad*
%ADD19C,0.600000*%
G04 #@! TD*
G04 #@! TA.AperFunction,Conductor*
%ADD20C,0.250000*%
G04 #@! TD*
G04 #@! TA.AperFunction,Conductor*
%ADD21C,0.600000*%
G04 #@! TD*
G04 #@! TA.AperFunction,Conductor*
%ADD22C,0.200000*%
G04 #@! TD*
G04 APERTURE END LIST*
D10*
D11*
X113016917Y-108500828D02*
X113016917Y-109572257D01*
X113016917Y-109572257D02*
X113088346Y-109786542D01*
X113088346Y-109786542D02*
X113231203Y-109929400D01*
X113231203Y-109929400D02*
X113445489Y-110000828D01*
X113445489Y-110000828D02*
X113588346Y-110000828D01*
X111588346Y-110000828D02*
X112302632Y-110000828D01*
X112302632Y-110000828D02*
X112302632Y-108500828D01*
X110231203Y-109857971D02*
X110302631Y-109929400D01*
X110302631Y-109929400D02*
X110516917Y-110000828D01*
X110516917Y-110000828D02*
X110659774Y-110000828D01*
X110659774Y-110000828D02*
X110874060Y-109929400D01*
X110874060Y-109929400D02*
X111016917Y-109786542D01*
X111016917Y-109786542D02*
X111088346Y-109643685D01*
X111088346Y-109643685D02*
X111159774Y-109357971D01*
X111159774Y-109357971D02*
X111159774Y-109143685D01*
X111159774Y-109143685D02*
X111088346Y-108857971D01*
X111088346Y-108857971D02*
X111016917Y-108715114D01*
X111016917Y-108715114D02*
X110874060Y-108572257D01*
X110874060Y-108572257D02*
X110659774Y-108500828D01*
X110659774Y-108500828D02*
X110516917Y-108500828D01*
X110516917Y-108500828D02*
X110302631Y-108572257D01*
X110302631Y-108572257D02*
X110231203Y-108643685D01*
X109159774Y-108500828D02*
X109159774Y-109572257D01*
X109159774Y-109572257D02*
X109231203Y-109786542D01*
X109231203Y-109786542D02*
X109374060Y-109929400D01*
X109374060Y-109929400D02*
X109588346Y-110000828D01*
X109588346Y-110000828D02*
X109731203Y-110000828D01*
X107731203Y-110000828D02*
X108445489Y-110000828D01*
X108445489Y-110000828D02*
X108445489Y-108500828D01*
X106374060Y-109857971D02*
X106445488Y-109929400D01*
X106445488Y-109929400D02*
X106659774Y-110000828D01*
X106659774Y-110000828D02*
X106802631Y-110000828D01*
X106802631Y-110000828D02*
X107016917Y-109929400D01*
X107016917Y-109929400D02*
X107159774Y-109786542D01*
X107159774Y-109786542D02*
X107231203Y-109643685D01*
X107231203Y-109643685D02*
X107302631Y-109357971D01*
X107302631Y-109357971D02*
X107302631Y-109143685D01*
X107302631Y-109143685D02*
X107231203Y-108857971D01*
X107231203Y-108857971D02*
X107159774Y-108715114D01*
X107159774Y-108715114D02*
X107016917Y-108572257D01*
X107016917Y-108572257D02*
X106802631Y-108500828D01*
X106802631Y-108500828D02*
X106659774Y-108500828D01*
X106659774Y-108500828D02*
X106445488Y-108572257D01*
X106445488Y-108572257D02*
X106374060Y-108643685D01*
X105302631Y-108500828D02*
X105302631Y-109572257D01*
X105302631Y-109572257D02*
X105374060Y-109786542D01*
X105374060Y-109786542D02*
X105516917Y-109929400D01*
X105516917Y-109929400D02*
X105731203Y-110000828D01*
X105731203Y-110000828D02*
X105874060Y-110000828D01*
X103874060Y-110000828D02*
X104588346Y-110000828D01*
X104588346Y-110000828D02*
X104588346Y-108500828D01*
X102516917Y-109857971D02*
X102588345Y-109929400D01*
X102588345Y-109929400D02*
X102802631Y-110000828D01*
X102802631Y-110000828D02*
X102945488Y-110000828D01*
X102945488Y-110000828D02*
X103159774Y-109929400D01*
X103159774Y-109929400D02*
X103302631Y-109786542D01*
X103302631Y-109786542D02*
X103374060Y-109643685D01*
X103374060Y-109643685D02*
X103445488Y-109357971D01*
X103445488Y-109357971D02*
X103445488Y-109143685D01*
X103445488Y-109143685D02*
X103374060Y-108857971D01*
X103374060Y-108857971D02*
X103302631Y-108715114D01*
X103302631Y-108715114D02*
X103159774Y-108572257D01*
X103159774Y-108572257D02*
X102945488Y-108500828D01*
X102945488Y-108500828D02*
X102802631Y-108500828D01*
X102802631Y-108500828D02*
X102588345Y-108572257D01*
X102588345Y-108572257D02*
X102516917Y-108643685D01*
X101445488Y-108500828D02*
X101445488Y-109572257D01*
X101445488Y-109572257D02*
X101516917Y-109786542D01*
X101516917Y-109786542D02*
X101659774Y-109929400D01*
X101659774Y-109929400D02*
X101874060Y-110000828D01*
X101874060Y-110000828D02*
X102016917Y-110000828D01*
X100016917Y-110000828D02*
X100731203Y-110000828D01*
X100731203Y-110000828D02*
X100731203Y-108500828D01*
X98659774Y-109857971D02*
X98731202Y-109929400D01*
X98731202Y-109929400D02*
X98945488Y-110000828D01*
X98945488Y-110000828D02*
X99088345Y-110000828D01*
X99088345Y-110000828D02*
X99302631Y-109929400D01*
X99302631Y-109929400D02*
X99445488Y-109786542D01*
X99445488Y-109786542D02*
X99516917Y-109643685D01*
X99516917Y-109643685D02*
X99588345Y-109357971D01*
X99588345Y-109357971D02*
X99588345Y-109143685D01*
X99588345Y-109143685D02*
X99516917Y-108857971D01*
X99516917Y-108857971D02*
X99445488Y-108715114D01*
X99445488Y-108715114D02*
X99302631Y-108572257D01*
X99302631Y-108572257D02*
X99088345Y-108500828D01*
X99088345Y-108500828D02*
X98945488Y-108500828D01*
X98945488Y-108500828D02*
X98731202Y-108572257D01*
X98731202Y-108572257D02*
X98659774Y-108643685D01*
D12*
X109460000Y-177000000D03*
X109460000Y-174460000D03*
X109460000Y-171920000D03*
X109460000Y-169380000D03*
X109460000Y-166840000D03*
X109460000Y-164300000D03*
X109460000Y-161760000D03*
X109460000Y-159220000D03*
X109460000Y-156680000D03*
X112000000Y-156680000D03*
X114540000Y-156680000D03*
X117080000Y-156680000D03*
X119620000Y-156680000D03*
X122160000Y-156680000D03*
X124700000Y-156680000D03*
X124700000Y-159220000D03*
X124700000Y-161760000D03*
X124700000Y-164300000D03*
X124700000Y-166840000D03*
X124700000Y-169380000D03*
X124700000Y-171920000D03*
X124700000Y-174460000D03*
X124700000Y-177000000D03*
D13*
X107980000Y-119700000D03*
X110520000Y-119700000D03*
X113060000Y-119700000D03*
X115600000Y-119700000D03*
D14*
X130700000Y-155200000D03*
X137200000Y-155200000D03*
X130700000Y-159700000D03*
X137200000Y-159700000D03*
X78600000Y-161800000D03*
X85100000Y-161800000D03*
X78600000Y-166300000D03*
X85100000Y-166300000D03*
X87400000Y-171700000D03*
X93900000Y-171700000D03*
X87400000Y-176200000D03*
X93900000Y-176200000D03*
D15*
X81900000Y-139100000D03*
D16*
X81900000Y-141100000D03*
X81900000Y-143100000D03*
X81900000Y-145100000D03*
D14*
X87400000Y-152100000D03*
X93900000Y-152100000D03*
X87400000Y-156600000D03*
X93900000Y-156600000D03*
X95400000Y-161800000D03*
X101900000Y-161800000D03*
X95400000Y-166300000D03*
X101900000Y-166300000D03*
X136300000Y-166000000D03*
X142800000Y-166000000D03*
X136300000Y-170500000D03*
X142800000Y-170500000D03*
D17*
X137500000Y-136900000D03*
D14*
X142500000Y-136900000D03*
D18*
X111400000Y-65900000D03*
X109525000Y-65900000D03*
D19*
X102000000Y-127500000D03*
X95700000Y-73500000D03*
X127000000Y-72500000D03*
X122900000Y-134600000D03*
X120000000Y-174500000D03*
X111600000Y-177900000D03*
X98700000Y-161800000D03*
X93000000Y-71900000D03*
X124400000Y-70900000D03*
X96400000Y-70300000D03*
X127600000Y-69300000D03*
X95400000Y-71100000D03*
X118700000Y-161800000D03*
D20*
X133900000Y-163600000D02*
X136300000Y-166000000D01*
X137200000Y-155200000D02*
X142500000Y-149900000D01*
X127273833Y-181400000D02*
X122200000Y-181400000D01*
X78600000Y-166300000D02*
X78600000Y-169900000D01*
X122200000Y-181400000D02*
X120000000Y-179200000D01*
X120000000Y-179200000D02*
X120000000Y-174500000D01*
D21*
X120000000Y-85200000D02*
X120000000Y-79500000D01*
X120000000Y-79500000D02*
X97100000Y-79500000D01*
X115700000Y-115600000D02*
X110800000Y-115600000D01*
X120000000Y-79500000D02*
X127000000Y-72500000D01*
D20*
X133900000Y-158400000D02*
X133900000Y-163600000D01*
X85100000Y-166300000D02*
X93500000Y-166300000D01*
X138200000Y-169400000D02*
X138200000Y-170473833D01*
D21*
X95700000Y-78100000D02*
X95700000Y-73500000D01*
X110800000Y-115600000D02*
X107980000Y-118420000D01*
X120000000Y-111300000D02*
X120000000Y-85200000D01*
D20*
X136300000Y-166000000D02*
X136300000Y-167500000D01*
X95875000Y-178175000D02*
X93900000Y-176200000D01*
X138200000Y-170473833D02*
X127273833Y-181400000D01*
X84900000Y-176200000D02*
X87400000Y-176200000D01*
X93500000Y-166300000D02*
X95400000Y-166300000D01*
D21*
X107980000Y-118420000D02*
X107980000Y-119700000D01*
D20*
X93900000Y-156600000D02*
X98700000Y-161400000D01*
D21*
X126050000Y-137750000D02*
X126050000Y-173110000D01*
X102000000Y-127500000D02*
X102000000Y-129500000D01*
X97100000Y-79500000D02*
X95700000Y-78100000D01*
X102000000Y-129500000D02*
X92400000Y-139100000D01*
D20*
X111600000Y-177900000D02*
X111325000Y-178175000D01*
X78600000Y-169900000D02*
X84900000Y-176200000D01*
X136300000Y-167500000D02*
X138200000Y-169400000D01*
X130700000Y-155200000D02*
X133900000Y-158400000D01*
X111325000Y-178175000D02*
X95875000Y-178175000D01*
D21*
X126050000Y-173110000D02*
X124700000Y-174460000D01*
D20*
X142500000Y-149900000D02*
X142500000Y-136900000D01*
D21*
X120000000Y-111300000D02*
X115700000Y-115600000D01*
X122900000Y-134600000D02*
X126050000Y-137750000D01*
D20*
X98700000Y-161400000D02*
X98700000Y-161800000D01*
D21*
X92400000Y-139100000D02*
X81900000Y-139100000D01*
X89100000Y-81300000D02*
X89100000Y-73300000D01*
X93000000Y-71900000D02*
X123400000Y-71900000D01*
X90500000Y-71900000D02*
X93000000Y-71900000D01*
X105500000Y-124720000D02*
X98120000Y-124720000D01*
X89100000Y-115700000D02*
X89100000Y-81300000D01*
X110520000Y-119920000D02*
X110520000Y-119700000D01*
X127400000Y-174300000D02*
X124700000Y-177000000D01*
X123400000Y-71900000D02*
X124400000Y-70900000D01*
X105500000Y-124720000D02*
X110520000Y-119700000D01*
X105500000Y-131700000D02*
X96100000Y-141100000D01*
X110520000Y-119700000D02*
X113320000Y-116900000D01*
X89100000Y-73300000D02*
X90300000Y-72100000D01*
X96100000Y-141100000D02*
X81900000Y-141100000D01*
X116400000Y-116900000D02*
X127400000Y-127900000D01*
X98120000Y-124720000D02*
X89100000Y-115700000D01*
X105500000Y-124720000D02*
X105500000Y-131700000D01*
X127400000Y-127900000D02*
X127400000Y-174300000D01*
X90300000Y-72100000D02*
X90500000Y-71900000D01*
X113320000Y-116900000D02*
X116400000Y-116900000D01*
D22*
X96400000Y-67600000D02*
X96400000Y-70300000D01*
X97800000Y-66200000D02*
X96400000Y-67600000D01*
X109525000Y-65900000D02*
X98100000Y-65900000D01*
X98100000Y-65900000D02*
X97800000Y-66200000D01*
X125151472Y-69300000D02*
X123351472Y-71100000D01*
X127600000Y-69300000D02*
X125151472Y-69300000D01*
X95400000Y-71100000D02*
X123351472Y-71100000D01*
D20*
X115715000Y-170745000D02*
X109460000Y-177000000D01*
X115715000Y-155385001D02*
X115715000Y-170745000D01*
X118168346Y-122268346D02*
X118168346Y-152931655D01*
X118168346Y-152931655D02*
X115715000Y-155385001D01*
X115600000Y-119700000D02*
X118168346Y-122268346D01*
X113175000Y-170745000D02*
X109460000Y-174460000D01*
X113060000Y-119700000D02*
X113175000Y-119815000D01*
X113175000Y-119815000D02*
X113175000Y-170745000D01*
X80100000Y-166273833D02*
X87926167Y-174100000D01*
X94200000Y-174100000D02*
X96380000Y-171920000D01*
X80100000Y-144900000D02*
X80100000Y-166273833D01*
X81900000Y-143100000D02*
X80100000Y-144900000D01*
X87926167Y-174100000D02*
X94200000Y-174100000D01*
X96380000Y-171920000D02*
X109460000Y-171920000D01*
X81100000Y-164173833D02*
X81100000Y-145900000D01*
X86306167Y-169380000D02*
X109460000Y-169380000D01*
X81100000Y-145900000D02*
X81900000Y-145100000D01*
X81100000Y-164173833D02*
X86306167Y-169380000D01*
X138000000Y-157300000D02*
X139600000Y-158900000D01*
X139600000Y-170500000D02*
X127800000Y-182300000D01*
X137500000Y-147600000D02*
X134600000Y-150500000D01*
X135600000Y-157300000D02*
X138000000Y-157300000D01*
X134600000Y-150500000D02*
X134600000Y-156300000D01*
X118700000Y-179900000D02*
X118700000Y-161800000D01*
X137500000Y-136900000D02*
X137500000Y-147600000D01*
X121100000Y-182300000D02*
X118700000Y-179900000D01*
X134600000Y-156300000D02*
X135600000Y-157300000D01*
X139600000Y-158900000D02*
X139600000Y-170500000D01*
X127800000Y-182300000D02*
X121100000Y-182300000D01*
X122700000Y-178500000D02*
X122700000Y-171380000D01*
X123000000Y-178800000D02*
X122700000Y-178500000D01*
X125300000Y-178800000D02*
X123000000Y-178800000D01*
X128500000Y-77000000D02*
X128500000Y-175600000D01*
X132000000Y-73500000D02*
X128500000Y-77000000D01*
X128500000Y-175600000D02*
X125300000Y-178800000D01*
X132000000Y-67900000D02*
X132000000Y-73500000D01*
X122700000Y-171380000D02*
X124700000Y-169380000D01*
X130000000Y-65900000D02*
X132000000Y-67900000D01*
X111400000Y-65900000D02*
X130000000Y-65900000D01*
X109921701Y-163100000D02*
X110700000Y-163878299D01*
X100500000Y-162600000D02*
X101200000Y-163300000D01*
X101200000Y-163300000D02*
X108608299Y-163300000D01*
X108808299Y-163100000D02*
X109921701Y-163100000D01*
X93900000Y-152100000D02*
X100500000Y-158700000D01*
X110700000Y-165600000D02*
X109460000Y-166840000D01*
X108608299Y-163300000D02*
X108808299Y-163100000D01*
X100500000Y-158700000D02*
X100500000Y-162600000D01*
X110700000Y-163878299D02*
X110700000Y-165600000D01*
X87600000Y-164300000D02*
X85100000Y-161800000D01*
X109460000Y-164300000D02*
X87600000Y-164300000D01*
X109900000Y-170700000D02*
X111700000Y-168900000D01*
X94900000Y-170700000D02*
X109900000Y-170700000D01*
X111700000Y-162700000D02*
X110760000Y-161760000D01*
X93900000Y-171700000D02*
X94900000Y-170700000D01*
X110760000Y-161760000D02*
X109460000Y-161760000D01*
X111700000Y-168900000D02*
X111700000Y-162700000D01*
X109460000Y-159220000D02*
X104480000Y-159220000D01*
X104480000Y-159220000D02*
X101900000Y-161800000D01*
X121800000Y-178800000D02*
X121800000Y-169740000D01*
X130700000Y-159700000D02*
X130700000Y-174800000D01*
X121800000Y-169740000D02*
X124700000Y-166840000D01*
X125700000Y-179800000D02*
X122800000Y-179800000D01*
X130700000Y-174800000D02*
X125700000Y-179800000D01*
X122800000Y-179800000D02*
X121800000Y-178800000D01*
X122300000Y-180500000D02*
X121000000Y-179200000D01*
X121000000Y-168000000D02*
X124700000Y-164300000D01*
X136300000Y-170500000D02*
X126300000Y-180500000D01*
X126300000Y-180500000D02*
X122300000Y-180500000D01*
X121000000Y-179200000D02*
X121000000Y-168000000D01*
G04 #@! TA.AperFunction,Conductor*
G36*
X108305203Y-177724943D02*
G01*
X108327804Y-177750829D01*
X108384278Y-177837268D01*
X108384283Y-177837273D01*
X108384284Y-177837276D01*
X108536756Y-178002902D01*
X108536760Y-178002906D01*
X108714424Y-178141189D01*
X108714425Y-178141189D01*
X108714427Y-178141191D01*
X108841135Y-178209761D01*
X108912426Y-178248342D01*
X109125365Y-178321444D01*
X109279996Y-178347247D01*
X109342879Y-178377696D01*
X109379319Y-178437311D01*
X109377745Y-178507162D01*
X109338655Y-178565074D01*
X109274461Y-178592659D01*
X109260274Y-178593553D01*
X108224689Y-178599307D01*
X108157541Y-178579995D01*
X108111494Y-178527446D01*
X108100000Y-178475309D01*
X108100000Y-177818656D01*
X108119685Y-177751617D01*
X108172489Y-177705862D01*
X108241647Y-177695918D01*
X108305203Y-177724943D01*
G37*
G04 #@! TD.AperFunction*
G04 #@! TA.AperFunction,Conductor*
G36*
X123511905Y-157353515D02*
G01*
X123533804Y-157378787D01*
X123624278Y-157517268D01*
X123624283Y-157517273D01*
X123624284Y-157517276D01*
X123776756Y-157682902D01*
X123776760Y-157682906D01*
X123954424Y-157821189D01*
X123954429Y-157821191D01*
X123954431Y-157821193D01*
X123990930Y-157840946D01*
X124040520Y-157890165D01*
X124055628Y-157958382D01*
X124031457Y-158023937D01*
X123990930Y-158059054D01*
X123954431Y-158078806D01*
X123954422Y-158078812D01*
X123776761Y-158217092D01*
X123776756Y-158217097D01*
X123624284Y-158382723D01*
X123624276Y-158382734D01*
X123501140Y-158571207D01*
X123410703Y-158777385D01*
X123355436Y-158995628D01*
X123355434Y-158995640D01*
X123336844Y-159219994D01*
X123336844Y-159220005D01*
X123355434Y-159444359D01*
X123355436Y-159444371D01*
X123410703Y-159662614D01*
X123501140Y-159868792D01*
X123624276Y-160057265D01*
X123624284Y-160057276D01*
X123776756Y-160222902D01*
X123776760Y-160222906D01*
X123954424Y-160361189D01*
X123954429Y-160361191D01*
X123954431Y-160361193D01*
X123990930Y-160380946D01*
X124040520Y-160430165D01*
X124055628Y-160498382D01*
X124031457Y-160563937D01*
X123990930Y-160599054D01*
X123954431Y-160618806D01*
X123954422Y-160618812D01*
X123776761Y-160757092D01*
X123776756Y-160757097D01*
X123624284Y-160922723D01*
X123624276Y-160922734D01*
X123501140Y-161111207D01*
X123410703Y-161317385D01*
X123355436Y-161535628D01*
X123355434Y-161535640D01*
X123336844Y-161759994D01*
X123336844Y-161760005D01*
X123355434Y-161984359D01*
X123355436Y-161984371D01*
X123410703Y-162202614D01*
X123501140Y-162408792D01*
X123624276Y-162597265D01*
X123624284Y-162597276D01*
X123776756Y-162762902D01*
X123776760Y-162762906D01*
X123954424Y-162901189D01*
X123954429Y-162901191D01*
X123954431Y-162901193D01*
X123990930Y-162920946D01*
X124040520Y-162970165D01*
X124055628Y-163038382D01*
X124031457Y-163103937D01*
X123990930Y-163139054D01*
X123954431Y-163158806D01*
X123954422Y-163158812D01*
X123776761Y-163297092D01*
X123776756Y-163297097D01*
X123624284Y-163462723D01*
X123624276Y-163462734D01*
X123501140Y-163651207D01*
X123410703Y-163857385D01*
X123355436Y-164075628D01*
X123355434Y-164075640D01*
X123336844Y-164299994D01*
X123336844Y-164300005D01*
X123355435Y-164524364D01*
X123383461Y-164635037D01*
X123380836Y-164704857D01*
X123350936Y-164753158D01*
X121265890Y-166838206D01*
X120596167Y-167507929D01*
X120568178Y-167535918D01*
X120507927Y-167596168D01*
X120438603Y-167699918D01*
X120438598Y-167699927D01*
X120390845Y-167815214D01*
X120390843Y-167815222D01*
X120366500Y-167937601D01*
X120366500Y-178408539D01*
X120346815Y-178475578D01*
X120294011Y-178521333D01*
X120243189Y-178532537D01*
X119458189Y-178536898D01*
X119391041Y-178517586D01*
X119344994Y-178465037D01*
X119333500Y-178412900D01*
X119333500Y-162347160D01*
X119352507Y-162281188D01*
X119433039Y-162153022D01*
X119433041Y-162153019D01*
X119433041Y-162153017D01*
X119433043Y-162153015D01*
X119493217Y-161981047D01*
X119513616Y-161800000D01*
X119509109Y-161760000D01*
X119493218Y-161618958D01*
X119493217Y-161618953D01*
X119433043Y-161446985D01*
X119336111Y-161292719D01*
X119207281Y-161163889D01*
X119186522Y-161150845D01*
X119053017Y-161066958D01*
X119053016Y-161066957D01*
X119053015Y-161066957D01*
X118998693Y-161047949D01*
X118881046Y-161006782D01*
X118881041Y-161006781D01*
X118700004Y-160986384D01*
X118699996Y-160986384D01*
X118518958Y-161006781D01*
X118518953Y-161006782D01*
X118346982Y-161066958D01*
X118192718Y-161163889D01*
X118063889Y-161292718D01*
X117966958Y-161446982D01*
X117906782Y-161618953D01*
X117906781Y-161618958D01*
X117886384Y-161799996D01*
X117886384Y-161800003D01*
X117906781Y-161981041D01*
X117906782Y-161981046D01*
X117966958Y-162153019D01*
X117966960Y-162153022D01*
X118047493Y-162281188D01*
X118066500Y-162347160D01*
X118066500Y-178421317D01*
X118046815Y-178488356D01*
X117994011Y-178534111D01*
X117943189Y-178545315D01*
X109674908Y-178591250D01*
X109607760Y-178571938D01*
X109561713Y-178519389D01*
X109551385Y-178450287D01*
X109580056Y-178386571D01*
X109638624Y-178348471D01*
X109653804Y-178344944D01*
X109794635Y-178321444D01*
X110007574Y-178248342D01*
X110205576Y-178141189D01*
X110383240Y-178002906D01*
X110535722Y-177837268D01*
X110658860Y-177648791D01*
X110749296Y-177442616D01*
X110804564Y-177224368D01*
X110823156Y-177000000D01*
X110804564Y-176775632D01*
X110776538Y-176664960D01*
X110779163Y-176595140D01*
X110809061Y-176546841D01*
X116207071Y-171148833D01*
X116276400Y-171045075D01*
X116324155Y-170929785D01*
X116348500Y-170807394D01*
X116348500Y-170682606D01*
X116348500Y-158036905D01*
X116368185Y-157969866D01*
X116420989Y-157924111D01*
X116490147Y-157914167D01*
X116527606Y-157926557D01*
X116527728Y-157926281D01*
X116530664Y-157927569D01*
X116531521Y-157927852D01*
X116532426Y-157928342D01*
X116745365Y-158001444D01*
X116967431Y-158038500D01*
X117192569Y-158038500D01*
X117414635Y-158001444D01*
X117627574Y-157928342D01*
X117825576Y-157821189D01*
X118003240Y-157682906D01*
X118155722Y-157517268D01*
X118246193Y-157378790D01*
X118299338Y-157333437D01*
X118368569Y-157324013D01*
X118431905Y-157353515D01*
X118453804Y-157378787D01*
X118544278Y-157517268D01*
X118544283Y-157517273D01*
X118544284Y-157517276D01*
X118696756Y-157682902D01*
X118696760Y-157682906D01*
X118874424Y-157821189D01*
X118874425Y-157821189D01*
X118874427Y-157821191D01*
X118975824Y-157876064D01*
X119072426Y-157928342D01*
X119285365Y-158001444D01*
X119507431Y-158038500D01*
X119732569Y-158038500D01*
X119954635Y-158001444D01*
X120167574Y-157928342D01*
X120365576Y-157821189D01*
X120543240Y-157682906D01*
X120695722Y-157517268D01*
X120786193Y-157378790D01*
X120839338Y-157333437D01*
X120908569Y-157324013D01*
X120971905Y-157353515D01*
X120993804Y-157378787D01*
X121084278Y-157517268D01*
X121084283Y-157517273D01*
X121084284Y-157517276D01*
X121236756Y-157682902D01*
X121236760Y-157682906D01*
X121414424Y-157821189D01*
X121414425Y-157821189D01*
X121414427Y-157821191D01*
X121515824Y-157876064D01*
X121612426Y-157928342D01*
X121825365Y-158001444D01*
X122047431Y-158038500D01*
X122272569Y-158038500D01*
X122494635Y-158001444D01*
X122707574Y-157928342D01*
X122905576Y-157821189D01*
X123083240Y-157682906D01*
X123235722Y-157517268D01*
X123326193Y-157378790D01*
X123379338Y-157333437D01*
X123448569Y-157324013D01*
X123511905Y-157353515D01*
G37*
G04 #@! TD.AperFunction*
G04 #@! TA.AperFunction,Conductor*
G36*
X126057905Y-172584332D02*
G01*
X126095236Y-172643393D01*
X126100000Y-172677432D01*
X126100000Y-173712476D01*
X126080315Y-173779515D01*
X126027511Y-173825270D01*
X125958353Y-173835214D01*
X125894797Y-173806189D01*
X125874425Y-173783600D01*
X125738109Y-173588922D01*
X125738108Y-173588920D01*
X125571082Y-173421894D01*
X125390197Y-173295236D01*
X125346572Y-173240659D01*
X125339380Y-173171160D01*
X125370902Y-173108806D01*
X125402300Y-173084608D01*
X125445576Y-173061189D01*
X125623240Y-172922906D01*
X125775722Y-172757268D01*
X125872192Y-172609608D01*
X125925338Y-172564254D01*
X125994569Y-172554830D01*
X126057905Y-172584332D01*
G37*
G04 #@! TD.AperFunction*
G04 #@! TA.AperFunction,Conductor*
G36*
X126057905Y-170044332D02*
G01*
X126095236Y-170103393D01*
X126100000Y-170137432D01*
X126100000Y-171162567D01*
X126080315Y-171229606D01*
X126027511Y-171275361D01*
X125958353Y-171285305D01*
X125894797Y-171256280D01*
X125872192Y-171230389D01*
X125789508Y-171103833D01*
X125775722Y-171082732D01*
X125775719Y-171082729D01*
X125775715Y-171082723D01*
X125623243Y-170917097D01*
X125623238Y-170917092D01*
X125445577Y-170778812D01*
X125445578Y-170778812D01*
X125445576Y-170778811D01*
X125409070Y-170759055D01*
X125359479Y-170709836D01*
X125344371Y-170641619D01*
X125368541Y-170576064D01*
X125409070Y-170540945D01*
X125412823Y-170538914D01*
X125445576Y-170521189D01*
X125623240Y-170382906D01*
X125775722Y-170217268D01*
X125872192Y-170069608D01*
X125925338Y-170024254D01*
X125994569Y-170014830D01*
X126057905Y-170044332D01*
G37*
G04 #@! TD.AperFunction*
G04 #@! TA.AperFunction,Conductor*
G36*
X126057905Y-167504332D02*
G01*
X126095236Y-167563393D01*
X126100000Y-167597432D01*
X126100000Y-168622567D01*
X126080315Y-168689606D01*
X126027511Y-168735361D01*
X125958353Y-168745305D01*
X125894797Y-168716280D01*
X125872192Y-168690389D01*
X125775723Y-168542734D01*
X125775715Y-168542723D01*
X125623243Y-168377097D01*
X125623238Y-168377092D01*
X125445577Y-168238812D01*
X125445578Y-168238812D01*
X125445576Y-168238811D01*
X125409070Y-168219055D01*
X125359479Y-168169836D01*
X125344371Y-168101619D01*
X125368541Y-168036064D01*
X125409070Y-168000945D01*
X125409084Y-168000936D01*
X125445576Y-167981189D01*
X125623240Y-167842906D01*
X125775722Y-167677268D01*
X125872192Y-167529608D01*
X125925338Y-167484254D01*
X125994569Y-167474830D01*
X126057905Y-167504332D01*
G37*
G04 #@! TD.AperFunction*
G04 #@! TA.AperFunction,Conductor*
G36*
X126057905Y-164964332D02*
G01*
X126095236Y-165023393D01*
X126100000Y-165057432D01*
X126100000Y-166082567D01*
X126080315Y-166149606D01*
X126027511Y-166195361D01*
X125958353Y-166205305D01*
X125894797Y-166176280D01*
X125872192Y-166150389D01*
X125775723Y-166002734D01*
X125775715Y-166002723D01*
X125623243Y-165837097D01*
X125623238Y-165837092D01*
X125445577Y-165698812D01*
X125445578Y-165698812D01*
X125445576Y-165698811D01*
X125409070Y-165679055D01*
X125359479Y-165629836D01*
X125344371Y-165561619D01*
X125368541Y-165496064D01*
X125409070Y-165460945D01*
X125409084Y-165460936D01*
X125445576Y-165441189D01*
X125623240Y-165302906D01*
X125775722Y-165137268D01*
X125872192Y-164989608D01*
X125925338Y-164944254D01*
X125994569Y-164934830D01*
X126057905Y-164964332D01*
G37*
G04 #@! TD.AperFunction*
G04 #@! TA.AperFunction,Conductor*
G36*
X126057905Y-162424332D02*
G01*
X126095236Y-162483393D01*
X126100000Y-162517432D01*
X126100000Y-163542567D01*
X126080315Y-163609606D01*
X126027511Y-163655361D01*
X125958353Y-163665305D01*
X125894797Y-163636280D01*
X125872192Y-163610389D01*
X125775723Y-163462734D01*
X125775715Y-163462723D01*
X125623243Y-163297097D01*
X125623238Y-163297092D01*
X125445577Y-163158812D01*
X125445578Y-163158812D01*
X125445576Y-163158811D01*
X125409070Y-163139055D01*
X125359479Y-163089836D01*
X125344371Y-163021619D01*
X125368541Y-162956064D01*
X125409070Y-162920945D01*
X125409084Y-162920936D01*
X125445576Y-162901189D01*
X125623240Y-162762906D01*
X125775722Y-162597268D01*
X125872192Y-162449608D01*
X125925338Y-162404254D01*
X125994569Y-162394830D01*
X126057905Y-162424332D01*
G37*
G04 #@! TD.AperFunction*
G04 #@! TA.AperFunction,Conductor*
G36*
X126057905Y-159884332D02*
G01*
X126095236Y-159943393D01*
X126100000Y-159977432D01*
X126100000Y-161002567D01*
X126080315Y-161069606D01*
X126027511Y-161115361D01*
X125958353Y-161125305D01*
X125894797Y-161096280D01*
X125872192Y-161070389D01*
X125775723Y-160922734D01*
X125775715Y-160922723D01*
X125623243Y-160757097D01*
X125623238Y-160757092D01*
X125445577Y-160618812D01*
X125445578Y-160618812D01*
X125445576Y-160618811D01*
X125409070Y-160599055D01*
X125359479Y-160549836D01*
X125344371Y-160481619D01*
X125368541Y-160416064D01*
X125409070Y-160380945D01*
X125409084Y-160380936D01*
X125445576Y-160361189D01*
X125623240Y-160222906D01*
X125775722Y-160057268D01*
X125872192Y-159909608D01*
X125925338Y-159864254D01*
X125994569Y-159854830D01*
X126057905Y-159884332D01*
G37*
G04 #@! TD.AperFunction*
G04 #@! TA.AperFunction,Conductor*
G36*
X126057905Y-157344332D02*
G01*
X126095236Y-157403393D01*
X126100000Y-157437432D01*
X126100000Y-158462567D01*
X126080315Y-158529606D01*
X126027511Y-158575361D01*
X125958353Y-158585305D01*
X125894797Y-158556280D01*
X125872192Y-158530389D01*
X125775723Y-158382734D01*
X125775715Y-158382723D01*
X125623243Y-158217097D01*
X125623238Y-158217092D01*
X125445577Y-158078812D01*
X125445578Y-158078812D01*
X125445576Y-158078811D01*
X125409070Y-158059055D01*
X125359479Y-158009836D01*
X125344371Y-157941619D01*
X125368541Y-157876064D01*
X125409070Y-157840945D01*
X125409084Y-157840936D01*
X125445576Y-157821189D01*
X125623240Y-157682906D01*
X125775722Y-157517268D01*
X125872192Y-157369608D01*
X125925338Y-157324254D01*
X125994569Y-157314830D01*
X126057905Y-157344332D01*
G37*
G04 #@! TD.AperFunction*
G04 #@! TA.AperFunction,Conductor*
G36*
X126043039Y-155119685D02*
G01*
X126088794Y-155172489D01*
X126100000Y-155224000D01*
X126100000Y-155922567D01*
X126080315Y-155989606D01*
X126027511Y-156035361D01*
X125958353Y-156045305D01*
X125894797Y-156016280D01*
X125872192Y-155990389D01*
X125775723Y-155842734D01*
X125775715Y-155842723D01*
X125623243Y-155677097D01*
X125623238Y-155677092D01*
X125445577Y-155538812D01*
X125445572Y-155538808D01*
X125247580Y-155431661D01*
X125247577Y-155431659D01*
X125247574Y-155431658D01*
X125247571Y-155431657D01*
X125247569Y-155431656D01*
X125034637Y-155358556D01*
X124961243Y-155346309D01*
X124898357Y-155315859D01*
X124861918Y-155256244D01*
X124863493Y-155186392D01*
X124902583Y-155128480D01*
X124966776Y-155100896D01*
X124981652Y-155100000D01*
X125976000Y-155100000D01*
X126043039Y-155119685D01*
G37*
G04 #@! TD.AperFunction*
M02*
