G04 #@! TF.GenerationSoftware,KiCad,Pcbnew,8.0.5-8.0.5-0~ubuntu24.04.1*
G04 #@! TF.CreationDate,2024-10-08T07:52:30+09:00*
G04 #@! TF.ProjectId,gopher_bird_rp2040_sw,676f7068-6572-45f6-9269-72645f727032,rev?*
G04 #@! TF.SameCoordinates,Original*
G04 #@! TF.FileFunction,Legend,Top*
G04 #@! TF.FilePolarity,Positive*
%FSLAX46Y46*%
G04 Gerber Fmt 4.6, Leading zero omitted, Abs format (unit mm)*
G04 Created by KiCad (PCBNEW 8.0.5-8.0.5-0~ubuntu24.04.1) date 2024-10-08 07:52:30*
%MOMM*%
%LPD*%
G01*
G04 APERTURE LIST*
%ADD10C,0.150000*%
%ADD11C,0.120000*%
%ADD12C,0.010000*%
%ADD13C,0.100000*%
G04 APERTURE END LIST*
D10*
X110433333Y-130485009D02*
X110576190Y-130532628D01*
X110576190Y-130532628D02*
X110623809Y-130580247D01*
X110623809Y-130580247D02*
X110671428Y-130675485D01*
X110671428Y-130675485D02*
X110671428Y-130818342D01*
X110671428Y-130818342D02*
X110623809Y-130913580D01*
X110623809Y-130913580D02*
X110576190Y-130961200D01*
X110576190Y-130961200D02*
X110480952Y-131008819D01*
X110480952Y-131008819D02*
X110100000Y-131008819D01*
X110100000Y-131008819D02*
X110100000Y-130008819D01*
X110100000Y-130008819D02*
X110433333Y-130008819D01*
X110433333Y-130008819D02*
X110528571Y-130056438D01*
X110528571Y-130056438D02*
X110576190Y-130104057D01*
X110576190Y-130104057D02*
X110623809Y-130199295D01*
X110623809Y-130199295D02*
X110623809Y-130294533D01*
X110623809Y-130294533D02*
X110576190Y-130389771D01*
X110576190Y-130389771D02*
X110528571Y-130437390D01*
X110528571Y-130437390D02*
X110433333Y-130485009D01*
X110433333Y-130485009D02*
X110100000Y-130485009D01*
X111100000Y-131008819D02*
X111100000Y-130342152D01*
X111100000Y-130532628D02*
X111147619Y-130437390D01*
X111147619Y-130437390D02*
X111195238Y-130389771D01*
X111195238Y-130389771D02*
X111290476Y-130342152D01*
X111290476Y-130342152D02*
X111385714Y-130342152D01*
X112147619Y-131008819D02*
X112147619Y-130008819D01*
X112147619Y-130961200D02*
X112052381Y-131008819D01*
X112052381Y-131008819D02*
X111861905Y-131008819D01*
X111861905Y-131008819D02*
X111766667Y-130961200D01*
X111766667Y-130961200D02*
X111719048Y-130913580D01*
X111719048Y-130913580D02*
X111671429Y-130818342D01*
X111671429Y-130818342D02*
X111671429Y-130532628D01*
X111671429Y-130532628D02*
X111719048Y-130437390D01*
X111719048Y-130437390D02*
X111766667Y-130389771D01*
X111766667Y-130389771D02*
X111861905Y-130342152D01*
X111861905Y-130342152D02*
X112052381Y-130342152D01*
X112052381Y-130342152D02*
X112147619Y-130389771D01*
X113147619Y-131008819D02*
X112576191Y-131008819D01*
X112861905Y-131008819D02*
X112861905Y-130008819D01*
X112861905Y-130008819D02*
X112766667Y-130151676D01*
X112766667Y-130151676D02*
X112671429Y-130246914D01*
X112671429Y-130246914D02*
X112576191Y-130294533D01*
X81566666Y-136494819D02*
X81566666Y-137209104D01*
X81566666Y-137209104D02*
X81519047Y-137351961D01*
X81519047Y-137351961D02*
X81423809Y-137447200D01*
X81423809Y-137447200D02*
X81280952Y-137494819D01*
X81280952Y-137494819D02*
X81185714Y-137494819D01*
X82566666Y-137494819D02*
X81995238Y-137494819D01*
X82280952Y-137494819D02*
X82280952Y-136494819D01*
X82280952Y-136494819D02*
X82185714Y-136637676D01*
X82185714Y-136637676D02*
X82090476Y-136732914D01*
X82090476Y-136732914D02*
X81995238Y-136780533D01*
X139357142Y-130184819D02*
X138880952Y-130184819D01*
X138880952Y-130184819D02*
X138880952Y-129184819D01*
X139642857Y-130137200D02*
X139785714Y-130184819D01*
X139785714Y-130184819D02*
X140023809Y-130184819D01*
X140023809Y-130184819D02*
X140119047Y-130137200D01*
X140119047Y-130137200D02*
X140166666Y-130089580D01*
X140166666Y-130089580D02*
X140214285Y-129994342D01*
X140214285Y-129994342D02*
X140214285Y-129899104D01*
X140214285Y-129899104D02*
X140166666Y-129803866D01*
X140166666Y-129803866D02*
X140119047Y-129756247D01*
X140119047Y-129756247D02*
X140023809Y-129708628D01*
X140023809Y-129708628D02*
X139833333Y-129661009D01*
X139833333Y-129661009D02*
X139738095Y-129613390D01*
X139738095Y-129613390D02*
X139690476Y-129565771D01*
X139690476Y-129565771D02*
X139642857Y-129470533D01*
X139642857Y-129470533D02*
X139642857Y-129375295D01*
X139642857Y-129375295D02*
X139690476Y-129280057D01*
X139690476Y-129280057D02*
X139738095Y-129232438D01*
X139738095Y-129232438D02*
X139833333Y-129184819D01*
X139833333Y-129184819D02*
X140071428Y-129184819D01*
X140071428Y-129184819D02*
X140214285Y-129232438D01*
X141166666Y-130184819D02*
X140595238Y-130184819D01*
X140880952Y-130184819D02*
X140880952Y-129184819D01*
X140880952Y-129184819D02*
X140785714Y-129327676D01*
X140785714Y-129327676D02*
X140690476Y-129422914D01*
X140690476Y-129422914D02*
X140595238Y-129470533D01*
D11*
X91800000Y-69150000D02*
X99100000Y-69150000D01*
X91800000Y-74650000D02*
X99100000Y-74650000D01*
X99100000Y-74650000D02*
X99100000Y-73500000D01*
X123200000Y-68150000D02*
X130500000Y-68150000D01*
X123200000Y-73650000D02*
X130500000Y-73650000D01*
X130500000Y-73650000D02*
X130500000Y-72500000D01*
X98200000Y-118000000D02*
X125600000Y-118000000D01*
X98200000Y-145300000D02*
X98200000Y-118000000D01*
X98622000Y-121295000D02*
X121722000Y-121295000D01*
X98622000Y-137895000D02*
X98622000Y-121295000D01*
X106901000Y-118489000D02*
X106901000Y-120902000D01*
X106901000Y-118489000D02*
X116680000Y-118489000D01*
X116680000Y-118489000D02*
X116680000Y-120902000D01*
X116680000Y-120902000D02*
X106901000Y-120902000D01*
X121722000Y-121295000D02*
X124808000Y-121295000D01*
X121722000Y-137895000D02*
X98622000Y-137895000D01*
X121722000Y-137895000D02*
X125062000Y-137920000D01*
X125062000Y-121283000D02*
X124808000Y-121295000D01*
X125062000Y-137920000D02*
X125062000Y-121283000D01*
X125600000Y-118000000D02*
X125600000Y-145300000D01*
X125600000Y-145300000D02*
X98200000Y-145300000D01*
X130450000Y-156700000D02*
X130450000Y-158200000D01*
X131700000Y-160700000D02*
X136200000Y-160700000D01*
X136200000Y-154200000D02*
X131700000Y-154200000D01*
X137450000Y-158200000D02*
X137450000Y-156700000D01*
X78350000Y-163300000D02*
X78350000Y-164800000D01*
X79600000Y-167300000D02*
X84100000Y-167300000D01*
X84100000Y-160800000D02*
X79600000Y-160800000D01*
X85350000Y-164800000D02*
X85350000Y-163300000D01*
X87150000Y-173200000D02*
X87150000Y-174700000D01*
X88400000Y-177200000D02*
X92900000Y-177200000D01*
X92900000Y-170700000D02*
X88400000Y-170700000D01*
X94150000Y-174700000D02*
X94150000Y-173200000D01*
X80840000Y-138040000D02*
X81900000Y-138040000D01*
X80840000Y-139100000D02*
X80840000Y-138040000D01*
X80840000Y-140100000D02*
X80840000Y-146160000D01*
X80840000Y-140100000D02*
X82960000Y-140100000D01*
X80840000Y-146160000D02*
X82960000Y-146160000D01*
X82960000Y-140100000D02*
X82960000Y-146160000D01*
X87150000Y-153600000D02*
X87150000Y-155100000D01*
X88400000Y-157600000D02*
X92900000Y-157600000D01*
X92900000Y-151100000D02*
X88400000Y-151100000D01*
X94150000Y-155100000D02*
X94150000Y-153600000D01*
X99600001Y-72000000D02*
G75*
G02*
X91377925Y-72000000I-4111038J0D01*
G01*
X91377925Y-72000000D02*
G75*
G02*
X99600001Y-72000000I4111038J0D01*
G01*
X105600000Y-44700000D02*
G75*
G02*
X102200000Y-44700000I-1700000J0D01*
G01*
X102200000Y-44700000D02*
G75*
G02*
X105600000Y-44700000I1700000J0D01*
G01*
X118900000Y-44300000D02*
G75*
G02*
X115500000Y-44300000I-1700000J0D01*
G01*
X115500000Y-44300000D02*
G75*
G02*
X118900000Y-44300000I1700000J0D01*
G01*
X131000001Y-71000000D02*
G75*
G02*
X122777925Y-71000000I-4111038J0D01*
G01*
X122777925Y-71000000D02*
G75*
G02*
X131000001Y-71000000I4111038J0D01*
G01*
D12*
X68320000Y-35620357D02*
X68274643Y-35665714D01*
X68229285Y-35620357D01*
X68274643Y-35575000D01*
X68320000Y-35620357D01*
G36*
X68320000Y-35620357D02*
G01*
X68274643Y-35665714D01*
X68229285Y-35620357D01*
X68274643Y-35575000D01*
X68320000Y-35620357D01*
G37*
X123565000Y-192646786D02*
X123519643Y-192692143D01*
X123474285Y-192646786D01*
X123519643Y-192601429D01*
X123565000Y-192646786D01*
G36*
X123565000Y-192646786D02*
G01*
X123519643Y-192692143D01*
X123474285Y-192646786D01*
X123519643Y-192601429D01*
X123565000Y-192646786D01*
G37*
D13*
X126970000Y-65990000D02*
X127010000Y-66830000D01*
X126490000Y-66870000D01*
X125750000Y-67020000D01*
X124980000Y-67300000D01*
X124340000Y-67700000D01*
X123870000Y-68130000D01*
X123460000Y-68630000D01*
X123180000Y-69110000D01*
X122910000Y-69750000D01*
X122790000Y-70230000D01*
X122740000Y-70740000D01*
X122740000Y-70970000D01*
X116410000Y-70940000D01*
X117140000Y-70060000D01*
X118010000Y-69140000D01*
X118340000Y-68850000D01*
X119410000Y-68010000D01*
X120620000Y-67290000D01*
X121590000Y-66850000D01*
X122410000Y-66540000D01*
X122710000Y-66450000D01*
X123770000Y-66150000D01*
X124860000Y-66000000D01*
X125800000Y-65970000D01*
X126390000Y-65970000D01*
X126970000Y-65990000D01*
G36*
X126970000Y-65990000D02*
G01*
X127010000Y-66830000D01*
X126490000Y-66870000D01*
X125750000Y-67020000D01*
X124980000Y-67300000D01*
X124340000Y-67700000D01*
X123870000Y-68130000D01*
X123460000Y-68630000D01*
X123180000Y-69110000D01*
X122910000Y-69750000D01*
X122790000Y-70230000D01*
X122740000Y-70740000D01*
X122740000Y-70970000D01*
X116410000Y-70940000D01*
X117140000Y-70060000D01*
X118010000Y-69140000D01*
X118340000Y-68850000D01*
X119410000Y-68010000D01*
X120620000Y-67290000D01*
X121590000Y-66850000D01*
X122410000Y-66540000D01*
X122710000Y-66450000D01*
X123770000Y-66150000D01*
X124860000Y-66000000D01*
X125800000Y-65970000D01*
X126390000Y-65970000D01*
X126970000Y-65990000D01*
G37*
X95730000Y-67255000D02*
X95610000Y-67820000D01*
X94900000Y-67880000D01*
X94070000Y-68100000D01*
X93420000Y-68400000D01*
X92700000Y-68860000D01*
X92170000Y-69500000D01*
X91720000Y-70180000D01*
X91510000Y-70810000D01*
X91340000Y-71490000D01*
X91320000Y-72230000D01*
X91470000Y-73130000D01*
X91690000Y-73730000D01*
X91830000Y-74000000D01*
X92090000Y-74420000D01*
X92280000Y-74670000D01*
X83890000Y-74640000D01*
X84250000Y-73920000D01*
X84450000Y-73510000D01*
X85200000Y-72320000D01*
X86120000Y-71180000D01*
X87100000Y-70230000D01*
X88250000Y-69340000D01*
X89530000Y-68580000D01*
X90650000Y-68070000D01*
X90920000Y-67970000D01*
X92010000Y-67640000D01*
X92710000Y-67440000D01*
X93510000Y-67330000D01*
X94610000Y-67205000D01*
X95730000Y-67255000D01*
G36*
X95730000Y-67255000D02*
G01*
X95610000Y-67820000D01*
X94900000Y-67880000D01*
X94070000Y-68100000D01*
X93420000Y-68400000D01*
X92700000Y-68860000D01*
X92170000Y-69500000D01*
X91720000Y-70180000D01*
X91510000Y-70810000D01*
X91340000Y-71490000D01*
X91320000Y-72230000D01*
X91470000Y-73130000D01*
X91690000Y-73730000D01*
X91830000Y-74000000D01*
X92090000Y-74420000D01*
X92280000Y-74670000D01*
X83890000Y-74640000D01*
X84250000Y-73920000D01*
X84450000Y-73510000D01*
X85200000Y-72320000D01*
X86120000Y-71180000D01*
X87100000Y-70230000D01*
X88250000Y-69340000D01*
X89530000Y-68580000D01*
X90650000Y-68070000D01*
X90920000Y-67970000D01*
X92010000Y-67640000D01*
X92710000Y-67440000D01*
X93510000Y-67330000D01*
X94610000Y-67205000D01*
X95730000Y-67255000D01*
G37*
X118330000Y-36510000D02*
X119095000Y-36720000D01*
X120005000Y-37190000D01*
X120480000Y-37550000D01*
X121080000Y-38120000D01*
X121560000Y-38780000D01*
X121980000Y-39590000D01*
X122280000Y-40580000D01*
X122350000Y-41490000D01*
X122230000Y-42430000D01*
X121940000Y-43260000D01*
X121520000Y-44030000D01*
X120980000Y-44730000D01*
X120280000Y-45340000D01*
X119560000Y-45800000D01*
X118730000Y-46110000D01*
X118100000Y-46240000D01*
X117160000Y-46290000D01*
X117180000Y-46060000D01*
X117690000Y-45970000D01*
X118230000Y-45680000D01*
X118660000Y-45250000D01*
X118870000Y-44770000D01*
X118940000Y-44210000D01*
X118830000Y-43660000D01*
X118530000Y-43160000D01*
X118210000Y-42880000D01*
X117780000Y-42650000D01*
X117230000Y-42550000D01*
X117290000Y-36470000D01*
X118330000Y-36510000D01*
G36*
X118330000Y-36510000D02*
G01*
X119095000Y-36720000D01*
X120005000Y-37190000D01*
X120480000Y-37550000D01*
X121080000Y-38120000D01*
X121560000Y-38780000D01*
X121980000Y-39590000D01*
X122280000Y-40580000D01*
X122350000Y-41490000D01*
X122230000Y-42430000D01*
X121940000Y-43260000D01*
X121520000Y-44030000D01*
X120980000Y-44730000D01*
X120280000Y-45340000D01*
X119560000Y-45800000D01*
X118730000Y-46110000D01*
X118100000Y-46240000D01*
X117160000Y-46290000D01*
X117180000Y-46060000D01*
X117690000Y-45970000D01*
X118230000Y-45680000D01*
X118660000Y-45250000D01*
X118870000Y-44770000D01*
X118940000Y-44210000D01*
X118830000Y-43660000D01*
X118530000Y-43160000D01*
X118210000Y-42880000D01*
X117780000Y-42650000D01*
X117230000Y-42550000D01*
X117290000Y-36470000D01*
X118330000Y-36510000D01*
G37*
X110910000Y-98190000D02*
X110990000Y-98390000D01*
X111060000Y-99150000D01*
X111110000Y-100160000D01*
X111130000Y-101590000D01*
X111070000Y-102710000D01*
X111020000Y-103220000D01*
X110900000Y-103900000D01*
X110660000Y-104550000D01*
X110390000Y-105305000D01*
X109950000Y-105855000D01*
X109420000Y-106250000D01*
X108630000Y-106420000D01*
X108010000Y-106320000D01*
X107440000Y-106120000D01*
X106970000Y-105840000D01*
X106570000Y-105400000D01*
X106270000Y-104570000D01*
X106050000Y-103930000D01*
X105900000Y-103180000D01*
X105840000Y-102310000D01*
X105850000Y-101580000D01*
X106000000Y-100730000D01*
X106090000Y-100070000D01*
X106230000Y-99480000D01*
X106320000Y-99300000D01*
X107420000Y-99005000D01*
X108770000Y-98700000D01*
X109820000Y-98400000D01*
X110630000Y-98210000D01*
X110860000Y-98180000D01*
X110910000Y-98190000D01*
G36*
X110910000Y-98190000D02*
G01*
X110990000Y-98390000D01*
X111060000Y-99150000D01*
X111110000Y-100160000D01*
X111130000Y-101590000D01*
X111070000Y-102710000D01*
X111020000Y-103220000D01*
X110900000Y-103900000D01*
X110660000Y-104550000D01*
X110390000Y-105305000D01*
X109950000Y-105855000D01*
X109420000Y-106250000D01*
X108630000Y-106420000D01*
X108010000Y-106320000D01*
X107440000Y-106120000D01*
X106970000Y-105840000D01*
X106570000Y-105400000D01*
X106270000Y-104570000D01*
X106050000Y-103930000D01*
X105900000Y-103180000D01*
X105840000Y-102310000D01*
X105850000Y-101580000D01*
X106000000Y-100730000D01*
X106090000Y-100070000D01*
X106230000Y-99480000D01*
X106320000Y-99300000D01*
X107420000Y-99005000D01*
X108770000Y-98700000D01*
X109820000Y-98400000D01*
X110630000Y-98210000D01*
X110860000Y-98180000D01*
X110910000Y-98190000D01*
G37*
X112680000Y-97990000D02*
X113680000Y-98150000D01*
X114830000Y-98400000D01*
X115520000Y-98580000D01*
X115800000Y-99250000D01*
X115970000Y-100100000D01*
X116110000Y-100830000D01*
X116180000Y-101800000D01*
X116170000Y-103150000D01*
X116150000Y-103590000D01*
X116070000Y-104300000D01*
X115930000Y-104750000D01*
X115630000Y-105290000D01*
X115290000Y-105720000D01*
X114910000Y-106020000D01*
X114530000Y-106210000D01*
X113950000Y-106290000D01*
X113360000Y-106260000D01*
X112800000Y-106100000D01*
X112320000Y-105840000D01*
X111920000Y-105460000D01*
X111650000Y-105000000D01*
X111570000Y-104630000D01*
X111560000Y-104060000D01*
X111600000Y-103450000D01*
X111680000Y-102430000D01*
X111700000Y-100930000D01*
X111675000Y-100040000D01*
X111580000Y-99110000D01*
X111490000Y-98260000D01*
X111470000Y-98030000D01*
X112220000Y-97980000D01*
X112680000Y-97990000D01*
G36*
X112680000Y-97990000D02*
G01*
X113680000Y-98150000D01*
X114830000Y-98400000D01*
X115520000Y-98580000D01*
X115800000Y-99250000D01*
X115970000Y-100100000D01*
X116110000Y-100830000D01*
X116180000Y-101800000D01*
X116170000Y-103150000D01*
X116150000Y-103590000D01*
X116070000Y-104300000D01*
X115930000Y-104750000D01*
X115630000Y-105290000D01*
X115290000Y-105720000D01*
X114910000Y-106020000D01*
X114530000Y-106210000D01*
X113950000Y-106290000D01*
X113360000Y-106260000D01*
X112800000Y-106100000D01*
X112320000Y-105840000D01*
X111920000Y-105460000D01*
X111650000Y-105000000D01*
X111570000Y-104630000D01*
X111560000Y-104060000D01*
X111600000Y-103450000D01*
X111680000Y-102430000D01*
X111700000Y-100930000D01*
X111675000Y-100040000D01*
X111580000Y-99110000D01*
X111490000Y-98260000D01*
X111470000Y-98030000D01*
X112220000Y-97980000D01*
X112680000Y-97990000D01*
G37*
X103750000Y-42970000D02*
X103280000Y-43060000D01*
X102810000Y-43320000D01*
X102470000Y-43680000D01*
X102280000Y-44030000D01*
X102140000Y-44540000D01*
X102150000Y-44850000D01*
X102210000Y-45170000D01*
X102350000Y-45530000D01*
X102590000Y-45870000D01*
X102970000Y-46190000D01*
X103320000Y-46350000D01*
X103620000Y-46430000D01*
X103900000Y-46450000D01*
X103890000Y-46860000D01*
X103570000Y-46840000D01*
X103120000Y-46760000D01*
X102220000Y-46450000D01*
X101400000Y-45990000D01*
X100670000Y-45380000D01*
X100310000Y-44990000D01*
X99840000Y-44270000D01*
X99490000Y-43490000D01*
X99290000Y-42610000D01*
X99240000Y-41790000D01*
X99340000Y-40960000D01*
X99580000Y-40130000D01*
X99960000Y-39350000D01*
X100460000Y-38690000D01*
X101010000Y-38160000D01*
X101870000Y-37560000D01*
X102750000Y-37190000D01*
X103430000Y-37050000D01*
X103680000Y-37020000D01*
X103750000Y-42970000D01*
G36*
X103750000Y-42970000D02*
G01*
X103280000Y-43060000D01*
X102810000Y-43320000D01*
X102470000Y-43680000D01*
X102280000Y-44030000D01*
X102140000Y-44540000D01*
X102150000Y-44850000D01*
X102210000Y-45170000D01*
X102350000Y-45530000D01*
X102590000Y-45870000D01*
X102970000Y-46190000D01*
X103320000Y-46350000D01*
X103620000Y-46430000D01*
X103900000Y-46450000D01*
X103890000Y-46860000D01*
X103570000Y-46840000D01*
X103120000Y-46760000D01*
X102220000Y-46450000D01*
X101400000Y-45990000D01*
X100670000Y-45380000D01*
X100310000Y-44990000D01*
X99840000Y-44270000D01*
X99490000Y-43490000D01*
X99290000Y-42610000D01*
X99240000Y-41790000D01*
X99340000Y-40960000D01*
X99580000Y-40130000D01*
X99960000Y-39350000D01*
X100460000Y-38690000D01*
X101010000Y-38160000D01*
X101870000Y-37560000D01*
X102750000Y-37190000D01*
X103430000Y-37050000D01*
X103680000Y-37020000D01*
X103750000Y-42970000D01*
G37*
X117200000Y-42540000D02*
X116790000Y-42610000D01*
X116230000Y-42850000D01*
X115860000Y-43180000D01*
X115550000Y-43670000D01*
X115460000Y-44160000D01*
X115450000Y-44510000D01*
X115540000Y-44860000D01*
X115690000Y-45200000D01*
X115950000Y-45540000D01*
X116230000Y-45760000D01*
X116650000Y-45980000D01*
X117140000Y-46060000D01*
X117130000Y-46320000D01*
X117100000Y-46300000D01*
X116670000Y-46240000D01*
X116270000Y-46190000D01*
X115400000Y-45890000D01*
X114600000Y-45420000D01*
X113900000Y-44790000D01*
X113520000Y-44380000D01*
X113030000Y-43610000D01*
X112700000Y-42820000D01*
X112520000Y-41930000D01*
X112490000Y-41080000D01*
X112660000Y-40180000D01*
X112920000Y-39400000D01*
X112950000Y-39300000D01*
X113590000Y-38280000D01*
X114240000Y-37590000D01*
X114990000Y-37060000D01*
X115620000Y-36780000D01*
X115880000Y-36660000D01*
X116170000Y-36580000D01*
X116810000Y-36480000D01*
X117260000Y-36470000D01*
X117200000Y-42540000D01*
G36*
X117200000Y-42540000D02*
G01*
X116790000Y-42610000D01*
X116230000Y-42850000D01*
X115860000Y-43180000D01*
X115550000Y-43670000D01*
X115460000Y-44160000D01*
X115450000Y-44510000D01*
X115540000Y-44860000D01*
X115690000Y-45200000D01*
X115950000Y-45540000D01*
X116230000Y-45760000D01*
X116650000Y-45980000D01*
X117140000Y-46060000D01*
X117130000Y-46320000D01*
X117100000Y-46300000D01*
X116670000Y-46240000D01*
X116270000Y-46190000D01*
X115400000Y-45890000D01*
X114600000Y-45420000D01*
X113900000Y-44790000D01*
X113520000Y-44380000D01*
X113030000Y-43610000D01*
X112700000Y-42820000D01*
X112520000Y-41930000D01*
X112490000Y-41080000D01*
X112660000Y-40180000D01*
X112920000Y-39400000D01*
X112950000Y-39300000D01*
X113590000Y-38280000D01*
X114240000Y-37590000D01*
X114990000Y-37060000D01*
X115620000Y-36780000D01*
X115880000Y-36660000D01*
X116170000Y-36580000D01*
X116810000Y-36480000D01*
X117260000Y-36470000D01*
X117200000Y-42540000D01*
G37*
X105490000Y-37190000D02*
X106440000Y-37560000D01*
X107170000Y-38050000D01*
X107770000Y-38650000D01*
X108250000Y-39160000D01*
X108550000Y-39690000D01*
X108770000Y-40200000D01*
X108980000Y-41010000D01*
X109060000Y-41460000D01*
X109090000Y-41950000D01*
X109010000Y-42870000D01*
X108710000Y-43770000D01*
X108320000Y-44530000D01*
X107770000Y-45250000D01*
X107140000Y-45820000D01*
X106320000Y-46340000D01*
X105470000Y-46690000D01*
X104990000Y-46780000D01*
X104670000Y-46820000D01*
X104330000Y-46850000D01*
X103940000Y-46860000D01*
X103940000Y-46460000D01*
X104200000Y-46430000D01*
X104670000Y-46270000D01*
X105090000Y-45980000D01*
X105430000Y-45540000D01*
X105570000Y-45230000D01*
X105650000Y-44730000D01*
X105590000Y-44230000D01*
X105420000Y-43820000D01*
X105230000Y-43550000D01*
X104830000Y-43210000D01*
X104370000Y-42945000D01*
X103270000Y-42875000D01*
X103340000Y-42290000D01*
X103660000Y-37015000D01*
X104620000Y-37005000D01*
X105490000Y-37190000D01*
G36*
X105490000Y-37190000D02*
G01*
X106440000Y-37560000D01*
X107170000Y-38050000D01*
X107770000Y-38650000D01*
X108250000Y-39160000D01*
X108550000Y-39690000D01*
X108770000Y-40200000D01*
X108980000Y-41010000D01*
X109060000Y-41460000D01*
X109090000Y-41950000D01*
X109010000Y-42870000D01*
X108710000Y-43770000D01*
X108320000Y-44530000D01*
X107770000Y-45250000D01*
X107140000Y-45820000D01*
X106320000Y-46340000D01*
X105470000Y-46690000D01*
X104990000Y-46780000D01*
X104670000Y-46820000D01*
X104330000Y-46850000D01*
X103940000Y-46860000D01*
X103940000Y-46460000D01*
X104200000Y-46430000D01*
X104670000Y-46270000D01*
X105090000Y-45980000D01*
X105430000Y-45540000D01*
X105570000Y-45230000D01*
X105650000Y-44730000D01*
X105590000Y-44230000D01*
X105420000Y-43820000D01*
X105230000Y-43550000D01*
X104830000Y-43210000D01*
X104370000Y-42945000D01*
X103270000Y-42875000D01*
X103340000Y-42290000D01*
X103660000Y-37015000D01*
X104620000Y-37005000D01*
X105490000Y-37190000D01*
G37*
X96480000Y-67310000D02*
X97150000Y-67420000D01*
X98877500Y-67842500D01*
X100702500Y-68657500D01*
X102025000Y-69515000D01*
X103060000Y-70360000D01*
X104110000Y-71440000D01*
X105070000Y-72680000D01*
X105660000Y-73760000D01*
X106300000Y-75130000D01*
X106720000Y-76550000D01*
X106990000Y-77940000D01*
X107050000Y-79420000D01*
X106980000Y-80720000D01*
X106730000Y-82140000D01*
X105870000Y-84520000D01*
X105110000Y-85770000D01*
X104280000Y-86940000D01*
X103490000Y-87810000D01*
X102430000Y-88730000D01*
X101270000Y-89550000D01*
X100100000Y-90180000D01*
X98770000Y-90690000D01*
X97410000Y-91080000D01*
X95710000Y-91260000D01*
X94620000Y-91290000D01*
X94110000Y-91270000D01*
X93600000Y-91230000D01*
X93100000Y-91160000D01*
X91960000Y-90910000D01*
X90940000Y-90590000D01*
X89870000Y-90160000D01*
X88910000Y-89650000D01*
X87690000Y-88800000D01*
X86550000Y-87790000D01*
X85630000Y-86780000D01*
X84810000Y-85630000D01*
X84130000Y-84370000D01*
X83600000Y-83070000D01*
X83230000Y-81700000D01*
X83040000Y-80360000D01*
X83000000Y-78980000D01*
X83120000Y-77590000D01*
X83440000Y-76100000D01*
X83920000Y-74660000D01*
X92310000Y-74710000D01*
X92860000Y-75250000D01*
X93580000Y-75710000D01*
X94450000Y-76030000D01*
X94980000Y-76130000D01*
X95540000Y-76160000D01*
X96180000Y-76100000D01*
X96860000Y-75930000D01*
X97440000Y-75670000D01*
X98160000Y-75180000D01*
X98840000Y-74490000D01*
X99210000Y-73890000D01*
X99460000Y-73240000D01*
X99650000Y-72150000D01*
X99610000Y-71380000D01*
X99380000Y-70550000D01*
X99070000Y-69840000D01*
X98490000Y-69120000D01*
X97830000Y-68560000D01*
X96580000Y-68000000D01*
X96390000Y-67930000D01*
X96040000Y-67870000D01*
X95650000Y-67850000D01*
X95630000Y-67840000D01*
X95620000Y-67250000D01*
X96480000Y-67310000D01*
G36*
X96480000Y-67310000D02*
G01*
X97150000Y-67420000D01*
X98877500Y-67842500D01*
X100702500Y-68657500D01*
X102025000Y-69515000D01*
X103060000Y-70360000D01*
X104110000Y-71440000D01*
X105070000Y-72680000D01*
X105660000Y-73760000D01*
X106300000Y-75130000D01*
X106720000Y-76550000D01*
X106990000Y-77940000D01*
X107050000Y-79420000D01*
X106980000Y-80720000D01*
X106730000Y-82140000D01*
X105870000Y-84520000D01*
X105110000Y-85770000D01*
X104280000Y-86940000D01*
X103490000Y-87810000D01*
X102430000Y-88730000D01*
X101270000Y-89550000D01*
X100100000Y-90180000D01*
X98770000Y-90690000D01*
X97410000Y-91080000D01*
X95710000Y-91260000D01*
X94620000Y-91290000D01*
X94110000Y-91270000D01*
X93600000Y-91230000D01*
X93100000Y-91160000D01*
X91960000Y-90910000D01*
X90940000Y-90590000D01*
X89870000Y-90160000D01*
X88910000Y-89650000D01*
X87690000Y-88800000D01*
X86550000Y-87790000D01*
X85630000Y-86780000D01*
X84810000Y-85630000D01*
X84130000Y-84370000D01*
X83600000Y-83070000D01*
X83230000Y-81700000D01*
X83040000Y-80360000D01*
X83000000Y-78980000D01*
X83120000Y-77590000D01*
X83440000Y-76100000D01*
X83920000Y-74660000D01*
X92310000Y-74710000D01*
X92860000Y-75250000D01*
X93580000Y-75710000D01*
X94450000Y-76030000D01*
X94980000Y-76130000D01*
X95540000Y-76160000D01*
X96180000Y-76100000D01*
X96860000Y-75930000D01*
X97440000Y-75670000D01*
X98160000Y-75180000D01*
X98840000Y-74490000D01*
X99210000Y-73890000D01*
X99460000Y-73240000D01*
X99650000Y-72150000D01*
X99610000Y-71380000D01*
X99380000Y-70550000D01*
X99070000Y-69840000D01*
X98490000Y-69120000D01*
X97830000Y-68560000D01*
X96580000Y-68000000D01*
X96390000Y-67930000D01*
X96040000Y-67870000D01*
X95650000Y-67850000D01*
X95630000Y-67840000D01*
X95620000Y-67250000D01*
X96480000Y-67310000D01*
G37*
X127840000Y-66050000D02*
X129240000Y-66310000D01*
X130470000Y-66700000D01*
X131840000Y-67360000D01*
X133170000Y-68210000D01*
X134460000Y-69230000D01*
X135400000Y-70310000D01*
X136300000Y-71500000D01*
X136930000Y-72630000D01*
X137480000Y-73960000D01*
X137890000Y-75330000D01*
X138150000Y-76770000D01*
X138200000Y-78120000D01*
X138140000Y-79390000D01*
X137870000Y-80820000D01*
X137490000Y-82060000D01*
X136930000Y-83340000D01*
X136260000Y-84510000D01*
X135650000Y-85340000D01*
X134350000Y-86770000D01*
X133290000Y-87650000D01*
X132200000Y-88370000D01*
X131030000Y-88960000D01*
X129530000Y-89500000D01*
X127800000Y-89890000D01*
X126630000Y-89940000D01*
X125470000Y-89930000D01*
X124660000Y-89890000D01*
X124060000Y-89800000D01*
X122230000Y-89320000D01*
X120890000Y-88770000D01*
X119870000Y-88210000D01*
X118520000Y-87230000D01*
X117500000Y-86250000D01*
X116680000Y-85320000D01*
X115820000Y-84080000D01*
X115190000Y-82810000D01*
X114660000Y-81460000D01*
X114342500Y-80080000D01*
X114177500Y-78940000D01*
X114195000Y-76960000D01*
X114340000Y-75740000D01*
X114560000Y-74820000D01*
X115070000Y-73420000D01*
X115470000Y-72450000D01*
X116410000Y-70890000D01*
X122770000Y-70970000D01*
X122820000Y-71750000D01*
X123060000Y-72560000D01*
X123340000Y-73130000D01*
X123840000Y-73800000D01*
X124490000Y-74390000D01*
X125110000Y-74740000D01*
X125710000Y-74970000D01*
X126330000Y-75130000D01*
X126900000Y-75150000D01*
X127290000Y-75160000D01*
X127960000Y-75020000D01*
X128550000Y-74840000D01*
X128980000Y-74610000D01*
X129530000Y-74240000D01*
X129790000Y-74020000D01*
X130140000Y-73640000D01*
X130460000Y-73190000D01*
X130610000Y-72910000D01*
X130890000Y-72230000D01*
X131020000Y-71700000D01*
X131090000Y-71030000D01*
X131030000Y-70300000D01*
X130800000Y-69470000D01*
X130580000Y-69010000D01*
X130130000Y-68340000D01*
X129630000Y-67830000D01*
X128860000Y-67330000D01*
X128020000Y-66980000D01*
X127390000Y-66880000D01*
X127010000Y-66840000D01*
X126980000Y-66000000D01*
X127840000Y-66050000D01*
G36*
X127840000Y-66050000D02*
G01*
X129240000Y-66310000D01*
X130470000Y-66700000D01*
X131840000Y-67360000D01*
X133170000Y-68210000D01*
X134460000Y-69230000D01*
X135400000Y-70310000D01*
X136300000Y-71500000D01*
X136930000Y-72630000D01*
X137480000Y-73960000D01*
X137890000Y-75330000D01*
X138150000Y-76770000D01*
X138200000Y-78120000D01*
X138140000Y-79390000D01*
X137870000Y-80820000D01*
X137490000Y-82060000D01*
X136930000Y-83340000D01*
X136260000Y-84510000D01*
X135650000Y-85340000D01*
X134350000Y-86770000D01*
X133290000Y-87650000D01*
X132200000Y-88370000D01*
X131030000Y-88960000D01*
X129530000Y-89500000D01*
X127800000Y-89890000D01*
X126630000Y-89940000D01*
X125470000Y-89930000D01*
X124660000Y-89890000D01*
X124060000Y-89800000D01*
X122230000Y-89320000D01*
X120890000Y-88770000D01*
X119870000Y-88210000D01*
X118520000Y-87230000D01*
X117500000Y-86250000D01*
X116680000Y-85320000D01*
X115820000Y-84080000D01*
X115190000Y-82810000D01*
X114660000Y-81460000D01*
X114342500Y-80080000D01*
X114177500Y-78940000D01*
X114195000Y-76960000D01*
X114340000Y-75740000D01*
X114560000Y-74820000D01*
X115070000Y-73420000D01*
X115470000Y-72450000D01*
X116410000Y-70890000D01*
X122770000Y-70970000D01*
X122820000Y-71750000D01*
X123060000Y-72560000D01*
X123340000Y-73130000D01*
X123840000Y-73800000D01*
X124490000Y-74390000D01*
X125110000Y-74740000D01*
X125710000Y-74970000D01*
X126330000Y-75130000D01*
X126900000Y-75150000D01*
X127290000Y-75160000D01*
X127960000Y-75020000D01*
X128550000Y-74840000D01*
X128980000Y-74610000D01*
X129530000Y-74240000D01*
X129790000Y-74020000D01*
X130140000Y-73640000D01*
X130460000Y-73190000D01*
X130610000Y-72910000D01*
X130890000Y-72230000D01*
X131020000Y-71700000D01*
X131090000Y-71030000D01*
X131030000Y-70300000D01*
X130800000Y-69470000D01*
X130580000Y-69010000D01*
X130130000Y-68340000D01*
X129630000Y-67830000D01*
X128860000Y-67330000D01*
X128020000Y-66980000D01*
X127390000Y-66880000D01*
X127010000Y-66840000D01*
X126980000Y-66000000D01*
X127840000Y-66050000D01*
G37*
D11*
X95150000Y-163300000D02*
X95150000Y-164800000D01*
X96400000Y-167300000D02*
X100900000Y-167300000D01*
X100900000Y-160800000D02*
X96400000Y-160800000D01*
X102150000Y-164800000D02*
X102150000Y-163300000D01*
X136050000Y-167500000D02*
X136050000Y-169000000D01*
X137300000Y-171500000D02*
X141800000Y-171500000D01*
X141800000Y-165000000D02*
X137300000Y-165000000D01*
X143050000Y-169000000D02*
X143050000Y-167500000D01*
X133600000Y-138399999D02*
G75*
G02*
X133600000Y-135400000I6400000J1499999D01*
G01*
X146230000Y-136900000D02*
G75*
G02*
X133770000Y-136900000I-6230000J0D01*
G01*
X133770000Y-136900000D02*
G75*
G02*
X146230000Y-136900000I6230000J0D01*
G01*
M02*
