G04 #@! TF.GenerationSoftware,KiCad,Pcbnew,8.0.5-8.0.5-0~ubuntu24.04.1*
G04 #@! TF.CreationDate,2024-09-29T10:35:15+09:00*
G04 #@! TF.ProjectId,gopher_bird_rp2040_sw,676f7068-6572-45f6-9269-72645f727032,rev?*
G04 #@! TF.SameCoordinates,Original*
G04 #@! TF.FileFunction,Copper,L2,Bot*
G04 #@! TF.FilePolarity,Positive*
%FSLAX46Y46*%
G04 Gerber Fmt 4.6, Leading zero omitted, Abs format (unit mm)*
G04 Created by KiCad (PCBNEW 8.0.5-8.0.5-0~ubuntu24.04.1) date 2024-09-29 10:35:15*
%MOMM*%
%LPD*%
G01*
G04 APERTURE LIST*
G04 Aperture macros list*
%AMRoundRect*
0 Rectangle with rounded corners*
0 $1 Rounding radius*
0 $2 $3 $4 $5 $6 $7 $8 $9 X,Y pos of 4 corners*
0 Add a 4 corners polygon primitive as box body*
4,1,4,$2,$3,$4,$5,$6,$7,$8,$9,$2,$3,0*
0 Add four circle primitives for the rounded corners*
1,1,$1+$1,$2,$3*
1,1,$1+$1,$4,$5*
1,1,$1+$1,$6,$7*
1,1,$1+$1,$8,$9*
0 Add four rect primitives between the rounded corners*
20,1,$1+$1,$2,$3,$4,$5,0*
20,1,$1+$1,$4,$5,$6,$7,0*
20,1,$1+$1,$6,$7,$8,$9,0*
20,1,$1+$1,$8,$9,$2,$3,0*%
G04 Aperture macros list end*
%ADD10C,0.300000*%
G04 #@! TA.AperFunction,NonConductor*
%ADD11C,0.300000*%
G04 #@! TD*
G04 #@! TA.AperFunction,ComponentPad*
%ADD12O,1.700000X1.700000*%
G04 #@! TD*
G04 #@! TA.AperFunction,ComponentPad*
%ADD13O,1.600000X2.000000*%
G04 #@! TD*
G04 #@! TA.AperFunction,ComponentPad*
%ADD14C,2.000000*%
G04 #@! TD*
G04 #@! TA.AperFunction,ComponentPad*
%ADD15R,1.350000X1.350000*%
G04 #@! TD*
G04 #@! TA.AperFunction,ComponentPad*
%ADD16O,1.350000X1.350000*%
G04 #@! TD*
G04 #@! TA.AperFunction,ComponentPad*
%ADD17R,2.000000X2.000000*%
G04 #@! TD*
G04 #@! TA.AperFunction,SMDPad,CuDef*
%ADD18RoundRect,0.243750X0.243750X0.456250X-0.243750X0.456250X-0.243750X-0.456250X0.243750X-0.456250X0*%
G04 #@! TD*
G04 #@! TA.AperFunction,ViaPad*
%ADD19C,0.600000*%
G04 #@! TD*
G04 #@! TA.AperFunction,Conductor*
%ADD20C,0.250000*%
G04 #@! TD*
G04 #@! TA.AperFunction,Conductor*
%ADD21C,0.600000*%
G04 #@! TD*
G04 APERTURE END LIST*
D10*
D11*
X118416917Y-64800828D02*
X118416917Y-65872257D01*
X118416917Y-65872257D02*
X118488346Y-66086542D01*
X118488346Y-66086542D02*
X118631203Y-66229400D01*
X118631203Y-66229400D02*
X118845489Y-66300828D01*
X118845489Y-66300828D02*
X118988346Y-66300828D01*
X116988346Y-66300828D02*
X117702632Y-66300828D01*
X117702632Y-66300828D02*
X117702632Y-64800828D01*
X115631203Y-66157971D02*
X115702631Y-66229400D01*
X115702631Y-66229400D02*
X115916917Y-66300828D01*
X115916917Y-66300828D02*
X116059774Y-66300828D01*
X116059774Y-66300828D02*
X116274060Y-66229400D01*
X116274060Y-66229400D02*
X116416917Y-66086542D01*
X116416917Y-66086542D02*
X116488346Y-65943685D01*
X116488346Y-65943685D02*
X116559774Y-65657971D01*
X116559774Y-65657971D02*
X116559774Y-65443685D01*
X116559774Y-65443685D02*
X116488346Y-65157971D01*
X116488346Y-65157971D02*
X116416917Y-65015114D01*
X116416917Y-65015114D02*
X116274060Y-64872257D01*
X116274060Y-64872257D02*
X116059774Y-64800828D01*
X116059774Y-64800828D02*
X115916917Y-64800828D01*
X115916917Y-64800828D02*
X115702631Y-64872257D01*
X115702631Y-64872257D02*
X115631203Y-64943685D01*
X114559774Y-64800828D02*
X114559774Y-65872257D01*
X114559774Y-65872257D02*
X114631203Y-66086542D01*
X114631203Y-66086542D02*
X114774060Y-66229400D01*
X114774060Y-66229400D02*
X114988346Y-66300828D01*
X114988346Y-66300828D02*
X115131203Y-66300828D01*
X113131203Y-66300828D02*
X113845489Y-66300828D01*
X113845489Y-66300828D02*
X113845489Y-64800828D01*
X111774060Y-66157971D02*
X111845488Y-66229400D01*
X111845488Y-66229400D02*
X112059774Y-66300828D01*
X112059774Y-66300828D02*
X112202631Y-66300828D01*
X112202631Y-66300828D02*
X112416917Y-66229400D01*
X112416917Y-66229400D02*
X112559774Y-66086542D01*
X112559774Y-66086542D02*
X112631203Y-65943685D01*
X112631203Y-65943685D02*
X112702631Y-65657971D01*
X112702631Y-65657971D02*
X112702631Y-65443685D01*
X112702631Y-65443685D02*
X112631203Y-65157971D01*
X112631203Y-65157971D02*
X112559774Y-65015114D01*
X112559774Y-65015114D02*
X112416917Y-64872257D01*
X112416917Y-64872257D02*
X112202631Y-64800828D01*
X112202631Y-64800828D02*
X112059774Y-64800828D01*
X112059774Y-64800828D02*
X111845488Y-64872257D01*
X111845488Y-64872257D02*
X111774060Y-64943685D01*
X110702631Y-64800828D02*
X110702631Y-65872257D01*
X110702631Y-65872257D02*
X110774060Y-66086542D01*
X110774060Y-66086542D02*
X110916917Y-66229400D01*
X110916917Y-66229400D02*
X111131203Y-66300828D01*
X111131203Y-66300828D02*
X111274060Y-66300828D01*
X109274060Y-66300828D02*
X109988346Y-66300828D01*
X109988346Y-66300828D02*
X109988346Y-64800828D01*
X107916917Y-66157971D02*
X107988345Y-66229400D01*
X107988345Y-66229400D02*
X108202631Y-66300828D01*
X108202631Y-66300828D02*
X108345488Y-66300828D01*
X108345488Y-66300828D02*
X108559774Y-66229400D01*
X108559774Y-66229400D02*
X108702631Y-66086542D01*
X108702631Y-66086542D02*
X108774060Y-65943685D01*
X108774060Y-65943685D02*
X108845488Y-65657971D01*
X108845488Y-65657971D02*
X108845488Y-65443685D01*
X108845488Y-65443685D02*
X108774060Y-65157971D01*
X108774060Y-65157971D02*
X108702631Y-65015114D01*
X108702631Y-65015114D02*
X108559774Y-64872257D01*
X108559774Y-64872257D02*
X108345488Y-64800828D01*
X108345488Y-64800828D02*
X108202631Y-64800828D01*
X108202631Y-64800828D02*
X107988345Y-64872257D01*
X107988345Y-64872257D02*
X107916917Y-64943685D01*
X106845488Y-64800828D02*
X106845488Y-65872257D01*
X106845488Y-65872257D02*
X106916917Y-66086542D01*
X106916917Y-66086542D02*
X107059774Y-66229400D01*
X107059774Y-66229400D02*
X107274060Y-66300828D01*
X107274060Y-66300828D02*
X107416917Y-66300828D01*
X105416917Y-66300828D02*
X106131203Y-66300828D01*
X106131203Y-66300828D02*
X106131203Y-64800828D01*
X104059774Y-66157971D02*
X104131202Y-66229400D01*
X104131202Y-66229400D02*
X104345488Y-66300828D01*
X104345488Y-66300828D02*
X104488345Y-66300828D01*
X104488345Y-66300828D02*
X104702631Y-66229400D01*
X104702631Y-66229400D02*
X104845488Y-66086542D01*
X104845488Y-66086542D02*
X104916917Y-65943685D01*
X104916917Y-65943685D02*
X104988345Y-65657971D01*
X104988345Y-65657971D02*
X104988345Y-65443685D01*
X104988345Y-65443685D02*
X104916917Y-65157971D01*
X104916917Y-65157971D02*
X104845488Y-65015114D01*
X104845488Y-65015114D02*
X104702631Y-64872257D01*
X104702631Y-64872257D02*
X104488345Y-64800828D01*
X104488345Y-64800828D02*
X104345488Y-64800828D01*
X104345488Y-64800828D02*
X104131202Y-64872257D01*
X104131202Y-64872257D02*
X104059774Y-64943685D01*
D12*
X110660000Y-175900000D03*
X110660000Y-173360000D03*
X110660000Y-170820000D03*
X110660000Y-168280000D03*
X110660000Y-165740000D03*
X110660000Y-163200000D03*
X110660000Y-160660000D03*
X110660000Y-158120000D03*
X110660000Y-155580000D03*
X113200000Y-155580000D03*
X115740000Y-155580000D03*
X118280000Y-155580000D03*
X120820000Y-155580000D03*
X123360000Y-155580000D03*
X125900000Y-155580000D03*
X125900000Y-158120000D03*
X125900000Y-160660000D03*
X125900000Y-163200000D03*
X125900000Y-165740000D03*
X125900000Y-168280000D03*
X125900000Y-170820000D03*
X125900000Y-173360000D03*
X125900000Y-175900000D03*
D13*
X109180000Y-118600000D03*
X111720000Y-118600000D03*
X114260000Y-118600000D03*
X116800000Y-118600000D03*
D14*
X131900000Y-154100000D03*
X138400000Y-154100000D03*
X131900000Y-158600000D03*
X138400000Y-158600000D03*
X79800000Y-160700000D03*
X86300000Y-160700000D03*
X79800000Y-165200000D03*
X86300000Y-165200000D03*
X88600000Y-170600000D03*
X95100000Y-170600000D03*
X88600000Y-175100000D03*
X95100000Y-175100000D03*
D15*
X83100000Y-138000000D03*
D16*
X83100000Y-140000000D03*
X83100000Y-142000000D03*
X83100000Y-144000000D03*
D14*
X88600000Y-151000000D03*
X95100000Y-151000000D03*
X88600000Y-155500000D03*
X95100000Y-155500000D03*
X96600000Y-160700000D03*
X103100000Y-160700000D03*
X96600000Y-165200000D03*
X103100000Y-165200000D03*
X137500000Y-164900000D03*
X144000000Y-164900000D03*
X137500000Y-169400000D03*
X144000000Y-169400000D03*
D17*
X138700000Y-135800000D03*
D14*
X143700000Y-135800000D03*
D18*
X111900000Y-69400000D03*
X110025000Y-69400000D03*
D19*
X103200000Y-126400000D03*
X111900000Y-166900000D03*
X124100000Y-133500000D03*
X130100000Y-74800000D03*
X97000000Y-74000000D03*
X99900000Y-160700000D03*
X125200000Y-71400000D03*
X93700000Y-72300000D03*
X96800000Y-70800000D03*
X128300000Y-69700000D03*
X96000000Y-73200000D03*
X135600000Y-155400000D03*
X129700000Y-166700000D03*
X131900000Y-165300000D03*
D20*
X135100000Y-162500000D02*
X137500000Y-164900000D01*
D21*
X97900000Y-76800000D02*
X97000000Y-75900000D01*
X121200000Y-76800000D02*
X97900000Y-76800000D01*
D20*
X138400000Y-154100000D02*
X143700000Y-148800000D01*
X137500000Y-164900000D02*
X130200000Y-172200000D01*
X130200000Y-172200000D02*
X130200000Y-175500000D01*
X110015000Y-166915000D02*
X111885000Y-166915000D01*
X108100000Y-165200000D02*
X109800000Y-166900000D01*
X110000000Y-166900000D02*
X110015000Y-166915000D01*
D21*
X123200000Y-74800000D02*
X130100000Y-74800000D01*
X116900000Y-114500000D02*
X112000000Y-114500000D01*
D20*
X135100000Y-157300000D02*
X135100000Y-162500000D01*
X86300000Y-165200000D02*
X94700000Y-165200000D01*
X122185000Y-177075000D02*
X125900000Y-173360000D01*
D21*
X97000000Y-75900000D02*
X97000000Y-74000000D01*
X112000000Y-114500000D02*
X109180000Y-117320000D01*
D20*
X130200000Y-175500000D02*
X127500000Y-178200000D01*
X103100000Y-165200000D02*
X108100000Y-165200000D01*
X111885000Y-166915000D02*
X111900000Y-166900000D01*
X127500000Y-178200000D02*
X123310000Y-178200000D01*
X94700000Y-165200000D02*
X96600000Y-165200000D01*
D21*
X109180000Y-117320000D02*
X109180000Y-118600000D01*
D20*
X97075000Y-177075000D02*
X122185000Y-177075000D01*
X95100000Y-155500000D02*
X99900000Y-160300000D01*
D21*
X127250000Y-136650000D02*
X127250000Y-172010000D01*
X103200000Y-126400000D02*
X103200000Y-128400000D01*
X103200000Y-128400000D02*
X93600000Y-138000000D01*
D20*
X109800000Y-166900000D02*
X110000000Y-166900000D01*
X95100000Y-175100000D02*
X97075000Y-177075000D01*
X123310000Y-178200000D02*
X122185000Y-177075000D01*
D21*
X122100000Y-75900000D02*
X123200000Y-74800000D01*
X121200000Y-81000000D02*
X121200000Y-76800000D01*
X121200000Y-76800000D02*
X122100000Y-75900000D01*
D20*
X131900000Y-154100000D02*
X135100000Y-157300000D01*
D21*
X127250000Y-172010000D02*
X125900000Y-173360000D01*
D20*
X143700000Y-148800000D02*
X143700000Y-135800000D01*
D21*
X121200000Y-110200000D02*
X116900000Y-114500000D01*
X121200000Y-81000000D02*
X121200000Y-110200000D01*
X124100000Y-133500000D02*
X127250000Y-136650000D01*
D20*
X99900000Y-160300000D02*
X99900000Y-160700000D01*
D21*
X93600000Y-138000000D02*
X83100000Y-138000000D01*
X90300000Y-74100000D02*
X92100000Y-72300000D01*
X111720000Y-118820000D02*
X111720000Y-118600000D01*
X128600000Y-173200000D02*
X125900000Y-175900000D01*
X90300000Y-114600000D02*
X99320000Y-123620000D01*
X92100000Y-72300000D02*
X93700000Y-72300000D01*
X122700000Y-72300000D02*
X123600000Y-71400000D01*
X90300000Y-81200000D02*
X90300000Y-74100000D01*
X93700000Y-72300000D02*
X122700000Y-72300000D01*
X106700000Y-123620000D02*
X111720000Y-118600000D01*
X106700000Y-130600000D02*
X97300000Y-140000000D01*
X90300000Y-114600000D02*
X90300000Y-81200000D01*
X111720000Y-118600000D02*
X114520000Y-115800000D01*
X123600000Y-71400000D02*
X125200000Y-71400000D01*
X97300000Y-140000000D02*
X83100000Y-140000000D01*
X117600000Y-115800000D02*
X128600000Y-126800000D01*
X99320000Y-123620000D02*
X106700000Y-123620000D01*
X106700000Y-123620000D02*
X106700000Y-130600000D01*
X128600000Y-126800000D02*
X128600000Y-173200000D01*
X114520000Y-115800000D02*
X117600000Y-115800000D01*
D20*
X97500000Y-69400000D02*
X97000000Y-69900000D01*
X97000000Y-69900000D02*
X96800000Y-70100000D01*
X97700000Y-69400000D02*
X97500000Y-69400000D01*
X110025000Y-69400000D02*
X97700000Y-69400000D01*
X96800000Y-70100000D02*
X96800000Y-70800000D01*
X128300000Y-72700000D02*
X128300000Y-69700000D01*
X96000000Y-73200000D02*
X123600000Y-73200000D01*
X123600000Y-73200000D02*
X124100000Y-73700000D01*
X127300000Y-73700000D02*
X127500000Y-73500000D01*
X124100000Y-73700000D02*
X127300000Y-73700000D01*
X127500000Y-73500000D02*
X128300000Y-72700000D01*
X116915000Y-169645000D02*
X110660000Y-175900000D01*
X116915000Y-154285001D02*
X116915000Y-169645000D01*
X119368346Y-121168346D02*
X119368346Y-151831655D01*
X119368346Y-151831655D02*
X116915000Y-154285001D01*
X116800000Y-118600000D02*
X119368346Y-121168346D01*
X114565000Y-153035000D02*
X114565000Y-169455000D01*
X114260000Y-149600000D02*
X114260000Y-149640000D01*
X114260000Y-152660000D02*
X114600000Y-153000000D01*
X110660000Y-173360000D02*
X114565000Y-169455000D01*
X114260000Y-118600000D02*
X114260000Y-149500000D01*
X114600000Y-153000000D02*
X114565000Y-153035000D01*
X114260000Y-149500000D02*
X114260000Y-149600000D01*
X114260000Y-149500000D02*
X114260000Y-152660000D01*
X81300000Y-165173833D02*
X89126167Y-173000000D01*
X95400000Y-173000000D02*
X97580000Y-170820000D01*
X81300000Y-143800000D02*
X81300000Y-165173833D01*
X83100000Y-142000000D02*
X81300000Y-143800000D01*
X89126167Y-173000000D02*
X95400000Y-173000000D01*
X97580000Y-170820000D02*
X110660000Y-170820000D01*
X82300000Y-163073833D02*
X82300000Y-144800000D01*
X87506167Y-168280000D02*
X110660000Y-168280000D01*
X82300000Y-144800000D02*
X83100000Y-144000000D01*
X82300000Y-163073833D02*
X87506167Y-168280000D01*
X135600000Y-155400000D02*
X135800000Y-155200000D01*
X135800000Y-155200000D02*
X135800000Y-149400000D01*
X138700000Y-146500000D02*
X138700000Y-135800000D01*
X135800000Y-149400000D02*
X138700000Y-146500000D01*
X132300000Y-75400000D02*
X132300000Y-68400000D01*
X122200000Y-67500000D02*
X120300000Y-69400000D01*
X132300000Y-68400000D02*
X131400000Y-67500000D01*
X120300000Y-69400000D02*
X111900000Y-69400000D01*
X129700000Y-78000000D02*
X132300000Y-75400000D01*
X131400000Y-67500000D02*
X122200000Y-67500000D01*
X129700000Y-166700000D02*
X129700000Y-78000000D01*
X111121701Y-162000000D02*
X111900000Y-162778299D01*
X101700000Y-161500000D02*
X102400000Y-162200000D01*
X102400000Y-162200000D02*
X109808299Y-162200000D01*
X110008299Y-162000000D02*
X111121701Y-162000000D01*
X95100000Y-151000000D02*
X101700000Y-157600000D01*
X111900000Y-164500000D02*
X110660000Y-165740000D01*
X109808299Y-162200000D02*
X110008299Y-162000000D01*
X101700000Y-157600000D02*
X101700000Y-161500000D01*
X111900000Y-162778299D02*
X111900000Y-164500000D01*
X88800000Y-163200000D02*
X86300000Y-160700000D01*
X110660000Y-163200000D02*
X88800000Y-163200000D01*
X111100000Y-169600000D02*
X112900000Y-167800000D01*
X96100000Y-169600000D02*
X111100000Y-169600000D01*
X112900000Y-161600000D02*
X111960000Y-160660000D01*
X95100000Y-170600000D02*
X96100000Y-169600000D01*
X111960000Y-160660000D02*
X110660000Y-160660000D01*
X112900000Y-167800000D02*
X112900000Y-161600000D01*
X110660000Y-158120000D02*
X105680000Y-158120000D01*
X105680000Y-158120000D02*
X103100000Y-160700000D01*
X131900000Y-165300000D02*
X131900000Y-158600000D01*
G04 #@! TA.AperFunction,Conductor*
G36*
X109505203Y-176624943D02*
G01*
X109527804Y-176650829D01*
X109584278Y-176737268D01*
X109584283Y-176737273D01*
X109584284Y-176737276D01*
X109736756Y-176902902D01*
X109736760Y-176902906D01*
X109914424Y-177041189D01*
X109914425Y-177041189D01*
X109914427Y-177041191D01*
X110041135Y-177109761D01*
X110112426Y-177148342D01*
X110218895Y-177184893D01*
X110325361Y-177221443D01*
X110325363Y-177221443D01*
X110325365Y-177221444D01*
X110466188Y-177244943D01*
X110479995Y-177247247D01*
X110542880Y-177277698D01*
X110579319Y-177337312D01*
X110577744Y-177407164D01*
X110538654Y-177465076D01*
X110474461Y-177492661D01*
X110460274Y-177493554D01*
X109424689Y-177499307D01*
X109357541Y-177479995D01*
X109311494Y-177427446D01*
X109300000Y-177375309D01*
X109300000Y-176718656D01*
X109319685Y-176651617D01*
X109372489Y-176605862D01*
X109441647Y-176595918D01*
X109505203Y-176624943D01*
G37*
G04 #@! TD.AperFunction*
G04 #@! TA.AperFunction,Conductor*
G36*
X124711905Y-156253515D02*
G01*
X124733804Y-156278787D01*
X124824278Y-156417268D01*
X124824283Y-156417273D01*
X124824284Y-156417276D01*
X124976756Y-156582902D01*
X124976760Y-156582906D01*
X125154424Y-156721189D01*
X125154429Y-156721191D01*
X125154431Y-156721193D01*
X125190930Y-156740946D01*
X125240520Y-156790165D01*
X125255628Y-156858382D01*
X125231457Y-156923937D01*
X125190930Y-156959054D01*
X125154431Y-156978806D01*
X125154422Y-156978812D01*
X124976761Y-157117092D01*
X124976756Y-157117097D01*
X124824284Y-157282723D01*
X124824276Y-157282734D01*
X124701140Y-157471207D01*
X124610703Y-157677385D01*
X124555436Y-157895628D01*
X124555434Y-157895640D01*
X124536844Y-158119994D01*
X124536844Y-158120005D01*
X124555434Y-158344359D01*
X124555436Y-158344371D01*
X124610703Y-158562614D01*
X124701140Y-158768792D01*
X124824276Y-158957265D01*
X124824284Y-158957276D01*
X124976756Y-159122902D01*
X124976760Y-159122906D01*
X125154424Y-159261189D01*
X125154429Y-159261191D01*
X125154431Y-159261193D01*
X125190930Y-159280946D01*
X125240520Y-159330165D01*
X125255628Y-159398382D01*
X125231457Y-159463937D01*
X125190930Y-159499054D01*
X125154431Y-159518806D01*
X125154422Y-159518812D01*
X124976761Y-159657092D01*
X124976756Y-159657097D01*
X124824284Y-159822723D01*
X124824276Y-159822734D01*
X124701140Y-160011207D01*
X124610703Y-160217385D01*
X124555436Y-160435628D01*
X124555434Y-160435640D01*
X124536844Y-160659994D01*
X124536844Y-160660005D01*
X124555434Y-160884359D01*
X124555436Y-160884371D01*
X124610703Y-161102614D01*
X124701140Y-161308792D01*
X124824276Y-161497265D01*
X124824284Y-161497276D01*
X124976756Y-161662902D01*
X124976760Y-161662906D01*
X125154424Y-161801189D01*
X125154429Y-161801191D01*
X125154431Y-161801193D01*
X125190930Y-161820946D01*
X125240520Y-161870165D01*
X125255628Y-161938382D01*
X125231457Y-162003937D01*
X125190930Y-162039054D01*
X125154431Y-162058806D01*
X125154422Y-162058812D01*
X124976761Y-162197092D01*
X124976756Y-162197097D01*
X124824284Y-162362723D01*
X124824276Y-162362734D01*
X124701140Y-162551207D01*
X124610703Y-162757385D01*
X124555436Y-162975628D01*
X124555434Y-162975640D01*
X124536844Y-163199994D01*
X124536844Y-163200005D01*
X124555434Y-163424359D01*
X124555436Y-163424371D01*
X124610703Y-163642614D01*
X124701140Y-163848792D01*
X124824276Y-164037265D01*
X124824284Y-164037276D01*
X124976756Y-164202902D01*
X124976760Y-164202906D01*
X125154424Y-164341189D01*
X125154429Y-164341191D01*
X125154431Y-164341193D01*
X125190930Y-164360946D01*
X125240520Y-164410165D01*
X125255628Y-164478382D01*
X125231457Y-164543937D01*
X125190930Y-164579054D01*
X125154431Y-164598806D01*
X125154422Y-164598812D01*
X124976761Y-164737092D01*
X124976756Y-164737097D01*
X124824284Y-164902723D01*
X124824276Y-164902734D01*
X124701140Y-165091207D01*
X124610703Y-165297385D01*
X124555436Y-165515628D01*
X124555434Y-165515640D01*
X124536844Y-165739994D01*
X124536844Y-165740005D01*
X124555434Y-165964359D01*
X124555436Y-165964371D01*
X124610703Y-166182614D01*
X124701140Y-166388792D01*
X124824276Y-166577265D01*
X124824284Y-166577276D01*
X124976756Y-166742902D01*
X124976760Y-166742906D01*
X125154424Y-166881189D01*
X125154429Y-166881191D01*
X125154431Y-166881193D01*
X125190930Y-166900946D01*
X125240520Y-166950165D01*
X125255628Y-167018382D01*
X125231457Y-167083937D01*
X125190930Y-167119054D01*
X125154431Y-167138806D01*
X125154422Y-167138812D01*
X124976761Y-167277092D01*
X124976756Y-167277097D01*
X124824284Y-167442723D01*
X124824276Y-167442734D01*
X124701140Y-167631207D01*
X124610703Y-167837385D01*
X124555436Y-168055628D01*
X124555434Y-168055640D01*
X124536844Y-168279994D01*
X124536844Y-168280005D01*
X124555434Y-168504359D01*
X124555436Y-168504371D01*
X124610703Y-168722614D01*
X124701140Y-168928792D01*
X124824276Y-169117265D01*
X124824284Y-169117276D01*
X124927056Y-169228914D01*
X124976760Y-169282906D01*
X125154424Y-169421189D01*
X125154429Y-169421191D01*
X125154431Y-169421193D01*
X125190930Y-169440946D01*
X125240520Y-169490165D01*
X125255628Y-169558382D01*
X125231457Y-169623937D01*
X125190930Y-169659054D01*
X125154431Y-169678806D01*
X125154422Y-169678812D01*
X124976761Y-169817092D01*
X124976756Y-169817097D01*
X124824284Y-169982723D01*
X124824276Y-169982734D01*
X124701140Y-170171207D01*
X124610703Y-170377385D01*
X124555436Y-170595628D01*
X124555434Y-170595640D01*
X124536844Y-170819994D01*
X124536844Y-170820005D01*
X124555434Y-171044359D01*
X124555436Y-171044371D01*
X124610703Y-171262614D01*
X124701140Y-171468792D01*
X124824276Y-171657265D01*
X124824284Y-171657276D01*
X124976756Y-171822902D01*
X124976760Y-171822906D01*
X125154424Y-171961189D01*
X125190932Y-171980946D01*
X125197695Y-171984606D01*
X125247286Y-172033825D01*
X125262394Y-172102042D01*
X125238224Y-172167597D01*
X125209802Y-172195236D01*
X125028922Y-172321890D01*
X125028920Y-172321891D01*
X124861891Y-172488920D01*
X124861886Y-172488926D01*
X124726400Y-172682420D01*
X124726399Y-172682422D01*
X124626570Y-172896507D01*
X124626567Y-172896513D01*
X124569364Y-173109999D01*
X124569364Y-173110000D01*
X125466988Y-173110000D01*
X125434075Y-173167007D01*
X125400000Y-173294174D01*
X125400000Y-173425826D01*
X125434075Y-173552993D01*
X125466988Y-173610000D01*
X124569364Y-173610000D01*
X124626567Y-173823486D01*
X124626570Y-173823492D01*
X124726399Y-174037578D01*
X124861894Y-174231082D01*
X125028917Y-174398105D01*
X125209802Y-174524763D01*
X125253427Y-174579340D01*
X125260619Y-174648839D01*
X125229097Y-174711193D01*
X125197697Y-174735392D01*
X125154427Y-174758809D01*
X125154422Y-174758812D01*
X124976761Y-174897092D01*
X124976756Y-174897097D01*
X124824284Y-175062723D01*
X124824276Y-175062734D01*
X124701140Y-175251207D01*
X124610703Y-175457385D01*
X124555436Y-175675628D01*
X124555434Y-175675640D01*
X124536844Y-175899994D01*
X124536844Y-175900005D01*
X124555434Y-176124359D01*
X124555436Y-176124371D01*
X124610703Y-176342614D01*
X124701140Y-176548792D01*
X124824276Y-176737265D01*
X124824284Y-176737276D01*
X124976756Y-176902902D01*
X124976760Y-176902906D01*
X125154424Y-177041189D01*
X125154425Y-177041189D01*
X125154427Y-177041191D01*
X125281135Y-177109761D01*
X125352426Y-177148342D01*
X125396504Y-177163474D01*
X125413821Y-177169419D01*
X125470837Y-177209804D01*
X125496968Y-177274603D01*
X125483917Y-177343243D01*
X125435828Y-177393931D01*
X125374248Y-177410698D01*
X110874907Y-177491250D01*
X110807759Y-177471938D01*
X110761712Y-177419389D01*
X110751384Y-177350287D01*
X110780055Y-177286571D01*
X110838623Y-177248471D01*
X110853800Y-177244944D01*
X110994635Y-177221444D01*
X111207574Y-177148342D01*
X111405576Y-177041189D01*
X111583240Y-176902906D01*
X111735722Y-176737268D01*
X111858860Y-176548791D01*
X111949296Y-176342616D01*
X112004564Y-176124368D01*
X112023156Y-175900000D01*
X112004564Y-175675632D01*
X111976538Y-175564960D01*
X111979163Y-175495140D01*
X112009061Y-175446841D01*
X117407071Y-170048833D01*
X117476400Y-169945075D01*
X117524155Y-169829785D01*
X117548500Y-169707394D01*
X117548500Y-169582606D01*
X117548500Y-156936905D01*
X117568185Y-156869866D01*
X117620989Y-156824111D01*
X117690147Y-156814167D01*
X117727606Y-156826557D01*
X117727728Y-156826281D01*
X117730664Y-156827569D01*
X117731521Y-156827852D01*
X117732426Y-156828342D01*
X117945365Y-156901444D01*
X118167431Y-156938500D01*
X118392569Y-156938500D01*
X118614635Y-156901444D01*
X118827574Y-156828342D01*
X119025576Y-156721189D01*
X119203240Y-156582906D01*
X119355722Y-156417268D01*
X119446193Y-156278790D01*
X119499338Y-156233437D01*
X119568569Y-156224013D01*
X119631905Y-156253515D01*
X119653804Y-156278787D01*
X119744278Y-156417268D01*
X119744283Y-156417273D01*
X119744284Y-156417276D01*
X119896756Y-156582902D01*
X119896760Y-156582906D01*
X120074424Y-156721189D01*
X120074425Y-156721189D01*
X120074427Y-156721191D01*
X120175824Y-156776064D01*
X120272426Y-156828342D01*
X120485365Y-156901444D01*
X120707431Y-156938500D01*
X120932569Y-156938500D01*
X121154635Y-156901444D01*
X121367574Y-156828342D01*
X121565576Y-156721189D01*
X121743240Y-156582906D01*
X121895722Y-156417268D01*
X121986193Y-156278790D01*
X122039338Y-156233437D01*
X122108569Y-156224013D01*
X122171905Y-156253515D01*
X122193804Y-156278787D01*
X122284278Y-156417268D01*
X122284283Y-156417273D01*
X122284284Y-156417276D01*
X122436756Y-156582902D01*
X122436760Y-156582906D01*
X122614424Y-156721189D01*
X122614425Y-156721189D01*
X122614427Y-156721191D01*
X122715824Y-156776064D01*
X122812426Y-156828342D01*
X123025365Y-156901444D01*
X123247431Y-156938500D01*
X123472569Y-156938500D01*
X123694635Y-156901444D01*
X123907574Y-156828342D01*
X124105576Y-156721189D01*
X124283240Y-156582906D01*
X124435722Y-156417268D01*
X124526193Y-156278790D01*
X124579338Y-156233437D01*
X124648569Y-156224013D01*
X124711905Y-156253515D01*
G37*
G04 #@! TD.AperFunction*
G04 #@! TA.AperFunction,Conductor*
G36*
X127257905Y-171484332D02*
G01*
X127295236Y-171543393D01*
X127300000Y-171577432D01*
X127300000Y-172612476D01*
X127280315Y-172679515D01*
X127227511Y-172725270D01*
X127158353Y-172735214D01*
X127094797Y-172706189D01*
X127074425Y-172683600D01*
X126938109Y-172488922D01*
X126938108Y-172488920D01*
X126771082Y-172321894D01*
X126590197Y-172195236D01*
X126546572Y-172140659D01*
X126539380Y-172071160D01*
X126570902Y-172008806D01*
X126602300Y-171984608D01*
X126645576Y-171961189D01*
X126823240Y-171822906D01*
X126975722Y-171657268D01*
X127072192Y-171509608D01*
X127125338Y-171464254D01*
X127194569Y-171454830D01*
X127257905Y-171484332D01*
G37*
G04 #@! TD.AperFunction*
G04 #@! TA.AperFunction,Conductor*
G36*
X127257905Y-168944332D02*
G01*
X127295236Y-169003393D01*
X127300000Y-169037432D01*
X127300000Y-170062567D01*
X127280315Y-170129606D01*
X127227511Y-170175361D01*
X127158353Y-170185305D01*
X127094797Y-170156280D01*
X127072192Y-170130389D01*
X126989508Y-170003833D01*
X126975722Y-169982732D01*
X126975719Y-169982729D01*
X126975715Y-169982723D01*
X126823243Y-169817097D01*
X126823238Y-169817092D01*
X126645577Y-169678812D01*
X126645578Y-169678812D01*
X126645576Y-169678811D01*
X126609070Y-169659055D01*
X126559479Y-169609836D01*
X126544371Y-169541619D01*
X126568541Y-169476064D01*
X126609070Y-169440945D01*
X126609084Y-169440936D01*
X126645576Y-169421189D01*
X126823240Y-169282906D01*
X126922614Y-169174957D01*
X126975715Y-169117276D01*
X126975715Y-169117275D01*
X126975722Y-169117268D01*
X127072192Y-168969608D01*
X127125338Y-168924254D01*
X127194569Y-168914830D01*
X127257905Y-168944332D01*
G37*
G04 #@! TD.AperFunction*
G04 #@! TA.AperFunction,Conductor*
G36*
X112185834Y-165212583D02*
G01*
X112241767Y-165254455D01*
X112266184Y-165319919D01*
X112266500Y-165328765D01*
X112266500Y-165678682D01*
X112247125Y-165744661D01*
X112263956Y-165776327D01*
X112266500Y-165801317D01*
X112266500Y-167486233D01*
X112246815Y-167553272D01*
X112230181Y-167573915D01*
X112082939Y-167721156D01*
X112021616Y-167754640D01*
X111951924Y-167749656D01*
X111895991Y-167707784D01*
X111881702Y-167683283D01*
X111858860Y-167631209D01*
X111827981Y-167583945D01*
X111735722Y-167442732D01*
X111735719Y-167442729D01*
X111735715Y-167442723D01*
X111583243Y-167277097D01*
X111583238Y-167277092D01*
X111405577Y-167138812D01*
X111405578Y-167138812D01*
X111405576Y-167138811D01*
X111369070Y-167119055D01*
X111319479Y-167069836D01*
X111304371Y-167001619D01*
X111328541Y-166936064D01*
X111369070Y-166900945D01*
X111369084Y-166900936D01*
X111405576Y-166881189D01*
X111583240Y-166742906D01*
X111735722Y-166577268D01*
X111858860Y-166388791D01*
X111949296Y-166182616D01*
X112004564Y-165964368D01*
X112018924Y-165791077D01*
X112039325Y-165738206D01*
X112023523Y-165713617D01*
X112018924Y-165688922D01*
X112004565Y-165515640D01*
X112004564Y-165515637D01*
X112004564Y-165515632D01*
X111976538Y-165404960D01*
X111979163Y-165335141D01*
X112009063Y-165286840D01*
X112054819Y-165241084D01*
X112116142Y-165207599D01*
X112185834Y-165212583D01*
G37*
G04 #@! TD.AperFunction*
G04 #@! TA.AperFunction,Conductor*
G36*
X127257905Y-166404332D02*
G01*
X127295236Y-166463393D01*
X127300000Y-166497432D01*
X127300000Y-167522567D01*
X127280315Y-167589606D01*
X127227511Y-167635361D01*
X127158353Y-167645305D01*
X127094797Y-167616280D01*
X127072192Y-167590389D01*
X126975723Y-167442734D01*
X126975715Y-167442723D01*
X126823243Y-167277097D01*
X126823238Y-167277092D01*
X126645577Y-167138812D01*
X126645578Y-167138812D01*
X126645576Y-167138811D01*
X126609070Y-167119055D01*
X126559479Y-167069836D01*
X126544371Y-167001619D01*
X126568541Y-166936064D01*
X126609070Y-166900945D01*
X126609084Y-166900936D01*
X126645576Y-166881189D01*
X126823240Y-166742906D01*
X126975722Y-166577268D01*
X127072192Y-166429608D01*
X127125338Y-166384254D01*
X127194569Y-166374830D01*
X127257905Y-166404332D01*
G37*
G04 #@! TD.AperFunction*
G04 #@! TA.AperFunction,Conductor*
G36*
X109505203Y-166464943D02*
G01*
X109527804Y-166490829D01*
X109584278Y-166577268D01*
X109584283Y-166577273D01*
X109584284Y-166577276D01*
X109736756Y-166742902D01*
X109736760Y-166742906D01*
X109914424Y-166881189D01*
X109914429Y-166881191D01*
X109914431Y-166881193D01*
X109950930Y-166900946D01*
X110000520Y-166950165D01*
X110015628Y-167018382D01*
X109991457Y-167083937D01*
X109950930Y-167119054D01*
X109914431Y-167138806D01*
X109914422Y-167138812D01*
X109736761Y-167277092D01*
X109736756Y-167277097D01*
X109584284Y-167442723D01*
X109584276Y-167442734D01*
X109527808Y-167529165D01*
X109474662Y-167574522D01*
X109405430Y-167583945D01*
X109342095Y-167554443D01*
X109304763Y-167495382D01*
X109300000Y-167461343D01*
X109300000Y-166558656D01*
X109319685Y-166491617D01*
X109372489Y-166445862D01*
X109441647Y-166435918D01*
X109505203Y-166464943D01*
G37*
G04 #@! TD.AperFunction*
G04 #@! TA.AperFunction,Conductor*
G36*
X127257905Y-163864332D02*
G01*
X127295236Y-163923393D01*
X127300000Y-163957432D01*
X127300000Y-164982567D01*
X127280315Y-165049606D01*
X127227511Y-165095361D01*
X127158353Y-165105305D01*
X127094797Y-165076280D01*
X127072192Y-165050389D01*
X126975723Y-164902734D01*
X126975715Y-164902723D01*
X126823243Y-164737097D01*
X126823238Y-164737092D01*
X126645577Y-164598812D01*
X126645578Y-164598812D01*
X126645576Y-164598811D01*
X126609070Y-164579055D01*
X126559479Y-164529836D01*
X126544371Y-164461619D01*
X126568541Y-164396064D01*
X126609070Y-164360945D01*
X126609084Y-164360936D01*
X126645576Y-164341189D01*
X126823240Y-164202906D01*
X126975722Y-164037268D01*
X127072192Y-163889608D01*
X127125338Y-163844254D01*
X127194569Y-163834830D01*
X127257905Y-163864332D01*
G37*
G04 #@! TD.AperFunction*
G04 #@! TA.AperFunction,Conductor*
G36*
X127257905Y-161324332D02*
G01*
X127295236Y-161383393D01*
X127300000Y-161417432D01*
X127300000Y-162442567D01*
X127280315Y-162509606D01*
X127227511Y-162555361D01*
X127158353Y-162565305D01*
X127094797Y-162536280D01*
X127072192Y-162510389D01*
X126975723Y-162362734D01*
X126975715Y-162362723D01*
X126823243Y-162197097D01*
X126823238Y-162197092D01*
X126645577Y-162058812D01*
X126645578Y-162058812D01*
X126645576Y-162058811D01*
X126609070Y-162039055D01*
X126559479Y-161989836D01*
X126544371Y-161921619D01*
X126568541Y-161856064D01*
X126609070Y-161820945D01*
X126609084Y-161820936D01*
X126645576Y-161801189D01*
X126823240Y-161662906D01*
X126975722Y-161497268D01*
X127072192Y-161349608D01*
X127125338Y-161304254D01*
X127194569Y-161294830D01*
X127257905Y-161324332D01*
G37*
G04 #@! TD.AperFunction*
G04 #@! TA.AperFunction,Conductor*
G36*
X127257905Y-158784332D02*
G01*
X127295236Y-158843393D01*
X127300000Y-158877432D01*
X127300000Y-159902567D01*
X127280315Y-159969606D01*
X127227511Y-160015361D01*
X127158353Y-160025305D01*
X127094797Y-159996280D01*
X127072192Y-159970389D01*
X126975723Y-159822734D01*
X126975715Y-159822723D01*
X126823243Y-159657097D01*
X126823238Y-159657092D01*
X126645577Y-159518812D01*
X126645578Y-159518812D01*
X126645576Y-159518811D01*
X126609070Y-159499055D01*
X126559479Y-159449836D01*
X126544371Y-159381619D01*
X126568541Y-159316064D01*
X126609070Y-159280945D01*
X126609084Y-159280936D01*
X126645576Y-159261189D01*
X126823240Y-159122906D01*
X126975722Y-158957268D01*
X127072192Y-158809608D01*
X127125338Y-158764254D01*
X127194569Y-158754830D01*
X127257905Y-158784332D01*
G37*
G04 #@! TD.AperFunction*
G04 #@! TA.AperFunction,Conductor*
G36*
X127257905Y-156244332D02*
G01*
X127295236Y-156303393D01*
X127300000Y-156337432D01*
X127300000Y-157362567D01*
X127280315Y-157429606D01*
X127227511Y-157475361D01*
X127158353Y-157485305D01*
X127094797Y-157456280D01*
X127072192Y-157430389D01*
X126975723Y-157282734D01*
X126975715Y-157282723D01*
X126823243Y-157117097D01*
X126823238Y-157117092D01*
X126645577Y-156978812D01*
X126645578Y-156978812D01*
X126645576Y-156978811D01*
X126609070Y-156959055D01*
X126559479Y-156909836D01*
X126544371Y-156841619D01*
X126568541Y-156776064D01*
X126609070Y-156740945D01*
X126609084Y-156740936D01*
X126645576Y-156721189D01*
X126823240Y-156582906D01*
X126975722Y-156417268D01*
X127072192Y-156269608D01*
X127125338Y-156224254D01*
X127194569Y-156214830D01*
X127257905Y-156244332D01*
G37*
G04 #@! TD.AperFunction*
G04 #@! TA.AperFunction,Conductor*
G36*
X127243039Y-154019685D02*
G01*
X127288794Y-154072489D01*
X127300000Y-154124000D01*
X127300000Y-154822567D01*
X127280315Y-154889606D01*
X127227511Y-154935361D01*
X127158353Y-154945305D01*
X127094797Y-154916280D01*
X127072192Y-154890389D01*
X126975723Y-154742734D01*
X126975715Y-154742723D01*
X126823243Y-154577097D01*
X126823238Y-154577092D01*
X126645577Y-154438812D01*
X126645572Y-154438808D01*
X126447580Y-154331661D01*
X126447577Y-154331659D01*
X126447574Y-154331658D01*
X126447571Y-154331657D01*
X126447569Y-154331656D01*
X126234637Y-154258556D01*
X126161243Y-154246309D01*
X126098357Y-154215859D01*
X126061918Y-154156244D01*
X126063493Y-154086392D01*
X126102583Y-154028480D01*
X126166776Y-154000896D01*
X126181652Y-154000000D01*
X127176000Y-154000000D01*
X127243039Y-154019685D01*
G37*
G04 #@! TD.AperFunction*
M02*
