G04 #@! TF.GenerationSoftware,KiCad,Pcbnew,8.0.5-8.0.5-0~ubuntu24.04.1*
G04 #@! TF.CreationDate,2024-09-29T10:35:15+09:00*
G04 #@! TF.ProjectId,gopher_bird_rp2040_sw,676f7068-6572-45f6-9269-72645f727032,rev?*
G04 #@! TF.SameCoordinates,Original*
G04 #@! TF.FileFunction,Profile,NP*
%FSLAX46Y46*%
G04 Gerber Fmt 4.6, Leading zero omitted, Abs format (unit mm)*
G04 Created by KiCad (PCBNEW 8.0.5-8.0.5-0~ubuntu24.04.1) date 2024-09-29 10:35:15*
%MOMM*%
%LPD*%
G01*
G04 APERTURE LIST*
G04 #@! TA.AperFunction,Profile*
%ADD10C,0.120000*%
G04 #@! TD*
G04 APERTURE END LIST*
D10*
X63620000Y-130070000D02*
X63680000Y-129460000D01*
X63680000Y-129460000D02*
X63900000Y-128840000D01*
X63710000Y-130620000D02*
X63620000Y-130070000D01*
X63850000Y-130890000D02*
X63710000Y-130620000D01*
X63900000Y-128840000D02*
X64300000Y-128200000D01*
X64110000Y-131230000D02*
X63850000Y-130890000D01*
X64300000Y-128200000D02*
X64810000Y-127570000D01*
X64360000Y-131510000D02*
X64110000Y-131230000D01*
X64640000Y-131720000D02*
X64360000Y-131510000D01*
X64810000Y-127570000D02*
X65460000Y-126930000D01*
X64830000Y-75970000D02*
X64940000Y-74760000D01*
X64890000Y-77140000D02*
X64830000Y-75970000D01*
X64900000Y-131860000D02*
X64640000Y-131720000D01*
X64940000Y-74760000D02*
X65140000Y-73880000D01*
X65000000Y-131970000D02*
X64900000Y-131860000D01*
X65140000Y-73880000D02*
X65590000Y-72740000D01*
X65170000Y-78450000D02*
X64890000Y-77140000D01*
X65210000Y-132470000D02*
X65000000Y-131970000D01*
X65450000Y-79400000D02*
X65170000Y-78450000D01*
X65460000Y-126930000D02*
X66060000Y-126460000D01*
X65500000Y-132910000D02*
X65210000Y-132470000D01*
X65590000Y-72740000D02*
X65990000Y-72000000D01*
X65910000Y-133260000D02*
X65500000Y-132910000D01*
X65940000Y-80470000D02*
X65450000Y-79400000D01*
X65990000Y-72000000D02*
X66170000Y-71680000D01*
X66060000Y-126460000D02*
X67090000Y-125810000D01*
X66170000Y-71680000D02*
X67240000Y-70350000D01*
X66480000Y-133500000D02*
X65910000Y-133260000D01*
X66530000Y-81450000D02*
X65940000Y-80470000D01*
X66960000Y-133580000D02*
X66480000Y-133500000D01*
X67090000Y-125810000D02*
X67680000Y-125480000D01*
X67240000Y-70350000D02*
X67810000Y-69790000D01*
X67280000Y-82430000D02*
X66530000Y-81450000D01*
X67550000Y-133560000D02*
X66960000Y-133580000D01*
X67680000Y-125480000D02*
X68380000Y-125160000D01*
X67810000Y-69790000D02*
X68710000Y-68990000D01*
X68100000Y-83200000D02*
X67280000Y-82430000D01*
X68240000Y-133370000D02*
X67550000Y-133560000D01*
X68380000Y-125160000D02*
X69120000Y-124870000D01*
X68710000Y-68990000D02*
X69670000Y-68320000D01*
X68840000Y-133130000D02*
X68240000Y-133370000D01*
X69060000Y-83940000D02*
X68100000Y-83200000D01*
X69120000Y-124870000D02*
X70070000Y-124610000D01*
X69290000Y-132880000D02*
X68840000Y-133130000D01*
X69670000Y-68320000D02*
X70790000Y-67700000D01*
X69980000Y-84430000D02*
X69060000Y-83940000D01*
X70070000Y-124610000D02*
X71070000Y-124480000D01*
X70440000Y-84630000D02*
X69980000Y-84430000D01*
X70760000Y-131990000D02*
X69290000Y-132880000D01*
X70790000Y-67700000D02*
X71550000Y-67370000D01*
X71070000Y-124480000D02*
X72140000Y-124430000D01*
X71280000Y-104470000D02*
X71290000Y-102550000D01*
X71280000Y-105640000D02*
X71280000Y-104470000D01*
X71290000Y-102550000D02*
X71310000Y-98330000D01*
X71310000Y-98330000D02*
X71390000Y-96410000D01*
X71320000Y-107280000D02*
X71280000Y-105640000D01*
X71340000Y-108760000D02*
X71320000Y-107280000D01*
X71390000Y-96410000D02*
X71710000Y-93420000D01*
X71450000Y-84930000D02*
X70440000Y-84630000D01*
X71490000Y-112060000D02*
X71340000Y-108760000D01*
X71520000Y-154050000D02*
X71540000Y-152760000D01*
X71520000Y-155280000D02*
X71520000Y-154050000D01*
X71520000Y-156510000D02*
X71520000Y-155280000D01*
X71540000Y-152760000D02*
X71580000Y-150660000D01*
X71540000Y-157490000D02*
X71520000Y-156510000D01*
X71550000Y-67370000D02*
X72290000Y-67110000D01*
X71580000Y-113940000D02*
X71490000Y-112060000D01*
X71580000Y-150660000D02*
X71650000Y-148890000D01*
X71580000Y-158460000D02*
X71540000Y-157490000D01*
X71650000Y-148890000D02*
X71720000Y-147850000D01*
X71700000Y-131270000D02*
X70760000Y-131990000D01*
X71710000Y-93420000D02*
X72110000Y-90490000D01*
X71710000Y-160230000D02*
X71580000Y-158460000D01*
X71720000Y-147850000D02*
X71850000Y-145780000D01*
X71770000Y-117370000D02*
X71580000Y-113940000D01*
X71850000Y-145780000D02*
X72040000Y-143180000D01*
X71880000Y-161660000D02*
X71710000Y-160230000D01*
X71940000Y-120020000D02*
X71770000Y-117370000D01*
X72040000Y-143180000D02*
X72250000Y-139820000D01*
X72060000Y-122300000D02*
X71940000Y-120020000D01*
X72110000Y-90490000D02*
X72730000Y-87190000D01*
X72140000Y-124430000D02*
X72160000Y-123760000D01*
X72160000Y-123760000D02*
X72060000Y-122300000D01*
X72220000Y-163840000D02*
X71880000Y-161660000D01*
X72250000Y-139820000D02*
X72390000Y-137330000D01*
X72280000Y-85110000D02*
X71450000Y-84930000D01*
X72290000Y-67110000D02*
X73230000Y-66870000D01*
X72390000Y-137330000D02*
X72410000Y-135030000D01*
X72400000Y-133350000D02*
X72410000Y-131680000D01*
X72410000Y-131680000D02*
X72450000Y-130590000D01*
X72410000Y-135030000D02*
X72400000Y-133350000D01*
X72450000Y-130590000D02*
X71700000Y-131270000D01*
X72730000Y-87190000D02*
X72960000Y-86180000D01*
X72740000Y-166270000D02*
X72220000Y-163840000D01*
X72850000Y-85170000D02*
X72280000Y-85110000D01*
X72960000Y-86180000D02*
X73170000Y-85230000D01*
X73170000Y-85230000D02*
X72850000Y-85170000D01*
X73230000Y-66870000D02*
X74570000Y-66700000D01*
X73340000Y-168380000D02*
X72740000Y-166270000D01*
X74140000Y-170570000D02*
X73340000Y-168380000D01*
X74570000Y-66700000D02*
X76210000Y-66680000D01*
X75110000Y-172730000D02*
X74140000Y-170570000D01*
X75340000Y-187810000D02*
X75390000Y-186940000D01*
X75390000Y-186940000D02*
X75460000Y-186690000D01*
X75430000Y-188440000D02*
X75340000Y-187810000D01*
X75460000Y-186690000D02*
X75770000Y-185990000D01*
X75670000Y-189040000D02*
X75430000Y-188440000D01*
X75770000Y-185990000D02*
X76210000Y-185290000D01*
X75970000Y-189470000D02*
X75670000Y-189040000D01*
X76160000Y-174650000D02*
X75110000Y-172730000D01*
X76210000Y-66680000D02*
X77030000Y-66690000D01*
X76210000Y-185290000D02*
X76780000Y-184590000D01*
X76480000Y-190080000D02*
X75970000Y-189470000D01*
X76780000Y-184590000D02*
X77610000Y-183780000D01*
X76840000Y-190400000D02*
X76480000Y-190080000D01*
X77030000Y-66690000D02*
X78050000Y-66730000D01*
X77060000Y-190600000D02*
X76840000Y-190400000D01*
X77330000Y-176510000D02*
X76160000Y-174650000D01*
X77610000Y-183780000D02*
X78450000Y-183070000D01*
X77690000Y-191000000D02*
X77060000Y-190600000D01*
X78050000Y-66730000D02*
X78940000Y-66860000D01*
X78260000Y-191260000D02*
X77690000Y-191000000D01*
X78450000Y-183070000D02*
X79000000Y-182670000D01*
X78480000Y-178070000D02*
X77330000Y-176510000D01*
X78490000Y-191330000D02*
X78260000Y-191260000D01*
X78930000Y-191370000D02*
X78490000Y-191330000D01*
X78940000Y-66860000D02*
X79660000Y-67020000D01*
X79000000Y-182670000D02*
X79530000Y-182290000D01*
X79480000Y-191370000D02*
X78930000Y-191370000D01*
X79530000Y-182290000D02*
X80330000Y-181780000D01*
X79660000Y-67020000D02*
X80380000Y-67300000D01*
X79690000Y-179580000D02*
X78480000Y-178070000D01*
X80110000Y-191340000D02*
X79480000Y-191370000D01*
X80330000Y-181780000D02*
X80830000Y-181470000D01*
X80380000Y-67300000D02*
X80950000Y-67610000D01*
X80470000Y-180490000D02*
X79690000Y-179580000D01*
X80510000Y-191250000D02*
X80110000Y-191340000D01*
X80830000Y-181470000D02*
X81110000Y-181280000D01*
X80950000Y-67610000D02*
X81400000Y-68020000D01*
X81110000Y-181280000D02*
X80470000Y-180490000D01*
X81400000Y-68020000D02*
X81980000Y-68660000D01*
X81690000Y-190840000D02*
X80510000Y-191250000D01*
X81980000Y-68660000D02*
X82040000Y-68710000D01*
X82040000Y-68710000D02*
X83300000Y-67520000D01*
X82980000Y-190120000D02*
X81690000Y-190840000D01*
X83300000Y-67520000D02*
X84330000Y-66690000D01*
X84330000Y-66690000D02*
X85160000Y-66070000D01*
X84460000Y-189100000D02*
X82980000Y-190120000D01*
X85160000Y-66070000D02*
X86570000Y-65100000D01*
X85640000Y-188270000D02*
X84460000Y-189100000D01*
X86570000Y-65100000D02*
X87590000Y-64470000D01*
X87030000Y-187310000D02*
X85640000Y-188270000D01*
X87590000Y-64470000D02*
X88600000Y-63900000D01*
X88120000Y-186660000D02*
X87030000Y-187310000D01*
X88530000Y-60510000D02*
X88640000Y-60080000D01*
X88590000Y-61580000D02*
X88530000Y-60510000D01*
X88600000Y-63900000D02*
X89540000Y-63420000D01*
X88640000Y-60080000D02*
X88900000Y-59390000D01*
X88890000Y-62260000D02*
X88590000Y-61580000D01*
X88900000Y-59390000D02*
X89360000Y-58560000D01*
X88970000Y-186240000D02*
X88120000Y-186660000D01*
X89070000Y-39080000D02*
X89160000Y-37720000D01*
X89070000Y-40630000D02*
X89070000Y-39080000D01*
X89070000Y-41460000D02*
X89070000Y-40630000D01*
X89130000Y-186380000D02*
X88970000Y-186240000D01*
X89160000Y-37720000D02*
X89320000Y-36640000D01*
X89160000Y-42560000D02*
X89070000Y-41460000D01*
X89230000Y-62790000D02*
X88890000Y-62260000D01*
X89320000Y-36640000D02*
X89620000Y-35140000D01*
X89320000Y-43670000D02*
X89160000Y-42560000D01*
X89360000Y-58560000D02*
X89990000Y-57800000D01*
X89540000Y-63420000D02*
X89640000Y-63350000D01*
X89620000Y-35140000D02*
X90190000Y-33270000D01*
X89640000Y-63350000D02*
X89230000Y-62790000D01*
X89670000Y-45230000D02*
X89320000Y-43670000D01*
X89790000Y-186760000D02*
X89130000Y-186380000D01*
X89990000Y-57800000D02*
X90470000Y-57340000D01*
X90160000Y-47010000D02*
X89670000Y-45230000D01*
X90190000Y-33270000D02*
X90830000Y-31600000D01*
X90470000Y-57340000D02*
X91500000Y-56470000D01*
X90590000Y-48080000D02*
X90160000Y-47010000D01*
X90820000Y-187300000D02*
X89790000Y-186760000D01*
X90830000Y-31600000D02*
X91690000Y-29830000D01*
X91000000Y-49000000D02*
X90590000Y-48080000D01*
X91500000Y-56470000D02*
X92200000Y-55910000D01*
X91610000Y-187660000D02*
X90820000Y-187300000D01*
X91690000Y-29830000D02*
X92830000Y-28060000D01*
X91910000Y-50730000D02*
X91000000Y-49000000D01*
X92200000Y-55910000D02*
X92850000Y-55460000D01*
X92380000Y-51510000D02*
X91910000Y-50730000D01*
X92830000Y-28060000D02*
X94180000Y-26310000D01*
X92850000Y-55460000D02*
X93580000Y-54970000D01*
X93170000Y-52690000D02*
X92380000Y-51510000D01*
X93580000Y-54970000D02*
X94470000Y-54420000D01*
X94030000Y-53820000D02*
X93170000Y-52690000D01*
X94100000Y-188650000D02*
X91610000Y-187660000D01*
X94180000Y-26310000D02*
X95590000Y-24770000D01*
X94470000Y-54420000D02*
X94540000Y-54390000D01*
X94540000Y-54390000D02*
X94030000Y-53820000D01*
X95520000Y-189100000D02*
X94100000Y-188650000D01*
X95590000Y-24770000D02*
X97280000Y-23300000D01*
X96550000Y-189330000D02*
X95520000Y-189100000D01*
X97280000Y-23300000D02*
X99030000Y-22040000D01*
X98660000Y-189750000D02*
X96550000Y-189330000D01*
X99030000Y-22040000D02*
X100580000Y-21130000D01*
X100050000Y-189960000D02*
X98660000Y-189750000D01*
X100580000Y-21130000D02*
X102380000Y-20280000D01*
X101090000Y-190080000D02*
X100050000Y-189960000D01*
X102380000Y-20280000D02*
X104240000Y-19570000D01*
X103210000Y-190170000D02*
X101090000Y-190080000D01*
X104240000Y-19570000D02*
X106290000Y-19030000D01*
X105110000Y-190210000D02*
X103210000Y-190170000D01*
X106290000Y-19030000D02*
X108570000Y-18630000D01*
X108550000Y-190170000D02*
X105110000Y-190210000D01*
X108570000Y-18630000D02*
X109780000Y-18560000D01*
X109780000Y-18560000D02*
X112120000Y-18550000D01*
X110920000Y-190070000D02*
X108550000Y-190170000D01*
X112120000Y-18550000D02*
X115130000Y-18850000D01*
X112480000Y-189950000D02*
X110920000Y-190070000D01*
X115130000Y-18850000D02*
X116080000Y-19030000D01*
X115680000Y-189620000D02*
X112480000Y-189950000D01*
X116080000Y-19030000D02*
X118060000Y-19570000D01*
X118060000Y-19570000D02*
X119850000Y-20240000D01*
X119110000Y-189180000D02*
X115680000Y-189620000D01*
X119850000Y-20240000D02*
X121390000Y-20970000D01*
X121390000Y-20970000D02*
X121840000Y-21170000D01*
X121830000Y-188750000D02*
X119110000Y-189180000D01*
X121840000Y-21170000D02*
X123370000Y-22090000D01*
X123370000Y-22090000D02*
X125020000Y-23250000D01*
X124900000Y-188250000D02*
X121830000Y-188750000D01*
X125020000Y-23250000D02*
X126270000Y-24330000D01*
X126270000Y-24330000D02*
X127050000Y-25070000D01*
X127050000Y-25070000D02*
X128210000Y-26330000D01*
X127710000Y-187810000D02*
X124900000Y-188250000D01*
X128210000Y-26330000D02*
X129450000Y-27920000D01*
X128430000Y-53780000D02*
X128660000Y-53850000D01*
X128570000Y-53550000D02*
X128430000Y-53780000D01*
X128660000Y-53850000D02*
X129290000Y-54130000D01*
X128880000Y-53150000D02*
X128570000Y-53550000D01*
X129290000Y-54130000D02*
X130120000Y-54640000D01*
X129450000Y-27920000D02*
X130480000Y-29530000D01*
X129620000Y-187460000D02*
X127710000Y-187810000D01*
X129630000Y-52060000D02*
X128880000Y-53150000D01*
X130120000Y-54640000D02*
X130380000Y-54850000D01*
X130380000Y-54850000D02*
X131080000Y-55490000D01*
X130480000Y-29530000D02*
X131340000Y-31220000D01*
X130560000Y-187270000D02*
X129620000Y-187460000D01*
X131030000Y-49720000D02*
X129630000Y-52060000D01*
X131080000Y-55490000D02*
X131610000Y-56150000D01*
X131340000Y-31220000D02*
X131810000Y-32320000D01*
X131610000Y-56150000D02*
X132250000Y-57100000D01*
X131810000Y-32320000D02*
X132470000Y-34300000D01*
X131840000Y-186960000D02*
X130560000Y-187270000D01*
X131990000Y-47490000D02*
X131030000Y-49720000D01*
X132250000Y-57100000D02*
X132760000Y-58100000D01*
X132350000Y-46420000D02*
X131990000Y-47490000D01*
X132470000Y-34300000D02*
X132780000Y-35330000D01*
X132560000Y-186770000D02*
X131840000Y-186960000D01*
X132580000Y-45640000D02*
X132350000Y-46420000D01*
X132760000Y-58100000D02*
X132930000Y-58530000D01*
X132780000Y-35330000D02*
X133110000Y-37000000D01*
X132900000Y-44310000D02*
X132580000Y-45640000D01*
X132930000Y-58530000D02*
X133210000Y-59250000D01*
X133070000Y-43280000D02*
X132900000Y-44310000D01*
X133110000Y-37000000D02*
X133210000Y-37980000D01*
X133210000Y-37980000D02*
X133290000Y-39840000D01*
X133210000Y-59250000D02*
X133400000Y-59940000D01*
X133260000Y-41850000D02*
X133070000Y-43280000D01*
X133290000Y-39840000D02*
X133260000Y-41850000D01*
X133400000Y-59940000D02*
X133500000Y-61020000D01*
X133420000Y-62530000D02*
X133460000Y-62550000D01*
X133450000Y-62360000D02*
X133420000Y-62530000D01*
X133460000Y-62550000D02*
X133700000Y-62520000D01*
X133500000Y-61020000D02*
X133520000Y-61700000D01*
X133500000Y-62050000D02*
X133450000Y-62360000D01*
X133520000Y-61700000D02*
X133500000Y-62050000D01*
X133700000Y-62520000D02*
X133930000Y-62560000D01*
X133930000Y-62560000D02*
X134190000Y-62660000D01*
X134170000Y-186240000D02*
X132560000Y-186770000D01*
X134190000Y-62660000D02*
X134600000Y-62870000D01*
X134600000Y-62870000D02*
X135700000Y-63460000D01*
X135500000Y-185670000D02*
X134170000Y-186240000D01*
X135700000Y-63460000D02*
X136770000Y-64100000D01*
X136770000Y-64100000D02*
X138220000Y-65060000D01*
X137080000Y-184860000D02*
X135500000Y-185670000D01*
X137200000Y-184870000D02*
X137080000Y-184860000D01*
X137360000Y-184960000D02*
X137200000Y-184870000D01*
X137770000Y-185300000D02*
X137360000Y-184960000D01*
X138220000Y-65060000D02*
X139030000Y-65620000D01*
X138390000Y-185880000D02*
X137770000Y-185300000D01*
X139030000Y-65620000D02*
X139720000Y-66150000D01*
X139390000Y-186880000D02*
X138390000Y-185880000D01*
X139720000Y-66150000D02*
X140220000Y-66570000D01*
X140220000Y-66570000D02*
X140910000Y-66270000D01*
X140380000Y-187920000D02*
X139390000Y-186880000D01*
X140910000Y-66270000D02*
X141840000Y-65920000D01*
X140950000Y-188540000D02*
X140380000Y-187920000D01*
X141840000Y-65920000D02*
X142800000Y-65540000D01*
X141890000Y-189470000D02*
X140950000Y-188540000D01*
X142430000Y-189900000D02*
X141890000Y-189470000D01*
X142800000Y-65540000D02*
X144420000Y-65100000D01*
X143280000Y-190460000D02*
X142430000Y-189900000D01*
X143960000Y-190780000D02*
X143280000Y-190460000D01*
X144420000Y-65100000D02*
X146030000Y-64810000D01*
X144440000Y-190950000D02*
X143960000Y-190780000D01*
X144790000Y-191040000D02*
X144440000Y-190950000D01*
X145180000Y-180120000D02*
X145610000Y-180400000D01*
X145390000Y-179780000D02*
X145180000Y-180120000D01*
X145470000Y-191140000D02*
X144790000Y-191040000D01*
X145610000Y-180400000D02*
X146270000Y-180900000D01*
X145800000Y-191160000D02*
X145470000Y-191140000D01*
X145880000Y-178930000D02*
X145390000Y-179780000D01*
X146030000Y-64810000D02*
X147440000Y-64690000D01*
X146270000Y-180900000D02*
X146530000Y-181080000D01*
X146530000Y-181080000D02*
X147190000Y-181730000D01*
X146550000Y-191130000D02*
X145800000Y-191160000D01*
X146810000Y-177450000D02*
X145880000Y-178930000D01*
X147190000Y-181730000D02*
X147740000Y-182400000D01*
X147190000Y-191030000D02*
X146550000Y-191130000D01*
X147440000Y-64690000D02*
X148900000Y-64710000D01*
X147470000Y-190930000D02*
X147190000Y-191030000D01*
X147740000Y-182400000D02*
X148110000Y-182950000D01*
X147910000Y-190740000D02*
X147470000Y-190930000D01*
X148110000Y-182950000D02*
X148380000Y-183440000D01*
X148320000Y-175050000D02*
X146810000Y-177450000D01*
X148380000Y-183440000D02*
X148800000Y-184320000D01*
X148490000Y-190290000D02*
X147910000Y-190740000D01*
X148800000Y-184320000D02*
X149120000Y-185210000D01*
X148860000Y-189800000D02*
X148490000Y-190290000D01*
X148900000Y-64710000D02*
X150240000Y-64850000D01*
X149120000Y-185210000D02*
X149360000Y-186110000D01*
X149230000Y-189030000D02*
X148860000Y-189800000D01*
X149360000Y-186110000D02*
X149480000Y-187060000D01*
X149430000Y-173250000D02*
X148320000Y-175050000D01*
X149450000Y-188170000D02*
X149230000Y-189030000D01*
X149480000Y-187060000D02*
X149490000Y-187970000D01*
X149490000Y-187970000D02*
X149450000Y-188170000D01*
X150240000Y-64850000D02*
X151470000Y-65160000D01*
X150400000Y-83070000D02*
X150460000Y-83400000D01*
X150400000Y-171420000D02*
X149430000Y-173250000D01*
X150460000Y-83400000D02*
X150660000Y-84450000D01*
X150660000Y-84450000D02*
X150950000Y-85790000D01*
X150710000Y-82960000D02*
X150400000Y-83070000D01*
X150950000Y-85790000D02*
X151120000Y-86790000D01*
X151120000Y-86790000D02*
X151550000Y-89540000D01*
X151290000Y-82810000D02*
X150710000Y-82960000D01*
X151310000Y-169170000D02*
X150400000Y-171420000D01*
X151470000Y-65160000D02*
X152530000Y-65590000D01*
X151550000Y-89540000D02*
X151710000Y-90860000D01*
X151710000Y-90860000D02*
X151890000Y-92840000D01*
X151890000Y-92840000D02*
X152110000Y-96010000D01*
X152110000Y-96010000D02*
X152180000Y-100310000D01*
X152130000Y-166370000D02*
X151310000Y-169170000D01*
X152180000Y-100310000D02*
X152230000Y-104960000D01*
X152230000Y-104960000D02*
X152280000Y-110390000D01*
X152280000Y-110390000D02*
X152360000Y-115820000D01*
X152360000Y-115820000D02*
X152420000Y-121180000D01*
X152400000Y-122620000D02*
X152460000Y-123110000D01*
X152420000Y-121180000D02*
X152400000Y-122620000D01*
X152460000Y-123110000D02*
X153940000Y-123080000D01*
X152510000Y-82320000D02*
X151290000Y-82810000D01*
X152530000Y-65590000D02*
X153550000Y-66160000D01*
X152630000Y-163960000D02*
X152130000Y-166370000D01*
X152780000Y-129760000D02*
X152840000Y-131020000D01*
X152840000Y-131020000D02*
X152930000Y-132270000D01*
X152930000Y-132270000D02*
X153090000Y-135510000D01*
X152990000Y-129950000D02*
X152780000Y-129760000D01*
X153000000Y-161430000D02*
X152630000Y-163960000D01*
X153090000Y-135510000D02*
X153240000Y-138410000D01*
X153240000Y-138410000D02*
X153390000Y-142030000D01*
X153350000Y-81830000D02*
X152510000Y-82320000D01*
X153380000Y-157590000D02*
X153000000Y-161430000D01*
X153390000Y-142030000D02*
X153490000Y-144620000D01*
X153440000Y-155420000D02*
X153380000Y-157590000D01*
X153490000Y-144620000D02*
X153500000Y-150150000D01*
X153500000Y-150150000D02*
X153440000Y-155420000D01*
X153550000Y-66160000D02*
X154420000Y-66900000D01*
X153830000Y-130610000D02*
X152990000Y-129950000D01*
X153940000Y-123080000D02*
X155050000Y-123130000D01*
X154160000Y-81200000D02*
X153350000Y-81830000D01*
X154420000Y-66900000D02*
X155170000Y-67730000D01*
X154810000Y-131310000D02*
X153830000Y-130610000D01*
X154870000Y-80510000D02*
X154160000Y-81200000D01*
X155050000Y-123130000D02*
X155870000Y-123350000D01*
X155170000Y-67730000D02*
X155810000Y-68710000D01*
X155480000Y-79740000D02*
X154870000Y-80510000D01*
X155810000Y-68710000D02*
X156340000Y-69870000D01*
X155870000Y-123350000D02*
X156890000Y-123700000D01*
X155880000Y-131880000D02*
X154810000Y-131310000D01*
X156090000Y-78670000D02*
X155480000Y-79740000D01*
X156340000Y-69870000D02*
X156740000Y-71040000D01*
X156540000Y-77600000D02*
X156090000Y-78670000D01*
X156740000Y-71040000D02*
X157030000Y-72460000D01*
X156890000Y-123700000D02*
X158040000Y-124250000D01*
X156910000Y-76350000D02*
X156540000Y-77600000D01*
X157010000Y-132360000D02*
X155880000Y-131880000D01*
X157030000Y-72460000D02*
X157130000Y-73720000D01*
X157090000Y-75000000D02*
X156910000Y-76350000D01*
X157130000Y-73720000D02*
X157090000Y-75000000D01*
X157380000Y-132460000D02*
X157010000Y-132360000D01*
X157780000Y-132530000D02*
X157380000Y-132460000D01*
X158040000Y-124250000D02*
X158950000Y-124850000D01*
X158200000Y-132560000D02*
X157780000Y-132530000D01*
X158950000Y-124850000D02*
X159730000Y-125580000D01*
X158950000Y-132560000D02*
X158200000Y-132560000D01*
X159410000Y-132530000D02*
X158950000Y-132560000D01*
X159660000Y-132490000D02*
X159410000Y-132530000D01*
X159730000Y-125580000D02*
X160170000Y-126110000D01*
X160070000Y-132300000D02*
X159660000Y-132490000D01*
X160170000Y-126110000D02*
X160430000Y-126470000D01*
X160430000Y-126470000D02*
X160850000Y-127200000D01*
X160670000Y-131850000D02*
X160070000Y-132300000D01*
X160850000Y-127200000D02*
X161100000Y-127750000D01*
X161100000Y-127750000D02*
X161380000Y-128510000D01*
X161110000Y-131310000D02*
X160670000Y-131850000D01*
X161380000Y-128510000D02*
X161480000Y-129010000D01*
X161380000Y-130650000D02*
X161110000Y-131310000D01*
X161480000Y-129010000D02*
X161500000Y-129520000D01*
X161490000Y-129930000D02*
X161380000Y-130650000D01*
X161500000Y-129520000D02*
X161490000Y-129930000D01*
M02*
