G04 #@! TF.GenerationSoftware,KiCad,Pcbnew,8.0.5-8.0.5-0~ubuntu24.04.1*
G04 #@! TF.CreationDate,2024-09-29T10:35:15+09:00*
G04 #@! TF.ProjectId,gopher_bird_rp2040_sw,676f7068-6572-45f6-9269-72645f727032,rev?*
G04 #@! TF.SameCoordinates,Original*
G04 #@! TF.FileFunction,Legend,Bot*
G04 #@! TF.FilePolarity,Positive*
%FSLAX46Y46*%
G04 Gerber Fmt 4.6, Leading zero omitted, Abs format (unit mm)*
G04 Created by KiCad (PCBNEW 8.0.5-8.0.5-0~ubuntu24.04.1) date 2024-09-29 10:35:15*
%MOMM*%
%LPD*%
G01*
G04 APERTURE LIST*
%ADD10C,0.150000*%
%ADD11C,0.120000*%
G04 APERTURE END LIST*
D10*
X111129166Y-68204819D02*
X111462499Y-67728628D01*
X111700594Y-68204819D02*
X111700594Y-67204819D01*
X111700594Y-67204819D02*
X111319642Y-67204819D01*
X111319642Y-67204819D02*
X111224404Y-67252438D01*
X111224404Y-67252438D02*
X111176785Y-67300057D01*
X111176785Y-67300057D02*
X111129166Y-67395295D01*
X111129166Y-67395295D02*
X111129166Y-67538152D01*
X111129166Y-67538152D02*
X111176785Y-67633390D01*
X111176785Y-67633390D02*
X111224404Y-67681009D01*
X111224404Y-67681009D02*
X111319642Y-67728628D01*
X111319642Y-67728628D02*
X111700594Y-67728628D01*
X110748213Y-67300057D02*
X110700594Y-67252438D01*
X110700594Y-67252438D02*
X110605356Y-67204819D01*
X110605356Y-67204819D02*
X110367261Y-67204819D01*
X110367261Y-67204819D02*
X110272023Y-67252438D01*
X110272023Y-67252438D02*
X110224404Y-67300057D01*
X110224404Y-67300057D02*
X110176785Y-67395295D01*
X110176785Y-67395295D02*
X110176785Y-67490533D01*
X110176785Y-67490533D02*
X110224404Y-67633390D01*
X110224404Y-67633390D02*
X110795832Y-68204819D01*
X110795832Y-68204819D02*
X110176785Y-68204819D01*
D11*
X111221078Y-68690000D02*
X110703922Y-68690000D01*
X111221078Y-70110000D02*
X110703922Y-70110000D01*
M02*
