G04 #@! TF.GenerationSoftware,KiCad,Pcbnew,8.0.5-8.0.5-0~ubuntu24.04.1*
G04 #@! TF.CreationDate,2024-10-08T07:51:32+09:00*
G04 #@! TF.ProjectId,gopher_flower_rp2040_sw,676f7068-6572-45f6-966c-6f7765725f72,rev?*
G04 #@! TF.SameCoordinates,Original*
G04 #@! TF.FileFunction,Legend,Top*
G04 #@! TF.FilePolarity,Positive*
%FSLAX46Y46*%
G04 Gerber Fmt 4.6, Leading zero omitted, Abs format (unit mm)*
G04 Created by KiCad (PCBNEW 8.0.5-8.0.5-0~ubuntu24.04.1) date 2024-10-08 07:51:32*
%MOMM*%
%LPD*%
G01*
G04 APERTURE LIST*
%ADD10C,0.150000*%
%ADD11C,0.120000*%
%ADD12C,0.100000*%
G04 APERTURE END LIST*
D10*
X112033333Y-108885009D02*
X112176190Y-108932628D01*
X112176190Y-108932628D02*
X112223809Y-108980247D01*
X112223809Y-108980247D02*
X112271428Y-109075485D01*
X112271428Y-109075485D02*
X112271428Y-109218342D01*
X112271428Y-109218342D02*
X112223809Y-109313580D01*
X112223809Y-109313580D02*
X112176190Y-109361200D01*
X112176190Y-109361200D02*
X112080952Y-109408819D01*
X112080952Y-109408819D02*
X111700000Y-109408819D01*
X111700000Y-109408819D02*
X111700000Y-108408819D01*
X111700000Y-108408819D02*
X112033333Y-108408819D01*
X112033333Y-108408819D02*
X112128571Y-108456438D01*
X112128571Y-108456438D02*
X112176190Y-108504057D01*
X112176190Y-108504057D02*
X112223809Y-108599295D01*
X112223809Y-108599295D02*
X112223809Y-108694533D01*
X112223809Y-108694533D02*
X112176190Y-108789771D01*
X112176190Y-108789771D02*
X112128571Y-108837390D01*
X112128571Y-108837390D02*
X112033333Y-108885009D01*
X112033333Y-108885009D02*
X111700000Y-108885009D01*
X112700000Y-109408819D02*
X112700000Y-108742152D01*
X112700000Y-108932628D02*
X112747619Y-108837390D01*
X112747619Y-108837390D02*
X112795238Y-108789771D01*
X112795238Y-108789771D02*
X112890476Y-108742152D01*
X112890476Y-108742152D02*
X112985714Y-108742152D01*
X113747619Y-109408819D02*
X113747619Y-108408819D01*
X113747619Y-109361200D02*
X113652381Y-109408819D01*
X113652381Y-109408819D02*
X113461905Y-109408819D01*
X113461905Y-109408819D02*
X113366667Y-109361200D01*
X113366667Y-109361200D02*
X113319048Y-109313580D01*
X113319048Y-109313580D02*
X113271429Y-109218342D01*
X113271429Y-109218342D02*
X113271429Y-108932628D01*
X113271429Y-108932628D02*
X113319048Y-108837390D01*
X113319048Y-108837390D02*
X113366667Y-108789771D01*
X113366667Y-108789771D02*
X113461905Y-108742152D01*
X113461905Y-108742152D02*
X113652381Y-108742152D01*
X113652381Y-108742152D02*
X113747619Y-108789771D01*
X114747619Y-109408819D02*
X114176191Y-109408819D01*
X114461905Y-109408819D02*
X114461905Y-108408819D01*
X114461905Y-108408819D02*
X114366667Y-108551676D01*
X114366667Y-108551676D02*
X114271429Y-108646914D01*
X114271429Y-108646914D02*
X114176191Y-108694533D01*
X83166666Y-114894819D02*
X83166666Y-115609104D01*
X83166666Y-115609104D02*
X83119047Y-115751961D01*
X83119047Y-115751961D02*
X83023809Y-115847200D01*
X83023809Y-115847200D02*
X82880952Y-115894819D01*
X82880952Y-115894819D02*
X82785714Y-115894819D01*
X84166666Y-115894819D02*
X83595238Y-115894819D01*
X83880952Y-115894819D02*
X83880952Y-114894819D01*
X83880952Y-114894819D02*
X83785714Y-115037676D01*
X83785714Y-115037676D02*
X83690476Y-115132914D01*
X83690476Y-115132914D02*
X83595238Y-115180533D01*
X140957142Y-108584819D02*
X140480952Y-108584819D01*
X140480952Y-108584819D02*
X140480952Y-107584819D01*
X141242857Y-108537200D02*
X141385714Y-108584819D01*
X141385714Y-108584819D02*
X141623809Y-108584819D01*
X141623809Y-108584819D02*
X141719047Y-108537200D01*
X141719047Y-108537200D02*
X141766666Y-108489580D01*
X141766666Y-108489580D02*
X141814285Y-108394342D01*
X141814285Y-108394342D02*
X141814285Y-108299104D01*
X141814285Y-108299104D02*
X141766666Y-108203866D01*
X141766666Y-108203866D02*
X141719047Y-108156247D01*
X141719047Y-108156247D02*
X141623809Y-108108628D01*
X141623809Y-108108628D02*
X141433333Y-108061009D01*
X141433333Y-108061009D02*
X141338095Y-108013390D01*
X141338095Y-108013390D02*
X141290476Y-107965771D01*
X141290476Y-107965771D02*
X141242857Y-107870533D01*
X141242857Y-107870533D02*
X141242857Y-107775295D01*
X141242857Y-107775295D02*
X141290476Y-107680057D01*
X141290476Y-107680057D02*
X141338095Y-107632438D01*
X141338095Y-107632438D02*
X141433333Y-107584819D01*
X141433333Y-107584819D02*
X141671428Y-107584819D01*
X141671428Y-107584819D02*
X141814285Y-107632438D01*
X142766666Y-108584819D02*
X142195238Y-108584819D01*
X142480952Y-108584819D02*
X142480952Y-107584819D01*
X142480952Y-107584819D02*
X142385714Y-107727676D01*
X142385714Y-107727676D02*
X142290476Y-107822914D01*
X142290476Y-107822914D02*
X142195238Y-107870533D01*
D11*
X92400000Y-55950000D02*
X99700000Y-55950000D01*
X92400000Y-61450000D02*
X99700000Y-61450000D01*
X99700000Y-61450000D02*
X99700000Y-60300000D01*
X123900000Y-54850000D02*
X131200000Y-54850000D01*
X123900000Y-60350000D02*
X131200000Y-60350000D01*
X131200000Y-60350000D02*
X131200000Y-59200000D01*
X99800000Y-96400000D02*
X127200000Y-96400000D01*
X99800000Y-123700000D02*
X99800000Y-96400000D01*
X100222000Y-99695000D02*
X123322000Y-99695000D01*
X100222000Y-116295000D02*
X100222000Y-99695000D01*
X108501000Y-96889000D02*
X108501000Y-99302000D01*
X108501000Y-96889000D02*
X118280000Y-96889000D01*
X118280000Y-96889000D02*
X118280000Y-99302000D01*
X118280000Y-99302000D02*
X108501000Y-99302000D01*
X123322000Y-99695000D02*
X126408000Y-99695000D01*
X123322000Y-116295000D02*
X100222000Y-116295000D01*
X123322000Y-116295000D02*
X126662000Y-116320000D01*
X126662000Y-99683000D02*
X126408000Y-99695000D01*
X126662000Y-116320000D02*
X126662000Y-99683000D01*
X127200000Y-96400000D02*
X127200000Y-123700000D01*
X127200000Y-123700000D02*
X99800000Y-123700000D01*
X132050000Y-135100000D02*
X132050000Y-136600000D01*
X133300000Y-139100000D02*
X137800000Y-139100000D01*
X137800000Y-132600000D02*
X133300000Y-132600000D01*
X139050000Y-136600000D02*
X139050000Y-135100000D01*
X79950000Y-141700000D02*
X79950000Y-143200000D01*
X81200000Y-145700000D02*
X85700000Y-145700000D01*
X85700000Y-139200000D02*
X81200000Y-139200000D01*
X86950000Y-143200000D02*
X86950000Y-141700000D01*
X100254005Y-58510000D02*
G75*
G02*
X91815995Y-58510000I-4219005J0D01*
G01*
X91815995Y-58510000D02*
G75*
G02*
X100254005Y-58510000I4219005J0D01*
G01*
X131675001Y-57600000D02*
G75*
G02*
X123236991Y-57600000I-4219005J0D01*
G01*
X123236991Y-57600000D02*
G75*
G02*
X131675001Y-57600000I4219005J0D01*
G01*
D12*
X144645000Y-68130000D02*
X144975000Y-68730000D01*
X145155000Y-69340000D01*
X145255000Y-69990000D01*
X145285000Y-70690000D01*
X145245000Y-71780000D01*
X145155000Y-72750000D01*
X145075000Y-73360000D01*
X144865000Y-72660000D01*
X144685000Y-72000000D01*
X144485000Y-71170000D01*
X144335000Y-70420000D01*
X144265000Y-69900000D01*
X144255000Y-69240000D01*
X144265000Y-68580000D01*
X144295000Y-68130000D01*
X144335000Y-67890000D01*
X144365000Y-67820000D01*
X144375000Y-67800000D01*
X144385000Y-67800000D01*
X144645000Y-68130000D01*
G36*
X144645000Y-68130000D02*
G01*
X144975000Y-68730000D01*
X145155000Y-69340000D01*
X145255000Y-69990000D01*
X145285000Y-70690000D01*
X145245000Y-71780000D01*
X145155000Y-72750000D01*
X145075000Y-73360000D01*
X144865000Y-72660000D01*
X144685000Y-72000000D01*
X144485000Y-71170000D01*
X144335000Y-70420000D01*
X144265000Y-69900000D01*
X144255000Y-69240000D01*
X144265000Y-68580000D01*
X144295000Y-68130000D01*
X144335000Y-67890000D01*
X144365000Y-67820000D01*
X144375000Y-67800000D01*
X144385000Y-67800000D01*
X144645000Y-68130000D01*
G37*
X145915000Y-90720000D02*
X146185000Y-91729395D01*
X146405000Y-92640000D01*
X146495000Y-93220000D01*
X146535000Y-94169395D01*
X146545000Y-94789395D01*
X146535000Y-95179395D01*
X146435000Y-95669395D01*
X146225000Y-96310000D01*
X146095000Y-96550000D01*
X145735000Y-96200000D01*
X145365000Y-95680000D01*
X145155000Y-95140000D01*
X145015000Y-94440000D01*
X144985000Y-93669395D01*
X145035000Y-92699395D01*
X145175000Y-91809395D01*
X145385000Y-90829395D01*
X145515000Y-90309395D01*
X145575000Y-90079395D01*
X145615000Y-89949395D01*
X145915000Y-90720000D01*
G36*
X145915000Y-90720000D02*
G01*
X146185000Y-91729395D01*
X146405000Y-92640000D01*
X146495000Y-93220000D01*
X146535000Y-94169395D01*
X146545000Y-94789395D01*
X146535000Y-95179395D01*
X146435000Y-95669395D01*
X146225000Y-96310000D01*
X146095000Y-96550000D01*
X145735000Y-96200000D01*
X145365000Y-95680000D01*
X145155000Y-95140000D01*
X145015000Y-94440000D01*
X144985000Y-93669395D01*
X145035000Y-92699395D01*
X145175000Y-91809395D01*
X145385000Y-90829395D01*
X145515000Y-90309395D01*
X145575000Y-90079395D01*
X145615000Y-89949395D01*
X145915000Y-90720000D01*
G37*
X135825000Y-82210000D02*
X136435000Y-82250000D01*
X136675000Y-82270000D01*
X136865000Y-82310000D01*
X136905000Y-82330000D01*
X136755000Y-82400000D01*
X136365000Y-82520000D01*
X135945000Y-82640000D01*
X134945000Y-82880000D01*
X134615000Y-82940000D01*
X134065000Y-83000000D01*
X133185000Y-83040000D01*
X132515000Y-83050000D01*
X132355000Y-83050000D01*
X132065000Y-82990000D01*
X131705000Y-82910000D01*
X131605000Y-82870000D01*
X131555000Y-82830000D01*
X132045000Y-82540000D01*
X132435000Y-82390000D01*
X132905000Y-82260000D01*
X133245000Y-82210000D01*
X134045000Y-82180000D01*
X134935000Y-82180000D01*
X135825000Y-82210000D01*
G36*
X135825000Y-82210000D02*
G01*
X136435000Y-82250000D01*
X136675000Y-82270000D01*
X136865000Y-82310000D01*
X136905000Y-82330000D01*
X136755000Y-82400000D01*
X136365000Y-82520000D01*
X135945000Y-82640000D01*
X134945000Y-82880000D01*
X134615000Y-82940000D01*
X134065000Y-83000000D01*
X133185000Y-83040000D01*
X132515000Y-83050000D01*
X132355000Y-83050000D01*
X132065000Y-82990000D01*
X131705000Y-82910000D01*
X131605000Y-82870000D01*
X131555000Y-82830000D01*
X132045000Y-82540000D01*
X132435000Y-82390000D01*
X132905000Y-82260000D01*
X133245000Y-82210000D01*
X134045000Y-82180000D01*
X134935000Y-82180000D01*
X135825000Y-82210000D01*
G37*
X127655000Y-53330000D02*
X127115000Y-53350000D01*
X126425000Y-53470000D01*
X125975000Y-53610000D01*
X125275000Y-53940000D01*
X124805000Y-54280000D01*
X124445000Y-54580000D01*
X124125000Y-54950000D01*
X124025000Y-55110000D01*
X115655000Y-55000000D01*
X115955000Y-53780000D01*
X116405000Y-52580000D01*
X116945000Y-51460000D01*
X117805000Y-50120000D01*
X118585000Y-49240000D01*
X119445000Y-48400000D01*
X119835000Y-48060000D01*
X120175000Y-47780000D01*
X121075000Y-47170000D01*
X122405000Y-46460000D01*
X123505000Y-46030000D01*
X124655000Y-45700000D01*
X125845000Y-45490000D01*
X126935000Y-45420000D01*
X127665000Y-45400000D01*
X127655000Y-53330000D01*
G36*
X127655000Y-53330000D02*
G01*
X127115000Y-53350000D01*
X126425000Y-53470000D01*
X125975000Y-53610000D01*
X125275000Y-53940000D01*
X124805000Y-54280000D01*
X124445000Y-54580000D01*
X124125000Y-54950000D01*
X124025000Y-55110000D01*
X115655000Y-55000000D01*
X115955000Y-53780000D01*
X116405000Y-52580000D01*
X116945000Y-51460000D01*
X117805000Y-50120000D01*
X118585000Y-49240000D01*
X119445000Y-48400000D01*
X119835000Y-48060000D01*
X120175000Y-47780000D01*
X121075000Y-47170000D01*
X122405000Y-46460000D01*
X123505000Y-46030000D01*
X124655000Y-45700000D01*
X125845000Y-45490000D01*
X126935000Y-45420000D01*
X127665000Y-45400000D01*
X127655000Y-53330000D01*
G37*
X139105000Y-70790000D02*
X141055000Y-74830000D01*
X141025000Y-74960000D01*
X141075000Y-75120000D01*
X141235000Y-75460000D01*
X141325000Y-75650000D01*
X141415000Y-75880000D01*
X141475000Y-76170000D01*
X141535000Y-76330000D01*
X141365000Y-76450000D01*
X141195000Y-76560000D01*
X140955000Y-76360000D01*
X140685000Y-76150000D01*
X140265000Y-75950000D01*
X139775000Y-75740000D01*
X139065000Y-75540000D01*
X138395000Y-75410000D01*
X138115000Y-75380000D01*
X137915000Y-75440000D01*
X137905000Y-75530000D01*
X135595000Y-74370000D01*
X135905000Y-74030000D01*
X136335000Y-73440000D01*
X137055000Y-72330000D01*
X137465000Y-71610000D01*
X138065000Y-70600000D01*
X138375000Y-70080000D01*
X138625000Y-69700000D01*
X139105000Y-70790000D01*
G36*
X139105000Y-70790000D02*
G01*
X141055000Y-74830000D01*
X141025000Y-74960000D01*
X141075000Y-75120000D01*
X141235000Y-75460000D01*
X141325000Y-75650000D01*
X141415000Y-75880000D01*
X141475000Y-76170000D01*
X141535000Y-76330000D01*
X141365000Y-76450000D01*
X141195000Y-76560000D01*
X140955000Y-76360000D01*
X140685000Y-76150000D01*
X140265000Y-75950000D01*
X139775000Y-75740000D01*
X139065000Y-75540000D01*
X138395000Y-75410000D01*
X138115000Y-75380000D01*
X137915000Y-75440000D01*
X137905000Y-75530000D01*
X135595000Y-74370000D01*
X135905000Y-74030000D01*
X136335000Y-73440000D01*
X137055000Y-72330000D01*
X137465000Y-71610000D01*
X138065000Y-70600000D01*
X138375000Y-70080000D01*
X138625000Y-69700000D01*
X139105000Y-70790000D01*
G37*
X96505000Y-49210000D02*
X96075000Y-53370000D01*
X96035000Y-54290996D01*
X95095000Y-54360000D01*
X94265000Y-54650000D01*
X93475000Y-55100000D01*
X92985000Y-55550000D01*
X92505000Y-56140000D01*
X92055000Y-57020000D01*
X91835000Y-57730000D01*
X91785000Y-58230000D01*
X91795000Y-58800000D01*
X84715000Y-58750000D01*
X84755000Y-57590000D01*
X84945000Y-56320000D01*
X85255000Y-55070000D01*
X85675000Y-53940000D01*
X86195000Y-52880000D01*
X86915000Y-51690000D01*
X87845000Y-50540000D01*
X88595000Y-49820000D01*
X88775000Y-49650000D01*
X89755000Y-48880000D01*
X90745000Y-48240000D01*
X91875000Y-47670000D01*
X93045000Y-47240000D01*
X94175000Y-46960000D01*
X95465000Y-46730000D01*
X96775000Y-46710000D01*
X96505000Y-49210000D01*
G36*
X96505000Y-49210000D02*
G01*
X96075000Y-53370000D01*
X96035000Y-54290996D01*
X95095000Y-54360000D01*
X94265000Y-54650000D01*
X93475000Y-55100000D01*
X92985000Y-55550000D01*
X92505000Y-56140000D01*
X92055000Y-57020000D01*
X91835000Y-57730000D01*
X91785000Y-58230000D01*
X91795000Y-58800000D01*
X84715000Y-58750000D01*
X84755000Y-57590000D01*
X84945000Y-56320000D01*
X85255000Y-55070000D01*
X85675000Y-53940000D01*
X86195000Y-52880000D01*
X86915000Y-51690000D01*
X87845000Y-50540000D01*
X88595000Y-49820000D01*
X88775000Y-49650000D01*
X89755000Y-48880000D01*
X90745000Y-48240000D01*
X91875000Y-47670000D01*
X93045000Y-47240000D01*
X94175000Y-46960000D01*
X95465000Y-46730000D01*
X96775000Y-46710000D01*
X96505000Y-49210000D01*
G37*
X151095000Y-86740000D02*
X151545000Y-87070000D01*
X151955000Y-87440000D01*
X152285000Y-87760000D01*
X152455000Y-87890000D01*
X152645000Y-87970000D01*
X152745000Y-88000000D01*
X154885000Y-90380000D01*
X154615000Y-90660000D01*
X154455000Y-90840000D01*
X154165000Y-91190000D01*
X153945000Y-91450000D01*
X153645000Y-91840000D01*
X153035000Y-92690000D01*
X152465000Y-93500000D01*
X151855000Y-94330000D01*
X150235000Y-89050000D01*
X150285000Y-88970000D01*
X150295000Y-88770000D01*
X150285000Y-88480000D01*
X150245000Y-88180000D01*
X150195000Y-87770000D01*
X150135000Y-87440000D01*
X150085000Y-87200000D01*
X150035000Y-87060000D01*
X150005000Y-87020000D01*
X150005000Y-86940000D01*
X150075000Y-86850000D01*
X150275000Y-86670000D01*
X150495000Y-86480000D01*
X150535000Y-86460000D01*
X151095000Y-86740000D01*
G36*
X151095000Y-86740000D02*
G01*
X151545000Y-87070000D01*
X151955000Y-87440000D01*
X152285000Y-87760000D01*
X152455000Y-87890000D01*
X152645000Y-87970000D01*
X152745000Y-88000000D01*
X154885000Y-90380000D01*
X154615000Y-90660000D01*
X154455000Y-90840000D01*
X154165000Y-91190000D01*
X153945000Y-91450000D01*
X153645000Y-91840000D01*
X153035000Y-92690000D01*
X152465000Y-93500000D01*
X151855000Y-94330000D01*
X150235000Y-89050000D01*
X150285000Y-88970000D01*
X150295000Y-88770000D01*
X150285000Y-88480000D01*
X150245000Y-88180000D01*
X150195000Y-87770000D01*
X150135000Y-87440000D01*
X150085000Y-87200000D01*
X150035000Y-87060000D01*
X150005000Y-87020000D01*
X150005000Y-86940000D01*
X150075000Y-86850000D01*
X150275000Y-86670000D01*
X150495000Y-86480000D01*
X150535000Y-86460000D01*
X151095000Y-86740000D01*
G37*
X141085000Y-86890000D02*
X141235000Y-86980000D01*
X141525000Y-87180000D01*
X141665000Y-87290000D01*
X141415000Y-87560000D01*
X141275000Y-87750000D01*
X141105000Y-88060000D01*
X140985000Y-88330000D01*
X140965000Y-88440000D01*
X140955000Y-88570000D01*
X140985000Y-88630000D01*
X141075000Y-88690000D01*
X138835000Y-92770000D01*
X138385000Y-92250000D01*
X138085000Y-91940000D01*
X137655000Y-91590000D01*
X137355000Y-91370000D01*
X137045000Y-91150000D01*
X136955000Y-91100000D01*
X138345000Y-89370000D01*
X138625000Y-88980000D01*
X138715000Y-89000000D01*
X138795000Y-88970000D01*
X138855000Y-88930000D01*
X139025000Y-88800000D01*
X139265000Y-88590000D01*
X139595000Y-88280000D01*
X139755000Y-88120000D01*
X140115000Y-87770000D01*
X140615000Y-87290000D01*
X140845000Y-87070000D01*
X141065000Y-86880000D01*
X141085000Y-86890000D01*
G36*
X141085000Y-86890000D02*
G01*
X141235000Y-86980000D01*
X141525000Y-87180000D01*
X141665000Y-87290000D01*
X141415000Y-87560000D01*
X141275000Y-87750000D01*
X141105000Y-88060000D01*
X140985000Y-88330000D01*
X140965000Y-88440000D01*
X140955000Y-88570000D01*
X140985000Y-88630000D01*
X141075000Y-88690000D01*
X138835000Y-92770000D01*
X138385000Y-92250000D01*
X138085000Y-91940000D01*
X137655000Y-91590000D01*
X137355000Y-91370000D01*
X137045000Y-91150000D01*
X136955000Y-91100000D01*
X138345000Y-89370000D01*
X138625000Y-88980000D01*
X138715000Y-89000000D01*
X138795000Y-88970000D01*
X138855000Y-88930000D01*
X139025000Y-88800000D01*
X139265000Y-88590000D01*
X139595000Y-88280000D01*
X139755000Y-88120000D01*
X140115000Y-87770000D01*
X140615000Y-87290000D01*
X140845000Y-87070000D01*
X141065000Y-86880000D01*
X141085000Y-86890000D01*
G37*
X153625000Y-72250000D02*
X154265000Y-72670000D01*
X155005000Y-73130000D01*
X155885000Y-73610000D01*
X156845000Y-74200000D01*
X152375000Y-75920000D01*
X152245000Y-75920000D01*
X151935000Y-76020000D01*
X151595000Y-76180000D01*
X151375000Y-76290000D01*
X150935000Y-76540000D01*
X150675000Y-76700000D01*
X150355000Y-76900000D01*
X150335000Y-76870000D01*
X150255000Y-76790000D01*
X150155000Y-76670000D01*
X150145000Y-76640000D01*
X150225000Y-76600000D01*
X150275000Y-76500000D01*
X150315000Y-76410000D01*
X150395000Y-76110000D01*
X150465000Y-75890000D01*
X150575000Y-75630000D01*
X150695000Y-75340000D01*
X150785000Y-75150000D01*
X150835000Y-75040000D01*
X150925000Y-74810000D01*
X150955000Y-74670000D01*
X150955000Y-74640000D01*
X150945000Y-74610000D01*
X151215000Y-74250000D01*
X153215000Y-71930000D01*
X153625000Y-72250000D01*
G36*
X153625000Y-72250000D02*
G01*
X154265000Y-72670000D01*
X155005000Y-73130000D01*
X155885000Y-73610000D01*
X156845000Y-74200000D01*
X152375000Y-75920000D01*
X152245000Y-75920000D01*
X151935000Y-76020000D01*
X151595000Y-76180000D01*
X151375000Y-76290000D01*
X150935000Y-76540000D01*
X150675000Y-76700000D01*
X150355000Y-76900000D01*
X150335000Y-76870000D01*
X150255000Y-76790000D01*
X150155000Y-76670000D01*
X150145000Y-76640000D01*
X150225000Y-76600000D01*
X150275000Y-76500000D01*
X150315000Y-76410000D01*
X150395000Y-76110000D01*
X150465000Y-75890000D01*
X150575000Y-75630000D01*
X150695000Y-75340000D01*
X150785000Y-75150000D01*
X150835000Y-75040000D01*
X150925000Y-74810000D01*
X150955000Y-74670000D01*
X150955000Y-74640000D01*
X150945000Y-74610000D01*
X151215000Y-74250000D01*
X153215000Y-71930000D01*
X153625000Y-72250000D01*
G37*
X112385000Y-77350000D02*
X112455000Y-77940000D01*
X112565000Y-79110000D01*
X112605000Y-80040000D01*
X112615000Y-80760000D01*
X112605000Y-81430000D01*
X112555000Y-82090000D01*
X112465000Y-82620000D01*
X112365000Y-82970000D01*
X112195000Y-83440000D01*
X111975000Y-83900000D01*
X111775000Y-84250000D01*
X111535000Y-84550000D01*
X111315000Y-84740000D01*
X111095000Y-84910000D01*
X110755000Y-85140000D01*
X110455000Y-85300000D01*
X110225000Y-85410000D01*
X110005000Y-85460000D01*
X109675000Y-85470000D01*
X109305000Y-85380000D01*
X108785000Y-85100000D01*
X108335000Y-84710000D01*
X107925000Y-84210000D01*
X107585000Y-83610000D01*
X107355000Y-83030000D01*
X107235000Y-82500000D01*
X107185000Y-81910000D01*
X107205000Y-81220000D01*
X107275000Y-80570000D01*
X107345000Y-80050000D01*
X107465000Y-79320000D01*
X107575000Y-78700000D01*
X107645000Y-78410000D01*
X107685000Y-78330000D01*
X109235000Y-77940000D01*
X110945000Y-77440000D01*
X112255000Y-77110000D01*
X112345000Y-77090000D01*
X112385000Y-77350000D01*
G36*
X112385000Y-77350000D02*
G01*
X112455000Y-77940000D01*
X112565000Y-79110000D01*
X112605000Y-80040000D01*
X112615000Y-80760000D01*
X112605000Y-81430000D01*
X112555000Y-82090000D01*
X112465000Y-82620000D01*
X112365000Y-82970000D01*
X112195000Y-83440000D01*
X111975000Y-83900000D01*
X111775000Y-84250000D01*
X111535000Y-84550000D01*
X111315000Y-84740000D01*
X111095000Y-84910000D01*
X110755000Y-85140000D01*
X110455000Y-85300000D01*
X110225000Y-85410000D01*
X110005000Y-85460000D01*
X109675000Y-85470000D01*
X109305000Y-85380000D01*
X108785000Y-85100000D01*
X108335000Y-84710000D01*
X107925000Y-84210000D01*
X107585000Y-83610000D01*
X107355000Y-83030000D01*
X107235000Y-82500000D01*
X107185000Y-81910000D01*
X107205000Y-81220000D01*
X107275000Y-80570000D01*
X107345000Y-80050000D01*
X107465000Y-79320000D01*
X107575000Y-78700000D01*
X107645000Y-78410000D01*
X107685000Y-78330000D01*
X109235000Y-77940000D01*
X110945000Y-77440000D01*
X112255000Y-77110000D01*
X112345000Y-77090000D01*
X112385000Y-77350000D01*
G37*
X157435000Y-74540000D02*
X158155000Y-75070000D01*
X158825000Y-75730000D01*
X159285000Y-76330000D01*
X159805000Y-77330000D01*
X160015000Y-78010000D01*
X160075000Y-78450000D01*
X160075000Y-78990000D01*
X160045000Y-79250000D01*
X159885000Y-79770000D01*
X159645000Y-80170000D01*
X159335000Y-80500000D01*
X158865000Y-80830000D01*
X158225000Y-81100000D01*
X157905000Y-81170000D01*
X157105000Y-81240000D01*
X156335000Y-81270000D01*
X155525000Y-81260000D01*
X154535000Y-81170000D01*
X153855000Y-81080000D01*
X153505000Y-81010000D01*
X153225000Y-80910000D01*
X152705000Y-80650000D01*
X152355000Y-80390000D01*
X152275000Y-80250000D01*
X152065000Y-79670000D01*
X151855000Y-79090000D01*
X151555000Y-78480000D01*
X151455000Y-78300000D01*
X151005000Y-77620000D01*
X150695000Y-77200000D01*
X151015000Y-76990000D01*
X151595000Y-76670000D01*
X152215000Y-76340000D01*
X152365000Y-76210000D01*
X152445000Y-76120000D01*
X152475000Y-76020000D01*
X152465000Y-75970000D01*
X152405000Y-75910000D01*
X155125000Y-74860000D01*
X156845000Y-74200000D01*
X157435000Y-74540000D01*
G36*
X157435000Y-74540000D02*
G01*
X158155000Y-75070000D01*
X158825000Y-75730000D01*
X159285000Y-76330000D01*
X159805000Y-77330000D01*
X160015000Y-78010000D01*
X160075000Y-78450000D01*
X160075000Y-78990000D01*
X160045000Y-79250000D01*
X159885000Y-79770000D01*
X159645000Y-80170000D01*
X159335000Y-80500000D01*
X158865000Y-80830000D01*
X158225000Y-81100000D01*
X157905000Y-81170000D01*
X157105000Y-81240000D01*
X156335000Y-81270000D01*
X155525000Y-81260000D01*
X154535000Y-81170000D01*
X153855000Y-81080000D01*
X153505000Y-81010000D01*
X153225000Y-80910000D01*
X152705000Y-80650000D01*
X152355000Y-80390000D01*
X152275000Y-80250000D01*
X152065000Y-79670000D01*
X151855000Y-79090000D01*
X151555000Y-78480000D01*
X151455000Y-78300000D01*
X151005000Y-77620000D01*
X150695000Y-77200000D01*
X151015000Y-76990000D01*
X151595000Y-76670000D01*
X152215000Y-76340000D01*
X152365000Y-76210000D01*
X152445000Y-76120000D01*
X152475000Y-76020000D01*
X152465000Y-75970000D01*
X152405000Y-75910000D01*
X155125000Y-74860000D01*
X156845000Y-74200000D01*
X157435000Y-74540000D01*
G37*
X149725000Y-87430000D02*
X149825000Y-88150000D01*
X149895000Y-88590000D01*
X149935000Y-88810000D01*
X150035000Y-89000000D01*
X150085000Y-89030000D01*
X150195000Y-89050000D01*
X151855000Y-94330000D01*
X151615000Y-94630000D01*
X151095000Y-95220000D01*
X150795000Y-95530000D01*
X150205000Y-95990000D01*
X149665000Y-96290000D01*
X148925000Y-96620000D01*
X148415000Y-96790000D01*
X147875000Y-96850000D01*
X147455000Y-96880000D01*
X147075000Y-96870000D01*
X146755000Y-96840000D01*
X146615000Y-96770000D01*
X146625000Y-96640000D01*
X146755000Y-96290000D01*
X146945000Y-95700000D01*
X147055000Y-95090000D01*
X147075000Y-94400000D01*
X147045000Y-93700000D01*
X146965000Y-93030000D01*
X146835000Y-92340000D01*
X146625000Y-91470000D01*
X146355000Y-90600000D01*
X145945000Y-89410000D01*
X146145000Y-89130000D01*
X146345000Y-88780000D01*
X146425000Y-88590000D01*
X146465000Y-88530000D01*
X146625000Y-88470000D01*
X147475000Y-88280000D01*
X147915000Y-88120000D01*
X148165000Y-88030000D01*
X148805000Y-87730000D01*
X149115000Y-87540000D01*
X149625000Y-87220000D01*
X149665000Y-87190000D01*
X149725000Y-87430000D01*
G36*
X149725000Y-87430000D02*
G01*
X149825000Y-88150000D01*
X149895000Y-88590000D01*
X149935000Y-88810000D01*
X150035000Y-89000000D01*
X150085000Y-89030000D01*
X150195000Y-89050000D01*
X151855000Y-94330000D01*
X151615000Y-94630000D01*
X151095000Y-95220000D01*
X150795000Y-95530000D01*
X150205000Y-95990000D01*
X149665000Y-96290000D01*
X148925000Y-96620000D01*
X148415000Y-96790000D01*
X147875000Y-96850000D01*
X147455000Y-96880000D01*
X147075000Y-96870000D01*
X146755000Y-96840000D01*
X146615000Y-96770000D01*
X146625000Y-96640000D01*
X146755000Y-96290000D01*
X146945000Y-95700000D01*
X147055000Y-95090000D01*
X147075000Y-94400000D01*
X147045000Y-93700000D01*
X146965000Y-93030000D01*
X146835000Y-92340000D01*
X146625000Y-91470000D01*
X146355000Y-90600000D01*
X145945000Y-89410000D01*
X146145000Y-89130000D01*
X146345000Y-88780000D01*
X146425000Y-88590000D01*
X146465000Y-88530000D01*
X146625000Y-88470000D01*
X147475000Y-88280000D01*
X147915000Y-88120000D01*
X148165000Y-88030000D01*
X148805000Y-87730000D01*
X149115000Y-87540000D01*
X149625000Y-87220000D01*
X149665000Y-87190000D01*
X149725000Y-87430000D01*
G37*
X143565000Y-67300000D02*
X143765000Y-67370000D01*
X143865000Y-67480000D01*
X143875000Y-67640000D01*
X143815000Y-67970000D01*
X143795000Y-68130000D01*
X143775000Y-68430000D01*
X143755000Y-68930000D01*
X143755000Y-69580000D01*
X143785000Y-70110000D01*
X143915000Y-70930000D01*
X144115000Y-71750000D01*
X144495000Y-73040000D01*
X144815000Y-73950000D01*
X144865000Y-74140000D01*
X144755000Y-74380000D01*
X144405000Y-74910000D01*
X144295000Y-75010000D01*
X144185000Y-75090000D01*
X143965000Y-75170000D01*
X143325000Y-75360000D01*
X143035000Y-75460000D01*
X142685000Y-75610000D01*
X142455000Y-75720000D01*
X142085000Y-75920000D01*
X141875000Y-76080000D01*
X141835000Y-75860000D01*
X141675000Y-75410000D01*
X141495000Y-75040000D01*
X141375000Y-74860000D01*
X141285000Y-74790000D01*
X141195000Y-74770000D01*
X141055000Y-74830000D01*
X138625000Y-69700000D01*
X138975000Y-69240000D01*
X139345000Y-68810000D01*
X139725000Y-68430000D01*
X140055000Y-68170000D01*
X140465000Y-67880000D01*
X140965000Y-67610000D01*
X141385000Y-67430000D01*
X141955000Y-67270000D01*
X142515000Y-67200000D01*
X143105000Y-67200000D01*
X143565000Y-67300000D01*
G36*
X143565000Y-67300000D02*
G01*
X143765000Y-67370000D01*
X143865000Y-67480000D01*
X143875000Y-67640000D01*
X143815000Y-67970000D01*
X143795000Y-68130000D01*
X143775000Y-68430000D01*
X143755000Y-68930000D01*
X143755000Y-69580000D01*
X143785000Y-70110000D01*
X143915000Y-70930000D01*
X144115000Y-71750000D01*
X144495000Y-73040000D01*
X144815000Y-73950000D01*
X144865000Y-74140000D01*
X144755000Y-74380000D01*
X144405000Y-74910000D01*
X144295000Y-75010000D01*
X144185000Y-75090000D01*
X143965000Y-75170000D01*
X143325000Y-75360000D01*
X143035000Y-75460000D01*
X142685000Y-75610000D01*
X142455000Y-75720000D01*
X142085000Y-75920000D01*
X141875000Y-76080000D01*
X141835000Y-75860000D01*
X141675000Y-75410000D01*
X141495000Y-75040000D01*
X141375000Y-74860000D01*
X141285000Y-74790000D01*
X141195000Y-74770000D01*
X141055000Y-74830000D01*
X138625000Y-69700000D01*
X138975000Y-69240000D01*
X139345000Y-68810000D01*
X139725000Y-68430000D01*
X140055000Y-68170000D01*
X140465000Y-67880000D01*
X140965000Y-67610000D01*
X141385000Y-67430000D01*
X141955000Y-67270000D01*
X142515000Y-67200000D01*
X143105000Y-67200000D01*
X143565000Y-67300000D01*
G37*
X114245000Y-77030000D02*
X114935000Y-77120000D01*
X115845000Y-77330000D01*
X116805000Y-77570000D01*
X116905000Y-77600000D01*
X117045000Y-78020000D01*
X117255000Y-78710000D01*
X117415000Y-79460000D01*
X117505000Y-80150000D01*
X117565000Y-81090000D01*
X117565000Y-81890000D01*
X117535000Y-82600000D01*
X117455000Y-83080000D01*
X117325000Y-83580000D01*
X117145000Y-83990000D01*
X116925000Y-84370000D01*
X116785000Y-84570000D01*
X116535000Y-84820000D01*
X116215000Y-85030000D01*
X116005000Y-85140000D01*
X115815000Y-85200000D01*
X115575000Y-85230000D01*
X115535000Y-85240000D01*
X115045000Y-85260000D01*
X114745000Y-85250000D01*
X114495000Y-85210000D01*
X114245000Y-85140000D01*
X114005000Y-85050000D01*
X113575000Y-84780000D01*
X113235000Y-84450000D01*
X112985000Y-84050000D01*
X112925000Y-83730000D01*
X112895000Y-83380000D01*
X112885000Y-82940000D01*
X112905000Y-82480000D01*
X112985000Y-81740000D01*
X113005000Y-81200000D01*
X113015000Y-80700000D01*
X112995000Y-79920000D01*
X112955000Y-79100000D01*
X112885000Y-78130000D01*
X112825000Y-77510000D01*
X112805000Y-77250000D01*
X112815000Y-77110000D01*
X112835000Y-77020000D01*
X112855000Y-77020000D01*
X113455000Y-77000000D01*
X114245000Y-77030000D01*
G36*
X114245000Y-77030000D02*
G01*
X114935000Y-77120000D01*
X115845000Y-77330000D01*
X116805000Y-77570000D01*
X116905000Y-77600000D01*
X117045000Y-78020000D01*
X117255000Y-78710000D01*
X117415000Y-79460000D01*
X117505000Y-80150000D01*
X117565000Y-81090000D01*
X117565000Y-81890000D01*
X117535000Y-82600000D01*
X117455000Y-83080000D01*
X117325000Y-83580000D01*
X117145000Y-83990000D01*
X116925000Y-84370000D01*
X116785000Y-84570000D01*
X116535000Y-84820000D01*
X116215000Y-85030000D01*
X116005000Y-85140000D01*
X115815000Y-85200000D01*
X115575000Y-85230000D01*
X115535000Y-85240000D01*
X115045000Y-85260000D01*
X114745000Y-85250000D01*
X114495000Y-85210000D01*
X114245000Y-85140000D01*
X114005000Y-85050000D01*
X113575000Y-84780000D01*
X113235000Y-84450000D01*
X112985000Y-84050000D01*
X112925000Y-83730000D01*
X112895000Y-83380000D01*
X112885000Y-82940000D01*
X112905000Y-82480000D01*
X112985000Y-81740000D01*
X113005000Y-81200000D01*
X113015000Y-80700000D01*
X112995000Y-79920000D01*
X112955000Y-79100000D01*
X112885000Y-78130000D01*
X112825000Y-77510000D01*
X112805000Y-77250000D01*
X112815000Y-77110000D01*
X112835000Y-77020000D01*
X112855000Y-77020000D01*
X113455000Y-77000000D01*
X114245000Y-77030000D01*
G37*
X158085000Y-81850000D02*
X158595000Y-81900000D01*
X159045000Y-81980000D01*
X159715000Y-82210000D01*
X160115000Y-82430000D01*
X160605000Y-82820000D01*
X160995000Y-83320000D01*
X161285000Y-83890000D01*
X161475000Y-84500000D01*
X161545000Y-85190000D01*
X161545000Y-85410000D01*
X161475000Y-85810000D01*
X161335000Y-86190000D01*
X161085000Y-86550000D01*
X160775000Y-86860000D01*
X160325000Y-87210000D01*
X159715000Y-87570000D01*
X158345000Y-88250000D01*
X157325000Y-88740000D01*
X156735000Y-89030000D01*
X156385000Y-89230000D01*
X155885000Y-89550000D01*
X155305000Y-89990000D01*
X154885000Y-90380000D01*
X152715000Y-87920000D01*
X152745000Y-87770000D01*
X152725000Y-87700000D01*
X152605000Y-87540000D01*
X152415000Y-87330000D01*
X152185000Y-87100000D01*
X151945000Y-86880000D01*
X151845000Y-86800000D01*
X151635000Y-86620000D01*
X151405000Y-86450000D01*
X151155000Y-86300000D01*
X150945000Y-86190000D01*
X150795000Y-86120000D01*
X151005000Y-85840000D01*
X151325000Y-85390000D01*
X151535000Y-85080000D01*
X151925000Y-84220000D01*
X152205000Y-83350000D01*
X152305000Y-82930000D01*
X152315000Y-82890000D01*
X153015000Y-82650000D01*
X154355000Y-82240000D01*
X155365000Y-82030000D01*
X156465000Y-81890000D01*
X157495000Y-81840000D01*
X158085000Y-81850000D01*
G36*
X158085000Y-81850000D02*
G01*
X158595000Y-81900000D01*
X159045000Y-81980000D01*
X159715000Y-82210000D01*
X160115000Y-82430000D01*
X160605000Y-82820000D01*
X160995000Y-83320000D01*
X161285000Y-83890000D01*
X161475000Y-84500000D01*
X161545000Y-85190000D01*
X161545000Y-85410000D01*
X161475000Y-85810000D01*
X161335000Y-86190000D01*
X161085000Y-86550000D01*
X160775000Y-86860000D01*
X160325000Y-87210000D01*
X159715000Y-87570000D01*
X158345000Y-88250000D01*
X157325000Y-88740000D01*
X156735000Y-89030000D01*
X156385000Y-89230000D01*
X155885000Y-89550000D01*
X155305000Y-89990000D01*
X154885000Y-90380000D01*
X152715000Y-87920000D01*
X152745000Y-87770000D01*
X152725000Y-87700000D01*
X152605000Y-87540000D01*
X152415000Y-87330000D01*
X152185000Y-87100000D01*
X151945000Y-86880000D01*
X151845000Y-86800000D01*
X151635000Y-86620000D01*
X151405000Y-86450000D01*
X151155000Y-86300000D01*
X150945000Y-86190000D01*
X150795000Y-86120000D01*
X151005000Y-85840000D01*
X151325000Y-85390000D01*
X151535000Y-85080000D01*
X151925000Y-84220000D01*
X152205000Y-83350000D01*
X152305000Y-82930000D01*
X152315000Y-82890000D01*
X153015000Y-82650000D01*
X154355000Y-82240000D01*
X155365000Y-82030000D01*
X156465000Y-81890000D01*
X157495000Y-81840000D01*
X158085000Y-81850000D01*
G37*
X142165000Y-87620000D02*
X142615000Y-87850000D01*
X143125000Y-88060000D01*
X143735000Y-88260000D01*
X144195000Y-88380000D01*
X144635000Y-88460000D01*
X145045000Y-88510000D01*
X145135000Y-88690000D01*
X145255000Y-88950000D01*
X145335000Y-89120000D01*
X145385000Y-89270000D01*
X145385000Y-89390000D01*
X145275000Y-89650000D01*
X145115000Y-90150000D01*
X145015000Y-90520000D01*
X144835000Y-91330000D01*
X144725000Y-91990000D01*
X144645000Y-92540000D01*
X144575000Y-93510000D01*
X144605000Y-94320000D01*
X144735000Y-95120000D01*
X144945000Y-95750000D01*
X145235000Y-96270000D01*
X145605000Y-96710000D01*
X145855000Y-96940000D01*
X145555000Y-97210000D01*
X145395000Y-97340000D01*
X145025000Y-97570000D01*
X144605000Y-97750000D01*
X144185000Y-97880000D01*
X143905000Y-97920000D01*
X143375000Y-97970000D01*
X142935000Y-97940000D01*
X142555000Y-97830000D01*
X142185000Y-97650000D01*
X141765000Y-97310000D01*
X141515000Y-97060000D01*
X141275000Y-96770000D01*
X140905000Y-96200000D01*
X140665000Y-95790000D01*
X140085000Y-94690000D01*
X139535000Y-93770000D01*
X139105000Y-93120000D01*
X138835000Y-92770000D01*
X141075000Y-88690000D01*
X141215000Y-88620000D01*
X141345000Y-88440000D01*
X141595000Y-88060000D01*
X141805000Y-87720000D01*
X141885000Y-87590000D01*
X142035000Y-87590000D01*
X142165000Y-87620000D01*
G36*
X142165000Y-87620000D02*
G01*
X142615000Y-87850000D01*
X143125000Y-88060000D01*
X143735000Y-88260000D01*
X144195000Y-88380000D01*
X144635000Y-88460000D01*
X145045000Y-88510000D01*
X145135000Y-88690000D01*
X145255000Y-88950000D01*
X145335000Y-89120000D01*
X145385000Y-89270000D01*
X145385000Y-89390000D01*
X145275000Y-89650000D01*
X145115000Y-90150000D01*
X145015000Y-90520000D01*
X144835000Y-91330000D01*
X144725000Y-91990000D01*
X144645000Y-92540000D01*
X144575000Y-93510000D01*
X144605000Y-94320000D01*
X144735000Y-95120000D01*
X144945000Y-95750000D01*
X145235000Y-96270000D01*
X145605000Y-96710000D01*
X145855000Y-96940000D01*
X145555000Y-97210000D01*
X145395000Y-97340000D01*
X145025000Y-97570000D01*
X144605000Y-97750000D01*
X144185000Y-97880000D01*
X143905000Y-97920000D01*
X143375000Y-97970000D01*
X142935000Y-97940000D01*
X142555000Y-97830000D01*
X142185000Y-97650000D01*
X141765000Y-97310000D01*
X141515000Y-97060000D01*
X141275000Y-96770000D01*
X140905000Y-96200000D01*
X140665000Y-95790000D01*
X140085000Y-94690000D01*
X139535000Y-93770000D01*
X139105000Y-93120000D01*
X138835000Y-92770000D01*
X141075000Y-88690000D01*
X141215000Y-88620000D01*
X141345000Y-88440000D01*
X141595000Y-88060000D01*
X141805000Y-87720000D01*
X141885000Y-87590000D01*
X142035000Y-87590000D01*
X142165000Y-87620000D01*
G37*
X137815000Y-82640000D02*
X138305000Y-82970000D01*
X138885000Y-83230000D01*
X138955000Y-83310000D01*
X139005000Y-83450000D01*
X139175000Y-83950000D01*
X139405000Y-84540000D01*
X139755000Y-85210000D01*
X140175000Y-85860000D01*
X140485000Y-86230000D01*
X140655000Y-86410000D01*
X140745000Y-86520000D01*
X140745000Y-86610000D01*
X140655000Y-86710000D01*
X140185000Y-87140000D01*
X139755000Y-87540000D01*
X139205000Y-88100000D01*
X138865000Y-88480000D01*
X138705000Y-88680000D01*
X138605000Y-88840000D01*
X138605000Y-88930000D01*
X138625000Y-88980000D01*
X136955000Y-91100000D01*
X136475000Y-90790000D01*
X135725000Y-90350000D01*
X134475000Y-89580000D01*
X133885000Y-89260000D01*
X133025000Y-88670000D01*
X132375000Y-88150000D01*
X132035000Y-87790000D01*
X131735000Y-87420000D01*
X131395000Y-86960000D01*
X131165000Y-86490000D01*
X131025000Y-86220000D01*
X130845000Y-85720000D01*
X130735000Y-85290000D01*
X130695000Y-84930000D01*
X130695000Y-84510000D01*
X130755000Y-84070000D01*
X130885000Y-83650000D01*
X130985000Y-83480000D01*
X131095000Y-83370000D01*
X131125000Y-83350000D01*
X131265000Y-83320000D01*
X131955000Y-83490000D01*
X132945000Y-83570000D01*
X133635000Y-83560000D01*
X134605000Y-83430000D01*
X135705000Y-83190000D01*
X136705000Y-82880000D01*
X137465000Y-82650000D01*
X137675000Y-82590000D01*
X137815000Y-82640000D01*
G36*
X137815000Y-82640000D02*
G01*
X138305000Y-82970000D01*
X138885000Y-83230000D01*
X138955000Y-83310000D01*
X139005000Y-83450000D01*
X139175000Y-83950000D01*
X139405000Y-84540000D01*
X139755000Y-85210000D01*
X140175000Y-85860000D01*
X140485000Y-86230000D01*
X140655000Y-86410000D01*
X140745000Y-86520000D01*
X140745000Y-86610000D01*
X140655000Y-86710000D01*
X140185000Y-87140000D01*
X139755000Y-87540000D01*
X139205000Y-88100000D01*
X138865000Y-88480000D01*
X138705000Y-88680000D01*
X138605000Y-88840000D01*
X138605000Y-88930000D01*
X138625000Y-88980000D01*
X136955000Y-91100000D01*
X136475000Y-90790000D01*
X135725000Y-90350000D01*
X134475000Y-89580000D01*
X133885000Y-89260000D01*
X133025000Y-88670000D01*
X132375000Y-88150000D01*
X132035000Y-87790000D01*
X131735000Y-87420000D01*
X131395000Y-86960000D01*
X131165000Y-86490000D01*
X131025000Y-86220000D01*
X130845000Y-85720000D01*
X130735000Y-85290000D01*
X130695000Y-84930000D01*
X130695000Y-84510000D01*
X130755000Y-84070000D01*
X130885000Y-83650000D01*
X130985000Y-83480000D01*
X131095000Y-83370000D01*
X131125000Y-83350000D01*
X131265000Y-83320000D01*
X131955000Y-83490000D01*
X132945000Y-83570000D01*
X133635000Y-83560000D01*
X134605000Y-83430000D01*
X135705000Y-83190000D01*
X136705000Y-82880000D01*
X137465000Y-82650000D01*
X137675000Y-82590000D01*
X137815000Y-82640000D01*
G37*
X147885000Y-65560000D02*
X148325000Y-65690000D01*
X148685000Y-65870000D01*
X148955000Y-66100000D01*
X149245000Y-66360000D01*
X149515000Y-66690000D01*
X149775000Y-67080000D01*
X150095000Y-67590000D01*
X150405000Y-68190000D01*
X150895000Y-69040000D01*
X151435000Y-69920000D01*
X151885000Y-70570000D01*
X152495000Y-71230000D01*
X152855000Y-71600000D01*
X153235000Y-71940000D01*
X150935000Y-74580000D01*
X150805000Y-74570000D01*
X150785000Y-74580000D01*
X150665000Y-74670000D01*
X150525000Y-74870000D01*
X150375000Y-75130000D01*
X150225000Y-75450000D01*
X150135000Y-75710000D01*
X150105000Y-75790000D01*
X150035000Y-76070000D01*
X149945000Y-76480000D01*
X149915000Y-76450000D01*
X149925000Y-76470000D01*
X149745000Y-76360000D01*
X149535000Y-76190000D01*
X149335000Y-76070000D01*
X148965000Y-75850000D01*
X148345000Y-75540000D01*
X147615000Y-75270000D01*
X146885000Y-75090000D01*
X146175000Y-74970000D01*
X145745000Y-74930000D01*
X145375000Y-74050000D01*
X145455000Y-73540000D01*
X145525000Y-73170000D01*
X145575000Y-72770000D01*
X145625000Y-72200000D01*
X145655000Y-71560000D01*
X145665000Y-70720000D01*
X145655000Y-70350000D01*
X145635000Y-69910000D01*
X145595000Y-69480000D01*
X145535000Y-69150000D01*
X145465000Y-68890000D01*
X145265000Y-68380000D01*
X145015000Y-67890000D01*
X144745000Y-67530000D01*
X144525000Y-67280000D01*
X144565000Y-67180000D01*
X144765000Y-66830000D01*
X145065000Y-66480000D01*
X145375000Y-66170000D01*
X145915000Y-65830000D01*
X146485000Y-65640000D01*
X146925000Y-65540000D01*
X147415000Y-65520000D01*
X147885000Y-65560000D01*
G36*
X147885000Y-65560000D02*
G01*
X148325000Y-65690000D01*
X148685000Y-65870000D01*
X148955000Y-66100000D01*
X149245000Y-66360000D01*
X149515000Y-66690000D01*
X149775000Y-67080000D01*
X150095000Y-67590000D01*
X150405000Y-68190000D01*
X150895000Y-69040000D01*
X151435000Y-69920000D01*
X151885000Y-70570000D01*
X152495000Y-71230000D01*
X152855000Y-71600000D01*
X153235000Y-71940000D01*
X150935000Y-74580000D01*
X150805000Y-74570000D01*
X150785000Y-74580000D01*
X150665000Y-74670000D01*
X150525000Y-74870000D01*
X150375000Y-75130000D01*
X150225000Y-75450000D01*
X150135000Y-75710000D01*
X150105000Y-75790000D01*
X150035000Y-76070000D01*
X149945000Y-76480000D01*
X149915000Y-76450000D01*
X149925000Y-76470000D01*
X149745000Y-76360000D01*
X149535000Y-76190000D01*
X149335000Y-76070000D01*
X148965000Y-75850000D01*
X148345000Y-75540000D01*
X147615000Y-75270000D01*
X146885000Y-75090000D01*
X146175000Y-74970000D01*
X145745000Y-74930000D01*
X145375000Y-74050000D01*
X145455000Y-73540000D01*
X145525000Y-73170000D01*
X145575000Y-72770000D01*
X145625000Y-72200000D01*
X145655000Y-71560000D01*
X145665000Y-70720000D01*
X145655000Y-70350000D01*
X145635000Y-69910000D01*
X145595000Y-69480000D01*
X145535000Y-69150000D01*
X145465000Y-68890000D01*
X145265000Y-68380000D01*
X145015000Y-67890000D01*
X144745000Y-67530000D01*
X144525000Y-67280000D01*
X144565000Y-67180000D01*
X144765000Y-66830000D01*
X145065000Y-66480000D01*
X145375000Y-66170000D01*
X145915000Y-65830000D01*
X146485000Y-65640000D01*
X146925000Y-65540000D01*
X147415000Y-65520000D01*
X147885000Y-65560000D01*
G37*
X136965000Y-75050000D02*
X137905000Y-75530000D01*
X137925000Y-75610000D01*
X138035000Y-75710000D01*
X138285000Y-75800000D01*
X138905000Y-75940000D01*
X139555000Y-76120000D01*
X140085000Y-76320000D01*
X140465000Y-76530000D01*
X140745000Y-76770000D01*
X140805000Y-76880000D01*
X140765000Y-77000000D01*
X140475000Y-77310000D01*
X140205000Y-77650000D01*
X139785000Y-78290000D01*
X139695000Y-78440000D01*
X139335000Y-79200000D01*
X139035000Y-80080000D01*
X138925000Y-80640000D01*
X138875000Y-80940000D01*
X138805000Y-81450000D01*
X138795000Y-81610000D01*
X138595000Y-81690000D01*
X138135000Y-81880000D01*
X137695000Y-82060000D01*
X137625000Y-82090000D01*
X136975000Y-81980000D01*
X136325000Y-81880000D01*
X135735000Y-81820000D01*
X135025000Y-81770000D01*
X134415000Y-81760000D01*
X133795000Y-81770000D01*
X133295000Y-81810000D01*
X133045000Y-81850000D01*
X132515000Y-81970000D01*
X132425000Y-81990000D01*
X131845000Y-82190000D01*
X131365000Y-82450000D01*
X131235000Y-82540000D01*
X131025000Y-82650000D01*
X130925000Y-82620000D01*
X130775000Y-82530000D01*
X130565000Y-82360000D01*
X130345000Y-82170000D01*
X130135000Y-81950000D01*
X129855000Y-81500000D01*
X129645000Y-80960000D01*
X129505000Y-80390000D01*
X129455000Y-79770000D01*
X129485000Y-79410000D01*
X129595000Y-79020000D01*
X129785000Y-78650000D01*
X130075000Y-78280000D01*
X130445000Y-77930000D01*
X130985000Y-77540000D01*
X131435000Y-77260000D01*
X132085000Y-76890000D01*
X132545000Y-76630000D01*
X132945000Y-76410000D01*
X133385000Y-76150000D01*
X133665000Y-75970000D01*
X133995000Y-75750000D01*
X134255000Y-75570000D01*
X134465000Y-75410000D01*
X134815000Y-75140000D01*
X135215000Y-74780000D01*
X135595000Y-74370000D01*
X136965000Y-75050000D01*
G36*
X136965000Y-75050000D02*
G01*
X137905000Y-75530000D01*
X137925000Y-75610000D01*
X138035000Y-75710000D01*
X138285000Y-75800000D01*
X138905000Y-75940000D01*
X139555000Y-76120000D01*
X140085000Y-76320000D01*
X140465000Y-76530000D01*
X140745000Y-76770000D01*
X140805000Y-76880000D01*
X140765000Y-77000000D01*
X140475000Y-77310000D01*
X140205000Y-77650000D01*
X139785000Y-78290000D01*
X139695000Y-78440000D01*
X139335000Y-79200000D01*
X139035000Y-80080000D01*
X138925000Y-80640000D01*
X138875000Y-80940000D01*
X138805000Y-81450000D01*
X138795000Y-81610000D01*
X138595000Y-81690000D01*
X138135000Y-81880000D01*
X137695000Y-82060000D01*
X137625000Y-82090000D01*
X136975000Y-81980000D01*
X136325000Y-81880000D01*
X135735000Y-81820000D01*
X135025000Y-81770000D01*
X134415000Y-81760000D01*
X133795000Y-81770000D01*
X133295000Y-81810000D01*
X133045000Y-81850000D01*
X132515000Y-81970000D01*
X132425000Y-81990000D01*
X131845000Y-82190000D01*
X131365000Y-82450000D01*
X131235000Y-82540000D01*
X131025000Y-82650000D01*
X130925000Y-82620000D01*
X130775000Y-82530000D01*
X130565000Y-82360000D01*
X130345000Y-82170000D01*
X130135000Y-81950000D01*
X129855000Y-81500000D01*
X129645000Y-80960000D01*
X129505000Y-80390000D01*
X129455000Y-79770000D01*
X129485000Y-79410000D01*
X129595000Y-79020000D01*
X129785000Y-78650000D01*
X130075000Y-78280000D01*
X130445000Y-77930000D01*
X130985000Y-77540000D01*
X131435000Y-77260000D01*
X132085000Y-76890000D01*
X132545000Y-76630000D01*
X132945000Y-76410000D01*
X133385000Y-76150000D01*
X133665000Y-75970000D01*
X133995000Y-75750000D01*
X134255000Y-75570000D01*
X134465000Y-75410000D01*
X134815000Y-75140000D01*
X135215000Y-74780000D01*
X135595000Y-74370000D01*
X136965000Y-75050000D01*
G37*
X97965000Y-46770000D02*
X99645000Y-47040000D01*
X100895000Y-47490000D01*
X102065000Y-48020000D01*
X103145000Y-48660000D01*
X104155000Y-49430000D01*
X105115000Y-50270000D01*
X105925000Y-51170000D01*
X106695000Y-52260000D01*
X107305000Y-53340000D01*
X107645000Y-54140000D01*
X108085000Y-55320000D01*
X108425000Y-56770000D01*
X108485000Y-57700000D01*
X108485000Y-59400000D01*
X108425000Y-60330000D01*
X108265000Y-61250000D01*
X107675000Y-63090000D01*
X107075000Y-64310000D01*
X106425000Y-65380000D01*
X105725000Y-66270000D01*
X104825000Y-67250000D01*
X103815000Y-68110000D01*
X102835000Y-68750000D01*
X101465000Y-69450000D01*
X100515000Y-69860000D01*
X99385000Y-70180000D01*
X98105000Y-70390000D01*
X97165000Y-70460000D01*
X96295000Y-70480000D01*
X95605000Y-70460000D01*
X94965000Y-70390000D01*
X93985000Y-70180000D01*
X92775000Y-69860000D01*
X91975000Y-69560000D01*
X90945000Y-69050000D01*
X89805000Y-68340000D01*
X88735000Y-67480000D01*
X87855000Y-66630000D01*
X87125000Y-65740000D01*
X86505000Y-64830000D01*
X85805000Y-63510000D01*
X85345000Y-62430000D01*
X85025000Y-61250000D01*
X84825000Y-60070000D01*
X84715000Y-58750000D01*
X91765000Y-58840000D01*
X92085000Y-60160000D01*
X92635000Y-61090000D01*
X93375000Y-61850000D01*
X94355000Y-62420000D01*
X95245000Y-62680000D01*
X96035000Y-62729004D01*
X96575000Y-62720000D01*
X97575000Y-62480000D01*
X98265000Y-62140000D01*
X98965000Y-61610000D01*
X99655000Y-60740000D01*
X99975000Y-60130000D01*
X100285000Y-58980000D01*
X100235000Y-57790000D01*
X99855000Y-56620000D01*
X99465000Y-55980000D01*
X98485000Y-55020000D01*
X97755000Y-54620000D01*
X96935000Y-54340000D01*
X96425000Y-54280000D01*
X96035000Y-54290996D01*
X96775000Y-46710000D01*
X97965000Y-46770000D01*
G36*
X97965000Y-46770000D02*
G01*
X99645000Y-47040000D01*
X100895000Y-47490000D01*
X102065000Y-48020000D01*
X103145000Y-48660000D01*
X104155000Y-49430000D01*
X105115000Y-50270000D01*
X105925000Y-51170000D01*
X106695000Y-52260000D01*
X107305000Y-53340000D01*
X107645000Y-54140000D01*
X108085000Y-55320000D01*
X108425000Y-56770000D01*
X108485000Y-57700000D01*
X108485000Y-59400000D01*
X108425000Y-60330000D01*
X108265000Y-61250000D01*
X107675000Y-63090000D01*
X107075000Y-64310000D01*
X106425000Y-65380000D01*
X105725000Y-66270000D01*
X104825000Y-67250000D01*
X103815000Y-68110000D01*
X102835000Y-68750000D01*
X101465000Y-69450000D01*
X100515000Y-69860000D01*
X99385000Y-70180000D01*
X98105000Y-70390000D01*
X97165000Y-70460000D01*
X96295000Y-70480000D01*
X95605000Y-70460000D01*
X94965000Y-70390000D01*
X93985000Y-70180000D01*
X92775000Y-69860000D01*
X91975000Y-69560000D01*
X90945000Y-69050000D01*
X89805000Y-68340000D01*
X88735000Y-67480000D01*
X87855000Y-66630000D01*
X87125000Y-65740000D01*
X86505000Y-64830000D01*
X85805000Y-63510000D01*
X85345000Y-62430000D01*
X85025000Y-61250000D01*
X84825000Y-60070000D01*
X84715000Y-58750000D01*
X91765000Y-58840000D01*
X92085000Y-60160000D01*
X92635000Y-61090000D01*
X93375000Y-61850000D01*
X94355000Y-62420000D01*
X95245000Y-62680000D01*
X96035000Y-62729004D01*
X96575000Y-62720000D01*
X97575000Y-62480000D01*
X98265000Y-62140000D01*
X98965000Y-61610000D01*
X99655000Y-60740000D01*
X99975000Y-60130000D01*
X100285000Y-58980000D01*
X100235000Y-57790000D01*
X99855000Y-56620000D01*
X99465000Y-55980000D01*
X98485000Y-55020000D01*
X97755000Y-54620000D01*
X96935000Y-54340000D01*
X96425000Y-54280000D01*
X96035000Y-54290996D01*
X96775000Y-46710000D01*
X97965000Y-46770000D01*
G37*
X128425000Y-45440000D02*
X129675000Y-45600000D01*
X131015000Y-45950000D01*
X132205000Y-46410000D01*
X133325000Y-46990000D01*
X134365000Y-47680000D01*
X135305000Y-48440000D01*
X136185000Y-49330000D01*
X136935000Y-50260000D01*
X137615000Y-51330000D01*
X138175000Y-52430000D01*
X138675000Y-53690000D01*
X139035000Y-55030000D01*
X139105000Y-55370000D01*
X139165000Y-56120000D01*
X139175000Y-57580000D01*
X139165000Y-58230000D01*
X139135000Y-59050000D01*
X139045000Y-59630000D01*
X138685000Y-60910000D01*
X138205000Y-62140000D01*
X137625000Y-63260000D01*
X136875000Y-64400000D01*
X136155000Y-65290000D01*
X135195000Y-66230000D01*
X134285000Y-66930000D01*
X133295000Y-67610000D01*
X132115000Y-68200000D01*
X131005000Y-68630000D01*
X129685000Y-68970000D01*
X128415000Y-69170000D01*
X128015000Y-69200000D01*
X126855000Y-69210000D01*
X125535000Y-69070000D01*
X124235000Y-68800000D01*
X122805000Y-68290000D01*
X121725000Y-67800000D01*
X120535000Y-67080000D01*
X119545000Y-66280000D01*
X118635000Y-65400000D01*
X117905000Y-64550000D01*
X117245000Y-63590000D01*
X116595000Y-62410000D01*
X116095000Y-61160000D01*
X115765000Y-60040000D01*
X115515000Y-58760000D01*
X115435000Y-57560000D01*
X115465000Y-56260000D01*
X115655000Y-55000000D01*
X124025000Y-55110000D01*
X123415000Y-56290000D01*
X123175000Y-57420000D01*
X123205000Y-57990000D01*
X123335000Y-58750000D01*
X123595000Y-59430000D01*
X123945000Y-60030000D01*
X124315000Y-60450000D01*
X124825000Y-60910000D01*
X125305000Y-61250000D01*
X125855000Y-61520000D01*
X126415000Y-61710000D01*
X127165000Y-61840000D01*
X127875000Y-61830000D01*
X128495000Y-61720000D01*
X129045000Y-61530000D01*
X129595000Y-61260000D01*
X130225000Y-60810000D01*
X130805000Y-60210000D01*
X131305000Y-59410000D01*
X131565000Y-58690000D01*
X131685000Y-58190000D01*
X131705000Y-57220000D01*
X131555000Y-56410000D01*
X131065000Y-55350000D01*
X130505000Y-54590000D01*
X129705000Y-53990000D01*
X129145000Y-53680000D01*
X128245000Y-53400000D01*
X127655000Y-53330000D01*
X127635000Y-53370000D01*
X127665000Y-45400000D01*
X128425000Y-45440000D01*
G36*
X128425000Y-45440000D02*
G01*
X129675000Y-45600000D01*
X131015000Y-45950000D01*
X132205000Y-46410000D01*
X133325000Y-46990000D01*
X134365000Y-47680000D01*
X135305000Y-48440000D01*
X136185000Y-49330000D01*
X136935000Y-50260000D01*
X137615000Y-51330000D01*
X138175000Y-52430000D01*
X138675000Y-53690000D01*
X139035000Y-55030000D01*
X139105000Y-55370000D01*
X139165000Y-56120000D01*
X139175000Y-57580000D01*
X139165000Y-58230000D01*
X139135000Y-59050000D01*
X139045000Y-59630000D01*
X138685000Y-60910000D01*
X138205000Y-62140000D01*
X137625000Y-63260000D01*
X136875000Y-64400000D01*
X136155000Y-65290000D01*
X135195000Y-66230000D01*
X134285000Y-66930000D01*
X133295000Y-67610000D01*
X132115000Y-68200000D01*
X131005000Y-68630000D01*
X129685000Y-68970000D01*
X128415000Y-69170000D01*
X128015000Y-69200000D01*
X126855000Y-69210000D01*
X125535000Y-69070000D01*
X124235000Y-68800000D01*
X122805000Y-68290000D01*
X121725000Y-67800000D01*
X120535000Y-67080000D01*
X119545000Y-66280000D01*
X118635000Y-65400000D01*
X117905000Y-64550000D01*
X117245000Y-63590000D01*
X116595000Y-62410000D01*
X116095000Y-61160000D01*
X115765000Y-60040000D01*
X115515000Y-58760000D01*
X115435000Y-57560000D01*
X115465000Y-56260000D01*
X115655000Y-55000000D01*
X124025000Y-55110000D01*
X123415000Y-56290000D01*
X123175000Y-57420000D01*
X123205000Y-57990000D01*
X123335000Y-58750000D01*
X123595000Y-59430000D01*
X123945000Y-60030000D01*
X124315000Y-60450000D01*
X124825000Y-60910000D01*
X125305000Y-61250000D01*
X125855000Y-61520000D01*
X126415000Y-61710000D01*
X127165000Y-61840000D01*
X127875000Y-61830000D01*
X128495000Y-61720000D01*
X129045000Y-61530000D01*
X129595000Y-61260000D01*
X130225000Y-60810000D01*
X130805000Y-60210000D01*
X131305000Y-59410000D01*
X131565000Y-58690000D01*
X131685000Y-58190000D01*
X131705000Y-57220000D01*
X131555000Y-56410000D01*
X131065000Y-55350000D01*
X130505000Y-54590000D01*
X129705000Y-53990000D01*
X129145000Y-53680000D01*
X128245000Y-53400000D01*
X127655000Y-53330000D01*
X127635000Y-53370000D01*
X127665000Y-45400000D01*
X128425000Y-45440000D01*
G37*
D11*
X88750000Y-151600000D02*
X88750000Y-153100000D01*
X90000000Y-155600000D02*
X94500000Y-155600000D01*
X94500000Y-149100000D02*
X90000000Y-149100000D01*
X95750000Y-153100000D02*
X95750000Y-151600000D01*
X82440000Y-116440000D02*
X83500000Y-116440000D01*
X82440000Y-117500000D02*
X82440000Y-116440000D01*
X82440000Y-118500000D02*
X82440000Y-124560000D01*
X82440000Y-118500000D02*
X84560000Y-118500000D01*
X82440000Y-124560000D02*
X84560000Y-124560000D01*
X84560000Y-118500000D02*
X84560000Y-124560000D01*
X88750000Y-132000000D02*
X88750000Y-133500000D01*
X90000000Y-136000000D02*
X94500000Y-136000000D01*
X94500000Y-129500000D02*
X90000000Y-129500000D01*
X95750000Y-133500000D02*
X95750000Y-132000000D01*
X96750000Y-141700000D02*
X96750000Y-143200000D01*
X98000000Y-145700000D02*
X102500000Y-145700000D01*
X102500000Y-139200000D02*
X98000000Y-139200000D01*
X103750000Y-143200000D02*
X103750000Y-141700000D01*
X137650000Y-145900000D02*
X137650000Y-147400000D01*
X138900000Y-149900000D02*
X143400000Y-149900000D01*
X143400000Y-143400000D02*
X138900000Y-143400000D01*
X144650000Y-147400000D02*
X144650000Y-145900000D01*
X135200000Y-116799999D02*
G75*
G02*
X135200000Y-113800000I6400000J1499999D01*
G01*
X147830000Y-115300000D02*
G75*
G02*
X135370000Y-115300000I-6230000J0D01*
G01*
X135370000Y-115300000D02*
G75*
G02*
X147830000Y-115300000I6230000J0D01*
G01*
M02*
