M48
; DRILL file {KiCad 8.0.5-8.0.5-0~ubuntu24.04.1} date 2024-10-08T07:53:12+0900
; FORMAT={-:-/ absolute / inch / decimal}
; #@! TF.CreationDate,2024-10-08T07:53:12+09:00
; #@! TF.GenerationSoftware,Kicad,Pcbnew,8.0.5-8.0.5-0~ubuntu24.04.1
; #@! TF.FileFunction,Plated,1,2,PTH
FMAT,2
INCH
; #@! TA.AperFunction,Plated,PTH,ViaDrill
T1C0.0118
; #@! TA.AperFunction,Plated,PTH,ComponentDrill
T2C0.0315
; #@! TA.AperFunction,Plated,PTH,ComponentDrill
T3C0.0394
; #@! TA.AperFunction,Plated,PTH,ComponentDrill
T4C0.0433
%
G90
G05
T1
X3.5551Y-2.8504
X3.6496Y-2.8189
X3.6614Y-2.9134
X3.6811Y-2.7874
X3.7874Y-5.9882
X3.9173Y-4.6378
X4.2953Y-6.622
X4.5748Y-5.9882
X4.626Y-6.4882
X4.7402Y-4.9173
X4.7598Y-2.815
X4.8661Y-2.878
X4.8976Y-2.752
T2
X3.126Y-5.0945
X3.126Y-5.1732
X3.126Y-5.252
X3.126Y-5.3307
T3
X4.0906Y-4.3307
X4.1906Y-4.3307
X4.211Y-5.7866
X4.211Y-5.8866
X4.211Y-5.9866
X4.211Y-6.0866
X4.211Y-6.1866
X4.211Y-6.2866
X4.211Y-6.3866
X4.211Y-6.4866
X4.211Y-6.5866
X4.2906Y-4.3307
X4.311Y-5.7866
X4.3906Y-4.3307
X4.411Y-5.7866
X4.511Y-5.7866
X4.611Y-5.7866
X4.711Y-5.7866
X4.811Y-5.7866
X4.811Y-5.8866
X4.811Y-5.9866
X4.811Y-6.0866
X4.811Y-6.1866
X4.811Y-6.2866
X4.811Y-6.3866
X4.811Y-6.4866
X4.811Y-6.5866
X5.3228Y-5.2441
X5.5197Y-5.2441
T4
X2.9961Y-5.9882
X2.9961Y-6.1654
X3.252Y-5.9882
X3.252Y-6.1654
X3.3425Y-5.6063
X3.3425Y-5.7835
X3.3425Y-6.378
X3.3425Y-6.5551
X3.5984Y-5.6063
X3.5984Y-5.7835
X3.5984Y-6.378
X3.5984Y-6.5551
X3.6575Y-5.9882
X3.6575Y-6.1654
X3.9134Y-5.9882
X3.9134Y-6.1654
X5.0472Y-5.7283
X5.0472Y-5.9055
X5.2677Y-6.1535
X5.2677Y-6.3307
X5.3031Y-5.7283
X5.3031Y-5.9055
X5.5236Y-6.1535
X5.5236Y-6.3307
M30
