G04 #@! TF.GenerationSoftware,KiCad,Pcbnew,8.0.5-8.0.5-0~ubuntu24.04.1*
G04 #@! TF.CreationDate,2024-10-08T07:53:09+09:00*
G04 #@! TF.ProjectId,gopher_party_rp2040_sw,676f7068-6572-45f7-9061-7274795f7270,rev?*
G04 #@! TF.SameCoordinates,Original*
G04 #@! TF.FileFunction,Copper,L1,Top*
G04 #@! TF.FilePolarity,Positive*
%FSLAX46Y46*%
G04 Gerber Fmt 4.6, Leading zero omitted, Abs format (unit mm)*
G04 Created by KiCad (PCBNEW 8.0.5-8.0.5-0~ubuntu24.04.1) date 2024-10-08 07:53:09*
%MOMM*%
%LPD*%
G01*
G04 APERTURE LIST*
G04 #@! TA.AperFunction,EtchedComponent*
%ADD10C,0.010000*%
G04 #@! TD*
G04 #@! TA.AperFunction,SMDPad,CuDef*
%ADD11R,1.500000X1.000000*%
G04 #@! TD*
G04 #@! TA.AperFunction,ComponentPad*
%ADD12O,1.700000X1.700000*%
G04 #@! TD*
G04 #@! TA.AperFunction,ComponentPad*
%ADD13O,1.600000X2.000000*%
G04 #@! TD*
G04 #@! TA.AperFunction,ComponentPad*
%ADD14C,2.000000*%
G04 #@! TD*
G04 #@! TA.AperFunction,ComponentPad*
%ADD15R,1.350000X1.350000*%
G04 #@! TD*
G04 #@! TA.AperFunction,ComponentPad*
%ADD16O,1.350000X1.350000*%
G04 #@! TD*
G04 #@! TA.AperFunction,ComponentPad*
%ADD17R,2.000000X2.000000*%
G04 #@! TD*
G04 #@! TA.AperFunction,ViaPad*
%ADD18C,0.600000*%
G04 #@! TD*
G04 #@! TA.AperFunction,Conductor*
%ADD19C,0.250000*%
G04 #@! TD*
G04 #@! TA.AperFunction,Conductor*
%ADD20C,0.600000*%
G04 #@! TD*
G04 #@! TA.AperFunction,Conductor*
%ADD21C,0.200000*%
G04 #@! TD*
G04 APERTURE END LIST*
D10*
X132447769Y-101770595D02*
X132770482Y-101948681D01*
X133002998Y-102196401D01*
X133093072Y-102473591D01*
X133093077Y-102475643D01*
X133001541Y-102822602D01*
X132749033Y-103151647D01*
X132368700Y-103422677D01*
X132270371Y-103470897D01*
X131866168Y-103617548D01*
X131550761Y-103635882D01*
X131285769Y-103539417D01*
X131075942Y-103384722D01*
X130974224Y-103185469D01*
X130949245Y-102911095D01*
X131451259Y-102911095D01*
X131504779Y-103097020D01*
X131635748Y-103167692D01*
X131784420Y-103122807D01*
X132024328Y-103010132D01*
X132122751Y-102956861D01*
X132423759Y-102747706D01*
X132562297Y-102557372D01*
X132527776Y-102403015D01*
X132485809Y-102368678D01*
X132198525Y-102243949D01*
X131907141Y-102211802D01*
X131734687Y-102259772D01*
X131572739Y-102432586D01*
X131476087Y-102669656D01*
X131451259Y-102911095D01*
X130949245Y-102911095D01*
X130945512Y-102870093D01*
X130945342Y-102845341D01*
X131018945Y-102358962D01*
X131238555Y-102000711D01*
X131595749Y-101779018D01*
X132082105Y-101702314D01*
X132087106Y-101702308D01*
X132447769Y-101770595D01*
G04 #@! TA.AperFunction,EtchedComponent*
G36*
X132447769Y-101770595D02*
G01*
X132770482Y-101948681D01*
X133002998Y-102196401D01*
X133093072Y-102473591D01*
X133093077Y-102475643D01*
X133001541Y-102822602D01*
X132749033Y-103151647D01*
X132368700Y-103422677D01*
X132270371Y-103470897D01*
X131866168Y-103617548D01*
X131550761Y-103635882D01*
X131285769Y-103539417D01*
X131075942Y-103384722D01*
X130974224Y-103185469D01*
X130949245Y-102911095D01*
X131451259Y-102911095D01*
X131504779Y-103097020D01*
X131635748Y-103167692D01*
X131784420Y-103122807D01*
X132024328Y-103010132D01*
X132122751Y-102956861D01*
X132423759Y-102747706D01*
X132562297Y-102557372D01*
X132527776Y-102403015D01*
X132485809Y-102368678D01*
X132198525Y-102243949D01*
X131907141Y-102211802D01*
X131734687Y-102259772D01*
X131572739Y-102432586D01*
X131476087Y-102669656D01*
X131451259Y-102911095D01*
X130949245Y-102911095D01*
X130945512Y-102870093D01*
X130945342Y-102845341D01*
X131018945Y-102358962D01*
X131238555Y-102000711D01*
X131595749Y-101779018D01*
X132082105Y-101702314D01*
X132087106Y-101702308D01*
X132447769Y-101770595D01*
G37*
G04 #@! TD.AperFunction*
X124687291Y-59763483D02*
X126191206Y-60036411D01*
X127628159Y-60484681D01*
X128986103Y-61100912D01*
X130252989Y-61877724D01*
X131416770Y-62807733D01*
X132465399Y-63883559D01*
X133386827Y-65097819D01*
X134165105Y-66435385D01*
X134736749Y-67739630D01*
X135136381Y-69056193D01*
X135372983Y-70423826D01*
X135455538Y-71881281D01*
X135455756Y-72003166D01*
X135358787Y-73528916D01*
X135080987Y-75002346D01*
X134632664Y-76411209D01*
X134024125Y-77743257D01*
X133265677Y-78986243D01*
X132367629Y-80127919D01*
X131340288Y-81156037D01*
X130193960Y-82058350D01*
X128938955Y-82822609D01*
X127585578Y-83436568D01*
X126144139Y-83887978D01*
X125304877Y-84064753D01*
X124722085Y-84138246D01*
X124013794Y-84183855D01*
X123240632Y-84201569D01*
X122463227Y-84191377D01*
X121742209Y-84153268D01*
X121138205Y-84087231D01*
X121008043Y-84065527D01*
X119530155Y-83699599D01*
X118127427Y-83162761D01*
X116812103Y-82467270D01*
X115596429Y-81625383D01*
X114492647Y-80649357D01*
X113513004Y-79551449D01*
X112669743Y-78343916D01*
X111975108Y-77039014D01*
X111441344Y-75649001D01*
X111080695Y-74186133D01*
X111068146Y-74115429D01*
X110981038Y-73420700D01*
X110932671Y-72604141D01*
X110924860Y-71899269D01*
X111498727Y-71899269D01*
X111575786Y-73311407D01*
X111827038Y-74720021D01*
X112257460Y-76109691D01*
X112760672Y-77250206D01*
X113505797Y-78510981D01*
X114404372Y-79663743D01*
X115439277Y-80695772D01*
X116593390Y-81594347D01*
X117849592Y-82346748D01*
X119190760Y-82940256D01*
X120599776Y-83362150D01*
X121135253Y-83472275D01*
X121824510Y-83560843D01*
X122631730Y-83607617D01*
X123483991Y-83612493D01*
X124308371Y-83575368D01*
X125031948Y-83496136D01*
X125142352Y-83478008D01*
X126602564Y-83126587D01*
X127990386Y-82599547D01*
X129291761Y-81907323D01*
X130492633Y-81060347D01*
X131578945Y-80069053D01*
X132536640Y-78943873D01*
X133351663Y-77695240D01*
X133625572Y-77181538D01*
X134192117Y-75866117D01*
X134580178Y-74522613D01*
X134796827Y-73120532D01*
X134851538Y-71896821D01*
X134757960Y-70383743D01*
X134478898Y-68929912D01*
X134016863Y-67541350D01*
X133374368Y-66224075D01*
X132553924Y-64984109D01*
X131558041Y-63827471D01*
X131432308Y-63700000D01*
X130284215Y-62679650D01*
X129060983Y-61839659D01*
X127762581Y-61180013D01*
X126388980Y-60700701D01*
X124940151Y-60401709D01*
X123416063Y-60283027D01*
X123167975Y-60280769D01*
X121829094Y-60345619D01*
X120579119Y-60548505D01*
X119366412Y-60901936D01*
X118139337Y-61418416D01*
X117822305Y-61575480D01*
X116555690Y-62325501D01*
X115418456Y-63210766D01*
X114415582Y-64215856D01*
X113552048Y-65325352D01*
X112832831Y-66523835D01*
X112262912Y-67795888D01*
X111847269Y-69126090D01*
X111590881Y-70499023D01*
X111498727Y-71899269D01*
X110924860Y-71899269D01*
X110923044Y-71735430D01*
X110952158Y-70884243D01*
X111020012Y-70120256D01*
X111068146Y-69794571D01*
X111420991Y-68319128D01*
X111943845Y-66924042D01*
X112624270Y-65619752D01*
X113449829Y-64416694D01*
X114408085Y-63325306D01*
X115486600Y-62356025D01*
X116672937Y-61519290D01*
X117954659Y-60825538D01*
X119319330Y-60285206D01*
X120754510Y-59908732D01*
X122247765Y-59706554D01*
X123128462Y-59673280D01*
X124687291Y-59763483D01*
G04 #@! TA.AperFunction,EtchedComponent*
G36*
X124687291Y-59763483D02*
G01*
X126191206Y-60036411D01*
X127628159Y-60484681D01*
X128986103Y-61100912D01*
X130252989Y-61877724D01*
X131416770Y-62807733D01*
X132465399Y-63883559D01*
X133386827Y-65097819D01*
X134165105Y-66435385D01*
X134736749Y-67739630D01*
X135136381Y-69056193D01*
X135372983Y-70423826D01*
X135455538Y-71881281D01*
X135455756Y-72003166D01*
X135358787Y-73528916D01*
X135080987Y-75002346D01*
X134632664Y-76411209D01*
X134024125Y-77743257D01*
X133265677Y-78986243D01*
X132367629Y-80127919D01*
X131340288Y-81156037D01*
X130193960Y-82058350D01*
X128938955Y-82822609D01*
X127585578Y-83436568D01*
X126144139Y-83887978D01*
X125304877Y-84064753D01*
X124722085Y-84138246D01*
X124013794Y-84183855D01*
X123240632Y-84201569D01*
X122463227Y-84191377D01*
X121742209Y-84153268D01*
X121138205Y-84087231D01*
X121008043Y-84065527D01*
X119530155Y-83699599D01*
X118127427Y-83162761D01*
X116812103Y-82467270D01*
X115596429Y-81625383D01*
X114492647Y-80649357D01*
X113513004Y-79551449D01*
X112669743Y-78343916D01*
X111975108Y-77039014D01*
X111441344Y-75649001D01*
X111080695Y-74186133D01*
X111068146Y-74115429D01*
X110981038Y-73420700D01*
X110932671Y-72604141D01*
X110924860Y-71899269D01*
X111498727Y-71899269D01*
X111575786Y-73311407D01*
X111827038Y-74720021D01*
X112257460Y-76109691D01*
X112760672Y-77250206D01*
X113505797Y-78510981D01*
X114404372Y-79663743D01*
X115439277Y-80695772D01*
X116593390Y-81594347D01*
X117849592Y-82346748D01*
X119190760Y-82940256D01*
X120599776Y-83362150D01*
X121135253Y-83472275D01*
X121824510Y-83560843D01*
X122631730Y-83607617D01*
X123483991Y-83612493D01*
X124308371Y-83575368D01*
X125031948Y-83496136D01*
X125142352Y-83478008D01*
X126602564Y-83126587D01*
X127990386Y-82599547D01*
X129291761Y-81907323D01*
X130492633Y-81060347D01*
X131578945Y-80069053D01*
X132536640Y-78943873D01*
X133351663Y-77695240D01*
X133625572Y-77181538D01*
X134192117Y-75866117D01*
X134580178Y-74522613D01*
X134796827Y-73120532D01*
X134851538Y-71896821D01*
X134757960Y-70383743D01*
X134478898Y-68929912D01*
X134016863Y-67541350D01*
X133374368Y-66224075D01*
X132553924Y-64984109D01*
X131558041Y-63827471D01*
X131432308Y-63700000D01*
X130284215Y-62679650D01*
X129060983Y-61839659D01*
X127762581Y-61180013D01*
X126388980Y-60700701D01*
X124940151Y-60401709D01*
X123416063Y-60283027D01*
X123167975Y-60280769D01*
X121829094Y-60345619D01*
X120579119Y-60548505D01*
X119366412Y-60901936D01*
X118139337Y-61418416D01*
X117822305Y-61575480D01*
X116555690Y-62325501D01*
X115418456Y-63210766D01*
X114415582Y-64215856D01*
X113552048Y-65325352D01*
X112832831Y-66523835D01*
X112262912Y-67795888D01*
X111847269Y-69126090D01*
X111590881Y-70499023D01*
X111498727Y-71899269D01*
X110924860Y-71899269D01*
X110923044Y-71735430D01*
X110952158Y-70884243D01*
X111020012Y-70120256D01*
X111068146Y-69794571D01*
X111420991Y-68319128D01*
X111943845Y-66924042D01*
X112624270Y-65619752D01*
X113449829Y-64416694D01*
X114408085Y-63325306D01*
X115486600Y-62356025D01*
X116672937Y-61519290D01*
X117954659Y-60825538D01*
X119319330Y-60285206D01*
X120754510Y-59908732D01*
X122247765Y-59706554D01*
X123128462Y-59673280D01*
X124687291Y-59763483D01*
G37*
G04 #@! TD.AperFunction*
X113703706Y-43418883D02*
X113999566Y-43584330D01*
X114430248Y-43855246D01*
X114802915Y-44100750D01*
X116109334Y-44971907D01*
X116561377Y-44777898D01*
X117237153Y-44491766D01*
X117830979Y-44248015D01*
X118322458Y-44054512D01*
X118691197Y-43919123D01*
X118916800Y-43849714D01*
X118979406Y-43845248D01*
X118969819Y-43947872D01*
X118917897Y-44201096D01*
X118833067Y-44567118D01*
X118724754Y-45008134D01*
X118602383Y-45486342D01*
X118475380Y-45963939D01*
X118353171Y-46403120D01*
X118276697Y-46663576D01*
X118321250Y-46808727D01*
X118497972Y-47085561D01*
X118801687Y-47486795D01*
X119227216Y-48005149D01*
X119249278Y-48031268D01*
X120270326Y-49238750D01*
X119618796Y-49299884D01*
X119205725Y-49330038D01*
X118693075Y-49355315D01*
X118176651Y-49371209D01*
X118060759Y-49373154D01*
X117154252Y-49385288D01*
X116709239Y-50093557D01*
X116428240Y-50540988D01*
X116116722Y-51037323D01*
X115841421Y-51476231D01*
X115837775Y-51482046D01*
X115604885Y-51829036D01*
X115444675Y-52012865D01*
X115362703Y-52027297D01*
X115359085Y-52019354D01*
X115307119Y-51880795D01*
X115199393Y-51596002D01*
X115049688Y-51201329D01*
X114871787Y-50733133D01*
X114791549Y-50522191D01*
X114276254Y-49167940D01*
X112783844Y-48800941D01*
X112271819Y-48673200D01*
X111830347Y-48559589D01*
X111492659Y-48468936D01*
X111291986Y-48410069D01*
X111251281Y-48393790D01*
X111309846Y-48322903D01*
X111443311Y-48202110D01*
X112073850Y-48202110D01*
X112437546Y-48302531D01*
X112698507Y-48370229D01*
X113082383Y-48464593D01*
X113521533Y-48569111D01*
X113693700Y-48609181D01*
X114586158Y-48815409D01*
X115018251Y-49978509D01*
X115185908Y-50416826D01*
X115333924Y-50779788D01*
X115447489Y-51032741D01*
X115511791Y-51141033D01*
X115515814Y-51142679D01*
X115588290Y-51064405D01*
X115739730Y-50849640D01*
X115949091Y-50529741D01*
X116195327Y-50136067D01*
X116236249Y-50069134D01*
X116891214Y-48994519D01*
X117782701Y-48988889D01*
X118230547Y-48978796D01*
X118648144Y-48956804D01*
X118965129Y-48927018D01*
X119038701Y-48915620D01*
X119403212Y-48847980D01*
X118591691Y-47885370D01*
X117780171Y-46922759D01*
X118103479Y-45742695D01*
X118222851Y-45291581D01*
X118315106Y-44912787D01*
X118371737Y-44643596D01*
X118384240Y-44521294D01*
X118382727Y-44518569D01*
X118281027Y-44536908D01*
X118035576Y-44618956D01*
X117682334Y-44751755D01*
X117257263Y-44922344D01*
X117222974Y-44936514D01*
X116786320Y-45119602D01*
X116463690Y-45243884D01*
X116212089Y-45302972D01*
X115988524Y-45290474D01*
X115750000Y-45200000D01*
X115453525Y-45025162D01*
X115056103Y-44759568D01*
X114780398Y-44573486D01*
X113915069Y-43993022D01*
X113984907Y-45297039D01*
X114054746Y-46601057D01*
X113064298Y-47401583D01*
X112073850Y-48202110D01*
X111443311Y-48202110D01*
X111497596Y-48152980D01*
X111789719Y-47905239D01*
X112161407Y-47600898D01*
X112427082Y-47388203D01*
X112920200Y-46989174D01*
X113270999Y-46686019D01*
X113496735Y-46461872D01*
X113614663Y-46299866D01*
X113643035Y-46199735D01*
X113634926Y-46019049D01*
X113612820Y-45689881D01*
X113580054Y-45258362D01*
X113539964Y-44770625D01*
X113538210Y-44750068D01*
X113500571Y-44270251D01*
X113474149Y-43853665D01*
X113461225Y-43543069D01*
X113464080Y-43381219D01*
X113464941Y-43376514D01*
X113529790Y-43351935D01*
X113703706Y-43418883D01*
G04 #@! TA.AperFunction,EtchedComponent*
G36*
X113703706Y-43418883D02*
G01*
X113999566Y-43584330D01*
X114430248Y-43855246D01*
X114802915Y-44100750D01*
X116109334Y-44971907D01*
X116561377Y-44777898D01*
X117237153Y-44491766D01*
X117830979Y-44248015D01*
X118322458Y-44054512D01*
X118691197Y-43919123D01*
X118916800Y-43849714D01*
X118979406Y-43845248D01*
X118969819Y-43947872D01*
X118917897Y-44201096D01*
X118833067Y-44567118D01*
X118724754Y-45008134D01*
X118602383Y-45486342D01*
X118475380Y-45963939D01*
X118353171Y-46403120D01*
X118276697Y-46663576D01*
X118321250Y-46808727D01*
X118497972Y-47085561D01*
X118801687Y-47486795D01*
X119227216Y-48005149D01*
X119249278Y-48031268D01*
X120270326Y-49238750D01*
X119618796Y-49299884D01*
X119205725Y-49330038D01*
X118693075Y-49355315D01*
X118176651Y-49371209D01*
X118060759Y-49373154D01*
X117154252Y-49385288D01*
X116709239Y-50093557D01*
X116428240Y-50540988D01*
X116116722Y-51037323D01*
X115841421Y-51476231D01*
X115837775Y-51482046D01*
X115604885Y-51829036D01*
X115444675Y-52012865D01*
X115362703Y-52027297D01*
X115359085Y-52019354D01*
X115307119Y-51880795D01*
X115199393Y-51596002D01*
X115049688Y-51201329D01*
X114871787Y-50733133D01*
X114791549Y-50522191D01*
X114276254Y-49167940D01*
X112783844Y-48800941D01*
X112271819Y-48673200D01*
X111830347Y-48559589D01*
X111492659Y-48468936D01*
X111291986Y-48410069D01*
X111251281Y-48393790D01*
X111309846Y-48322903D01*
X111443311Y-48202110D01*
X112073850Y-48202110D01*
X112437546Y-48302531D01*
X112698507Y-48370229D01*
X113082383Y-48464593D01*
X113521533Y-48569111D01*
X113693700Y-48609181D01*
X114586158Y-48815409D01*
X115018251Y-49978509D01*
X115185908Y-50416826D01*
X115333924Y-50779788D01*
X115447489Y-51032741D01*
X115511791Y-51141033D01*
X115515814Y-51142679D01*
X115588290Y-51064405D01*
X115739730Y-50849640D01*
X115949091Y-50529741D01*
X116195327Y-50136067D01*
X116236249Y-50069134D01*
X116891214Y-48994519D01*
X117782701Y-48988889D01*
X118230547Y-48978796D01*
X118648144Y-48956804D01*
X118965129Y-48927018D01*
X119038701Y-48915620D01*
X119403212Y-48847980D01*
X118591691Y-47885370D01*
X117780171Y-46922759D01*
X118103479Y-45742695D01*
X118222851Y-45291581D01*
X118315106Y-44912787D01*
X118371737Y-44643596D01*
X118384240Y-44521294D01*
X118382727Y-44518569D01*
X118281027Y-44536908D01*
X118035576Y-44618956D01*
X117682334Y-44751755D01*
X117257263Y-44922344D01*
X117222974Y-44936514D01*
X116786320Y-45119602D01*
X116463690Y-45243884D01*
X116212089Y-45302972D01*
X115988524Y-45290474D01*
X115750000Y-45200000D01*
X115453525Y-45025162D01*
X115056103Y-44759568D01*
X114780398Y-44573486D01*
X113915069Y-43993022D01*
X113984907Y-45297039D01*
X114054746Y-46601057D01*
X113064298Y-47401583D01*
X112073850Y-48202110D01*
X111443311Y-48202110D01*
X111497596Y-48152980D01*
X111789719Y-47905239D01*
X112161407Y-47600898D01*
X112427082Y-47388203D01*
X112920200Y-46989174D01*
X113270999Y-46686019D01*
X113496735Y-46461872D01*
X113614663Y-46299866D01*
X113643035Y-46199735D01*
X113634926Y-46019049D01*
X113612820Y-45689881D01*
X113580054Y-45258362D01*
X113539964Y-44770625D01*
X113538210Y-44750068D01*
X113500571Y-44270251D01*
X113474149Y-43853665D01*
X113461225Y-43543069D01*
X113464080Y-43381219D01*
X113464941Y-43376514D01*
X113529790Y-43351935D01*
X113703706Y-43418883D01*
G37*
G04 #@! TD.AperFunction*
X94263913Y-61008994D02*
X95485447Y-61186181D01*
X96663260Y-61498545D01*
X97854473Y-61959456D01*
X98467486Y-62247093D01*
X99776800Y-63000455D01*
X100970312Y-63905664D01*
X102039109Y-64951014D01*
X102974278Y-66124799D01*
X103766907Y-67415314D01*
X104408085Y-68810852D01*
X104888897Y-70299706D01*
X105020564Y-70854185D01*
X105115834Y-71463596D01*
X105176108Y-72206327D01*
X105201442Y-73023482D01*
X105191893Y-73856167D01*
X105147518Y-74645488D01*
X105068374Y-75332548D01*
X105015967Y-75618461D01*
X104594748Y-77133543D01*
X104008614Y-78556878D01*
X103268009Y-79878229D01*
X102383376Y-81087359D01*
X101365158Y-82174030D01*
X100223800Y-83128004D01*
X98969745Y-83939043D01*
X97613436Y-84596911D01*
X96165318Y-85091370D01*
X95104400Y-85334447D01*
X94445538Y-85420935D01*
X93659377Y-85468716D01*
X92810005Y-85478411D01*
X91961510Y-85450642D01*
X91177977Y-85386030D01*
X90548077Y-85290261D01*
X89052489Y-84890275D01*
X87644258Y-84321981D01*
X86333855Y-83596692D01*
X85131748Y-82725720D01*
X84048408Y-81720377D01*
X83094304Y-80591975D01*
X82279906Y-79351828D01*
X81615684Y-78011247D01*
X81112108Y-76581546D01*
X80779647Y-75074035D01*
X80722991Y-74674416D01*
X80634317Y-73225000D01*
X81275654Y-73225000D01*
X81313093Y-74370306D01*
X81434883Y-75397476D01*
X81655231Y-76364843D01*
X81988344Y-77330738D01*
X82448431Y-78353492D01*
X82596252Y-78646923D01*
X83343333Y-79891242D01*
X84244085Y-81027989D01*
X85281486Y-82044667D01*
X86438515Y-82928778D01*
X87698151Y-83667827D01*
X89043372Y-84249315D01*
X90457158Y-84660747D01*
X90912943Y-84752941D01*
X91533485Y-84832195D01*
X92279045Y-84875725D01*
X93082545Y-84883489D01*
X93876905Y-84855443D01*
X94595044Y-84791544D01*
X94848751Y-84755479D01*
X96300041Y-84422353D01*
X97687743Y-83907027D01*
X98998700Y-83216064D01*
X100219757Y-82356029D01*
X100964202Y-81704507D01*
X101973233Y-80616471D01*
X102831333Y-79422861D01*
X103531440Y-78142316D01*
X104066490Y-76793474D01*
X104429421Y-75394976D01*
X104613170Y-73965459D01*
X104610675Y-72523563D01*
X104580015Y-72162286D01*
X104333368Y-70665725D01*
X103911523Y-69239132D01*
X103324804Y-67894602D01*
X102583538Y-66644235D01*
X101698048Y-65500128D01*
X100678662Y-64474379D01*
X99535703Y-63579085D01*
X98279497Y-62826344D01*
X96920370Y-62228254D01*
X95803333Y-61878934D01*
X95060365Y-61728602D01*
X94195145Y-61622837D01*
X93276459Y-61565223D01*
X92373095Y-61559349D01*
X91553839Y-61608800D01*
X91277982Y-61642975D01*
X89819775Y-61944171D01*
X88458379Y-62410028D01*
X87181890Y-63046580D01*
X85978407Y-63859860D01*
X84836025Y-64855904D01*
X84726544Y-64963942D01*
X84109448Y-65603770D01*
X83611398Y-66183000D01*
X83192817Y-66755117D01*
X82814132Y-67373604D01*
X82485614Y-67992451D01*
X81999059Y-69064344D01*
X81648007Y-70101624D01*
X81419518Y-71160253D01*
X81300651Y-72296193D01*
X81275654Y-73225000D01*
X80634317Y-73225000D01*
X80631840Y-73184524D01*
X80728027Y-71704940D01*
X81003626Y-70252843D01*
X81450712Y-68845411D01*
X82061359Y-67499821D01*
X82827640Y-66233252D01*
X83741630Y-65062880D01*
X84795403Y-64005884D01*
X85981034Y-63079442D01*
X86114461Y-62989367D01*
X87414304Y-62225601D01*
X88748080Y-61646101D01*
X90135369Y-61245029D01*
X91595754Y-61016546D01*
X92941538Y-60953613D01*
X94263913Y-61008994D01*
G04 #@! TA.AperFunction,EtchedComponent*
G36*
X94263913Y-61008994D02*
G01*
X95485447Y-61186181D01*
X96663260Y-61498545D01*
X97854473Y-61959456D01*
X98467486Y-62247093D01*
X99776800Y-63000455D01*
X100970312Y-63905664D01*
X102039109Y-64951014D01*
X102974278Y-66124799D01*
X103766907Y-67415314D01*
X104408085Y-68810852D01*
X104888897Y-70299706D01*
X105020564Y-70854185D01*
X105115834Y-71463596D01*
X105176108Y-72206327D01*
X105201442Y-73023482D01*
X105191893Y-73856167D01*
X105147518Y-74645488D01*
X105068374Y-75332548D01*
X105015967Y-75618461D01*
X104594748Y-77133543D01*
X104008614Y-78556878D01*
X103268009Y-79878229D01*
X102383376Y-81087359D01*
X101365158Y-82174030D01*
X100223800Y-83128004D01*
X98969745Y-83939043D01*
X97613436Y-84596911D01*
X96165318Y-85091370D01*
X95104400Y-85334447D01*
X94445538Y-85420935D01*
X93659377Y-85468716D01*
X92810005Y-85478411D01*
X91961510Y-85450642D01*
X91177977Y-85386030D01*
X90548077Y-85290261D01*
X89052489Y-84890275D01*
X87644258Y-84321981D01*
X86333855Y-83596692D01*
X85131748Y-82725720D01*
X84048408Y-81720377D01*
X83094304Y-80591975D01*
X82279906Y-79351828D01*
X81615684Y-78011247D01*
X81112108Y-76581546D01*
X80779647Y-75074035D01*
X80722991Y-74674416D01*
X80634317Y-73225000D01*
X81275654Y-73225000D01*
X81313093Y-74370306D01*
X81434883Y-75397476D01*
X81655231Y-76364843D01*
X81988344Y-77330738D01*
X82448431Y-78353492D01*
X82596252Y-78646923D01*
X83343333Y-79891242D01*
X84244085Y-81027989D01*
X85281486Y-82044667D01*
X86438515Y-82928778D01*
X87698151Y-83667827D01*
X89043372Y-84249315D01*
X90457158Y-84660747D01*
X90912943Y-84752941D01*
X91533485Y-84832195D01*
X92279045Y-84875725D01*
X93082545Y-84883489D01*
X93876905Y-84855443D01*
X94595044Y-84791544D01*
X94848751Y-84755479D01*
X96300041Y-84422353D01*
X97687743Y-83907027D01*
X98998700Y-83216064D01*
X100219757Y-82356029D01*
X100964202Y-81704507D01*
X101973233Y-80616471D01*
X102831333Y-79422861D01*
X103531440Y-78142316D01*
X104066490Y-76793474D01*
X104429421Y-75394976D01*
X104613170Y-73965459D01*
X104610675Y-72523563D01*
X104580015Y-72162286D01*
X104333368Y-70665725D01*
X103911523Y-69239132D01*
X103324804Y-67894602D01*
X102583538Y-66644235D01*
X101698048Y-65500128D01*
X100678662Y-64474379D01*
X99535703Y-63579085D01*
X98279497Y-62826344D01*
X96920370Y-62228254D01*
X95803333Y-61878934D01*
X95060365Y-61728602D01*
X94195145Y-61622837D01*
X93276459Y-61565223D01*
X92373095Y-61559349D01*
X91553839Y-61608800D01*
X91277982Y-61642975D01*
X89819775Y-61944171D01*
X88458379Y-62410028D01*
X87181890Y-63046580D01*
X85978407Y-63859860D01*
X84836025Y-64855904D01*
X84726544Y-64963942D01*
X84109448Y-65603770D01*
X83611398Y-66183000D01*
X83192817Y-66755117D01*
X82814132Y-67373604D01*
X82485614Y-67992451D01*
X81999059Y-69064344D01*
X81648007Y-70101624D01*
X81419518Y-71160253D01*
X81300651Y-72296193D01*
X81275654Y-73225000D01*
X80634317Y-73225000D01*
X80631840Y-73184524D01*
X80728027Y-71704940D01*
X81003626Y-70252843D01*
X81450712Y-68845411D01*
X82061359Y-67499821D01*
X82827640Y-66233252D01*
X83741630Y-65062880D01*
X84795403Y-64005884D01*
X85981034Y-63079442D01*
X86114461Y-62989367D01*
X87414304Y-62225601D01*
X88748080Y-61646101D01*
X90135369Y-61245029D01*
X91595754Y-61016546D01*
X92941538Y-60953613D01*
X94263913Y-61008994D01*
G37*
G04 #@! TD.AperFunction*
X112003091Y-34024597D02*
X112072966Y-34258235D01*
X112154842Y-34595995D01*
X112185735Y-34738858D01*
X112301125Y-35298357D01*
X112391551Y-35702388D01*
X112481020Y-35984632D01*
X112593537Y-36178770D01*
X112753107Y-36318483D01*
X112983735Y-36437453D01*
X113309426Y-36569359D01*
X113561497Y-36669142D01*
X113974553Y-36839563D01*
X114316190Y-36988840D01*
X114548048Y-37099663D01*
X114630862Y-37151715D01*
X114568996Y-37225032D01*
X114368295Y-37371702D01*
X114060626Y-37570024D01*
X113701863Y-37784435D01*
X113312871Y-38013157D01*
X112990000Y-38210000D01*
X112768889Y-38352768D01*
X112686124Y-38417034D01*
X112662096Y-38538232D01*
X112631352Y-38810333D01*
X112598373Y-39189175D01*
X112575502Y-39507137D01*
X112541985Y-39941723D01*
X112504775Y-40307375D01*
X112469129Y-40557550D01*
X112447630Y-40639591D01*
X112350526Y-40632357D01*
X112138058Y-40493413D01*
X111827344Y-40234656D01*
X111703200Y-40122271D01*
X111309342Y-39758143D01*
X111020029Y-39506094D01*
X110790194Y-39352538D01*
X110574769Y-39283891D01*
X110328689Y-39286565D01*
X110006886Y-39346976D01*
X109564294Y-39451538D01*
X109515914Y-39462903D01*
X109080033Y-39560496D01*
X108718428Y-39633094D01*
X108470511Y-39673350D01*
X108376520Y-39675318D01*
X108396426Y-39574169D01*
X108484231Y-39334021D01*
X108625132Y-38992893D01*
X108770721Y-38662694D01*
X108949897Y-38255352D01*
X109093973Y-37906398D01*
X109185913Y-37658463D01*
X109210475Y-37562370D01*
X109162391Y-37427559D01*
X109031557Y-37169937D01*
X108840223Y-36831464D01*
X108692400Y-36585447D01*
X108464433Y-36214217D01*
X108364503Y-36051086D01*
X108848649Y-36051086D01*
X108918738Y-36167424D01*
X109062629Y-36404715D01*
X109252474Y-36717051D01*
X109303827Y-36801440D01*
X109487162Y-37105361D01*
X109599147Y-37331576D01*
X109638873Y-37529718D01*
X109605427Y-37749418D01*
X109497901Y-38040309D01*
X109315382Y-38452021D01*
X109271765Y-38548858D01*
X109149792Y-38829684D01*
X109101854Y-39007393D01*
X109151456Y-39093097D01*
X109322100Y-39097912D01*
X109637289Y-39032951D01*
X110064707Y-38923823D01*
X110770829Y-38740407D01*
X111383553Y-39311941D01*
X111667391Y-39571104D01*
X111896660Y-39770036D01*
X112034850Y-39877468D01*
X112055939Y-39887801D01*
X112099723Y-39802556D01*
X112148439Y-39578855D01*
X112177205Y-39379242D01*
X112214164Y-39002594D01*
X112236618Y-38641257D01*
X112239659Y-38513197D01*
X112249089Y-38343658D01*
X112297740Y-38212128D01*
X112417592Y-38085993D01*
X112640624Y-37932639D01*
X112998814Y-37719449D01*
X113043299Y-37693582D01*
X113846090Y-37227129D01*
X113001457Y-36882775D01*
X112156823Y-36538422D01*
X111982350Y-35675274D01*
X111900100Y-35295137D01*
X111826091Y-35000697D01*
X111771582Y-34834740D01*
X111755538Y-34813282D01*
X111673772Y-34883878D01*
X111500578Y-35071280D01*
X111267666Y-35340599D01*
X111167734Y-35460009D01*
X110632268Y-36105581D01*
X109716917Y-36038390D01*
X109328469Y-36017326D01*
X109032260Y-36015611D01*
X108867885Y-36032664D01*
X108848649Y-36051086D01*
X108364503Y-36051086D01*
X108269655Y-35896252D01*
X108134327Y-35674464D01*
X108091190Y-35603055D01*
X108071083Y-35552504D01*
X108096921Y-35519374D01*
X108192611Y-35504339D01*
X108382058Y-35508075D01*
X108689172Y-35531259D01*
X109137858Y-35574566D01*
X109752025Y-35638671D01*
X109897353Y-35654104D01*
X110436121Y-35711399D01*
X111167353Y-34828195D01*
X111458385Y-34481927D01*
X111705018Y-34198314D01*
X111880612Y-34007330D01*
X111957723Y-33938944D01*
X112003091Y-34024597D01*
G04 #@! TA.AperFunction,EtchedComponent*
G36*
X112003091Y-34024597D02*
G01*
X112072966Y-34258235D01*
X112154842Y-34595995D01*
X112185735Y-34738858D01*
X112301125Y-35298357D01*
X112391551Y-35702388D01*
X112481020Y-35984632D01*
X112593537Y-36178770D01*
X112753107Y-36318483D01*
X112983735Y-36437453D01*
X113309426Y-36569359D01*
X113561497Y-36669142D01*
X113974553Y-36839563D01*
X114316190Y-36988840D01*
X114548048Y-37099663D01*
X114630862Y-37151715D01*
X114568996Y-37225032D01*
X114368295Y-37371702D01*
X114060626Y-37570024D01*
X113701863Y-37784435D01*
X113312871Y-38013157D01*
X112990000Y-38210000D01*
X112768889Y-38352768D01*
X112686124Y-38417034D01*
X112662096Y-38538232D01*
X112631352Y-38810333D01*
X112598373Y-39189175D01*
X112575502Y-39507137D01*
X112541985Y-39941723D01*
X112504775Y-40307375D01*
X112469129Y-40557550D01*
X112447630Y-40639591D01*
X112350526Y-40632357D01*
X112138058Y-40493413D01*
X111827344Y-40234656D01*
X111703200Y-40122271D01*
X111309342Y-39758143D01*
X111020029Y-39506094D01*
X110790194Y-39352538D01*
X110574769Y-39283891D01*
X110328689Y-39286565D01*
X110006886Y-39346976D01*
X109564294Y-39451538D01*
X109515914Y-39462903D01*
X109080033Y-39560496D01*
X108718428Y-39633094D01*
X108470511Y-39673350D01*
X108376520Y-39675318D01*
X108396426Y-39574169D01*
X108484231Y-39334021D01*
X108625132Y-38992893D01*
X108770721Y-38662694D01*
X108949897Y-38255352D01*
X109093973Y-37906398D01*
X109185913Y-37658463D01*
X109210475Y-37562370D01*
X109162391Y-37427559D01*
X109031557Y-37169937D01*
X108840223Y-36831464D01*
X108692400Y-36585447D01*
X108464433Y-36214217D01*
X108364503Y-36051086D01*
X108848649Y-36051086D01*
X108918738Y-36167424D01*
X109062629Y-36404715D01*
X109252474Y-36717051D01*
X109303827Y-36801440D01*
X109487162Y-37105361D01*
X109599147Y-37331576D01*
X109638873Y-37529718D01*
X109605427Y-37749418D01*
X109497901Y-38040309D01*
X109315382Y-38452021D01*
X109271765Y-38548858D01*
X109149792Y-38829684D01*
X109101854Y-39007393D01*
X109151456Y-39093097D01*
X109322100Y-39097912D01*
X109637289Y-39032951D01*
X110064707Y-38923823D01*
X110770829Y-38740407D01*
X111383553Y-39311941D01*
X111667391Y-39571104D01*
X111896660Y-39770036D01*
X112034850Y-39877468D01*
X112055939Y-39887801D01*
X112099723Y-39802556D01*
X112148439Y-39578855D01*
X112177205Y-39379242D01*
X112214164Y-39002594D01*
X112236618Y-38641257D01*
X112239659Y-38513197D01*
X112249089Y-38343658D01*
X112297740Y-38212128D01*
X112417592Y-38085993D01*
X112640624Y-37932639D01*
X112998814Y-37719449D01*
X113043299Y-37693582D01*
X113846090Y-37227129D01*
X113001457Y-36882775D01*
X112156823Y-36538422D01*
X111982350Y-35675274D01*
X111900100Y-35295137D01*
X111826091Y-35000697D01*
X111771582Y-34834740D01*
X111755538Y-34813282D01*
X111673772Y-34883878D01*
X111500578Y-35071280D01*
X111267666Y-35340599D01*
X111167734Y-35460009D01*
X110632268Y-36105581D01*
X109716917Y-36038390D01*
X109328469Y-36017326D01*
X109032260Y-36015611D01*
X108867885Y-36032664D01*
X108848649Y-36051086D01*
X108364503Y-36051086D01*
X108269655Y-35896252D01*
X108134327Y-35674464D01*
X108091190Y-35603055D01*
X108071083Y-35552504D01*
X108096921Y-35519374D01*
X108192611Y-35504339D01*
X108382058Y-35508075D01*
X108689172Y-35531259D01*
X109137858Y-35574566D01*
X109752025Y-35638671D01*
X109897353Y-35654104D01*
X110436121Y-35711399D01*
X111167353Y-34828195D01*
X111458385Y-34481927D01*
X111705018Y-34198314D01*
X111880612Y-34007330D01*
X111957723Y-33938944D01*
X112003091Y-34024597D01*
G37*
G04 #@! TD.AperFunction*
X106134613Y-41846965D02*
X106416217Y-42409417D01*
X106668211Y-42910413D01*
X106877676Y-43324455D01*
X107031690Y-43626046D01*
X107117333Y-43789687D01*
X107130116Y-43811517D01*
X107231554Y-43834528D01*
X107498204Y-43880103D01*
X107901766Y-43943822D01*
X108413940Y-44021263D01*
X109006425Y-44108005D01*
X109268397Y-44145575D01*
X109883661Y-44235939D01*
X110428128Y-44320995D01*
X110874023Y-44395984D01*
X111193572Y-44456144D01*
X111359000Y-44496714D01*
X111375840Y-44506793D01*
X111309521Y-44590354D01*
X111123876Y-44790310D01*
X110838873Y-45086043D01*
X110474478Y-45456934D01*
X110050661Y-45882367D01*
X109857094Y-46074981D01*
X108338348Y-47582363D01*
X108684786Y-49590946D01*
X108788645Y-50198773D01*
X108880060Y-50744630D01*
X108954067Y-51197972D01*
X109005700Y-51528252D01*
X109029996Y-51704924D01*
X109031225Y-51722405D01*
X108948895Y-51716224D01*
X108717008Y-51628036D01*
X108358223Y-51468128D01*
X107895195Y-51246785D01*
X107350581Y-50974295D01*
X107101423Y-50846273D01*
X105171621Y-49847264D01*
X103317452Y-50817951D01*
X102676997Y-51153346D01*
X102189193Y-51408431D01*
X101833383Y-51593116D01*
X101588908Y-51717308D01*
X101435109Y-51790914D01*
X101351329Y-51823844D01*
X101316910Y-51826003D01*
X101311193Y-51807301D01*
X101313532Y-51779048D01*
X101329379Y-51664727D01*
X101373711Y-51386919D01*
X101441720Y-50974665D01*
X101528596Y-50457006D01*
X101629528Y-49862980D01*
X101671027Y-49620588D01*
X102028522Y-47536847D01*
X100498720Y-46063890D01*
X100050741Y-45629606D01*
X99654547Y-45239877D01*
X99330496Y-44915195D01*
X99230282Y-44811696D01*
X99848148Y-44811696D01*
X99915327Y-44898586D01*
X100102150Y-45097578D01*
X100386549Y-45386267D01*
X100746452Y-45742250D01*
X101157315Y-46140741D01*
X102466483Y-47399048D01*
X102148864Y-49227497D01*
X102054301Y-49796441D01*
X101979895Y-50293198D01*
X101929387Y-50688283D01*
X101906517Y-50952211D01*
X101915028Y-51055495D01*
X101916860Y-51055947D01*
X102026575Y-51012059D01*
X102279534Y-50890085D01*
X102646941Y-50704555D01*
X103100000Y-50470000D01*
X103587427Y-50212918D01*
X105172379Y-49369890D01*
X105758532Y-49679073D01*
X106559102Y-50100190D01*
X107200862Y-50434983D01*
X107696894Y-50690017D01*
X108060279Y-50871856D01*
X108304099Y-50987066D01*
X108441437Y-51042212D01*
X108484113Y-51046885D01*
X108480132Y-50942668D01*
X108446611Y-50676879D01*
X108388095Y-50280331D01*
X108309129Y-49783841D01*
X108215369Y-49224695D01*
X107909424Y-47442290D01*
X109254887Y-46094247D01*
X110600349Y-44746204D01*
X109009826Y-44519919D01*
X108453353Y-44440007D01*
X107946554Y-44365856D01*
X107529157Y-44303381D01*
X107240891Y-44258501D01*
X107144458Y-44242109D01*
X107039139Y-44207459D01*
X106935353Y-44129374D01*
X106817732Y-43984110D01*
X106670907Y-43747922D01*
X106479509Y-43397068D01*
X106228171Y-42907803D01*
X106044876Y-42543266D01*
X105784185Y-42027784D01*
X105551868Y-41578279D01*
X105362316Y-41221796D01*
X105229918Y-40985380D01*
X105169066Y-40896076D01*
X105168348Y-40895947D01*
X105111897Y-40979715D01*
X104986150Y-41212663D01*
X104805162Y-41567258D01*
X104582990Y-42015965D01*
X104335786Y-42526873D01*
X104088107Y-43042982D01*
X103870451Y-43494141D01*
X103696381Y-43852431D01*
X103579457Y-44089935D01*
X103533311Y-44178678D01*
X103434584Y-44198786D01*
X103172715Y-44242299D01*
X102777912Y-44304467D01*
X102280377Y-44380537D01*
X101710317Y-44465757D01*
X101679879Y-44470258D01*
X101108490Y-44558245D01*
X100609879Y-44641800D01*
X100213819Y-44715374D01*
X99950082Y-44773416D01*
X99848443Y-44810377D01*
X99848148Y-44811696D01*
X99230282Y-44811696D01*
X99098941Y-44676050D01*
X98980240Y-44542935D01*
X98968917Y-44523883D01*
X99060891Y-44490331D01*
X99317455Y-44435772D01*
X99709577Y-44365362D01*
X100208224Y-44284256D01*
X100784360Y-44197612D01*
X100898340Y-44181214D01*
X101501796Y-44094205D01*
X102048641Y-44013847D01*
X102505726Y-43945130D01*
X102839903Y-43893047D01*
X103018026Y-43862591D01*
X103027918Y-43860497D01*
X103124641Y-43792464D01*
X103261062Y-43614338D01*
X103445980Y-43311127D01*
X103688196Y-42867842D01*
X103996509Y-42269495D01*
X104199011Y-41865730D01*
X105169949Y-39916060D01*
X106134613Y-41846965D01*
G04 #@! TA.AperFunction,EtchedComponent*
G36*
X106134613Y-41846965D02*
G01*
X106416217Y-42409417D01*
X106668211Y-42910413D01*
X106877676Y-43324455D01*
X107031690Y-43626046D01*
X107117333Y-43789687D01*
X107130116Y-43811517D01*
X107231554Y-43834528D01*
X107498204Y-43880103D01*
X107901766Y-43943822D01*
X108413940Y-44021263D01*
X109006425Y-44108005D01*
X109268397Y-44145575D01*
X109883661Y-44235939D01*
X110428128Y-44320995D01*
X110874023Y-44395984D01*
X111193572Y-44456144D01*
X111359000Y-44496714D01*
X111375840Y-44506793D01*
X111309521Y-44590354D01*
X111123876Y-44790310D01*
X110838873Y-45086043D01*
X110474478Y-45456934D01*
X110050661Y-45882367D01*
X109857094Y-46074981D01*
X108338348Y-47582363D01*
X108684786Y-49590946D01*
X108788645Y-50198773D01*
X108880060Y-50744630D01*
X108954067Y-51197972D01*
X109005700Y-51528252D01*
X109029996Y-51704924D01*
X109031225Y-51722405D01*
X108948895Y-51716224D01*
X108717008Y-51628036D01*
X108358223Y-51468128D01*
X107895195Y-51246785D01*
X107350581Y-50974295D01*
X107101423Y-50846273D01*
X105171621Y-49847264D01*
X103317452Y-50817951D01*
X102676997Y-51153346D01*
X102189193Y-51408431D01*
X101833383Y-51593116D01*
X101588908Y-51717308D01*
X101435109Y-51790914D01*
X101351329Y-51823844D01*
X101316910Y-51826003D01*
X101311193Y-51807301D01*
X101313532Y-51779048D01*
X101329379Y-51664727D01*
X101373711Y-51386919D01*
X101441720Y-50974665D01*
X101528596Y-50457006D01*
X101629528Y-49862980D01*
X101671027Y-49620588D01*
X102028522Y-47536847D01*
X100498720Y-46063890D01*
X100050741Y-45629606D01*
X99654547Y-45239877D01*
X99330496Y-44915195D01*
X99230282Y-44811696D01*
X99848148Y-44811696D01*
X99915327Y-44898586D01*
X100102150Y-45097578D01*
X100386549Y-45386267D01*
X100746452Y-45742250D01*
X101157315Y-46140741D01*
X102466483Y-47399048D01*
X102148864Y-49227497D01*
X102054301Y-49796441D01*
X101979895Y-50293198D01*
X101929387Y-50688283D01*
X101906517Y-50952211D01*
X101915028Y-51055495D01*
X101916860Y-51055947D01*
X102026575Y-51012059D01*
X102279534Y-50890085D01*
X102646941Y-50704555D01*
X103100000Y-50470000D01*
X103587427Y-50212918D01*
X105172379Y-49369890D01*
X105758532Y-49679073D01*
X106559102Y-50100190D01*
X107200862Y-50434983D01*
X107696894Y-50690017D01*
X108060279Y-50871856D01*
X108304099Y-50987066D01*
X108441437Y-51042212D01*
X108484113Y-51046885D01*
X108480132Y-50942668D01*
X108446611Y-50676879D01*
X108388095Y-50280331D01*
X108309129Y-49783841D01*
X108215369Y-49224695D01*
X107909424Y-47442290D01*
X109254887Y-46094247D01*
X110600349Y-44746204D01*
X109009826Y-44519919D01*
X108453353Y-44440007D01*
X107946554Y-44365856D01*
X107529157Y-44303381D01*
X107240891Y-44258501D01*
X107144458Y-44242109D01*
X107039139Y-44207459D01*
X106935353Y-44129374D01*
X106817732Y-43984110D01*
X106670907Y-43747922D01*
X106479509Y-43397068D01*
X106228171Y-42907803D01*
X106044876Y-42543266D01*
X105784185Y-42027784D01*
X105551868Y-41578279D01*
X105362316Y-41221796D01*
X105229918Y-40985380D01*
X105169066Y-40896076D01*
X105168348Y-40895947D01*
X105111897Y-40979715D01*
X104986150Y-41212663D01*
X104805162Y-41567258D01*
X104582990Y-42015965D01*
X104335786Y-42526873D01*
X104088107Y-43042982D01*
X103870451Y-43494141D01*
X103696381Y-43852431D01*
X103579457Y-44089935D01*
X103533311Y-44178678D01*
X103434584Y-44198786D01*
X103172715Y-44242299D01*
X102777912Y-44304467D01*
X102280377Y-44380537D01*
X101710317Y-44465757D01*
X101679879Y-44470258D01*
X101108490Y-44558245D01*
X100609879Y-44641800D01*
X100213819Y-44715374D01*
X99950082Y-44773416D01*
X99848443Y-44810377D01*
X99848148Y-44811696D01*
X99230282Y-44811696D01*
X99098941Y-44676050D01*
X98980240Y-44542935D01*
X98968917Y-44523883D01*
X99060891Y-44490331D01*
X99317455Y-44435772D01*
X99709577Y-44365362D01*
X100208224Y-44284256D01*
X100784360Y-44197612D01*
X100898340Y-44181214D01*
X101501796Y-44094205D01*
X102048641Y-44013847D01*
X102505726Y-43945130D01*
X102839903Y-43893047D01*
X103018026Y-43862591D01*
X103027918Y-43860497D01*
X103124641Y-43792464D01*
X103261062Y-43614338D01*
X103445980Y-43311127D01*
X103688196Y-42867842D01*
X103996509Y-42269495D01*
X104199011Y-41865730D01*
X105169949Y-39916060D01*
X106134613Y-41846965D01*
G37*
G04 #@! TD.AperFunction*
X108987779Y-80120485D02*
X109911973Y-80245078D01*
X110791490Y-80461233D01*
X111601275Y-80770897D01*
X112316274Y-81176017D01*
X112654331Y-81435322D01*
X113081611Y-81874235D01*
X113336295Y-82330467D01*
X113438849Y-82851360D01*
X113434196Y-83239184D01*
X113387956Y-83885447D01*
X114506202Y-84452608D01*
X115625287Y-85078523D01*
X116556687Y-85727636D01*
X117307356Y-86406069D01*
X117884248Y-87119944D01*
X118230755Y-87732308D01*
X118413396Y-88313988D01*
X118483061Y-88994103D01*
X118437756Y-89710283D01*
X118312313Y-90284416D01*
X118017485Y-91012865D01*
X117613966Y-91584163D01*
X117097898Y-92000317D01*
X116465425Y-92263334D01*
X115712692Y-92375220D01*
X114835841Y-92337982D01*
X114467572Y-92284858D01*
X114064506Y-92219690D01*
X113741760Y-92173050D01*
X113542030Y-92150797D01*
X113498629Y-92151883D01*
X113511882Y-92250859D01*
X113569970Y-92491975D01*
X113661717Y-92830189D01*
X113701338Y-92968784D01*
X114008774Y-94342494D01*
X114127577Y-95697716D01*
X114117710Y-96361871D01*
X114025682Y-97220346D01*
X113832929Y-97929273D01*
X113528136Y-98512830D01*
X113099984Y-98995197D01*
X112762364Y-99257642D01*
X112254687Y-99537152D01*
X111660688Y-99761641D01*
X111063371Y-99904365D01*
X110639565Y-99941701D01*
X110101193Y-99867867D01*
X109607372Y-99669472D01*
X109198165Y-99373435D01*
X108913632Y-99006677D01*
X108807861Y-98710795D01*
X108734046Y-98460350D01*
X108648833Y-98392491D01*
X108565171Y-98512203D01*
X108536833Y-98606503D01*
X108381461Y-98952637D01*
X108108868Y-99324055D01*
X107774730Y-99655040D01*
X107474579Y-99860368D01*
X107054864Y-100006605D01*
X106523429Y-100093151D01*
X105955836Y-100115988D01*
X105427649Y-100071098D01*
X105093030Y-99987001D01*
X104524142Y-99675524D01*
X104037243Y-99200818D01*
X103637344Y-98579234D01*
X103329456Y-97827122D01*
X103118588Y-96960834D01*
X103009751Y-95996721D01*
X103009214Y-95683855D01*
X103447814Y-95683855D01*
X103514940Y-96573125D01*
X103683538Y-97384467D01*
X103945487Y-98097571D01*
X104292667Y-98692129D01*
X104716960Y-99147832D01*
X105210245Y-99444372D01*
X105397308Y-99506697D01*
X105858551Y-99610533D01*
X106227218Y-99636238D01*
X106588840Y-99586012D01*
X106762797Y-99541805D01*
X107231806Y-99313361D01*
X107636099Y-98918530D01*
X107953965Y-98381517D01*
X108067067Y-98087692D01*
X108190323Y-97655772D01*
X108284255Y-97185679D01*
X108350968Y-96649606D01*
X108392564Y-96019744D01*
X108411146Y-95268284D01*
X108408818Y-94367417D01*
X108397674Y-93715961D01*
X108381164Y-93004499D01*
X108364591Y-92469575D01*
X108910211Y-92469575D01*
X108912109Y-93064733D01*
X108922395Y-93830079D01*
X108931971Y-94353164D01*
X108987028Y-97159615D01*
X109283748Y-97883503D01*
X109538437Y-98398940D01*
X109839979Y-98841435D01*
X110158746Y-99175577D01*
X110465114Y-99365957D01*
X110542758Y-99388301D01*
X110968538Y-99402067D01*
X111472348Y-99304362D01*
X111856958Y-99165595D01*
X112415356Y-98828420D01*
X112895239Y-98361755D01*
X113240975Y-97820801D01*
X113264035Y-97769376D01*
X113372010Y-97474270D01*
X113446855Y-97143929D01*
X113496961Y-96726634D01*
X113530721Y-96170663D01*
X113533353Y-96109457D01*
X113531969Y-95013730D01*
X113423368Y-94008262D01*
X113197561Y-93013834D01*
X113103110Y-92698311D01*
X112867398Y-91949315D01*
X111772014Y-91687397D01*
X111226507Y-91574417D01*
X110661421Y-91487282D01*
X110117373Y-91429131D01*
X109634978Y-91403099D01*
X109254852Y-91412324D01*
X109017612Y-91459941D01*
X108993265Y-91472802D01*
X108958228Y-91546217D01*
X108932932Y-91726217D01*
X108917039Y-92028703D01*
X108910211Y-92469575D01*
X108364591Y-92469575D01*
X108364457Y-92465256D01*
X108345375Y-92075077D01*
X108321740Y-91810805D01*
X108291376Y-91649286D01*
X108252105Y-91567363D01*
X108201749Y-91541882D01*
X108193210Y-91541497D01*
X108031542Y-91564540D01*
X107723866Y-91628766D01*
X107303437Y-91725629D01*
X106803510Y-91846584D01*
X106257341Y-91983084D01*
X105698184Y-92126582D01*
X105159295Y-92268534D01*
X104673929Y-92400393D01*
X104275341Y-92513613D01*
X103996787Y-92599648D01*
X103871521Y-92649953D01*
X103868587Y-92652853D01*
X103804462Y-92822157D01*
X103728360Y-93144279D01*
X103647833Y-93577628D01*
X103570428Y-94080615D01*
X103503695Y-94611649D01*
X103490280Y-94736965D01*
X103447814Y-95683855D01*
X103009214Y-95683855D01*
X103007955Y-94951134D01*
X103118211Y-93840425D01*
X103149051Y-93642692D01*
X103212910Y-93248706D01*
X103262729Y-92931240D01*
X103291237Y-92737119D01*
X103295217Y-92701442D01*
X103207532Y-92676750D01*
X102976726Y-92672956D01*
X102675077Y-92689338D01*
X101784869Y-92678279D01*
X100917325Y-92511965D01*
X100103209Y-92205317D01*
X99373285Y-91773257D01*
X98758318Y-91230707D01*
X98289073Y-90592591D01*
X98265665Y-90550569D01*
X98108054Y-90229787D01*
X98020230Y-89938653D01*
X97987482Y-89636231D01*
X98463508Y-89636231D01*
X98512176Y-89991912D01*
X98709722Y-90411461D01*
X99064055Y-90838924D01*
X99540965Y-91241046D01*
X100106241Y-91584568D01*
X100195865Y-91628665D01*
X100648956Y-91831882D01*
X101043642Y-91969910D01*
X101436472Y-92052836D01*
X101883996Y-92090745D01*
X102442763Y-92093725D01*
X102759615Y-92085935D01*
X103199485Y-92067551D01*
X103591651Y-92036296D01*
X103979645Y-91984714D01*
X104407002Y-91905346D01*
X104917255Y-91790737D01*
X105553939Y-91633429D01*
X105864845Y-91554034D01*
X106882389Y-91301290D01*
X107750140Y-91109972D01*
X108503580Y-90979471D01*
X109178193Y-90909183D01*
X109809461Y-90898499D01*
X110432867Y-90946815D01*
X111083895Y-91053522D01*
X111798027Y-91218016D01*
X112607563Y-91438778D01*
X113487187Y-91672087D01*
X114223406Y-91824255D01*
X114848619Y-91899392D01*
X115395224Y-91901609D01*
X115830334Y-91847739D01*
X116565665Y-91647827D01*
X117136594Y-91346599D01*
X117550751Y-90935368D01*
X117815764Y-90405450D01*
X117939263Y-89748158D01*
X117950769Y-89433657D01*
X117863044Y-88611299D01*
X117597881Y-87834375D01*
X117152300Y-87099245D01*
X116523320Y-86402269D01*
X115707960Y-85739808D01*
X114703241Y-85108222D01*
X114179646Y-84828577D01*
X113095061Y-84276309D01*
X112665415Y-84625073D01*
X111961788Y-85098746D01*
X111117532Y-85485971D01*
X110458679Y-85703841D01*
X110127726Y-85791680D01*
X109811284Y-85853197D01*
X109462953Y-85892801D01*
X109036333Y-85914901D01*
X108485023Y-85923907D01*
X108132692Y-85924879D01*
X107497976Y-85920951D01*
X107012140Y-85906228D01*
X106628783Y-85876299D01*
X106301506Y-85826757D01*
X105983908Y-85753191D01*
X105806705Y-85703841D01*
X104975099Y-85415784D01*
X104241358Y-85067889D01*
X103712733Y-84727708D01*
X103395851Y-84486214D01*
X102393887Y-84978268D01*
X101591489Y-85429704D01*
X100846358Y-85959355D01*
X100174303Y-86546799D01*
X99591133Y-87171617D01*
X99112660Y-87813389D01*
X98754691Y-88451695D01*
X98533037Y-89066116D01*
X98463508Y-89636231D01*
X97987482Y-89636231D01*
X97982790Y-89592904D01*
X97976256Y-89293587D01*
X97987095Y-88864082D01*
X98039286Y-88532921D01*
X98154910Y-88204017D01*
X98295986Y-87902138D01*
X98732958Y-87199890D01*
X99348303Y-86510013D01*
X100146400Y-85828713D01*
X101131632Y-85152194D01*
X102156990Y-84557756D01*
X102551366Y-84339313D01*
X102798803Y-84184025D01*
X102927328Y-84068083D01*
X102964966Y-83967678D01*
X102949222Y-83884721D01*
X102846606Y-83406638D01*
X102832476Y-82891422D01*
X102904755Y-82420687D01*
X102992401Y-82186280D01*
X103372047Y-81648484D01*
X103907452Y-81186670D01*
X104573562Y-80802788D01*
X105345323Y-80498782D01*
X106197680Y-80276602D01*
X107105578Y-80138194D01*
X108043962Y-80085506D01*
X108987779Y-80120485D01*
G04 #@! TA.AperFunction,EtchedComponent*
G36*
X108987779Y-80120485D02*
G01*
X109911973Y-80245078D01*
X110791490Y-80461233D01*
X111601275Y-80770897D01*
X112316274Y-81176017D01*
X112654331Y-81435322D01*
X113081611Y-81874235D01*
X113336295Y-82330467D01*
X113438849Y-82851360D01*
X113434196Y-83239184D01*
X113387956Y-83885447D01*
X114506202Y-84452608D01*
X115625287Y-85078523D01*
X116556687Y-85727636D01*
X117307356Y-86406069D01*
X117884248Y-87119944D01*
X118230755Y-87732308D01*
X118413396Y-88313988D01*
X118483061Y-88994103D01*
X118437756Y-89710283D01*
X118312313Y-90284416D01*
X118017485Y-91012865D01*
X117613966Y-91584163D01*
X117097898Y-92000317D01*
X116465425Y-92263334D01*
X115712692Y-92375220D01*
X114835841Y-92337982D01*
X114467572Y-92284858D01*
X114064506Y-92219690D01*
X113741760Y-92173050D01*
X113542030Y-92150797D01*
X113498629Y-92151883D01*
X113511882Y-92250859D01*
X113569970Y-92491975D01*
X113661717Y-92830189D01*
X113701338Y-92968784D01*
X114008774Y-94342494D01*
X114127577Y-95697716D01*
X114117710Y-96361871D01*
X114025682Y-97220346D01*
X113832929Y-97929273D01*
X113528136Y-98512830D01*
X113099984Y-98995197D01*
X112762364Y-99257642D01*
X112254687Y-99537152D01*
X111660688Y-99761641D01*
X111063371Y-99904365D01*
X110639565Y-99941701D01*
X110101193Y-99867867D01*
X109607372Y-99669472D01*
X109198165Y-99373435D01*
X108913632Y-99006677D01*
X108807861Y-98710795D01*
X108734046Y-98460350D01*
X108648833Y-98392491D01*
X108565171Y-98512203D01*
X108536833Y-98606503D01*
X108381461Y-98952637D01*
X108108868Y-99324055D01*
X107774730Y-99655040D01*
X107474579Y-99860368D01*
X107054864Y-100006605D01*
X106523429Y-100093151D01*
X105955836Y-100115988D01*
X105427649Y-100071098D01*
X105093030Y-99987001D01*
X104524142Y-99675524D01*
X104037243Y-99200818D01*
X103637344Y-98579234D01*
X103329456Y-97827122D01*
X103118588Y-96960834D01*
X103009751Y-95996721D01*
X103009214Y-95683855D01*
X103447814Y-95683855D01*
X103514940Y-96573125D01*
X103683538Y-97384467D01*
X103945487Y-98097571D01*
X104292667Y-98692129D01*
X104716960Y-99147832D01*
X105210245Y-99444372D01*
X105397308Y-99506697D01*
X105858551Y-99610533D01*
X106227218Y-99636238D01*
X106588840Y-99586012D01*
X106762797Y-99541805D01*
X107231806Y-99313361D01*
X107636099Y-98918530D01*
X107953965Y-98381517D01*
X108067067Y-98087692D01*
X108190323Y-97655772D01*
X108284255Y-97185679D01*
X108350968Y-96649606D01*
X108392564Y-96019744D01*
X108411146Y-95268284D01*
X108408818Y-94367417D01*
X108397674Y-93715961D01*
X108381164Y-93004499D01*
X108364591Y-92469575D01*
X108910211Y-92469575D01*
X108912109Y-93064733D01*
X108922395Y-93830079D01*
X108931971Y-94353164D01*
X108987028Y-97159615D01*
X109283748Y-97883503D01*
X109538437Y-98398940D01*
X109839979Y-98841435D01*
X110158746Y-99175577D01*
X110465114Y-99365957D01*
X110542758Y-99388301D01*
X110968538Y-99402067D01*
X111472348Y-99304362D01*
X111856958Y-99165595D01*
X112415356Y-98828420D01*
X112895239Y-98361755D01*
X113240975Y-97820801D01*
X113264035Y-97769376D01*
X113372010Y-97474270D01*
X113446855Y-97143929D01*
X113496961Y-96726634D01*
X113530721Y-96170663D01*
X113533353Y-96109457D01*
X113531969Y-95013730D01*
X113423368Y-94008262D01*
X113197561Y-93013834D01*
X113103110Y-92698311D01*
X112867398Y-91949315D01*
X111772014Y-91687397D01*
X111226507Y-91574417D01*
X110661421Y-91487282D01*
X110117373Y-91429131D01*
X109634978Y-91403099D01*
X109254852Y-91412324D01*
X109017612Y-91459941D01*
X108993265Y-91472802D01*
X108958228Y-91546217D01*
X108932932Y-91726217D01*
X108917039Y-92028703D01*
X108910211Y-92469575D01*
X108364591Y-92469575D01*
X108364457Y-92465256D01*
X108345375Y-92075077D01*
X108321740Y-91810805D01*
X108291376Y-91649286D01*
X108252105Y-91567363D01*
X108201749Y-91541882D01*
X108193210Y-91541497D01*
X108031542Y-91564540D01*
X107723866Y-91628766D01*
X107303437Y-91725629D01*
X106803510Y-91846584D01*
X106257341Y-91983084D01*
X105698184Y-92126582D01*
X105159295Y-92268534D01*
X104673929Y-92400393D01*
X104275341Y-92513613D01*
X103996787Y-92599648D01*
X103871521Y-92649953D01*
X103868587Y-92652853D01*
X103804462Y-92822157D01*
X103728360Y-93144279D01*
X103647833Y-93577628D01*
X103570428Y-94080615D01*
X103503695Y-94611649D01*
X103490280Y-94736965D01*
X103447814Y-95683855D01*
X103009214Y-95683855D01*
X103007955Y-94951134D01*
X103118211Y-93840425D01*
X103149051Y-93642692D01*
X103212910Y-93248706D01*
X103262729Y-92931240D01*
X103291237Y-92737119D01*
X103295217Y-92701442D01*
X103207532Y-92676750D01*
X102976726Y-92672956D01*
X102675077Y-92689338D01*
X101784869Y-92678279D01*
X100917325Y-92511965D01*
X100103209Y-92205317D01*
X99373285Y-91773257D01*
X98758318Y-91230707D01*
X98289073Y-90592591D01*
X98265665Y-90550569D01*
X98108054Y-90229787D01*
X98020230Y-89938653D01*
X97987482Y-89636231D01*
X98463508Y-89636231D01*
X98512176Y-89991912D01*
X98709722Y-90411461D01*
X99064055Y-90838924D01*
X99540965Y-91241046D01*
X100106241Y-91584568D01*
X100195865Y-91628665D01*
X100648956Y-91831882D01*
X101043642Y-91969910D01*
X101436472Y-92052836D01*
X101883996Y-92090745D01*
X102442763Y-92093725D01*
X102759615Y-92085935D01*
X103199485Y-92067551D01*
X103591651Y-92036296D01*
X103979645Y-91984714D01*
X104407002Y-91905346D01*
X104917255Y-91790737D01*
X105553939Y-91633429D01*
X105864845Y-91554034D01*
X106882389Y-91301290D01*
X107750140Y-91109972D01*
X108503580Y-90979471D01*
X109178193Y-90909183D01*
X109809461Y-90898499D01*
X110432867Y-90946815D01*
X111083895Y-91053522D01*
X111798027Y-91218016D01*
X112607563Y-91438778D01*
X113487187Y-91672087D01*
X114223406Y-91824255D01*
X114848619Y-91899392D01*
X115395224Y-91901609D01*
X115830334Y-91847739D01*
X116565665Y-91647827D01*
X117136594Y-91346599D01*
X117550751Y-90935368D01*
X117815764Y-90405450D01*
X117939263Y-89748158D01*
X117950769Y-89433657D01*
X117863044Y-88611299D01*
X117597881Y-87834375D01*
X117152300Y-87099245D01*
X116523320Y-86402269D01*
X115707960Y-85739808D01*
X114703241Y-85108222D01*
X114179646Y-84828577D01*
X113095061Y-84276309D01*
X112665415Y-84625073D01*
X111961788Y-85098746D01*
X111117532Y-85485971D01*
X110458679Y-85703841D01*
X110127726Y-85791680D01*
X109811284Y-85853197D01*
X109462953Y-85892801D01*
X109036333Y-85914901D01*
X108485023Y-85923907D01*
X108132692Y-85924879D01*
X107497976Y-85920951D01*
X107012140Y-85906228D01*
X106628783Y-85876299D01*
X106301506Y-85826757D01*
X105983908Y-85753191D01*
X105806705Y-85703841D01*
X104975099Y-85415784D01*
X104241358Y-85067889D01*
X103712733Y-84727708D01*
X103395851Y-84486214D01*
X102393887Y-84978268D01*
X101591489Y-85429704D01*
X100846358Y-85959355D01*
X100174303Y-86546799D01*
X99591133Y-87171617D01*
X99112660Y-87813389D01*
X98754691Y-88451695D01*
X98533037Y-89066116D01*
X98463508Y-89636231D01*
X97987482Y-89636231D01*
X97982790Y-89592904D01*
X97976256Y-89293587D01*
X97987095Y-88864082D01*
X98039286Y-88532921D01*
X98154910Y-88204017D01*
X98295986Y-87902138D01*
X98732958Y-87199890D01*
X99348303Y-86510013D01*
X100146400Y-85828713D01*
X101131632Y-85152194D01*
X102156990Y-84557756D01*
X102551366Y-84339313D01*
X102798803Y-84184025D01*
X102927328Y-84068083D01*
X102964966Y-83967678D01*
X102949222Y-83884721D01*
X102846606Y-83406638D01*
X102832476Y-82891422D01*
X102904755Y-82420687D01*
X102992401Y-82186280D01*
X103372047Y-81648484D01*
X103907452Y-81186670D01*
X104573562Y-80802788D01*
X105345323Y-80498782D01*
X106197680Y-80276602D01*
X107105578Y-80138194D01*
X108043962Y-80085506D01*
X108987779Y-80120485D01*
G37*
G04 #@! TD.AperFunction*
X107733042Y-21070988D02*
X107886423Y-21282340D01*
X107929693Y-21374808D01*
X107961840Y-21446444D01*
X108000692Y-21528042D01*
X108050265Y-21626442D01*
X108114574Y-21748487D01*
X108197637Y-21901016D01*
X108303468Y-22090871D01*
X108436084Y-22324893D01*
X108599500Y-22609923D01*
X108797733Y-22952802D01*
X109034798Y-23360371D01*
X109314712Y-23839471D01*
X109641490Y-24396943D01*
X110019148Y-25039628D01*
X110451703Y-25774367D01*
X110943170Y-26608001D01*
X111497565Y-27547371D01*
X112118904Y-28599319D01*
X112811204Y-29770684D01*
X113578479Y-31068309D01*
X114424747Y-32499035D01*
X115354022Y-34069701D01*
X116370321Y-35787150D01*
X117477660Y-37658222D01*
X118680055Y-39689759D01*
X118830000Y-39943095D01*
X128257308Y-55870787D01*
X129307010Y-56329979D01*
X131061128Y-57175676D01*
X132810473Y-58169336D01*
X134490735Y-59272828D01*
X135405644Y-59946116D01*
X136203980Y-60559671D01*
X137359490Y-60093382D01*
X138741722Y-59582552D01*
X140041221Y-59205484D01*
X141307348Y-58951974D01*
X142589464Y-58811820D01*
X143741538Y-58774169D01*
X144914428Y-58810334D01*
X145946156Y-58928816D01*
X146876869Y-59139112D01*
X147746714Y-59450721D01*
X148595839Y-59873142D01*
X148741996Y-59957231D01*
X149610750Y-60576481D01*
X150375223Y-61342235D01*
X151031909Y-62233603D01*
X151577301Y-63229697D01*
X152007891Y-64309629D01*
X152320171Y-65452511D01*
X152510636Y-66637454D01*
X152575777Y-67843569D01*
X152512088Y-69049968D01*
X152316061Y-70235763D01*
X151984190Y-71380065D01*
X151512966Y-72461986D01*
X150988065Y-73334600D01*
X150208665Y-74306302D01*
X149327979Y-75112512D01*
X148336245Y-75760358D01*
X147223703Y-76256971D01*
X146790215Y-76400563D01*
X146453879Y-76506472D01*
X146204979Y-76591995D01*
X146089298Y-76641230D01*
X146086154Y-76645084D01*
X146107217Y-76746728D01*
X146164225Y-76998042D01*
X146247908Y-77358613D01*
X146327175Y-77695796D01*
X146583186Y-78834396D01*
X146812359Y-79976513D01*
X147015563Y-81136116D01*
X147193665Y-82327176D01*
X147347534Y-83563663D01*
X147478039Y-84859546D01*
X147586048Y-86228796D01*
X147672428Y-87685384D01*
X147738049Y-89243279D01*
X147783778Y-90916452D01*
X147810484Y-92718872D01*
X147819034Y-94664510D01*
X147810299Y-96767335D01*
X147785145Y-99041319D01*
X147758531Y-100725385D01*
X147729247Y-102589035D01*
X147710071Y-104279924D01*
X147701330Y-105820431D01*
X147703351Y-107232934D01*
X147716459Y-108539812D01*
X147740981Y-109763443D01*
X147777243Y-110926206D01*
X147825573Y-112050479D01*
X147886295Y-113158641D01*
X147955219Y-114209202D01*
X148075860Y-115921096D01*
X148444917Y-116183849D01*
X148928852Y-116638645D01*
X149248547Y-117182628D01*
X149397351Y-117789487D01*
X149368616Y-118432913D01*
X149170438Y-119054903D01*
X148992076Y-119412310D01*
X148802616Y-119743065D01*
X148685164Y-119917801D01*
X148585049Y-120081478D01*
X148500372Y-120296330D01*
X148431251Y-120572805D01*
X148377806Y-120921354D01*
X148340155Y-121352424D01*
X148318417Y-121876464D01*
X148312712Y-122503925D01*
X148323158Y-123245253D01*
X148349874Y-124110900D01*
X148392978Y-125111313D01*
X148452591Y-126256941D01*
X148528831Y-127558234D01*
X148621817Y-129025640D01*
X148731668Y-130669608D01*
X148822557Y-131986923D01*
X148956748Y-133951265D01*
X149072361Y-135738800D01*
X149169628Y-137367197D01*
X149248777Y-138854126D01*
X149310038Y-140217257D01*
X149353642Y-141474260D01*
X149379818Y-142642804D01*
X149388794Y-143740559D01*
X149380803Y-144785195D01*
X149356072Y-145794383D01*
X149314832Y-146785791D01*
X149257312Y-147777089D01*
X149183742Y-148785948D01*
X149094352Y-149830037D01*
X149059420Y-150206538D01*
X148885988Y-151851529D01*
X148685006Y-153356772D01*
X148446894Y-154751481D01*
X148162070Y-156064868D01*
X147820956Y-157326145D01*
X147413969Y-158564524D01*
X146931531Y-159809219D01*
X146364059Y-161089440D01*
X145701975Y-162434401D01*
X144935696Y-163873313D01*
X144077332Y-165397692D01*
X143494225Y-166413687D01*
X142977163Y-167318716D01*
X142531250Y-168103706D01*
X142161591Y-168759584D01*
X141873289Y-169277278D01*
X141671450Y-169647716D01*
X141561177Y-169861824D01*
X141544727Y-169899284D01*
X141556731Y-170014392D01*
X141712487Y-170112049D01*
X141905755Y-170177458D01*
X142731234Y-170506631D01*
X143567676Y-170997141D01*
X144380729Y-171620271D01*
X145136039Y-172347299D01*
X145799253Y-173149508D01*
X146212394Y-173777815D01*
X146691328Y-174730146D01*
X147021494Y-175684111D01*
X147205253Y-176621479D01*
X147244963Y-177524016D01*
X147142984Y-178373490D01*
X146901676Y-179151665D01*
X146523397Y-179840311D01*
X146010508Y-180421192D01*
X145365367Y-180876077D01*
X145288623Y-180916518D01*
X144554370Y-181202832D01*
X143801979Y-181313932D01*
X143013806Y-181249165D01*
X142172205Y-181007875D01*
X141641154Y-180781364D01*
X141246418Y-180579821D01*
X140862724Y-180348733D01*
X140469658Y-180070818D01*
X140046807Y-179728792D01*
X139573757Y-179305374D01*
X139030094Y-178783281D01*
X138395405Y-178145229D01*
X137791594Y-177522207D01*
X137277908Y-176991167D01*
X136789225Y-176492217D01*
X136347351Y-176047136D01*
X135974089Y-175677706D01*
X135691241Y-175405710D01*
X135520612Y-175252929D01*
X135517688Y-175250599D01*
X135139495Y-174951065D01*
X133387019Y-175647012D01*
X129760959Y-176985456D01*
X126109094Y-178130624D01*
X122427608Y-179083383D01*
X118712684Y-179844599D01*
X114960507Y-180415141D01*
X111167260Y-180795874D01*
X110526154Y-180841245D01*
X109760444Y-180879456D01*
X108850575Y-180903885D01*
X107835183Y-180915149D01*
X106752904Y-180913864D01*
X105642373Y-180900646D01*
X104542226Y-180876113D01*
X103491100Y-180840880D01*
X102527629Y-180795564D01*
X101690450Y-180740781D01*
X101147692Y-180691632D01*
X98326033Y-180326217D01*
X95635563Y-179843526D01*
X93047162Y-179237982D01*
X91886009Y-178917584D01*
X91128451Y-178689497D01*
X90345507Y-178437880D01*
X89563556Y-178172639D01*
X88808979Y-177903679D01*
X88108153Y-177640905D01*
X87487459Y-177394223D01*
X86973274Y-177173538D01*
X86591979Y-176988756D01*
X86369953Y-176849782D01*
X86362839Y-176843622D01*
X86266224Y-176774397D01*
X86155832Y-176757467D01*
X85991237Y-176803529D01*
X85732013Y-176923278D01*
X85385916Y-177102094D01*
X85076725Y-177279666D01*
X84643359Y-177549946D01*
X84119648Y-177890713D01*
X83539423Y-178279747D01*
X82936517Y-178694825D01*
X82591624Y-178937433D01*
X81619362Y-179618167D01*
X80778588Y-180184823D01*
X80049663Y-180647156D01*
X79412944Y-181014922D01*
X78848790Y-181297878D01*
X78337562Y-181505779D01*
X77859618Y-181648381D01*
X77395317Y-181735441D01*
X76925018Y-181776714D01*
X76871154Y-181778912D01*
X76387249Y-181786119D01*
X76025886Y-181760117D01*
X75715728Y-181691903D01*
X75454615Y-181600137D01*
X75059728Y-181385214D01*
X74612785Y-181048067D01*
X74161522Y-180634448D01*
X73753677Y-180190111D01*
X73436987Y-179760807D01*
X73323782Y-179557868D01*
X73049782Y-178805248D01*
X72955892Y-178061603D01*
X72996972Y-177716510D01*
X73441708Y-177716510D01*
X73449854Y-178281151D01*
X73605662Y-178901779D01*
X73894258Y-179525947D01*
X74006832Y-179709615D01*
X74325370Y-180198077D01*
X74390082Y-179436977D01*
X74534314Y-178632673D01*
X74832455Y-177901235D01*
X75299706Y-177212293D01*
X75744782Y-176730000D01*
X76147514Y-176364724D01*
X76563265Y-176036465D01*
X76958687Y-175766830D01*
X77300432Y-175577427D01*
X77555150Y-175489865D01*
X77651205Y-175494757D01*
X77789187Y-175610027D01*
X77739583Y-175778125D01*
X77502260Y-175999253D01*
X77194162Y-176204182D01*
X76579101Y-176643691D01*
X76008036Y-177174150D01*
X75530108Y-177744585D01*
X75218473Y-178253583D01*
X75032300Y-178702643D01*
X74945664Y-179128941D01*
X74928529Y-179465385D01*
X74929532Y-179988241D01*
X74954641Y-180354385D01*
X75015724Y-180602106D01*
X75124649Y-180769691D01*
X75293281Y-180895430D01*
X75387544Y-180946391D01*
X76041404Y-181197064D01*
X76736465Y-181292686D01*
X77509890Y-181236813D01*
X77819792Y-181179214D01*
X78333197Y-181042728D01*
X78858811Y-180842810D01*
X79419296Y-180566436D01*
X80037312Y-180200581D01*
X80735519Y-179732221D01*
X81536577Y-179148330D01*
X82097692Y-178720369D01*
X82861302Y-178135041D01*
X83498626Y-177659137D01*
X84033591Y-177277135D01*
X84490124Y-176973515D01*
X84892153Y-176732754D01*
X85263605Y-176539331D01*
X85628406Y-176377726D01*
X85832370Y-176297730D01*
X86392048Y-176086510D01*
X84562370Y-174219647D01*
X83993627Y-173642172D01*
X83537718Y-173187592D01*
X83173031Y-172837029D01*
X82877954Y-172571604D01*
X82630875Y-172372439D01*
X82410183Y-172220655D01*
X82194266Y-172097374D01*
X82050900Y-172025815D01*
X81647893Y-171847000D01*
X81317388Y-171747561D01*
X80964763Y-171705657D01*
X80634362Y-171698846D01*
X80325576Y-171702157D01*
X80084393Y-171722772D01*
X79864286Y-171776718D01*
X79618734Y-171880022D01*
X79301211Y-172048708D01*
X78865193Y-172298803D01*
X78825000Y-172322111D01*
X78014011Y-172804240D01*
X77336435Y-173237430D01*
X76748265Y-173654573D01*
X76205490Y-174088561D01*
X75664104Y-174572285D01*
X75151260Y-175067825D01*
X74579722Y-175657068D01*
X74146771Y-176160219D01*
X73833416Y-176606701D01*
X73620666Y-177025940D01*
X73489528Y-177447358D01*
X73441708Y-177716510D01*
X72996972Y-177716510D01*
X73044410Y-177318012D01*
X73317633Y-176565550D01*
X73777858Y-175795295D01*
X74427382Y-174998325D01*
X74524523Y-174893694D01*
X75120892Y-174315756D01*
X75844658Y-173704176D01*
X76642749Y-173100179D01*
X77462092Y-172544993D01*
X77872500Y-172293063D01*
X78218442Y-172084294D01*
X78490064Y-171911520D01*
X78650655Y-171798577D01*
X78678462Y-171769750D01*
X78614409Y-171686007D01*
X78438512Y-171488775D01*
X78175155Y-171204621D01*
X77848728Y-170860111D01*
X77725962Y-170732133D01*
X76297497Y-169126465D01*
X75009994Y-167422395D01*
X73861047Y-165613686D01*
X72848250Y-163694101D01*
X71969197Y-161657403D01*
X71221482Y-159497354D01*
X70602699Y-157207718D01*
X70110442Y-154782259D01*
X69742305Y-152214737D01*
X69495883Y-149498918D01*
X69487814Y-149376154D01*
X69444178Y-148459944D01*
X69419549Y-147377328D01*
X69413433Y-146156309D01*
X69425332Y-144824889D01*
X69454753Y-143411073D01*
X69501198Y-141942861D01*
X69564174Y-140448257D01*
X69643183Y-138955265D01*
X69684049Y-138288077D01*
X69780908Y-136764128D01*
X69865163Y-135413088D01*
X69937858Y-134212957D01*
X70000035Y-133141736D01*
X70052736Y-132177426D01*
X70097004Y-131298028D01*
X70133880Y-130481541D01*
X70164409Y-129705968D01*
X70189632Y-128949309D01*
X70210591Y-128189564D01*
X70228330Y-127404736D01*
X70243890Y-126572823D01*
X70246496Y-126419004D01*
X70307731Y-122756084D01*
X69748854Y-123266866D01*
X69082795Y-123813881D01*
X68285223Y-124367443D01*
X67414676Y-124888753D01*
X66865057Y-125178207D01*
X66460875Y-125373404D01*
X66157133Y-125494306D01*
X65881886Y-125558591D01*
X65563192Y-125583939D01*
X65197154Y-125588077D01*
X64768853Y-125581796D01*
X64474359Y-125554004D01*
X64252259Y-125491279D01*
X64041144Y-125380197D01*
X63935578Y-125312323D01*
X63528587Y-124938867D01*
X63318632Y-124579631D01*
X63173735Y-124297402D01*
X63028944Y-124090233D01*
X62966382Y-124033958D01*
X62671022Y-123816790D01*
X62359920Y-123518900D01*
X62085855Y-123198014D01*
X61901607Y-122911860D01*
X61869182Y-122833899D01*
X61791772Y-122355790D01*
X61791976Y-122352590D01*
X62285310Y-122352590D01*
X62442893Y-122838263D01*
X62775740Y-123252903D01*
X62931944Y-123377143D01*
X63226301Y-123586744D01*
X63438027Y-123244164D01*
X63679247Y-122936402D01*
X64011754Y-122618185D01*
X64388214Y-122324359D01*
X64761291Y-122089772D01*
X65083650Y-121949270D01*
X65230466Y-121924615D01*
X65385945Y-122003451D01*
X65427161Y-122069918D01*
X65386127Y-122209008D01*
X65175083Y-122411993D01*
X64917455Y-122599220D01*
X64322179Y-123053848D01*
X63916731Y-123479505D01*
X63701499Y-123874677D01*
X63676872Y-124237854D01*
X63843241Y-124567524D01*
X64200993Y-124862175D01*
X64317692Y-124928753D01*
X64766761Y-125099622D01*
X65250030Y-125137643D01*
X65797163Y-125039825D01*
X66437829Y-124803176D01*
X66682851Y-124690261D01*
X67952531Y-123991725D01*
X69069834Y-123189525D01*
X69591788Y-122729016D01*
X70257898Y-122096524D01*
X70214456Y-120129993D01*
X70198365Y-119498727D01*
X70179305Y-118906542D01*
X70158814Y-118391691D01*
X70138429Y-117992425D01*
X70119685Y-117746996D01*
X70118210Y-117734397D01*
X70065406Y-117305333D01*
X69169818Y-117364666D01*
X68339557Y-117454001D01*
X67591735Y-117617528D01*
X66841912Y-117877333D01*
X66296654Y-118116127D01*
X65498706Y-118534853D01*
X64727041Y-119026216D01*
X64013104Y-119564263D01*
X63388338Y-120123046D01*
X62884188Y-120676613D01*
X62532100Y-121199013D01*
X62510301Y-121240934D01*
X62306582Y-121814082D01*
X62285310Y-122352590D01*
X61791976Y-122352590D01*
X61827329Y-121799332D01*
X61967681Y-121239477D01*
X62070025Y-120991237D01*
X62283256Y-120648858D01*
X62619173Y-120231479D01*
X63040717Y-119776602D01*
X63510828Y-119321728D01*
X63992449Y-118904360D01*
X64448519Y-118561999D01*
X64513077Y-118519013D01*
X65701937Y-117830527D01*
X66877170Y-117329484D01*
X68054759Y-117010197D01*
X69140831Y-116872873D01*
X70105124Y-116814904D01*
X70038616Y-115339952D01*
X70019781Y-114933707D01*
X69992429Y-114359940D01*
X69957912Y-113646262D01*
X69917582Y-112820286D01*
X69872793Y-111909624D01*
X69824895Y-110941889D01*
X69775241Y-109944694D01*
X69736744Y-109175769D01*
X69616121Y-106670027D01*
X69515349Y-104344219D01*
X69434494Y-102183900D01*
X69373618Y-100174623D01*
X69332788Y-98301943D01*
X69312067Y-96551415D01*
X69311519Y-94908591D01*
X69318557Y-94354674D01*
X70290415Y-94354674D01*
X70293136Y-95637505D01*
X70303900Y-97005760D01*
X70322442Y-98437492D01*
X70348494Y-99910755D01*
X70381790Y-101403602D01*
X70422066Y-102894085D01*
X70469054Y-104360257D01*
X70522489Y-105780172D01*
X70561307Y-106684615D01*
X70643546Y-108511751D01*
X70716778Y-110162234D01*
X70781611Y-111654559D01*
X70838652Y-113007224D01*
X70888507Y-114238722D01*
X70931784Y-115367549D01*
X70969090Y-116412201D01*
X71001032Y-117391174D01*
X71028217Y-118322962D01*
X71051253Y-119226062D01*
X71070746Y-120118968D01*
X71087304Y-121020176D01*
X71101533Y-121948181D01*
X71114041Y-122921480D01*
X71124101Y-123829615D01*
X71138510Y-125575535D01*
X71142792Y-127162281D01*
X71135992Y-128625850D01*
X71117153Y-130002239D01*
X71085318Y-131327443D01*
X71039533Y-132637458D01*
X70978839Y-133968281D01*
X70902282Y-135355908D01*
X70808905Y-136836335D01*
X70759011Y-137573330D01*
X70692346Y-138656588D01*
X70634182Y-139834320D01*
X70585027Y-141076403D01*
X70545387Y-142352714D01*
X70515767Y-143633129D01*
X70496674Y-144887526D01*
X70488613Y-146085781D01*
X70492091Y-147197772D01*
X70507615Y-148193377D01*
X70535689Y-149042470D01*
X70559078Y-149473846D01*
X70752697Y-151800762D01*
X71022372Y-153966625D01*
X71373233Y-155992438D01*
X71810412Y-157899205D01*
X72339039Y-159707928D01*
X72964244Y-161439611D01*
X73691159Y-163115258D01*
X74090723Y-163931474D01*
X74991559Y-165556019D01*
X75999822Y-167083753D01*
X77142932Y-168552360D01*
X78448306Y-169999525D01*
X78675885Y-170233461D01*
X79635639Y-171210385D01*
X80598012Y-171210385D01*
X81049626Y-171214240D01*
X81371594Y-171235776D01*
X81629633Y-171289945D01*
X81889461Y-171391699D01*
X82216798Y-171555990D01*
X82293077Y-171596051D01*
X82541234Y-171735678D01*
X82785792Y-171896477D01*
X83048956Y-172097721D01*
X83352933Y-172358684D01*
X83719929Y-172698639D01*
X84172152Y-173136861D01*
X84731808Y-173692623D01*
X84881923Y-173842974D01*
X85512127Y-174474566D01*
X86023446Y-174983977D01*
X86435189Y-175387148D01*
X86766663Y-175700018D01*
X87037177Y-175938528D01*
X87266040Y-176118618D01*
X87472559Y-176256230D01*
X87676044Y-176367304D01*
X87895803Y-176467780D01*
X88151144Y-176573599D01*
X88226727Y-176604354D01*
X90451717Y-177426884D01*
X92818788Y-178144245D01*
X95301985Y-178750957D01*
X97875350Y-179241543D01*
X100512926Y-179610523D01*
X103188758Y-179852418D01*
X103785385Y-179888331D01*
X104378881Y-179911669D01*
X105121563Y-179926799D01*
X105967416Y-179933976D01*
X106870425Y-179933457D01*
X107784575Y-179925498D01*
X108663851Y-179910356D01*
X109462238Y-179888287D01*
X110133721Y-179859547D01*
X110261276Y-179852268D01*
X113656027Y-179559640D01*
X117092371Y-179092525D01*
X120538507Y-178457508D01*
X123962631Y-177661179D01*
X127332941Y-176710122D01*
X130455385Y-175669497D01*
X131097538Y-175435468D01*
X131755068Y-175190267D01*
X132399370Y-174945115D01*
X133001838Y-174711233D01*
X133533869Y-174499843D01*
X133966858Y-174322166D01*
X134272199Y-174189421D01*
X134281530Y-174184663D01*
X135046923Y-174184663D01*
X135118966Y-174280174D01*
X135307444Y-174452665D01*
X135559808Y-174655618D01*
X135871187Y-174903976D01*
X136199639Y-175189781D01*
X136565669Y-175533109D01*
X136989784Y-175954039D01*
X137492491Y-176472646D01*
X138094295Y-177109007D01*
X138403403Y-177439675D01*
X138842097Y-177900815D01*
X139278815Y-178343095D01*
X139679848Y-178733569D01*
X140011486Y-179039292D01*
X140209439Y-179204730D01*
X141089874Y-179815173D01*
X141963634Y-180307255D01*
X142796641Y-180663542D01*
X143399615Y-180836703D01*
X143716703Y-180877094D01*
X144097691Y-180887453D01*
X144474296Y-180870334D01*
X144778234Y-180828295D01*
X144921115Y-180779738D01*
X144979647Y-180638286D01*
X144980533Y-180348287D01*
X144928631Y-179946312D01*
X144828797Y-179468932D01*
X144685889Y-178952717D01*
X144673045Y-178911796D01*
X144283086Y-177947942D01*
X143718068Y-176974454D01*
X143089086Y-176122229D01*
X142758900Y-175686496D01*
X142572389Y-175372429D01*
X142526756Y-175172383D01*
X142619202Y-175078714D01*
X142703650Y-175069231D01*
X142851172Y-175144523D01*
X143080060Y-175349060D01*
X143361356Y-175650834D01*
X143666098Y-176017834D01*
X143965325Y-176418052D01*
X144094395Y-176606378D01*
X144727900Y-177704791D01*
X145180777Y-178814804D01*
X145446459Y-179920127D01*
X145456162Y-179984958D01*
X145524191Y-180455686D01*
X145796158Y-180195125D01*
X145981916Y-179966318D01*
X146190009Y-179634839D01*
X146345793Y-179333628D01*
X146458836Y-179077122D01*
X146536212Y-178852813D01*
X146584642Y-178614243D01*
X146610845Y-178314952D01*
X146621540Y-177908479D01*
X146623462Y-177413846D01*
X146620337Y-176862872D01*
X146605891Y-176453102D01*
X146572516Y-176130391D01*
X146512601Y-175840594D01*
X146418540Y-175529567D01*
X146318297Y-175242215D01*
X145851370Y-174161568D01*
X145271434Y-173197291D01*
X144592627Y-172364594D01*
X143829086Y-171678686D01*
X142994948Y-171154777D01*
X142231364Y-170845212D01*
X141276883Y-170650646D01*
X140306516Y-170642478D01*
X139336646Y-170814408D01*
X138383659Y-171160132D01*
X137463937Y-171673349D01*
X136593864Y-172347757D01*
X135789824Y-173177053D01*
X135614990Y-173390256D01*
X135367357Y-173709882D01*
X135174380Y-173974200D01*
X135063290Y-174145130D01*
X135046923Y-174184663D01*
X134281530Y-174184663D01*
X134418371Y-174114892D01*
X134528265Y-173998645D01*
X134700158Y-173775604D01*
X134830636Y-173590498D01*
X135499502Y-172733180D01*
X136274130Y-171956497D01*
X137124327Y-171281142D01*
X138019900Y-170727807D01*
X138930654Y-170317186D01*
X139826397Y-170069971D01*
X140010320Y-170040678D01*
X140315515Y-169985365D01*
X140469673Y-169913019D01*
X140517058Y-169800859D01*
X140517692Y-169779532D01*
X140536479Y-169685249D01*
X140597620Y-169530800D01*
X140708291Y-169303526D01*
X140875665Y-168990767D01*
X141106915Y-168579864D01*
X141409215Y-168058157D01*
X141789740Y-167412987D01*
X142255663Y-166631693D01*
X142814157Y-165701617D01*
X143056095Y-165300000D01*
X143755612Y-164121952D01*
X144354113Y-163070572D01*
X144865476Y-162114497D01*
X145303581Y-161222362D01*
X145682305Y-160362804D01*
X146015530Y-159504459D01*
X146317132Y-158615963D01*
X146600992Y-157665953D01*
X146860362Y-156703077D01*
X147371303Y-154492021D01*
X147770166Y-152234709D01*
X148060236Y-149902806D01*
X148244799Y-147467974D01*
X148327139Y-144901879D01*
X148332436Y-144004744D01*
X148329544Y-143249645D01*
X148320703Y-142499119D01*
X148305025Y-141733763D01*
X148281624Y-140934174D01*
X148249611Y-140080951D01*
X148208100Y-139154689D01*
X148156204Y-138135987D01*
X148093034Y-137005441D01*
X148017704Y-135743649D01*
X147929326Y-134331209D01*
X147827014Y-132748717D01*
X147796242Y-132280000D01*
X147694721Y-130711383D01*
X147601973Y-129224583D01*
X147518729Y-127833380D01*
X147445723Y-126551557D01*
X147383688Y-125392896D01*
X147333355Y-124371177D01*
X147295458Y-123500184D01*
X147270728Y-122793697D01*
X147259900Y-122265499D01*
X147259466Y-122182522D01*
X147258462Y-121610044D01*
X146834878Y-122182522D01*
X146154562Y-122959924D01*
X145338471Y-123655460D01*
X144412926Y-124261662D01*
X143404249Y-124771063D01*
X142338762Y-125176196D01*
X141242787Y-125469593D01*
X140142645Y-125643786D01*
X139064658Y-125691308D01*
X138035148Y-125604692D01*
X137080437Y-125376470D01*
X136463462Y-125124883D01*
X136030276Y-124853091D01*
X135627753Y-124496259D01*
X135290564Y-124096368D01*
X135053377Y-123695400D01*
X134995182Y-123490997D01*
X135548417Y-123490997D01*
X135691137Y-123825668D01*
X136017399Y-124153071D01*
X136523289Y-124468651D01*
X137204896Y-124767847D01*
X137630684Y-124916482D01*
X138275114Y-125062880D01*
X139042893Y-125135958D01*
X139875626Y-125134121D01*
X140714919Y-125055770D01*
X141006154Y-125008757D01*
X141928472Y-124782244D01*
X142887662Y-124441743D01*
X143815123Y-124016445D01*
X144642260Y-123535542D01*
X144913846Y-123345882D01*
X145371401Y-122967168D01*
X145849956Y-122503659D01*
X146294530Y-122013406D01*
X146650144Y-121554460D01*
X146739618Y-121418133D01*
X146984165Y-121077930D01*
X147263813Y-120768911D01*
X147461741Y-120600298D01*
X148018713Y-120126371D01*
X148449355Y-119578646D01*
X148741806Y-118987160D01*
X148884200Y-118381949D01*
X148864677Y-117793052D01*
X148734971Y-117376471D01*
X148415060Y-116870425D01*
X147961079Y-116475609D01*
X147364669Y-116188414D01*
X146617472Y-116005233D01*
X145711130Y-115922457D01*
X145353462Y-115916538D01*
X144854391Y-115918549D01*
X144496679Y-115931580D01*
X144226301Y-115966124D01*
X143989230Y-116032677D01*
X143731443Y-116141734D01*
X143424038Y-116291351D01*
X143006072Y-116515193D01*
X142759123Y-116690592D01*
X142668092Y-116828574D01*
X142666923Y-116844273D01*
X142629701Y-117075586D01*
X142528679Y-117440397D01*
X142379826Y-117893841D01*
X142199110Y-118391056D01*
X142002497Y-118887177D01*
X141805956Y-119337343D01*
X141705533Y-119545415D01*
X141370237Y-120170848D01*
X141052081Y-120656240D01*
X140715887Y-121026792D01*
X140326474Y-121307704D01*
X139848662Y-121524177D01*
X139247272Y-121701412D01*
X138487123Y-121864608D01*
X138460875Y-121869670D01*
X137608723Y-122051680D01*
X136932092Y-122238250D01*
X136411135Y-122436533D01*
X136026005Y-122653682D01*
X135829254Y-122818084D01*
X135593152Y-123153616D01*
X135548417Y-123490997D01*
X134995182Y-123490997D01*
X134950863Y-123335335D01*
X134949231Y-123291348D01*
X135033340Y-122937568D01*
X135255120Y-122590507D01*
X135537892Y-122342806D01*
X135840768Y-122151038D01*
X134393653Y-122085664D01*
X133834892Y-122055813D01*
X133140033Y-122011591D01*
X132367488Y-121957128D01*
X131575665Y-121896554D01*
X130822975Y-121833998D01*
X130775455Y-121829844D01*
X129817080Y-121754681D01*
X128966537Y-121705971D01*
X128251236Y-121684894D01*
X127698585Y-121692629D01*
X127649301Y-121695266D01*
X126774166Y-121706025D01*
X125952125Y-121638487D01*
X125226844Y-121498603D01*
X124641994Y-121292327D01*
X124621743Y-121282587D01*
X124057058Y-120906089D01*
X123542354Y-120362266D01*
X123095563Y-119676530D01*
X122734619Y-118874294D01*
X122577072Y-118385061D01*
X122492764Y-117961216D01*
X122428332Y-117393599D01*
X122385529Y-116732980D01*
X122380488Y-116550540D01*
X122744187Y-116550540D01*
X122748437Y-117049537D01*
X122773466Y-117442892D01*
X122821758Y-117775153D01*
X122876238Y-118016923D01*
X123124847Y-118814889D01*
X123436580Y-119479880D01*
X123827687Y-120021682D01*
X124314420Y-120450082D01*
X124913026Y-120774865D01*
X125639757Y-121005819D01*
X126510863Y-121152729D01*
X127542594Y-121225383D01*
X128223682Y-121237361D01*
X128839230Y-121247941D01*
X129573449Y-121274776D01*
X130350633Y-121314303D01*
X131095077Y-121362957D01*
X131398682Y-121386834D01*
X132192295Y-121452879D01*
X132828192Y-121503851D01*
X133343323Y-121541411D01*
X133774641Y-121567220D01*
X134159094Y-121582939D01*
X134533635Y-121590230D01*
X134935213Y-121590753D01*
X135400779Y-121586170D01*
X135730769Y-121581594D01*
X136356063Y-121568105D01*
X136858522Y-121542689D01*
X137303992Y-121497143D01*
X137758320Y-121423264D01*
X138287353Y-121312848D01*
X138759231Y-121204301D01*
X139296563Y-121070730D01*
X139782449Y-120936107D01*
X140177511Y-120812384D01*
X140442374Y-120711515D01*
X140517692Y-120670542D01*
X140824028Y-120355369D01*
X141126818Y-119876179D01*
X141416583Y-119264252D01*
X141683843Y-118550867D01*
X141919121Y-117767301D01*
X142112939Y-116944833D01*
X142255816Y-116114742D01*
X142338276Y-115308307D01*
X142352659Y-114615313D01*
X142325000Y-113571923D01*
X141969484Y-113933742D01*
X141656975Y-114355633D01*
X141492837Y-114812973D01*
X141285152Y-115563072D01*
X141051393Y-116133315D01*
X140782056Y-116538526D01*
X140467637Y-116793530D01*
X140152127Y-116904342D01*
X139911391Y-116918002D01*
X139707596Y-116845709D01*
X139525096Y-116666372D01*
X139348243Y-116358900D01*
X139161391Y-115902202D01*
X138952996Y-115287978D01*
X138704803Y-114571487D01*
X138481734Y-114047243D01*
X138282943Y-113713841D01*
X138107582Y-113569877D01*
X137954807Y-113613948D01*
X137948026Y-113620769D01*
X137861020Y-113764335D01*
X137724308Y-114051372D01*
X137555735Y-114442017D01*
X137373148Y-114896407D01*
X137349282Y-114958162D01*
X137049451Y-115693898D01*
X136777421Y-116261720D01*
X136519644Y-116684675D01*
X136262573Y-116985808D01*
X136064266Y-117144140D01*
X135661375Y-117301412D01*
X135196368Y-117316750D01*
X134724980Y-117204062D01*
X134302943Y-116977255D01*
X133985993Y-116650236D01*
X133967279Y-116620867D01*
X133828327Y-116358426D01*
X133710080Y-116042614D01*
X133600871Y-115633065D01*
X133489030Y-115089409D01*
X133429428Y-114760096D01*
X133289681Y-114164836D01*
X133111384Y-113741071D01*
X132898856Y-113497443D01*
X132771991Y-113443948D01*
X132593121Y-113469793D01*
X132369458Y-113616484D01*
X132092763Y-113893731D01*
X131754802Y-114311242D01*
X131347337Y-114878726D01*
X130862131Y-115605892D01*
X130623301Y-115976724D01*
X130357169Y-116366818D01*
X130085839Y-116720014D01*
X129850296Y-116984760D01*
X129751042Y-117073846D01*
X129261795Y-117363820D01*
X128717687Y-117550276D01*
X128172518Y-117623712D01*
X127680090Y-117574625D01*
X127433708Y-117483124D01*
X127024968Y-117169527D01*
X126657044Y-116681298D01*
X126340094Y-116036770D01*
X126084276Y-115254274D01*
X125998321Y-114892705D01*
X125848018Y-114320271D01*
X125668020Y-113916001D01*
X125437118Y-113652857D01*
X125134105Y-113503802D01*
X124869047Y-113453016D01*
X124406527Y-113482031D01*
X123893439Y-113646757D01*
X123391188Y-113922788D01*
X123087857Y-114160995D01*
X122803022Y-114420773D01*
X122758230Y-115901348D01*
X122744187Y-116550540D01*
X122380488Y-116550540D01*
X122366106Y-116030131D01*
X122371818Y-115335820D01*
X122404417Y-114700820D01*
X122438255Y-114364269D01*
X122646753Y-113193011D01*
X123147939Y-113193011D01*
X123170301Y-113267293D01*
X123269058Y-113220655D01*
X123434583Y-113087476D01*
X123999391Y-112693024D01*
X124524617Y-112488299D01*
X125004283Y-112470553D01*
X125432409Y-112637042D01*
X125803018Y-112985017D01*
X126110130Y-113511732D01*
X126347767Y-114214441D01*
X126402918Y-114451154D01*
X126515319Y-114887561D01*
X126656527Y-115309169D01*
X126797838Y-115631322D01*
X126811246Y-115655465D01*
X127162947Y-116093452D01*
X127636067Y-116435493D01*
X128178524Y-116657631D01*
X128738239Y-116735909D01*
X129081022Y-116699542D01*
X129350478Y-116605311D01*
X129606873Y-116431075D01*
X129873101Y-116152638D01*
X130172057Y-115745807D01*
X130526635Y-115186388D01*
X130550984Y-115146108D01*
X131050992Y-114360696D01*
X131500842Y-113750369D01*
X131911212Y-113304540D01*
X132292778Y-113012621D01*
X132656220Y-112864026D01*
X132877700Y-112839231D01*
X133143115Y-112896059D01*
X133369728Y-113077536D01*
X133566799Y-113400144D01*
X133743591Y-113880369D01*
X133909364Y-114534697D01*
X133956849Y-114760109D01*
X134152863Y-115554449D01*
X134383795Y-116197106D01*
X134643165Y-116680852D01*
X134924493Y-116998460D01*
X135221299Y-117142704D01*
X135527102Y-117106355D01*
X135835421Y-116882188D01*
X135847878Y-116869038D01*
X136059515Y-116609954D01*
X136242505Y-116301866D01*
X136417549Y-115901860D01*
X136605349Y-115367022D01*
X136670391Y-115163973D01*
X136883206Y-114551096D01*
X137113317Y-113995097D01*
X137341026Y-113539126D01*
X137546636Y-113226335D01*
X137564355Y-113205577D01*
X137783851Y-113076655D01*
X138054567Y-113034615D01*
X138423500Y-113129752D01*
X138751537Y-113411892D01*
X139034475Y-113876132D01*
X139237986Y-114415508D01*
X139420709Y-115009249D01*
X139558405Y-115443639D01*
X139661559Y-115746663D01*
X139740660Y-115946301D01*
X139806192Y-116070538D01*
X139868643Y-116147355D01*
X139896235Y-116172009D01*
X140086526Y-116235601D01*
X140293883Y-116120920D01*
X140520844Y-115824420D01*
X140769948Y-115342557D01*
X141043735Y-114671788D01*
X141120233Y-114463351D01*
X141291495Y-114018087D01*
X141437820Y-113720038D01*
X141583538Y-113527350D01*
X141732165Y-113410725D01*
X141975150Y-113296092D01*
X142173185Y-113261054D01*
X142190384Y-113263997D01*
X142270561Y-113267958D01*
X142301255Y-113202544D01*
X142283483Y-113029256D01*
X142218265Y-112709599D01*
X142206480Y-112655854D01*
X142015442Y-112014807D01*
X141724889Y-111317811D01*
X141368835Y-110632403D01*
X140981292Y-110026115D01*
X140711230Y-109686895D01*
X139890825Y-108906900D01*
X138939150Y-108252377D01*
X137851513Y-107721612D01*
X136623221Y-107312888D01*
X135249581Y-107024489D01*
X133725901Y-106854700D01*
X132848846Y-106812009D01*
X131516868Y-106811793D01*
X130330140Y-106897447D01*
X129255508Y-107075177D01*
X128259816Y-107351190D01*
X127309908Y-107731693D01*
X126921682Y-107921553D01*
X126000537Y-108485990D01*
X125205421Y-109171970D01*
X124526672Y-109991995D01*
X123954631Y-110958566D01*
X123479639Y-112084185D01*
X123310567Y-112595000D01*
X123196513Y-112976138D01*
X123147939Y-113193011D01*
X122646753Y-113193011D01*
X122681898Y-112995581D01*
X123051144Y-111739190D01*
X123540052Y-110606659D01*
X124142682Y-109609547D01*
X124853092Y-108759417D01*
X125665342Y-108067831D01*
X125678669Y-108058443D01*
X126318406Y-107673384D01*
X127099355Y-107305366D01*
X127967360Y-106974105D01*
X128868268Y-106699316D01*
X129747923Y-106500713D01*
X130119083Y-106441897D01*
X130501257Y-106385676D01*
X130707213Y-106325062D01*
X130754428Y-106230014D01*
X130660380Y-106070492D01*
X130466866Y-105844088D01*
X130039900Y-105219493D01*
X129775546Y-104523341D01*
X129682348Y-103850709D01*
X130217295Y-103850709D01*
X130300089Y-104478067D01*
X130542337Y-105087882D01*
X130953593Y-105657824D01*
X131154911Y-105858153D01*
X131578846Y-106245000D01*
X132848846Y-106245000D01*
X133381590Y-106242022D01*
X133760307Y-106229331D01*
X134026309Y-106201290D01*
X134220913Y-106152264D01*
X134385432Y-106076616D01*
X134475752Y-106023059D01*
X134947343Y-105649686D01*
X135383787Y-105161836D01*
X135717093Y-104637636D01*
X135760038Y-104547343D01*
X135942131Y-103926607D01*
X135972639Y-103260184D01*
X135860976Y-102596717D01*
X135616556Y-101984849D01*
X135248793Y-101473222D01*
X135145706Y-101372991D01*
X134755583Y-101082282D01*
X134334222Y-100908477D01*
X133828982Y-100836480D01*
X133300058Y-100843707D01*
X132534139Y-100968631D01*
X131860808Y-101232320D01*
X131289616Y-101612445D01*
X130830116Y-102086677D01*
X130491861Y-102632684D01*
X130284403Y-103228139D01*
X130217295Y-103850709D01*
X129682348Y-103850709D01*
X129673927Y-103789933D01*
X129735166Y-103053571D01*
X129959383Y-102348556D01*
X130346701Y-101709190D01*
X130451713Y-101583127D01*
X130861049Y-101210966D01*
X131390153Y-100861667D01*
X131964593Y-100579570D01*
X132366708Y-100442368D01*
X132763800Y-100336832D01*
X132881597Y-99090147D01*
X132946832Y-98616859D01*
X133393866Y-98616859D01*
X133411828Y-98743567D01*
X133445176Y-98745080D01*
X133468497Y-98614330D01*
X133452889Y-98557836D01*
X133409510Y-98520832D01*
X133393866Y-98616859D01*
X132946832Y-98616859D01*
X133018494Y-98096943D01*
X133498409Y-98096943D01*
X133501978Y-98202738D01*
X133544654Y-98160588D01*
X133626104Y-97955656D01*
X133738339Y-97599231D01*
X133902477Y-97101968D01*
X134107065Y-96567012D01*
X134310402Y-96102731D01*
X134328654Y-96065189D01*
X134667985Y-95492986D01*
X135071461Y-95001875D01*
X135504716Y-94626552D01*
X135933380Y-94401711D01*
X135994747Y-94383220D01*
X136433478Y-94345883D01*
X136966144Y-94430118D01*
X137513654Y-94616332D01*
X137644471Y-94609372D01*
X137687456Y-94465362D01*
X137640701Y-94222733D01*
X137544401Y-93996845D01*
X137376165Y-93752811D01*
X137130653Y-93487298D01*
X136857803Y-93244911D01*
X136607551Y-93070255D01*
X136437012Y-93007692D01*
X136174951Y-93086252D01*
X135847929Y-93302185D01*
X135492420Y-93625875D01*
X135144898Y-94027703D01*
X135088350Y-94102858D01*
X134527377Y-94998744D01*
X134056872Y-96026723D01*
X133725702Y-97040243D01*
X133609936Y-97500860D01*
X133534283Y-97858039D01*
X133498409Y-98096943D01*
X133018494Y-98096943D01*
X133072244Y-97706987D01*
X133371990Y-96474764D01*
X133787478Y-95378050D01*
X134325346Y-94401419D01*
X134992236Y-93529442D01*
X135498020Y-93011497D01*
X135897561Y-92643354D01*
X136191908Y-92405084D01*
X136418004Y-92292505D01*
X136612794Y-92301434D01*
X136813224Y-92427687D01*
X137056239Y-92667080D01*
X137197165Y-92819107D01*
X137675277Y-93397535D01*
X138021405Y-93944929D01*
X138222164Y-94437042D01*
X138269273Y-94760912D01*
X138246988Y-95076644D01*
X138164883Y-95262070D01*
X137995118Y-95326957D01*
X137709852Y-95281074D01*
X137281246Y-95134191D01*
X137245000Y-95120319D01*
X136732265Y-94978585D01*
X136279578Y-94981146D01*
X135871442Y-95137806D01*
X135492360Y-95458370D01*
X135126836Y-95952643D01*
X134759372Y-96630429D01*
X134716564Y-96720000D01*
X134262731Y-97818560D01*
X133953552Y-98878810D01*
X133812944Y-99719672D01*
X133782777Y-100053435D01*
X133786686Y-100237536D01*
X133836151Y-100316389D01*
X133942653Y-100334404D01*
X133971906Y-100334615D01*
X134494431Y-100425820D01*
X135036333Y-100688734D01*
X135487122Y-101035993D01*
X135994960Y-101623836D01*
X136327361Y-102292116D01*
X136479966Y-103026885D01*
X136448412Y-103814195D01*
X136414489Y-104002007D01*
X136240987Y-104625063D01*
X135980553Y-105157624D01*
X135594531Y-105671961D01*
X135416874Y-105867107D01*
X134929171Y-106382781D01*
X135207855Y-106444284D01*
X136715589Y-106833341D01*
X138046918Y-107297529D01*
X139207141Y-107840164D01*
X140201562Y-108464562D01*
X141035480Y-109174037D01*
X141714197Y-109971906D01*
X142230812Y-110836538D01*
X142472832Y-111364069D01*
X142651389Y-111852641D01*
X142775346Y-112348587D01*
X142853569Y-112898242D01*
X142894923Y-113547939D01*
X142908272Y-114344013D01*
X142908346Y-114377890D01*
X142912411Y-114910016D01*
X142921856Y-115366280D01*
X142935526Y-115714237D01*
X142952266Y-115921442D01*
X142964885Y-115965390D01*
X143073674Y-115906258D01*
X143114081Y-115869919D01*
X143374822Y-115706193D01*
X143784423Y-115561472D01*
X144296735Y-115442657D01*
X144865610Y-115356646D01*
X145444897Y-115310341D01*
X145988449Y-115310642D01*
X146450115Y-115364449D01*
X146468672Y-115368335D01*
X146763360Y-115424731D01*
X146968562Y-115451207D01*
X147027598Y-115447274D01*
X147032940Y-115342102D01*
X147020296Y-115085730D01*
X146992276Y-114721257D01*
X146966774Y-114443902D01*
X146896530Y-113637350D01*
X146837272Y-112764147D01*
X146788817Y-111811257D01*
X146750979Y-110765643D01*
X146723573Y-109614271D01*
X146706415Y-108344104D01*
X146699320Y-106942105D01*
X146702103Y-105395240D01*
X146714580Y-103690471D01*
X146736566Y-101814764D01*
X146762895Y-100057666D01*
X146793506Y-97982954D01*
X146814299Y-96087449D01*
X146824584Y-94355183D01*
X146823670Y-92770191D01*
X146810866Y-91316509D01*
X146785480Y-89978169D01*
X146746822Y-88739206D01*
X146694202Y-87583655D01*
X146626927Y-86495550D01*
X146544308Y-85458925D01*
X146445652Y-84457814D01*
X146330270Y-83476253D01*
X146197471Y-82498274D01*
X146046563Y-81507913D01*
X145929344Y-80796154D01*
X145659212Y-79376914D01*
X145328750Y-77937539D01*
X144946598Y-76502284D01*
X144521396Y-75095402D01*
X144061783Y-73741145D01*
X143576400Y-72463768D01*
X143073885Y-71287524D01*
X142562880Y-70236665D01*
X142052023Y-69335446D01*
X141620194Y-68699637D01*
X141293459Y-68246983D01*
X140941852Y-67730286D01*
X140632315Y-67248422D01*
X140583247Y-67168077D01*
X139773070Y-65943171D01*
X138817995Y-64698386D01*
X137757204Y-63479328D01*
X136629882Y-62331606D01*
X135718259Y-61505535D01*
X135428570Y-61277845D01*
X137093848Y-61277845D01*
X138031482Y-62254726D01*
X138626915Y-62899897D01*
X139251784Y-63620293D01*
X139861042Y-64361381D01*
X140409645Y-65068625D01*
X140784333Y-65587506D01*
X140979263Y-65837619D01*
X141151412Y-66003652D01*
X141235779Y-66044615D01*
X141370994Y-65969743D01*
X141545484Y-65782329D01*
X141604138Y-65701381D01*
X142024268Y-65246374D01*
X142559737Y-64917249D01*
X143167277Y-64725787D01*
X143803619Y-64683770D01*
X144425495Y-64802979D01*
X144620769Y-64879980D01*
X145215602Y-65239883D01*
X145662120Y-65695781D01*
X145964193Y-66221131D01*
X146125691Y-66789390D01*
X146150482Y-67374018D01*
X146042436Y-67948471D01*
X145805421Y-68486206D01*
X145443308Y-68960681D01*
X144959965Y-69345355D01*
X144359262Y-69613684D01*
X143916398Y-69711899D01*
X143456258Y-69777939D01*
X143746369Y-70352647D01*
X144004521Y-70897956D01*
X144299463Y-71576734D01*
X144609884Y-72335907D01*
X144914472Y-73122398D01*
X145191915Y-73883131D01*
X145350840Y-74348461D01*
X145521387Y-74862069D01*
X145642656Y-75217532D01*
X145725195Y-75442709D01*
X145779545Y-75565456D01*
X145816253Y-75613631D01*
X145831554Y-75618461D01*
X145930713Y-75590552D01*
X146164879Y-75517365D01*
X146483467Y-75414711D01*
X146485212Y-75414142D01*
X147561358Y-74964295D01*
X148532821Y-74357779D01*
X149390299Y-73608450D01*
X150124492Y-72730161D01*
X150726097Y-71736764D01*
X151185813Y-70642113D01*
X151494340Y-69460063D01*
X151642376Y-68204466D01*
X151654615Y-67714733D01*
X151589398Y-66528541D01*
X151384510Y-65434155D01*
X151026095Y-64373895D01*
X150666766Y-63602308D01*
X150049182Y-62607674D01*
X149292856Y-61749364D01*
X148402567Y-61031124D01*
X147383093Y-60456698D01*
X146239215Y-60029835D01*
X146037308Y-59973434D01*
X145408817Y-59851895D01*
X144644194Y-59776754D01*
X143797101Y-59748002D01*
X142921200Y-59765630D01*
X142070154Y-59829631D01*
X141297623Y-59939995D01*
X141125979Y-59974205D01*
X139617108Y-60353722D01*
X138204499Y-60825728D01*
X137804424Y-60984420D01*
X137093848Y-61277845D01*
X135428570Y-61277845D01*
X133889709Y-60068333D01*
X131949504Y-58790883D01*
X129899853Y-57674161D01*
X127742962Y-56719141D01*
X125481041Y-55926798D01*
X123116297Y-55298107D01*
X120650938Y-54834043D01*
X120584303Y-54824000D01*
X118518725Y-54575057D01*
X116297237Y-54423839D01*
X113917378Y-54370360D01*
X111376691Y-54414633D01*
X108672714Y-54556673D01*
X105802988Y-54796493D01*
X104664615Y-54913687D01*
X102758813Y-55124557D01*
X101033877Y-55326242D01*
X99475615Y-55520838D01*
X98069833Y-55710444D01*
X96802339Y-55897157D01*
X95658942Y-56083074D01*
X94625447Y-56270293D01*
X93687663Y-56460912D01*
X92831398Y-56657029D01*
X92773516Y-56671172D01*
X90618582Y-57270764D01*
X88615650Y-57978061D01*
X86748018Y-58802208D01*
X84998985Y-59752351D01*
X83351848Y-60837635D01*
X81789907Y-62067206D01*
X80296458Y-63450208D01*
X80180617Y-63566562D01*
X78666120Y-65234759D01*
X77276404Y-67053287D01*
X76011477Y-69022119D01*
X74871350Y-71141229D01*
X73856032Y-73410591D01*
X72965534Y-75830176D01*
X72199864Y-78399959D01*
X71559032Y-81119912D01*
X71043050Y-83990010D01*
X70651925Y-87010225D01*
X70385667Y-90180531D01*
X70365281Y-90516538D01*
X70333170Y-91238200D01*
X70310165Y-92133075D01*
X70296002Y-93179215D01*
X70290415Y-94354674D01*
X69318557Y-94354674D01*
X69331209Y-93359026D01*
X69371202Y-91888275D01*
X69431561Y-90481892D01*
X69512351Y-89125431D01*
X69613636Y-87804446D01*
X69735481Y-86504491D01*
X69842158Y-85519211D01*
X69923332Y-84877787D01*
X70033534Y-84105405D01*
X70164914Y-83249442D01*
X70309621Y-82357274D01*
X70459805Y-81476278D01*
X70607614Y-80653831D01*
X70745198Y-79937311D01*
X70848789Y-79444485D01*
X70937764Y-78997548D01*
X70965558Y-78721763D01*
X70933387Y-78603132D01*
X70922448Y-78597706D01*
X69561644Y-78162354D01*
X68378519Y-77720271D01*
X67355444Y-77259319D01*
X66474788Y-76767361D01*
X65718923Y-76232261D01*
X65070217Y-75641880D01*
X64511040Y-74984083D01*
X64023763Y-74246732D01*
X63685797Y-73615769D01*
X63346571Y-72860016D01*
X63115253Y-72167244D01*
X62969656Y-71454659D01*
X62915897Y-70920617D01*
X63930974Y-70920617D01*
X64076870Y-71895013D01*
X64381979Y-72796598D01*
X64856459Y-73682442D01*
X65474889Y-74521605D01*
X66211847Y-75283146D01*
X67041912Y-75936121D01*
X67736923Y-76349801D01*
X68158321Y-76550418D01*
X68664785Y-76766296D01*
X69215244Y-76982671D01*
X69768626Y-77184780D01*
X70283863Y-77357862D01*
X70719882Y-77487152D01*
X71035615Y-77557888D01*
X71121987Y-77566572D01*
X71254439Y-77537642D01*
X71348175Y-77412903D01*
X71431771Y-77148644D01*
X71453543Y-77059423D01*
X71551430Y-76696488D01*
X71703151Y-76194659D01*
X71893931Y-75597986D01*
X72108992Y-74950514D01*
X72333559Y-74296294D01*
X72552854Y-73679372D01*
X72752100Y-73143798D01*
X72854562Y-72883077D01*
X73190431Y-72052692D01*
X72490793Y-72002714D01*
X71852773Y-71909444D01*
X71341718Y-71716462D01*
X70904522Y-71399881D01*
X70709341Y-71201477D01*
X70357551Y-70736415D01*
X70154321Y-70257355D01*
X70073569Y-69694790D01*
X70069327Y-69495827D01*
X70146486Y-68819288D01*
X70386461Y-68238882D01*
X70801994Y-67725629D01*
X70879574Y-67653256D01*
X71326890Y-67310127D01*
X71778277Y-67110906D01*
X72306594Y-67028165D01*
X72557624Y-67021538D01*
X73245270Y-67092177D01*
X73826019Y-67314340D01*
X74329675Y-67703402D01*
X74674227Y-68113245D01*
X74947424Y-68490382D01*
X75702002Y-67340768D01*
X76785443Y-65788538D01*
X77912566Y-64372791D01*
X78277260Y-63953074D01*
X78875767Y-63278070D01*
X78233542Y-62809864D01*
X77365615Y-62293891D01*
X76389369Y-61918843D01*
X75327918Y-61681073D01*
X74204371Y-61576931D01*
X73041843Y-61602772D01*
X71863444Y-61754947D01*
X70692286Y-62029808D01*
X69551482Y-62423708D01*
X68464144Y-62932999D01*
X67453382Y-63554034D01*
X66542310Y-64283164D01*
X66095178Y-64725628D01*
X65410619Y-65586286D01*
X64842754Y-66561322D01*
X64401220Y-67616506D01*
X64095654Y-68717605D01*
X63935693Y-69830386D01*
X63930974Y-70920617D01*
X62915897Y-70920617D01*
X62887595Y-70639465D01*
X62887381Y-70636154D01*
X62903794Y-69446147D01*
X63096316Y-68239689D01*
X63454603Y-67058719D01*
X63968309Y-65945177D01*
X64101977Y-65712032D01*
X64683434Y-64879047D01*
X65418109Y-64053075D01*
X66265749Y-63268418D01*
X67186103Y-62559378D01*
X68138919Y-61960258D01*
X68996358Y-61541122D01*
X70150414Y-61131156D01*
X71343349Y-60838199D01*
X72550921Y-60660728D01*
X73748885Y-60597223D01*
X74912997Y-60646161D01*
X76019013Y-60806021D01*
X77042688Y-61075281D01*
X77959779Y-61452419D01*
X78746041Y-61935915D01*
X79032178Y-62171008D01*
X79524639Y-62613773D01*
X80298281Y-61928821D01*
X82030381Y-60523007D01*
X83891467Y-59253706D01*
X85859896Y-58132983D01*
X87914027Y-57172907D01*
X90032220Y-56385543D01*
X90509884Y-56235110D01*
X91350921Y-55978884D01*
X91583937Y-55484450D01*
X92514050Y-55484450D01*
X92522038Y-55572369D01*
X92639386Y-55590955D01*
X92674465Y-55591036D01*
X92853948Y-55571086D01*
X93176950Y-55517273D01*
X93596239Y-55438020D01*
X94023936Y-55350406D01*
X94601835Y-55234170D01*
X95278341Y-55107963D01*
X95958585Y-54989059D01*
X96417398Y-54914563D01*
X96765024Y-54865870D01*
X97284047Y-54800291D01*
X97951444Y-54720306D01*
X98744187Y-54628394D01*
X99639253Y-54527033D01*
X100613617Y-54418703D01*
X101644253Y-54305882D01*
X102708136Y-54191050D01*
X103782241Y-54076685D01*
X104843544Y-53965267D01*
X105869019Y-53859276D01*
X106835641Y-53761189D01*
X107720385Y-53673486D01*
X108500227Y-53598646D01*
X109152140Y-53539147D01*
X109353846Y-53521727D01*
X109969869Y-53480483D01*
X110726448Y-53447305D01*
X111590894Y-53422188D01*
X112530519Y-53405128D01*
X113512633Y-53396120D01*
X114504546Y-53395161D01*
X115473569Y-53402245D01*
X116387013Y-53417368D01*
X117212189Y-53440525D01*
X117916407Y-53471714D01*
X118466977Y-53510928D01*
X118585769Y-53522971D01*
X119830757Y-53684214D01*
X121131775Y-53895861D01*
X122441526Y-54147895D01*
X123712713Y-54430301D01*
X124898038Y-54733061D01*
X125950205Y-55046160D01*
X126246685Y-55145390D01*
X126588938Y-55259969D01*
X126849494Y-55340311D01*
X126982832Y-55372586D01*
X126990957Y-55371520D01*
X126945618Y-55284671D01*
X126806161Y-55039776D01*
X126578421Y-54646673D01*
X126268234Y-54115200D01*
X125881435Y-53455195D01*
X125423858Y-52676493D01*
X124901339Y-51788934D01*
X124319714Y-50802354D01*
X123684816Y-49726591D01*
X123002482Y-48571482D01*
X122278546Y-47346865D01*
X121518843Y-46062577D01*
X120729209Y-44728456D01*
X119915479Y-43354339D01*
X119083487Y-41950063D01*
X118239070Y-40525466D01*
X117388062Y-39090385D01*
X116536297Y-37654659D01*
X115689612Y-36228123D01*
X114853842Y-34820616D01*
X114034821Y-33441975D01*
X113238384Y-32102038D01*
X112470368Y-30810641D01*
X111736606Y-29577623D01*
X111042934Y-28412821D01*
X110395188Y-27326072D01*
X109799201Y-26327213D01*
X109260810Y-25426083D01*
X108785849Y-24632518D01*
X108380154Y-23956357D01*
X108049560Y-23407436D01*
X107799902Y-22995592D01*
X107637014Y-22730664D01*
X107566732Y-22622489D01*
X107564481Y-22620385D01*
X107516622Y-22707844D01*
X107391960Y-22964336D01*
X107194560Y-23381030D01*
X106928488Y-23949097D01*
X106597810Y-24659705D01*
X106206594Y-25504024D01*
X105758905Y-26473225D01*
X105258809Y-27558477D01*
X104710372Y-28750950D01*
X104117662Y-30041814D01*
X103484744Y-31422238D01*
X102815684Y-32883392D01*
X102114549Y-34416446D01*
X101385405Y-36012570D01*
X100632318Y-37662933D01*
X100119189Y-38788461D01*
X99350512Y-40475102D01*
X98602422Y-42116509D01*
X97879049Y-43703624D01*
X97184523Y-45227390D01*
X96522972Y-46678749D01*
X95898525Y-48048643D01*
X95315313Y-49328015D01*
X94777465Y-50507808D01*
X94289109Y-51578963D01*
X93854375Y-52532423D01*
X93477393Y-53359130D01*
X93162292Y-54050027D01*
X92913200Y-54596056D01*
X92734248Y-54988159D01*
X92629565Y-55217278D01*
X92603525Y-55274038D01*
X92514050Y-55484450D01*
X91583937Y-55484450D01*
X91937128Y-54735019D01*
X92039006Y-54515922D01*
X92217433Y-54128746D01*
X92467965Y-53583219D01*
X92786157Y-52889069D01*
X93167565Y-52056024D01*
X93607744Y-51093812D01*
X94102249Y-50012159D01*
X94646637Y-48820796D01*
X95236463Y-47529448D01*
X95867282Y-46147844D01*
X96534649Y-44685711D01*
X97234120Y-43152778D01*
X97961252Y-41558773D01*
X98711598Y-39913422D01*
X99480715Y-38226455D01*
X99925890Y-37249808D01*
X100840940Y-35242541D01*
X101678698Y-33405743D01*
X102442654Y-31731980D01*
X103136295Y-30213818D01*
X103763112Y-28843824D01*
X104326594Y-27614563D01*
X104830230Y-26518601D01*
X105277509Y-25548505D01*
X105671921Y-24696839D01*
X106016955Y-23956172D01*
X106316099Y-23319067D01*
X106572844Y-22778092D01*
X106790679Y-22325812D01*
X106973092Y-21954794D01*
X107123573Y-21657604D01*
X107245611Y-21426807D01*
X107342696Y-21254969D01*
X107418317Y-21134657D01*
X107475963Y-21058437D01*
X107519122Y-21018874D01*
X107549000Y-21008461D01*
X107733042Y-21070988D01*
G04 #@! TA.AperFunction,EtchedComponent*
G36*
X107733042Y-21070988D02*
G01*
X107886423Y-21282340D01*
X107929693Y-21374808D01*
X107961840Y-21446444D01*
X108000692Y-21528042D01*
X108050265Y-21626442D01*
X108114574Y-21748487D01*
X108197637Y-21901016D01*
X108303468Y-22090871D01*
X108436084Y-22324893D01*
X108599500Y-22609923D01*
X108797733Y-22952802D01*
X109034798Y-23360371D01*
X109314712Y-23839471D01*
X109641490Y-24396943D01*
X110019148Y-25039628D01*
X110451703Y-25774367D01*
X110943170Y-26608001D01*
X111497565Y-27547371D01*
X112118904Y-28599319D01*
X112811204Y-29770684D01*
X113578479Y-31068309D01*
X114424747Y-32499035D01*
X115354022Y-34069701D01*
X116370321Y-35787150D01*
X117477660Y-37658222D01*
X118680055Y-39689759D01*
X118830000Y-39943095D01*
X128257308Y-55870787D01*
X129307010Y-56329979D01*
X131061128Y-57175676D01*
X132810473Y-58169336D01*
X134490735Y-59272828D01*
X135405644Y-59946116D01*
X136203980Y-60559671D01*
X137359490Y-60093382D01*
X138741722Y-59582552D01*
X140041221Y-59205484D01*
X141307348Y-58951974D01*
X142589464Y-58811820D01*
X143741538Y-58774169D01*
X144914428Y-58810334D01*
X145946156Y-58928816D01*
X146876869Y-59139112D01*
X147746714Y-59450721D01*
X148595839Y-59873142D01*
X148741996Y-59957231D01*
X149610750Y-60576481D01*
X150375223Y-61342235D01*
X151031909Y-62233603D01*
X151577301Y-63229697D01*
X152007891Y-64309629D01*
X152320171Y-65452511D01*
X152510636Y-66637454D01*
X152575777Y-67843569D01*
X152512088Y-69049968D01*
X152316061Y-70235763D01*
X151984190Y-71380065D01*
X151512966Y-72461986D01*
X150988065Y-73334600D01*
X150208665Y-74306302D01*
X149327979Y-75112512D01*
X148336245Y-75760358D01*
X147223703Y-76256971D01*
X146790215Y-76400563D01*
X146453879Y-76506472D01*
X146204979Y-76591995D01*
X146089298Y-76641230D01*
X146086154Y-76645084D01*
X146107217Y-76746728D01*
X146164225Y-76998042D01*
X146247908Y-77358613D01*
X146327175Y-77695796D01*
X146583186Y-78834396D01*
X146812359Y-79976513D01*
X147015563Y-81136116D01*
X147193665Y-82327176D01*
X147347534Y-83563663D01*
X147478039Y-84859546D01*
X147586048Y-86228796D01*
X147672428Y-87685384D01*
X147738049Y-89243279D01*
X147783778Y-90916452D01*
X147810484Y-92718872D01*
X147819034Y-94664510D01*
X147810299Y-96767335D01*
X147785145Y-99041319D01*
X147758531Y-100725385D01*
X147729247Y-102589035D01*
X147710071Y-104279924D01*
X147701330Y-105820431D01*
X147703351Y-107232934D01*
X147716459Y-108539812D01*
X147740981Y-109763443D01*
X147777243Y-110926206D01*
X147825573Y-112050479D01*
X147886295Y-113158641D01*
X147955219Y-114209202D01*
X148075860Y-115921096D01*
X148444917Y-116183849D01*
X148928852Y-116638645D01*
X149248547Y-117182628D01*
X149397351Y-117789487D01*
X149368616Y-118432913D01*
X149170438Y-119054903D01*
X148992076Y-119412310D01*
X148802616Y-119743065D01*
X148685164Y-119917801D01*
X148585049Y-120081478D01*
X148500372Y-120296330D01*
X148431251Y-120572805D01*
X148377806Y-120921354D01*
X148340155Y-121352424D01*
X148318417Y-121876464D01*
X148312712Y-122503925D01*
X148323158Y-123245253D01*
X148349874Y-124110900D01*
X148392978Y-125111313D01*
X148452591Y-126256941D01*
X148528831Y-127558234D01*
X148621817Y-129025640D01*
X148731668Y-130669608D01*
X148822557Y-131986923D01*
X148956748Y-133951265D01*
X149072361Y-135738800D01*
X149169628Y-137367197D01*
X149248777Y-138854126D01*
X149310038Y-140217257D01*
X149353642Y-141474260D01*
X149379818Y-142642804D01*
X149388794Y-143740559D01*
X149380803Y-144785195D01*
X149356072Y-145794383D01*
X149314832Y-146785791D01*
X149257312Y-147777089D01*
X149183742Y-148785948D01*
X149094352Y-149830037D01*
X149059420Y-150206538D01*
X148885988Y-151851529D01*
X148685006Y-153356772D01*
X148446894Y-154751481D01*
X148162070Y-156064868D01*
X147820956Y-157326145D01*
X147413969Y-158564524D01*
X146931531Y-159809219D01*
X146364059Y-161089440D01*
X145701975Y-162434401D01*
X144935696Y-163873313D01*
X144077332Y-165397692D01*
X143494225Y-166413687D01*
X142977163Y-167318716D01*
X142531250Y-168103706D01*
X142161591Y-168759584D01*
X141873289Y-169277278D01*
X141671450Y-169647716D01*
X141561177Y-169861824D01*
X141544727Y-169899284D01*
X141556731Y-170014392D01*
X141712487Y-170112049D01*
X141905755Y-170177458D01*
X142731234Y-170506631D01*
X143567676Y-170997141D01*
X144380729Y-171620271D01*
X145136039Y-172347299D01*
X145799253Y-173149508D01*
X146212394Y-173777815D01*
X146691328Y-174730146D01*
X147021494Y-175684111D01*
X147205253Y-176621479D01*
X147244963Y-177524016D01*
X147142984Y-178373490D01*
X146901676Y-179151665D01*
X146523397Y-179840311D01*
X146010508Y-180421192D01*
X145365367Y-180876077D01*
X145288623Y-180916518D01*
X144554370Y-181202832D01*
X143801979Y-181313932D01*
X143013806Y-181249165D01*
X142172205Y-181007875D01*
X141641154Y-180781364D01*
X141246418Y-180579821D01*
X140862724Y-180348733D01*
X140469658Y-180070818D01*
X140046807Y-179728792D01*
X139573757Y-179305374D01*
X139030094Y-178783281D01*
X138395405Y-178145229D01*
X137791594Y-177522207D01*
X137277908Y-176991167D01*
X136789225Y-176492217D01*
X136347351Y-176047136D01*
X135974089Y-175677706D01*
X135691241Y-175405710D01*
X135520612Y-175252929D01*
X135517688Y-175250599D01*
X135139495Y-174951065D01*
X133387019Y-175647012D01*
X129760959Y-176985456D01*
X126109094Y-178130624D01*
X122427608Y-179083383D01*
X118712684Y-179844599D01*
X114960507Y-180415141D01*
X111167260Y-180795874D01*
X110526154Y-180841245D01*
X109760444Y-180879456D01*
X108850575Y-180903885D01*
X107835183Y-180915149D01*
X106752904Y-180913864D01*
X105642373Y-180900646D01*
X104542226Y-180876113D01*
X103491100Y-180840880D01*
X102527629Y-180795564D01*
X101690450Y-180740781D01*
X101147692Y-180691632D01*
X98326033Y-180326217D01*
X95635563Y-179843526D01*
X93047162Y-179237982D01*
X91886009Y-178917584D01*
X91128451Y-178689497D01*
X90345507Y-178437880D01*
X89563556Y-178172639D01*
X88808979Y-177903679D01*
X88108153Y-177640905D01*
X87487459Y-177394223D01*
X86973274Y-177173538D01*
X86591979Y-176988756D01*
X86369953Y-176849782D01*
X86362839Y-176843622D01*
X86266224Y-176774397D01*
X86155832Y-176757467D01*
X85991237Y-176803529D01*
X85732013Y-176923278D01*
X85385916Y-177102094D01*
X85076725Y-177279666D01*
X84643359Y-177549946D01*
X84119648Y-177890713D01*
X83539423Y-178279747D01*
X82936517Y-178694825D01*
X82591624Y-178937433D01*
X81619362Y-179618167D01*
X80778588Y-180184823D01*
X80049663Y-180647156D01*
X79412944Y-181014922D01*
X78848790Y-181297878D01*
X78337562Y-181505779D01*
X77859618Y-181648381D01*
X77395317Y-181735441D01*
X76925018Y-181776714D01*
X76871154Y-181778912D01*
X76387249Y-181786119D01*
X76025886Y-181760117D01*
X75715728Y-181691903D01*
X75454615Y-181600137D01*
X75059728Y-181385214D01*
X74612785Y-181048067D01*
X74161522Y-180634448D01*
X73753677Y-180190111D01*
X73436987Y-179760807D01*
X73323782Y-179557868D01*
X73049782Y-178805248D01*
X72955892Y-178061603D01*
X72996972Y-177716510D01*
X73441708Y-177716510D01*
X73449854Y-178281151D01*
X73605662Y-178901779D01*
X73894258Y-179525947D01*
X74006832Y-179709615D01*
X74325370Y-180198077D01*
X74390082Y-179436977D01*
X74534314Y-178632673D01*
X74832455Y-177901235D01*
X75299706Y-177212293D01*
X75744782Y-176730000D01*
X76147514Y-176364724D01*
X76563265Y-176036465D01*
X76958687Y-175766830D01*
X77300432Y-175577427D01*
X77555150Y-175489865D01*
X77651205Y-175494757D01*
X77789187Y-175610027D01*
X77739583Y-175778125D01*
X77502260Y-175999253D01*
X77194162Y-176204182D01*
X76579101Y-176643691D01*
X76008036Y-177174150D01*
X75530108Y-177744585D01*
X75218473Y-178253583D01*
X75032300Y-178702643D01*
X74945664Y-179128941D01*
X74928529Y-179465385D01*
X74929532Y-179988241D01*
X74954641Y-180354385D01*
X75015724Y-180602106D01*
X75124649Y-180769691D01*
X75293281Y-180895430D01*
X75387544Y-180946391D01*
X76041404Y-181197064D01*
X76736465Y-181292686D01*
X77509890Y-181236813D01*
X77819792Y-181179214D01*
X78333197Y-181042728D01*
X78858811Y-180842810D01*
X79419296Y-180566436D01*
X80037312Y-180200581D01*
X80735519Y-179732221D01*
X81536577Y-179148330D01*
X82097692Y-178720369D01*
X82861302Y-178135041D01*
X83498626Y-177659137D01*
X84033591Y-177277135D01*
X84490124Y-176973515D01*
X84892153Y-176732754D01*
X85263605Y-176539331D01*
X85628406Y-176377726D01*
X85832370Y-176297730D01*
X86392048Y-176086510D01*
X84562370Y-174219647D01*
X83993627Y-173642172D01*
X83537718Y-173187592D01*
X83173031Y-172837029D01*
X82877954Y-172571604D01*
X82630875Y-172372439D01*
X82410183Y-172220655D01*
X82194266Y-172097374D01*
X82050900Y-172025815D01*
X81647893Y-171847000D01*
X81317388Y-171747561D01*
X80964763Y-171705657D01*
X80634362Y-171698846D01*
X80325576Y-171702157D01*
X80084393Y-171722772D01*
X79864286Y-171776718D01*
X79618734Y-171880022D01*
X79301211Y-172048708D01*
X78865193Y-172298803D01*
X78825000Y-172322111D01*
X78014011Y-172804240D01*
X77336435Y-173237430D01*
X76748265Y-173654573D01*
X76205490Y-174088561D01*
X75664104Y-174572285D01*
X75151260Y-175067825D01*
X74579722Y-175657068D01*
X74146771Y-176160219D01*
X73833416Y-176606701D01*
X73620666Y-177025940D01*
X73489528Y-177447358D01*
X73441708Y-177716510D01*
X72996972Y-177716510D01*
X73044410Y-177318012D01*
X73317633Y-176565550D01*
X73777858Y-175795295D01*
X74427382Y-174998325D01*
X74524523Y-174893694D01*
X75120892Y-174315756D01*
X75844658Y-173704176D01*
X76642749Y-173100179D01*
X77462092Y-172544993D01*
X77872500Y-172293063D01*
X78218442Y-172084294D01*
X78490064Y-171911520D01*
X78650655Y-171798577D01*
X78678462Y-171769750D01*
X78614409Y-171686007D01*
X78438512Y-171488775D01*
X78175155Y-171204621D01*
X77848728Y-170860111D01*
X77725962Y-170732133D01*
X76297497Y-169126465D01*
X75009994Y-167422395D01*
X73861047Y-165613686D01*
X72848250Y-163694101D01*
X71969197Y-161657403D01*
X71221482Y-159497354D01*
X70602699Y-157207718D01*
X70110442Y-154782259D01*
X69742305Y-152214737D01*
X69495883Y-149498918D01*
X69487814Y-149376154D01*
X69444178Y-148459944D01*
X69419549Y-147377328D01*
X69413433Y-146156309D01*
X69425332Y-144824889D01*
X69454753Y-143411073D01*
X69501198Y-141942861D01*
X69564174Y-140448257D01*
X69643183Y-138955265D01*
X69684049Y-138288077D01*
X69780908Y-136764128D01*
X69865163Y-135413088D01*
X69937858Y-134212957D01*
X70000035Y-133141736D01*
X70052736Y-132177426D01*
X70097004Y-131298028D01*
X70133880Y-130481541D01*
X70164409Y-129705968D01*
X70189632Y-128949309D01*
X70210591Y-128189564D01*
X70228330Y-127404736D01*
X70243890Y-126572823D01*
X70246496Y-126419004D01*
X70307731Y-122756084D01*
X69748854Y-123266866D01*
X69082795Y-123813881D01*
X68285223Y-124367443D01*
X67414676Y-124888753D01*
X66865057Y-125178207D01*
X66460875Y-125373404D01*
X66157133Y-125494306D01*
X65881886Y-125558591D01*
X65563192Y-125583939D01*
X65197154Y-125588077D01*
X64768853Y-125581796D01*
X64474359Y-125554004D01*
X64252259Y-125491279D01*
X64041144Y-125380197D01*
X63935578Y-125312323D01*
X63528587Y-124938867D01*
X63318632Y-124579631D01*
X63173735Y-124297402D01*
X63028944Y-124090233D01*
X62966382Y-124033958D01*
X62671022Y-123816790D01*
X62359920Y-123518900D01*
X62085855Y-123198014D01*
X61901607Y-122911860D01*
X61869182Y-122833899D01*
X61791772Y-122355790D01*
X61791976Y-122352590D01*
X62285310Y-122352590D01*
X62442893Y-122838263D01*
X62775740Y-123252903D01*
X62931944Y-123377143D01*
X63226301Y-123586744D01*
X63438027Y-123244164D01*
X63679247Y-122936402D01*
X64011754Y-122618185D01*
X64388214Y-122324359D01*
X64761291Y-122089772D01*
X65083650Y-121949270D01*
X65230466Y-121924615D01*
X65385945Y-122003451D01*
X65427161Y-122069918D01*
X65386127Y-122209008D01*
X65175083Y-122411993D01*
X64917455Y-122599220D01*
X64322179Y-123053848D01*
X63916731Y-123479505D01*
X63701499Y-123874677D01*
X63676872Y-124237854D01*
X63843241Y-124567524D01*
X64200993Y-124862175D01*
X64317692Y-124928753D01*
X64766761Y-125099622D01*
X65250030Y-125137643D01*
X65797163Y-125039825D01*
X66437829Y-124803176D01*
X66682851Y-124690261D01*
X67952531Y-123991725D01*
X69069834Y-123189525D01*
X69591788Y-122729016D01*
X70257898Y-122096524D01*
X70214456Y-120129993D01*
X70198365Y-119498727D01*
X70179305Y-118906542D01*
X70158814Y-118391691D01*
X70138429Y-117992425D01*
X70119685Y-117746996D01*
X70118210Y-117734397D01*
X70065406Y-117305333D01*
X69169818Y-117364666D01*
X68339557Y-117454001D01*
X67591735Y-117617528D01*
X66841912Y-117877333D01*
X66296654Y-118116127D01*
X65498706Y-118534853D01*
X64727041Y-119026216D01*
X64013104Y-119564263D01*
X63388338Y-120123046D01*
X62884188Y-120676613D01*
X62532100Y-121199013D01*
X62510301Y-121240934D01*
X62306582Y-121814082D01*
X62285310Y-122352590D01*
X61791976Y-122352590D01*
X61827329Y-121799332D01*
X61967681Y-121239477D01*
X62070025Y-120991237D01*
X62283256Y-120648858D01*
X62619173Y-120231479D01*
X63040717Y-119776602D01*
X63510828Y-119321728D01*
X63992449Y-118904360D01*
X64448519Y-118561999D01*
X64513077Y-118519013D01*
X65701937Y-117830527D01*
X66877170Y-117329484D01*
X68054759Y-117010197D01*
X69140831Y-116872873D01*
X70105124Y-116814904D01*
X70038616Y-115339952D01*
X70019781Y-114933707D01*
X69992429Y-114359940D01*
X69957912Y-113646262D01*
X69917582Y-112820286D01*
X69872793Y-111909624D01*
X69824895Y-110941889D01*
X69775241Y-109944694D01*
X69736744Y-109175769D01*
X69616121Y-106670027D01*
X69515349Y-104344219D01*
X69434494Y-102183900D01*
X69373618Y-100174623D01*
X69332788Y-98301943D01*
X69312067Y-96551415D01*
X69311519Y-94908591D01*
X69318557Y-94354674D01*
X70290415Y-94354674D01*
X70293136Y-95637505D01*
X70303900Y-97005760D01*
X70322442Y-98437492D01*
X70348494Y-99910755D01*
X70381790Y-101403602D01*
X70422066Y-102894085D01*
X70469054Y-104360257D01*
X70522489Y-105780172D01*
X70561307Y-106684615D01*
X70643546Y-108511751D01*
X70716778Y-110162234D01*
X70781611Y-111654559D01*
X70838652Y-113007224D01*
X70888507Y-114238722D01*
X70931784Y-115367549D01*
X70969090Y-116412201D01*
X71001032Y-117391174D01*
X71028217Y-118322962D01*
X71051253Y-119226062D01*
X71070746Y-120118968D01*
X71087304Y-121020176D01*
X71101533Y-121948181D01*
X71114041Y-122921480D01*
X71124101Y-123829615D01*
X71138510Y-125575535D01*
X71142792Y-127162281D01*
X71135992Y-128625850D01*
X71117153Y-130002239D01*
X71085318Y-131327443D01*
X71039533Y-132637458D01*
X70978839Y-133968281D01*
X70902282Y-135355908D01*
X70808905Y-136836335D01*
X70759011Y-137573330D01*
X70692346Y-138656588D01*
X70634182Y-139834320D01*
X70585027Y-141076403D01*
X70545387Y-142352714D01*
X70515767Y-143633129D01*
X70496674Y-144887526D01*
X70488613Y-146085781D01*
X70492091Y-147197772D01*
X70507615Y-148193377D01*
X70535689Y-149042470D01*
X70559078Y-149473846D01*
X70752697Y-151800762D01*
X71022372Y-153966625D01*
X71373233Y-155992438D01*
X71810412Y-157899205D01*
X72339039Y-159707928D01*
X72964244Y-161439611D01*
X73691159Y-163115258D01*
X74090723Y-163931474D01*
X74991559Y-165556019D01*
X75999822Y-167083753D01*
X77142932Y-168552360D01*
X78448306Y-169999525D01*
X78675885Y-170233461D01*
X79635639Y-171210385D01*
X80598012Y-171210385D01*
X81049626Y-171214240D01*
X81371594Y-171235776D01*
X81629633Y-171289945D01*
X81889461Y-171391699D01*
X82216798Y-171555990D01*
X82293077Y-171596051D01*
X82541234Y-171735678D01*
X82785792Y-171896477D01*
X83048956Y-172097721D01*
X83352933Y-172358684D01*
X83719929Y-172698639D01*
X84172152Y-173136861D01*
X84731808Y-173692623D01*
X84881923Y-173842974D01*
X85512127Y-174474566D01*
X86023446Y-174983977D01*
X86435189Y-175387148D01*
X86766663Y-175700018D01*
X87037177Y-175938528D01*
X87266040Y-176118618D01*
X87472559Y-176256230D01*
X87676044Y-176367304D01*
X87895803Y-176467780D01*
X88151144Y-176573599D01*
X88226727Y-176604354D01*
X90451717Y-177426884D01*
X92818788Y-178144245D01*
X95301985Y-178750957D01*
X97875350Y-179241543D01*
X100512926Y-179610523D01*
X103188758Y-179852418D01*
X103785385Y-179888331D01*
X104378881Y-179911669D01*
X105121563Y-179926799D01*
X105967416Y-179933976D01*
X106870425Y-179933457D01*
X107784575Y-179925498D01*
X108663851Y-179910356D01*
X109462238Y-179888287D01*
X110133721Y-179859547D01*
X110261276Y-179852268D01*
X113656027Y-179559640D01*
X117092371Y-179092525D01*
X120538507Y-178457508D01*
X123962631Y-177661179D01*
X127332941Y-176710122D01*
X130455385Y-175669497D01*
X131097538Y-175435468D01*
X131755068Y-175190267D01*
X132399370Y-174945115D01*
X133001838Y-174711233D01*
X133533869Y-174499843D01*
X133966858Y-174322166D01*
X134272199Y-174189421D01*
X134281530Y-174184663D01*
X135046923Y-174184663D01*
X135118966Y-174280174D01*
X135307444Y-174452665D01*
X135559808Y-174655618D01*
X135871187Y-174903976D01*
X136199639Y-175189781D01*
X136565669Y-175533109D01*
X136989784Y-175954039D01*
X137492491Y-176472646D01*
X138094295Y-177109007D01*
X138403403Y-177439675D01*
X138842097Y-177900815D01*
X139278815Y-178343095D01*
X139679848Y-178733569D01*
X140011486Y-179039292D01*
X140209439Y-179204730D01*
X141089874Y-179815173D01*
X141963634Y-180307255D01*
X142796641Y-180663542D01*
X143399615Y-180836703D01*
X143716703Y-180877094D01*
X144097691Y-180887453D01*
X144474296Y-180870334D01*
X144778234Y-180828295D01*
X144921115Y-180779738D01*
X144979647Y-180638286D01*
X144980533Y-180348287D01*
X144928631Y-179946312D01*
X144828797Y-179468932D01*
X144685889Y-178952717D01*
X144673045Y-178911796D01*
X144283086Y-177947942D01*
X143718068Y-176974454D01*
X143089086Y-176122229D01*
X142758900Y-175686496D01*
X142572389Y-175372429D01*
X142526756Y-175172383D01*
X142619202Y-175078714D01*
X142703650Y-175069231D01*
X142851172Y-175144523D01*
X143080060Y-175349060D01*
X143361356Y-175650834D01*
X143666098Y-176017834D01*
X143965325Y-176418052D01*
X144094395Y-176606378D01*
X144727900Y-177704791D01*
X145180777Y-178814804D01*
X145446459Y-179920127D01*
X145456162Y-179984958D01*
X145524191Y-180455686D01*
X145796158Y-180195125D01*
X145981916Y-179966318D01*
X146190009Y-179634839D01*
X146345793Y-179333628D01*
X146458836Y-179077122D01*
X146536212Y-178852813D01*
X146584642Y-178614243D01*
X146610845Y-178314952D01*
X146621540Y-177908479D01*
X146623462Y-177413846D01*
X146620337Y-176862872D01*
X146605891Y-176453102D01*
X146572516Y-176130391D01*
X146512601Y-175840594D01*
X146418540Y-175529567D01*
X146318297Y-175242215D01*
X145851370Y-174161568D01*
X145271434Y-173197291D01*
X144592627Y-172364594D01*
X143829086Y-171678686D01*
X142994948Y-171154777D01*
X142231364Y-170845212D01*
X141276883Y-170650646D01*
X140306516Y-170642478D01*
X139336646Y-170814408D01*
X138383659Y-171160132D01*
X137463937Y-171673349D01*
X136593864Y-172347757D01*
X135789824Y-173177053D01*
X135614990Y-173390256D01*
X135367357Y-173709882D01*
X135174380Y-173974200D01*
X135063290Y-174145130D01*
X135046923Y-174184663D01*
X134281530Y-174184663D01*
X134418371Y-174114892D01*
X134528265Y-173998645D01*
X134700158Y-173775604D01*
X134830636Y-173590498D01*
X135499502Y-172733180D01*
X136274130Y-171956497D01*
X137124327Y-171281142D01*
X138019900Y-170727807D01*
X138930654Y-170317186D01*
X139826397Y-170069971D01*
X140010320Y-170040678D01*
X140315515Y-169985365D01*
X140469673Y-169913019D01*
X140517058Y-169800859D01*
X140517692Y-169779532D01*
X140536479Y-169685249D01*
X140597620Y-169530800D01*
X140708291Y-169303526D01*
X140875665Y-168990767D01*
X141106915Y-168579864D01*
X141409215Y-168058157D01*
X141789740Y-167412987D01*
X142255663Y-166631693D01*
X142814157Y-165701617D01*
X143056095Y-165300000D01*
X143755612Y-164121952D01*
X144354113Y-163070572D01*
X144865476Y-162114497D01*
X145303581Y-161222362D01*
X145682305Y-160362804D01*
X146015530Y-159504459D01*
X146317132Y-158615963D01*
X146600992Y-157665953D01*
X146860362Y-156703077D01*
X147371303Y-154492021D01*
X147770166Y-152234709D01*
X148060236Y-149902806D01*
X148244799Y-147467974D01*
X148327139Y-144901879D01*
X148332436Y-144004744D01*
X148329544Y-143249645D01*
X148320703Y-142499119D01*
X148305025Y-141733763D01*
X148281624Y-140934174D01*
X148249611Y-140080951D01*
X148208100Y-139154689D01*
X148156204Y-138135987D01*
X148093034Y-137005441D01*
X148017704Y-135743649D01*
X147929326Y-134331209D01*
X147827014Y-132748717D01*
X147796242Y-132280000D01*
X147694721Y-130711383D01*
X147601973Y-129224583D01*
X147518729Y-127833380D01*
X147445723Y-126551557D01*
X147383688Y-125392896D01*
X147333355Y-124371177D01*
X147295458Y-123500184D01*
X147270728Y-122793697D01*
X147259900Y-122265499D01*
X147259466Y-122182522D01*
X147258462Y-121610044D01*
X146834878Y-122182522D01*
X146154562Y-122959924D01*
X145338471Y-123655460D01*
X144412926Y-124261662D01*
X143404249Y-124771063D01*
X142338762Y-125176196D01*
X141242787Y-125469593D01*
X140142645Y-125643786D01*
X139064658Y-125691308D01*
X138035148Y-125604692D01*
X137080437Y-125376470D01*
X136463462Y-125124883D01*
X136030276Y-124853091D01*
X135627753Y-124496259D01*
X135290564Y-124096368D01*
X135053377Y-123695400D01*
X134995182Y-123490997D01*
X135548417Y-123490997D01*
X135691137Y-123825668D01*
X136017399Y-124153071D01*
X136523289Y-124468651D01*
X137204896Y-124767847D01*
X137630684Y-124916482D01*
X138275114Y-125062880D01*
X139042893Y-125135958D01*
X139875626Y-125134121D01*
X140714919Y-125055770D01*
X141006154Y-125008757D01*
X141928472Y-124782244D01*
X142887662Y-124441743D01*
X143815123Y-124016445D01*
X144642260Y-123535542D01*
X144913846Y-123345882D01*
X145371401Y-122967168D01*
X145849956Y-122503659D01*
X146294530Y-122013406D01*
X146650144Y-121554460D01*
X146739618Y-121418133D01*
X146984165Y-121077930D01*
X147263813Y-120768911D01*
X147461741Y-120600298D01*
X148018713Y-120126371D01*
X148449355Y-119578646D01*
X148741806Y-118987160D01*
X148884200Y-118381949D01*
X148864677Y-117793052D01*
X148734971Y-117376471D01*
X148415060Y-116870425D01*
X147961079Y-116475609D01*
X147364669Y-116188414D01*
X146617472Y-116005233D01*
X145711130Y-115922457D01*
X145353462Y-115916538D01*
X144854391Y-115918549D01*
X144496679Y-115931580D01*
X144226301Y-115966124D01*
X143989230Y-116032677D01*
X143731443Y-116141734D01*
X143424038Y-116291351D01*
X143006072Y-116515193D01*
X142759123Y-116690592D01*
X142668092Y-116828574D01*
X142666923Y-116844273D01*
X142629701Y-117075586D01*
X142528679Y-117440397D01*
X142379826Y-117893841D01*
X142199110Y-118391056D01*
X142002497Y-118887177D01*
X141805956Y-119337343D01*
X141705533Y-119545415D01*
X141370237Y-120170848D01*
X141052081Y-120656240D01*
X140715887Y-121026792D01*
X140326474Y-121307704D01*
X139848662Y-121524177D01*
X139247272Y-121701412D01*
X138487123Y-121864608D01*
X138460875Y-121869670D01*
X137608723Y-122051680D01*
X136932092Y-122238250D01*
X136411135Y-122436533D01*
X136026005Y-122653682D01*
X135829254Y-122818084D01*
X135593152Y-123153616D01*
X135548417Y-123490997D01*
X134995182Y-123490997D01*
X134950863Y-123335335D01*
X134949231Y-123291348D01*
X135033340Y-122937568D01*
X135255120Y-122590507D01*
X135537892Y-122342806D01*
X135840768Y-122151038D01*
X134393653Y-122085664D01*
X133834892Y-122055813D01*
X133140033Y-122011591D01*
X132367488Y-121957128D01*
X131575665Y-121896554D01*
X130822975Y-121833998D01*
X130775455Y-121829844D01*
X129817080Y-121754681D01*
X128966537Y-121705971D01*
X128251236Y-121684894D01*
X127698585Y-121692629D01*
X127649301Y-121695266D01*
X126774166Y-121706025D01*
X125952125Y-121638487D01*
X125226844Y-121498603D01*
X124641994Y-121292327D01*
X124621743Y-121282587D01*
X124057058Y-120906089D01*
X123542354Y-120362266D01*
X123095563Y-119676530D01*
X122734619Y-118874294D01*
X122577072Y-118385061D01*
X122492764Y-117961216D01*
X122428332Y-117393599D01*
X122385529Y-116732980D01*
X122380488Y-116550540D01*
X122744187Y-116550540D01*
X122748437Y-117049537D01*
X122773466Y-117442892D01*
X122821758Y-117775153D01*
X122876238Y-118016923D01*
X123124847Y-118814889D01*
X123436580Y-119479880D01*
X123827687Y-120021682D01*
X124314420Y-120450082D01*
X124913026Y-120774865D01*
X125639757Y-121005819D01*
X126510863Y-121152729D01*
X127542594Y-121225383D01*
X128223682Y-121237361D01*
X128839230Y-121247941D01*
X129573449Y-121274776D01*
X130350633Y-121314303D01*
X131095077Y-121362957D01*
X131398682Y-121386834D01*
X132192295Y-121452879D01*
X132828192Y-121503851D01*
X133343323Y-121541411D01*
X133774641Y-121567220D01*
X134159094Y-121582939D01*
X134533635Y-121590230D01*
X134935213Y-121590753D01*
X135400779Y-121586170D01*
X135730769Y-121581594D01*
X136356063Y-121568105D01*
X136858522Y-121542689D01*
X137303992Y-121497143D01*
X137758320Y-121423264D01*
X138287353Y-121312848D01*
X138759231Y-121204301D01*
X139296563Y-121070730D01*
X139782449Y-120936107D01*
X140177511Y-120812384D01*
X140442374Y-120711515D01*
X140517692Y-120670542D01*
X140824028Y-120355369D01*
X141126818Y-119876179D01*
X141416583Y-119264252D01*
X141683843Y-118550867D01*
X141919121Y-117767301D01*
X142112939Y-116944833D01*
X142255816Y-116114742D01*
X142338276Y-115308307D01*
X142352659Y-114615313D01*
X142325000Y-113571923D01*
X141969484Y-113933742D01*
X141656975Y-114355633D01*
X141492837Y-114812973D01*
X141285152Y-115563072D01*
X141051393Y-116133315D01*
X140782056Y-116538526D01*
X140467637Y-116793530D01*
X140152127Y-116904342D01*
X139911391Y-116918002D01*
X139707596Y-116845709D01*
X139525096Y-116666372D01*
X139348243Y-116358900D01*
X139161391Y-115902202D01*
X138952996Y-115287978D01*
X138704803Y-114571487D01*
X138481734Y-114047243D01*
X138282943Y-113713841D01*
X138107582Y-113569877D01*
X137954807Y-113613948D01*
X137948026Y-113620769D01*
X137861020Y-113764335D01*
X137724308Y-114051372D01*
X137555735Y-114442017D01*
X137373148Y-114896407D01*
X137349282Y-114958162D01*
X137049451Y-115693898D01*
X136777421Y-116261720D01*
X136519644Y-116684675D01*
X136262573Y-116985808D01*
X136064266Y-117144140D01*
X135661375Y-117301412D01*
X135196368Y-117316750D01*
X134724980Y-117204062D01*
X134302943Y-116977255D01*
X133985993Y-116650236D01*
X133967279Y-116620867D01*
X133828327Y-116358426D01*
X133710080Y-116042614D01*
X133600871Y-115633065D01*
X133489030Y-115089409D01*
X133429428Y-114760096D01*
X133289681Y-114164836D01*
X133111384Y-113741071D01*
X132898856Y-113497443D01*
X132771991Y-113443948D01*
X132593121Y-113469793D01*
X132369458Y-113616484D01*
X132092763Y-113893731D01*
X131754802Y-114311242D01*
X131347337Y-114878726D01*
X130862131Y-115605892D01*
X130623301Y-115976724D01*
X130357169Y-116366818D01*
X130085839Y-116720014D01*
X129850296Y-116984760D01*
X129751042Y-117073846D01*
X129261795Y-117363820D01*
X128717687Y-117550276D01*
X128172518Y-117623712D01*
X127680090Y-117574625D01*
X127433708Y-117483124D01*
X127024968Y-117169527D01*
X126657044Y-116681298D01*
X126340094Y-116036770D01*
X126084276Y-115254274D01*
X125998321Y-114892705D01*
X125848018Y-114320271D01*
X125668020Y-113916001D01*
X125437118Y-113652857D01*
X125134105Y-113503802D01*
X124869047Y-113453016D01*
X124406527Y-113482031D01*
X123893439Y-113646757D01*
X123391188Y-113922788D01*
X123087857Y-114160995D01*
X122803022Y-114420773D01*
X122758230Y-115901348D01*
X122744187Y-116550540D01*
X122380488Y-116550540D01*
X122366106Y-116030131D01*
X122371818Y-115335820D01*
X122404417Y-114700820D01*
X122438255Y-114364269D01*
X122646753Y-113193011D01*
X123147939Y-113193011D01*
X123170301Y-113267293D01*
X123269058Y-113220655D01*
X123434583Y-113087476D01*
X123999391Y-112693024D01*
X124524617Y-112488299D01*
X125004283Y-112470553D01*
X125432409Y-112637042D01*
X125803018Y-112985017D01*
X126110130Y-113511732D01*
X126347767Y-114214441D01*
X126402918Y-114451154D01*
X126515319Y-114887561D01*
X126656527Y-115309169D01*
X126797838Y-115631322D01*
X126811246Y-115655465D01*
X127162947Y-116093452D01*
X127636067Y-116435493D01*
X128178524Y-116657631D01*
X128738239Y-116735909D01*
X129081022Y-116699542D01*
X129350478Y-116605311D01*
X129606873Y-116431075D01*
X129873101Y-116152638D01*
X130172057Y-115745807D01*
X130526635Y-115186388D01*
X130550984Y-115146108D01*
X131050992Y-114360696D01*
X131500842Y-113750369D01*
X131911212Y-113304540D01*
X132292778Y-113012621D01*
X132656220Y-112864026D01*
X132877700Y-112839231D01*
X133143115Y-112896059D01*
X133369728Y-113077536D01*
X133566799Y-113400144D01*
X133743591Y-113880369D01*
X133909364Y-114534697D01*
X133956849Y-114760109D01*
X134152863Y-115554449D01*
X134383795Y-116197106D01*
X134643165Y-116680852D01*
X134924493Y-116998460D01*
X135221299Y-117142704D01*
X135527102Y-117106355D01*
X135835421Y-116882188D01*
X135847878Y-116869038D01*
X136059515Y-116609954D01*
X136242505Y-116301866D01*
X136417549Y-115901860D01*
X136605349Y-115367022D01*
X136670391Y-115163973D01*
X136883206Y-114551096D01*
X137113317Y-113995097D01*
X137341026Y-113539126D01*
X137546636Y-113226335D01*
X137564355Y-113205577D01*
X137783851Y-113076655D01*
X138054567Y-113034615D01*
X138423500Y-113129752D01*
X138751537Y-113411892D01*
X139034475Y-113876132D01*
X139237986Y-114415508D01*
X139420709Y-115009249D01*
X139558405Y-115443639D01*
X139661559Y-115746663D01*
X139740660Y-115946301D01*
X139806192Y-116070538D01*
X139868643Y-116147355D01*
X139896235Y-116172009D01*
X140086526Y-116235601D01*
X140293883Y-116120920D01*
X140520844Y-115824420D01*
X140769948Y-115342557D01*
X141043735Y-114671788D01*
X141120233Y-114463351D01*
X141291495Y-114018087D01*
X141437820Y-113720038D01*
X141583538Y-113527350D01*
X141732165Y-113410725D01*
X141975150Y-113296092D01*
X142173185Y-113261054D01*
X142190384Y-113263997D01*
X142270561Y-113267958D01*
X142301255Y-113202544D01*
X142283483Y-113029256D01*
X142218265Y-112709599D01*
X142206480Y-112655854D01*
X142015442Y-112014807D01*
X141724889Y-111317811D01*
X141368835Y-110632403D01*
X140981292Y-110026115D01*
X140711230Y-109686895D01*
X139890825Y-108906900D01*
X138939150Y-108252377D01*
X137851513Y-107721612D01*
X136623221Y-107312888D01*
X135249581Y-107024489D01*
X133725901Y-106854700D01*
X132848846Y-106812009D01*
X131516868Y-106811793D01*
X130330140Y-106897447D01*
X129255508Y-107075177D01*
X128259816Y-107351190D01*
X127309908Y-107731693D01*
X126921682Y-107921553D01*
X126000537Y-108485990D01*
X125205421Y-109171970D01*
X124526672Y-109991995D01*
X123954631Y-110958566D01*
X123479639Y-112084185D01*
X123310567Y-112595000D01*
X123196513Y-112976138D01*
X123147939Y-113193011D01*
X122646753Y-113193011D01*
X122681898Y-112995581D01*
X123051144Y-111739190D01*
X123540052Y-110606659D01*
X124142682Y-109609547D01*
X124853092Y-108759417D01*
X125665342Y-108067831D01*
X125678669Y-108058443D01*
X126318406Y-107673384D01*
X127099355Y-107305366D01*
X127967360Y-106974105D01*
X128868268Y-106699316D01*
X129747923Y-106500713D01*
X130119083Y-106441897D01*
X130501257Y-106385676D01*
X130707213Y-106325062D01*
X130754428Y-106230014D01*
X130660380Y-106070492D01*
X130466866Y-105844088D01*
X130039900Y-105219493D01*
X129775546Y-104523341D01*
X129682348Y-103850709D01*
X130217295Y-103850709D01*
X130300089Y-104478067D01*
X130542337Y-105087882D01*
X130953593Y-105657824D01*
X131154911Y-105858153D01*
X131578846Y-106245000D01*
X132848846Y-106245000D01*
X133381590Y-106242022D01*
X133760307Y-106229331D01*
X134026309Y-106201290D01*
X134220913Y-106152264D01*
X134385432Y-106076616D01*
X134475752Y-106023059D01*
X134947343Y-105649686D01*
X135383787Y-105161836D01*
X135717093Y-104637636D01*
X135760038Y-104547343D01*
X135942131Y-103926607D01*
X135972639Y-103260184D01*
X135860976Y-102596717D01*
X135616556Y-101984849D01*
X135248793Y-101473222D01*
X135145706Y-101372991D01*
X134755583Y-101082282D01*
X134334222Y-100908477D01*
X133828982Y-100836480D01*
X133300058Y-100843707D01*
X132534139Y-100968631D01*
X131860808Y-101232320D01*
X131289616Y-101612445D01*
X130830116Y-102086677D01*
X130491861Y-102632684D01*
X130284403Y-103228139D01*
X130217295Y-103850709D01*
X129682348Y-103850709D01*
X129673927Y-103789933D01*
X129735166Y-103053571D01*
X129959383Y-102348556D01*
X130346701Y-101709190D01*
X130451713Y-101583127D01*
X130861049Y-101210966D01*
X131390153Y-100861667D01*
X131964593Y-100579570D01*
X132366708Y-100442368D01*
X132763800Y-100336832D01*
X132881597Y-99090147D01*
X132946832Y-98616859D01*
X133393866Y-98616859D01*
X133411828Y-98743567D01*
X133445176Y-98745080D01*
X133468497Y-98614330D01*
X133452889Y-98557836D01*
X133409510Y-98520832D01*
X133393866Y-98616859D01*
X132946832Y-98616859D01*
X133018494Y-98096943D01*
X133498409Y-98096943D01*
X133501978Y-98202738D01*
X133544654Y-98160588D01*
X133626104Y-97955656D01*
X133738339Y-97599231D01*
X133902477Y-97101968D01*
X134107065Y-96567012D01*
X134310402Y-96102731D01*
X134328654Y-96065189D01*
X134667985Y-95492986D01*
X135071461Y-95001875D01*
X135504716Y-94626552D01*
X135933380Y-94401711D01*
X135994747Y-94383220D01*
X136433478Y-94345883D01*
X136966144Y-94430118D01*
X137513654Y-94616332D01*
X137644471Y-94609372D01*
X137687456Y-94465362D01*
X137640701Y-94222733D01*
X137544401Y-93996845D01*
X137376165Y-93752811D01*
X137130653Y-93487298D01*
X136857803Y-93244911D01*
X136607551Y-93070255D01*
X136437012Y-93007692D01*
X136174951Y-93086252D01*
X135847929Y-93302185D01*
X135492420Y-93625875D01*
X135144898Y-94027703D01*
X135088350Y-94102858D01*
X134527377Y-94998744D01*
X134056872Y-96026723D01*
X133725702Y-97040243D01*
X133609936Y-97500860D01*
X133534283Y-97858039D01*
X133498409Y-98096943D01*
X133018494Y-98096943D01*
X133072244Y-97706987D01*
X133371990Y-96474764D01*
X133787478Y-95378050D01*
X134325346Y-94401419D01*
X134992236Y-93529442D01*
X135498020Y-93011497D01*
X135897561Y-92643354D01*
X136191908Y-92405084D01*
X136418004Y-92292505D01*
X136612794Y-92301434D01*
X136813224Y-92427687D01*
X137056239Y-92667080D01*
X137197165Y-92819107D01*
X137675277Y-93397535D01*
X138021405Y-93944929D01*
X138222164Y-94437042D01*
X138269273Y-94760912D01*
X138246988Y-95076644D01*
X138164883Y-95262070D01*
X137995118Y-95326957D01*
X137709852Y-95281074D01*
X137281246Y-95134191D01*
X137245000Y-95120319D01*
X136732265Y-94978585D01*
X136279578Y-94981146D01*
X135871442Y-95137806D01*
X135492360Y-95458370D01*
X135126836Y-95952643D01*
X134759372Y-96630429D01*
X134716564Y-96720000D01*
X134262731Y-97818560D01*
X133953552Y-98878810D01*
X133812944Y-99719672D01*
X133782777Y-100053435D01*
X133786686Y-100237536D01*
X133836151Y-100316389D01*
X133942653Y-100334404D01*
X133971906Y-100334615D01*
X134494431Y-100425820D01*
X135036333Y-100688734D01*
X135487122Y-101035993D01*
X135994960Y-101623836D01*
X136327361Y-102292116D01*
X136479966Y-103026885D01*
X136448412Y-103814195D01*
X136414489Y-104002007D01*
X136240987Y-104625063D01*
X135980553Y-105157624D01*
X135594531Y-105671961D01*
X135416874Y-105867107D01*
X134929171Y-106382781D01*
X135207855Y-106444284D01*
X136715589Y-106833341D01*
X138046918Y-107297529D01*
X139207141Y-107840164D01*
X140201562Y-108464562D01*
X141035480Y-109174037D01*
X141714197Y-109971906D01*
X142230812Y-110836538D01*
X142472832Y-111364069D01*
X142651389Y-111852641D01*
X142775346Y-112348587D01*
X142853569Y-112898242D01*
X142894923Y-113547939D01*
X142908272Y-114344013D01*
X142908346Y-114377890D01*
X142912411Y-114910016D01*
X142921856Y-115366280D01*
X142935526Y-115714237D01*
X142952266Y-115921442D01*
X142964885Y-115965390D01*
X143073674Y-115906258D01*
X143114081Y-115869919D01*
X143374822Y-115706193D01*
X143784423Y-115561472D01*
X144296735Y-115442657D01*
X144865610Y-115356646D01*
X145444897Y-115310341D01*
X145988449Y-115310642D01*
X146450115Y-115364449D01*
X146468672Y-115368335D01*
X146763360Y-115424731D01*
X146968562Y-115451207D01*
X147027598Y-115447274D01*
X147032940Y-115342102D01*
X147020296Y-115085730D01*
X146992276Y-114721257D01*
X146966774Y-114443902D01*
X146896530Y-113637350D01*
X146837272Y-112764147D01*
X146788817Y-111811257D01*
X146750979Y-110765643D01*
X146723573Y-109614271D01*
X146706415Y-108344104D01*
X146699320Y-106942105D01*
X146702103Y-105395240D01*
X146714580Y-103690471D01*
X146736566Y-101814764D01*
X146762895Y-100057666D01*
X146793506Y-97982954D01*
X146814299Y-96087449D01*
X146824584Y-94355183D01*
X146823670Y-92770191D01*
X146810866Y-91316509D01*
X146785480Y-89978169D01*
X146746822Y-88739206D01*
X146694202Y-87583655D01*
X146626927Y-86495550D01*
X146544308Y-85458925D01*
X146445652Y-84457814D01*
X146330270Y-83476253D01*
X146197471Y-82498274D01*
X146046563Y-81507913D01*
X145929344Y-80796154D01*
X145659212Y-79376914D01*
X145328750Y-77937539D01*
X144946598Y-76502284D01*
X144521396Y-75095402D01*
X144061783Y-73741145D01*
X143576400Y-72463768D01*
X143073885Y-71287524D01*
X142562880Y-70236665D01*
X142052023Y-69335446D01*
X141620194Y-68699637D01*
X141293459Y-68246983D01*
X140941852Y-67730286D01*
X140632315Y-67248422D01*
X140583247Y-67168077D01*
X139773070Y-65943171D01*
X138817995Y-64698386D01*
X137757204Y-63479328D01*
X136629882Y-62331606D01*
X135718259Y-61505535D01*
X135428570Y-61277845D01*
X137093848Y-61277845D01*
X138031482Y-62254726D01*
X138626915Y-62899897D01*
X139251784Y-63620293D01*
X139861042Y-64361381D01*
X140409645Y-65068625D01*
X140784333Y-65587506D01*
X140979263Y-65837619D01*
X141151412Y-66003652D01*
X141235779Y-66044615D01*
X141370994Y-65969743D01*
X141545484Y-65782329D01*
X141604138Y-65701381D01*
X142024268Y-65246374D01*
X142559737Y-64917249D01*
X143167277Y-64725787D01*
X143803619Y-64683770D01*
X144425495Y-64802979D01*
X144620769Y-64879980D01*
X145215602Y-65239883D01*
X145662120Y-65695781D01*
X145964193Y-66221131D01*
X146125691Y-66789390D01*
X146150482Y-67374018D01*
X146042436Y-67948471D01*
X145805421Y-68486206D01*
X145443308Y-68960681D01*
X144959965Y-69345355D01*
X144359262Y-69613684D01*
X143916398Y-69711899D01*
X143456258Y-69777939D01*
X143746369Y-70352647D01*
X144004521Y-70897956D01*
X144299463Y-71576734D01*
X144609884Y-72335907D01*
X144914472Y-73122398D01*
X145191915Y-73883131D01*
X145350840Y-74348461D01*
X145521387Y-74862069D01*
X145642656Y-75217532D01*
X145725195Y-75442709D01*
X145779545Y-75565456D01*
X145816253Y-75613631D01*
X145831554Y-75618461D01*
X145930713Y-75590552D01*
X146164879Y-75517365D01*
X146483467Y-75414711D01*
X146485212Y-75414142D01*
X147561358Y-74964295D01*
X148532821Y-74357779D01*
X149390299Y-73608450D01*
X150124492Y-72730161D01*
X150726097Y-71736764D01*
X151185813Y-70642113D01*
X151494340Y-69460063D01*
X151642376Y-68204466D01*
X151654615Y-67714733D01*
X151589398Y-66528541D01*
X151384510Y-65434155D01*
X151026095Y-64373895D01*
X150666766Y-63602308D01*
X150049182Y-62607674D01*
X149292856Y-61749364D01*
X148402567Y-61031124D01*
X147383093Y-60456698D01*
X146239215Y-60029835D01*
X146037308Y-59973434D01*
X145408817Y-59851895D01*
X144644194Y-59776754D01*
X143797101Y-59748002D01*
X142921200Y-59765630D01*
X142070154Y-59829631D01*
X141297623Y-59939995D01*
X141125979Y-59974205D01*
X139617108Y-60353722D01*
X138204499Y-60825728D01*
X137804424Y-60984420D01*
X137093848Y-61277845D01*
X135428570Y-61277845D01*
X133889709Y-60068333D01*
X131949504Y-58790883D01*
X129899853Y-57674161D01*
X127742962Y-56719141D01*
X125481041Y-55926798D01*
X123116297Y-55298107D01*
X120650938Y-54834043D01*
X120584303Y-54824000D01*
X118518725Y-54575057D01*
X116297237Y-54423839D01*
X113917378Y-54370360D01*
X111376691Y-54414633D01*
X108672714Y-54556673D01*
X105802988Y-54796493D01*
X104664615Y-54913687D01*
X102758813Y-55124557D01*
X101033877Y-55326242D01*
X99475615Y-55520838D01*
X98069833Y-55710444D01*
X96802339Y-55897157D01*
X95658942Y-56083074D01*
X94625447Y-56270293D01*
X93687663Y-56460912D01*
X92831398Y-56657029D01*
X92773516Y-56671172D01*
X90618582Y-57270764D01*
X88615650Y-57978061D01*
X86748018Y-58802208D01*
X84998985Y-59752351D01*
X83351848Y-60837635D01*
X81789907Y-62067206D01*
X80296458Y-63450208D01*
X80180617Y-63566562D01*
X78666120Y-65234759D01*
X77276404Y-67053287D01*
X76011477Y-69022119D01*
X74871350Y-71141229D01*
X73856032Y-73410591D01*
X72965534Y-75830176D01*
X72199864Y-78399959D01*
X71559032Y-81119912D01*
X71043050Y-83990010D01*
X70651925Y-87010225D01*
X70385667Y-90180531D01*
X70365281Y-90516538D01*
X70333170Y-91238200D01*
X70310165Y-92133075D01*
X70296002Y-93179215D01*
X70290415Y-94354674D01*
X69318557Y-94354674D01*
X69331209Y-93359026D01*
X69371202Y-91888275D01*
X69431561Y-90481892D01*
X69512351Y-89125431D01*
X69613636Y-87804446D01*
X69735481Y-86504491D01*
X69842158Y-85519211D01*
X69923332Y-84877787D01*
X70033534Y-84105405D01*
X70164914Y-83249442D01*
X70309621Y-82357274D01*
X70459805Y-81476278D01*
X70607614Y-80653831D01*
X70745198Y-79937311D01*
X70848789Y-79444485D01*
X70937764Y-78997548D01*
X70965558Y-78721763D01*
X70933387Y-78603132D01*
X70922448Y-78597706D01*
X69561644Y-78162354D01*
X68378519Y-77720271D01*
X67355444Y-77259319D01*
X66474788Y-76767361D01*
X65718923Y-76232261D01*
X65070217Y-75641880D01*
X64511040Y-74984083D01*
X64023763Y-74246732D01*
X63685797Y-73615769D01*
X63346571Y-72860016D01*
X63115253Y-72167244D01*
X62969656Y-71454659D01*
X62915897Y-70920617D01*
X63930974Y-70920617D01*
X64076870Y-71895013D01*
X64381979Y-72796598D01*
X64856459Y-73682442D01*
X65474889Y-74521605D01*
X66211847Y-75283146D01*
X67041912Y-75936121D01*
X67736923Y-76349801D01*
X68158321Y-76550418D01*
X68664785Y-76766296D01*
X69215244Y-76982671D01*
X69768626Y-77184780D01*
X70283863Y-77357862D01*
X70719882Y-77487152D01*
X71035615Y-77557888D01*
X71121987Y-77566572D01*
X71254439Y-77537642D01*
X71348175Y-77412903D01*
X71431771Y-77148644D01*
X71453543Y-77059423D01*
X71551430Y-76696488D01*
X71703151Y-76194659D01*
X71893931Y-75597986D01*
X72108992Y-74950514D01*
X72333559Y-74296294D01*
X72552854Y-73679372D01*
X72752100Y-73143798D01*
X72854562Y-72883077D01*
X73190431Y-72052692D01*
X72490793Y-72002714D01*
X71852773Y-71909444D01*
X71341718Y-71716462D01*
X70904522Y-71399881D01*
X70709341Y-71201477D01*
X70357551Y-70736415D01*
X70154321Y-70257355D01*
X70073569Y-69694790D01*
X70069327Y-69495827D01*
X70146486Y-68819288D01*
X70386461Y-68238882D01*
X70801994Y-67725629D01*
X70879574Y-67653256D01*
X71326890Y-67310127D01*
X71778277Y-67110906D01*
X72306594Y-67028165D01*
X72557624Y-67021538D01*
X73245270Y-67092177D01*
X73826019Y-67314340D01*
X74329675Y-67703402D01*
X74674227Y-68113245D01*
X74947424Y-68490382D01*
X75702002Y-67340768D01*
X76785443Y-65788538D01*
X77912566Y-64372791D01*
X78277260Y-63953074D01*
X78875767Y-63278070D01*
X78233542Y-62809864D01*
X77365615Y-62293891D01*
X76389369Y-61918843D01*
X75327918Y-61681073D01*
X74204371Y-61576931D01*
X73041843Y-61602772D01*
X71863444Y-61754947D01*
X70692286Y-62029808D01*
X69551482Y-62423708D01*
X68464144Y-62932999D01*
X67453382Y-63554034D01*
X66542310Y-64283164D01*
X66095178Y-64725628D01*
X65410619Y-65586286D01*
X64842754Y-66561322D01*
X64401220Y-67616506D01*
X64095654Y-68717605D01*
X63935693Y-69830386D01*
X63930974Y-70920617D01*
X62915897Y-70920617D01*
X62887595Y-70639465D01*
X62887381Y-70636154D01*
X62903794Y-69446147D01*
X63096316Y-68239689D01*
X63454603Y-67058719D01*
X63968309Y-65945177D01*
X64101977Y-65712032D01*
X64683434Y-64879047D01*
X65418109Y-64053075D01*
X66265749Y-63268418D01*
X67186103Y-62559378D01*
X68138919Y-61960258D01*
X68996358Y-61541122D01*
X70150414Y-61131156D01*
X71343349Y-60838199D01*
X72550921Y-60660728D01*
X73748885Y-60597223D01*
X74912997Y-60646161D01*
X76019013Y-60806021D01*
X77042688Y-61075281D01*
X77959779Y-61452419D01*
X78746041Y-61935915D01*
X79032178Y-62171008D01*
X79524639Y-62613773D01*
X80298281Y-61928821D01*
X82030381Y-60523007D01*
X83891467Y-59253706D01*
X85859896Y-58132983D01*
X87914027Y-57172907D01*
X90032220Y-56385543D01*
X90509884Y-56235110D01*
X91350921Y-55978884D01*
X91583937Y-55484450D01*
X92514050Y-55484450D01*
X92522038Y-55572369D01*
X92639386Y-55590955D01*
X92674465Y-55591036D01*
X92853948Y-55571086D01*
X93176950Y-55517273D01*
X93596239Y-55438020D01*
X94023936Y-55350406D01*
X94601835Y-55234170D01*
X95278341Y-55107963D01*
X95958585Y-54989059D01*
X96417398Y-54914563D01*
X96765024Y-54865870D01*
X97284047Y-54800291D01*
X97951444Y-54720306D01*
X98744187Y-54628394D01*
X99639253Y-54527033D01*
X100613617Y-54418703D01*
X101644253Y-54305882D01*
X102708136Y-54191050D01*
X103782241Y-54076685D01*
X104843544Y-53965267D01*
X105869019Y-53859276D01*
X106835641Y-53761189D01*
X107720385Y-53673486D01*
X108500227Y-53598646D01*
X109152140Y-53539147D01*
X109353846Y-53521727D01*
X109969869Y-53480483D01*
X110726448Y-53447305D01*
X111590894Y-53422188D01*
X112530519Y-53405128D01*
X113512633Y-53396120D01*
X114504546Y-53395161D01*
X115473569Y-53402245D01*
X116387013Y-53417368D01*
X117212189Y-53440525D01*
X117916407Y-53471714D01*
X118466977Y-53510928D01*
X118585769Y-53522971D01*
X119830757Y-53684214D01*
X121131775Y-53895861D01*
X122441526Y-54147895D01*
X123712713Y-54430301D01*
X124898038Y-54733061D01*
X125950205Y-55046160D01*
X126246685Y-55145390D01*
X126588938Y-55259969D01*
X126849494Y-55340311D01*
X126982832Y-55372586D01*
X126990957Y-55371520D01*
X126945618Y-55284671D01*
X126806161Y-55039776D01*
X126578421Y-54646673D01*
X126268234Y-54115200D01*
X125881435Y-53455195D01*
X125423858Y-52676493D01*
X124901339Y-51788934D01*
X124319714Y-50802354D01*
X123684816Y-49726591D01*
X123002482Y-48571482D01*
X122278546Y-47346865D01*
X121518843Y-46062577D01*
X120729209Y-44728456D01*
X119915479Y-43354339D01*
X119083487Y-41950063D01*
X118239070Y-40525466D01*
X117388062Y-39090385D01*
X116536297Y-37654659D01*
X115689612Y-36228123D01*
X114853842Y-34820616D01*
X114034821Y-33441975D01*
X113238384Y-32102038D01*
X112470368Y-30810641D01*
X111736606Y-29577623D01*
X111042934Y-28412821D01*
X110395188Y-27326072D01*
X109799201Y-26327213D01*
X109260810Y-25426083D01*
X108785849Y-24632518D01*
X108380154Y-23956357D01*
X108049560Y-23407436D01*
X107799902Y-22995592D01*
X107637014Y-22730664D01*
X107566732Y-22622489D01*
X107564481Y-22620385D01*
X107516622Y-22707844D01*
X107391960Y-22964336D01*
X107194560Y-23381030D01*
X106928488Y-23949097D01*
X106597810Y-24659705D01*
X106206594Y-25504024D01*
X105758905Y-26473225D01*
X105258809Y-27558477D01*
X104710372Y-28750950D01*
X104117662Y-30041814D01*
X103484744Y-31422238D01*
X102815684Y-32883392D01*
X102114549Y-34416446D01*
X101385405Y-36012570D01*
X100632318Y-37662933D01*
X100119189Y-38788461D01*
X99350512Y-40475102D01*
X98602422Y-42116509D01*
X97879049Y-43703624D01*
X97184523Y-45227390D01*
X96522972Y-46678749D01*
X95898525Y-48048643D01*
X95315313Y-49328015D01*
X94777465Y-50507808D01*
X94289109Y-51578963D01*
X93854375Y-52532423D01*
X93477393Y-53359130D01*
X93162292Y-54050027D01*
X92913200Y-54596056D01*
X92734248Y-54988159D01*
X92629565Y-55217278D01*
X92603525Y-55274038D01*
X92514050Y-55484450D01*
X91583937Y-55484450D01*
X91937128Y-54735019D01*
X92039006Y-54515922D01*
X92217433Y-54128746D01*
X92467965Y-53583219D01*
X92786157Y-52889069D01*
X93167565Y-52056024D01*
X93607744Y-51093812D01*
X94102249Y-50012159D01*
X94646637Y-48820796D01*
X95236463Y-47529448D01*
X95867282Y-46147844D01*
X96534649Y-44685711D01*
X97234120Y-43152778D01*
X97961252Y-41558773D01*
X98711598Y-39913422D01*
X99480715Y-38226455D01*
X99925890Y-37249808D01*
X100840940Y-35242541D01*
X101678698Y-33405743D01*
X102442654Y-31731980D01*
X103136295Y-30213818D01*
X103763112Y-28843824D01*
X104326594Y-27614563D01*
X104830230Y-26518601D01*
X105277509Y-25548505D01*
X105671921Y-24696839D01*
X106016955Y-23956172D01*
X106316099Y-23319067D01*
X106572844Y-22778092D01*
X106790679Y-22325812D01*
X106973092Y-21954794D01*
X107123573Y-21657604D01*
X107245611Y-21426807D01*
X107342696Y-21254969D01*
X107418317Y-21134657D01*
X107475963Y-21058437D01*
X107519122Y-21018874D01*
X107549000Y-21008461D01*
X107733042Y-21070988D01*
G37*
G04 #@! TD.AperFunction*
D11*
X90300000Y-70800000D03*
X90300000Y-74000000D03*
X95200000Y-74000000D03*
X95200000Y-70800000D03*
X120900000Y-69900000D03*
X120900000Y-73100000D03*
X125800000Y-73100000D03*
X125800000Y-69900000D03*
D12*
X106960000Y-167300000D03*
X106960000Y-164760000D03*
X106960000Y-162220000D03*
X106960000Y-159680000D03*
X106960000Y-157140000D03*
X106960000Y-154600000D03*
X106960000Y-152060000D03*
X106960000Y-149520000D03*
X106960000Y-146980000D03*
X109500000Y-146980000D03*
X112040000Y-146980000D03*
X114580000Y-146980000D03*
X117120000Y-146980000D03*
X119660000Y-146980000D03*
X122200000Y-146980000D03*
X122200000Y-149520000D03*
X122200000Y-152060000D03*
X122200000Y-154600000D03*
X122200000Y-157140000D03*
X122200000Y-159680000D03*
X122200000Y-162220000D03*
X122200000Y-164760000D03*
X122200000Y-167300000D03*
D13*
X103900000Y-110000000D03*
X106440000Y-110000000D03*
X108980000Y-110000000D03*
X111520000Y-110000000D03*
D14*
X128200000Y-145500000D03*
X134700000Y-145500000D03*
X128200000Y-150000000D03*
X134700000Y-150000000D03*
X76100000Y-152100000D03*
X82600000Y-152100000D03*
X76100000Y-156600000D03*
X82600000Y-156600000D03*
X84900000Y-162000000D03*
X91400000Y-162000000D03*
X84900000Y-166500000D03*
X91400000Y-166500000D03*
D15*
X79400000Y-129400000D03*
D16*
X79400000Y-131400000D03*
X79400000Y-133400000D03*
X79400000Y-135400000D03*
D14*
X84900000Y-142400000D03*
X91400000Y-142400000D03*
X84900000Y-146900000D03*
X91400000Y-146900000D03*
X92900000Y-152100000D03*
X99400000Y-152100000D03*
X92900000Y-156600000D03*
X99400000Y-156600000D03*
X133800000Y-156300000D03*
X140300000Y-156300000D03*
X133800000Y-160800000D03*
X140300000Y-160800000D03*
D17*
X135200000Y-133200000D03*
D14*
X140200000Y-133200000D03*
D18*
X123600000Y-73100000D03*
X93000000Y-74000000D03*
X99500000Y-117800000D03*
X120400000Y-124900000D03*
X117500000Y-164800000D03*
X109100000Y-168200000D03*
X96200000Y-152100000D03*
X90300000Y-72400000D03*
X120900000Y-71500000D03*
X93500000Y-70800000D03*
X92700000Y-71600000D03*
X124400000Y-69900000D03*
X116200000Y-152100000D03*
D19*
X96200000Y-153400000D02*
X99400000Y-156600000D01*
X84900000Y-146900000D02*
X91400000Y-146900000D01*
D20*
X99500000Y-117800000D02*
X99500000Y-112600000D01*
D19*
X128200000Y-145500000D02*
X134700000Y-145500000D01*
X96200000Y-152100000D02*
X96200000Y-153400000D01*
X117540000Y-164760000D02*
X122200000Y-164760000D01*
D20*
X102100000Y-110000000D02*
X103900000Y-110000000D01*
D19*
X117500000Y-164800000D02*
X112500000Y-164800000D01*
D20*
X123600000Y-73100000D02*
X125800000Y-73100000D01*
D19*
X112500000Y-164800000D02*
X109100000Y-168200000D01*
X117500000Y-164800000D02*
X117540000Y-164760000D01*
D20*
X120380000Y-124900000D02*
X120400000Y-124900000D01*
X93000000Y-74000000D02*
X95200000Y-74000000D01*
X99500000Y-112600000D02*
X102100000Y-110000000D01*
D19*
X84900000Y-166500000D02*
X91400000Y-166500000D01*
X92900000Y-156600000D02*
X99400000Y-156600000D01*
X133800000Y-156300000D02*
X140300000Y-156300000D01*
X76100000Y-156600000D02*
X82600000Y-156600000D01*
D20*
X90300000Y-72400000D02*
X90300000Y-70800000D01*
X120900000Y-71500000D02*
X120900000Y-69900000D01*
D21*
X93500000Y-70800000D02*
X95200000Y-70800000D01*
X92700000Y-72700000D02*
X92700000Y-71600000D01*
X124400000Y-69900000D02*
X125800000Y-69900000D01*
X91400000Y-74000000D02*
X92700000Y-72700000D01*
X90300000Y-74000000D02*
X91400000Y-74000000D01*
D19*
X108580000Y-148600000D02*
X106960000Y-146980000D01*
X113400000Y-148600000D02*
X108580000Y-148600000D01*
X116200000Y-152100000D02*
X116200000Y-151400000D01*
X116200000Y-151400000D02*
X113400000Y-148600000D01*
X84900000Y-142400000D02*
X91400000Y-142400000D01*
X76100000Y-152100000D02*
X82600000Y-152100000D01*
X84900000Y-162000000D02*
X91400000Y-162000000D01*
X92900000Y-152100000D02*
X94000000Y-152100000D01*
X98600000Y-151300000D02*
X99400000Y-152100000D01*
X94800000Y-151300000D02*
X98600000Y-151300000D01*
X94000000Y-152100000D02*
X94800000Y-151300000D01*
X128200000Y-150000000D02*
X134700000Y-150000000D01*
X133800000Y-160800000D02*
X140300000Y-160800000D01*
G04 #@! TA.AperFunction,Conductor*
G36*
X121011905Y-147653515D02*
G01*
X121033804Y-147678787D01*
X121124278Y-147817268D01*
X121124283Y-147817273D01*
X121124284Y-147817276D01*
X121261657Y-147966500D01*
X121276760Y-147982906D01*
X121454424Y-148121189D01*
X121454429Y-148121191D01*
X121454431Y-148121193D01*
X121490930Y-148140946D01*
X121540520Y-148190165D01*
X121555628Y-148258382D01*
X121531457Y-148323937D01*
X121490930Y-148359054D01*
X121454431Y-148378806D01*
X121454422Y-148378812D01*
X121276761Y-148517092D01*
X121276756Y-148517097D01*
X121124284Y-148682723D01*
X121124276Y-148682734D01*
X121001140Y-148871207D01*
X120910703Y-149077385D01*
X120855436Y-149295628D01*
X120855434Y-149295640D01*
X120836844Y-149519994D01*
X120836844Y-149520005D01*
X120855434Y-149744359D01*
X120855436Y-149744371D01*
X120910703Y-149962614D01*
X121001140Y-150168792D01*
X121124276Y-150357265D01*
X121124284Y-150357276D01*
X121276756Y-150522902D01*
X121276760Y-150522906D01*
X121454424Y-150661189D01*
X121454429Y-150661191D01*
X121454431Y-150661193D01*
X121490930Y-150680946D01*
X121540520Y-150730165D01*
X121555628Y-150798382D01*
X121531457Y-150863937D01*
X121490930Y-150899054D01*
X121454431Y-150918806D01*
X121454422Y-150918812D01*
X121276761Y-151057092D01*
X121276756Y-151057097D01*
X121124284Y-151222723D01*
X121124276Y-151222734D01*
X121001140Y-151411207D01*
X120910703Y-151617385D01*
X120855436Y-151835628D01*
X120855434Y-151835640D01*
X120836844Y-152059994D01*
X120836844Y-152060005D01*
X120855434Y-152284359D01*
X120855436Y-152284371D01*
X120910703Y-152502614D01*
X121001140Y-152708792D01*
X121124276Y-152897265D01*
X121124284Y-152897276D01*
X121276756Y-153062902D01*
X121276760Y-153062906D01*
X121454424Y-153201189D01*
X121454429Y-153201191D01*
X121454431Y-153201193D01*
X121490930Y-153220946D01*
X121540520Y-153270165D01*
X121555628Y-153338382D01*
X121531457Y-153403937D01*
X121490930Y-153439054D01*
X121454431Y-153458806D01*
X121454422Y-153458812D01*
X121276761Y-153597092D01*
X121276756Y-153597097D01*
X121124284Y-153762723D01*
X121124276Y-153762734D01*
X121001140Y-153951207D01*
X120910703Y-154157385D01*
X120855436Y-154375628D01*
X120855434Y-154375640D01*
X120836844Y-154599994D01*
X120836844Y-154600005D01*
X120855434Y-154824359D01*
X120855436Y-154824371D01*
X120910703Y-155042614D01*
X121001140Y-155248792D01*
X121124276Y-155437265D01*
X121124284Y-155437276D01*
X121276756Y-155602902D01*
X121276760Y-155602906D01*
X121454424Y-155741189D01*
X121454429Y-155741191D01*
X121454431Y-155741193D01*
X121490930Y-155760946D01*
X121540520Y-155810165D01*
X121555628Y-155878382D01*
X121531457Y-155943937D01*
X121490930Y-155979054D01*
X121454431Y-155998806D01*
X121454422Y-155998812D01*
X121276761Y-156137092D01*
X121276756Y-156137097D01*
X121124284Y-156302723D01*
X121124276Y-156302734D01*
X121001140Y-156491207D01*
X120910703Y-156697385D01*
X120855436Y-156915628D01*
X120855434Y-156915640D01*
X120836844Y-157139994D01*
X120836844Y-157140005D01*
X120855434Y-157364359D01*
X120855436Y-157364371D01*
X120910703Y-157582614D01*
X121001140Y-157788792D01*
X121124276Y-157977265D01*
X121124284Y-157977276D01*
X121276756Y-158142902D01*
X121276760Y-158142906D01*
X121454424Y-158281189D01*
X121454429Y-158281191D01*
X121454431Y-158281193D01*
X121490930Y-158300946D01*
X121540520Y-158350165D01*
X121555628Y-158418382D01*
X121531457Y-158483937D01*
X121490930Y-158519054D01*
X121454431Y-158538806D01*
X121454422Y-158538812D01*
X121276761Y-158677092D01*
X121276756Y-158677097D01*
X121124284Y-158842723D01*
X121124276Y-158842734D01*
X121001140Y-159031207D01*
X120910703Y-159237385D01*
X120855436Y-159455628D01*
X120855434Y-159455640D01*
X120836844Y-159679994D01*
X120836844Y-159680005D01*
X120855434Y-159904359D01*
X120855436Y-159904371D01*
X120910703Y-160122614D01*
X121001140Y-160328792D01*
X121124276Y-160517265D01*
X121124284Y-160517276D01*
X121276756Y-160682902D01*
X121276760Y-160682906D01*
X121454424Y-160821189D01*
X121454429Y-160821191D01*
X121454431Y-160821193D01*
X121490930Y-160840946D01*
X121540520Y-160890165D01*
X121555628Y-160958382D01*
X121531457Y-161023937D01*
X121490930Y-161059054D01*
X121454431Y-161078806D01*
X121454422Y-161078812D01*
X121276761Y-161217092D01*
X121276756Y-161217097D01*
X121124284Y-161382723D01*
X121124276Y-161382734D01*
X121001140Y-161571207D01*
X120910703Y-161777385D01*
X120855436Y-161995628D01*
X120855434Y-161995640D01*
X120836844Y-162219994D01*
X120836844Y-162220005D01*
X120855434Y-162444359D01*
X120855436Y-162444371D01*
X120910703Y-162662614D01*
X121001140Y-162868792D01*
X121124276Y-163057265D01*
X121124284Y-163057276D01*
X121276756Y-163222902D01*
X121276760Y-163222906D01*
X121454424Y-163361189D01*
X121490930Y-163380945D01*
X121497695Y-163384606D01*
X121547286Y-163433825D01*
X121562394Y-163502042D01*
X121538224Y-163567597D01*
X121509802Y-163595236D01*
X121328922Y-163721890D01*
X121328920Y-163721891D01*
X121161891Y-163888920D01*
X121161886Y-163888926D01*
X121026400Y-164082420D01*
X121026399Y-164082422D01*
X120926570Y-164296507D01*
X120926567Y-164296513D01*
X120869364Y-164509999D01*
X120869364Y-164510000D01*
X121766988Y-164510000D01*
X121734075Y-164567007D01*
X121700000Y-164694174D01*
X121700000Y-164825826D01*
X121734075Y-164952993D01*
X121766988Y-165010000D01*
X120869364Y-165010000D01*
X120926567Y-165223486D01*
X120926570Y-165223492D01*
X121026399Y-165437578D01*
X121161894Y-165631082D01*
X121328917Y-165798105D01*
X121509802Y-165924763D01*
X121553427Y-165979340D01*
X121560619Y-166048839D01*
X121529097Y-166111193D01*
X121497697Y-166135392D01*
X121454427Y-166158809D01*
X121454422Y-166158812D01*
X121276761Y-166297092D01*
X121276756Y-166297097D01*
X121124284Y-166462723D01*
X121124276Y-166462734D01*
X121001140Y-166651207D01*
X120910703Y-166857385D01*
X120855436Y-167075628D01*
X120855434Y-167075640D01*
X120836844Y-167299994D01*
X120836844Y-167300005D01*
X120855434Y-167524359D01*
X120855436Y-167524371D01*
X120910703Y-167742614D01*
X121001140Y-167948792D01*
X121124276Y-168137265D01*
X121124284Y-168137276D01*
X121276756Y-168302902D01*
X121276760Y-168302906D01*
X121454424Y-168441189D01*
X121454425Y-168441189D01*
X121454427Y-168441191D01*
X121581135Y-168509761D01*
X121652426Y-168548342D01*
X121696504Y-168563474D01*
X121713821Y-168569419D01*
X121770837Y-168609804D01*
X121796968Y-168674603D01*
X121783917Y-168743243D01*
X121735828Y-168793931D01*
X121674248Y-168810698D01*
X107174907Y-168891250D01*
X107107759Y-168871938D01*
X107061712Y-168819389D01*
X107051384Y-168750287D01*
X107080055Y-168686571D01*
X107138623Y-168648471D01*
X107153800Y-168644944D01*
X107294635Y-168621444D01*
X107507574Y-168548342D01*
X107705576Y-168441189D01*
X107883240Y-168302906D01*
X108035722Y-168137268D01*
X108158860Y-167948791D01*
X108249296Y-167742616D01*
X108304564Y-167524368D01*
X108323156Y-167300000D01*
X108310691Y-167149576D01*
X108304565Y-167075640D01*
X108304563Y-167075628D01*
X108249296Y-166857385D01*
X108215902Y-166781254D01*
X108158860Y-166651209D01*
X108149106Y-166636280D01*
X108035723Y-166462734D01*
X108035715Y-166462723D01*
X107883243Y-166297097D01*
X107883238Y-166297092D01*
X107705577Y-166158812D01*
X107705578Y-166158812D01*
X107705576Y-166158811D01*
X107669070Y-166139055D01*
X107619479Y-166089836D01*
X107604371Y-166021619D01*
X107628541Y-165956064D01*
X107669070Y-165920945D01*
X107669084Y-165920936D01*
X107705576Y-165901189D01*
X107883240Y-165762906D01*
X108035722Y-165597268D01*
X108158860Y-165408791D01*
X108249296Y-165202616D01*
X108304564Y-164984368D01*
X108312715Y-164886000D01*
X108323156Y-164760005D01*
X108323156Y-164759994D01*
X108304565Y-164535640D01*
X108304563Y-164535628D01*
X108249296Y-164317385D01*
X108240138Y-164296507D01*
X108158860Y-164111209D01*
X108155580Y-164106189D01*
X108035723Y-163922734D01*
X108035715Y-163922723D01*
X107883243Y-163757097D01*
X107883238Y-163757092D01*
X107705577Y-163618812D01*
X107705578Y-163618812D01*
X107705576Y-163618811D01*
X107669070Y-163599055D01*
X107619479Y-163549836D01*
X107604371Y-163481619D01*
X107628541Y-163416064D01*
X107669070Y-163380945D01*
X107669084Y-163380936D01*
X107705576Y-163361189D01*
X107883240Y-163222906D01*
X108035722Y-163057268D01*
X108158860Y-162868791D01*
X108249296Y-162662616D01*
X108304564Y-162444368D01*
X108323156Y-162220000D01*
X108304564Y-161995632D01*
X108249296Y-161777384D01*
X108158860Y-161571209D01*
X108149106Y-161556280D01*
X108035723Y-161382734D01*
X108035715Y-161382723D01*
X107883243Y-161217097D01*
X107883238Y-161217092D01*
X107705577Y-161078812D01*
X107705578Y-161078812D01*
X107705576Y-161078811D01*
X107669070Y-161059055D01*
X107619479Y-161009836D01*
X107604371Y-160941619D01*
X107628541Y-160876064D01*
X107669070Y-160840945D01*
X107669084Y-160840936D01*
X107705576Y-160821189D01*
X107883240Y-160682906D01*
X108035722Y-160517268D01*
X108158860Y-160328791D01*
X108249296Y-160122616D01*
X108304564Y-159904368D01*
X108323156Y-159680000D01*
X108312136Y-159547016D01*
X108304565Y-159455640D01*
X108304563Y-159455628D01*
X108249296Y-159237385D01*
X108158859Y-159031207D01*
X108035723Y-158842734D01*
X108035715Y-158842723D01*
X107883243Y-158677097D01*
X107883238Y-158677092D01*
X107705577Y-158538812D01*
X107705578Y-158538812D01*
X107705576Y-158538811D01*
X107669070Y-158519055D01*
X107619479Y-158469836D01*
X107604371Y-158401619D01*
X107628541Y-158336064D01*
X107669070Y-158300945D01*
X107669084Y-158300936D01*
X107705576Y-158281189D01*
X107883240Y-158142906D01*
X108035722Y-157977268D01*
X108158860Y-157788791D01*
X108249296Y-157582616D01*
X108304564Y-157364368D01*
X108304565Y-157364359D01*
X108323156Y-157140005D01*
X108323156Y-157139994D01*
X108304565Y-156915640D01*
X108304563Y-156915628D01*
X108249296Y-156697385D01*
X108158859Y-156491207D01*
X108035723Y-156302734D01*
X108035715Y-156302723D01*
X107883243Y-156137097D01*
X107883238Y-156137092D01*
X107705577Y-155998812D01*
X107705578Y-155998812D01*
X107705576Y-155998811D01*
X107669070Y-155979055D01*
X107619479Y-155929836D01*
X107604371Y-155861619D01*
X107628541Y-155796064D01*
X107669070Y-155760945D01*
X107669084Y-155760936D01*
X107705576Y-155741189D01*
X107883240Y-155602906D01*
X108035722Y-155437268D01*
X108158860Y-155248791D01*
X108249296Y-155042616D01*
X108304564Y-154824368D01*
X108323156Y-154600000D01*
X108304564Y-154375632D01*
X108249296Y-154157384D01*
X108158860Y-153951209D01*
X108149106Y-153936280D01*
X108035723Y-153762734D01*
X108035715Y-153762723D01*
X107883243Y-153597097D01*
X107883238Y-153597092D01*
X107705577Y-153458812D01*
X107705578Y-153458812D01*
X107705576Y-153458811D01*
X107669070Y-153439055D01*
X107619479Y-153389836D01*
X107604371Y-153321619D01*
X107628541Y-153256064D01*
X107669070Y-153220945D01*
X107669084Y-153220936D01*
X107705576Y-153201189D01*
X107883240Y-153062906D01*
X107982614Y-152954957D01*
X108035715Y-152897276D01*
X108035717Y-152897273D01*
X108035722Y-152897268D01*
X108158860Y-152708791D01*
X108249296Y-152502616D01*
X108304564Y-152284368D01*
X108304839Y-152281047D01*
X108323156Y-152060005D01*
X108323156Y-152059994D01*
X108304565Y-151835640D01*
X108304563Y-151835628D01*
X108249296Y-151617385D01*
X108237331Y-151590108D01*
X108158860Y-151411209D01*
X108149106Y-151396280D01*
X108035723Y-151222734D01*
X108035715Y-151222723D01*
X107883243Y-151057097D01*
X107883238Y-151057092D01*
X107705577Y-150918812D01*
X107705578Y-150918812D01*
X107705576Y-150918811D01*
X107669070Y-150899055D01*
X107619479Y-150849836D01*
X107604371Y-150781619D01*
X107628541Y-150716064D01*
X107669070Y-150680945D01*
X107669084Y-150680936D01*
X107705576Y-150661189D01*
X107883240Y-150522906D01*
X108035722Y-150357268D01*
X108158860Y-150168791D01*
X108249296Y-149962616D01*
X108304564Y-149744368D01*
X108304565Y-149744359D01*
X108323156Y-149520005D01*
X108323156Y-149519994D01*
X108309345Y-149353324D01*
X108323426Y-149284888D01*
X108372271Y-149234929D01*
X108440372Y-149219308D01*
X108457109Y-149221466D01*
X108517604Y-149233499D01*
X108517605Y-149233500D01*
X108517606Y-149233500D01*
X113086234Y-149233500D01*
X113153273Y-149253185D01*
X113173915Y-149269819D01*
X115468082Y-151563986D01*
X115501567Y-151625309D01*
X115496583Y-151695001D01*
X115485397Y-151717635D01*
X115466958Y-151746982D01*
X115406782Y-151918953D01*
X115406781Y-151918958D01*
X115386384Y-152099996D01*
X115386384Y-152100003D01*
X115406781Y-152281041D01*
X115406782Y-152281046D01*
X115447949Y-152398693D01*
X115466957Y-152453015D01*
X115563889Y-152607281D01*
X115692719Y-152736111D01*
X115846985Y-152833043D01*
X116018953Y-152893217D01*
X116018958Y-152893218D01*
X116199996Y-152913616D01*
X116200000Y-152913616D01*
X116200004Y-152913616D01*
X116381041Y-152893218D01*
X116381044Y-152893217D01*
X116381047Y-152893217D01*
X116553015Y-152833043D01*
X116707281Y-152736111D01*
X116836111Y-152607281D01*
X116933043Y-152453015D01*
X116993217Y-152281047D01*
X116995409Y-152261591D01*
X117013616Y-152100003D01*
X117013616Y-152099996D01*
X116993218Y-151918958D01*
X116993217Y-151918953D01*
X116988647Y-151905893D01*
X116933043Y-151746985D01*
X116852506Y-151618811D01*
X116833500Y-151552839D01*
X116833500Y-151337605D01*
X116833499Y-151337601D01*
X116814352Y-151241343D01*
X116809155Y-151215215D01*
X116761400Y-151099925D01*
X116761399Y-151099924D01*
X116761396Y-151099918D01*
X116692072Y-150996168D01*
X116692071Y-150996167D01*
X116603833Y-150907929D01*
X115440263Y-149744359D01*
X114221372Y-148525467D01*
X114187887Y-148464144D01*
X114192871Y-148394452D01*
X114234743Y-148338519D01*
X114300207Y-148314102D01*
X114329459Y-148315476D01*
X114467431Y-148338500D01*
X114467432Y-148338500D01*
X114692569Y-148338500D01*
X114914635Y-148301444D01*
X115127574Y-148228342D01*
X115325576Y-148121189D01*
X115503240Y-147982906D01*
X115655722Y-147817268D01*
X115746193Y-147678790D01*
X115799338Y-147633437D01*
X115868569Y-147624013D01*
X115931905Y-147653515D01*
X115953804Y-147678787D01*
X116044278Y-147817268D01*
X116044283Y-147817273D01*
X116044284Y-147817276D01*
X116181657Y-147966500D01*
X116196760Y-147982906D01*
X116374424Y-148121189D01*
X116374425Y-148121189D01*
X116374427Y-148121191D01*
X116475824Y-148176064D01*
X116572426Y-148228342D01*
X116785365Y-148301444D01*
X117007431Y-148338500D01*
X117232569Y-148338500D01*
X117454635Y-148301444D01*
X117667574Y-148228342D01*
X117865576Y-148121189D01*
X118043240Y-147982906D01*
X118195722Y-147817268D01*
X118286193Y-147678790D01*
X118339338Y-147633437D01*
X118408569Y-147624013D01*
X118471905Y-147653515D01*
X118493804Y-147678787D01*
X118584278Y-147817268D01*
X118584283Y-147817273D01*
X118584284Y-147817276D01*
X118721657Y-147966500D01*
X118736760Y-147982906D01*
X118914424Y-148121189D01*
X118914425Y-148121189D01*
X118914427Y-148121191D01*
X119015824Y-148176064D01*
X119112426Y-148228342D01*
X119325365Y-148301444D01*
X119547431Y-148338500D01*
X119772569Y-148338500D01*
X119994635Y-148301444D01*
X120207574Y-148228342D01*
X120405576Y-148121189D01*
X120583240Y-147982906D01*
X120735722Y-147817268D01*
X120826193Y-147678790D01*
X120879338Y-147633437D01*
X120948569Y-147624013D01*
X121011905Y-147653515D01*
G37*
G04 #@! TD.AperFunction*
M02*
