G04 #@! TF.GenerationSoftware,KiCad,Pcbnew,8.0.5-8.0.5-0~ubuntu24.04.1*
G04 #@! TF.CreationDate,2024-10-08T07:52:30+09:00*
G04 #@! TF.ProjectId,gopher_bird_rp2040_sw,676f7068-6572-45f6-9269-72645f727032,rev?*
G04 #@! TF.SameCoordinates,Original*
G04 #@! TF.FileFunction,Soldermask,Bot*
G04 #@! TF.FilePolarity,Negative*
%FSLAX46Y46*%
G04 Gerber Fmt 4.6, Leading zero omitted, Abs format (unit mm)*
G04 Created by KiCad (PCBNEW 8.0.5-8.0.5-0~ubuntu24.04.1) date 2024-10-08 07:52:30*
%MOMM*%
%LPD*%
G01*
G04 APERTURE LIST*
G04 APERTURE END LIST*
G36*
X109503983Y-176103936D02*
G01*
X109554180Y-176103936D01*
X109597524Y-176113149D01*
X109635659Y-176116905D01*
X109683566Y-176131437D01*
X109738424Y-176143098D01*
X109773530Y-176158728D01*
X109804566Y-176168143D01*
X109853884Y-176194504D01*
X109910500Y-176219711D01*
X109936822Y-176238835D01*
X109960232Y-176251348D01*
X110007988Y-176290540D01*
X110062887Y-176330427D01*
X110080711Y-176350223D01*
X110096675Y-176363324D01*
X110139572Y-176415594D01*
X110188924Y-176470405D01*
X110199292Y-176488363D01*
X110208651Y-176499767D01*
X110243273Y-176564542D01*
X110283104Y-176633530D01*
X110287685Y-176647630D01*
X110291856Y-176655433D01*
X110314852Y-176731242D01*
X110341311Y-176812672D01*
X110342242Y-176821532D01*
X110343094Y-176824340D01*
X110351384Y-176908513D01*
X110361000Y-177000000D01*
X110351383Y-177091494D01*
X110343094Y-177175659D01*
X110342242Y-177178466D01*
X110341311Y-177187328D01*
X110314848Y-177268771D01*
X110291856Y-177344566D01*
X110287686Y-177352366D01*
X110283104Y-177366470D01*
X110243266Y-177435470D01*
X110208651Y-177500232D01*
X110199294Y-177511633D01*
X110188924Y-177529595D01*
X110139563Y-177584415D01*
X110096675Y-177636675D01*
X110080714Y-177649773D01*
X110062887Y-177669573D01*
X110007977Y-177709467D01*
X109960232Y-177748651D01*
X109936827Y-177761161D01*
X109910500Y-177780289D01*
X109853873Y-177805500D01*
X109804566Y-177831856D01*
X109773537Y-177841268D01*
X109738424Y-177856902D01*
X109683555Y-177868564D01*
X109635659Y-177883094D01*
X109597532Y-177886849D01*
X109554180Y-177896064D01*
X109503973Y-177896064D01*
X109460000Y-177900395D01*
X109416027Y-177896064D01*
X109365820Y-177896064D01*
X109322467Y-177886849D01*
X109284340Y-177883094D01*
X109236441Y-177868563D01*
X109181576Y-177856902D01*
X109146464Y-177841269D01*
X109115433Y-177831856D01*
X109066120Y-177805498D01*
X109009500Y-177780289D01*
X108983175Y-177761163D01*
X108959767Y-177748651D01*
X108912013Y-177709460D01*
X108857113Y-177669573D01*
X108839287Y-177649776D01*
X108823324Y-177636675D01*
X108780425Y-177584402D01*
X108731076Y-177529595D01*
X108720708Y-177511637D01*
X108711348Y-177500232D01*
X108676719Y-177435447D01*
X108636896Y-177366470D01*
X108632315Y-177352371D01*
X108628143Y-177344566D01*
X108605136Y-177268725D01*
X108578689Y-177187328D01*
X108577758Y-177178471D01*
X108576905Y-177175659D01*
X108568600Y-177091342D01*
X108559000Y-177000000D01*
X108568599Y-176908664D01*
X108576905Y-176824340D01*
X108577758Y-176821527D01*
X108578689Y-176812672D01*
X108605132Y-176731288D01*
X108628143Y-176655433D01*
X108632315Y-176647626D01*
X108636896Y-176633530D01*
X108676712Y-176564565D01*
X108711348Y-176499767D01*
X108720710Y-176488359D01*
X108731076Y-176470405D01*
X108780416Y-176415607D01*
X108823324Y-176363324D01*
X108839291Y-176350219D01*
X108857113Y-176330427D01*
X108912002Y-176290546D01*
X108959767Y-176251348D01*
X108983180Y-176238833D01*
X109009500Y-176219711D01*
X109066109Y-176194506D01*
X109115433Y-176168143D01*
X109146471Y-176158727D01*
X109181576Y-176143098D01*
X109236430Y-176131438D01*
X109284340Y-176116905D01*
X109322476Y-176113148D01*
X109365820Y-176103936D01*
X109416016Y-176103936D01*
X109460000Y-176099604D01*
X109503983Y-176103936D01*
G37*
G36*
X124743983Y-176103936D02*
G01*
X124794180Y-176103936D01*
X124837524Y-176113149D01*
X124875659Y-176116905D01*
X124923566Y-176131437D01*
X124978424Y-176143098D01*
X125013530Y-176158728D01*
X125044566Y-176168143D01*
X125093884Y-176194504D01*
X125150500Y-176219711D01*
X125176822Y-176238835D01*
X125200232Y-176251348D01*
X125247988Y-176290540D01*
X125302887Y-176330427D01*
X125320711Y-176350223D01*
X125336675Y-176363324D01*
X125379572Y-176415594D01*
X125428924Y-176470405D01*
X125439292Y-176488363D01*
X125448651Y-176499767D01*
X125483273Y-176564542D01*
X125523104Y-176633530D01*
X125527685Y-176647630D01*
X125531856Y-176655433D01*
X125554852Y-176731242D01*
X125581311Y-176812672D01*
X125582242Y-176821532D01*
X125583094Y-176824340D01*
X125591384Y-176908513D01*
X125601000Y-177000000D01*
X125591383Y-177091494D01*
X125583094Y-177175659D01*
X125582242Y-177178466D01*
X125581311Y-177187328D01*
X125554848Y-177268771D01*
X125531856Y-177344566D01*
X125527686Y-177352366D01*
X125523104Y-177366470D01*
X125483266Y-177435470D01*
X125448651Y-177500232D01*
X125439294Y-177511633D01*
X125428924Y-177529595D01*
X125379563Y-177584415D01*
X125336675Y-177636675D01*
X125320714Y-177649773D01*
X125302887Y-177669573D01*
X125247977Y-177709467D01*
X125200232Y-177748651D01*
X125176827Y-177761161D01*
X125150500Y-177780289D01*
X125093873Y-177805500D01*
X125044566Y-177831856D01*
X125013537Y-177841268D01*
X124978424Y-177856902D01*
X124923555Y-177868564D01*
X124875659Y-177883094D01*
X124837532Y-177886849D01*
X124794180Y-177896064D01*
X124743973Y-177896064D01*
X124700000Y-177900395D01*
X124656027Y-177896064D01*
X124605820Y-177896064D01*
X124562467Y-177886849D01*
X124524340Y-177883094D01*
X124476441Y-177868563D01*
X124421576Y-177856902D01*
X124386464Y-177841269D01*
X124355433Y-177831856D01*
X124306120Y-177805498D01*
X124249500Y-177780289D01*
X124223175Y-177761163D01*
X124199767Y-177748651D01*
X124152013Y-177709460D01*
X124097113Y-177669573D01*
X124079287Y-177649776D01*
X124063324Y-177636675D01*
X124020425Y-177584402D01*
X123971076Y-177529595D01*
X123960708Y-177511637D01*
X123951348Y-177500232D01*
X123916719Y-177435447D01*
X123876896Y-177366470D01*
X123872315Y-177352371D01*
X123868143Y-177344566D01*
X123845136Y-177268725D01*
X123818689Y-177187328D01*
X123817758Y-177178471D01*
X123816905Y-177175659D01*
X123808600Y-177091342D01*
X123799000Y-177000000D01*
X123808599Y-176908664D01*
X123816905Y-176824340D01*
X123817758Y-176821527D01*
X123818689Y-176812672D01*
X123845132Y-176731288D01*
X123868143Y-176655433D01*
X123872315Y-176647626D01*
X123876896Y-176633530D01*
X123916712Y-176564565D01*
X123951348Y-176499767D01*
X123960710Y-176488359D01*
X123971076Y-176470405D01*
X124020416Y-176415607D01*
X124063324Y-176363324D01*
X124079291Y-176350219D01*
X124097113Y-176330427D01*
X124152002Y-176290546D01*
X124199767Y-176251348D01*
X124223180Y-176238833D01*
X124249500Y-176219711D01*
X124306109Y-176194506D01*
X124355433Y-176168143D01*
X124386471Y-176158727D01*
X124421576Y-176143098D01*
X124476430Y-176131438D01*
X124524340Y-176116905D01*
X124562476Y-176113148D01*
X124605820Y-176103936D01*
X124656016Y-176103936D01*
X124700000Y-176099604D01*
X124743983Y-176103936D01*
G37*
G36*
X87450938Y-175154017D02*
G01*
X87496923Y-175154017D01*
X87548139Y-175163590D01*
X87605040Y-175169195D01*
X87648261Y-175182306D01*
X87687474Y-175189636D01*
X87741785Y-175210676D01*
X87802200Y-175229003D01*
X87836720Y-175247454D01*
X87868232Y-175259662D01*
X87922977Y-175293559D01*
X87983904Y-175326125D01*
X88009506Y-175347136D01*
X88033048Y-175361713D01*
X88085212Y-175409267D01*
X88143169Y-175456831D01*
X88160342Y-175477757D01*
X88176301Y-175492305D01*
X88222629Y-175553653D01*
X88273875Y-175616096D01*
X88283783Y-175634634D01*
X88293122Y-175647000D01*
X88330274Y-175721613D01*
X88370997Y-175797800D01*
X88375340Y-175812117D01*
X88379528Y-175820528D01*
X88404267Y-175907476D01*
X88430805Y-175994960D01*
X88431676Y-176003811D01*
X88432577Y-176006975D01*
X88441938Y-176108002D01*
X88451000Y-176200000D01*
X88441938Y-176292005D01*
X88432577Y-176393024D01*
X88431676Y-176396187D01*
X88430805Y-176405040D01*
X88404262Y-176492538D01*
X88379528Y-176579471D01*
X88375341Y-176587879D01*
X88370997Y-176602200D01*
X88330267Y-176678399D01*
X88293122Y-176752999D01*
X88283785Y-176765362D01*
X88273875Y-176783904D01*
X88222620Y-176846357D01*
X88176301Y-176907694D01*
X88160345Y-176922238D01*
X88143169Y-176943169D01*
X88085201Y-176990741D01*
X88033048Y-177038286D01*
X88009511Y-177052859D01*
X87983904Y-177073875D01*
X87922965Y-177106447D01*
X87868232Y-177140337D01*
X87836726Y-177152542D01*
X87802200Y-177170997D01*
X87741773Y-177189327D01*
X87687474Y-177210363D01*
X87648268Y-177217691D01*
X87605040Y-177230805D01*
X87548136Y-177236409D01*
X87496923Y-177245983D01*
X87450938Y-177245983D01*
X87400000Y-177251000D01*
X87349062Y-177245983D01*
X87303077Y-177245983D01*
X87251863Y-177236409D01*
X87194960Y-177230805D01*
X87151732Y-177217692D01*
X87112525Y-177210363D01*
X87058221Y-177189325D01*
X86997800Y-177170997D01*
X86963275Y-177152543D01*
X86931767Y-177140337D01*
X86877027Y-177106443D01*
X86816096Y-177073875D01*
X86790491Y-177052861D01*
X86766951Y-177038286D01*
X86714788Y-176990733D01*
X86656831Y-176943169D01*
X86639656Y-176922242D01*
X86623698Y-176907694D01*
X86577367Y-176846342D01*
X86526125Y-176783904D01*
X86516216Y-176765366D01*
X86506877Y-176752999D01*
X86469717Y-176678372D01*
X86429003Y-176602200D01*
X86424660Y-176587884D01*
X86420471Y-176579471D01*
X86395721Y-176492485D01*
X86369195Y-176405040D01*
X86368323Y-176396192D01*
X86367422Y-176393024D01*
X86358044Y-176291833D01*
X86349000Y-176200000D01*
X86358044Y-176108173D01*
X86367422Y-176006975D01*
X86368323Y-176003805D01*
X86369195Y-175994960D01*
X86395716Y-175907529D01*
X86420471Y-175820528D01*
X86424661Y-175812112D01*
X86429003Y-175797800D01*
X86469710Y-175721641D01*
X86506877Y-175647000D01*
X86516218Y-175634629D01*
X86526125Y-175616096D01*
X86577357Y-175553668D01*
X86623698Y-175492305D01*
X86639660Y-175477753D01*
X86656831Y-175456831D01*
X86714777Y-175409275D01*
X86766951Y-175361713D01*
X86790496Y-175347134D01*
X86816096Y-175326125D01*
X86877015Y-175293563D01*
X86931767Y-175259662D01*
X86963282Y-175247452D01*
X86997800Y-175229003D01*
X87058209Y-175210677D01*
X87112525Y-175189636D01*
X87151739Y-175182305D01*
X87194960Y-175169195D01*
X87251860Y-175163590D01*
X87303077Y-175154017D01*
X87349062Y-175154017D01*
X87400000Y-175149000D01*
X87450938Y-175154017D01*
G37*
G36*
X93950938Y-175154017D02*
G01*
X93996923Y-175154017D01*
X94048139Y-175163590D01*
X94105040Y-175169195D01*
X94148261Y-175182306D01*
X94187474Y-175189636D01*
X94241785Y-175210676D01*
X94302200Y-175229003D01*
X94336720Y-175247454D01*
X94368232Y-175259662D01*
X94422977Y-175293559D01*
X94483904Y-175326125D01*
X94509506Y-175347136D01*
X94533048Y-175361713D01*
X94585212Y-175409267D01*
X94643169Y-175456831D01*
X94660342Y-175477757D01*
X94676301Y-175492305D01*
X94722629Y-175553653D01*
X94773875Y-175616096D01*
X94783783Y-175634634D01*
X94793122Y-175647000D01*
X94830274Y-175721613D01*
X94870997Y-175797800D01*
X94875340Y-175812117D01*
X94879528Y-175820528D01*
X94904267Y-175907476D01*
X94930805Y-175994960D01*
X94931676Y-176003811D01*
X94932577Y-176006975D01*
X94941938Y-176108002D01*
X94951000Y-176200000D01*
X94941938Y-176292005D01*
X94932577Y-176393024D01*
X94931676Y-176396187D01*
X94930805Y-176405040D01*
X94904262Y-176492538D01*
X94879528Y-176579471D01*
X94875341Y-176587879D01*
X94870997Y-176602200D01*
X94830267Y-176678399D01*
X94793122Y-176752999D01*
X94783785Y-176765362D01*
X94773875Y-176783904D01*
X94722620Y-176846357D01*
X94676301Y-176907694D01*
X94660345Y-176922238D01*
X94643169Y-176943169D01*
X94585201Y-176990741D01*
X94533048Y-177038286D01*
X94509511Y-177052859D01*
X94483904Y-177073875D01*
X94422965Y-177106447D01*
X94368232Y-177140337D01*
X94336726Y-177152542D01*
X94302200Y-177170997D01*
X94241773Y-177189327D01*
X94187474Y-177210363D01*
X94148268Y-177217691D01*
X94105040Y-177230805D01*
X94048136Y-177236409D01*
X93996923Y-177245983D01*
X93950938Y-177245983D01*
X93900000Y-177251000D01*
X93849062Y-177245983D01*
X93803077Y-177245983D01*
X93751863Y-177236409D01*
X93694960Y-177230805D01*
X93651732Y-177217692D01*
X93612525Y-177210363D01*
X93558221Y-177189325D01*
X93497800Y-177170997D01*
X93463275Y-177152543D01*
X93431767Y-177140337D01*
X93377027Y-177106443D01*
X93316096Y-177073875D01*
X93290491Y-177052861D01*
X93266951Y-177038286D01*
X93214788Y-176990733D01*
X93156831Y-176943169D01*
X93139656Y-176922242D01*
X93123698Y-176907694D01*
X93077367Y-176846342D01*
X93026125Y-176783904D01*
X93016216Y-176765366D01*
X93006877Y-176752999D01*
X92969717Y-176678372D01*
X92929003Y-176602200D01*
X92924660Y-176587884D01*
X92920471Y-176579471D01*
X92895721Y-176492485D01*
X92869195Y-176405040D01*
X92868323Y-176396192D01*
X92867422Y-176393024D01*
X92858044Y-176291833D01*
X92849000Y-176200000D01*
X92858044Y-176108173D01*
X92867422Y-176006975D01*
X92868323Y-176003805D01*
X92869195Y-175994960D01*
X92895716Y-175907529D01*
X92920471Y-175820528D01*
X92924661Y-175812112D01*
X92929003Y-175797800D01*
X92969710Y-175721641D01*
X93006877Y-175647000D01*
X93016218Y-175634629D01*
X93026125Y-175616096D01*
X93077357Y-175553668D01*
X93123698Y-175492305D01*
X93139660Y-175477753D01*
X93156831Y-175456831D01*
X93214777Y-175409275D01*
X93266951Y-175361713D01*
X93290496Y-175347134D01*
X93316096Y-175326125D01*
X93377015Y-175293563D01*
X93431767Y-175259662D01*
X93463282Y-175247452D01*
X93497800Y-175229003D01*
X93558209Y-175210677D01*
X93612525Y-175189636D01*
X93651739Y-175182305D01*
X93694960Y-175169195D01*
X93751860Y-175163590D01*
X93803077Y-175154017D01*
X93849062Y-175154017D01*
X93900000Y-175149000D01*
X93950938Y-175154017D01*
G37*
G36*
X109503983Y-173563936D02*
G01*
X109554180Y-173563936D01*
X109597524Y-173573149D01*
X109635659Y-173576905D01*
X109683566Y-173591437D01*
X109738424Y-173603098D01*
X109773530Y-173618728D01*
X109804566Y-173628143D01*
X109853884Y-173654504D01*
X109910500Y-173679711D01*
X109936822Y-173698835D01*
X109960232Y-173711348D01*
X110007988Y-173750540D01*
X110062887Y-173790427D01*
X110080711Y-173810223D01*
X110096675Y-173823324D01*
X110139572Y-173875594D01*
X110188924Y-173930405D01*
X110199292Y-173948363D01*
X110208651Y-173959767D01*
X110243273Y-174024542D01*
X110283104Y-174093530D01*
X110287685Y-174107630D01*
X110291856Y-174115433D01*
X110314852Y-174191242D01*
X110341311Y-174272672D01*
X110342242Y-174281532D01*
X110343094Y-174284340D01*
X110351384Y-174368513D01*
X110361000Y-174460000D01*
X110351383Y-174551494D01*
X110343094Y-174635659D01*
X110342242Y-174638466D01*
X110341311Y-174647328D01*
X110314848Y-174728771D01*
X110291856Y-174804566D01*
X110287686Y-174812366D01*
X110283104Y-174826470D01*
X110243266Y-174895470D01*
X110208651Y-174960232D01*
X110199294Y-174971633D01*
X110188924Y-174989595D01*
X110139563Y-175044415D01*
X110096675Y-175096675D01*
X110080714Y-175109773D01*
X110062887Y-175129573D01*
X110007977Y-175169467D01*
X109960232Y-175208651D01*
X109936827Y-175221161D01*
X109910500Y-175240289D01*
X109853873Y-175265500D01*
X109804566Y-175291856D01*
X109773537Y-175301268D01*
X109738424Y-175316902D01*
X109683555Y-175328564D01*
X109635659Y-175343094D01*
X109597532Y-175346849D01*
X109554180Y-175356064D01*
X109503973Y-175356064D01*
X109460000Y-175360395D01*
X109416027Y-175356064D01*
X109365820Y-175356064D01*
X109322467Y-175346849D01*
X109284340Y-175343094D01*
X109236441Y-175328563D01*
X109181576Y-175316902D01*
X109146464Y-175301269D01*
X109115433Y-175291856D01*
X109066120Y-175265498D01*
X109009500Y-175240289D01*
X108983175Y-175221163D01*
X108959767Y-175208651D01*
X108912013Y-175169460D01*
X108857113Y-175129573D01*
X108839287Y-175109776D01*
X108823324Y-175096675D01*
X108780425Y-175044402D01*
X108731076Y-174989595D01*
X108720708Y-174971637D01*
X108711348Y-174960232D01*
X108676719Y-174895447D01*
X108636896Y-174826470D01*
X108632315Y-174812371D01*
X108628143Y-174804566D01*
X108605136Y-174728725D01*
X108578689Y-174647328D01*
X108577758Y-174638471D01*
X108576905Y-174635659D01*
X108568600Y-174551342D01*
X108559000Y-174460000D01*
X108568599Y-174368664D01*
X108576905Y-174284340D01*
X108577758Y-174281527D01*
X108578689Y-174272672D01*
X108605132Y-174191288D01*
X108628143Y-174115433D01*
X108632315Y-174107626D01*
X108636896Y-174093530D01*
X108676712Y-174024565D01*
X108711348Y-173959767D01*
X108720710Y-173948359D01*
X108731076Y-173930405D01*
X108780416Y-173875607D01*
X108823324Y-173823324D01*
X108839291Y-173810219D01*
X108857113Y-173790427D01*
X108912002Y-173750546D01*
X108959767Y-173711348D01*
X108983180Y-173698833D01*
X109009500Y-173679711D01*
X109066109Y-173654506D01*
X109115433Y-173628143D01*
X109146471Y-173618727D01*
X109181576Y-173603098D01*
X109236430Y-173591438D01*
X109284340Y-173576905D01*
X109322476Y-173573148D01*
X109365820Y-173563936D01*
X109416016Y-173563936D01*
X109460000Y-173559604D01*
X109503983Y-173563936D01*
G37*
G36*
X124743983Y-173563936D02*
G01*
X124794180Y-173563936D01*
X124837524Y-173573149D01*
X124875659Y-173576905D01*
X124923566Y-173591437D01*
X124978424Y-173603098D01*
X125013530Y-173618728D01*
X125044566Y-173628143D01*
X125093884Y-173654504D01*
X125150500Y-173679711D01*
X125176822Y-173698835D01*
X125200232Y-173711348D01*
X125247988Y-173750540D01*
X125302887Y-173790427D01*
X125320711Y-173810223D01*
X125336675Y-173823324D01*
X125379572Y-173875594D01*
X125428924Y-173930405D01*
X125439292Y-173948363D01*
X125448651Y-173959767D01*
X125483273Y-174024542D01*
X125523104Y-174093530D01*
X125527685Y-174107630D01*
X125531856Y-174115433D01*
X125554852Y-174191242D01*
X125581311Y-174272672D01*
X125582242Y-174281532D01*
X125583094Y-174284340D01*
X125591384Y-174368513D01*
X125601000Y-174460000D01*
X125591383Y-174551494D01*
X125583094Y-174635659D01*
X125582242Y-174638466D01*
X125581311Y-174647328D01*
X125554848Y-174728771D01*
X125531856Y-174804566D01*
X125527686Y-174812366D01*
X125523104Y-174826470D01*
X125483266Y-174895470D01*
X125448651Y-174960232D01*
X125439294Y-174971633D01*
X125428924Y-174989595D01*
X125379563Y-175044415D01*
X125336675Y-175096675D01*
X125320714Y-175109773D01*
X125302887Y-175129573D01*
X125247977Y-175169467D01*
X125200232Y-175208651D01*
X125176827Y-175221161D01*
X125150500Y-175240289D01*
X125093873Y-175265500D01*
X125044566Y-175291856D01*
X125013537Y-175301268D01*
X124978424Y-175316902D01*
X124923555Y-175328564D01*
X124875659Y-175343094D01*
X124837532Y-175346849D01*
X124794180Y-175356064D01*
X124743973Y-175356064D01*
X124700000Y-175360395D01*
X124656027Y-175356064D01*
X124605820Y-175356064D01*
X124562467Y-175346849D01*
X124524340Y-175343094D01*
X124476441Y-175328563D01*
X124421576Y-175316902D01*
X124386464Y-175301269D01*
X124355433Y-175291856D01*
X124306120Y-175265498D01*
X124249500Y-175240289D01*
X124223175Y-175221163D01*
X124199767Y-175208651D01*
X124152013Y-175169460D01*
X124097113Y-175129573D01*
X124079287Y-175109776D01*
X124063324Y-175096675D01*
X124020425Y-175044402D01*
X123971076Y-174989595D01*
X123960708Y-174971637D01*
X123951348Y-174960232D01*
X123916719Y-174895447D01*
X123876896Y-174826470D01*
X123872315Y-174812371D01*
X123868143Y-174804566D01*
X123845136Y-174728725D01*
X123818689Y-174647328D01*
X123817758Y-174638471D01*
X123816905Y-174635659D01*
X123808600Y-174551342D01*
X123799000Y-174460000D01*
X123808599Y-174368664D01*
X123816905Y-174284340D01*
X123817758Y-174281527D01*
X123818689Y-174272672D01*
X123845132Y-174191288D01*
X123868143Y-174115433D01*
X123872315Y-174107626D01*
X123876896Y-174093530D01*
X123916712Y-174024565D01*
X123951348Y-173959767D01*
X123960710Y-173948359D01*
X123971076Y-173930405D01*
X124020416Y-173875607D01*
X124063324Y-173823324D01*
X124079291Y-173810219D01*
X124097113Y-173790427D01*
X124152002Y-173750546D01*
X124199767Y-173711348D01*
X124223180Y-173698833D01*
X124249500Y-173679711D01*
X124306109Y-173654506D01*
X124355433Y-173628143D01*
X124386471Y-173618727D01*
X124421576Y-173603098D01*
X124476430Y-173591438D01*
X124524340Y-173576905D01*
X124562476Y-173573148D01*
X124605820Y-173563936D01*
X124656016Y-173563936D01*
X124700000Y-173559604D01*
X124743983Y-173563936D01*
G37*
G36*
X109503983Y-171023936D02*
G01*
X109554180Y-171023936D01*
X109597524Y-171033149D01*
X109635659Y-171036905D01*
X109683566Y-171051437D01*
X109738424Y-171063098D01*
X109773530Y-171078728D01*
X109804566Y-171088143D01*
X109853884Y-171114504D01*
X109910500Y-171139711D01*
X109936822Y-171158835D01*
X109960232Y-171171348D01*
X110007988Y-171210540D01*
X110062887Y-171250427D01*
X110080711Y-171270223D01*
X110096675Y-171283324D01*
X110139572Y-171335594D01*
X110188924Y-171390405D01*
X110199292Y-171408363D01*
X110208651Y-171419767D01*
X110243273Y-171484542D01*
X110283104Y-171553530D01*
X110287685Y-171567630D01*
X110291856Y-171575433D01*
X110314852Y-171651242D01*
X110341311Y-171732672D01*
X110342242Y-171741532D01*
X110343094Y-171744340D01*
X110351384Y-171828513D01*
X110361000Y-171920000D01*
X110351383Y-172011494D01*
X110343094Y-172095659D01*
X110342242Y-172098466D01*
X110341311Y-172107328D01*
X110314848Y-172188771D01*
X110291856Y-172264566D01*
X110287686Y-172272366D01*
X110283104Y-172286470D01*
X110243266Y-172355470D01*
X110208651Y-172420232D01*
X110199294Y-172431633D01*
X110188924Y-172449595D01*
X110139563Y-172504415D01*
X110096675Y-172556675D01*
X110080714Y-172569773D01*
X110062887Y-172589573D01*
X110007977Y-172629467D01*
X109960232Y-172668651D01*
X109936827Y-172681161D01*
X109910500Y-172700289D01*
X109853873Y-172725500D01*
X109804566Y-172751856D01*
X109773537Y-172761268D01*
X109738424Y-172776902D01*
X109683555Y-172788564D01*
X109635659Y-172803094D01*
X109597532Y-172806849D01*
X109554180Y-172816064D01*
X109503973Y-172816064D01*
X109460000Y-172820395D01*
X109416027Y-172816064D01*
X109365820Y-172816064D01*
X109322467Y-172806849D01*
X109284340Y-172803094D01*
X109236441Y-172788563D01*
X109181576Y-172776902D01*
X109146464Y-172761269D01*
X109115433Y-172751856D01*
X109066120Y-172725498D01*
X109009500Y-172700289D01*
X108983175Y-172681163D01*
X108959767Y-172668651D01*
X108912013Y-172629460D01*
X108857113Y-172589573D01*
X108839287Y-172569776D01*
X108823324Y-172556675D01*
X108780425Y-172504402D01*
X108731076Y-172449595D01*
X108720708Y-172431637D01*
X108711348Y-172420232D01*
X108676719Y-172355447D01*
X108636896Y-172286470D01*
X108632315Y-172272371D01*
X108628143Y-172264566D01*
X108605136Y-172188725D01*
X108578689Y-172107328D01*
X108577758Y-172098471D01*
X108576905Y-172095659D01*
X108568600Y-172011342D01*
X108559000Y-171920000D01*
X108568599Y-171828664D01*
X108576905Y-171744340D01*
X108577758Y-171741527D01*
X108578689Y-171732672D01*
X108605132Y-171651288D01*
X108628143Y-171575433D01*
X108632315Y-171567626D01*
X108636896Y-171553530D01*
X108676712Y-171484565D01*
X108711348Y-171419767D01*
X108720710Y-171408359D01*
X108731076Y-171390405D01*
X108780416Y-171335607D01*
X108823324Y-171283324D01*
X108839291Y-171270219D01*
X108857113Y-171250427D01*
X108912002Y-171210546D01*
X108959767Y-171171348D01*
X108983180Y-171158833D01*
X109009500Y-171139711D01*
X109066109Y-171114506D01*
X109115433Y-171088143D01*
X109146471Y-171078727D01*
X109181576Y-171063098D01*
X109236430Y-171051438D01*
X109284340Y-171036905D01*
X109322476Y-171033148D01*
X109365820Y-171023936D01*
X109416016Y-171023936D01*
X109460000Y-171019604D01*
X109503983Y-171023936D01*
G37*
G36*
X124743983Y-171023936D02*
G01*
X124794180Y-171023936D01*
X124837524Y-171033149D01*
X124875659Y-171036905D01*
X124923566Y-171051437D01*
X124978424Y-171063098D01*
X125013530Y-171078728D01*
X125044566Y-171088143D01*
X125093884Y-171114504D01*
X125150500Y-171139711D01*
X125176822Y-171158835D01*
X125200232Y-171171348D01*
X125247988Y-171210540D01*
X125302887Y-171250427D01*
X125320711Y-171270223D01*
X125336675Y-171283324D01*
X125379572Y-171335594D01*
X125428924Y-171390405D01*
X125439292Y-171408363D01*
X125448651Y-171419767D01*
X125483273Y-171484542D01*
X125523104Y-171553530D01*
X125527685Y-171567630D01*
X125531856Y-171575433D01*
X125554852Y-171651242D01*
X125581311Y-171732672D01*
X125582242Y-171741532D01*
X125583094Y-171744340D01*
X125591384Y-171828513D01*
X125601000Y-171920000D01*
X125591383Y-172011494D01*
X125583094Y-172095659D01*
X125582242Y-172098466D01*
X125581311Y-172107328D01*
X125554848Y-172188771D01*
X125531856Y-172264566D01*
X125527686Y-172272366D01*
X125523104Y-172286470D01*
X125483266Y-172355470D01*
X125448651Y-172420232D01*
X125439294Y-172431633D01*
X125428924Y-172449595D01*
X125379563Y-172504415D01*
X125336675Y-172556675D01*
X125320714Y-172569773D01*
X125302887Y-172589573D01*
X125247977Y-172629467D01*
X125200232Y-172668651D01*
X125176827Y-172681161D01*
X125150500Y-172700289D01*
X125093873Y-172725500D01*
X125044566Y-172751856D01*
X125013537Y-172761268D01*
X124978424Y-172776902D01*
X124923555Y-172788564D01*
X124875659Y-172803094D01*
X124837532Y-172806849D01*
X124794180Y-172816064D01*
X124743973Y-172816064D01*
X124700000Y-172820395D01*
X124656027Y-172816064D01*
X124605820Y-172816064D01*
X124562467Y-172806849D01*
X124524340Y-172803094D01*
X124476441Y-172788563D01*
X124421576Y-172776902D01*
X124386464Y-172761269D01*
X124355433Y-172751856D01*
X124306120Y-172725498D01*
X124249500Y-172700289D01*
X124223175Y-172681163D01*
X124199767Y-172668651D01*
X124152013Y-172629460D01*
X124097113Y-172589573D01*
X124079287Y-172569776D01*
X124063324Y-172556675D01*
X124020425Y-172504402D01*
X123971076Y-172449595D01*
X123960708Y-172431637D01*
X123951348Y-172420232D01*
X123916719Y-172355447D01*
X123876896Y-172286470D01*
X123872315Y-172272371D01*
X123868143Y-172264566D01*
X123845136Y-172188725D01*
X123818689Y-172107328D01*
X123817758Y-172098471D01*
X123816905Y-172095659D01*
X123808600Y-172011342D01*
X123799000Y-171920000D01*
X123808599Y-171828664D01*
X123816905Y-171744340D01*
X123817758Y-171741527D01*
X123818689Y-171732672D01*
X123845132Y-171651288D01*
X123868143Y-171575433D01*
X123872315Y-171567626D01*
X123876896Y-171553530D01*
X123916712Y-171484565D01*
X123951348Y-171419767D01*
X123960710Y-171408359D01*
X123971076Y-171390405D01*
X124020416Y-171335607D01*
X124063324Y-171283324D01*
X124079291Y-171270219D01*
X124097113Y-171250427D01*
X124152002Y-171210546D01*
X124199767Y-171171348D01*
X124223180Y-171158833D01*
X124249500Y-171139711D01*
X124306109Y-171114506D01*
X124355433Y-171088143D01*
X124386471Y-171078727D01*
X124421576Y-171063098D01*
X124476430Y-171051438D01*
X124524340Y-171036905D01*
X124562476Y-171033148D01*
X124605820Y-171023936D01*
X124656016Y-171023936D01*
X124700000Y-171019604D01*
X124743983Y-171023936D01*
G37*
G36*
X87450938Y-170654017D02*
G01*
X87496923Y-170654017D01*
X87548139Y-170663590D01*
X87605040Y-170669195D01*
X87648261Y-170682306D01*
X87687474Y-170689636D01*
X87741785Y-170710676D01*
X87802200Y-170729003D01*
X87836720Y-170747454D01*
X87868232Y-170759662D01*
X87922977Y-170793559D01*
X87983904Y-170826125D01*
X88009506Y-170847136D01*
X88033048Y-170861713D01*
X88085212Y-170909267D01*
X88143169Y-170956831D01*
X88160342Y-170977757D01*
X88176301Y-170992305D01*
X88222629Y-171053653D01*
X88273875Y-171116096D01*
X88283783Y-171134634D01*
X88293122Y-171147000D01*
X88330274Y-171221613D01*
X88370997Y-171297800D01*
X88375340Y-171312117D01*
X88379528Y-171320528D01*
X88404267Y-171407476D01*
X88430805Y-171494960D01*
X88431676Y-171503811D01*
X88432577Y-171506975D01*
X88441938Y-171608002D01*
X88451000Y-171700000D01*
X88441938Y-171792005D01*
X88432577Y-171893024D01*
X88431676Y-171896187D01*
X88430805Y-171905040D01*
X88404262Y-171992538D01*
X88379528Y-172079471D01*
X88375341Y-172087879D01*
X88370997Y-172102200D01*
X88330267Y-172178399D01*
X88293122Y-172252999D01*
X88283785Y-172265362D01*
X88273875Y-172283904D01*
X88222620Y-172346357D01*
X88176301Y-172407694D01*
X88160345Y-172422238D01*
X88143169Y-172443169D01*
X88085201Y-172490741D01*
X88033048Y-172538286D01*
X88009511Y-172552859D01*
X87983904Y-172573875D01*
X87922965Y-172606447D01*
X87868232Y-172640337D01*
X87836726Y-172652542D01*
X87802200Y-172670997D01*
X87741773Y-172689327D01*
X87687474Y-172710363D01*
X87648268Y-172717691D01*
X87605040Y-172730805D01*
X87548136Y-172736409D01*
X87496923Y-172745983D01*
X87450938Y-172745983D01*
X87400000Y-172751000D01*
X87349062Y-172745983D01*
X87303077Y-172745983D01*
X87251863Y-172736409D01*
X87194960Y-172730805D01*
X87151732Y-172717692D01*
X87112525Y-172710363D01*
X87058221Y-172689325D01*
X86997800Y-172670997D01*
X86963275Y-172652543D01*
X86931767Y-172640337D01*
X86877027Y-172606443D01*
X86816096Y-172573875D01*
X86790491Y-172552861D01*
X86766951Y-172538286D01*
X86714788Y-172490733D01*
X86656831Y-172443169D01*
X86639656Y-172422242D01*
X86623698Y-172407694D01*
X86577367Y-172346342D01*
X86526125Y-172283904D01*
X86516216Y-172265366D01*
X86506877Y-172252999D01*
X86469717Y-172178372D01*
X86429003Y-172102200D01*
X86424660Y-172087884D01*
X86420471Y-172079471D01*
X86395721Y-171992485D01*
X86369195Y-171905040D01*
X86368323Y-171896192D01*
X86367422Y-171893024D01*
X86358044Y-171791833D01*
X86349000Y-171700000D01*
X86358044Y-171608173D01*
X86367422Y-171506975D01*
X86368323Y-171503805D01*
X86369195Y-171494960D01*
X86395716Y-171407529D01*
X86420471Y-171320528D01*
X86424661Y-171312112D01*
X86429003Y-171297800D01*
X86469710Y-171221641D01*
X86506877Y-171147000D01*
X86516218Y-171134629D01*
X86526125Y-171116096D01*
X86577357Y-171053668D01*
X86623698Y-170992305D01*
X86639660Y-170977753D01*
X86656831Y-170956831D01*
X86714777Y-170909275D01*
X86766951Y-170861713D01*
X86790496Y-170847134D01*
X86816096Y-170826125D01*
X86877015Y-170793563D01*
X86931767Y-170759662D01*
X86963282Y-170747452D01*
X86997800Y-170729003D01*
X87058209Y-170710677D01*
X87112525Y-170689636D01*
X87151739Y-170682305D01*
X87194960Y-170669195D01*
X87251860Y-170663590D01*
X87303077Y-170654017D01*
X87349062Y-170654017D01*
X87400000Y-170649000D01*
X87450938Y-170654017D01*
G37*
G36*
X93950938Y-170654017D02*
G01*
X93996923Y-170654017D01*
X94048139Y-170663590D01*
X94105040Y-170669195D01*
X94148261Y-170682306D01*
X94187474Y-170689636D01*
X94241785Y-170710676D01*
X94302200Y-170729003D01*
X94336720Y-170747454D01*
X94368232Y-170759662D01*
X94422977Y-170793559D01*
X94483904Y-170826125D01*
X94509506Y-170847136D01*
X94533048Y-170861713D01*
X94585212Y-170909267D01*
X94643169Y-170956831D01*
X94660342Y-170977757D01*
X94676301Y-170992305D01*
X94722629Y-171053653D01*
X94773875Y-171116096D01*
X94783783Y-171134634D01*
X94793122Y-171147000D01*
X94830274Y-171221613D01*
X94870997Y-171297800D01*
X94875340Y-171312117D01*
X94879528Y-171320528D01*
X94904267Y-171407476D01*
X94930805Y-171494960D01*
X94931676Y-171503811D01*
X94932577Y-171506975D01*
X94941938Y-171608002D01*
X94951000Y-171700000D01*
X94941938Y-171792005D01*
X94932577Y-171893024D01*
X94931676Y-171896187D01*
X94930805Y-171905040D01*
X94904262Y-171992538D01*
X94879528Y-172079471D01*
X94875341Y-172087879D01*
X94870997Y-172102200D01*
X94830267Y-172178399D01*
X94793122Y-172252999D01*
X94783785Y-172265362D01*
X94773875Y-172283904D01*
X94722620Y-172346357D01*
X94676301Y-172407694D01*
X94660345Y-172422238D01*
X94643169Y-172443169D01*
X94585201Y-172490741D01*
X94533048Y-172538286D01*
X94509511Y-172552859D01*
X94483904Y-172573875D01*
X94422965Y-172606447D01*
X94368232Y-172640337D01*
X94336726Y-172652542D01*
X94302200Y-172670997D01*
X94241773Y-172689327D01*
X94187474Y-172710363D01*
X94148268Y-172717691D01*
X94105040Y-172730805D01*
X94048136Y-172736409D01*
X93996923Y-172745983D01*
X93950938Y-172745983D01*
X93900000Y-172751000D01*
X93849062Y-172745983D01*
X93803077Y-172745983D01*
X93751863Y-172736409D01*
X93694960Y-172730805D01*
X93651732Y-172717692D01*
X93612525Y-172710363D01*
X93558221Y-172689325D01*
X93497800Y-172670997D01*
X93463275Y-172652543D01*
X93431767Y-172640337D01*
X93377027Y-172606443D01*
X93316096Y-172573875D01*
X93290491Y-172552861D01*
X93266951Y-172538286D01*
X93214788Y-172490733D01*
X93156831Y-172443169D01*
X93139656Y-172422242D01*
X93123698Y-172407694D01*
X93077367Y-172346342D01*
X93026125Y-172283904D01*
X93016216Y-172265366D01*
X93006877Y-172252999D01*
X92969717Y-172178372D01*
X92929003Y-172102200D01*
X92924660Y-172087884D01*
X92920471Y-172079471D01*
X92895721Y-171992485D01*
X92869195Y-171905040D01*
X92868323Y-171896192D01*
X92867422Y-171893024D01*
X92858044Y-171791833D01*
X92849000Y-171700000D01*
X92858044Y-171608173D01*
X92867422Y-171506975D01*
X92868323Y-171503805D01*
X92869195Y-171494960D01*
X92895716Y-171407529D01*
X92920471Y-171320528D01*
X92924661Y-171312112D01*
X92929003Y-171297800D01*
X92969710Y-171221641D01*
X93006877Y-171147000D01*
X93016218Y-171134629D01*
X93026125Y-171116096D01*
X93077357Y-171053668D01*
X93123698Y-170992305D01*
X93139660Y-170977753D01*
X93156831Y-170956831D01*
X93214777Y-170909275D01*
X93266951Y-170861713D01*
X93290496Y-170847134D01*
X93316096Y-170826125D01*
X93377015Y-170793563D01*
X93431767Y-170759662D01*
X93463282Y-170747452D01*
X93497800Y-170729003D01*
X93558209Y-170710677D01*
X93612525Y-170689636D01*
X93651739Y-170682305D01*
X93694960Y-170669195D01*
X93751860Y-170663590D01*
X93803077Y-170654017D01*
X93849062Y-170654017D01*
X93900000Y-170649000D01*
X93950938Y-170654017D01*
G37*
G36*
X136350938Y-169454017D02*
G01*
X136396923Y-169454017D01*
X136448139Y-169463590D01*
X136505040Y-169469195D01*
X136548261Y-169482306D01*
X136587474Y-169489636D01*
X136641785Y-169510676D01*
X136702200Y-169529003D01*
X136736720Y-169547454D01*
X136768232Y-169559662D01*
X136822977Y-169593559D01*
X136883904Y-169626125D01*
X136909506Y-169647136D01*
X136933048Y-169661713D01*
X136985212Y-169709267D01*
X137043169Y-169756831D01*
X137060342Y-169777757D01*
X137076301Y-169792305D01*
X137122629Y-169853653D01*
X137173875Y-169916096D01*
X137183783Y-169934634D01*
X137193122Y-169947000D01*
X137230274Y-170021613D01*
X137270997Y-170097800D01*
X137275340Y-170112117D01*
X137279528Y-170120528D01*
X137304267Y-170207476D01*
X137330805Y-170294960D01*
X137331676Y-170303811D01*
X137332577Y-170306975D01*
X137341938Y-170408002D01*
X137351000Y-170500000D01*
X137341938Y-170592005D01*
X137332577Y-170693024D01*
X137331676Y-170696187D01*
X137330805Y-170705040D01*
X137304262Y-170792538D01*
X137279528Y-170879471D01*
X137275341Y-170887879D01*
X137270997Y-170902200D01*
X137230267Y-170978399D01*
X137193122Y-171052999D01*
X137183785Y-171065362D01*
X137173875Y-171083904D01*
X137122620Y-171146357D01*
X137076301Y-171207694D01*
X137060345Y-171222238D01*
X137043169Y-171243169D01*
X136985201Y-171290741D01*
X136933048Y-171338286D01*
X136909511Y-171352859D01*
X136883904Y-171373875D01*
X136822965Y-171406447D01*
X136768232Y-171440337D01*
X136736726Y-171452542D01*
X136702200Y-171470997D01*
X136641773Y-171489327D01*
X136587474Y-171510363D01*
X136548268Y-171517691D01*
X136505040Y-171530805D01*
X136448136Y-171536409D01*
X136396923Y-171545983D01*
X136350938Y-171545983D01*
X136300000Y-171551000D01*
X136249062Y-171545983D01*
X136203077Y-171545983D01*
X136151863Y-171536409D01*
X136094960Y-171530805D01*
X136051732Y-171517692D01*
X136012525Y-171510363D01*
X135958221Y-171489325D01*
X135897800Y-171470997D01*
X135863275Y-171452543D01*
X135831767Y-171440337D01*
X135777027Y-171406443D01*
X135716096Y-171373875D01*
X135690491Y-171352861D01*
X135666951Y-171338286D01*
X135614788Y-171290733D01*
X135556831Y-171243169D01*
X135539656Y-171222242D01*
X135523698Y-171207694D01*
X135477367Y-171146342D01*
X135426125Y-171083904D01*
X135416216Y-171065366D01*
X135406877Y-171052999D01*
X135369717Y-170978372D01*
X135329003Y-170902200D01*
X135324660Y-170887884D01*
X135320471Y-170879471D01*
X135295721Y-170792485D01*
X135269195Y-170705040D01*
X135268323Y-170696192D01*
X135267422Y-170693024D01*
X135258044Y-170591833D01*
X135249000Y-170500000D01*
X135258044Y-170408173D01*
X135267422Y-170306975D01*
X135268323Y-170303805D01*
X135269195Y-170294960D01*
X135295716Y-170207529D01*
X135320471Y-170120528D01*
X135324661Y-170112112D01*
X135329003Y-170097800D01*
X135369710Y-170021641D01*
X135406877Y-169947000D01*
X135416218Y-169934629D01*
X135426125Y-169916096D01*
X135477357Y-169853668D01*
X135523698Y-169792305D01*
X135539660Y-169777753D01*
X135556831Y-169756831D01*
X135614777Y-169709275D01*
X135666951Y-169661713D01*
X135690496Y-169647134D01*
X135716096Y-169626125D01*
X135777015Y-169593563D01*
X135831767Y-169559662D01*
X135863282Y-169547452D01*
X135897800Y-169529003D01*
X135958209Y-169510677D01*
X136012525Y-169489636D01*
X136051739Y-169482305D01*
X136094960Y-169469195D01*
X136151860Y-169463590D01*
X136203077Y-169454017D01*
X136249062Y-169454017D01*
X136300000Y-169449000D01*
X136350938Y-169454017D01*
G37*
G36*
X142850938Y-169454017D02*
G01*
X142896923Y-169454017D01*
X142948139Y-169463590D01*
X143005040Y-169469195D01*
X143048261Y-169482306D01*
X143087474Y-169489636D01*
X143141785Y-169510676D01*
X143202200Y-169529003D01*
X143236720Y-169547454D01*
X143268232Y-169559662D01*
X143322977Y-169593559D01*
X143383904Y-169626125D01*
X143409506Y-169647136D01*
X143433048Y-169661713D01*
X143485212Y-169709267D01*
X143543169Y-169756831D01*
X143560342Y-169777757D01*
X143576301Y-169792305D01*
X143622629Y-169853653D01*
X143673875Y-169916096D01*
X143683783Y-169934634D01*
X143693122Y-169947000D01*
X143730274Y-170021613D01*
X143770997Y-170097800D01*
X143775340Y-170112117D01*
X143779528Y-170120528D01*
X143804267Y-170207476D01*
X143830805Y-170294960D01*
X143831676Y-170303811D01*
X143832577Y-170306975D01*
X143841938Y-170408002D01*
X143851000Y-170500000D01*
X143841938Y-170592005D01*
X143832577Y-170693024D01*
X143831676Y-170696187D01*
X143830805Y-170705040D01*
X143804262Y-170792538D01*
X143779528Y-170879471D01*
X143775341Y-170887879D01*
X143770997Y-170902200D01*
X143730267Y-170978399D01*
X143693122Y-171052999D01*
X143683785Y-171065362D01*
X143673875Y-171083904D01*
X143622620Y-171146357D01*
X143576301Y-171207694D01*
X143560345Y-171222238D01*
X143543169Y-171243169D01*
X143485201Y-171290741D01*
X143433048Y-171338286D01*
X143409511Y-171352859D01*
X143383904Y-171373875D01*
X143322965Y-171406447D01*
X143268232Y-171440337D01*
X143236726Y-171452542D01*
X143202200Y-171470997D01*
X143141773Y-171489327D01*
X143087474Y-171510363D01*
X143048268Y-171517691D01*
X143005040Y-171530805D01*
X142948136Y-171536409D01*
X142896923Y-171545983D01*
X142850938Y-171545983D01*
X142800000Y-171551000D01*
X142749062Y-171545983D01*
X142703077Y-171545983D01*
X142651863Y-171536409D01*
X142594960Y-171530805D01*
X142551732Y-171517692D01*
X142512525Y-171510363D01*
X142458221Y-171489325D01*
X142397800Y-171470997D01*
X142363275Y-171452543D01*
X142331767Y-171440337D01*
X142277027Y-171406443D01*
X142216096Y-171373875D01*
X142190491Y-171352861D01*
X142166951Y-171338286D01*
X142114788Y-171290733D01*
X142056831Y-171243169D01*
X142039656Y-171222242D01*
X142023698Y-171207694D01*
X141977367Y-171146342D01*
X141926125Y-171083904D01*
X141916216Y-171065366D01*
X141906877Y-171052999D01*
X141869717Y-170978372D01*
X141829003Y-170902200D01*
X141824660Y-170887884D01*
X141820471Y-170879471D01*
X141795721Y-170792485D01*
X141769195Y-170705040D01*
X141768323Y-170696192D01*
X141767422Y-170693024D01*
X141758044Y-170591833D01*
X141749000Y-170500000D01*
X141758044Y-170408173D01*
X141767422Y-170306975D01*
X141768323Y-170303805D01*
X141769195Y-170294960D01*
X141795716Y-170207529D01*
X141820471Y-170120528D01*
X141824661Y-170112112D01*
X141829003Y-170097800D01*
X141869710Y-170021641D01*
X141906877Y-169947000D01*
X141916218Y-169934629D01*
X141926125Y-169916096D01*
X141977357Y-169853668D01*
X142023698Y-169792305D01*
X142039660Y-169777753D01*
X142056831Y-169756831D01*
X142114777Y-169709275D01*
X142166951Y-169661713D01*
X142190496Y-169647134D01*
X142216096Y-169626125D01*
X142277015Y-169593563D01*
X142331767Y-169559662D01*
X142363282Y-169547452D01*
X142397800Y-169529003D01*
X142458209Y-169510677D01*
X142512525Y-169489636D01*
X142551739Y-169482305D01*
X142594960Y-169469195D01*
X142651860Y-169463590D01*
X142703077Y-169454017D01*
X142749062Y-169454017D01*
X142800000Y-169449000D01*
X142850938Y-169454017D01*
G37*
G36*
X109503983Y-168483936D02*
G01*
X109554180Y-168483936D01*
X109597524Y-168493149D01*
X109635659Y-168496905D01*
X109683566Y-168511437D01*
X109738424Y-168523098D01*
X109773530Y-168538728D01*
X109804566Y-168548143D01*
X109853884Y-168574504D01*
X109910500Y-168599711D01*
X109936822Y-168618835D01*
X109960232Y-168631348D01*
X110007988Y-168670540D01*
X110062887Y-168710427D01*
X110080711Y-168730223D01*
X110096675Y-168743324D01*
X110139572Y-168795594D01*
X110188924Y-168850405D01*
X110199292Y-168868363D01*
X110208651Y-168879767D01*
X110243273Y-168944542D01*
X110283104Y-169013530D01*
X110287685Y-169027630D01*
X110291856Y-169035433D01*
X110314852Y-169111242D01*
X110341311Y-169192672D01*
X110342242Y-169201532D01*
X110343094Y-169204340D01*
X110351384Y-169288513D01*
X110361000Y-169380000D01*
X110351383Y-169471494D01*
X110343094Y-169555659D01*
X110342242Y-169558466D01*
X110341311Y-169567328D01*
X110314848Y-169648771D01*
X110291856Y-169724566D01*
X110287686Y-169732366D01*
X110283104Y-169746470D01*
X110243266Y-169815470D01*
X110208651Y-169880232D01*
X110199294Y-169891633D01*
X110188924Y-169909595D01*
X110139563Y-169964415D01*
X110096675Y-170016675D01*
X110080714Y-170029773D01*
X110062887Y-170049573D01*
X110007977Y-170089467D01*
X109960232Y-170128651D01*
X109936827Y-170141161D01*
X109910500Y-170160289D01*
X109853873Y-170185500D01*
X109804566Y-170211856D01*
X109773537Y-170221268D01*
X109738424Y-170236902D01*
X109683555Y-170248564D01*
X109635659Y-170263094D01*
X109597532Y-170266849D01*
X109554180Y-170276064D01*
X109503973Y-170276064D01*
X109460000Y-170280395D01*
X109416027Y-170276064D01*
X109365820Y-170276064D01*
X109322467Y-170266849D01*
X109284340Y-170263094D01*
X109236441Y-170248563D01*
X109181576Y-170236902D01*
X109146464Y-170221269D01*
X109115433Y-170211856D01*
X109066120Y-170185498D01*
X109009500Y-170160289D01*
X108983175Y-170141163D01*
X108959767Y-170128651D01*
X108912013Y-170089460D01*
X108857113Y-170049573D01*
X108839287Y-170029776D01*
X108823324Y-170016675D01*
X108780425Y-169964402D01*
X108731076Y-169909595D01*
X108720708Y-169891637D01*
X108711348Y-169880232D01*
X108676719Y-169815447D01*
X108636896Y-169746470D01*
X108632315Y-169732371D01*
X108628143Y-169724566D01*
X108605136Y-169648725D01*
X108578689Y-169567328D01*
X108577758Y-169558471D01*
X108576905Y-169555659D01*
X108568600Y-169471342D01*
X108559000Y-169380000D01*
X108568599Y-169288664D01*
X108576905Y-169204340D01*
X108577758Y-169201527D01*
X108578689Y-169192672D01*
X108605132Y-169111288D01*
X108628143Y-169035433D01*
X108632315Y-169027626D01*
X108636896Y-169013530D01*
X108676712Y-168944565D01*
X108711348Y-168879767D01*
X108720710Y-168868359D01*
X108731076Y-168850405D01*
X108780416Y-168795607D01*
X108823324Y-168743324D01*
X108839291Y-168730219D01*
X108857113Y-168710427D01*
X108912002Y-168670546D01*
X108959767Y-168631348D01*
X108983180Y-168618833D01*
X109009500Y-168599711D01*
X109066109Y-168574506D01*
X109115433Y-168548143D01*
X109146471Y-168538727D01*
X109181576Y-168523098D01*
X109236430Y-168511438D01*
X109284340Y-168496905D01*
X109322476Y-168493148D01*
X109365820Y-168483936D01*
X109416016Y-168483936D01*
X109460000Y-168479604D01*
X109503983Y-168483936D01*
G37*
G36*
X124743983Y-168483936D02*
G01*
X124794180Y-168483936D01*
X124837524Y-168493149D01*
X124875659Y-168496905D01*
X124923566Y-168511437D01*
X124978424Y-168523098D01*
X125013530Y-168538728D01*
X125044566Y-168548143D01*
X125093884Y-168574504D01*
X125150500Y-168599711D01*
X125176822Y-168618835D01*
X125200232Y-168631348D01*
X125247988Y-168670540D01*
X125302887Y-168710427D01*
X125320711Y-168730223D01*
X125336675Y-168743324D01*
X125379572Y-168795594D01*
X125428924Y-168850405D01*
X125439292Y-168868363D01*
X125448651Y-168879767D01*
X125483273Y-168944542D01*
X125523104Y-169013530D01*
X125527685Y-169027630D01*
X125531856Y-169035433D01*
X125554852Y-169111242D01*
X125581311Y-169192672D01*
X125582242Y-169201532D01*
X125583094Y-169204340D01*
X125591384Y-169288513D01*
X125601000Y-169380000D01*
X125591383Y-169471494D01*
X125583094Y-169555659D01*
X125582242Y-169558466D01*
X125581311Y-169567328D01*
X125554848Y-169648771D01*
X125531856Y-169724566D01*
X125527686Y-169732366D01*
X125523104Y-169746470D01*
X125483266Y-169815470D01*
X125448651Y-169880232D01*
X125439294Y-169891633D01*
X125428924Y-169909595D01*
X125379563Y-169964415D01*
X125336675Y-170016675D01*
X125320714Y-170029773D01*
X125302887Y-170049573D01*
X125247977Y-170089467D01*
X125200232Y-170128651D01*
X125176827Y-170141161D01*
X125150500Y-170160289D01*
X125093873Y-170185500D01*
X125044566Y-170211856D01*
X125013537Y-170221268D01*
X124978424Y-170236902D01*
X124923555Y-170248564D01*
X124875659Y-170263094D01*
X124837532Y-170266849D01*
X124794180Y-170276064D01*
X124743973Y-170276064D01*
X124700000Y-170280395D01*
X124656027Y-170276064D01*
X124605820Y-170276064D01*
X124562467Y-170266849D01*
X124524340Y-170263094D01*
X124476441Y-170248563D01*
X124421576Y-170236902D01*
X124386464Y-170221269D01*
X124355433Y-170211856D01*
X124306120Y-170185498D01*
X124249500Y-170160289D01*
X124223175Y-170141163D01*
X124199767Y-170128651D01*
X124152013Y-170089460D01*
X124097113Y-170049573D01*
X124079287Y-170029776D01*
X124063324Y-170016675D01*
X124020425Y-169964402D01*
X123971076Y-169909595D01*
X123960708Y-169891637D01*
X123951348Y-169880232D01*
X123916719Y-169815447D01*
X123876896Y-169746470D01*
X123872315Y-169732371D01*
X123868143Y-169724566D01*
X123845136Y-169648725D01*
X123818689Y-169567328D01*
X123817758Y-169558471D01*
X123816905Y-169555659D01*
X123808600Y-169471342D01*
X123799000Y-169380000D01*
X123808599Y-169288664D01*
X123816905Y-169204340D01*
X123817758Y-169201527D01*
X123818689Y-169192672D01*
X123845132Y-169111288D01*
X123868143Y-169035433D01*
X123872315Y-169027626D01*
X123876896Y-169013530D01*
X123916712Y-168944565D01*
X123951348Y-168879767D01*
X123960710Y-168868359D01*
X123971076Y-168850405D01*
X124020416Y-168795607D01*
X124063324Y-168743324D01*
X124079291Y-168730219D01*
X124097113Y-168710427D01*
X124152002Y-168670546D01*
X124199767Y-168631348D01*
X124223180Y-168618833D01*
X124249500Y-168599711D01*
X124306109Y-168574506D01*
X124355433Y-168548143D01*
X124386471Y-168538727D01*
X124421576Y-168523098D01*
X124476430Y-168511438D01*
X124524340Y-168496905D01*
X124562476Y-168493148D01*
X124605820Y-168483936D01*
X124656016Y-168483936D01*
X124700000Y-168479604D01*
X124743983Y-168483936D01*
G37*
G36*
X109503983Y-165943936D02*
G01*
X109554180Y-165943936D01*
X109597524Y-165953149D01*
X109635659Y-165956905D01*
X109683566Y-165971437D01*
X109738424Y-165983098D01*
X109773530Y-165998728D01*
X109804566Y-166008143D01*
X109853884Y-166034504D01*
X109910500Y-166059711D01*
X109936822Y-166078835D01*
X109960232Y-166091348D01*
X110007988Y-166130540D01*
X110062887Y-166170427D01*
X110080711Y-166190223D01*
X110096675Y-166203324D01*
X110139572Y-166255594D01*
X110188924Y-166310405D01*
X110199292Y-166328363D01*
X110208651Y-166339767D01*
X110243273Y-166404542D01*
X110283104Y-166473530D01*
X110287685Y-166487630D01*
X110291856Y-166495433D01*
X110314852Y-166571242D01*
X110341311Y-166652672D01*
X110342242Y-166661532D01*
X110343094Y-166664340D01*
X110351384Y-166748513D01*
X110361000Y-166840000D01*
X110351383Y-166931494D01*
X110343094Y-167015659D01*
X110342242Y-167018466D01*
X110341311Y-167027328D01*
X110314848Y-167108771D01*
X110291856Y-167184566D01*
X110287686Y-167192366D01*
X110283104Y-167206470D01*
X110243266Y-167275470D01*
X110208651Y-167340232D01*
X110199294Y-167351633D01*
X110188924Y-167369595D01*
X110139563Y-167424415D01*
X110096675Y-167476675D01*
X110080714Y-167489773D01*
X110062887Y-167509573D01*
X110007977Y-167549467D01*
X109960232Y-167588651D01*
X109936827Y-167601161D01*
X109910500Y-167620289D01*
X109853873Y-167645500D01*
X109804566Y-167671856D01*
X109773537Y-167681268D01*
X109738424Y-167696902D01*
X109683555Y-167708564D01*
X109635659Y-167723094D01*
X109597532Y-167726849D01*
X109554180Y-167736064D01*
X109503973Y-167736064D01*
X109460000Y-167740395D01*
X109416027Y-167736064D01*
X109365820Y-167736064D01*
X109322467Y-167726849D01*
X109284340Y-167723094D01*
X109236441Y-167708563D01*
X109181576Y-167696902D01*
X109146464Y-167681269D01*
X109115433Y-167671856D01*
X109066120Y-167645498D01*
X109009500Y-167620289D01*
X108983175Y-167601163D01*
X108959767Y-167588651D01*
X108912013Y-167549460D01*
X108857113Y-167509573D01*
X108839287Y-167489776D01*
X108823324Y-167476675D01*
X108780425Y-167424402D01*
X108731076Y-167369595D01*
X108720708Y-167351637D01*
X108711348Y-167340232D01*
X108676719Y-167275447D01*
X108636896Y-167206470D01*
X108632315Y-167192371D01*
X108628143Y-167184566D01*
X108605136Y-167108725D01*
X108578689Y-167027328D01*
X108577758Y-167018471D01*
X108576905Y-167015659D01*
X108568600Y-166931342D01*
X108559000Y-166840000D01*
X108568599Y-166748664D01*
X108576905Y-166664340D01*
X108577758Y-166661527D01*
X108578689Y-166652672D01*
X108605132Y-166571288D01*
X108628143Y-166495433D01*
X108632315Y-166487626D01*
X108636896Y-166473530D01*
X108676712Y-166404565D01*
X108711348Y-166339767D01*
X108720710Y-166328359D01*
X108731076Y-166310405D01*
X108780416Y-166255607D01*
X108823324Y-166203324D01*
X108839291Y-166190219D01*
X108857113Y-166170427D01*
X108912002Y-166130546D01*
X108959767Y-166091348D01*
X108983180Y-166078833D01*
X109009500Y-166059711D01*
X109066109Y-166034506D01*
X109115433Y-166008143D01*
X109146471Y-165998727D01*
X109181576Y-165983098D01*
X109236430Y-165971438D01*
X109284340Y-165956905D01*
X109322476Y-165953148D01*
X109365820Y-165943936D01*
X109416016Y-165943936D01*
X109460000Y-165939604D01*
X109503983Y-165943936D01*
G37*
G36*
X124743983Y-165943936D02*
G01*
X124794180Y-165943936D01*
X124837524Y-165953149D01*
X124875659Y-165956905D01*
X124923566Y-165971437D01*
X124978424Y-165983098D01*
X125013530Y-165998728D01*
X125044566Y-166008143D01*
X125093884Y-166034504D01*
X125150500Y-166059711D01*
X125176822Y-166078835D01*
X125200232Y-166091348D01*
X125247988Y-166130540D01*
X125302887Y-166170427D01*
X125320711Y-166190223D01*
X125336675Y-166203324D01*
X125379572Y-166255594D01*
X125428924Y-166310405D01*
X125439292Y-166328363D01*
X125448651Y-166339767D01*
X125483273Y-166404542D01*
X125523104Y-166473530D01*
X125527685Y-166487630D01*
X125531856Y-166495433D01*
X125554852Y-166571242D01*
X125581311Y-166652672D01*
X125582242Y-166661532D01*
X125583094Y-166664340D01*
X125591384Y-166748513D01*
X125601000Y-166840000D01*
X125591383Y-166931494D01*
X125583094Y-167015659D01*
X125582242Y-167018466D01*
X125581311Y-167027328D01*
X125554848Y-167108771D01*
X125531856Y-167184566D01*
X125527686Y-167192366D01*
X125523104Y-167206470D01*
X125483266Y-167275470D01*
X125448651Y-167340232D01*
X125439294Y-167351633D01*
X125428924Y-167369595D01*
X125379563Y-167424415D01*
X125336675Y-167476675D01*
X125320714Y-167489773D01*
X125302887Y-167509573D01*
X125247977Y-167549467D01*
X125200232Y-167588651D01*
X125176827Y-167601161D01*
X125150500Y-167620289D01*
X125093873Y-167645500D01*
X125044566Y-167671856D01*
X125013537Y-167681268D01*
X124978424Y-167696902D01*
X124923555Y-167708564D01*
X124875659Y-167723094D01*
X124837532Y-167726849D01*
X124794180Y-167736064D01*
X124743973Y-167736064D01*
X124700000Y-167740395D01*
X124656027Y-167736064D01*
X124605820Y-167736064D01*
X124562467Y-167726849D01*
X124524340Y-167723094D01*
X124476441Y-167708563D01*
X124421576Y-167696902D01*
X124386464Y-167681269D01*
X124355433Y-167671856D01*
X124306120Y-167645498D01*
X124249500Y-167620289D01*
X124223175Y-167601163D01*
X124199767Y-167588651D01*
X124152013Y-167549460D01*
X124097113Y-167509573D01*
X124079287Y-167489776D01*
X124063324Y-167476675D01*
X124020425Y-167424402D01*
X123971076Y-167369595D01*
X123960708Y-167351637D01*
X123951348Y-167340232D01*
X123916719Y-167275447D01*
X123876896Y-167206470D01*
X123872315Y-167192371D01*
X123868143Y-167184566D01*
X123845136Y-167108725D01*
X123818689Y-167027328D01*
X123817758Y-167018471D01*
X123816905Y-167015659D01*
X123808600Y-166931342D01*
X123799000Y-166840000D01*
X123808599Y-166748664D01*
X123816905Y-166664340D01*
X123817758Y-166661527D01*
X123818689Y-166652672D01*
X123845132Y-166571288D01*
X123868143Y-166495433D01*
X123872315Y-166487626D01*
X123876896Y-166473530D01*
X123916712Y-166404565D01*
X123951348Y-166339767D01*
X123960710Y-166328359D01*
X123971076Y-166310405D01*
X124020416Y-166255607D01*
X124063324Y-166203324D01*
X124079291Y-166190219D01*
X124097113Y-166170427D01*
X124152002Y-166130546D01*
X124199767Y-166091348D01*
X124223180Y-166078833D01*
X124249500Y-166059711D01*
X124306109Y-166034506D01*
X124355433Y-166008143D01*
X124386471Y-165998727D01*
X124421576Y-165983098D01*
X124476430Y-165971438D01*
X124524340Y-165956905D01*
X124562476Y-165953148D01*
X124605820Y-165943936D01*
X124656016Y-165943936D01*
X124700000Y-165939604D01*
X124743983Y-165943936D01*
G37*
G36*
X78650938Y-165254017D02*
G01*
X78696923Y-165254017D01*
X78748139Y-165263590D01*
X78805040Y-165269195D01*
X78848261Y-165282306D01*
X78887474Y-165289636D01*
X78941785Y-165310676D01*
X79002200Y-165329003D01*
X79036720Y-165347454D01*
X79068232Y-165359662D01*
X79122977Y-165393559D01*
X79183904Y-165426125D01*
X79209506Y-165447136D01*
X79233048Y-165461713D01*
X79285212Y-165509267D01*
X79343169Y-165556831D01*
X79360342Y-165577757D01*
X79376301Y-165592305D01*
X79422629Y-165653653D01*
X79473875Y-165716096D01*
X79483783Y-165734634D01*
X79493122Y-165747000D01*
X79530274Y-165821613D01*
X79570997Y-165897800D01*
X79575340Y-165912117D01*
X79579528Y-165920528D01*
X79604267Y-166007476D01*
X79630805Y-166094960D01*
X79631676Y-166103811D01*
X79632577Y-166106975D01*
X79641938Y-166208002D01*
X79651000Y-166300000D01*
X79641938Y-166392005D01*
X79632577Y-166493024D01*
X79631676Y-166496187D01*
X79630805Y-166505040D01*
X79604262Y-166592538D01*
X79579528Y-166679471D01*
X79575341Y-166687879D01*
X79570997Y-166702200D01*
X79530267Y-166778399D01*
X79493122Y-166852999D01*
X79483785Y-166865362D01*
X79473875Y-166883904D01*
X79422620Y-166946357D01*
X79376301Y-167007694D01*
X79360345Y-167022238D01*
X79343169Y-167043169D01*
X79285201Y-167090741D01*
X79233048Y-167138286D01*
X79209511Y-167152859D01*
X79183904Y-167173875D01*
X79122965Y-167206447D01*
X79068232Y-167240337D01*
X79036726Y-167252542D01*
X79002200Y-167270997D01*
X78941773Y-167289327D01*
X78887474Y-167310363D01*
X78848268Y-167317691D01*
X78805040Y-167330805D01*
X78748136Y-167336409D01*
X78696923Y-167345983D01*
X78650938Y-167345983D01*
X78600000Y-167351000D01*
X78549062Y-167345983D01*
X78503077Y-167345983D01*
X78451863Y-167336409D01*
X78394960Y-167330805D01*
X78351732Y-167317692D01*
X78312525Y-167310363D01*
X78258221Y-167289325D01*
X78197800Y-167270997D01*
X78163275Y-167252543D01*
X78131767Y-167240337D01*
X78077027Y-167206443D01*
X78016096Y-167173875D01*
X77990491Y-167152861D01*
X77966951Y-167138286D01*
X77914788Y-167090733D01*
X77856831Y-167043169D01*
X77839656Y-167022242D01*
X77823698Y-167007694D01*
X77777367Y-166946342D01*
X77726125Y-166883904D01*
X77716216Y-166865366D01*
X77706877Y-166852999D01*
X77669717Y-166778372D01*
X77629003Y-166702200D01*
X77624660Y-166687884D01*
X77620471Y-166679471D01*
X77595721Y-166592485D01*
X77569195Y-166505040D01*
X77568323Y-166496192D01*
X77567422Y-166493024D01*
X77558044Y-166391833D01*
X77549000Y-166300000D01*
X77558044Y-166208173D01*
X77567422Y-166106975D01*
X77568323Y-166103805D01*
X77569195Y-166094960D01*
X77595716Y-166007529D01*
X77620471Y-165920528D01*
X77624661Y-165912112D01*
X77629003Y-165897800D01*
X77669710Y-165821641D01*
X77706877Y-165747000D01*
X77716218Y-165734629D01*
X77726125Y-165716096D01*
X77777357Y-165653668D01*
X77823698Y-165592305D01*
X77839660Y-165577753D01*
X77856831Y-165556831D01*
X77914777Y-165509275D01*
X77966951Y-165461713D01*
X77990496Y-165447134D01*
X78016096Y-165426125D01*
X78077015Y-165393563D01*
X78131767Y-165359662D01*
X78163282Y-165347452D01*
X78197800Y-165329003D01*
X78258209Y-165310677D01*
X78312525Y-165289636D01*
X78351739Y-165282305D01*
X78394960Y-165269195D01*
X78451860Y-165263590D01*
X78503077Y-165254017D01*
X78549062Y-165254017D01*
X78600000Y-165249000D01*
X78650938Y-165254017D01*
G37*
G36*
X85150938Y-165254017D02*
G01*
X85196923Y-165254017D01*
X85248139Y-165263590D01*
X85305040Y-165269195D01*
X85348261Y-165282306D01*
X85387474Y-165289636D01*
X85441785Y-165310676D01*
X85502200Y-165329003D01*
X85536720Y-165347454D01*
X85568232Y-165359662D01*
X85622977Y-165393559D01*
X85683904Y-165426125D01*
X85709506Y-165447136D01*
X85733048Y-165461713D01*
X85785212Y-165509267D01*
X85843169Y-165556831D01*
X85860342Y-165577757D01*
X85876301Y-165592305D01*
X85922629Y-165653653D01*
X85973875Y-165716096D01*
X85983783Y-165734634D01*
X85993122Y-165747000D01*
X86030274Y-165821613D01*
X86070997Y-165897800D01*
X86075340Y-165912117D01*
X86079528Y-165920528D01*
X86104267Y-166007476D01*
X86130805Y-166094960D01*
X86131676Y-166103811D01*
X86132577Y-166106975D01*
X86141938Y-166208002D01*
X86151000Y-166300000D01*
X86141938Y-166392005D01*
X86132577Y-166493024D01*
X86131676Y-166496187D01*
X86130805Y-166505040D01*
X86104262Y-166592538D01*
X86079528Y-166679471D01*
X86075341Y-166687879D01*
X86070997Y-166702200D01*
X86030267Y-166778399D01*
X85993122Y-166852999D01*
X85983785Y-166865362D01*
X85973875Y-166883904D01*
X85922620Y-166946357D01*
X85876301Y-167007694D01*
X85860345Y-167022238D01*
X85843169Y-167043169D01*
X85785201Y-167090741D01*
X85733048Y-167138286D01*
X85709511Y-167152859D01*
X85683904Y-167173875D01*
X85622965Y-167206447D01*
X85568232Y-167240337D01*
X85536726Y-167252542D01*
X85502200Y-167270997D01*
X85441773Y-167289327D01*
X85387474Y-167310363D01*
X85348268Y-167317691D01*
X85305040Y-167330805D01*
X85248136Y-167336409D01*
X85196923Y-167345983D01*
X85150938Y-167345983D01*
X85100000Y-167351000D01*
X85049062Y-167345983D01*
X85003077Y-167345983D01*
X84951863Y-167336409D01*
X84894960Y-167330805D01*
X84851732Y-167317692D01*
X84812525Y-167310363D01*
X84758221Y-167289325D01*
X84697800Y-167270997D01*
X84663275Y-167252543D01*
X84631767Y-167240337D01*
X84577027Y-167206443D01*
X84516096Y-167173875D01*
X84490491Y-167152861D01*
X84466951Y-167138286D01*
X84414788Y-167090733D01*
X84356831Y-167043169D01*
X84339656Y-167022242D01*
X84323698Y-167007694D01*
X84277367Y-166946342D01*
X84226125Y-166883904D01*
X84216216Y-166865366D01*
X84206877Y-166852999D01*
X84169717Y-166778372D01*
X84129003Y-166702200D01*
X84124660Y-166687884D01*
X84120471Y-166679471D01*
X84095721Y-166592485D01*
X84069195Y-166505040D01*
X84068323Y-166496192D01*
X84067422Y-166493024D01*
X84058044Y-166391833D01*
X84049000Y-166300000D01*
X84058044Y-166208173D01*
X84067422Y-166106975D01*
X84068323Y-166103805D01*
X84069195Y-166094960D01*
X84095716Y-166007529D01*
X84120471Y-165920528D01*
X84124661Y-165912112D01*
X84129003Y-165897800D01*
X84169710Y-165821641D01*
X84206877Y-165747000D01*
X84216218Y-165734629D01*
X84226125Y-165716096D01*
X84277357Y-165653668D01*
X84323698Y-165592305D01*
X84339660Y-165577753D01*
X84356831Y-165556831D01*
X84414777Y-165509275D01*
X84466951Y-165461713D01*
X84490496Y-165447134D01*
X84516096Y-165426125D01*
X84577015Y-165393563D01*
X84631767Y-165359662D01*
X84663282Y-165347452D01*
X84697800Y-165329003D01*
X84758209Y-165310677D01*
X84812525Y-165289636D01*
X84851739Y-165282305D01*
X84894960Y-165269195D01*
X84951860Y-165263590D01*
X85003077Y-165254017D01*
X85049062Y-165254017D01*
X85100000Y-165249000D01*
X85150938Y-165254017D01*
G37*
G36*
X95450938Y-165254017D02*
G01*
X95496923Y-165254017D01*
X95548139Y-165263590D01*
X95605040Y-165269195D01*
X95648261Y-165282306D01*
X95687474Y-165289636D01*
X95741785Y-165310676D01*
X95802200Y-165329003D01*
X95836720Y-165347454D01*
X95868232Y-165359662D01*
X95922977Y-165393559D01*
X95983904Y-165426125D01*
X96009506Y-165447136D01*
X96033048Y-165461713D01*
X96085212Y-165509267D01*
X96143169Y-165556831D01*
X96160342Y-165577757D01*
X96176301Y-165592305D01*
X96222629Y-165653653D01*
X96273875Y-165716096D01*
X96283783Y-165734634D01*
X96293122Y-165747000D01*
X96330274Y-165821613D01*
X96370997Y-165897800D01*
X96375340Y-165912117D01*
X96379528Y-165920528D01*
X96404267Y-166007476D01*
X96430805Y-166094960D01*
X96431676Y-166103811D01*
X96432577Y-166106975D01*
X96441938Y-166208002D01*
X96451000Y-166300000D01*
X96441938Y-166392005D01*
X96432577Y-166493024D01*
X96431676Y-166496187D01*
X96430805Y-166505040D01*
X96404262Y-166592538D01*
X96379528Y-166679471D01*
X96375341Y-166687879D01*
X96370997Y-166702200D01*
X96330267Y-166778399D01*
X96293122Y-166852999D01*
X96283785Y-166865362D01*
X96273875Y-166883904D01*
X96222620Y-166946357D01*
X96176301Y-167007694D01*
X96160345Y-167022238D01*
X96143169Y-167043169D01*
X96085201Y-167090741D01*
X96033048Y-167138286D01*
X96009511Y-167152859D01*
X95983904Y-167173875D01*
X95922965Y-167206447D01*
X95868232Y-167240337D01*
X95836726Y-167252542D01*
X95802200Y-167270997D01*
X95741773Y-167289327D01*
X95687474Y-167310363D01*
X95648268Y-167317691D01*
X95605040Y-167330805D01*
X95548136Y-167336409D01*
X95496923Y-167345983D01*
X95450938Y-167345983D01*
X95400000Y-167351000D01*
X95349062Y-167345983D01*
X95303077Y-167345983D01*
X95251863Y-167336409D01*
X95194960Y-167330805D01*
X95151732Y-167317692D01*
X95112525Y-167310363D01*
X95058221Y-167289325D01*
X94997800Y-167270997D01*
X94963275Y-167252543D01*
X94931767Y-167240337D01*
X94877027Y-167206443D01*
X94816096Y-167173875D01*
X94790491Y-167152861D01*
X94766951Y-167138286D01*
X94714788Y-167090733D01*
X94656831Y-167043169D01*
X94639656Y-167022242D01*
X94623698Y-167007694D01*
X94577367Y-166946342D01*
X94526125Y-166883904D01*
X94516216Y-166865366D01*
X94506877Y-166852999D01*
X94469717Y-166778372D01*
X94429003Y-166702200D01*
X94424660Y-166687884D01*
X94420471Y-166679471D01*
X94395721Y-166592485D01*
X94369195Y-166505040D01*
X94368323Y-166496192D01*
X94367422Y-166493024D01*
X94358044Y-166391833D01*
X94349000Y-166300000D01*
X94358044Y-166208173D01*
X94367422Y-166106975D01*
X94368323Y-166103805D01*
X94369195Y-166094960D01*
X94395716Y-166007529D01*
X94420471Y-165920528D01*
X94424661Y-165912112D01*
X94429003Y-165897800D01*
X94469710Y-165821641D01*
X94506877Y-165747000D01*
X94516218Y-165734629D01*
X94526125Y-165716096D01*
X94577357Y-165653668D01*
X94623698Y-165592305D01*
X94639660Y-165577753D01*
X94656831Y-165556831D01*
X94714777Y-165509275D01*
X94766951Y-165461713D01*
X94790496Y-165447134D01*
X94816096Y-165426125D01*
X94877015Y-165393563D01*
X94931767Y-165359662D01*
X94963282Y-165347452D01*
X94997800Y-165329003D01*
X95058209Y-165310677D01*
X95112525Y-165289636D01*
X95151739Y-165282305D01*
X95194960Y-165269195D01*
X95251860Y-165263590D01*
X95303077Y-165254017D01*
X95349062Y-165254017D01*
X95400000Y-165249000D01*
X95450938Y-165254017D01*
G37*
G36*
X101950938Y-165254017D02*
G01*
X101996923Y-165254017D01*
X102048139Y-165263590D01*
X102105040Y-165269195D01*
X102148261Y-165282306D01*
X102187474Y-165289636D01*
X102241785Y-165310676D01*
X102302200Y-165329003D01*
X102336720Y-165347454D01*
X102368232Y-165359662D01*
X102422977Y-165393559D01*
X102483904Y-165426125D01*
X102509506Y-165447136D01*
X102533048Y-165461713D01*
X102585212Y-165509267D01*
X102643169Y-165556831D01*
X102660342Y-165577757D01*
X102676301Y-165592305D01*
X102722629Y-165653653D01*
X102773875Y-165716096D01*
X102783783Y-165734634D01*
X102793122Y-165747000D01*
X102830274Y-165821613D01*
X102870997Y-165897800D01*
X102875340Y-165912117D01*
X102879528Y-165920528D01*
X102904267Y-166007476D01*
X102930805Y-166094960D01*
X102931676Y-166103811D01*
X102932577Y-166106975D01*
X102941938Y-166208002D01*
X102951000Y-166300000D01*
X102941938Y-166392005D01*
X102932577Y-166493024D01*
X102931676Y-166496187D01*
X102930805Y-166505040D01*
X102904262Y-166592538D01*
X102879528Y-166679471D01*
X102875341Y-166687879D01*
X102870997Y-166702200D01*
X102830267Y-166778399D01*
X102793122Y-166852999D01*
X102783785Y-166865362D01*
X102773875Y-166883904D01*
X102722620Y-166946357D01*
X102676301Y-167007694D01*
X102660345Y-167022238D01*
X102643169Y-167043169D01*
X102585201Y-167090741D01*
X102533048Y-167138286D01*
X102509511Y-167152859D01*
X102483904Y-167173875D01*
X102422965Y-167206447D01*
X102368232Y-167240337D01*
X102336726Y-167252542D01*
X102302200Y-167270997D01*
X102241773Y-167289327D01*
X102187474Y-167310363D01*
X102148268Y-167317691D01*
X102105040Y-167330805D01*
X102048136Y-167336409D01*
X101996923Y-167345983D01*
X101950938Y-167345983D01*
X101900000Y-167351000D01*
X101849062Y-167345983D01*
X101803077Y-167345983D01*
X101751863Y-167336409D01*
X101694960Y-167330805D01*
X101651732Y-167317692D01*
X101612525Y-167310363D01*
X101558221Y-167289325D01*
X101497800Y-167270997D01*
X101463275Y-167252543D01*
X101431767Y-167240337D01*
X101377027Y-167206443D01*
X101316096Y-167173875D01*
X101290491Y-167152861D01*
X101266951Y-167138286D01*
X101214788Y-167090733D01*
X101156831Y-167043169D01*
X101139656Y-167022242D01*
X101123698Y-167007694D01*
X101077367Y-166946342D01*
X101026125Y-166883904D01*
X101016216Y-166865366D01*
X101006877Y-166852999D01*
X100969717Y-166778372D01*
X100929003Y-166702200D01*
X100924660Y-166687884D01*
X100920471Y-166679471D01*
X100895721Y-166592485D01*
X100869195Y-166505040D01*
X100868323Y-166496192D01*
X100867422Y-166493024D01*
X100858044Y-166391833D01*
X100849000Y-166300000D01*
X100858044Y-166208173D01*
X100867422Y-166106975D01*
X100868323Y-166103805D01*
X100869195Y-166094960D01*
X100895716Y-166007529D01*
X100920471Y-165920528D01*
X100924661Y-165912112D01*
X100929003Y-165897800D01*
X100969710Y-165821641D01*
X101006877Y-165747000D01*
X101016218Y-165734629D01*
X101026125Y-165716096D01*
X101077357Y-165653668D01*
X101123698Y-165592305D01*
X101139660Y-165577753D01*
X101156831Y-165556831D01*
X101214777Y-165509275D01*
X101266951Y-165461713D01*
X101290496Y-165447134D01*
X101316096Y-165426125D01*
X101377015Y-165393563D01*
X101431767Y-165359662D01*
X101463282Y-165347452D01*
X101497800Y-165329003D01*
X101558209Y-165310677D01*
X101612525Y-165289636D01*
X101651739Y-165282305D01*
X101694960Y-165269195D01*
X101751860Y-165263590D01*
X101803077Y-165254017D01*
X101849062Y-165254017D01*
X101900000Y-165249000D01*
X101950938Y-165254017D01*
G37*
G36*
X136350938Y-164954017D02*
G01*
X136396923Y-164954017D01*
X136448139Y-164963590D01*
X136505040Y-164969195D01*
X136548261Y-164982306D01*
X136587474Y-164989636D01*
X136641785Y-165010676D01*
X136702200Y-165029003D01*
X136736720Y-165047454D01*
X136768232Y-165059662D01*
X136822977Y-165093559D01*
X136883904Y-165126125D01*
X136909506Y-165147136D01*
X136933048Y-165161713D01*
X136985212Y-165209267D01*
X137043169Y-165256831D01*
X137060342Y-165277757D01*
X137076301Y-165292305D01*
X137122629Y-165353653D01*
X137173875Y-165416096D01*
X137183783Y-165434634D01*
X137193122Y-165447000D01*
X137230274Y-165521613D01*
X137270997Y-165597800D01*
X137275340Y-165612117D01*
X137279528Y-165620528D01*
X137304267Y-165707476D01*
X137330805Y-165794960D01*
X137331676Y-165803811D01*
X137332577Y-165806975D01*
X137341938Y-165908002D01*
X137351000Y-166000000D01*
X137341938Y-166092005D01*
X137332577Y-166193024D01*
X137331676Y-166196187D01*
X137330805Y-166205040D01*
X137304262Y-166292538D01*
X137279528Y-166379471D01*
X137275341Y-166387879D01*
X137270997Y-166402200D01*
X137230267Y-166478399D01*
X137193122Y-166552999D01*
X137183785Y-166565362D01*
X137173875Y-166583904D01*
X137122620Y-166646357D01*
X137076301Y-166707694D01*
X137060345Y-166722238D01*
X137043169Y-166743169D01*
X136985201Y-166790741D01*
X136933048Y-166838286D01*
X136909511Y-166852859D01*
X136883904Y-166873875D01*
X136822965Y-166906447D01*
X136768232Y-166940337D01*
X136736726Y-166952542D01*
X136702200Y-166970997D01*
X136641773Y-166989327D01*
X136587474Y-167010363D01*
X136548268Y-167017691D01*
X136505040Y-167030805D01*
X136448136Y-167036409D01*
X136396923Y-167045983D01*
X136350938Y-167045983D01*
X136300000Y-167051000D01*
X136249062Y-167045983D01*
X136203077Y-167045983D01*
X136151863Y-167036409D01*
X136094960Y-167030805D01*
X136051732Y-167017692D01*
X136012525Y-167010363D01*
X135958221Y-166989325D01*
X135897800Y-166970997D01*
X135863275Y-166952543D01*
X135831767Y-166940337D01*
X135777027Y-166906443D01*
X135716096Y-166873875D01*
X135690491Y-166852861D01*
X135666951Y-166838286D01*
X135614788Y-166790733D01*
X135556831Y-166743169D01*
X135539656Y-166722242D01*
X135523698Y-166707694D01*
X135477367Y-166646342D01*
X135426125Y-166583904D01*
X135416216Y-166565366D01*
X135406877Y-166552999D01*
X135369717Y-166478372D01*
X135329003Y-166402200D01*
X135324660Y-166387884D01*
X135320471Y-166379471D01*
X135295721Y-166292485D01*
X135269195Y-166205040D01*
X135268323Y-166196192D01*
X135267422Y-166193024D01*
X135258044Y-166091833D01*
X135249000Y-166000000D01*
X135258044Y-165908173D01*
X135267422Y-165806975D01*
X135268323Y-165803805D01*
X135269195Y-165794960D01*
X135295716Y-165707529D01*
X135320471Y-165620528D01*
X135324661Y-165612112D01*
X135329003Y-165597800D01*
X135369710Y-165521641D01*
X135406877Y-165447000D01*
X135416218Y-165434629D01*
X135426125Y-165416096D01*
X135477357Y-165353668D01*
X135523698Y-165292305D01*
X135539660Y-165277753D01*
X135556831Y-165256831D01*
X135614777Y-165209275D01*
X135666951Y-165161713D01*
X135690496Y-165147134D01*
X135716096Y-165126125D01*
X135777015Y-165093563D01*
X135831767Y-165059662D01*
X135863282Y-165047452D01*
X135897800Y-165029003D01*
X135958209Y-165010677D01*
X136012525Y-164989636D01*
X136051739Y-164982305D01*
X136094960Y-164969195D01*
X136151860Y-164963590D01*
X136203077Y-164954017D01*
X136249062Y-164954017D01*
X136300000Y-164949000D01*
X136350938Y-164954017D01*
G37*
G36*
X142850938Y-164954017D02*
G01*
X142896923Y-164954017D01*
X142948139Y-164963590D01*
X143005040Y-164969195D01*
X143048261Y-164982306D01*
X143087474Y-164989636D01*
X143141785Y-165010676D01*
X143202200Y-165029003D01*
X143236720Y-165047454D01*
X143268232Y-165059662D01*
X143322977Y-165093559D01*
X143383904Y-165126125D01*
X143409506Y-165147136D01*
X143433048Y-165161713D01*
X143485212Y-165209267D01*
X143543169Y-165256831D01*
X143560342Y-165277757D01*
X143576301Y-165292305D01*
X143622629Y-165353653D01*
X143673875Y-165416096D01*
X143683783Y-165434634D01*
X143693122Y-165447000D01*
X143730274Y-165521613D01*
X143770997Y-165597800D01*
X143775340Y-165612117D01*
X143779528Y-165620528D01*
X143804267Y-165707476D01*
X143830805Y-165794960D01*
X143831676Y-165803811D01*
X143832577Y-165806975D01*
X143841938Y-165908002D01*
X143851000Y-166000000D01*
X143841938Y-166092005D01*
X143832577Y-166193024D01*
X143831676Y-166196187D01*
X143830805Y-166205040D01*
X143804262Y-166292538D01*
X143779528Y-166379471D01*
X143775341Y-166387879D01*
X143770997Y-166402200D01*
X143730267Y-166478399D01*
X143693122Y-166552999D01*
X143683785Y-166565362D01*
X143673875Y-166583904D01*
X143622620Y-166646357D01*
X143576301Y-166707694D01*
X143560345Y-166722238D01*
X143543169Y-166743169D01*
X143485201Y-166790741D01*
X143433048Y-166838286D01*
X143409511Y-166852859D01*
X143383904Y-166873875D01*
X143322965Y-166906447D01*
X143268232Y-166940337D01*
X143236726Y-166952542D01*
X143202200Y-166970997D01*
X143141773Y-166989327D01*
X143087474Y-167010363D01*
X143048268Y-167017691D01*
X143005040Y-167030805D01*
X142948136Y-167036409D01*
X142896923Y-167045983D01*
X142850938Y-167045983D01*
X142800000Y-167051000D01*
X142749062Y-167045983D01*
X142703077Y-167045983D01*
X142651863Y-167036409D01*
X142594960Y-167030805D01*
X142551732Y-167017692D01*
X142512525Y-167010363D01*
X142458221Y-166989325D01*
X142397800Y-166970997D01*
X142363275Y-166952543D01*
X142331767Y-166940337D01*
X142277027Y-166906443D01*
X142216096Y-166873875D01*
X142190491Y-166852861D01*
X142166951Y-166838286D01*
X142114788Y-166790733D01*
X142056831Y-166743169D01*
X142039656Y-166722242D01*
X142023698Y-166707694D01*
X141977367Y-166646342D01*
X141926125Y-166583904D01*
X141916216Y-166565366D01*
X141906877Y-166552999D01*
X141869717Y-166478372D01*
X141829003Y-166402200D01*
X141824660Y-166387884D01*
X141820471Y-166379471D01*
X141795721Y-166292485D01*
X141769195Y-166205040D01*
X141768323Y-166196192D01*
X141767422Y-166193024D01*
X141758044Y-166091833D01*
X141749000Y-166000000D01*
X141758044Y-165908173D01*
X141767422Y-165806975D01*
X141768323Y-165803805D01*
X141769195Y-165794960D01*
X141795716Y-165707529D01*
X141820471Y-165620528D01*
X141824661Y-165612112D01*
X141829003Y-165597800D01*
X141869710Y-165521641D01*
X141906877Y-165447000D01*
X141916218Y-165434629D01*
X141926125Y-165416096D01*
X141977357Y-165353668D01*
X142023698Y-165292305D01*
X142039660Y-165277753D01*
X142056831Y-165256831D01*
X142114777Y-165209275D01*
X142166951Y-165161713D01*
X142190496Y-165147134D01*
X142216096Y-165126125D01*
X142277015Y-165093563D01*
X142331767Y-165059662D01*
X142363282Y-165047452D01*
X142397800Y-165029003D01*
X142458209Y-165010677D01*
X142512525Y-164989636D01*
X142551739Y-164982305D01*
X142594960Y-164969195D01*
X142651860Y-164963590D01*
X142703077Y-164954017D01*
X142749062Y-164954017D01*
X142800000Y-164949000D01*
X142850938Y-164954017D01*
G37*
G36*
X109503983Y-163403936D02*
G01*
X109554180Y-163403936D01*
X109597524Y-163413149D01*
X109635659Y-163416905D01*
X109683566Y-163431437D01*
X109738424Y-163443098D01*
X109773530Y-163458728D01*
X109804566Y-163468143D01*
X109853884Y-163494504D01*
X109910500Y-163519711D01*
X109936822Y-163538835D01*
X109960232Y-163551348D01*
X110007988Y-163590540D01*
X110062887Y-163630427D01*
X110080711Y-163650223D01*
X110096675Y-163663324D01*
X110139572Y-163715594D01*
X110188924Y-163770405D01*
X110199292Y-163788363D01*
X110208651Y-163799767D01*
X110243273Y-163864542D01*
X110283104Y-163933530D01*
X110287685Y-163947630D01*
X110291856Y-163955433D01*
X110314852Y-164031242D01*
X110341311Y-164112672D01*
X110342242Y-164121532D01*
X110343094Y-164124340D01*
X110351384Y-164208513D01*
X110361000Y-164300000D01*
X110351383Y-164391494D01*
X110343094Y-164475659D01*
X110342242Y-164478466D01*
X110341311Y-164487328D01*
X110314848Y-164568771D01*
X110291856Y-164644566D01*
X110287686Y-164652366D01*
X110283104Y-164666470D01*
X110243266Y-164735470D01*
X110208651Y-164800232D01*
X110199294Y-164811633D01*
X110188924Y-164829595D01*
X110139563Y-164884415D01*
X110096675Y-164936675D01*
X110080714Y-164949773D01*
X110062887Y-164969573D01*
X110007977Y-165009467D01*
X109960232Y-165048651D01*
X109936827Y-165061161D01*
X109910500Y-165080289D01*
X109853873Y-165105500D01*
X109804566Y-165131856D01*
X109773537Y-165141268D01*
X109738424Y-165156902D01*
X109683555Y-165168564D01*
X109635659Y-165183094D01*
X109597532Y-165186849D01*
X109554180Y-165196064D01*
X109503973Y-165196064D01*
X109460000Y-165200395D01*
X109416027Y-165196064D01*
X109365820Y-165196064D01*
X109322467Y-165186849D01*
X109284340Y-165183094D01*
X109236441Y-165168563D01*
X109181576Y-165156902D01*
X109146464Y-165141269D01*
X109115433Y-165131856D01*
X109066120Y-165105498D01*
X109009500Y-165080289D01*
X108983175Y-165061163D01*
X108959767Y-165048651D01*
X108912013Y-165009460D01*
X108857113Y-164969573D01*
X108839287Y-164949776D01*
X108823324Y-164936675D01*
X108780425Y-164884402D01*
X108731076Y-164829595D01*
X108720708Y-164811637D01*
X108711348Y-164800232D01*
X108676719Y-164735447D01*
X108636896Y-164666470D01*
X108632315Y-164652371D01*
X108628143Y-164644566D01*
X108605136Y-164568725D01*
X108578689Y-164487328D01*
X108577758Y-164478471D01*
X108576905Y-164475659D01*
X108568600Y-164391342D01*
X108559000Y-164300000D01*
X108568599Y-164208664D01*
X108576905Y-164124340D01*
X108577758Y-164121527D01*
X108578689Y-164112672D01*
X108605132Y-164031288D01*
X108628143Y-163955433D01*
X108632315Y-163947626D01*
X108636896Y-163933530D01*
X108676712Y-163864565D01*
X108711348Y-163799767D01*
X108720710Y-163788359D01*
X108731076Y-163770405D01*
X108780416Y-163715607D01*
X108823324Y-163663324D01*
X108839291Y-163650219D01*
X108857113Y-163630427D01*
X108912002Y-163590546D01*
X108959767Y-163551348D01*
X108983180Y-163538833D01*
X109009500Y-163519711D01*
X109066109Y-163494506D01*
X109115433Y-163468143D01*
X109146471Y-163458727D01*
X109181576Y-163443098D01*
X109236430Y-163431438D01*
X109284340Y-163416905D01*
X109322476Y-163413148D01*
X109365820Y-163403936D01*
X109416016Y-163403936D01*
X109460000Y-163399604D01*
X109503983Y-163403936D01*
G37*
G36*
X124743983Y-163403936D02*
G01*
X124794180Y-163403936D01*
X124837524Y-163413149D01*
X124875659Y-163416905D01*
X124923566Y-163431437D01*
X124978424Y-163443098D01*
X125013530Y-163458728D01*
X125044566Y-163468143D01*
X125093884Y-163494504D01*
X125150500Y-163519711D01*
X125176822Y-163538835D01*
X125200232Y-163551348D01*
X125247988Y-163590540D01*
X125302887Y-163630427D01*
X125320711Y-163650223D01*
X125336675Y-163663324D01*
X125379572Y-163715594D01*
X125428924Y-163770405D01*
X125439292Y-163788363D01*
X125448651Y-163799767D01*
X125483273Y-163864542D01*
X125523104Y-163933530D01*
X125527685Y-163947630D01*
X125531856Y-163955433D01*
X125554852Y-164031242D01*
X125581311Y-164112672D01*
X125582242Y-164121532D01*
X125583094Y-164124340D01*
X125591384Y-164208513D01*
X125601000Y-164300000D01*
X125591383Y-164391494D01*
X125583094Y-164475659D01*
X125582242Y-164478466D01*
X125581311Y-164487328D01*
X125554848Y-164568771D01*
X125531856Y-164644566D01*
X125527686Y-164652366D01*
X125523104Y-164666470D01*
X125483266Y-164735470D01*
X125448651Y-164800232D01*
X125439294Y-164811633D01*
X125428924Y-164829595D01*
X125379563Y-164884415D01*
X125336675Y-164936675D01*
X125320714Y-164949773D01*
X125302887Y-164969573D01*
X125247977Y-165009467D01*
X125200232Y-165048651D01*
X125176827Y-165061161D01*
X125150500Y-165080289D01*
X125093873Y-165105500D01*
X125044566Y-165131856D01*
X125013537Y-165141268D01*
X124978424Y-165156902D01*
X124923555Y-165168564D01*
X124875659Y-165183094D01*
X124837532Y-165186849D01*
X124794180Y-165196064D01*
X124743973Y-165196064D01*
X124700000Y-165200395D01*
X124656027Y-165196064D01*
X124605820Y-165196064D01*
X124562467Y-165186849D01*
X124524340Y-165183094D01*
X124476441Y-165168563D01*
X124421576Y-165156902D01*
X124386464Y-165141269D01*
X124355433Y-165131856D01*
X124306120Y-165105498D01*
X124249500Y-165080289D01*
X124223175Y-165061163D01*
X124199767Y-165048651D01*
X124152013Y-165009460D01*
X124097113Y-164969573D01*
X124079287Y-164949776D01*
X124063324Y-164936675D01*
X124020425Y-164884402D01*
X123971076Y-164829595D01*
X123960708Y-164811637D01*
X123951348Y-164800232D01*
X123916719Y-164735447D01*
X123876896Y-164666470D01*
X123872315Y-164652371D01*
X123868143Y-164644566D01*
X123845136Y-164568725D01*
X123818689Y-164487328D01*
X123817758Y-164478471D01*
X123816905Y-164475659D01*
X123808600Y-164391342D01*
X123799000Y-164300000D01*
X123808599Y-164208664D01*
X123816905Y-164124340D01*
X123817758Y-164121527D01*
X123818689Y-164112672D01*
X123845132Y-164031288D01*
X123868143Y-163955433D01*
X123872315Y-163947626D01*
X123876896Y-163933530D01*
X123916712Y-163864565D01*
X123951348Y-163799767D01*
X123960710Y-163788359D01*
X123971076Y-163770405D01*
X124020416Y-163715607D01*
X124063324Y-163663324D01*
X124079291Y-163650219D01*
X124097113Y-163630427D01*
X124152002Y-163590546D01*
X124199767Y-163551348D01*
X124223180Y-163538833D01*
X124249500Y-163519711D01*
X124306109Y-163494506D01*
X124355433Y-163468143D01*
X124386471Y-163458727D01*
X124421576Y-163443098D01*
X124476430Y-163431438D01*
X124524340Y-163416905D01*
X124562476Y-163413148D01*
X124605820Y-163403936D01*
X124656016Y-163403936D01*
X124700000Y-163399604D01*
X124743983Y-163403936D01*
G37*
G36*
X78650938Y-160754017D02*
G01*
X78696923Y-160754017D01*
X78748139Y-160763590D01*
X78805040Y-160769195D01*
X78848261Y-160782306D01*
X78887474Y-160789636D01*
X78941785Y-160810676D01*
X79002200Y-160829003D01*
X79036720Y-160847454D01*
X79068232Y-160859662D01*
X79122977Y-160893559D01*
X79183904Y-160926125D01*
X79209506Y-160947136D01*
X79233048Y-160961713D01*
X79285212Y-161009267D01*
X79343169Y-161056831D01*
X79360342Y-161077757D01*
X79376301Y-161092305D01*
X79422629Y-161153653D01*
X79473875Y-161216096D01*
X79483783Y-161234634D01*
X79493122Y-161247000D01*
X79530274Y-161321613D01*
X79570997Y-161397800D01*
X79575340Y-161412117D01*
X79579528Y-161420528D01*
X79604267Y-161507476D01*
X79630805Y-161594960D01*
X79631676Y-161603811D01*
X79632577Y-161606975D01*
X79641938Y-161708002D01*
X79651000Y-161800000D01*
X79641938Y-161892005D01*
X79632577Y-161993024D01*
X79631676Y-161996187D01*
X79630805Y-162005040D01*
X79604262Y-162092538D01*
X79579528Y-162179471D01*
X79575341Y-162187879D01*
X79570997Y-162202200D01*
X79530267Y-162278399D01*
X79493122Y-162352999D01*
X79483785Y-162365362D01*
X79473875Y-162383904D01*
X79422620Y-162446357D01*
X79376301Y-162507694D01*
X79360345Y-162522238D01*
X79343169Y-162543169D01*
X79285201Y-162590741D01*
X79233048Y-162638286D01*
X79209511Y-162652859D01*
X79183904Y-162673875D01*
X79122965Y-162706447D01*
X79068232Y-162740337D01*
X79036726Y-162752542D01*
X79002200Y-162770997D01*
X78941773Y-162789327D01*
X78887474Y-162810363D01*
X78848268Y-162817691D01*
X78805040Y-162830805D01*
X78748136Y-162836409D01*
X78696923Y-162845983D01*
X78650938Y-162845983D01*
X78600000Y-162851000D01*
X78549062Y-162845983D01*
X78503077Y-162845983D01*
X78451863Y-162836409D01*
X78394960Y-162830805D01*
X78351732Y-162817692D01*
X78312525Y-162810363D01*
X78258221Y-162789325D01*
X78197800Y-162770997D01*
X78163275Y-162752543D01*
X78131767Y-162740337D01*
X78077027Y-162706443D01*
X78016096Y-162673875D01*
X77990491Y-162652861D01*
X77966951Y-162638286D01*
X77914788Y-162590733D01*
X77856831Y-162543169D01*
X77839656Y-162522242D01*
X77823698Y-162507694D01*
X77777367Y-162446342D01*
X77726125Y-162383904D01*
X77716216Y-162365366D01*
X77706877Y-162352999D01*
X77669717Y-162278372D01*
X77629003Y-162202200D01*
X77624660Y-162187884D01*
X77620471Y-162179471D01*
X77595721Y-162092485D01*
X77569195Y-162005040D01*
X77568323Y-161996192D01*
X77567422Y-161993024D01*
X77558044Y-161891833D01*
X77549000Y-161800000D01*
X77558044Y-161708173D01*
X77567422Y-161606975D01*
X77568323Y-161603805D01*
X77569195Y-161594960D01*
X77595716Y-161507529D01*
X77620471Y-161420528D01*
X77624661Y-161412112D01*
X77629003Y-161397800D01*
X77669710Y-161321641D01*
X77706877Y-161247000D01*
X77716218Y-161234629D01*
X77726125Y-161216096D01*
X77777357Y-161153668D01*
X77823698Y-161092305D01*
X77839660Y-161077753D01*
X77856831Y-161056831D01*
X77914777Y-161009275D01*
X77966951Y-160961713D01*
X77990496Y-160947134D01*
X78016096Y-160926125D01*
X78077015Y-160893563D01*
X78131767Y-160859662D01*
X78163282Y-160847452D01*
X78197800Y-160829003D01*
X78258209Y-160810677D01*
X78312525Y-160789636D01*
X78351739Y-160782305D01*
X78394960Y-160769195D01*
X78451860Y-160763590D01*
X78503077Y-160754017D01*
X78549062Y-160754017D01*
X78600000Y-160749000D01*
X78650938Y-160754017D01*
G37*
G36*
X85150938Y-160754017D02*
G01*
X85196923Y-160754017D01*
X85248139Y-160763590D01*
X85305040Y-160769195D01*
X85348261Y-160782306D01*
X85387474Y-160789636D01*
X85441785Y-160810676D01*
X85502200Y-160829003D01*
X85536720Y-160847454D01*
X85568232Y-160859662D01*
X85622977Y-160893559D01*
X85683904Y-160926125D01*
X85709506Y-160947136D01*
X85733048Y-160961713D01*
X85785212Y-161009267D01*
X85843169Y-161056831D01*
X85860342Y-161077757D01*
X85876301Y-161092305D01*
X85922629Y-161153653D01*
X85973875Y-161216096D01*
X85983783Y-161234634D01*
X85993122Y-161247000D01*
X86030274Y-161321613D01*
X86070997Y-161397800D01*
X86075340Y-161412117D01*
X86079528Y-161420528D01*
X86104267Y-161507476D01*
X86130805Y-161594960D01*
X86131676Y-161603811D01*
X86132577Y-161606975D01*
X86141938Y-161708002D01*
X86151000Y-161800000D01*
X86141938Y-161892005D01*
X86132577Y-161993024D01*
X86131676Y-161996187D01*
X86130805Y-162005040D01*
X86104262Y-162092538D01*
X86079528Y-162179471D01*
X86075341Y-162187879D01*
X86070997Y-162202200D01*
X86030267Y-162278399D01*
X85993122Y-162352999D01*
X85983785Y-162365362D01*
X85973875Y-162383904D01*
X85922620Y-162446357D01*
X85876301Y-162507694D01*
X85860345Y-162522238D01*
X85843169Y-162543169D01*
X85785201Y-162590741D01*
X85733048Y-162638286D01*
X85709511Y-162652859D01*
X85683904Y-162673875D01*
X85622965Y-162706447D01*
X85568232Y-162740337D01*
X85536726Y-162752542D01*
X85502200Y-162770997D01*
X85441773Y-162789327D01*
X85387474Y-162810363D01*
X85348268Y-162817691D01*
X85305040Y-162830805D01*
X85248136Y-162836409D01*
X85196923Y-162845983D01*
X85150938Y-162845983D01*
X85100000Y-162851000D01*
X85049062Y-162845983D01*
X85003077Y-162845983D01*
X84951863Y-162836409D01*
X84894960Y-162830805D01*
X84851732Y-162817692D01*
X84812525Y-162810363D01*
X84758221Y-162789325D01*
X84697800Y-162770997D01*
X84663275Y-162752543D01*
X84631767Y-162740337D01*
X84577027Y-162706443D01*
X84516096Y-162673875D01*
X84490491Y-162652861D01*
X84466951Y-162638286D01*
X84414788Y-162590733D01*
X84356831Y-162543169D01*
X84339656Y-162522242D01*
X84323698Y-162507694D01*
X84277367Y-162446342D01*
X84226125Y-162383904D01*
X84216216Y-162365366D01*
X84206877Y-162352999D01*
X84169717Y-162278372D01*
X84129003Y-162202200D01*
X84124660Y-162187884D01*
X84120471Y-162179471D01*
X84095721Y-162092485D01*
X84069195Y-162005040D01*
X84068323Y-161996192D01*
X84067422Y-161993024D01*
X84058044Y-161891833D01*
X84049000Y-161800000D01*
X84058044Y-161708173D01*
X84067422Y-161606975D01*
X84068323Y-161603805D01*
X84069195Y-161594960D01*
X84095716Y-161507529D01*
X84120471Y-161420528D01*
X84124661Y-161412112D01*
X84129003Y-161397800D01*
X84169710Y-161321641D01*
X84206877Y-161247000D01*
X84216218Y-161234629D01*
X84226125Y-161216096D01*
X84277357Y-161153668D01*
X84323698Y-161092305D01*
X84339660Y-161077753D01*
X84356831Y-161056831D01*
X84414777Y-161009275D01*
X84466951Y-160961713D01*
X84490496Y-160947134D01*
X84516096Y-160926125D01*
X84577015Y-160893563D01*
X84631767Y-160859662D01*
X84663282Y-160847452D01*
X84697800Y-160829003D01*
X84758209Y-160810677D01*
X84812525Y-160789636D01*
X84851739Y-160782305D01*
X84894960Y-160769195D01*
X84951860Y-160763590D01*
X85003077Y-160754017D01*
X85049062Y-160754017D01*
X85100000Y-160749000D01*
X85150938Y-160754017D01*
G37*
G36*
X95450938Y-160754017D02*
G01*
X95496923Y-160754017D01*
X95548139Y-160763590D01*
X95605040Y-160769195D01*
X95648261Y-160782306D01*
X95687474Y-160789636D01*
X95741785Y-160810676D01*
X95802200Y-160829003D01*
X95836720Y-160847454D01*
X95868232Y-160859662D01*
X95922977Y-160893559D01*
X95983904Y-160926125D01*
X96009506Y-160947136D01*
X96033048Y-160961713D01*
X96085212Y-161009267D01*
X96143169Y-161056831D01*
X96160342Y-161077757D01*
X96176301Y-161092305D01*
X96222629Y-161153653D01*
X96273875Y-161216096D01*
X96283783Y-161234634D01*
X96293122Y-161247000D01*
X96330274Y-161321613D01*
X96370997Y-161397800D01*
X96375340Y-161412117D01*
X96379528Y-161420528D01*
X96404267Y-161507476D01*
X96430805Y-161594960D01*
X96431676Y-161603811D01*
X96432577Y-161606975D01*
X96441938Y-161708002D01*
X96451000Y-161800000D01*
X96441938Y-161892005D01*
X96432577Y-161993024D01*
X96431676Y-161996187D01*
X96430805Y-162005040D01*
X96404262Y-162092538D01*
X96379528Y-162179471D01*
X96375341Y-162187879D01*
X96370997Y-162202200D01*
X96330267Y-162278399D01*
X96293122Y-162352999D01*
X96283785Y-162365362D01*
X96273875Y-162383904D01*
X96222620Y-162446357D01*
X96176301Y-162507694D01*
X96160345Y-162522238D01*
X96143169Y-162543169D01*
X96085201Y-162590741D01*
X96033048Y-162638286D01*
X96009511Y-162652859D01*
X95983904Y-162673875D01*
X95922965Y-162706447D01*
X95868232Y-162740337D01*
X95836726Y-162752542D01*
X95802200Y-162770997D01*
X95741773Y-162789327D01*
X95687474Y-162810363D01*
X95648268Y-162817691D01*
X95605040Y-162830805D01*
X95548136Y-162836409D01*
X95496923Y-162845983D01*
X95450938Y-162845983D01*
X95400000Y-162851000D01*
X95349062Y-162845983D01*
X95303077Y-162845983D01*
X95251863Y-162836409D01*
X95194960Y-162830805D01*
X95151732Y-162817692D01*
X95112525Y-162810363D01*
X95058221Y-162789325D01*
X94997800Y-162770997D01*
X94963275Y-162752543D01*
X94931767Y-162740337D01*
X94877027Y-162706443D01*
X94816096Y-162673875D01*
X94790491Y-162652861D01*
X94766951Y-162638286D01*
X94714788Y-162590733D01*
X94656831Y-162543169D01*
X94639656Y-162522242D01*
X94623698Y-162507694D01*
X94577367Y-162446342D01*
X94526125Y-162383904D01*
X94516216Y-162365366D01*
X94506877Y-162352999D01*
X94469717Y-162278372D01*
X94429003Y-162202200D01*
X94424660Y-162187884D01*
X94420471Y-162179471D01*
X94395721Y-162092485D01*
X94369195Y-162005040D01*
X94368323Y-161996192D01*
X94367422Y-161993024D01*
X94358044Y-161891833D01*
X94349000Y-161800000D01*
X94358044Y-161708173D01*
X94367422Y-161606975D01*
X94368323Y-161603805D01*
X94369195Y-161594960D01*
X94395716Y-161507529D01*
X94420471Y-161420528D01*
X94424661Y-161412112D01*
X94429003Y-161397800D01*
X94469710Y-161321641D01*
X94506877Y-161247000D01*
X94516218Y-161234629D01*
X94526125Y-161216096D01*
X94577357Y-161153668D01*
X94623698Y-161092305D01*
X94639660Y-161077753D01*
X94656831Y-161056831D01*
X94714777Y-161009275D01*
X94766951Y-160961713D01*
X94790496Y-160947134D01*
X94816096Y-160926125D01*
X94877015Y-160893563D01*
X94931767Y-160859662D01*
X94963282Y-160847452D01*
X94997800Y-160829003D01*
X95058209Y-160810677D01*
X95112525Y-160789636D01*
X95151739Y-160782305D01*
X95194960Y-160769195D01*
X95251860Y-160763590D01*
X95303077Y-160754017D01*
X95349062Y-160754017D01*
X95400000Y-160749000D01*
X95450938Y-160754017D01*
G37*
G36*
X101950938Y-160754017D02*
G01*
X101996923Y-160754017D01*
X102048139Y-160763590D01*
X102105040Y-160769195D01*
X102148261Y-160782306D01*
X102187474Y-160789636D01*
X102241785Y-160810676D01*
X102302200Y-160829003D01*
X102336720Y-160847454D01*
X102368232Y-160859662D01*
X102422977Y-160893559D01*
X102483904Y-160926125D01*
X102509506Y-160947136D01*
X102533048Y-160961713D01*
X102585212Y-161009267D01*
X102643169Y-161056831D01*
X102660342Y-161077757D01*
X102676301Y-161092305D01*
X102722629Y-161153653D01*
X102773875Y-161216096D01*
X102783783Y-161234634D01*
X102793122Y-161247000D01*
X102830274Y-161321613D01*
X102870997Y-161397800D01*
X102875340Y-161412117D01*
X102879528Y-161420528D01*
X102904267Y-161507476D01*
X102930805Y-161594960D01*
X102931676Y-161603811D01*
X102932577Y-161606975D01*
X102941938Y-161708002D01*
X102951000Y-161800000D01*
X102941938Y-161892005D01*
X102932577Y-161993024D01*
X102931676Y-161996187D01*
X102930805Y-162005040D01*
X102904262Y-162092538D01*
X102879528Y-162179471D01*
X102875341Y-162187879D01*
X102870997Y-162202200D01*
X102830267Y-162278399D01*
X102793122Y-162352999D01*
X102783785Y-162365362D01*
X102773875Y-162383904D01*
X102722620Y-162446357D01*
X102676301Y-162507694D01*
X102660345Y-162522238D01*
X102643169Y-162543169D01*
X102585201Y-162590741D01*
X102533048Y-162638286D01*
X102509511Y-162652859D01*
X102483904Y-162673875D01*
X102422965Y-162706447D01*
X102368232Y-162740337D01*
X102336726Y-162752542D01*
X102302200Y-162770997D01*
X102241773Y-162789327D01*
X102187474Y-162810363D01*
X102148268Y-162817691D01*
X102105040Y-162830805D01*
X102048136Y-162836409D01*
X101996923Y-162845983D01*
X101950938Y-162845983D01*
X101900000Y-162851000D01*
X101849062Y-162845983D01*
X101803077Y-162845983D01*
X101751863Y-162836409D01*
X101694960Y-162830805D01*
X101651732Y-162817692D01*
X101612525Y-162810363D01*
X101558221Y-162789325D01*
X101497800Y-162770997D01*
X101463275Y-162752543D01*
X101431767Y-162740337D01*
X101377027Y-162706443D01*
X101316096Y-162673875D01*
X101290491Y-162652861D01*
X101266951Y-162638286D01*
X101214788Y-162590733D01*
X101156831Y-162543169D01*
X101139656Y-162522242D01*
X101123698Y-162507694D01*
X101077367Y-162446342D01*
X101026125Y-162383904D01*
X101016216Y-162365366D01*
X101006877Y-162352999D01*
X100969717Y-162278372D01*
X100929003Y-162202200D01*
X100924660Y-162187884D01*
X100920471Y-162179471D01*
X100895721Y-162092485D01*
X100869195Y-162005040D01*
X100868323Y-161996192D01*
X100867422Y-161993024D01*
X100858044Y-161891833D01*
X100849000Y-161800000D01*
X100858044Y-161708173D01*
X100867422Y-161606975D01*
X100868323Y-161603805D01*
X100869195Y-161594960D01*
X100895716Y-161507529D01*
X100920471Y-161420528D01*
X100924661Y-161412112D01*
X100929003Y-161397800D01*
X100969710Y-161321641D01*
X101006877Y-161247000D01*
X101016218Y-161234629D01*
X101026125Y-161216096D01*
X101077357Y-161153668D01*
X101123698Y-161092305D01*
X101139660Y-161077753D01*
X101156831Y-161056831D01*
X101214777Y-161009275D01*
X101266951Y-160961713D01*
X101290496Y-160947134D01*
X101316096Y-160926125D01*
X101377015Y-160893563D01*
X101431767Y-160859662D01*
X101463282Y-160847452D01*
X101497800Y-160829003D01*
X101558209Y-160810677D01*
X101612525Y-160789636D01*
X101651739Y-160782305D01*
X101694960Y-160769195D01*
X101751860Y-160763590D01*
X101803077Y-160754017D01*
X101849062Y-160754017D01*
X101900000Y-160749000D01*
X101950938Y-160754017D01*
G37*
G36*
X109503983Y-160863936D02*
G01*
X109554180Y-160863936D01*
X109597524Y-160873149D01*
X109635659Y-160876905D01*
X109683566Y-160891437D01*
X109738424Y-160903098D01*
X109773530Y-160918728D01*
X109804566Y-160928143D01*
X109853884Y-160954504D01*
X109910500Y-160979711D01*
X109936822Y-160998835D01*
X109960232Y-161011348D01*
X110007988Y-161050540D01*
X110062887Y-161090427D01*
X110080711Y-161110223D01*
X110096675Y-161123324D01*
X110139572Y-161175594D01*
X110188924Y-161230405D01*
X110199292Y-161248363D01*
X110208651Y-161259767D01*
X110243273Y-161324542D01*
X110283104Y-161393530D01*
X110287685Y-161407630D01*
X110291856Y-161415433D01*
X110314852Y-161491242D01*
X110341311Y-161572672D01*
X110342242Y-161581532D01*
X110343094Y-161584340D01*
X110351384Y-161668513D01*
X110361000Y-161760000D01*
X110351383Y-161851494D01*
X110343094Y-161935659D01*
X110342242Y-161938466D01*
X110341311Y-161947328D01*
X110314848Y-162028771D01*
X110291856Y-162104566D01*
X110287686Y-162112366D01*
X110283104Y-162126470D01*
X110243266Y-162195470D01*
X110208651Y-162260232D01*
X110199294Y-162271633D01*
X110188924Y-162289595D01*
X110139563Y-162344415D01*
X110096675Y-162396675D01*
X110080714Y-162409773D01*
X110062887Y-162429573D01*
X110007977Y-162469467D01*
X109960232Y-162508651D01*
X109936827Y-162521161D01*
X109910500Y-162540289D01*
X109853873Y-162565500D01*
X109804566Y-162591856D01*
X109773537Y-162601268D01*
X109738424Y-162616902D01*
X109683555Y-162628564D01*
X109635659Y-162643094D01*
X109597532Y-162646849D01*
X109554180Y-162656064D01*
X109503973Y-162656064D01*
X109460000Y-162660395D01*
X109416027Y-162656064D01*
X109365820Y-162656064D01*
X109322467Y-162646849D01*
X109284340Y-162643094D01*
X109236441Y-162628563D01*
X109181576Y-162616902D01*
X109146464Y-162601269D01*
X109115433Y-162591856D01*
X109066120Y-162565498D01*
X109009500Y-162540289D01*
X108983175Y-162521163D01*
X108959767Y-162508651D01*
X108912013Y-162469460D01*
X108857113Y-162429573D01*
X108839287Y-162409776D01*
X108823324Y-162396675D01*
X108780425Y-162344402D01*
X108731076Y-162289595D01*
X108720708Y-162271637D01*
X108711348Y-162260232D01*
X108676719Y-162195447D01*
X108636896Y-162126470D01*
X108632315Y-162112371D01*
X108628143Y-162104566D01*
X108605136Y-162028725D01*
X108578689Y-161947328D01*
X108577758Y-161938471D01*
X108576905Y-161935659D01*
X108568600Y-161851342D01*
X108559000Y-161760000D01*
X108568599Y-161668664D01*
X108576905Y-161584340D01*
X108577758Y-161581527D01*
X108578689Y-161572672D01*
X108605132Y-161491288D01*
X108628143Y-161415433D01*
X108632315Y-161407626D01*
X108636896Y-161393530D01*
X108676712Y-161324565D01*
X108711348Y-161259767D01*
X108720710Y-161248359D01*
X108731076Y-161230405D01*
X108780416Y-161175607D01*
X108823324Y-161123324D01*
X108839291Y-161110219D01*
X108857113Y-161090427D01*
X108912002Y-161050546D01*
X108959767Y-161011348D01*
X108983180Y-160998833D01*
X109009500Y-160979711D01*
X109066109Y-160954506D01*
X109115433Y-160928143D01*
X109146471Y-160918727D01*
X109181576Y-160903098D01*
X109236430Y-160891438D01*
X109284340Y-160876905D01*
X109322476Y-160873148D01*
X109365820Y-160863936D01*
X109416016Y-160863936D01*
X109460000Y-160859604D01*
X109503983Y-160863936D01*
G37*
G36*
X124743983Y-160863936D02*
G01*
X124794180Y-160863936D01*
X124837524Y-160873149D01*
X124875659Y-160876905D01*
X124923566Y-160891437D01*
X124978424Y-160903098D01*
X125013530Y-160918728D01*
X125044566Y-160928143D01*
X125093884Y-160954504D01*
X125150500Y-160979711D01*
X125176822Y-160998835D01*
X125200232Y-161011348D01*
X125247988Y-161050540D01*
X125302887Y-161090427D01*
X125320711Y-161110223D01*
X125336675Y-161123324D01*
X125379572Y-161175594D01*
X125428924Y-161230405D01*
X125439292Y-161248363D01*
X125448651Y-161259767D01*
X125483273Y-161324542D01*
X125523104Y-161393530D01*
X125527685Y-161407630D01*
X125531856Y-161415433D01*
X125554852Y-161491242D01*
X125581311Y-161572672D01*
X125582242Y-161581532D01*
X125583094Y-161584340D01*
X125591384Y-161668513D01*
X125601000Y-161760000D01*
X125591383Y-161851494D01*
X125583094Y-161935659D01*
X125582242Y-161938466D01*
X125581311Y-161947328D01*
X125554848Y-162028771D01*
X125531856Y-162104566D01*
X125527686Y-162112366D01*
X125523104Y-162126470D01*
X125483266Y-162195470D01*
X125448651Y-162260232D01*
X125439294Y-162271633D01*
X125428924Y-162289595D01*
X125379563Y-162344415D01*
X125336675Y-162396675D01*
X125320714Y-162409773D01*
X125302887Y-162429573D01*
X125247977Y-162469467D01*
X125200232Y-162508651D01*
X125176827Y-162521161D01*
X125150500Y-162540289D01*
X125093873Y-162565500D01*
X125044566Y-162591856D01*
X125013537Y-162601268D01*
X124978424Y-162616902D01*
X124923555Y-162628564D01*
X124875659Y-162643094D01*
X124837532Y-162646849D01*
X124794180Y-162656064D01*
X124743973Y-162656064D01*
X124700000Y-162660395D01*
X124656027Y-162656064D01*
X124605820Y-162656064D01*
X124562467Y-162646849D01*
X124524340Y-162643094D01*
X124476441Y-162628563D01*
X124421576Y-162616902D01*
X124386464Y-162601269D01*
X124355433Y-162591856D01*
X124306120Y-162565498D01*
X124249500Y-162540289D01*
X124223175Y-162521163D01*
X124199767Y-162508651D01*
X124152013Y-162469460D01*
X124097113Y-162429573D01*
X124079287Y-162409776D01*
X124063324Y-162396675D01*
X124020425Y-162344402D01*
X123971076Y-162289595D01*
X123960708Y-162271637D01*
X123951348Y-162260232D01*
X123916719Y-162195447D01*
X123876896Y-162126470D01*
X123872315Y-162112371D01*
X123868143Y-162104566D01*
X123845136Y-162028725D01*
X123818689Y-161947328D01*
X123817758Y-161938471D01*
X123816905Y-161935659D01*
X123808600Y-161851342D01*
X123799000Y-161760000D01*
X123808599Y-161668664D01*
X123816905Y-161584340D01*
X123817758Y-161581527D01*
X123818689Y-161572672D01*
X123845132Y-161491288D01*
X123868143Y-161415433D01*
X123872315Y-161407626D01*
X123876896Y-161393530D01*
X123916712Y-161324565D01*
X123951348Y-161259767D01*
X123960710Y-161248359D01*
X123971076Y-161230405D01*
X124020416Y-161175607D01*
X124063324Y-161123324D01*
X124079291Y-161110219D01*
X124097113Y-161090427D01*
X124152002Y-161050546D01*
X124199767Y-161011348D01*
X124223180Y-160998833D01*
X124249500Y-160979711D01*
X124306109Y-160954506D01*
X124355433Y-160928143D01*
X124386471Y-160918727D01*
X124421576Y-160903098D01*
X124476430Y-160891438D01*
X124524340Y-160876905D01*
X124562476Y-160873148D01*
X124605820Y-160863936D01*
X124656016Y-160863936D01*
X124700000Y-160859604D01*
X124743983Y-160863936D01*
G37*
G36*
X130750938Y-158654017D02*
G01*
X130796923Y-158654017D01*
X130848139Y-158663590D01*
X130905040Y-158669195D01*
X130948261Y-158682306D01*
X130987474Y-158689636D01*
X131041785Y-158710676D01*
X131102200Y-158729003D01*
X131136720Y-158747454D01*
X131168232Y-158759662D01*
X131222977Y-158793559D01*
X131283904Y-158826125D01*
X131309506Y-158847136D01*
X131333048Y-158861713D01*
X131385212Y-158909267D01*
X131443169Y-158956831D01*
X131460342Y-158977757D01*
X131476301Y-158992305D01*
X131522629Y-159053653D01*
X131573875Y-159116096D01*
X131583783Y-159134634D01*
X131593122Y-159147000D01*
X131630274Y-159221613D01*
X131670997Y-159297800D01*
X131675340Y-159312117D01*
X131679528Y-159320528D01*
X131704267Y-159407476D01*
X131730805Y-159494960D01*
X131731676Y-159503811D01*
X131732577Y-159506975D01*
X131741938Y-159608002D01*
X131751000Y-159700000D01*
X131741938Y-159792005D01*
X131732577Y-159893024D01*
X131731676Y-159896187D01*
X131730805Y-159905040D01*
X131704262Y-159992538D01*
X131679528Y-160079471D01*
X131675341Y-160087879D01*
X131670997Y-160102200D01*
X131630267Y-160178399D01*
X131593122Y-160252999D01*
X131583785Y-160265362D01*
X131573875Y-160283904D01*
X131522620Y-160346357D01*
X131476301Y-160407694D01*
X131460345Y-160422238D01*
X131443169Y-160443169D01*
X131385201Y-160490741D01*
X131333048Y-160538286D01*
X131309511Y-160552859D01*
X131283904Y-160573875D01*
X131222965Y-160606447D01*
X131168232Y-160640337D01*
X131136726Y-160652542D01*
X131102200Y-160670997D01*
X131041773Y-160689327D01*
X130987474Y-160710363D01*
X130948268Y-160717691D01*
X130905040Y-160730805D01*
X130848136Y-160736409D01*
X130796923Y-160745983D01*
X130750938Y-160745983D01*
X130700000Y-160751000D01*
X130649062Y-160745983D01*
X130603077Y-160745983D01*
X130551863Y-160736409D01*
X130494960Y-160730805D01*
X130451732Y-160717692D01*
X130412525Y-160710363D01*
X130358221Y-160689325D01*
X130297800Y-160670997D01*
X130263275Y-160652543D01*
X130231767Y-160640337D01*
X130177027Y-160606443D01*
X130116096Y-160573875D01*
X130090491Y-160552861D01*
X130066951Y-160538286D01*
X130014788Y-160490733D01*
X129956831Y-160443169D01*
X129939656Y-160422242D01*
X129923698Y-160407694D01*
X129877367Y-160346342D01*
X129826125Y-160283904D01*
X129816216Y-160265366D01*
X129806877Y-160252999D01*
X129769717Y-160178372D01*
X129729003Y-160102200D01*
X129724660Y-160087884D01*
X129720471Y-160079471D01*
X129695721Y-159992485D01*
X129669195Y-159905040D01*
X129668323Y-159896192D01*
X129667422Y-159893024D01*
X129658044Y-159791833D01*
X129649000Y-159700000D01*
X129658044Y-159608173D01*
X129667422Y-159506975D01*
X129668323Y-159503805D01*
X129669195Y-159494960D01*
X129695716Y-159407529D01*
X129720471Y-159320528D01*
X129724661Y-159312112D01*
X129729003Y-159297800D01*
X129769710Y-159221641D01*
X129806877Y-159147000D01*
X129816218Y-159134629D01*
X129826125Y-159116096D01*
X129877357Y-159053668D01*
X129923698Y-158992305D01*
X129939660Y-158977753D01*
X129956831Y-158956831D01*
X130014777Y-158909275D01*
X130066951Y-158861713D01*
X130090496Y-158847134D01*
X130116096Y-158826125D01*
X130177015Y-158793563D01*
X130231767Y-158759662D01*
X130263282Y-158747452D01*
X130297800Y-158729003D01*
X130358209Y-158710677D01*
X130412525Y-158689636D01*
X130451739Y-158682305D01*
X130494960Y-158669195D01*
X130551860Y-158663590D01*
X130603077Y-158654017D01*
X130649062Y-158654017D01*
X130700000Y-158649000D01*
X130750938Y-158654017D01*
G37*
G36*
X137250938Y-158654017D02*
G01*
X137296923Y-158654017D01*
X137348139Y-158663590D01*
X137405040Y-158669195D01*
X137448261Y-158682306D01*
X137487474Y-158689636D01*
X137541785Y-158710676D01*
X137602200Y-158729003D01*
X137636720Y-158747454D01*
X137668232Y-158759662D01*
X137722977Y-158793559D01*
X137783904Y-158826125D01*
X137809506Y-158847136D01*
X137833048Y-158861713D01*
X137885212Y-158909267D01*
X137943169Y-158956831D01*
X137960342Y-158977757D01*
X137976301Y-158992305D01*
X138022629Y-159053653D01*
X138073875Y-159116096D01*
X138083783Y-159134634D01*
X138093122Y-159147000D01*
X138130274Y-159221613D01*
X138170997Y-159297800D01*
X138175340Y-159312117D01*
X138179528Y-159320528D01*
X138204267Y-159407476D01*
X138230805Y-159494960D01*
X138231676Y-159503811D01*
X138232577Y-159506975D01*
X138241938Y-159608002D01*
X138251000Y-159700000D01*
X138241938Y-159792005D01*
X138232577Y-159893024D01*
X138231676Y-159896187D01*
X138230805Y-159905040D01*
X138204262Y-159992538D01*
X138179528Y-160079471D01*
X138175341Y-160087879D01*
X138170997Y-160102200D01*
X138130267Y-160178399D01*
X138093122Y-160252999D01*
X138083785Y-160265362D01*
X138073875Y-160283904D01*
X138022620Y-160346357D01*
X137976301Y-160407694D01*
X137960345Y-160422238D01*
X137943169Y-160443169D01*
X137885201Y-160490741D01*
X137833048Y-160538286D01*
X137809511Y-160552859D01*
X137783904Y-160573875D01*
X137722965Y-160606447D01*
X137668232Y-160640337D01*
X137636726Y-160652542D01*
X137602200Y-160670997D01*
X137541773Y-160689327D01*
X137487474Y-160710363D01*
X137448268Y-160717691D01*
X137405040Y-160730805D01*
X137348136Y-160736409D01*
X137296923Y-160745983D01*
X137250938Y-160745983D01*
X137200000Y-160751000D01*
X137149062Y-160745983D01*
X137103077Y-160745983D01*
X137051863Y-160736409D01*
X136994960Y-160730805D01*
X136951732Y-160717692D01*
X136912525Y-160710363D01*
X136858221Y-160689325D01*
X136797800Y-160670997D01*
X136763275Y-160652543D01*
X136731767Y-160640337D01*
X136677027Y-160606443D01*
X136616096Y-160573875D01*
X136590491Y-160552861D01*
X136566951Y-160538286D01*
X136514788Y-160490733D01*
X136456831Y-160443169D01*
X136439656Y-160422242D01*
X136423698Y-160407694D01*
X136377367Y-160346342D01*
X136326125Y-160283904D01*
X136316216Y-160265366D01*
X136306877Y-160252999D01*
X136269717Y-160178372D01*
X136229003Y-160102200D01*
X136224660Y-160087884D01*
X136220471Y-160079471D01*
X136195721Y-159992485D01*
X136169195Y-159905040D01*
X136168323Y-159896192D01*
X136167422Y-159893024D01*
X136158044Y-159791833D01*
X136149000Y-159700000D01*
X136158044Y-159608173D01*
X136167422Y-159506975D01*
X136168323Y-159503805D01*
X136169195Y-159494960D01*
X136195716Y-159407529D01*
X136220471Y-159320528D01*
X136224661Y-159312112D01*
X136229003Y-159297800D01*
X136269710Y-159221641D01*
X136306877Y-159147000D01*
X136316218Y-159134629D01*
X136326125Y-159116096D01*
X136377357Y-159053668D01*
X136423698Y-158992305D01*
X136439660Y-158977753D01*
X136456831Y-158956831D01*
X136514777Y-158909275D01*
X136566951Y-158861713D01*
X136590496Y-158847134D01*
X136616096Y-158826125D01*
X136677015Y-158793563D01*
X136731767Y-158759662D01*
X136763282Y-158747452D01*
X136797800Y-158729003D01*
X136858209Y-158710677D01*
X136912525Y-158689636D01*
X136951739Y-158682305D01*
X136994960Y-158669195D01*
X137051860Y-158663590D01*
X137103077Y-158654017D01*
X137149062Y-158654017D01*
X137200000Y-158649000D01*
X137250938Y-158654017D01*
G37*
G36*
X109503983Y-158323936D02*
G01*
X109554180Y-158323936D01*
X109597524Y-158333149D01*
X109635659Y-158336905D01*
X109683566Y-158351437D01*
X109738424Y-158363098D01*
X109773530Y-158378728D01*
X109804566Y-158388143D01*
X109853884Y-158414504D01*
X109910500Y-158439711D01*
X109936822Y-158458835D01*
X109960232Y-158471348D01*
X110007988Y-158510540D01*
X110062887Y-158550427D01*
X110080711Y-158570223D01*
X110096675Y-158583324D01*
X110139572Y-158635594D01*
X110188924Y-158690405D01*
X110199292Y-158708363D01*
X110208651Y-158719767D01*
X110243273Y-158784542D01*
X110283104Y-158853530D01*
X110287685Y-158867630D01*
X110291856Y-158875433D01*
X110314852Y-158951242D01*
X110341311Y-159032672D01*
X110342242Y-159041532D01*
X110343094Y-159044340D01*
X110351384Y-159128513D01*
X110361000Y-159220000D01*
X110351383Y-159311494D01*
X110343094Y-159395659D01*
X110342242Y-159398466D01*
X110341311Y-159407328D01*
X110314848Y-159488771D01*
X110291856Y-159564566D01*
X110287686Y-159572366D01*
X110283104Y-159586470D01*
X110243266Y-159655470D01*
X110208651Y-159720232D01*
X110199294Y-159731633D01*
X110188924Y-159749595D01*
X110139563Y-159804415D01*
X110096675Y-159856675D01*
X110080714Y-159869773D01*
X110062887Y-159889573D01*
X110007977Y-159929467D01*
X109960232Y-159968651D01*
X109936827Y-159981161D01*
X109910500Y-160000289D01*
X109853873Y-160025500D01*
X109804566Y-160051856D01*
X109773537Y-160061268D01*
X109738424Y-160076902D01*
X109683555Y-160088564D01*
X109635659Y-160103094D01*
X109597532Y-160106849D01*
X109554180Y-160116064D01*
X109503973Y-160116064D01*
X109460000Y-160120395D01*
X109416027Y-160116064D01*
X109365820Y-160116064D01*
X109322467Y-160106849D01*
X109284340Y-160103094D01*
X109236441Y-160088563D01*
X109181576Y-160076902D01*
X109146464Y-160061269D01*
X109115433Y-160051856D01*
X109066120Y-160025498D01*
X109009500Y-160000289D01*
X108983175Y-159981163D01*
X108959767Y-159968651D01*
X108912013Y-159929460D01*
X108857113Y-159889573D01*
X108839287Y-159869776D01*
X108823324Y-159856675D01*
X108780425Y-159804402D01*
X108731076Y-159749595D01*
X108720708Y-159731637D01*
X108711348Y-159720232D01*
X108676719Y-159655447D01*
X108636896Y-159586470D01*
X108632315Y-159572371D01*
X108628143Y-159564566D01*
X108605136Y-159488725D01*
X108578689Y-159407328D01*
X108577758Y-159398471D01*
X108576905Y-159395659D01*
X108568600Y-159311342D01*
X108559000Y-159220000D01*
X108568599Y-159128664D01*
X108576905Y-159044340D01*
X108577758Y-159041527D01*
X108578689Y-159032672D01*
X108605132Y-158951288D01*
X108628143Y-158875433D01*
X108632315Y-158867626D01*
X108636896Y-158853530D01*
X108676712Y-158784565D01*
X108711348Y-158719767D01*
X108720710Y-158708359D01*
X108731076Y-158690405D01*
X108780416Y-158635607D01*
X108823324Y-158583324D01*
X108839291Y-158570219D01*
X108857113Y-158550427D01*
X108912002Y-158510546D01*
X108959767Y-158471348D01*
X108983180Y-158458833D01*
X109009500Y-158439711D01*
X109066109Y-158414506D01*
X109115433Y-158388143D01*
X109146471Y-158378727D01*
X109181576Y-158363098D01*
X109236430Y-158351438D01*
X109284340Y-158336905D01*
X109322476Y-158333148D01*
X109365820Y-158323936D01*
X109416016Y-158323936D01*
X109460000Y-158319604D01*
X109503983Y-158323936D01*
G37*
G36*
X124743983Y-158323936D02*
G01*
X124794180Y-158323936D01*
X124837524Y-158333149D01*
X124875659Y-158336905D01*
X124923566Y-158351437D01*
X124978424Y-158363098D01*
X125013530Y-158378728D01*
X125044566Y-158388143D01*
X125093884Y-158414504D01*
X125150500Y-158439711D01*
X125176822Y-158458835D01*
X125200232Y-158471348D01*
X125247988Y-158510540D01*
X125302887Y-158550427D01*
X125320711Y-158570223D01*
X125336675Y-158583324D01*
X125379572Y-158635594D01*
X125428924Y-158690405D01*
X125439292Y-158708363D01*
X125448651Y-158719767D01*
X125483273Y-158784542D01*
X125523104Y-158853530D01*
X125527685Y-158867630D01*
X125531856Y-158875433D01*
X125554852Y-158951242D01*
X125581311Y-159032672D01*
X125582242Y-159041532D01*
X125583094Y-159044340D01*
X125591384Y-159128513D01*
X125601000Y-159220000D01*
X125591383Y-159311494D01*
X125583094Y-159395659D01*
X125582242Y-159398466D01*
X125581311Y-159407328D01*
X125554848Y-159488771D01*
X125531856Y-159564566D01*
X125527686Y-159572366D01*
X125523104Y-159586470D01*
X125483266Y-159655470D01*
X125448651Y-159720232D01*
X125439294Y-159731633D01*
X125428924Y-159749595D01*
X125379563Y-159804415D01*
X125336675Y-159856675D01*
X125320714Y-159869773D01*
X125302887Y-159889573D01*
X125247977Y-159929467D01*
X125200232Y-159968651D01*
X125176827Y-159981161D01*
X125150500Y-160000289D01*
X125093873Y-160025500D01*
X125044566Y-160051856D01*
X125013537Y-160061268D01*
X124978424Y-160076902D01*
X124923555Y-160088564D01*
X124875659Y-160103094D01*
X124837532Y-160106849D01*
X124794180Y-160116064D01*
X124743973Y-160116064D01*
X124700000Y-160120395D01*
X124656027Y-160116064D01*
X124605820Y-160116064D01*
X124562467Y-160106849D01*
X124524340Y-160103094D01*
X124476441Y-160088563D01*
X124421576Y-160076902D01*
X124386464Y-160061269D01*
X124355433Y-160051856D01*
X124306120Y-160025498D01*
X124249500Y-160000289D01*
X124223175Y-159981163D01*
X124199767Y-159968651D01*
X124152013Y-159929460D01*
X124097113Y-159889573D01*
X124079287Y-159869776D01*
X124063324Y-159856675D01*
X124020425Y-159804402D01*
X123971076Y-159749595D01*
X123960708Y-159731637D01*
X123951348Y-159720232D01*
X123916719Y-159655447D01*
X123876896Y-159586470D01*
X123872315Y-159572371D01*
X123868143Y-159564566D01*
X123845136Y-159488725D01*
X123818689Y-159407328D01*
X123817758Y-159398471D01*
X123816905Y-159395659D01*
X123808600Y-159311342D01*
X123799000Y-159220000D01*
X123808599Y-159128664D01*
X123816905Y-159044340D01*
X123817758Y-159041527D01*
X123818689Y-159032672D01*
X123845132Y-158951288D01*
X123868143Y-158875433D01*
X123872315Y-158867626D01*
X123876896Y-158853530D01*
X123916712Y-158784565D01*
X123951348Y-158719767D01*
X123960710Y-158708359D01*
X123971076Y-158690405D01*
X124020416Y-158635607D01*
X124063324Y-158583324D01*
X124079291Y-158570219D01*
X124097113Y-158550427D01*
X124152002Y-158510546D01*
X124199767Y-158471348D01*
X124223180Y-158458833D01*
X124249500Y-158439711D01*
X124306109Y-158414506D01*
X124355433Y-158388143D01*
X124386471Y-158378727D01*
X124421576Y-158363098D01*
X124476430Y-158351438D01*
X124524340Y-158336905D01*
X124562476Y-158333148D01*
X124605820Y-158323936D01*
X124656016Y-158323936D01*
X124700000Y-158319604D01*
X124743983Y-158323936D01*
G37*
G36*
X87450938Y-155554017D02*
G01*
X87496923Y-155554017D01*
X87548139Y-155563590D01*
X87605040Y-155569195D01*
X87648261Y-155582306D01*
X87687474Y-155589636D01*
X87741785Y-155610676D01*
X87802200Y-155629003D01*
X87836720Y-155647454D01*
X87868232Y-155659662D01*
X87922977Y-155693559D01*
X87983904Y-155726125D01*
X88009506Y-155747136D01*
X88033048Y-155761713D01*
X88085212Y-155809267D01*
X88143169Y-155856831D01*
X88160342Y-155877757D01*
X88176301Y-155892305D01*
X88222629Y-155953653D01*
X88273875Y-156016096D01*
X88283783Y-156034634D01*
X88293122Y-156047000D01*
X88330274Y-156121613D01*
X88370997Y-156197800D01*
X88375340Y-156212117D01*
X88379528Y-156220528D01*
X88404267Y-156307476D01*
X88430805Y-156394960D01*
X88431676Y-156403811D01*
X88432577Y-156406975D01*
X88441938Y-156508002D01*
X88451000Y-156600000D01*
X88441938Y-156692005D01*
X88432577Y-156793024D01*
X88431676Y-156796187D01*
X88430805Y-156805040D01*
X88404262Y-156892538D01*
X88379528Y-156979471D01*
X88375341Y-156987879D01*
X88370997Y-157002200D01*
X88330267Y-157078399D01*
X88293122Y-157152999D01*
X88283785Y-157165362D01*
X88273875Y-157183904D01*
X88222620Y-157246357D01*
X88176301Y-157307694D01*
X88160345Y-157322238D01*
X88143169Y-157343169D01*
X88085201Y-157390741D01*
X88033048Y-157438286D01*
X88009511Y-157452859D01*
X87983904Y-157473875D01*
X87922965Y-157506447D01*
X87868232Y-157540337D01*
X87836726Y-157552542D01*
X87802200Y-157570997D01*
X87741773Y-157589327D01*
X87687474Y-157610363D01*
X87648268Y-157617691D01*
X87605040Y-157630805D01*
X87548136Y-157636409D01*
X87496923Y-157645983D01*
X87450938Y-157645983D01*
X87400000Y-157651000D01*
X87349062Y-157645983D01*
X87303077Y-157645983D01*
X87251863Y-157636409D01*
X87194960Y-157630805D01*
X87151732Y-157617692D01*
X87112525Y-157610363D01*
X87058221Y-157589325D01*
X86997800Y-157570997D01*
X86963275Y-157552543D01*
X86931767Y-157540337D01*
X86877027Y-157506443D01*
X86816096Y-157473875D01*
X86790491Y-157452861D01*
X86766951Y-157438286D01*
X86714788Y-157390733D01*
X86656831Y-157343169D01*
X86639656Y-157322242D01*
X86623698Y-157307694D01*
X86577367Y-157246342D01*
X86526125Y-157183904D01*
X86516216Y-157165366D01*
X86506877Y-157152999D01*
X86469717Y-157078372D01*
X86429003Y-157002200D01*
X86424660Y-156987884D01*
X86420471Y-156979471D01*
X86395721Y-156892485D01*
X86369195Y-156805040D01*
X86368323Y-156796192D01*
X86367422Y-156793024D01*
X86358044Y-156691833D01*
X86349000Y-156600000D01*
X86358044Y-156508173D01*
X86367422Y-156406975D01*
X86368323Y-156403805D01*
X86369195Y-156394960D01*
X86395716Y-156307529D01*
X86420471Y-156220528D01*
X86424661Y-156212112D01*
X86429003Y-156197800D01*
X86469710Y-156121641D01*
X86506877Y-156047000D01*
X86516218Y-156034629D01*
X86526125Y-156016096D01*
X86577357Y-155953668D01*
X86623698Y-155892305D01*
X86639660Y-155877753D01*
X86656831Y-155856831D01*
X86714777Y-155809275D01*
X86766951Y-155761713D01*
X86790496Y-155747134D01*
X86816096Y-155726125D01*
X86877015Y-155693563D01*
X86931767Y-155659662D01*
X86963282Y-155647452D01*
X86997800Y-155629003D01*
X87058209Y-155610677D01*
X87112525Y-155589636D01*
X87151739Y-155582305D01*
X87194960Y-155569195D01*
X87251860Y-155563590D01*
X87303077Y-155554017D01*
X87349062Y-155554017D01*
X87400000Y-155549000D01*
X87450938Y-155554017D01*
G37*
G36*
X93950938Y-155554017D02*
G01*
X93996923Y-155554017D01*
X94048139Y-155563590D01*
X94105040Y-155569195D01*
X94148261Y-155582306D01*
X94187474Y-155589636D01*
X94241785Y-155610676D01*
X94302200Y-155629003D01*
X94336720Y-155647454D01*
X94368232Y-155659662D01*
X94422977Y-155693559D01*
X94483904Y-155726125D01*
X94509506Y-155747136D01*
X94533048Y-155761713D01*
X94585212Y-155809267D01*
X94643169Y-155856831D01*
X94660342Y-155877757D01*
X94676301Y-155892305D01*
X94722629Y-155953653D01*
X94773875Y-156016096D01*
X94783783Y-156034634D01*
X94793122Y-156047000D01*
X94830274Y-156121613D01*
X94870997Y-156197800D01*
X94875340Y-156212117D01*
X94879528Y-156220528D01*
X94904267Y-156307476D01*
X94930805Y-156394960D01*
X94931676Y-156403811D01*
X94932577Y-156406975D01*
X94941938Y-156508002D01*
X94951000Y-156600000D01*
X94941938Y-156692005D01*
X94932577Y-156793024D01*
X94931676Y-156796187D01*
X94930805Y-156805040D01*
X94904262Y-156892538D01*
X94879528Y-156979471D01*
X94875341Y-156987879D01*
X94870997Y-157002200D01*
X94830267Y-157078399D01*
X94793122Y-157152999D01*
X94783785Y-157165362D01*
X94773875Y-157183904D01*
X94722620Y-157246357D01*
X94676301Y-157307694D01*
X94660345Y-157322238D01*
X94643169Y-157343169D01*
X94585201Y-157390741D01*
X94533048Y-157438286D01*
X94509511Y-157452859D01*
X94483904Y-157473875D01*
X94422965Y-157506447D01*
X94368232Y-157540337D01*
X94336726Y-157552542D01*
X94302200Y-157570997D01*
X94241773Y-157589327D01*
X94187474Y-157610363D01*
X94148268Y-157617691D01*
X94105040Y-157630805D01*
X94048136Y-157636409D01*
X93996923Y-157645983D01*
X93950938Y-157645983D01*
X93900000Y-157651000D01*
X93849062Y-157645983D01*
X93803077Y-157645983D01*
X93751863Y-157636409D01*
X93694960Y-157630805D01*
X93651732Y-157617692D01*
X93612525Y-157610363D01*
X93558221Y-157589325D01*
X93497800Y-157570997D01*
X93463275Y-157552543D01*
X93431767Y-157540337D01*
X93377027Y-157506443D01*
X93316096Y-157473875D01*
X93290491Y-157452861D01*
X93266951Y-157438286D01*
X93214788Y-157390733D01*
X93156831Y-157343169D01*
X93139656Y-157322242D01*
X93123698Y-157307694D01*
X93077367Y-157246342D01*
X93026125Y-157183904D01*
X93016216Y-157165366D01*
X93006877Y-157152999D01*
X92969717Y-157078372D01*
X92929003Y-157002200D01*
X92924660Y-156987884D01*
X92920471Y-156979471D01*
X92895721Y-156892485D01*
X92869195Y-156805040D01*
X92868323Y-156796192D01*
X92867422Y-156793024D01*
X92858044Y-156691833D01*
X92849000Y-156600000D01*
X92858044Y-156508173D01*
X92867422Y-156406975D01*
X92868323Y-156403805D01*
X92869195Y-156394960D01*
X92895716Y-156307529D01*
X92920471Y-156220528D01*
X92924661Y-156212112D01*
X92929003Y-156197800D01*
X92969710Y-156121641D01*
X93006877Y-156047000D01*
X93016218Y-156034629D01*
X93026125Y-156016096D01*
X93077357Y-155953668D01*
X93123698Y-155892305D01*
X93139660Y-155877753D01*
X93156831Y-155856831D01*
X93214777Y-155809275D01*
X93266951Y-155761713D01*
X93290496Y-155747134D01*
X93316096Y-155726125D01*
X93377015Y-155693563D01*
X93431767Y-155659662D01*
X93463282Y-155647452D01*
X93497800Y-155629003D01*
X93558209Y-155610677D01*
X93612525Y-155589636D01*
X93651739Y-155582305D01*
X93694960Y-155569195D01*
X93751860Y-155563590D01*
X93803077Y-155554017D01*
X93849062Y-155554017D01*
X93900000Y-155549000D01*
X93950938Y-155554017D01*
G37*
G36*
X109503983Y-155783936D02*
G01*
X109554180Y-155783936D01*
X109597524Y-155793149D01*
X109635659Y-155796905D01*
X109683566Y-155811437D01*
X109738424Y-155823098D01*
X109773530Y-155838728D01*
X109804566Y-155848143D01*
X109853884Y-155874504D01*
X109910500Y-155899711D01*
X109936822Y-155918835D01*
X109960232Y-155931348D01*
X110007988Y-155970540D01*
X110062887Y-156010427D01*
X110080711Y-156030223D01*
X110096675Y-156043324D01*
X110139572Y-156095594D01*
X110188924Y-156150405D01*
X110199292Y-156168363D01*
X110208651Y-156179767D01*
X110243273Y-156244542D01*
X110283104Y-156313530D01*
X110287685Y-156327630D01*
X110291856Y-156335433D01*
X110314852Y-156411242D01*
X110341311Y-156492672D01*
X110342242Y-156501532D01*
X110343094Y-156504340D01*
X110351384Y-156588513D01*
X110361000Y-156680000D01*
X110351383Y-156771494D01*
X110343094Y-156855659D01*
X110342242Y-156858466D01*
X110341311Y-156867328D01*
X110314848Y-156948771D01*
X110291856Y-157024566D01*
X110287686Y-157032366D01*
X110283104Y-157046470D01*
X110243266Y-157115470D01*
X110208651Y-157180232D01*
X110199294Y-157191633D01*
X110188924Y-157209595D01*
X110139563Y-157264415D01*
X110096675Y-157316675D01*
X110080714Y-157329773D01*
X110062887Y-157349573D01*
X110007977Y-157389467D01*
X109960232Y-157428651D01*
X109936827Y-157441161D01*
X109910500Y-157460289D01*
X109853873Y-157485500D01*
X109804566Y-157511856D01*
X109773537Y-157521268D01*
X109738424Y-157536902D01*
X109683555Y-157548564D01*
X109635659Y-157563094D01*
X109597532Y-157566849D01*
X109554180Y-157576064D01*
X109503973Y-157576064D01*
X109460000Y-157580395D01*
X109416027Y-157576064D01*
X109365820Y-157576064D01*
X109322467Y-157566849D01*
X109284340Y-157563094D01*
X109236441Y-157548563D01*
X109181576Y-157536902D01*
X109146464Y-157521269D01*
X109115433Y-157511856D01*
X109066120Y-157485498D01*
X109009500Y-157460289D01*
X108983175Y-157441163D01*
X108959767Y-157428651D01*
X108912013Y-157389460D01*
X108857113Y-157349573D01*
X108839287Y-157329776D01*
X108823324Y-157316675D01*
X108780425Y-157264402D01*
X108731076Y-157209595D01*
X108720708Y-157191637D01*
X108711348Y-157180232D01*
X108676719Y-157115447D01*
X108636896Y-157046470D01*
X108632315Y-157032371D01*
X108628143Y-157024566D01*
X108605136Y-156948725D01*
X108578689Y-156867328D01*
X108577758Y-156858471D01*
X108576905Y-156855659D01*
X108568600Y-156771342D01*
X108559000Y-156680000D01*
X108568599Y-156588664D01*
X108576905Y-156504340D01*
X108577758Y-156501527D01*
X108578689Y-156492672D01*
X108605132Y-156411288D01*
X108628143Y-156335433D01*
X108632315Y-156327626D01*
X108636896Y-156313530D01*
X108676712Y-156244565D01*
X108711348Y-156179767D01*
X108720710Y-156168359D01*
X108731076Y-156150405D01*
X108780416Y-156095607D01*
X108823324Y-156043324D01*
X108839291Y-156030219D01*
X108857113Y-156010427D01*
X108912002Y-155970546D01*
X108959767Y-155931348D01*
X108983180Y-155918833D01*
X109009500Y-155899711D01*
X109066109Y-155874506D01*
X109115433Y-155848143D01*
X109146471Y-155838727D01*
X109181576Y-155823098D01*
X109236430Y-155811438D01*
X109284340Y-155796905D01*
X109322476Y-155793148D01*
X109365820Y-155783936D01*
X109416016Y-155783936D01*
X109460000Y-155779604D01*
X109503983Y-155783936D01*
G37*
G36*
X112043983Y-155783936D02*
G01*
X112094180Y-155783936D01*
X112137524Y-155793149D01*
X112175659Y-155796905D01*
X112223566Y-155811437D01*
X112278424Y-155823098D01*
X112313530Y-155838728D01*
X112344566Y-155848143D01*
X112393884Y-155874504D01*
X112450500Y-155899711D01*
X112476822Y-155918835D01*
X112500232Y-155931348D01*
X112547988Y-155970540D01*
X112602887Y-156010427D01*
X112620711Y-156030223D01*
X112636675Y-156043324D01*
X112679572Y-156095594D01*
X112728924Y-156150405D01*
X112739292Y-156168363D01*
X112748651Y-156179767D01*
X112783273Y-156244542D01*
X112823104Y-156313530D01*
X112827685Y-156327630D01*
X112831856Y-156335433D01*
X112854852Y-156411242D01*
X112881311Y-156492672D01*
X112882242Y-156501532D01*
X112883094Y-156504340D01*
X112891384Y-156588513D01*
X112901000Y-156680000D01*
X112891383Y-156771494D01*
X112883094Y-156855659D01*
X112882242Y-156858466D01*
X112881311Y-156867328D01*
X112854848Y-156948771D01*
X112831856Y-157024566D01*
X112827686Y-157032366D01*
X112823104Y-157046470D01*
X112783266Y-157115470D01*
X112748651Y-157180232D01*
X112739294Y-157191633D01*
X112728924Y-157209595D01*
X112679563Y-157264415D01*
X112636675Y-157316675D01*
X112620714Y-157329773D01*
X112602887Y-157349573D01*
X112547977Y-157389467D01*
X112500232Y-157428651D01*
X112476827Y-157441161D01*
X112450500Y-157460289D01*
X112393873Y-157485500D01*
X112344566Y-157511856D01*
X112313537Y-157521268D01*
X112278424Y-157536902D01*
X112223555Y-157548564D01*
X112175659Y-157563094D01*
X112137532Y-157566849D01*
X112094180Y-157576064D01*
X112043973Y-157576064D01*
X112000000Y-157580395D01*
X111956027Y-157576064D01*
X111905820Y-157576064D01*
X111862467Y-157566849D01*
X111824340Y-157563094D01*
X111776441Y-157548563D01*
X111721576Y-157536902D01*
X111686464Y-157521269D01*
X111655433Y-157511856D01*
X111606120Y-157485498D01*
X111549500Y-157460289D01*
X111523175Y-157441163D01*
X111499767Y-157428651D01*
X111452013Y-157389460D01*
X111397113Y-157349573D01*
X111379287Y-157329776D01*
X111363324Y-157316675D01*
X111320425Y-157264402D01*
X111271076Y-157209595D01*
X111260708Y-157191637D01*
X111251348Y-157180232D01*
X111216719Y-157115447D01*
X111176896Y-157046470D01*
X111172315Y-157032371D01*
X111168143Y-157024566D01*
X111145136Y-156948725D01*
X111118689Y-156867328D01*
X111117758Y-156858471D01*
X111116905Y-156855659D01*
X111108600Y-156771342D01*
X111099000Y-156680000D01*
X111108599Y-156588664D01*
X111116905Y-156504340D01*
X111117758Y-156501527D01*
X111118689Y-156492672D01*
X111145132Y-156411288D01*
X111168143Y-156335433D01*
X111172315Y-156327626D01*
X111176896Y-156313530D01*
X111216712Y-156244565D01*
X111251348Y-156179767D01*
X111260710Y-156168359D01*
X111271076Y-156150405D01*
X111320416Y-156095607D01*
X111363324Y-156043324D01*
X111379291Y-156030219D01*
X111397113Y-156010427D01*
X111452002Y-155970546D01*
X111499767Y-155931348D01*
X111523180Y-155918833D01*
X111549500Y-155899711D01*
X111606109Y-155874506D01*
X111655433Y-155848143D01*
X111686471Y-155838727D01*
X111721576Y-155823098D01*
X111776430Y-155811438D01*
X111824340Y-155796905D01*
X111862476Y-155793148D01*
X111905820Y-155783936D01*
X111956016Y-155783936D01*
X112000000Y-155779604D01*
X112043983Y-155783936D01*
G37*
G36*
X114583983Y-155783936D02*
G01*
X114634180Y-155783936D01*
X114677524Y-155793149D01*
X114715659Y-155796905D01*
X114763566Y-155811437D01*
X114818424Y-155823098D01*
X114853530Y-155838728D01*
X114884566Y-155848143D01*
X114933884Y-155874504D01*
X114990500Y-155899711D01*
X115016822Y-155918835D01*
X115040232Y-155931348D01*
X115087988Y-155970540D01*
X115142887Y-156010427D01*
X115160711Y-156030223D01*
X115176675Y-156043324D01*
X115219572Y-156095594D01*
X115268924Y-156150405D01*
X115279292Y-156168363D01*
X115288651Y-156179767D01*
X115323273Y-156244542D01*
X115363104Y-156313530D01*
X115367685Y-156327630D01*
X115371856Y-156335433D01*
X115394852Y-156411242D01*
X115421311Y-156492672D01*
X115422242Y-156501532D01*
X115423094Y-156504340D01*
X115431384Y-156588513D01*
X115441000Y-156680000D01*
X115431383Y-156771494D01*
X115423094Y-156855659D01*
X115422242Y-156858466D01*
X115421311Y-156867328D01*
X115394848Y-156948771D01*
X115371856Y-157024566D01*
X115367686Y-157032366D01*
X115363104Y-157046470D01*
X115323266Y-157115470D01*
X115288651Y-157180232D01*
X115279294Y-157191633D01*
X115268924Y-157209595D01*
X115219563Y-157264415D01*
X115176675Y-157316675D01*
X115160714Y-157329773D01*
X115142887Y-157349573D01*
X115087977Y-157389467D01*
X115040232Y-157428651D01*
X115016827Y-157441161D01*
X114990500Y-157460289D01*
X114933873Y-157485500D01*
X114884566Y-157511856D01*
X114853537Y-157521268D01*
X114818424Y-157536902D01*
X114763555Y-157548564D01*
X114715659Y-157563094D01*
X114677532Y-157566849D01*
X114634180Y-157576064D01*
X114583973Y-157576064D01*
X114540000Y-157580395D01*
X114496027Y-157576064D01*
X114445820Y-157576064D01*
X114402467Y-157566849D01*
X114364340Y-157563094D01*
X114316441Y-157548563D01*
X114261576Y-157536902D01*
X114226464Y-157521269D01*
X114195433Y-157511856D01*
X114146120Y-157485498D01*
X114089500Y-157460289D01*
X114063175Y-157441163D01*
X114039767Y-157428651D01*
X113992013Y-157389460D01*
X113937113Y-157349573D01*
X113919287Y-157329776D01*
X113903324Y-157316675D01*
X113860425Y-157264402D01*
X113811076Y-157209595D01*
X113800708Y-157191637D01*
X113791348Y-157180232D01*
X113756719Y-157115447D01*
X113716896Y-157046470D01*
X113712315Y-157032371D01*
X113708143Y-157024566D01*
X113685136Y-156948725D01*
X113658689Y-156867328D01*
X113657758Y-156858471D01*
X113656905Y-156855659D01*
X113648600Y-156771342D01*
X113639000Y-156680000D01*
X113648599Y-156588664D01*
X113656905Y-156504340D01*
X113657758Y-156501527D01*
X113658689Y-156492672D01*
X113685132Y-156411288D01*
X113708143Y-156335433D01*
X113712315Y-156327626D01*
X113716896Y-156313530D01*
X113756712Y-156244565D01*
X113791348Y-156179767D01*
X113800710Y-156168359D01*
X113811076Y-156150405D01*
X113860416Y-156095607D01*
X113903324Y-156043324D01*
X113919291Y-156030219D01*
X113937113Y-156010427D01*
X113992002Y-155970546D01*
X114039767Y-155931348D01*
X114063180Y-155918833D01*
X114089500Y-155899711D01*
X114146109Y-155874506D01*
X114195433Y-155848143D01*
X114226471Y-155838727D01*
X114261576Y-155823098D01*
X114316430Y-155811438D01*
X114364340Y-155796905D01*
X114402476Y-155793148D01*
X114445820Y-155783936D01*
X114496016Y-155783936D01*
X114540000Y-155779604D01*
X114583983Y-155783936D01*
G37*
G36*
X117123983Y-155783936D02*
G01*
X117174180Y-155783936D01*
X117217524Y-155793149D01*
X117255659Y-155796905D01*
X117303566Y-155811437D01*
X117358424Y-155823098D01*
X117393530Y-155838728D01*
X117424566Y-155848143D01*
X117473884Y-155874504D01*
X117530500Y-155899711D01*
X117556822Y-155918835D01*
X117580232Y-155931348D01*
X117627988Y-155970540D01*
X117682887Y-156010427D01*
X117700711Y-156030223D01*
X117716675Y-156043324D01*
X117759572Y-156095594D01*
X117808924Y-156150405D01*
X117819292Y-156168363D01*
X117828651Y-156179767D01*
X117863273Y-156244542D01*
X117903104Y-156313530D01*
X117907685Y-156327630D01*
X117911856Y-156335433D01*
X117934852Y-156411242D01*
X117961311Y-156492672D01*
X117962242Y-156501532D01*
X117963094Y-156504340D01*
X117971384Y-156588513D01*
X117981000Y-156680000D01*
X117971383Y-156771494D01*
X117963094Y-156855659D01*
X117962242Y-156858466D01*
X117961311Y-156867328D01*
X117934848Y-156948771D01*
X117911856Y-157024566D01*
X117907686Y-157032366D01*
X117903104Y-157046470D01*
X117863266Y-157115470D01*
X117828651Y-157180232D01*
X117819294Y-157191633D01*
X117808924Y-157209595D01*
X117759563Y-157264415D01*
X117716675Y-157316675D01*
X117700714Y-157329773D01*
X117682887Y-157349573D01*
X117627977Y-157389467D01*
X117580232Y-157428651D01*
X117556827Y-157441161D01*
X117530500Y-157460289D01*
X117473873Y-157485500D01*
X117424566Y-157511856D01*
X117393537Y-157521268D01*
X117358424Y-157536902D01*
X117303555Y-157548564D01*
X117255659Y-157563094D01*
X117217532Y-157566849D01*
X117174180Y-157576064D01*
X117123973Y-157576064D01*
X117080000Y-157580395D01*
X117036027Y-157576064D01*
X116985820Y-157576064D01*
X116942467Y-157566849D01*
X116904340Y-157563094D01*
X116856441Y-157548563D01*
X116801576Y-157536902D01*
X116766464Y-157521269D01*
X116735433Y-157511856D01*
X116686120Y-157485498D01*
X116629500Y-157460289D01*
X116603175Y-157441163D01*
X116579767Y-157428651D01*
X116532013Y-157389460D01*
X116477113Y-157349573D01*
X116459287Y-157329776D01*
X116443324Y-157316675D01*
X116400425Y-157264402D01*
X116351076Y-157209595D01*
X116340708Y-157191637D01*
X116331348Y-157180232D01*
X116296719Y-157115447D01*
X116256896Y-157046470D01*
X116252315Y-157032371D01*
X116248143Y-157024566D01*
X116225136Y-156948725D01*
X116198689Y-156867328D01*
X116197758Y-156858471D01*
X116196905Y-156855659D01*
X116188600Y-156771342D01*
X116179000Y-156680000D01*
X116188599Y-156588664D01*
X116196905Y-156504340D01*
X116197758Y-156501527D01*
X116198689Y-156492672D01*
X116225132Y-156411288D01*
X116248143Y-156335433D01*
X116252315Y-156327626D01*
X116256896Y-156313530D01*
X116296712Y-156244565D01*
X116331348Y-156179767D01*
X116340710Y-156168359D01*
X116351076Y-156150405D01*
X116400416Y-156095607D01*
X116443324Y-156043324D01*
X116459291Y-156030219D01*
X116477113Y-156010427D01*
X116532002Y-155970546D01*
X116579767Y-155931348D01*
X116603180Y-155918833D01*
X116629500Y-155899711D01*
X116686109Y-155874506D01*
X116735433Y-155848143D01*
X116766471Y-155838727D01*
X116801576Y-155823098D01*
X116856430Y-155811438D01*
X116904340Y-155796905D01*
X116942476Y-155793148D01*
X116985820Y-155783936D01*
X117036016Y-155783936D01*
X117080000Y-155779604D01*
X117123983Y-155783936D01*
G37*
G36*
X119663983Y-155783936D02*
G01*
X119714180Y-155783936D01*
X119757524Y-155793149D01*
X119795659Y-155796905D01*
X119843566Y-155811437D01*
X119898424Y-155823098D01*
X119933530Y-155838728D01*
X119964566Y-155848143D01*
X120013884Y-155874504D01*
X120070500Y-155899711D01*
X120096822Y-155918835D01*
X120120232Y-155931348D01*
X120167988Y-155970540D01*
X120222887Y-156010427D01*
X120240711Y-156030223D01*
X120256675Y-156043324D01*
X120299572Y-156095594D01*
X120348924Y-156150405D01*
X120359292Y-156168363D01*
X120368651Y-156179767D01*
X120403273Y-156244542D01*
X120443104Y-156313530D01*
X120447685Y-156327630D01*
X120451856Y-156335433D01*
X120474852Y-156411242D01*
X120501311Y-156492672D01*
X120502242Y-156501532D01*
X120503094Y-156504340D01*
X120511384Y-156588513D01*
X120521000Y-156680000D01*
X120511383Y-156771494D01*
X120503094Y-156855659D01*
X120502242Y-156858466D01*
X120501311Y-156867328D01*
X120474848Y-156948771D01*
X120451856Y-157024566D01*
X120447686Y-157032366D01*
X120443104Y-157046470D01*
X120403266Y-157115470D01*
X120368651Y-157180232D01*
X120359294Y-157191633D01*
X120348924Y-157209595D01*
X120299563Y-157264415D01*
X120256675Y-157316675D01*
X120240714Y-157329773D01*
X120222887Y-157349573D01*
X120167977Y-157389467D01*
X120120232Y-157428651D01*
X120096827Y-157441161D01*
X120070500Y-157460289D01*
X120013873Y-157485500D01*
X119964566Y-157511856D01*
X119933537Y-157521268D01*
X119898424Y-157536902D01*
X119843555Y-157548564D01*
X119795659Y-157563094D01*
X119757532Y-157566849D01*
X119714180Y-157576064D01*
X119663973Y-157576064D01*
X119620000Y-157580395D01*
X119576027Y-157576064D01*
X119525820Y-157576064D01*
X119482467Y-157566849D01*
X119444340Y-157563094D01*
X119396441Y-157548563D01*
X119341576Y-157536902D01*
X119306464Y-157521269D01*
X119275433Y-157511856D01*
X119226120Y-157485498D01*
X119169500Y-157460289D01*
X119143175Y-157441163D01*
X119119767Y-157428651D01*
X119072013Y-157389460D01*
X119017113Y-157349573D01*
X118999287Y-157329776D01*
X118983324Y-157316675D01*
X118940425Y-157264402D01*
X118891076Y-157209595D01*
X118880708Y-157191637D01*
X118871348Y-157180232D01*
X118836719Y-157115447D01*
X118796896Y-157046470D01*
X118792315Y-157032371D01*
X118788143Y-157024566D01*
X118765136Y-156948725D01*
X118738689Y-156867328D01*
X118737758Y-156858471D01*
X118736905Y-156855659D01*
X118728600Y-156771342D01*
X118719000Y-156680000D01*
X118728599Y-156588664D01*
X118736905Y-156504340D01*
X118737758Y-156501527D01*
X118738689Y-156492672D01*
X118765132Y-156411288D01*
X118788143Y-156335433D01*
X118792315Y-156327626D01*
X118796896Y-156313530D01*
X118836712Y-156244565D01*
X118871348Y-156179767D01*
X118880710Y-156168359D01*
X118891076Y-156150405D01*
X118940416Y-156095607D01*
X118983324Y-156043324D01*
X118999291Y-156030219D01*
X119017113Y-156010427D01*
X119072002Y-155970546D01*
X119119767Y-155931348D01*
X119143180Y-155918833D01*
X119169500Y-155899711D01*
X119226109Y-155874506D01*
X119275433Y-155848143D01*
X119306471Y-155838727D01*
X119341576Y-155823098D01*
X119396430Y-155811438D01*
X119444340Y-155796905D01*
X119482476Y-155793148D01*
X119525820Y-155783936D01*
X119576016Y-155783936D01*
X119620000Y-155779604D01*
X119663983Y-155783936D01*
G37*
G36*
X122203983Y-155783936D02*
G01*
X122254180Y-155783936D01*
X122297524Y-155793149D01*
X122335659Y-155796905D01*
X122383566Y-155811437D01*
X122438424Y-155823098D01*
X122473530Y-155838728D01*
X122504566Y-155848143D01*
X122553884Y-155874504D01*
X122610500Y-155899711D01*
X122636822Y-155918835D01*
X122660232Y-155931348D01*
X122707988Y-155970540D01*
X122762887Y-156010427D01*
X122780711Y-156030223D01*
X122796675Y-156043324D01*
X122839572Y-156095594D01*
X122888924Y-156150405D01*
X122899292Y-156168363D01*
X122908651Y-156179767D01*
X122943273Y-156244542D01*
X122983104Y-156313530D01*
X122987685Y-156327630D01*
X122991856Y-156335433D01*
X123014852Y-156411242D01*
X123041311Y-156492672D01*
X123042242Y-156501532D01*
X123043094Y-156504340D01*
X123051384Y-156588513D01*
X123061000Y-156680000D01*
X123051383Y-156771494D01*
X123043094Y-156855659D01*
X123042242Y-156858466D01*
X123041311Y-156867328D01*
X123014848Y-156948771D01*
X122991856Y-157024566D01*
X122987686Y-157032366D01*
X122983104Y-157046470D01*
X122943266Y-157115470D01*
X122908651Y-157180232D01*
X122899294Y-157191633D01*
X122888924Y-157209595D01*
X122839563Y-157264415D01*
X122796675Y-157316675D01*
X122780714Y-157329773D01*
X122762887Y-157349573D01*
X122707977Y-157389467D01*
X122660232Y-157428651D01*
X122636827Y-157441161D01*
X122610500Y-157460289D01*
X122553873Y-157485500D01*
X122504566Y-157511856D01*
X122473537Y-157521268D01*
X122438424Y-157536902D01*
X122383555Y-157548564D01*
X122335659Y-157563094D01*
X122297532Y-157566849D01*
X122254180Y-157576064D01*
X122203973Y-157576064D01*
X122160000Y-157580395D01*
X122116027Y-157576064D01*
X122065820Y-157576064D01*
X122022467Y-157566849D01*
X121984340Y-157563094D01*
X121936441Y-157548563D01*
X121881576Y-157536902D01*
X121846464Y-157521269D01*
X121815433Y-157511856D01*
X121766120Y-157485498D01*
X121709500Y-157460289D01*
X121683175Y-157441163D01*
X121659767Y-157428651D01*
X121612013Y-157389460D01*
X121557113Y-157349573D01*
X121539287Y-157329776D01*
X121523324Y-157316675D01*
X121480425Y-157264402D01*
X121431076Y-157209595D01*
X121420708Y-157191637D01*
X121411348Y-157180232D01*
X121376719Y-157115447D01*
X121336896Y-157046470D01*
X121332315Y-157032371D01*
X121328143Y-157024566D01*
X121305136Y-156948725D01*
X121278689Y-156867328D01*
X121277758Y-156858471D01*
X121276905Y-156855659D01*
X121268600Y-156771342D01*
X121259000Y-156680000D01*
X121268599Y-156588664D01*
X121276905Y-156504340D01*
X121277758Y-156501527D01*
X121278689Y-156492672D01*
X121305132Y-156411288D01*
X121328143Y-156335433D01*
X121332315Y-156327626D01*
X121336896Y-156313530D01*
X121376712Y-156244565D01*
X121411348Y-156179767D01*
X121420710Y-156168359D01*
X121431076Y-156150405D01*
X121480416Y-156095607D01*
X121523324Y-156043324D01*
X121539291Y-156030219D01*
X121557113Y-156010427D01*
X121612002Y-155970546D01*
X121659767Y-155931348D01*
X121683180Y-155918833D01*
X121709500Y-155899711D01*
X121766109Y-155874506D01*
X121815433Y-155848143D01*
X121846471Y-155838727D01*
X121881576Y-155823098D01*
X121936430Y-155811438D01*
X121984340Y-155796905D01*
X122022476Y-155793148D01*
X122065820Y-155783936D01*
X122116016Y-155783936D01*
X122160000Y-155779604D01*
X122203983Y-155783936D01*
G37*
G36*
X124743983Y-155783936D02*
G01*
X124794180Y-155783936D01*
X124837524Y-155793149D01*
X124875659Y-155796905D01*
X124923566Y-155811437D01*
X124978424Y-155823098D01*
X125013530Y-155838728D01*
X125044566Y-155848143D01*
X125093884Y-155874504D01*
X125150500Y-155899711D01*
X125176822Y-155918835D01*
X125200232Y-155931348D01*
X125247988Y-155970540D01*
X125302887Y-156010427D01*
X125320711Y-156030223D01*
X125336675Y-156043324D01*
X125379572Y-156095594D01*
X125428924Y-156150405D01*
X125439292Y-156168363D01*
X125448651Y-156179767D01*
X125483273Y-156244542D01*
X125523104Y-156313530D01*
X125527685Y-156327630D01*
X125531856Y-156335433D01*
X125554852Y-156411242D01*
X125581311Y-156492672D01*
X125582242Y-156501532D01*
X125583094Y-156504340D01*
X125591384Y-156588513D01*
X125601000Y-156680000D01*
X125591383Y-156771494D01*
X125583094Y-156855659D01*
X125582242Y-156858466D01*
X125581311Y-156867328D01*
X125554848Y-156948771D01*
X125531856Y-157024566D01*
X125527686Y-157032366D01*
X125523104Y-157046470D01*
X125483266Y-157115470D01*
X125448651Y-157180232D01*
X125439294Y-157191633D01*
X125428924Y-157209595D01*
X125379563Y-157264415D01*
X125336675Y-157316675D01*
X125320714Y-157329773D01*
X125302887Y-157349573D01*
X125247977Y-157389467D01*
X125200232Y-157428651D01*
X125176827Y-157441161D01*
X125150500Y-157460289D01*
X125093873Y-157485500D01*
X125044566Y-157511856D01*
X125013537Y-157521268D01*
X124978424Y-157536902D01*
X124923555Y-157548564D01*
X124875659Y-157563094D01*
X124837532Y-157566849D01*
X124794180Y-157576064D01*
X124743973Y-157576064D01*
X124700000Y-157580395D01*
X124656027Y-157576064D01*
X124605820Y-157576064D01*
X124562467Y-157566849D01*
X124524340Y-157563094D01*
X124476441Y-157548563D01*
X124421576Y-157536902D01*
X124386464Y-157521269D01*
X124355433Y-157511856D01*
X124306120Y-157485498D01*
X124249500Y-157460289D01*
X124223175Y-157441163D01*
X124199767Y-157428651D01*
X124152013Y-157389460D01*
X124097113Y-157349573D01*
X124079287Y-157329776D01*
X124063324Y-157316675D01*
X124020425Y-157264402D01*
X123971076Y-157209595D01*
X123960708Y-157191637D01*
X123951348Y-157180232D01*
X123916719Y-157115447D01*
X123876896Y-157046470D01*
X123872315Y-157032371D01*
X123868143Y-157024566D01*
X123845136Y-156948725D01*
X123818689Y-156867328D01*
X123817758Y-156858471D01*
X123816905Y-156855659D01*
X123808600Y-156771342D01*
X123799000Y-156680000D01*
X123808599Y-156588664D01*
X123816905Y-156504340D01*
X123817758Y-156501527D01*
X123818689Y-156492672D01*
X123845132Y-156411288D01*
X123868143Y-156335433D01*
X123872315Y-156327626D01*
X123876896Y-156313530D01*
X123916712Y-156244565D01*
X123951348Y-156179767D01*
X123960710Y-156168359D01*
X123971076Y-156150405D01*
X124020416Y-156095607D01*
X124063324Y-156043324D01*
X124079291Y-156030219D01*
X124097113Y-156010427D01*
X124152002Y-155970546D01*
X124199767Y-155931348D01*
X124223180Y-155918833D01*
X124249500Y-155899711D01*
X124306109Y-155874506D01*
X124355433Y-155848143D01*
X124386471Y-155838727D01*
X124421576Y-155823098D01*
X124476430Y-155811438D01*
X124524340Y-155796905D01*
X124562476Y-155793148D01*
X124605820Y-155783936D01*
X124656016Y-155783936D01*
X124700000Y-155779604D01*
X124743983Y-155783936D01*
G37*
G36*
X130750938Y-154154017D02*
G01*
X130796923Y-154154017D01*
X130848139Y-154163590D01*
X130905040Y-154169195D01*
X130948261Y-154182306D01*
X130987474Y-154189636D01*
X131041785Y-154210676D01*
X131102200Y-154229003D01*
X131136720Y-154247454D01*
X131168232Y-154259662D01*
X131222977Y-154293559D01*
X131283904Y-154326125D01*
X131309506Y-154347136D01*
X131333048Y-154361713D01*
X131385212Y-154409267D01*
X131443169Y-154456831D01*
X131460342Y-154477757D01*
X131476301Y-154492305D01*
X131522629Y-154553653D01*
X131573875Y-154616096D01*
X131583783Y-154634634D01*
X131593122Y-154647000D01*
X131630274Y-154721613D01*
X131670997Y-154797800D01*
X131675340Y-154812117D01*
X131679528Y-154820528D01*
X131704267Y-154907476D01*
X131730805Y-154994960D01*
X131731676Y-155003811D01*
X131732577Y-155006975D01*
X131741938Y-155108002D01*
X131751000Y-155200000D01*
X131741938Y-155292005D01*
X131732577Y-155393024D01*
X131731676Y-155396187D01*
X131730805Y-155405040D01*
X131704262Y-155492538D01*
X131679528Y-155579471D01*
X131675341Y-155587879D01*
X131670997Y-155602200D01*
X131630267Y-155678399D01*
X131593122Y-155752999D01*
X131583785Y-155765362D01*
X131573875Y-155783904D01*
X131522620Y-155846357D01*
X131476301Y-155907694D01*
X131460345Y-155922238D01*
X131443169Y-155943169D01*
X131385201Y-155990741D01*
X131333048Y-156038286D01*
X131309511Y-156052859D01*
X131283904Y-156073875D01*
X131222965Y-156106447D01*
X131168232Y-156140337D01*
X131136726Y-156152542D01*
X131102200Y-156170997D01*
X131041773Y-156189327D01*
X130987474Y-156210363D01*
X130948268Y-156217691D01*
X130905040Y-156230805D01*
X130848136Y-156236409D01*
X130796923Y-156245983D01*
X130750938Y-156245983D01*
X130700000Y-156251000D01*
X130649062Y-156245983D01*
X130603077Y-156245983D01*
X130551863Y-156236409D01*
X130494960Y-156230805D01*
X130451732Y-156217692D01*
X130412525Y-156210363D01*
X130358221Y-156189325D01*
X130297800Y-156170997D01*
X130263275Y-156152543D01*
X130231767Y-156140337D01*
X130177027Y-156106443D01*
X130116096Y-156073875D01*
X130090491Y-156052861D01*
X130066951Y-156038286D01*
X130014788Y-155990733D01*
X129956831Y-155943169D01*
X129939656Y-155922242D01*
X129923698Y-155907694D01*
X129877367Y-155846342D01*
X129826125Y-155783904D01*
X129816216Y-155765366D01*
X129806877Y-155752999D01*
X129769717Y-155678372D01*
X129729003Y-155602200D01*
X129724660Y-155587884D01*
X129720471Y-155579471D01*
X129695721Y-155492485D01*
X129669195Y-155405040D01*
X129668323Y-155396192D01*
X129667422Y-155393024D01*
X129658044Y-155291833D01*
X129649000Y-155200000D01*
X129658044Y-155108173D01*
X129667422Y-155006975D01*
X129668323Y-155003805D01*
X129669195Y-154994960D01*
X129695716Y-154907529D01*
X129720471Y-154820528D01*
X129724661Y-154812112D01*
X129729003Y-154797800D01*
X129769710Y-154721641D01*
X129806877Y-154647000D01*
X129816218Y-154634629D01*
X129826125Y-154616096D01*
X129877357Y-154553668D01*
X129923698Y-154492305D01*
X129939660Y-154477753D01*
X129956831Y-154456831D01*
X130014777Y-154409275D01*
X130066951Y-154361713D01*
X130090496Y-154347134D01*
X130116096Y-154326125D01*
X130177015Y-154293563D01*
X130231767Y-154259662D01*
X130263282Y-154247452D01*
X130297800Y-154229003D01*
X130358209Y-154210677D01*
X130412525Y-154189636D01*
X130451739Y-154182305D01*
X130494960Y-154169195D01*
X130551860Y-154163590D01*
X130603077Y-154154017D01*
X130649062Y-154154017D01*
X130700000Y-154149000D01*
X130750938Y-154154017D01*
G37*
G36*
X137250938Y-154154017D02*
G01*
X137296923Y-154154017D01*
X137348139Y-154163590D01*
X137405040Y-154169195D01*
X137448261Y-154182306D01*
X137487474Y-154189636D01*
X137541785Y-154210676D01*
X137602200Y-154229003D01*
X137636720Y-154247454D01*
X137668232Y-154259662D01*
X137722977Y-154293559D01*
X137783904Y-154326125D01*
X137809506Y-154347136D01*
X137833048Y-154361713D01*
X137885212Y-154409267D01*
X137943169Y-154456831D01*
X137960342Y-154477757D01*
X137976301Y-154492305D01*
X138022629Y-154553653D01*
X138073875Y-154616096D01*
X138083783Y-154634634D01*
X138093122Y-154647000D01*
X138130274Y-154721613D01*
X138170997Y-154797800D01*
X138175340Y-154812117D01*
X138179528Y-154820528D01*
X138204267Y-154907476D01*
X138230805Y-154994960D01*
X138231676Y-155003811D01*
X138232577Y-155006975D01*
X138241938Y-155108002D01*
X138251000Y-155200000D01*
X138241938Y-155292005D01*
X138232577Y-155393024D01*
X138231676Y-155396187D01*
X138230805Y-155405040D01*
X138204262Y-155492538D01*
X138179528Y-155579471D01*
X138175341Y-155587879D01*
X138170997Y-155602200D01*
X138130267Y-155678399D01*
X138093122Y-155752999D01*
X138083785Y-155765362D01*
X138073875Y-155783904D01*
X138022620Y-155846357D01*
X137976301Y-155907694D01*
X137960345Y-155922238D01*
X137943169Y-155943169D01*
X137885201Y-155990741D01*
X137833048Y-156038286D01*
X137809511Y-156052859D01*
X137783904Y-156073875D01*
X137722965Y-156106447D01*
X137668232Y-156140337D01*
X137636726Y-156152542D01*
X137602200Y-156170997D01*
X137541773Y-156189327D01*
X137487474Y-156210363D01*
X137448268Y-156217691D01*
X137405040Y-156230805D01*
X137348136Y-156236409D01*
X137296923Y-156245983D01*
X137250938Y-156245983D01*
X137200000Y-156251000D01*
X137149062Y-156245983D01*
X137103077Y-156245983D01*
X137051863Y-156236409D01*
X136994960Y-156230805D01*
X136951732Y-156217692D01*
X136912525Y-156210363D01*
X136858221Y-156189325D01*
X136797800Y-156170997D01*
X136763275Y-156152543D01*
X136731767Y-156140337D01*
X136677027Y-156106443D01*
X136616096Y-156073875D01*
X136590491Y-156052861D01*
X136566951Y-156038286D01*
X136514788Y-155990733D01*
X136456831Y-155943169D01*
X136439656Y-155922242D01*
X136423698Y-155907694D01*
X136377367Y-155846342D01*
X136326125Y-155783904D01*
X136316216Y-155765366D01*
X136306877Y-155752999D01*
X136269717Y-155678372D01*
X136229003Y-155602200D01*
X136224660Y-155587884D01*
X136220471Y-155579471D01*
X136195721Y-155492485D01*
X136169195Y-155405040D01*
X136168323Y-155396192D01*
X136167422Y-155393024D01*
X136158044Y-155291833D01*
X136149000Y-155200000D01*
X136158044Y-155108173D01*
X136167422Y-155006975D01*
X136168323Y-155003805D01*
X136169195Y-154994960D01*
X136195716Y-154907529D01*
X136220471Y-154820528D01*
X136224661Y-154812112D01*
X136229003Y-154797800D01*
X136269710Y-154721641D01*
X136306877Y-154647000D01*
X136316218Y-154634629D01*
X136326125Y-154616096D01*
X136377357Y-154553668D01*
X136423698Y-154492305D01*
X136439660Y-154477753D01*
X136456831Y-154456831D01*
X136514777Y-154409275D01*
X136566951Y-154361713D01*
X136590496Y-154347134D01*
X136616096Y-154326125D01*
X136677015Y-154293563D01*
X136731767Y-154259662D01*
X136763282Y-154247452D01*
X136797800Y-154229003D01*
X136858209Y-154210677D01*
X136912525Y-154189636D01*
X136951739Y-154182305D01*
X136994960Y-154169195D01*
X137051860Y-154163590D01*
X137103077Y-154154017D01*
X137149062Y-154154017D01*
X137200000Y-154149000D01*
X137250938Y-154154017D01*
G37*
G36*
X87450938Y-151054017D02*
G01*
X87496923Y-151054017D01*
X87548139Y-151063590D01*
X87605040Y-151069195D01*
X87648261Y-151082306D01*
X87687474Y-151089636D01*
X87741785Y-151110676D01*
X87802200Y-151129003D01*
X87836720Y-151147454D01*
X87868232Y-151159662D01*
X87922977Y-151193559D01*
X87983904Y-151226125D01*
X88009506Y-151247136D01*
X88033048Y-151261713D01*
X88085212Y-151309267D01*
X88143169Y-151356831D01*
X88160342Y-151377757D01*
X88176301Y-151392305D01*
X88222629Y-151453653D01*
X88273875Y-151516096D01*
X88283783Y-151534634D01*
X88293122Y-151547000D01*
X88330274Y-151621613D01*
X88370997Y-151697800D01*
X88375340Y-151712117D01*
X88379528Y-151720528D01*
X88404267Y-151807476D01*
X88430805Y-151894960D01*
X88431676Y-151903811D01*
X88432577Y-151906975D01*
X88441938Y-152008002D01*
X88451000Y-152100000D01*
X88441938Y-152192005D01*
X88432577Y-152293024D01*
X88431676Y-152296187D01*
X88430805Y-152305040D01*
X88404262Y-152392538D01*
X88379528Y-152479471D01*
X88375341Y-152487879D01*
X88370997Y-152502200D01*
X88330267Y-152578399D01*
X88293122Y-152652999D01*
X88283785Y-152665362D01*
X88273875Y-152683904D01*
X88222620Y-152746357D01*
X88176301Y-152807694D01*
X88160345Y-152822238D01*
X88143169Y-152843169D01*
X88085201Y-152890741D01*
X88033048Y-152938286D01*
X88009511Y-152952859D01*
X87983904Y-152973875D01*
X87922965Y-153006447D01*
X87868232Y-153040337D01*
X87836726Y-153052542D01*
X87802200Y-153070997D01*
X87741773Y-153089327D01*
X87687474Y-153110363D01*
X87648268Y-153117691D01*
X87605040Y-153130805D01*
X87548136Y-153136409D01*
X87496923Y-153145983D01*
X87450938Y-153145983D01*
X87400000Y-153151000D01*
X87349062Y-153145983D01*
X87303077Y-153145983D01*
X87251863Y-153136409D01*
X87194960Y-153130805D01*
X87151732Y-153117692D01*
X87112525Y-153110363D01*
X87058221Y-153089325D01*
X86997800Y-153070997D01*
X86963275Y-153052543D01*
X86931767Y-153040337D01*
X86877027Y-153006443D01*
X86816096Y-152973875D01*
X86790491Y-152952861D01*
X86766951Y-152938286D01*
X86714788Y-152890733D01*
X86656831Y-152843169D01*
X86639656Y-152822242D01*
X86623698Y-152807694D01*
X86577367Y-152746342D01*
X86526125Y-152683904D01*
X86516216Y-152665366D01*
X86506877Y-152652999D01*
X86469717Y-152578372D01*
X86429003Y-152502200D01*
X86424660Y-152487884D01*
X86420471Y-152479471D01*
X86395721Y-152392485D01*
X86369195Y-152305040D01*
X86368323Y-152296192D01*
X86367422Y-152293024D01*
X86358044Y-152191833D01*
X86349000Y-152100000D01*
X86358044Y-152008173D01*
X86367422Y-151906975D01*
X86368323Y-151903805D01*
X86369195Y-151894960D01*
X86395716Y-151807529D01*
X86420471Y-151720528D01*
X86424661Y-151712112D01*
X86429003Y-151697800D01*
X86469710Y-151621641D01*
X86506877Y-151547000D01*
X86516218Y-151534629D01*
X86526125Y-151516096D01*
X86577357Y-151453668D01*
X86623698Y-151392305D01*
X86639660Y-151377753D01*
X86656831Y-151356831D01*
X86714777Y-151309275D01*
X86766951Y-151261713D01*
X86790496Y-151247134D01*
X86816096Y-151226125D01*
X86877015Y-151193563D01*
X86931767Y-151159662D01*
X86963282Y-151147452D01*
X86997800Y-151129003D01*
X87058209Y-151110677D01*
X87112525Y-151089636D01*
X87151739Y-151082305D01*
X87194960Y-151069195D01*
X87251860Y-151063590D01*
X87303077Y-151054017D01*
X87349062Y-151054017D01*
X87400000Y-151049000D01*
X87450938Y-151054017D01*
G37*
G36*
X93950938Y-151054017D02*
G01*
X93996923Y-151054017D01*
X94048139Y-151063590D01*
X94105040Y-151069195D01*
X94148261Y-151082306D01*
X94187474Y-151089636D01*
X94241785Y-151110676D01*
X94302200Y-151129003D01*
X94336720Y-151147454D01*
X94368232Y-151159662D01*
X94422977Y-151193559D01*
X94483904Y-151226125D01*
X94509506Y-151247136D01*
X94533048Y-151261713D01*
X94585212Y-151309267D01*
X94643169Y-151356831D01*
X94660342Y-151377757D01*
X94676301Y-151392305D01*
X94722629Y-151453653D01*
X94773875Y-151516096D01*
X94783783Y-151534634D01*
X94793122Y-151547000D01*
X94830274Y-151621613D01*
X94870997Y-151697800D01*
X94875340Y-151712117D01*
X94879528Y-151720528D01*
X94904267Y-151807476D01*
X94930805Y-151894960D01*
X94931676Y-151903811D01*
X94932577Y-151906975D01*
X94941938Y-152008002D01*
X94951000Y-152100000D01*
X94941938Y-152192005D01*
X94932577Y-152293024D01*
X94931676Y-152296187D01*
X94930805Y-152305040D01*
X94904262Y-152392538D01*
X94879528Y-152479471D01*
X94875341Y-152487879D01*
X94870997Y-152502200D01*
X94830267Y-152578399D01*
X94793122Y-152652999D01*
X94783785Y-152665362D01*
X94773875Y-152683904D01*
X94722620Y-152746357D01*
X94676301Y-152807694D01*
X94660345Y-152822238D01*
X94643169Y-152843169D01*
X94585201Y-152890741D01*
X94533048Y-152938286D01*
X94509511Y-152952859D01*
X94483904Y-152973875D01*
X94422965Y-153006447D01*
X94368232Y-153040337D01*
X94336726Y-153052542D01*
X94302200Y-153070997D01*
X94241773Y-153089327D01*
X94187474Y-153110363D01*
X94148268Y-153117691D01*
X94105040Y-153130805D01*
X94048136Y-153136409D01*
X93996923Y-153145983D01*
X93950938Y-153145983D01*
X93900000Y-153151000D01*
X93849062Y-153145983D01*
X93803077Y-153145983D01*
X93751863Y-153136409D01*
X93694960Y-153130805D01*
X93651732Y-153117692D01*
X93612525Y-153110363D01*
X93558221Y-153089325D01*
X93497800Y-153070997D01*
X93463275Y-153052543D01*
X93431767Y-153040337D01*
X93377027Y-153006443D01*
X93316096Y-152973875D01*
X93290491Y-152952861D01*
X93266951Y-152938286D01*
X93214788Y-152890733D01*
X93156831Y-152843169D01*
X93139656Y-152822242D01*
X93123698Y-152807694D01*
X93077367Y-152746342D01*
X93026125Y-152683904D01*
X93016216Y-152665366D01*
X93006877Y-152652999D01*
X92969717Y-152578372D01*
X92929003Y-152502200D01*
X92924660Y-152487884D01*
X92920471Y-152479471D01*
X92895721Y-152392485D01*
X92869195Y-152305040D01*
X92868323Y-152296192D01*
X92867422Y-152293024D01*
X92858044Y-152191833D01*
X92849000Y-152100000D01*
X92858044Y-152008173D01*
X92867422Y-151906975D01*
X92868323Y-151903805D01*
X92869195Y-151894960D01*
X92895716Y-151807529D01*
X92920471Y-151720528D01*
X92924661Y-151712112D01*
X92929003Y-151697800D01*
X92969710Y-151621641D01*
X93006877Y-151547000D01*
X93016218Y-151534629D01*
X93026125Y-151516096D01*
X93077357Y-151453668D01*
X93123698Y-151392305D01*
X93139660Y-151377753D01*
X93156831Y-151356831D01*
X93214777Y-151309275D01*
X93266951Y-151261713D01*
X93290496Y-151247134D01*
X93316096Y-151226125D01*
X93377015Y-151193563D01*
X93431767Y-151159662D01*
X93463282Y-151147452D01*
X93497800Y-151129003D01*
X93558209Y-151110677D01*
X93612525Y-151089636D01*
X93651739Y-151082305D01*
X93694960Y-151069195D01*
X93751860Y-151063590D01*
X93803077Y-151054017D01*
X93849062Y-151054017D01*
X93900000Y-151049000D01*
X93950938Y-151054017D01*
G37*
G36*
X81941377Y-144378662D02*
G01*
X81975818Y-144378662D01*
X82014668Y-144386919D01*
X82061550Y-144392202D01*
X82095638Y-144404130D01*
X82124134Y-144410187D01*
X82165203Y-144428472D01*
X82215000Y-144445897D01*
X82240919Y-144462183D01*
X82262654Y-144471860D01*
X82303175Y-144501300D01*
X82352654Y-144532390D01*
X82370424Y-144550160D01*
X82385327Y-144560988D01*
X82422173Y-144601909D01*
X82467610Y-144647346D01*
X82478058Y-144663975D01*
X82486788Y-144673670D01*
X82516650Y-144725393D01*
X82554103Y-144785000D01*
X82558779Y-144798365D01*
X82562605Y-144804991D01*
X82582194Y-144865281D01*
X82607798Y-144938450D01*
X82608768Y-144947065D01*
X82609462Y-144949199D01*
X82615748Y-145009009D01*
X82626000Y-145100000D01*
X82615747Y-145190998D01*
X82609462Y-145250800D01*
X82608768Y-145252933D01*
X82607798Y-145261550D01*
X82582190Y-145334731D01*
X82562605Y-145395008D01*
X82558780Y-145401631D01*
X82554103Y-145415000D01*
X82516643Y-145474617D01*
X82486788Y-145526329D01*
X82478061Y-145536021D01*
X82467610Y-145552654D01*
X82422164Y-145598099D01*
X82385327Y-145639011D01*
X82370428Y-145649835D01*
X82352654Y-145667610D01*
X82303165Y-145698705D01*
X82262654Y-145728139D01*
X82240925Y-145737813D01*
X82215000Y-145754103D01*
X82165192Y-145771531D01*
X82124134Y-145789812D01*
X82095644Y-145795867D01*
X82061550Y-145807798D01*
X82014666Y-145813080D01*
X81975818Y-145821338D01*
X81941377Y-145821338D01*
X81900000Y-145826000D01*
X81858623Y-145821338D01*
X81824182Y-145821338D01*
X81785333Y-145813080D01*
X81738450Y-145807798D01*
X81704356Y-145795868D01*
X81675865Y-145789812D01*
X81634802Y-145771529D01*
X81585000Y-145754103D01*
X81559077Y-145737814D01*
X81537345Y-145728139D01*
X81496827Y-145698700D01*
X81447346Y-145667610D01*
X81429574Y-145649838D01*
X81414672Y-145639011D01*
X81377825Y-145598089D01*
X81332390Y-145552654D01*
X81321941Y-145536024D01*
X81313211Y-145526329D01*
X81283344Y-145474597D01*
X81245897Y-145415000D01*
X81241220Y-145401636D01*
X81237394Y-145395008D01*
X81217795Y-145334691D01*
X81192202Y-145261550D01*
X81191231Y-145252937D01*
X81190537Y-145250800D01*
X81184238Y-145190866D01*
X81174000Y-145100000D01*
X81184237Y-145009141D01*
X81190537Y-144949199D01*
X81191231Y-144947060D01*
X81192202Y-144938450D01*
X81217791Y-144865321D01*
X81237394Y-144804991D01*
X81241221Y-144798361D01*
X81245897Y-144785000D01*
X81283337Y-144725413D01*
X81313211Y-144673670D01*
X81321943Y-144663971D01*
X81332390Y-144647346D01*
X81377811Y-144601924D01*
X81414673Y-144560986D01*
X81429581Y-144550154D01*
X81447346Y-144532390D01*
X81496811Y-144501308D01*
X81537342Y-144471862D01*
X81559078Y-144462184D01*
X81585000Y-144445897D01*
X81634800Y-144428470D01*
X81675867Y-144410187D01*
X81704360Y-144404130D01*
X81738450Y-144392202D01*
X81785331Y-144386919D01*
X81824182Y-144378662D01*
X81858623Y-144378662D01*
X81900000Y-144374000D01*
X81941377Y-144378662D01*
G37*
G36*
X81941377Y-142378662D02*
G01*
X81975818Y-142378662D01*
X82014668Y-142386919D01*
X82061550Y-142392202D01*
X82095638Y-142404130D01*
X82124134Y-142410187D01*
X82165203Y-142428472D01*
X82215000Y-142445897D01*
X82240919Y-142462183D01*
X82262654Y-142471860D01*
X82303175Y-142501300D01*
X82352654Y-142532390D01*
X82370424Y-142550160D01*
X82385327Y-142560988D01*
X82422173Y-142601909D01*
X82467610Y-142647346D01*
X82478058Y-142663975D01*
X82486788Y-142673670D01*
X82516650Y-142725393D01*
X82554103Y-142785000D01*
X82558779Y-142798365D01*
X82562605Y-142804991D01*
X82582194Y-142865281D01*
X82607798Y-142938450D01*
X82608768Y-142947065D01*
X82609462Y-142949199D01*
X82615748Y-143009009D01*
X82626000Y-143100000D01*
X82615747Y-143190998D01*
X82609462Y-143250800D01*
X82608768Y-143252933D01*
X82607798Y-143261550D01*
X82582190Y-143334731D01*
X82562605Y-143395008D01*
X82558780Y-143401631D01*
X82554103Y-143415000D01*
X82516643Y-143474617D01*
X82486788Y-143526329D01*
X82478061Y-143536021D01*
X82467610Y-143552654D01*
X82422164Y-143598099D01*
X82385327Y-143639011D01*
X82370428Y-143649835D01*
X82352654Y-143667610D01*
X82303165Y-143698705D01*
X82262654Y-143728139D01*
X82240925Y-143737813D01*
X82215000Y-143754103D01*
X82165192Y-143771531D01*
X82124134Y-143789812D01*
X82095644Y-143795867D01*
X82061550Y-143807798D01*
X82014666Y-143813080D01*
X81975818Y-143821338D01*
X81941377Y-143821338D01*
X81900000Y-143826000D01*
X81858623Y-143821338D01*
X81824182Y-143821338D01*
X81785333Y-143813080D01*
X81738450Y-143807798D01*
X81704356Y-143795868D01*
X81675865Y-143789812D01*
X81634802Y-143771529D01*
X81585000Y-143754103D01*
X81559077Y-143737814D01*
X81537345Y-143728139D01*
X81496827Y-143698700D01*
X81447346Y-143667610D01*
X81429574Y-143649838D01*
X81414672Y-143639011D01*
X81377825Y-143598089D01*
X81332390Y-143552654D01*
X81321941Y-143536024D01*
X81313211Y-143526329D01*
X81283344Y-143474597D01*
X81245897Y-143415000D01*
X81241220Y-143401636D01*
X81237394Y-143395008D01*
X81217795Y-143334691D01*
X81192202Y-143261550D01*
X81191231Y-143252937D01*
X81190537Y-143250800D01*
X81184238Y-143190866D01*
X81174000Y-143100000D01*
X81184237Y-143009141D01*
X81190537Y-142949199D01*
X81191231Y-142947060D01*
X81192202Y-142938450D01*
X81217791Y-142865321D01*
X81237394Y-142804991D01*
X81241221Y-142798361D01*
X81245897Y-142785000D01*
X81283337Y-142725413D01*
X81313211Y-142673670D01*
X81321943Y-142663971D01*
X81332390Y-142647346D01*
X81377811Y-142601924D01*
X81414673Y-142560986D01*
X81429581Y-142550154D01*
X81447346Y-142532390D01*
X81496811Y-142501308D01*
X81537342Y-142471862D01*
X81559078Y-142462184D01*
X81585000Y-142445897D01*
X81634800Y-142428470D01*
X81675867Y-142410187D01*
X81704360Y-142404130D01*
X81738450Y-142392202D01*
X81785331Y-142386919D01*
X81824182Y-142378662D01*
X81858623Y-142378662D01*
X81900000Y-142374000D01*
X81941377Y-142378662D01*
G37*
G36*
X81941377Y-140378662D02*
G01*
X81975818Y-140378662D01*
X82014668Y-140386919D01*
X82061550Y-140392202D01*
X82095638Y-140404130D01*
X82124134Y-140410187D01*
X82165203Y-140428472D01*
X82215000Y-140445897D01*
X82240919Y-140462183D01*
X82262654Y-140471860D01*
X82303175Y-140501300D01*
X82352654Y-140532390D01*
X82370424Y-140550160D01*
X82385327Y-140560988D01*
X82422173Y-140601909D01*
X82467610Y-140647346D01*
X82478058Y-140663975D01*
X82486788Y-140673670D01*
X82516650Y-140725393D01*
X82554103Y-140785000D01*
X82558779Y-140798365D01*
X82562605Y-140804991D01*
X82582194Y-140865281D01*
X82607798Y-140938450D01*
X82608768Y-140947065D01*
X82609462Y-140949199D01*
X82615748Y-141009009D01*
X82626000Y-141100000D01*
X82615747Y-141190998D01*
X82609462Y-141250800D01*
X82608768Y-141252933D01*
X82607798Y-141261550D01*
X82582190Y-141334731D01*
X82562605Y-141395008D01*
X82558780Y-141401631D01*
X82554103Y-141415000D01*
X82516643Y-141474617D01*
X82486788Y-141526329D01*
X82478061Y-141536021D01*
X82467610Y-141552654D01*
X82422164Y-141598099D01*
X82385327Y-141639011D01*
X82370428Y-141649835D01*
X82352654Y-141667610D01*
X82303165Y-141698705D01*
X82262654Y-141728139D01*
X82240925Y-141737813D01*
X82215000Y-141754103D01*
X82165192Y-141771531D01*
X82124134Y-141789812D01*
X82095644Y-141795867D01*
X82061550Y-141807798D01*
X82014666Y-141813080D01*
X81975818Y-141821338D01*
X81941377Y-141821338D01*
X81900000Y-141826000D01*
X81858623Y-141821338D01*
X81824182Y-141821338D01*
X81785333Y-141813080D01*
X81738450Y-141807798D01*
X81704356Y-141795868D01*
X81675865Y-141789812D01*
X81634802Y-141771529D01*
X81585000Y-141754103D01*
X81559077Y-141737814D01*
X81537345Y-141728139D01*
X81496827Y-141698700D01*
X81447346Y-141667610D01*
X81429574Y-141649838D01*
X81414672Y-141639011D01*
X81377825Y-141598089D01*
X81332390Y-141552654D01*
X81321941Y-141536024D01*
X81313211Y-141526329D01*
X81283344Y-141474597D01*
X81245897Y-141415000D01*
X81241220Y-141401636D01*
X81237394Y-141395008D01*
X81217795Y-141334691D01*
X81192202Y-141261550D01*
X81191231Y-141252937D01*
X81190537Y-141250800D01*
X81184238Y-141190866D01*
X81174000Y-141100000D01*
X81184237Y-141009141D01*
X81190537Y-140949199D01*
X81191231Y-140947060D01*
X81192202Y-140938450D01*
X81217791Y-140865321D01*
X81237394Y-140804991D01*
X81241221Y-140798361D01*
X81245897Y-140785000D01*
X81283337Y-140725413D01*
X81313211Y-140673670D01*
X81321943Y-140663971D01*
X81332390Y-140647346D01*
X81377811Y-140601924D01*
X81414673Y-140560986D01*
X81429581Y-140550154D01*
X81447346Y-140532390D01*
X81496811Y-140501308D01*
X81537342Y-140471862D01*
X81559078Y-140462184D01*
X81585000Y-140445897D01*
X81634800Y-140428470D01*
X81675867Y-140410187D01*
X81704360Y-140404130D01*
X81738450Y-140392202D01*
X81785331Y-140386919D01*
X81824182Y-140378662D01*
X81858623Y-140378662D01*
X81900000Y-140374000D01*
X81941377Y-140378662D01*
G37*
G36*
X82594517Y-138377882D02*
G01*
X82611062Y-138388938D01*
X82622118Y-138405483D01*
X82626000Y-138425000D01*
X82626000Y-139775000D01*
X82622118Y-139794517D01*
X82611062Y-139811062D01*
X82594517Y-139822118D01*
X82575000Y-139826000D01*
X81225000Y-139826000D01*
X81205483Y-139822118D01*
X81188938Y-139811062D01*
X81177882Y-139794517D01*
X81174000Y-139775000D01*
X81174000Y-138425000D01*
X81177882Y-138405483D01*
X81188938Y-138388938D01*
X81205483Y-138377882D01*
X81225000Y-138374000D01*
X82575000Y-138374000D01*
X82594517Y-138377882D01*
G37*
G36*
X138519517Y-135852882D02*
G01*
X138536062Y-135863938D01*
X138547118Y-135880483D01*
X138551000Y-135900000D01*
X138551000Y-137900000D01*
X138547118Y-137919517D01*
X138536062Y-137936062D01*
X138519517Y-137947118D01*
X138500000Y-137951000D01*
X136500000Y-137951000D01*
X136480483Y-137947118D01*
X136463938Y-137936062D01*
X136452882Y-137919517D01*
X136449000Y-137900000D01*
X136449000Y-135900000D01*
X136452882Y-135880483D01*
X136463938Y-135863938D01*
X136480483Y-135852882D01*
X136500000Y-135849000D01*
X138500000Y-135849000D01*
X138519517Y-135852882D01*
G37*
G36*
X142550938Y-135854017D02*
G01*
X142596923Y-135854017D01*
X142648139Y-135863590D01*
X142705040Y-135869195D01*
X142748261Y-135882306D01*
X142787474Y-135889636D01*
X142841785Y-135910676D01*
X142902200Y-135929003D01*
X142936720Y-135947454D01*
X142968232Y-135959662D01*
X143022977Y-135993559D01*
X143083904Y-136026125D01*
X143109506Y-136047136D01*
X143133048Y-136061713D01*
X143185212Y-136109267D01*
X143243169Y-136156831D01*
X143260342Y-136177757D01*
X143276301Y-136192305D01*
X143322629Y-136253653D01*
X143373875Y-136316096D01*
X143383783Y-136334634D01*
X143393122Y-136347000D01*
X143430274Y-136421613D01*
X143470997Y-136497800D01*
X143475340Y-136512117D01*
X143479528Y-136520528D01*
X143504267Y-136607476D01*
X143530805Y-136694960D01*
X143531676Y-136703811D01*
X143532577Y-136706975D01*
X143541938Y-136808002D01*
X143551000Y-136900000D01*
X143541938Y-136992005D01*
X143532577Y-137093024D01*
X143531676Y-137096187D01*
X143530805Y-137105040D01*
X143504262Y-137192538D01*
X143479528Y-137279471D01*
X143475341Y-137287879D01*
X143470997Y-137302200D01*
X143430267Y-137378399D01*
X143393122Y-137452999D01*
X143383785Y-137465362D01*
X143373875Y-137483904D01*
X143322620Y-137546357D01*
X143276301Y-137607694D01*
X143260345Y-137622238D01*
X143243169Y-137643169D01*
X143185201Y-137690741D01*
X143133048Y-137738286D01*
X143109511Y-137752859D01*
X143083904Y-137773875D01*
X143022965Y-137806447D01*
X142968232Y-137840337D01*
X142936726Y-137852542D01*
X142902200Y-137870997D01*
X142841773Y-137889327D01*
X142787474Y-137910363D01*
X142748268Y-137917691D01*
X142705040Y-137930805D01*
X142648136Y-137936409D01*
X142596923Y-137945983D01*
X142550938Y-137945983D01*
X142500000Y-137951000D01*
X142449062Y-137945983D01*
X142403077Y-137945983D01*
X142351863Y-137936409D01*
X142294960Y-137930805D01*
X142251732Y-137917692D01*
X142212525Y-137910363D01*
X142158221Y-137889325D01*
X142097800Y-137870997D01*
X142063275Y-137852543D01*
X142031767Y-137840337D01*
X141977027Y-137806443D01*
X141916096Y-137773875D01*
X141890491Y-137752861D01*
X141866951Y-137738286D01*
X141814788Y-137690733D01*
X141756831Y-137643169D01*
X141739656Y-137622242D01*
X141723698Y-137607694D01*
X141677367Y-137546342D01*
X141626125Y-137483904D01*
X141616216Y-137465366D01*
X141606877Y-137452999D01*
X141569717Y-137378372D01*
X141529003Y-137302200D01*
X141524660Y-137287884D01*
X141520471Y-137279471D01*
X141495721Y-137192485D01*
X141469195Y-137105040D01*
X141468323Y-137096192D01*
X141467422Y-137093024D01*
X141458044Y-136991833D01*
X141449000Y-136900000D01*
X141458044Y-136808173D01*
X141467422Y-136706975D01*
X141468323Y-136703805D01*
X141469195Y-136694960D01*
X141495716Y-136607529D01*
X141520471Y-136520528D01*
X141524661Y-136512112D01*
X141529003Y-136497800D01*
X141569710Y-136421641D01*
X141606877Y-136347000D01*
X141616218Y-136334629D01*
X141626125Y-136316096D01*
X141677357Y-136253668D01*
X141723698Y-136192305D01*
X141739660Y-136177753D01*
X141756831Y-136156831D01*
X141814777Y-136109275D01*
X141866951Y-136061713D01*
X141890496Y-136047134D01*
X141916096Y-136026125D01*
X141977015Y-135993563D01*
X142031767Y-135959662D01*
X142063282Y-135947452D01*
X142097800Y-135929003D01*
X142158209Y-135910677D01*
X142212525Y-135889636D01*
X142251739Y-135882305D01*
X142294960Y-135869195D01*
X142351860Y-135863590D01*
X142403077Y-135854017D01*
X142449062Y-135854017D01*
X142500000Y-135849000D01*
X142550938Y-135854017D01*
G37*
G36*
X108227032Y-118685644D02*
G01*
X108381159Y-118749485D01*
X108519869Y-118842168D01*
X108637832Y-118960131D01*
X108730515Y-119098841D01*
X108794356Y-119252968D01*
X108826902Y-119416587D01*
X108831000Y-119500000D01*
X108831000Y-119900000D01*
X108826902Y-119983413D01*
X108794356Y-120147032D01*
X108730515Y-120301159D01*
X108637832Y-120439869D01*
X108519869Y-120557832D01*
X108381159Y-120650515D01*
X108227032Y-120714356D01*
X108063413Y-120746902D01*
X107896587Y-120746902D01*
X107732968Y-120714356D01*
X107578841Y-120650515D01*
X107440131Y-120557832D01*
X107322168Y-120439869D01*
X107229485Y-120301159D01*
X107165644Y-120147032D01*
X107133098Y-119983413D01*
X107129000Y-119900000D01*
X107129000Y-119500000D01*
X107133098Y-119416587D01*
X107165644Y-119252968D01*
X107229485Y-119098841D01*
X107322168Y-118960131D01*
X107440131Y-118842168D01*
X107578841Y-118749485D01*
X107732968Y-118685644D01*
X107896587Y-118653098D01*
X108063413Y-118653098D01*
X108227032Y-118685644D01*
G37*
G36*
X110767032Y-118685644D02*
G01*
X110921159Y-118749485D01*
X111059869Y-118842168D01*
X111177832Y-118960131D01*
X111270515Y-119098841D01*
X111334356Y-119252968D01*
X111366902Y-119416587D01*
X111371000Y-119500000D01*
X111371000Y-119900000D01*
X111366902Y-119983413D01*
X111334356Y-120147032D01*
X111270515Y-120301159D01*
X111177832Y-120439869D01*
X111059869Y-120557832D01*
X110921159Y-120650515D01*
X110767032Y-120714356D01*
X110603413Y-120746902D01*
X110436587Y-120746902D01*
X110272968Y-120714356D01*
X110118841Y-120650515D01*
X109980131Y-120557832D01*
X109862168Y-120439869D01*
X109769485Y-120301159D01*
X109705644Y-120147032D01*
X109673098Y-119983413D01*
X109669000Y-119900000D01*
X109669000Y-119500000D01*
X109673098Y-119416587D01*
X109705644Y-119252968D01*
X109769485Y-119098841D01*
X109862168Y-118960131D01*
X109980131Y-118842168D01*
X110118841Y-118749485D01*
X110272968Y-118685644D01*
X110436587Y-118653098D01*
X110603413Y-118653098D01*
X110767032Y-118685644D01*
G37*
G36*
X113307032Y-118685644D02*
G01*
X113461159Y-118749485D01*
X113599869Y-118842168D01*
X113717832Y-118960131D01*
X113810515Y-119098841D01*
X113874356Y-119252968D01*
X113906902Y-119416587D01*
X113911000Y-119500000D01*
X113911000Y-119900000D01*
X113906902Y-119983413D01*
X113874356Y-120147032D01*
X113810515Y-120301159D01*
X113717832Y-120439869D01*
X113599869Y-120557832D01*
X113461159Y-120650515D01*
X113307032Y-120714356D01*
X113143413Y-120746902D01*
X112976587Y-120746902D01*
X112812968Y-120714356D01*
X112658841Y-120650515D01*
X112520131Y-120557832D01*
X112402168Y-120439869D01*
X112309485Y-120301159D01*
X112245644Y-120147032D01*
X112213098Y-119983413D01*
X112209000Y-119900000D01*
X112209000Y-119500000D01*
X112213098Y-119416587D01*
X112245644Y-119252968D01*
X112309485Y-119098841D01*
X112402168Y-118960131D01*
X112520131Y-118842168D01*
X112658841Y-118749485D01*
X112812968Y-118685644D01*
X112976587Y-118653098D01*
X113143413Y-118653098D01*
X113307032Y-118685644D01*
G37*
G36*
X115847032Y-118685644D02*
G01*
X116001159Y-118749485D01*
X116139869Y-118842168D01*
X116257832Y-118960131D01*
X116350515Y-119098841D01*
X116414356Y-119252968D01*
X116446902Y-119416587D01*
X116451000Y-119500000D01*
X116451000Y-119900000D01*
X116446902Y-119983413D01*
X116414356Y-120147032D01*
X116350515Y-120301159D01*
X116257832Y-120439869D01*
X116139869Y-120557832D01*
X116001159Y-120650515D01*
X115847032Y-120714356D01*
X115683413Y-120746902D01*
X115516587Y-120746902D01*
X115352968Y-120714356D01*
X115198841Y-120650515D01*
X115060131Y-120557832D01*
X114942168Y-120439869D01*
X114849485Y-120301159D01*
X114785644Y-120147032D01*
X114753098Y-119983413D01*
X114749000Y-119900000D01*
X114749000Y-119500000D01*
X114753098Y-119416587D01*
X114785644Y-119252968D01*
X114849485Y-119098841D01*
X114942168Y-118960131D01*
X115060131Y-118842168D01*
X115198841Y-118749485D01*
X115352968Y-118685644D01*
X115516587Y-118653098D01*
X115683413Y-118653098D01*
X115847032Y-118685644D01*
G37*
G36*
X109836233Y-65156829D02*
G01*
X109851830Y-65163716D01*
X109859350Y-65164907D01*
X109890666Y-65180863D01*
X109935324Y-65200582D01*
X110011918Y-65277176D01*
X110031639Y-65321840D01*
X110047592Y-65353149D01*
X110048782Y-65360666D01*
X110055671Y-65376267D01*
X110063500Y-65443750D01*
X110063500Y-66356250D01*
X110055671Y-66423733D01*
X110048782Y-66439334D01*
X110047592Y-66446850D01*
X110031642Y-66478152D01*
X110011918Y-66522824D01*
X109935324Y-66599418D01*
X109890652Y-66619142D01*
X109859350Y-66635092D01*
X109851834Y-66636282D01*
X109836233Y-66643171D01*
X109768750Y-66651000D01*
X109281250Y-66651000D01*
X109213767Y-66643171D01*
X109198166Y-66636282D01*
X109190649Y-66635092D01*
X109159340Y-66619139D01*
X109114676Y-66599418D01*
X109038082Y-66522824D01*
X109018363Y-66478166D01*
X109002407Y-66446850D01*
X109001216Y-66439330D01*
X108994329Y-66423733D01*
X108986500Y-66356250D01*
X108986500Y-65443750D01*
X108994329Y-65376267D01*
X109001215Y-65360669D01*
X109002407Y-65353149D01*
X109018367Y-65321825D01*
X109038082Y-65277176D01*
X109114676Y-65200582D01*
X109159325Y-65180867D01*
X109190649Y-65164907D01*
X109198169Y-65163715D01*
X109213767Y-65156829D01*
X109281250Y-65149000D01*
X109768750Y-65149000D01*
X109836233Y-65156829D01*
G37*
G36*
X111711233Y-65156829D02*
G01*
X111726830Y-65163716D01*
X111734350Y-65164907D01*
X111765666Y-65180863D01*
X111810324Y-65200582D01*
X111886918Y-65277176D01*
X111906639Y-65321840D01*
X111922592Y-65353149D01*
X111923782Y-65360666D01*
X111930671Y-65376267D01*
X111938500Y-65443750D01*
X111938500Y-66356250D01*
X111930671Y-66423733D01*
X111923782Y-66439334D01*
X111922592Y-66446850D01*
X111906642Y-66478152D01*
X111886918Y-66522824D01*
X111810324Y-66599418D01*
X111765652Y-66619142D01*
X111734350Y-66635092D01*
X111726834Y-66636282D01*
X111711233Y-66643171D01*
X111643750Y-66651000D01*
X111156250Y-66651000D01*
X111088767Y-66643171D01*
X111073166Y-66636282D01*
X111065649Y-66635092D01*
X111034340Y-66619139D01*
X110989676Y-66599418D01*
X110913082Y-66522824D01*
X110893363Y-66478166D01*
X110877407Y-66446850D01*
X110876216Y-66439330D01*
X110869329Y-66423733D01*
X110861500Y-66356250D01*
X110861500Y-65443750D01*
X110869329Y-65376267D01*
X110876215Y-65360669D01*
X110877407Y-65353149D01*
X110893367Y-65321825D01*
X110913082Y-65277176D01*
X110989676Y-65200582D01*
X111034325Y-65180867D01*
X111065649Y-65164907D01*
X111073169Y-65163715D01*
X111088767Y-65156829D01*
X111156250Y-65149000D01*
X111643750Y-65149000D01*
X111711233Y-65156829D01*
G37*
G36*
X110563098Y-24053966D02*
G01*
X110623353Y-24053966D01*
X110689199Y-24063890D01*
X110758273Y-24069327D01*
X110813947Y-24082693D01*
X110867302Y-24090735D01*
X110937021Y-24112240D01*
X111010187Y-24129806D01*
X111057495Y-24149401D01*
X111103052Y-24163454D01*
X111174569Y-24197895D01*
X111249538Y-24228948D01*
X111288022Y-24252531D01*
X111325322Y-24270494D01*
X111396271Y-24318866D01*
X111470433Y-24364313D01*
X111500127Y-24389674D01*
X111529162Y-24409470D01*
X111596956Y-24472374D01*
X111667433Y-24532567D01*
X111688834Y-24557625D01*
X111710011Y-24577274D01*
X111771925Y-24654911D01*
X111835687Y-24729567D01*
X111849709Y-24752449D01*
X111863830Y-24770156D01*
X111917087Y-24862399D01*
X111971052Y-24950462D01*
X111978977Y-24969597D01*
X111987185Y-24983812D01*
X112029038Y-25090454D01*
X112070194Y-25189813D01*
X112073597Y-25203991D01*
X112077314Y-25213460D01*
X112105157Y-25335446D01*
X112130673Y-25441727D01*
X112131334Y-25450133D01*
X112132214Y-25453986D01*
X112143683Y-25607031D01*
X112151000Y-25700000D01*
X112143682Y-25792975D01*
X112132214Y-25946013D01*
X112131334Y-25949865D01*
X112130673Y-25958273D01*
X112105152Y-26064573D01*
X112077314Y-26186539D01*
X112073598Y-26196005D01*
X112070194Y-26210187D01*
X112029031Y-26309563D01*
X111987185Y-26416187D01*
X111978979Y-26430399D01*
X111971052Y-26449538D01*
X111917077Y-26537616D01*
X111863830Y-26629843D01*
X111849712Y-26647546D01*
X111835687Y-26670433D01*
X111771913Y-26745102D01*
X111710011Y-26822725D01*
X111688838Y-26842369D01*
X111667433Y-26867433D01*
X111596942Y-26927637D01*
X111529162Y-26990529D01*
X111500133Y-27010320D01*
X111470433Y-27035687D01*
X111396257Y-27081142D01*
X111325322Y-27129505D01*
X111288030Y-27147463D01*
X111249538Y-27171052D01*
X111174554Y-27202110D01*
X111103052Y-27236545D01*
X111057504Y-27250594D01*
X111010187Y-27270194D01*
X110937007Y-27287762D01*
X110867302Y-27309264D01*
X110813955Y-27317304D01*
X110758273Y-27330673D01*
X110689195Y-27336109D01*
X110623353Y-27346034D01*
X110563098Y-27346034D01*
X110500000Y-27351000D01*
X110436902Y-27346034D01*
X110376647Y-27346034D01*
X110310803Y-27336109D01*
X110241727Y-27330673D01*
X110186045Y-27317305D01*
X110132697Y-27309264D01*
X110062988Y-27287761D01*
X109989813Y-27270194D01*
X109942498Y-27250595D01*
X109896947Y-27236545D01*
X109825438Y-27202107D01*
X109750462Y-27171052D01*
X109711972Y-27147465D01*
X109674675Y-27129504D01*
X109603726Y-27081131D01*
X109529567Y-27035687D01*
X109499873Y-27010326D01*
X109470839Y-26990531D01*
X109403043Y-26927625D01*
X109332567Y-26867433D01*
X109311164Y-26842374D01*
X109289988Y-26822725D01*
X109228071Y-26745084D01*
X109164313Y-26670433D01*
X109150291Y-26647551D01*
X109136169Y-26629843D01*
X109082905Y-26537588D01*
X109028948Y-26449538D01*
X109021023Y-26430405D01*
X109012814Y-26416187D01*
X108970949Y-26309517D01*
X108929806Y-26210187D01*
X108926402Y-26196012D01*
X108922685Y-26186539D01*
X108894827Y-26064488D01*
X108869327Y-25958273D01*
X108868665Y-25949871D01*
X108867785Y-25946013D01*
X108856296Y-25792710D01*
X108849000Y-25700000D01*
X108856296Y-25607297D01*
X108867785Y-25453986D01*
X108868665Y-25450126D01*
X108869327Y-25441727D01*
X108894822Y-25335530D01*
X108922685Y-25213460D01*
X108926403Y-25203984D01*
X108929806Y-25189813D01*
X108970942Y-25090500D01*
X109012814Y-24983812D01*
X109021024Y-24969590D01*
X109028948Y-24950462D01*
X109082895Y-24862427D01*
X109136169Y-24770156D01*
X109150293Y-24752443D01*
X109164313Y-24729567D01*
X109228059Y-24654929D01*
X109289988Y-24577274D01*
X109311169Y-24557620D01*
X109332567Y-24532567D01*
X109403029Y-24472386D01*
X109470839Y-24409468D01*
X109499879Y-24389668D01*
X109529567Y-24364313D01*
X109603711Y-24318876D01*
X109674675Y-24270495D01*
X109711980Y-24252529D01*
X109750462Y-24228948D01*
X109825423Y-24197898D01*
X109896947Y-24163454D01*
X109942507Y-24149400D01*
X109989813Y-24129806D01*
X110062973Y-24112241D01*
X110132697Y-24090735D01*
X110186054Y-24082692D01*
X110241727Y-24069327D01*
X110310799Y-24063890D01*
X110376647Y-24053966D01*
X110436902Y-24053966D01*
X110500000Y-24049000D01*
X110563098Y-24053966D01*
G37*
M02*
