M48
; DRILL file {KiCad 8.0.5-8.0.5-0~ubuntu24.04.1} date 2024-10-08T07:52:34+0900
; FORMAT={-:-/ absolute / inch / decimal}
; #@! TF.CreationDate,2024-10-08T07:52:34+09:00
; #@! TF.GenerationSoftware,Kicad,Pcbnew,8.0.5-8.0.5-0~ubuntu24.04.1
; #@! TF.FileFunction,Plated,1,2,PTH
FMAT,2
INCH
; #@! TA.AperFunction,Plated,PTH,ViaDrill
T1C0.0118
; #@! TA.AperFunction,Plated,PTH,ComponentDrill
T2C0.0315
; #@! TA.AperFunction,Plated,PTH,ComponentDrill
T3C0.0394
; #@! TA.AperFunction,Plated,PTH,ComponentDrill
T4C0.0433
%
G90
G05
T1
X3.6614Y-2.8307
X3.7559Y-2.7992
X3.7677Y-2.8937
X3.7953Y-2.7677
X3.8858Y-6.3701
X4.0157Y-5.0197
X4.3937Y-7.0039
X4.6732Y-6.3701
X4.7244Y-6.8701
X4.8386Y-5.2992
X4.8976Y-2.7913
X5.0Y-2.8543
X5.0236Y-2.7283
T2
X3.2244Y-5.4764
X3.2244Y-5.5551
X3.2244Y-5.6339
X3.2244Y-5.7126
T3
X4.2512Y-4.7126
X4.3094Y-6.1685
X4.3094Y-6.2685
X4.3094Y-6.3685
X4.3094Y-6.4685
X4.3094Y-6.5685
X4.3094Y-6.6685
X4.3094Y-6.7685
X4.3094Y-6.8685
X4.3094Y-6.9685
X4.3512Y-4.7126
X4.4094Y-6.1685
X4.4512Y-4.7126
X4.5094Y-6.1685
X4.5512Y-4.7126
X4.6094Y-6.1685
X4.7094Y-6.1685
X4.8094Y-6.1685
X4.9094Y-6.1685
X4.9094Y-6.2685
X4.9094Y-6.3685
X4.9094Y-6.4685
X4.9094Y-6.5685
X4.9094Y-6.6685
X4.9094Y-6.7685
X4.9094Y-6.8685
X4.9094Y-6.9685
X5.4134Y-5.3898
X5.6102Y-5.3898
T4
X3.0945Y-6.3701
X3.0945Y-6.5472
X3.3504Y-6.3701
X3.3504Y-6.5472
X3.4409Y-5.9882
X3.4409Y-6.1654
X3.4409Y-6.7598
X3.4409Y-6.937
X3.6969Y-5.9882
X3.6969Y-6.1654
X3.6969Y-6.7598
X3.6969Y-6.937
X3.7559Y-6.3701
X3.7559Y-6.5472
X4.0118Y-6.3701
X4.0118Y-6.5472
X5.1457Y-6.1102
X5.1457Y-6.2874
X5.3661Y-6.5354
X5.3661Y-6.7126
X5.4016Y-6.1102
X5.4016Y-6.2874
X5.622Y-6.5354
X5.622Y-6.7126
M30
