G04 #@! TF.GenerationSoftware,KiCad,Pcbnew,8.0.5-8.0.5-0~ubuntu24.04.1*
G04 #@! TF.CreationDate,2024-10-08T07:52:30+09:00*
G04 #@! TF.ProjectId,gopher_bird_rp2040_sw,676f7068-6572-45f6-9269-72645f727032,rev?*
G04 #@! TF.SameCoordinates,Original*
G04 #@! TF.FileFunction,Legend,Bot*
G04 #@! TF.FilePolarity,Positive*
%FSLAX46Y46*%
G04 Gerber Fmt 4.6, Leading zero omitted, Abs format (unit mm)*
G04 Created by KiCad (PCBNEW 8.0.5-8.0.5-0~ubuntu24.04.1) date 2024-10-08 07:52:30*
%MOMM*%
%LPD*%
G01*
G04 APERTURE LIST*
%ADD10C,0.150000*%
%ADD11C,0.120000*%
G04 APERTURE END LIST*
D10*
X110629166Y-64704819D02*
X110962499Y-64228628D01*
X111200594Y-64704819D02*
X111200594Y-63704819D01*
X111200594Y-63704819D02*
X110819642Y-63704819D01*
X110819642Y-63704819D02*
X110724404Y-63752438D01*
X110724404Y-63752438D02*
X110676785Y-63800057D01*
X110676785Y-63800057D02*
X110629166Y-63895295D01*
X110629166Y-63895295D02*
X110629166Y-64038152D01*
X110629166Y-64038152D02*
X110676785Y-64133390D01*
X110676785Y-64133390D02*
X110724404Y-64181009D01*
X110724404Y-64181009D02*
X110819642Y-64228628D01*
X110819642Y-64228628D02*
X111200594Y-64228628D01*
X110248213Y-63800057D02*
X110200594Y-63752438D01*
X110200594Y-63752438D02*
X110105356Y-63704819D01*
X110105356Y-63704819D02*
X109867261Y-63704819D01*
X109867261Y-63704819D02*
X109772023Y-63752438D01*
X109772023Y-63752438D02*
X109724404Y-63800057D01*
X109724404Y-63800057D02*
X109676785Y-63895295D01*
X109676785Y-63895295D02*
X109676785Y-63990533D01*
X109676785Y-63990533D02*
X109724404Y-64133390D01*
X109724404Y-64133390D02*
X110295832Y-64704819D01*
X110295832Y-64704819D02*
X109676785Y-64704819D01*
D11*
X110721078Y-65190000D02*
X110203922Y-65190000D01*
X110721078Y-66610000D02*
X110203922Y-66610000D01*
M02*
