G04 #@! TF.GenerationSoftware,KiCad,Pcbnew,8.0.5-8.0.5-0~ubuntu24.04.1*
G04 #@! TF.CreationDate,2024-10-08T07:52:30+09:00*
G04 #@! TF.ProjectId,gopher_bird_rp2040_sw,676f7068-6572-45f6-9269-72645f727032,rev?*
G04 #@! TF.SameCoordinates,Original*
G04 #@! TF.FileFunction,Copper,L1,Top*
G04 #@! TF.FilePolarity,Positive*
%FSLAX46Y46*%
G04 Gerber Fmt 4.6, Leading zero omitted, Abs format (unit mm)*
G04 Created by KiCad (PCBNEW 8.0.5-8.0.5-0~ubuntu24.04.1) date 2024-10-08 07:52:30*
%MOMM*%
%LPD*%
G01*
G04 APERTURE LIST*
G04 #@! TA.AperFunction,EtchedComponent*
%ADD10C,0.100000*%
G04 #@! TD*
G04 #@! TA.AperFunction,EtchedComponent*
%ADD11C,0.010000*%
G04 #@! TD*
G04 #@! TA.AperFunction,SMDPad,CuDef*
%ADD12R,1.500000X1.000000*%
G04 #@! TD*
G04 #@! TA.AperFunction,ComponentPad*
%ADD13O,1.700000X1.700000*%
G04 #@! TD*
G04 #@! TA.AperFunction,ComponentPad*
%ADD14O,1.600000X2.000000*%
G04 #@! TD*
G04 #@! TA.AperFunction,ComponentPad*
%ADD15C,2.000000*%
G04 #@! TD*
G04 #@! TA.AperFunction,ComponentPad*
%ADD16R,1.350000X1.350000*%
G04 #@! TD*
G04 #@! TA.AperFunction,ComponentPad*
%ADD17O,1.350000X1.350000*%
G04 #@! TD*
G04 #@! TA.AperFunction,ComponentPad*
%ADD18R,2.000000X2.000000*%
G04 #@! TD*
G04 #@! TA.AperFunction,ViaPad*
%ADD19C,0.600000*%
G04 #@! TD*
G04 #@! TA.AperFunction,Conductor*
%ADD20C,0.250000*%
G04 #@! TD*
G04 #@! TA.AperFunction,Conductor*
%ADD21C,0.600000*%
G04 #@! TD*
G04 #@! TA.AperFunction,Conductor*
%ADD22C,0.200000*%
G04 #@! TD*
G04 APERTURE END LIST*
D10*
X112430000Y-44480000D02*
X112870000Y-44690000D01*
X113170000Y-44980000D01*
X113540000Y-45360000D01*
X114150000Y-45850000D01*
X114600000Y-46120000D01*
X115090000Y-46380000D01*
X115640000Y-46630000D01*
X115780000Y-46680000D01*
X115790000Y-46740000D01*
X115780000Y-46860000D01*
X115500000Y-47540000D01*
X114860000Y-48890000D01*
X114280000Y-50010000D01*
X113760000Y-50880000D01*
X113295000Y-51690000D01*
X112585000Y-52900000D01*
X112230000Y-53490000D01*
X112010000Y-53815000D01*
X111790000Y-54105000D01*
X111650000Y-54250000D01*
X111440000Y-54440000D01*
X111260000Y-54500000D01*
X111090000Y-54410000D01*
X110910000Y-54160000D01*
X110520000Y-53310000D01*
X109920000Y-51660000D01*
X109460000Y-49950000D01*
X109220000Y-48590000D01*
X109150000Y-48150000D01*
X108990000Y-46520000D01*
X108940000Y-45530000D01*
X108930000Y-45300000D01*
X109420000Y-44980000D01*
X109880000Y-44760000D01*
X110350000Y-44530000D01*
X110730000Y-44420000D01*
X111310000Y-44350000D01*
X111870000Y-44350000D01*
X112430000Y-44480000D01*
G04 #@! TA.AperFunction,EtchedComponent*
G36*
X112430000Y-44480000D02*
G01*
X112870000Y-44690000D01*
X113170000Y-44980000D01*
X113540000Y-45360000D01*
X114150000Y-45850000D01*
X114600000Y-46120000D01*
X115090000Y-46380000D01*
X115640000Y-46630000D01*
X115780000Y-46680000D01*
X115790000Y-46740000D01*
X115780000Y-46860000D01*
X115500000Y-47540000D01*
X114860000Y-48890000D01*
X114280000Y-50010000D01*
X113760000Y-50880000D01*
X113295000Y-51690000D01*
X112585000Y-52900000D01*
X112230000Y-53490000D01*
X112010000Y-53815000D01*
X111790000Y-54105000D01*
X111650000Y-54250000D01*
X111440000Y-54440000D01*
X111260000Y-54500000D01*
X111090000Y-54410000D01*
X110910000Y-54160000D01*
X110520000Y-53310000D01*
X109920000Y-51660000D01*
X109460000Y-49950000D01*
X109220000Y-48590000D01*
X109150000Y-48150000D01*
X108990000Y-46520000D01*
X108940000Y-45530000D01*
X108930000Y-45300000D01*
X109420000Y-44980000D01*
X109880000Y-44760000D01*
X110350000Y-44530000D01*
X110730000Y-44420000D01*
X111310000Y-44350000D01*
X111870000Y-44350000D01*
X112430000Y-44480000D01*
G37*
G04 #@! TD.AperFunction*
D11*
X96453411Y-66723861D02*
X97896656Y-66971871D01*
X99297058Y-67385916D01*
X100641987Y-67962331D01*
X101918816Y-68697452D01*
X103114913Y-69587614D01*
X104126587Y-70533500D01*
X105123560Y-71697104D01*
X105961916Y-72948403D01*
X106639862Y-74283908D01*
X107155607Y-75700130D01*
X107485322Y-77071487D01*
X107579317Y-77773795D01*
X107630057Y-78589709D01*
X107638238Y-79459597D01*
X107604553Y-80323828D01*
X107529696Y-81122769D01*
X107431202Y-81720306D01*
X107026794Y-83211717D01*
X106468752Y-84615992D01*
X105765461Y-85924506D01*
X104925303Y-87128635D01*
X103956664Y-88219752D01*
X102867926Y-89189233D01*
X101667475Y-90028452D01*
X100363693Y-90728786D01*
X98964965Y-91281608D01*
X97825834Y-91601961D01*
X97142722Y-91727271D01*
X96345418Y-91817442D01*
X95490668Y-91870403D01*
X94635213Y-91884082D01*
X93835799Y-91856406D01*
X93149167Y-91785304D01*
X93085000Y-91775081D01*
X91606842Y-91441802D01*
X90200488Y-90949472D01*
X88876392Y-90307555D01*
X87645009Y-89525517D01*
X86516793Y-88612820D01*
X85502202Y-87578931D01*
X84611688Y-86433311D01*
X83855708Y-85185427D01*
X83244716Y-83844742D01*
X82800694Y-82465417D01*
X82516774Y-81019364D01*
X82404129Y-79546422D01*
X82426267Y-78965799D01*
X82966683Y-78965799D01*
X83010088Y-80368724D01*
X83215624Y-81746864D01*
X83578937Y-83087510D01*
X84095673Y-84377956D01*
X84761478Y-85605492D01*
X85571996Y-86757413D01*
X86522874Y-87821008D01*
X87609757Y-88783572D01*
X88828291Y-89632396D01*
X88991040Y-89730696D01*
X89883258Y-90193185D01*
X90897162Y-90602557D01*
X91976251Y-90939836D01*
X93064021Y-91186046D01*
X93557052Y-91264213D01*
X94183385Y-91316613D01*
X94923660Y-91327394D01*
X95715881Y-91299230D01*
X96498053Y-91234798D01*
X97208178Y-91136773D01*
X97415125Y-91097717D01*
X98824657Y-90721965D01*
X100146609Y-90196130D01*
X101374369Y-89532134D01*
X102501326Y-88741902D01*
X103520872Y-87837358D01*
X104426394Y-86830423D01*
X105211282Y-85733023D01*
X105868926Y-84557081D01*
X106392715Y-83314519D01*
X106776038Y-82017263D01*
X107012285Y-80677234D01*
X107094846Y-79306357D01*
X107017109Y-77916556D01*
X106772464Y-76519753D01*
X106354301Y-75127873D01*
X106320154Y-75035714D01*
X105735598Y-73729487D01*
X104997921Y-72503521D01*
X104121697Y-71371911D01*
X103121497Y-70348756D01*
X102011896Y-69448152D01*
X100807466Y-68684196D01*
X99522782Y-68070986D01*
X98872239Y-67831094D01*
X98250520Y-67636492D01*
X97681512Y-67491739D01*
X97119248Y-67390422D01*
X96517763Y-67326127D01*
X95831091Y-67292439D01*
X95013265Y-67282945D01*
X94944643Y-67283031D01*
X94316775Y-67286431D01*
X93829459Y-67296337D01*
X93441837Y-67316504D01*
X93113051Y-67350688D01*
X92802247Y-67402642D01*
X92468565Y-67476123D01*
X92243720Y-67531269D01*
X90821305Y-67976525D01*
X89482410Y-68574270D01*
X88237892Y-69315183D01*
X87098611Y-70189940D01*
X86075423Y-71189219D01*
X85179185Y-72303700D01*
X84420757Y-73524059D01*
X83852804Y-74735390D01*
X83383687Y-76136424D01*
X83089765Y-77550796D01*
X82966683Y-78965799D01*
X82426267Y-78965799D01*
X82460478Y-78068594D01*
X82683541Y-76607882D01*
X83071039Y-75186287D01*
X83620692Y-73825813D01*
X83716350Y-73629643D01*
X84401851Y-72444497D01*
X85241361Y-71311408D01*
X86209148Y-70257764D01*
X87279478Y-69310952D01*
X88426617Y-68498362D01*
X88685357Y-68341140D01*
X89492697Y-67916398D01*
X90403025Y-67523837D01*
X91337901Y-67194961D01*
X91992909Y-67012686D01*
X93488908Y-66740604D01*
X94979952Y-66645550D01*
X96453411Y-66723861D01*
G04 #@! TA.AperFunction,EtchedComponent*
G36*
X96453411Y-66723861D02*
G01*
X97896656Y-66971871D01*
X99297058Y-67385916D01*
X100641987Y-67962331D01*
X101918816Y-68697452D01*
X103114913Y-69587614D01*
X104126587Y-70533500D01*
X105123560Y-71697104D01*
X105961916Y-72948403D01*
X106639862Y-74283908D01*
X107155607Y-75700130D01*
X107485322Y-77071487D01*
X107579317Y-77773795D01*
X107630057Y-78589709D01*
X107638238Y-79459597D01*
X107604553Y-80323828D01*
X107529696Y-81122769D01*
X107431202Y-81720306D01*
X107026794Y-83211717D01*
X106468752Y-84615992D01*
X105765461Y-85924506D01*
X104925303Y-87128635D01*
X103956664Y-88219752D01*
X102867926Y-89189233D01*
X101667475Y-90028452D01*
X100363693Y-90728786D01*
X98964965Y-91281608D01*
X97825834Y-91601961D01*
X97142722Y-91727271D01*
X96345418Y-91817442D01*
X95490668Y-91870403D01*
X94635213Y-91884082D01*
X93835799Y-91856406D01*
X93149167Y-91785304D01*
X93085000Y-91775081D01*
X91606842Y-91441802D01*
X90200488Y-90949472D01*
X88876392Y-90307555D01*
X87645009Y-89525517D01*
X86516793Y-88612820D01*
X85502202Y-87578931D01*
X84611688Y-86433311D01*
X83855708Y-85185427D01*
X83244716Y-83844742D01*
X82800694Y-82465417D01*
X82516774Y-81019364D01*
X82404129Y-79546422D01*
X82426267Y-78965799D01*
X82966683Y-78965799D01*
X83010088Y-80368724D01*
X83215624Y-81746864D01*
X83578937Y-83087510D01*
X84095673Y-84377956D01*
X84761478Y-85605492D01*
X85571996Y-86757413D01*
X86522874Y-87821008D01*
X87609757Y-88783572D01*
X88828291Y-89632396D01*
X88991040Y-89730696D01*
X89883258Y-90193185D01*
X90897162Y-90602557D01*
X91976251Y-90939836D01*
X93064021Y-91186046D01*
X93557052Y-91264213D01*
X94183385Y-91316613D01*
X94923660Y-91327394D01*
X95715881Y-91299230D01*
X96498053Y-91234798D01*
X97208178Y-91136773D01*
X97415125Y-91097717D01*
X98824657Y-90721965D01*
X100146609Y-90196130D01*
X101374369Y-89532134D01*
X102501326Y-88741902D01*
X103520872Y-87837358D01*
X104426394Y-86830423D01*
X105211282Y-85733023D01*
X105868926Y-84557081D01*
X106392715Y-83314519D01*
X106776038Y-82017263D01*
X107012285Y-80677234D01*
X107094846Y-79306357D01*
X107017109Y-77916556D01*
X106772464Y-76519753D01*
X106354301Y-75127873D01*
X106320154Y-75035714D01*
X105735598Y-73729487D01*
X104997921Y-72503521D01*
X104121697Y-71371911D01*
X103121497Y-70348756D01*
X102011896Y-69448152D01*
X100807466Y-68684196D01*
X99522782Y-68070986D01*
X98872239Y-67831094D01*
X98250520Y-67636492D01*
X97681512Y-67491739D01*
X97119248Y-67390422D01*
X96517763Y-67326127D01*
X95831091Y-67292439D01*
X95013265Y-67282945D01*
X94944643Y-67283031D01*
X94316775Y-67286431D01*
X93829459Y-67296337D01*
X93441837Y-67316504D01*
X93113051Y-67350688D01*
X92802247Y-67402642D01*
X92468565Y-67476123D01*
X92243720Y-67531269D01*
X90821305Y-67976525D01*
X89482410Y-68574270D01*
X88237892Y-69315183D01*
X87098611Y-70189940D01*
X86075423Y-71189219D01*
X85179185Y-72303700D01*
X84420757Y-73524059D01*
X83852804Y-74735390D01*
X83383687Y-76136424D01*
X83089765Y-77550796D01*
X82966683Y-78965799D01*
X82426267Y-78965799D01*
X82460478Y-78068594D01*
X82683541Y-76607882D01*
X83071039Y-75186287D01*
X83620692Y-73825813D01*
X83716350Y-73629643D01*
X84401851Y-72444497D01*
X85241361Y-71311408D01*
X86209148Y-70257764D01*
X87279478Y-69310952D01*
X88426617Y-68498362D01*
X88685357Y-68341140D01*
X89492697Y-67916398D01*
X90403025Y-67523837D01*
X91337901Y-67194961D01*
X91992909Y-67012686D01*
X93488908Y-66740604D01*
X94979952Y-66645550D01*
X96453411Y-66723861D01*
G37*
G04 #@! TD.AperFunction*
X126970732Y-65386169D02*
X127787621Y-65445556D01*
X128504880Y-65542753D01*
X128735714Y-65588576D01*
X130223522Y-66001275D01*
X131606860Y-66560651D01*
X132893854Y-67271121D01*
X134092625Y-68137096D01*
X135092010Y-69042275D01*
X136106896Y-70178810D01*
X136962000Y-71400014D01*
X137659380Y-72709680D01*
X138201097Y-74111603D01*
X138545905Y-75402502D01*
X138625635Y-75801595D01*
X138682213Y-76175371D01*
X138719209Y-76569110D01*
X138740191Y-77028092D01*
X138748729Y-77597597D01*
X138749402Y-77983929D01*
X138723536Y-79040409D01*
X138641065Y-79972112D01*
X138490393Y-80830017D01*
X138259925Y-81665102D01*
X137938063Y-82528347D01*
X137513211Y-83470732D01*
X137490673Y-83517500D01*
X136766035Y-84811959D01*
X135896806Y-86005060D01*
X134895813Y-87085644D01*
X133775884Y-88042548D01*
X132549846Y-88864613D01*
X131230527Y-89540677D01*
X130051071Y-89990346D01*
X129019890Y-90266329D01*
X127899171Y-90463378D01*
X126751839Y-90574859D01*
X125640815Y-90594137D01*
X124835000Y-90540353D01*
X123341749Y-90286063D01*
X121916852Y-89868985D01*
X120569752Y-89297931D01*
X119309893Y-88581711D01*
X118146717Y-87729137D01*
X117089669Y-86749019D01*
X116148191Y-85650168D01*
X115331728Y-84441396D01*
X114649722Y-83131512D01*
X114111617Y-81729328D01*
X113726857Y-80243655D01*
X113710598Y-80161072D01*
X113620801Y-79524081D01*
X113567547Y-78767465D01*
X113555331Y-78168958D01*
X114136218Y-78168958D01*
X114165309Y-78983401D01*
X114231552Y-79720149D01*
X114277247Y-80031693D01*
X114612055Y-81458658D01*
X115114475Y-82818059D01*
X115781421Y-84103805D01*
X116609809Y-85309805D01*
X117432552Y-86261363D01*
X118509999Y-87274934D01*
X119653534Y-88124492D01*
X120876144Y-88817008D01*
X122190818Y-89359455D01*
X123610543Y-89758804D01*
X124154643Y-89869767D01*
X124652141Y-89934698D01*
X125275439Y-89975441D01*
X125970535Y-89992040D01*
X126683426Y-89984544D01*
X127360109Y-89952999D01*
X127946582Y-89897450D01*
X128156867Y-89866318D01*
X129577740Y-89534889D01*
X130930813Y-89042050D01*
X132204698Y-88398372D01*
X133388004Y-87614428D01*
X134469341Y-86700790D01*
X135437319Y-85668030D01*
X136280548Y-84526720D01*
X136987639Y-83287432D01*
X137547201Y-81960738D01*
X137881980Y-80839478D01*
X138142342Y-79413067D01*
X138227920Y-77984848D01*
X138144352Y-76569383D01*
X137897277Y-75181236D01*
X137492331Y-73834971D01*
X136935154Y-72545151D01*
X136231384Y-71326339D01*
X135386658Y-70193099D01*
X134406614Y-69159995D01*
X133296891Y-68241589D01*
X132896537Y-67961718D01*
X131671832Y-67230270D01*
X130430229Y-66668766D01*
X129148390Y-66270233D01*
X127802976Y-66027698D01*
X126370649Y-65934188D01*
X126105000Y-65932637D01*
X124900613Y-65979743D01*
X123803700Y-66123141D01*
X122761055Y-66375712D01*
X121719476Y-66750337D01*
X120628101Y-67258702D01*
X119389575Y-67991575D01*
X118254370Y-68865864D01*
X117233247Y-69866944D01*
X116336963Y-70980193D01*
X115576277Y-72190986D01*
X114961948Y-73484699D01*
X114504735Y-74846709D01*
X114272569Y-75897500D01*
X114189775Y-76562202D01*
X114144349Y-77340623D01*
X114136218Y-78168958D01*
X113555331Y-78168958D01*
X113550847Y-77949309D01*
X113570709Y-77127699D01*
X113627143Y-76360721D01*
X113709887Y-75761429D01*
X114065402Y-74294189D01*
X114580345Y-72902821D01*
X115245266Y-71596886D01*
X116050717Y-70385946D01*
X116987248Y-69279563D01*
X118045411Y-68287299D01*
X119215757Y-67418716D01*
X120488836Y-66683376D01*
X121855199Y-66090839D01*
X123305398Y-65650669D01*
X123812658Y-65538070D01*
X124475175Y-65440543D01*
X125259219Y-65383095D01*
X126109501Y-65365159D01*
X126970732Y-65386169D01*
G04 #@! TA.AperFunction,EtchedComponent*
G36*
X126970732Y-65386169D02*
G01*
X127787621Y-65445556D01*
X128504880Y-65542753D01*
X128735714Y-65588576D01*
X130223522Y-66001275D01*
X131606860Y-66560651D01*
X132893854Y-67271121D01*
X134092625Y-68137096D01*
X135092010Y-69042275D01*
X136106896Y-70178810D01*
X136962000Y-71400014D01*
X137659380Y-72709680D01*
X138201097Y-74111603D01*
X138545905Y-75402502D01*
X138625635Y-75801595D01*
X138682213Y-76175371D01*
X138719209Y-76569110D01*
X138740191Y-77028092D01*
X138748729Y-77597597D01*
X138749402Y-77983929D01*
X138723536Y-79040409D01*
X138641065Y-79972112D01*
X138490393Y-80830017D01*
X138259925Y-81665102D01*
X137938063Y-82528347D01*
X137513211Y-83470732D01*
X137490673Y-83517500D01*
X136766035Y-84811959D01*
X135896806Y-86005060D01*
X134895813Y-87085644D01*
X133775884Y-88042548D01*
X132549846Y-88864613D01*
X131230527Y-89540677D01*
X130051071Y-89990346D01*
X129019890Y-90266329D01*
X127899171Y-90463378D01*
X126751839Y-90574859D01*
X125640815Y-90594137D01*
X124835000Y-90540353D01*
X123341749Y-90286063D01*
X121916852Y-89868985D01*
X120569752Y-89297931D01*
X119309893Y-88581711D01*
X118146717Y-87729137D01*
X117089669Y-86749019D01*
X116148191Y-85650168D01*
X115331728Y-84441396D01*
X114649722Y-83131512D01*
X114111617Y-81729328D01*
X113726857Y-80243655D01*
X113710598Y-80161072D01*
X113620801Y-79524081D01*
X113567547Y-78767465D01*
X113555331Y-78168958D01*
X114136218Y-78168958D01*
X114165309Y-78983401D01*
X114231552Y-79720149D01*
X114277247Y-80031693D01*
X114612055Y-81458658D01*
X115114475Y-82818059D01*
X115781421Y-84103805D01*
X116609809Y-85309805D01*
X117432552Y-86261363D01*
X118509999Y-87274934D01*
X119653534Y-88124492D01*
X120876144Y-88817008D01*
X122190818Y-89359455D01*
X123610543Y-89758804D01*
X124154643Y-89869767D01*
X124652141Y-89934698D01*
X125275439Y-89975441D01*
X125970535Y-89992040D01*
X126683426Y-89984544D01*
X127360109Y-89952999D01*
X127946582Y-89897450D01*
X128156867Y-89866318D01*
X129577740Y-89534889D01*
X130930813Y-89042050D01*
X132204698Y-88398372D01*
X133388004Y-87614428D01*
X134469341Y-86700790D01*
X135437319Y-85668030D01*
X136280548Y-84526720D01*
X136987639Y-83287432D01*
X137547201Y-81960738D01*
X137881980Y-80839478D01*
X138142342Y-79413067D01*
X138227920Y-77984848D01*
X138144352Y-76569383D01*
X137897277Y-75181236D01*
X137492331Y-73834971D01*
X136935154Y-72545151D01*
X136231384Y-71326339D01*
X135386658Y-70193099D01*
X134406614Y-69159995D01*
X133296891Y-68241589D01*
X132896537Y-67961718D01*
X131671832Y-67230270D01*
X130430229Y-66668766D01*
X129148390Y-66270233D01*
X127802976Y-66027698D01*
X126370649Y-65934188D01*
X126105000Y-65932637D01*
X124900613Y-65979743D01*
X123803700Y-66123141D01*
X122761055Y-66375712D01*
X121719476Y-66750337D01*
X120628101Y-67258702D01*
X119389575Y-67991575D01*
X118254370Y-68865864D01*
X117233247Y-69866944D01*
X116336963Y-70980193D01*
X115576277Y-72190986D01*
X114961948Y-73484699D01*
X114504735Y-74846709D01*
X114272569Y-75897500D01*
X114189775Y-76562202D01*
X114144349Y-77340623D01*
X114136218Y-78168958D01*
X113555331Y-78168958D01*
X113550847Y-77949309D01*
X113570709Y-77127699D01*
X113627143Y-76360721D01*
X113709887Y-75761429D01*
X114065402Y-74294189D01*
X114580345Y-72902821D01*
X115245266Y-71596886D01*
X116050717Y-70385946D01*
X116987248Y-69279563D01*
X118045411Y-68287299D01*
X119215757Y-67418716D01*
X120488836Y-66683376D01*
X121855199Y-66090839D01*
X123305398Y-65650669D01*
X123812658Y-65538070D01*
X124475175Y-65440543D01*
X125259219Y-65383095D01*
X126109501Y-65365159D01*
X126970732Y-65386169D01*
G37*
G04 #@! TD.AperFunction*
X111652145Y-86368399D02*
X112618564Y-86526755D01*
X113515570Y-86771399D01*
X114317853Y-87091798D01*
X115000106Y-87477419D01*
X115537020Y-87917730D01*
X115639033Y-88027617D01*
X115991330Y-88546109D01*
X116165473Y-89096764D01*
X116162976Y-89686534D01*
X116080212Y-90052513D01*
X116075025Y-90142489D01*
X116133809Y-90233212D01*
X116281623Y-90343205D01*
X116543526Y-90490987D01*
X116944579Y-90695081D01*
X116959948Y-90702728D01*
X118086012Y-91316157D01*
X119048585Y-91954115D01*
X119843341Y-92612977D01*
X120465951Y-93289118D01*
X120912089Y-93978914D01*
X120941806Y-94038205D01*
X121206710Y-94781316D01*
X121303214Y-95570450D01*
X121229567Y-96379908D01*
X121128737Y-96783092D01*
X120845020Y-97505750D01*
X120474663Y-98081579D01*
X120010398Y-98514119D01*
X119444962Y-98806911D01*
X118771089Y-98963496D01*
X117981515Y-98987415D01*
X117068974Y-98882210D01*
X116889120Y-98849455D01*
X116556805Y-98788917D01*
X116302832Y-98748403D01*
X116171283Y-98734770D01*
X116162585Y-98736462D01*
X116176143Y-98827133D01*
X116231086Y-99050403D01*
X116316971Y-99365001D01*
X116357082Y-99505206D01*
X116618947Y-100576186D01*
X116777401Y-101608259D01*
X116834524Y-102585160D01*
X116792395Y-103490625D01*
X116653094Y-104308390D01*
X116418701Y-105022189D01*
X116091296Y-105615759D01*
X115672959Y-106072836D01*
X115500930Y-106200551D01*
X114935455Y-106487108D01*
X114316260Y-106651409D01*
X113675080Y-106698716D01*
X113043649Y-106634293D01*
X112453699Y-106463401D01*
X111936963Y-106191303D01*
X111525176Y-105823261D01*
X111313699Y-105506164D01*
X111129073Y-105144267D01*
X110771614Y-105679566D01*
X110326174Y-106223105D01*
X109813413Y-106608904D01*
X109271906Y-106837294D01*
X108788319Y-106934289D01*
X108258352Y-106962797D01*
X107750428Y-106924188D01*
X107332971Y-106819831D01*
X107279772Y-106797409D01*
X106779535Y-106472472D01*
X106353882Y-105993705D01*
X106005750Y-105373958D01*
X105738073Y-104626083D01*
X105553787Y-103762930D01*
X105455826Y-102797350D01*
X105452653Y-102412358D01*
X105816389Y-102412358D01*
X105883918Y-103190634D01*
X106025705Y-103956872D01*
X106231826Y-104663281D01*
X106492359Y-105262071D01*
X106624997Y-105484116D01*
X107005455Y-105898665D01*
X107497226Y-106204178D01*
X108058235Y-106388520D01*
X108646410Y-106439555D01*
X109219678Y-106345144D01*
X109392568Y-106282456D01*
X109726162Y-106107369D01*
X109998297Y-105870344D01*
X110246072Y-105531565D01*
X110468167Y-105128072D01*
X110737658Y-104520149D01*
X110935582Y-103888703D01*
X111069354Y-103195402D01*
X111146389Y-102401916D01*
X111174049Y-101478929D01*
X111170999Y-100799092D01*
X111155105Y-100141626D01*
X111128164Y-99534184D01*
X111091973Y-99004419D01*
X111048327Y-98579983D01*
X110999024Y-98288530D01*
X110959345Y-98173732D01*
X110894357Y-98137799D01*
X110750258Y-98139113D01*
X110504721Y-98181767D01*
X110135421Y-98269855D01*
X109620030Y-98407470D01*
X109492481Y-98442675D01*
X108923245Y-98598495D01*
X108327585Y-98758262D01*
X107766517Y-98905811D01*
X107301058Y-99024980D01*
X107191071Y-99052316D01*
X106806189Y-99154775D01*
X106489423Y-99253624D01*
X106281225Y-99335397D01*
X106221973Y-99374897D01*
X106172030Y-99522847D01*
X106107773Y-99809213D01*
X106036277Y-100192243D01*
X105964617Y-100630191D01*
X105899870Y-101081305D01*
X105849110Y-101503838D01*
X105833039Y-101669833D01*
X105816389Y-102412358D01*
X105452653Y-102412358D01*
X105447127Y-101742194D01*
X105530623Y-100610313D01*
X105658685Y-99699923D01*
X105713934Y-99372346D01*
X104819645Y-99322527D01*
X103766961Y-99198774D01*
X102839215Y-98949576D01*
X102026727Y-98571115D01*
X101319815Y-98059574D01*
X101105164Y-97858027D01*
X100680720Y-97369081D01*
X100411901Y-96887530D01*
X100280839Y-96367708D01*
X100276819Y-96150500D01*
X100706402Y-96150500D01*
X100796147Y-96684098D01*
X100883312Y-96891750D01*
X101153586Y-97271427D01*
X101561388Y-97656301D01*
X102065655Y-98019612D01*
X102625322Y-98334603D01*
X103199327Y-98574514D01*
X103653214Y-98696696D01*
X104463036Y-98783050D01*
X105372577Y-98760466D01*
X106170495Y-98659562D01*
X106535020Y-98589497D01*
X107028172Y-98483590D01*
X107603201Y-98352467D01*
X108213357Y-98206751D01*
X108733214Y-98077184D01*
X109021156Y-98006680D01*
X111451675Y-98006680D01*
X111572467Y-99153161D01*
X111619360Y-99784698D01*
X111644643Y-100554917D01*
X111648552Y-101422393D01*
X111631327Y-102345700D01*
X111593204Y-103283413D01*
X111544292Y-104064286D01*
X111548378Y-104630395D01*
X111637533Y-105022757D01*
X111899222Y-105479859D01*
X112295285Y-105851851D01*
X112793421Y-106125284D01*
X113361327Y-106286710D01*
X113966703Y-106322682D01*
X114538928Y-106230679D01*
X114920218Y-106046926D01*
X115301334Y-105727030D01*
X115643316Y-105312079D01*
X115907205Y-104843164D01*
X115947911Y-104744643D01*
X116032765Y-104501138D01*
X116094188Y-104252369D01*
X116137211Y-103958873D01*
X116166868Y-103581185D01*
X116188193Y-103079842D01*
X116196659Y-102794286D01*
X116195965Y-101753076D01*
X116129338Y-100837422D01*
X115991271Y-100001809D01*
X115776256Y-99200723D01*
X115753248Y-99129694D01*
X115560080Y-98541265D01*
X114585684Y-98308278D01*
X113708851Y-98119019D01*
X112946427Y-97996628D01*
X112316021Y-97943375D01*
X111866758Y-97957519D01*
X111451675Y-98006680D01*
X109021156Y-98006680D01*
X109690283Y-97842841D01*
X110510983Y-97667979D01*
X111230271Y-97552389D01*
X111883105Y-97495857D01*
X112504442Y-97498173D01*
X113129240Y-97559126D01*
X113792457Y-97678505D01*
X114529052Y-97856098D01*
X115188488Y-98038179D01*
X116198150Y-98299204D01*
X117074663Y-98461997D01*
X117837498Y-98526425D01*
X118506126Y-98492353D01*
X119100018Y-98359648D01*
X119638645Y-98128176D01*
X119845714Y-98006166D01*
X120259983Y-97639395D01*
X120570298Y-97149404D01*
X120766399Y-96568336D01*
X120838030Y-95928333D01*
X120774929Y-95261538D01*
X120753430Y-95162139D01*
X120495655Y-94400633D01*
X120084317Y-93683281D01*
X119514028Y-93004641D01*
X118779403Y-92359273D01*
X117875056Y-91741734D01*
X116795601Y-91146584D01*
X116761832Y-91129705D01*
X115757126Y-90628826D01*
X115332515Y-91002583D01*
X114790223Y-91394729D01*
X114110666Y-91749069D01*
X113337180Y-92045108D01*
X112811688Y-92194804D01*
X112048213Y-92331335D01*
X111180622Y-92399693D01*
X110272705Y-92400431D01*
X109388255Y-92334101D01*
X108591062Y-92201259D01*
X108408642Y-92156604D01*
X107675759Y-91928329D01*
X107013356Y-91654771D01*
X106462715Y-91354627D01*
X106170958Y-91143018D01*
X105968146Y-90993984D01*
X105810148Y-90914681D01*
X105785271Y-90910714D01*
X105616922Y-90954084D01*
X105332429Y-91070851D01*
X104971180Y-91240998D01*
X104572565Y-91444510D01*
X104175973Y-91661370D01*
X103820792Y-91871564D01*
X103576695Y-92033023D01*
X103172691Y-92355373D01*
X102713568Y-92773584D01*
X102244623Y-93241618D01*
X101811152Y-93713433D01*
X101458453Y-94142990D01*
X101342412Y-94303966D01*
X100983447Y-94938384D01*
X100770139Y-95561245D01*
X100706402Y-96150500D01*
X100276819Y-96150500D01*
X100269663Y-95763952D01*
X100272047Y-95729116D01*
X100403621Y-95076549D01*
X100697189Y-94398496D01*
X101138196Y-93711271D01*
X101712090Y-93031187D01*
X102404317Y-92374559D01*
X103200323Y-91757702D01*
X104085554Y-91196929D01*
X104529314Y-90956858D01*
X104881929Y-90775075D01*
X105169619Y-90624831D01*
X105357154Y-90524643D01*
X105410820Y-90493546D01*
X105401112Y-90400273D01*
X105336785Y-90199020D01*
X105297427Y-90096214D01*
X105158833Y-89532426D01*
X105200564Y-88983729D01*
X105422817Y-88449452D01*
X105825787Y-87928925D01*
X105975025Y-87781808D01*
X106570599Y-87332926D01*
X107305609Y-86956282D01*
X108150017Y-86659358D01*
X109073783Y-86449630D01*
X110046866Y-86334579D01*
X111039227Y-86321683D01*
X111652145Y-86368399D01*
G04 #@! TA.AperFunction,EtchedComponent*
G36*
X111652145Y-86368399D02*
G01*
X112618564Y-86526755D01*
X113515570Y-86771399D01*
X114317853Y-87091798D01*
X115000106Y-87477419D01*
X115537020Y-87917730D01*
X115639033Y-88027617D01*
X115991330Y-88546109D01*
X116165473Y-89096764D01*
X116162976Y-89686534D01*
X116080212Y-90052513D01*
X116075025Y-90142489D01*
X116133809Y-90233212D01*
X116281623Y-90343205D01*
X116543526Y-90490987D01*
X116944579Y-90695081D01*
X116959948Y-90702728D01*
X118086012Y-91316157D01*
X119048585Y-91954115D01*
X119843341Y-92612977D01*
X120465951Y-93289118D01*
X120912089Y-93978914D01*
X120941806Y-94038205D01*
X121206710Y-94781316D01*
X121303214Y-95570450D01*
X121229567Y-96379908D01*
X121128737Y-96783092D01*
X120845020Y-97505750D01*
X120474663Y-98081579D01*
X120010398Y-98514119D01*
X119444962Y-98806911D01*
X118771089Y-98963496D01*
X117981515Y-98987415D01*
X117068974Y-98882210D01*
X116889120Y-98849455D01*
X116556805Y-98788917D01*
X116302832Y-98748403D01*
X116171283Y-98734770D01*
X116162585Y-98736462D01*
X116176143Y-98827133D01*
X116231086Y-99050403D01*
X116316971Y-99365001D01*
X116357082Y-99505206D01*
X116618947Y-100576186D01*
X116777401Y-101608259D01*
X116834524Y-102585160D01*
X116792395Y-103490625D01*
X116653094Y-104308390D01*
X116418701Y-105022189D01*
X116091296Y-105615759D01*
X115672959Y-106072836D01*
X115500930Y-106200551D01*
X114935455Y-106487108D01*
X114316260Y-106651409D01*
X113675080Y-106698716D01*
X113043649Y-106634293D01*
X112453699Y-106463401D01*
X111936963Y-106191303D01*
X111525176Y-105823261D01*
X111313699Y-105506164D01*
X111129073Y-105144267D01*
X110771614Y-105679566D01*
X110326174Y-106223105D01*
X109813413Y-106608904D01*
X109271906Y-106837294D01*
X108788319Y-106934289D01*
X108258352Y-106962797D01*
X107750428Y-106924188D01*
X107332971Y-106819831D01*
X107279772Y-106797409D01*
X106779535Y-106472472D01*
X106353882Y-105993705D01*
X106005750Y-105373958D01*
X105738073Y-104626083D01*
X105553787Y-103762930D01*
X105455826Y-102797350D01*
X105452653Y-102412358D01*
X105816389Y-102412358D01*
X105883918Y-103190634D01*
X106025705Y-103956872D01*
X106231826Y-104663281D01*
X106492359Y-105262071D01*
X106624997Y-105484116D01*
X107005455Y-105898665D01*
X107497226Y-106204178D01*
X108058235Y-106388520D01*
X108646410Y-106439555D01*
X109219678Y-106345144D01*
X109392568Y-106282456D01*
X109726162Y-106107369D01*
X109998297Y-105870344D01*
X110246072Y-105531565D01*
X110468167Y-105128072D01*
X110737658Y-104520149D01*
X110935582Y-103888703D01*
X111069354Y-103195402D01*
X111146389Y-102401916D01*
X111174049Y-101478929D01*
X111170999Y-100799092D01*
X111155105Y-100141626D01*
X111128164Y-99534184D01*
X111091973Y-99004419D01*
X111048327Y-98579983D01*
X110999024Y-98288530D01*
X110959345Y-98173732D01*
X110894357Y-98137799D01*
X110750258Y-98139113D01*
X110504721Y-98181767D01*
X110135421Y-98269855D01*
X109620030Y-98407470D01*
X109492481Y-98442675D01*
X108923245Y-98598495D01*
X108327585Y-98758262D01*
X107766517Y-98905811D01*
X107301058Y-99024980D01*
X107191071Y-99052316D01*
X106806189Y-99154775D01*
X106489423Y-99253624D01*
X106281225Y-99335397D01*
X106221973Y-99374897D01*
X106172030Y-99522847D01*
X106107773Y-99809213D01*
X106036277Y-100192243D01*
X105964617Y-100630191D01*
X105899870Y-101081305D01*
X105849110Y-101503838D01*
X105833039Y-101669833D01*
X105816389Y-102412358D01*
X105452653Y-102412358D01*
X105447127Y-101742194D01*
X105530623Y-100610313D01*
X105658685Y-99699923D01*
X105713934Y-99372346D01*
X104819645Y-99322527D01*
X103766961Y-99198774D01*
X102839215Y-98949576D01*
X102026727Y-98571115D01*
X101319815Y-98059574D01*
X101105164Y-97858027D01*
X100680720Y-97369081D01*
X100411901Y-96887530D01*
X100280839Y-96367708D01*
X100276819Y-96150500D01*
X100706402Y-96150500D01*
X100796147Y-96684098D01*
X100883312Y-96891750D01*
X101153586Y-97271427D01*
X101561388Y-97656301D01*
X102065655Y-98019612D01*
X102625322Y-98334603D01*
X103199327Y-98574514D01*
X103653214Y-98696696D01*
X104463036Y-98783050D01*
X105372577Y-98760466D01*
X106170495Y-98659562D01*
X106535020Y-98589497D01*
X107028172Y-98483590D01*
X107603201Y-98352467D01*
X108213357Y-98206751D01*
X108733214Y-98077184D01*
X109021156Y-98006680D01*
X111451675Y-98006680D01*
X111572467Y-99153161D01*
X111619360Y-99784698D01*
X111644643Y-100554917D01*
X111648552Y-101422393D01*
X111631327Y-102345700D01*
X111593204Y-103283413D01*
X111544292Y-104064286D01*
X111548378Y-104630395D01*
X111637533Y-105022757D01*
X111899222Y-105479859D01*
X112295285Y-105851851D01*
X112793421Y-106125284D01*
X113361327Y-106286710D01*
X113966703Y-106322682D01*
X114538928Y-106230679D01*
X114920218Y-106046926D01*
X115301334Y-105727030D01*
X115643316Y-105312079D01*
X115907205Y-104843164D01*
X115947911Y-104744643D01*
X116032765Y-104501138D01*
X116094188Y-104252369D01*
X116137211Y-103958873D01*
X116166868Y-103581185D01*
X116188193Y-103079842D01*
X116196659Y-102794286D01*
X116195965Y-101753076D01*
X116129338Y-100837422D01*
X115991271Y-100001809D01*
X115776256Y-99200723D01*
X115753248Y-99129694D01*
X115560080Y-98541265D01*
X114585684Y-98308278D01*
X113708851Y-98119019D01*
X112946427Y-97996628D01*
X112316021Y-97943375D01*
X111866758Y-97957519D01*
X111451675Y-98006680D01*
X109021156Y-98006680D01*
X109690283Y-97842841D01*
X110510983Y-97667979D01*
X111230271Y-97552389D01*
X111883105Y-97495857D01*
X112504442Y-97498173D01*
X113129240Y-97559126D01*
X113792457Y-97678505D01*
X114529052Y-97856098D01*
X115188488Y-98038179D01*
X116198150Y-98299204D01*
X117074663Y-98461997D01*
X117837498Y-98526425D01*
X118506126Y-98492353D01*
X119100018Y-98359648D01*
X119638645Y-98128176D01*
X119845714Y-98006166D01*
X120259983Y-97639395D01*
X120570298Y-97149404D01*
X120766399Y-96568336D01*
X120838030Y-95928333D01*
X120774929Y-95261538D01*
X120753430Y-95162139D01*
X120495655Y-94400633D01*
X120084317Y-93683281D01*
X119514028Y-93004641D01*
X118779403Y-92359273D01*
X117875056Y-91741734D01*
X116795601Y-91146584D01*
X116761832Y-91129705D01*
X115757126Y-90628826D01*
X115332515Y-91002583D01*
X114790223Y-91394729D01*
X114110666Y-91749069D01*
X113337180Y-92045108D01*
X112811688Y-92194804D01*
X112048213Y-92331335D01*
X111180622Y-92399693D01*
X110272705Y-92400431D01*
X109388255Y-92334101D01*
X108591062Y-92201259D01*
X108408642Y-92156604D01*
X107675759Y-91928329D01*
X107013356Y-91654771D01*
X106462715Y-91354627D01*
X106170958Y-91143018D01*
X105968146Y-90993984D01*
X105810148Y-90914681D01*
X105785271Y-90910714D01*
X105616922Y-90954084D01*
X105332429Y-91070851D01*
X104971180Y-91240998D01*
X104572565Y-91444510D01*
X104175973Y-91661370D01*
X103820792Y-91871564D01*
X103576695Y-92033023D01*
X103172691Y-92355373D01*
X102713568Y-92773584D01*
X102244623Y-93241618D01*
X101811152Y-93713433D01*
X101458453Y-94142990D01*
X101342412Y-94303966D01*
X100983447Y-94938384D01*
X100770139Y-95561245D01*
X100706402Y-96150500D01*
X100276819Y-96150500D01*
X100269663Y-95763952D01*
X100272047Y-95729116D01*
X100403621Y-95076549D01*
X100697189Y-94398496D01*
X101138196Y-93711271D01*
X101712090Y-93031187D01*
X102404317Y-92374559D01*
X103200323Y-91757702D01*
X104085554Y-91196929D01*
X104529314Y-90956858D01*
X104881929Y-90775075D01*
X105169619Y-90624831D01*
X105357154Y-90524643D01*
X105410820Y-90493546D01*
X105401112Y-90400273D01*
X105336785Y-90199020D01*
X105297427Y-90096214D01*
X105158833Y-89532426D01*
X105200564Y-88983729D01*
X105422817Y-88449452D01*
X105825787Y-87928925D01*
X105975025Y-87781808D01*
X106570599Y-87332926D01*
X107305609Y-86956282D01*
X108150017Y-86659358D01*
X109073783Y-86449630D01*
X110046866Y-86334579D01*
X111039227Y-86321683D01*
X111652145Y-86368399D01*
G37*
G04 #@! TD.AperFunction*
X118398821Y-35928818D02*
X119326066Y-36175244D01*
X120183203Y-36588520D01*
X120975270Y-37170748D01*
X121296034Y-37472491D01*
X121871464Y-38124025D01*
X122299942Y-38786404D01*
X122611328Y-39511160D01*
X122750799Y-39983352D01*
X122913228Y-40971998D01*
X122897658Y-41952988D01*
X122707353Y-42910884D01*
X122345577Y-43830249D01*
X121815591Y-44695645D01*
X121730989Y-44807944D01*
X121108542Y-45471924D01*
X120363950Y-46026654D01*
X119529950Y-46457370D01*
X118639283Y-46749304D01*
X117724685Y-46887690D01*
X117120221Y-46887508D01*
X116435800Y-46843279D01*
X115514832Y-48670390D01*
X115032357Y-49609651D01*
X114543656Y-50527529D01*
X114057335Y-51410113D01*
X113582000Y-52243490D01*
X113126258Y-53013748D01*
X112698713Y-53706975D01*
X112307974Y-54309259D01*
X111962646Y-54806687D01*
X111671335Y-55185347D01*
X111442647Y-55431327D01*
X111285189Y-55530715D01*
X111270086Y-55532143D01*
X111167002Y-55465661D01*
X110978204Y-55284686D01*
X110730649Y-55016928D01*
X110453720Y-54693036D01*
X109656284Y-53659186D01*
X108878198Y-52522419D01*
X108145490Y-51327119D01*
X107484182Y-50117667D01*
X106920301Y-48938449D01*
X106557407Y-48048214D01*
X106417756Y-47675370D01*
X106302126Y-47372352D01*
X106224425Y-47175250D01*
X106199071Y-47118231D01*
X106108479Y-47129827D01*
X105899486Y-47184332D01*
X105731921Y-47234471D01*
X105423331Y-47307707D01*
X105013298Y-47374703D01*
X104581694Y-47422804D01*
X104507365Y-47428515D01*
X103544001Y-47411465D01*
X102629105Y-47231672D01*
X101968592Y-46978291D01*
X106692305Y-46978291D01*
X106726909Y-47128694D01*
X106821687Y-47410215D01*
X106962760Y-47788348D01*
X107136246Y-48228583D01*
X107328267Y-48696412D01*
X107524944Y-49157328D01*
X107712396Y-49576821D01*
X107871254Y-49909461D01*
X108085480Y-50323513D01*
X108339253Y-50793041D01*
X108618512Y-51294249D01*
X108909192Y-51803343D01*
X109197232Y-52296529D01*
X109468568Y-52750011D01*
X109709137Y-53139996D01*
X109904877Y-53442687D01*
X110041725Y-53634292D01*
X110105618Y-53691014D01*
X110105983Y-53690683D01*
X110095106Y-53593314D01*
X110025776Y-53385884D01*
X109963341Y-53231724D01*
X109685619Y-52502617D01*
X109416979Y-51646750D01*
X109166558Y-50707140D01*
X108943494Y-49726803D01*
X108756924Y-48748757D01*
X108615984Y-47816017D01*
X108529812Y-46971600D01*
X108506428Y-46372773D01*
X108498724Y-45971709D01*
X108463386Y-45738043D01*
X108382074Y-45657986D01*
X108236448Y-45717744D01*
X108008168Y-45903528D01*
X107950685Y-45954860D01*
X107638147Y-46217844D01*
X107302544Y-46473151D01*
X107098675Y-46612301D01*
X106869894Y-46775938D01*
X106722489Y-46918041D01*
X106692305Y-46978291D01*
X101968592Y-46978291D01*
X101775876Y-46904363D01*
X100997512Y-46444761D01*
X100307212Y-45868092D01*
X99718174Y-45189582D01*
X99243597Y-44424454D01*
X98896679Y-43587935D01*
X98690618Y-42695249D01*
X98639862Y-41784020D01*
X99218399Y-41784020D01*
X99267271Y-42635188D01*
X99464272Y-43472802D01*
X99812525Y-44276312D01*
X100315155Y-45025171D01*
X100664682Y-45412460D01*
X101388623Y-46010132D01*
X102216126Y-46466900D01*
X103123057Y-46770741D01*
X103562500Y-46856183D01*
X103918249Y-46877983D01*
X104376791Y-46862636D01*
X104864750Y-46816357D01*
X105308749Y-46745363D01*
X105539762Y-46688683D01*
X106387456Y-46343093D01*
X107150311Y-45853561D01*
X107748180Y-45300540D01*
X108933330Y-45300540D01*
X108989386Y-46402235D01*
X109158886Y-48229397D01*
X109476028Y-50010764D01*
X109934904Y-51721250D01*
X110529606Y-53335767D01*
X110728215Y-53785893D01*
X110936737Y-54201421D01*
X111116510Y-54450662D01*
X111289094Y-54541641D01*
X111476053Y-54482384D01*
X111698948Y-54280917D01*
X111787752Y-54180274D01*
X112008039Y-53888883D01*
X112296110Y-53456476D01*
X112639402Y-52904703D01*
X113025351Y-52255217D01*
X113441396Y-51529669D01*
X113874972Y-50749709D01*
X114313518Y-49936989D01*
X114744470Y-49113161D01*
X114868387Y-48871030D01*
X115197554Y-48221562D01*
X115450060Y-47714913D01*
X115633437Y-47333193D01*
X115755220Y-47058511D01*
X115822941Y-46872978D01*
X115844134Y-46758702D01*
X115826331Y-46697793D01*
X115792420Y-46676538D01*
X115260407Y-46459534D01*
X114703523Y-46166899D01*
X114166979Y-45828138D01*
X113695989Y-45472756D01*
X113335764Y-45130258D01*
X113236610Y-45008653D01*
X112899548Y-44695090D01*
X112440640Y-44474327D01*
X111897120Y-44351932D01*
X111306225Y-44333473D01*
X110705188Y-44424517D01*
X110275357Y-44565842D01*
X109906646Y-44734113D01*
X109535980Y-44926577D01*
X109332200Y-45046424D01*
X108933330Y-45300540D01*
X107748180Y-45300540D01*
X107812540Y-45241008D01*
X108358359Y-44526357D01*
X108771983Y-43730528D01*
X109037625Y-42874445D01*
X109139501Y-41979029D01*
X109140087Y-41916832D01*
X109097409Y-41398278D01*
X108979908Y-40800490D01*
X108806985Y-40199278D01*
X108598038Y-39670452D01*
X108531089Y-39536990D01*
X108224676Y-39076370D01*
X107801928Y-38591199D01*
X107312854Y-38129352D01*
X106807465Y-37738704D01*
X106400665Y-37497538D01*
X105491658Y-37146021D01*
X104576009Y-36974486D01*
X103661675Y-36982852D01*
X102756614Y-37171041D01*
X101868786Y-37538971D01*
X101860947Y-37543072D01*
X101086643Y-38044052D01*
X100441726Y-38654768D01*
X99929319Y-39354671D01*
X99552547Y-40123213D01*
X99314532Y-40939845D01*
X99218399Y-41784020D01*
X98639862Y-41784020D01*
X98638614Y-41761622D01*
X98753865Y-40802278D01*
X98755680Y-40793674D01*
X99042948Y-39849751D01*
X99475564Y-38997097D01*
X100036337Y-38246384D01*
X100708074Y-37608281D01*
X101473580Y-37093458D01*
X102315664Y-36712586D01*
X103217133Y-36476334D01*
X104160793Y-36395373D01*
X105129452Y-36480372D01*
X105557200Y-36572598D01*
X106470034Y-36897419D01*
X107305312Y-37377743D01*
X108047111Y-37998434D01*
X108679505Y-38744356D01*
X109186568Y-39600371D01*
X109470500Y-40292143D01*
X109550907Y-40580701D01*
X109602525Y-40910445D01*
X109630006Y-41326742D01*
X109638001Y-41874956D01*
X109637940Y-41925000D01*
X109622644Y-42547359D01*
X109570047Y-43058780D01*
X109465673Y-43528309D01*
X109295048Y-44024996D01*
X109100104Y-44490610D01*
X109096025Y-44556639D01*
X109186745Y-44550098D01*
X109394551Y-44464770D01*
X109665382Y-44332940D01*
X110369569Y-44033883D01*
X111030421Y-43875731D01*
X111702627Y-43846720D01*
X111874042Y-43857860D01*
X112482413Y-43908864D01*
X112310640Y-43520543D01*
X112032580Y-42683839D01*
X111895367Y-41778732D01*
X111899705Y-41036501D01*
X112459837Y-41036501D01*
X112475825Y-41937583D01*
X112658164Y-42816222D01*
X113003455Y-43651936D01*
X113508298Y-44424244D01*
X113866629Y-44828727D01*
X114597342Y-45448490D01*
X115402074Y-45906200D01*
X116265744Y-46197846D01*
X117173270Y-46319419D01*
X118109573Y-46266909D01*
X118757143Y-46129127D01*
X119581791Y-45810274D01*
X120332940Y-45342450D01*
X120993231Y-44748390D01*
X121545307Y-44050829D01*
X121971809Y-43272501D01*
X122255381Y-42436140D01*
X122378663Y-41564481D01*
X122382564Y-41380714D01*
X122294797Y-40478592D01*
X122041624Y-39614811D01*
X121638233Y-38810349D01*
X121099812Y-38086186D01*
X120441553Y-37463301D01*
X119678642Y-36962673D01*
X118955847Y-36647769D01*
X118310623Y-36493722D01*
X117577478Y-36428425D01*
X116826705Y-36451826D01*
X116128593Y-36563873D01*
X115830135Y-36650057D01*
X114972727Y-37037902D01*
X114213643Y-37573887D01*
X113566647Y-38245631D01*
X113045501Y-39040757D01*
X112940511Y-39248929D01*
X112613599Y-40133456D01*
X112459837Y-41036501D01*
X111899705Y-41036501D01*
X111900776Y-40853335D01*
X112050587Y-39955761D01*
X112164931Y-39575628D01*
X112572130Y-38668436D01*
X113117826Y-37866043D01*
X113785126Y-37180490D01*
X114557135Y-36623818D01*
X115416958Y-36208069D01*
X116347699Y-35945283D01*
X117332465Y-35847501D01*
X117396428Y-35847143D01*
X118398821Y-35928818D01*
G04 #@! TA.AperFunction,EtchedComponent*
G36*
X118398821Y-35928818D02*
G01*
X119326066Y-36175244D01*
X120183203Y-36588520D01*
X120975270Y-37170748D01*
X121296034Y-37472491D01*
X121871464Y-38124025D01*
X122299942Y-38786404D01*
X122611328Y-39511160D01*
X122750799Y-39983352D01*
X122913228Y-40971998D01*
X122897658Y-41952988D01*
X122707353Y-42910884D01*
X122345577Y-43830249D01*
X121815591Y-44695645D01*
X121730989Y-44807944D01*
X121108542Y-45471924D01*
X120363950Y-46026654D01*
X119529950Y-46457370D01*
X118639283Y-46749304D01*
X117724685Y-46887690D01*
X117120221Y-46887508D01*
X116435800Y-46843279D01*
X115514832Y-48670390D01*
X115032357Y-49609651D01*
X114543656Y-50527529D01*
X114057335Y-51410113D01*
X113582000Y-52243490D01*
X113126258Y-53013748D01*
X112698713Y-53706975D01*
X112307974Y-54309259D01*
X111962646Y-54806687D01*
X111671335Y-55185347D01*
X111442647Y-55431327D01*
X111285189Y-55530715D01*
X111270086Y-55532143D01*
X111167002Y-55465661D01*
X110978204Y-55284686D01*
X110730649Y-55016928D01*
X110453720Y-54693036D01*
X109656284Y-53659186D01*
X108878198Y-52522419D01*
X108145490Y-51327119D01*
X107484182Y-50117667D01*
X106920301Y-48938449D01*
X106557407Y-48048214D01*
X106417756Y-47675370D01*
X106302126Y-47372352D01*
X106224425Y-47175250D01*
X106199071Y-47118231D01*
X106108479Y-47129827D01*
X105899486Y-47184332D01*
X105731921Y-47234471D01*
X105423331Y-47307707D01*
X105013298Y-47374703D01*
X104581694Y-47422804D01*
X104507365Y-47428515D01*
X103544001Y-47411465D01*
X102629105Y-47231672D01*
X101968592Y-46978291D01*
X106692305Y-46978291D01*
X106726909Y-47128694D01*
X106821687Y-47410215D01*
X106962760Y-47788348D01*
X107136246Y-48228583D01*
X107328267Y-48696412D01*
X107524944Y-49157328D01*
X107712396Y-49576821D01*
X107871254Y-49909461D01*
X108085480Y-50323513D01*
X108339253Y-50793041D01*
X108618512Y-51294249D01*
X108909192Y-51803343D01*
X109197232Y-52296529D01*
X109468568Y-52750011D01*
X109709137Y-53139996D01*
X109904877Y-53442687D01*
X110041725Y-53634292D01*
X110105618Y-53691014D01*
X110105983Y-53690683D01*
X110095106Y-53593314D01*
X110025776Y-53385884D01*
X109963341Y-53231724D01*
X109685619Y-52502617D01*
X109416979Y-51646750D01*
X109166558Y-50707140D01*
X108943494Y-49726803D01*
X108756924Y-48748757D01*
X108615984Y-47816017D01*
X108529812Y-46971600D01*
X108506428Y-46372773D01*
X108498724Y-45971709D01*
X108463386Y-45738043D01*
X108382074Y-45657986D01*
X108236448Y-45717744D01*
X108008168Y-45903528D01*
X107950685Y-45954860D01*
X107638147Y-46217844D01*
X107302544Y-46473151D01*
X107098675Y-46612301D01*
X106869894Y-46775938D01*
X106722489Y-46918041D01*
X106692305Y-46978291D01*
X101968592Y-46978291D01*
X101775876Y-46904363D01*
X100997512Y-46444761D01*
X100307212Y-45868092D01*
X99718174Y-45189582D01*
X99243597Y-44424454D01*
X98896679Y-43587935D01*
X98690618Y-42695249D01*
X98639862Y-41784020D01*
X99218399Y-41784020D01*
X99267271Y-42635188D01*
X99464272Y-43472802D01*
X99812525Y-44276312D01*
X100315155Y-45025171D01*
X100664682Y-45412460D01*
X101388623Y-46010132D01*
X102216126Y-46466900D01*
X103123057Y-46770741D01*
X103562500Y-46856183D01*
X103918249Y-46877983D01*
X104376791Y-46862636D01*
X104864750Y-46816357D01*
X105308749Y-46745363D01*
X105539762Y-46688683D01*
X106387456Y-46343093D01*
X107150311Y-45853561D01*
X107748180Y-45300540D01*
X108933330Y-45300540D01*
X108989386Y-46402235D01*
X109158886Y-48229397D01*
X109476028Y-50010764D01*
X109934904Y-51721250D01*
X110529606Y-53335767D01*
X110728215Y-53785893D01*
X110936737Y-54201421D01*
X111116510Y-54450662D01*
X111289094Y-54541641D01*
X111476053Y-54482384D01*
X111698948Y-54280917D01*
X111787752Y-54180274D01*
X112008039Y-53888883D01*
X112296110Y-53456476D01*
X112639402Y-52904703D01*
X113025351Y-52255217D01*
X113441396Y-51529669D01*
X113874972Y-50749709D01*
X114313518Y-49936989D01*
X114744470Y-49113161D01*
X114868387Y-48871030D01*
X115197554Y-48221562D01*
X115450060Y-47714913D01*
X115633437Y-47333193D01*
X115755220Y-47058511D01*
X115822941Y-46872978D01*
X115844134Y-46758702D01*
X115826331Y-46697793D01*
X115792420Y-46676538D01*
X115260407Y-46459534D01*
X114703523Y-46166899D01*
X114166979Y-45828138D01*
X113695989Y-45472756D01*
X113335764Y-45130258D01*
X113236610Y-45008653D01*
X112899548Y-44695090D01*
X112440640Y-44474327D01*
X111897120Y-44351932D01*
X111306225Y-44333473D01*
X110705188Y-44424517D01*
X110275357Y-44565842D01*
X109906646Y-44734113D01*
X109535980Y-44926577D01*
X109332200Y-45046424D01*
X108933330Y-45300540D01*
X107748180Y-45300540D01*
X107812540Y-45241008D01*
X108358359Y-44526357D01*
X108771983Y-43730528D01*
X109037625Y-42874445D01*
X109139501Y-41979029D01*
X109140087Y-41916832D01*
X109097409Y-41398278D01*
X108979908Y-40800490D01*
X108806985Y-40199278D01*
X108598038Y-39670452D01*
X108531089Y-39536990D01*
X108224676Y-39076370D01*
X107801928Y-38591199D01*
X107312854Y-38129352D01*
X106807465Y-37738704D01*
X106400665Y-37497538D01*
X105491658Y-37146021D01*
X104576009Y-36974486D01*
X103661675Y-36982852D01*
X102756614Y-37171041D01*
X101868786Y-37538971D01*
X101860947Y-37543072D01*
X101086643Y-38044052D01*
X100441726Y-38654768D01*
X99929319Y-39354671D01*
X99552547Y-40123213D01*
X99314532Y-40939845D01*
X99218399Y-41784020D01*
X98639862Y-41784020D01*
X98638614Y-41761622D01*
X98753865Y-40802278D01*
X98755680Y-40793674D01*
X99042948Y-39849751D01*
X99475564Y-38997097D01*
X100036337Y-38246384D01*
X100708074Y-37608281D01*
X101473580Y-37093458D01*
X102315664Y-36712586D01*
X103217133Y-36476334D01*
X104160793Y-36395373D01*
X105129452Y-36480372D01*
X105557200Y-36572598D01*
X106470034Y-36897419D01*
X107305312Y-37377743D01*
X108047111Y-37998434D01*
X108679505Y-38744356D01*
X109186568Y-39600371D01*
X109470500Y-40292143D01*
X109550907Y-40580701D01*
X109602525Y-40910445D01*
X109630006Y-41326742D01*
X109638001Y-41874956D01*
X109637940Y-41925000D01*
X109622644Y-42547359D01*
X109570047Y-43058780D01*
X109465673Y-43528309D01*
X109295048Y-44024996D01*
X109100104Y-44490610D01*
X109096025Y-44556639D01*
X109186745Y-44550098D01*
X109394551Y-44464770D01*
X109665382Y-44332940D01*
X110369569Y-44033883D01*
X111030421Y-43875731D01*
X111702627Y-43846720D01*
X111874042Y-43857860D01*
X112482413Y-43908864D01*
X112310640Y-43520543D01*
X112032580Y-42683839D01*
X111895367Y-41778732D01*
X111899705Y-41036501D01*
X112459837Y-41036501D01*
X112475825Y-41937583D01*
X112658164Y-42816222D01*
X113003455Y-43651936D01*
X113508298Y-44424244D01*
X113866629Y-44828727D01*
X114597342Y-45448490D01*
X115402074Y-45906200D01*
X116265744Y-46197846D01*
X117173270Y-46319419D01*
X118109573Y-46266909D01*
X118757143Y-46129127D01*
X119581791Y-45810274D01*
X120332940Y-45342450D01*
X120993231Y-44748390D01*
X121545307Y-44050829D01*
X121971809Y-43272501D01*
X122255381Y-42436140D01*
X122378663Y-41564481D01*
X122382564Y-41380714D01*
X122294797Y-40478592D01*
X122041624Y-39614811D01*
X121638233Y-38810349D01*
X121099812Y-38086186D01*
X120441553Y-37463301D01*
X119678642Y-36962673D01*
X118955847Y-36647769D01*
X118310623Y-36493722D01*
X117577478Y-36428425D01*
X116826705Y-36451826D01*
X116128593Y-36563873D01*
X115830135Y-36650057D01*
X114972727Y-37037902D01*
X114213643Y-37573887D01*
X113566647Y-38245631D01*
X113045501Y-39040757D01*
X112940511Y-39248929D01*
X112613599Y-40133456D01*
X112459837Y-41036501D01*
X111899705Y-41036501D01*
X111900776Y-40853335D01*
X112050587Y-39955761D01*
X112164931Y-39575628D01*
X112572130Y-38668436D01*
X113117826Y-37866043D01*
X113785126Y-37180490D01*
X114557135Y-36623818D01*
X115416958Y-36208069D01*
X116347699Y-35945283D01*
X117332465Y-35847501D01*
X117396428Y-35847143D01*
X118398821Y-35928818D01*
G37*
G04 #@! TD.AperFunction*
X111805711Y-18311016D02*
X112526788Y-18342919D01*
X113126442Y-18391923D01*
X113314285Y-18415197D01*
X115354890Y-18788094D01*
X117319633Y-19322832D01*
X119203635Y-20017035D01*
X121002018Y-20868326D01*
X122709903Y-21874328D01*
X124322410Y-23032665D01*
X125834660Y-24340961D01*
X126194564Y-24689286D01*
X127548102Y-26152195D01*
X128745774Y-27707863D01*
X129787167Y-29355503D01*
X130671869Y-31094327D01*
X131399467Y-32923549D01*
X131969547Y-34842381D01*
X132286274Y-36300714D01*
X132367385Y-36857897D01*
X132434140Y-37551302D01*
X132485161Y-38336187D01*
X132519072Y-39167812D01*
X132534496Y-40001436D01*
X132530057Y-40792316D01*
X132504379Y-41495711D01*
X132462106Y-42015797D01*
X132151066Y-43994788D01*
X131674486Y-45900150D01*
X131030957Y-47735406D01*
X130219069Y-49504080D01*
X129237414Y-51209697D01*
X128174736Y-52737323D01*
X127913863Y-53085410D01*
X127751432Y-53314706D01*
X127674705Y-53449791D01*
X127670946Y-53515247D01*
X127727420Y-53535654D01*
X127760535Y-53536708D01*
X127941884Y-53585289D01*
X128231185Y-53715359D01*
X128587836Y-53904256D01*
X128971236Y-54129316D01*
X129340782Y-54367874D01*
X129644668Y-54588429D01*
X130303632Y-55197940D01*
X130929880Y-55953629D01*
X131501315Y-56820559D01*
X131995838Y-57763789D01*
X132391349Y-58748382D01*
X132507931Y-59115357D01*
X132641647Y-59631595D01*
X132719859Y-60113949D01*
X132755425Y-60652524D01*
X132760353Y-60884286D01*
X132758975Y-61309232D01*
X132745514Y-61689821D01*
X132722425Y-61974468D01*
X132703244Y-62084226D01*
X132668827Y-62254933D01*
X132731352Y-62303445D01*
X132898738Y-62278717D01*
X133036100Y-62273896D01*
X133217513Y-62316514D01*
X133469953Y-62417592D01*
X133820396Y-62588150D01*
X134295815Y-62839212D01*
X134374066Y-62881511D01*
X135373974Y-63448233D01*
X136392305Y-64071434D01*
X137375837Y-64716763D01*
X138271352Y-65349866D01*
X138692361Y-65668918D01*
X139534936Y-66326051D01*
X140462647Y-65929856D01*
X142111501Y-65305013D01*
X143735010Y-64851985D01*
X145351426Y-64566478D01*
X146742500Y-64451937D01*
X148187128Y-64462388D01*
X149517034Y-64613318D01*
X150732157Y-64904684D01*
X151832434Y-65336445D01*
X152817804Y-65908558D01*
X153688205Y-66620981D01*
X154443575Y-67473671D01*
X155083854Y-68466587D01*
X155608978Y-69599686D01*
X155996565Y-70788947D01*
X156265664Y-72091259D01*
X156379501Y-73401242D01*
X156341920Y-74698936D01*
X156156766Y-75964376D01*
X155827883Y-77177599D01*
X155359116Y-78318644D01*
X154754308Y-79367546D01*
X154205093Y-80091909D01*
X153466426Y-80835088D01*
X152605452Y-81489817D01*
X151665583Y-82028678D01*
X150690230Y-82424255D01*
X150358763Y-82521103D01*
X150040761Y-82609879D01*
X149794126Y-82688708D01*
X149669911Y-82741203D01*
X149667763Y-82742899D01*
X149663407Y-82846879D01*
X149695727Y-83096042D01*
X149759432Y-83459062D01*
X149849230Y-83904614D01*
X149914360Y-84202665D01*
X150220803Y-85663471D01*
X150487812Y-87151023D01*
X150718628Y-88691492D01*
X150916496Y-90311045D01*
X151084659Y-92035851D01*
X151226359Y-93892080D01*
X151330295Y-95627857D01*
X151343089Y-95948119D01*
X151356680Y-96437100D01*
X151370903Y-97082090D01*
X151385592Y-97870381D01*
X151400580Y-98789267D01*
X151415702Y-99826038D01*
X151430791Y-100967986D01*
X151445682Y-102202404D01*
X151460208Y-103516583D01*
X151474204Y-104897816D01*
X151487503Y-106333393D01*
X151499940Y-107810608D01*
X151511348Y-109316751D01*
X151513967Y-109688572D01*
X151524594Y-111170020D01*
X151535588Y-112606619D01*
X151546831Y-113987372D01*
X151558204Y-115301282D01*
X151569591Y-116537352D01*
X151580874Y-117684585D01*
X151591933Y-118731983D01*
X151602651Y-119668549D01*
X151612910Y-120483288D01*
X151622593Y-121165200D01*
X151631580Y-121703290D01*
X151639755Y-122086560D01*
X151646999Y-122304013D01*
X151649731Y-122343214D01*
X151700879Y-122796786D01*
X152895618Y-122805635D01*
X153473208Y-122817323D01*
X153933520Y-122847633D01*
X154340359Y-122904045D01*
X154757534Y-122994036D01*
X154970813Y-123048857D01*
X156186423Y-123449452D01*
X157269673Y-123967857D01*
X158217625Y-124601838D01*
X159027342Y-125349162D01*
X159695887Y-126207597D01*
X160124126Y-126966657D01*
X160418782Y-127627354D01*
X160613401Y-128197762D01*
X160720145Y-128730170D01*
X160751177Y-129276862D01*
X160739755Y-129613167D01*
X160618748Y-130350188D01*
X160349063Y-130983587D01*
X159929303Y-131515690D01*
X159358070Y-131948821D01*
X159324025Y-131968780D01*
X159112603Y-132081628D01*
X158915027Y-132154352D01*
X158681624Y-132196119D01*
X158362722Y-132216097D01*
X157945714Y-132223159D01*
X157438970Y-132217903D01*
X157046406Y-132186708D01*
X156701608Y-132121037D01*
X156358214Y-132019074D01*
X155200123Y-131545477D01*
X154055081Y-130906761D01*
X152950287Y-130118687D01*
X152644832Y-129867448D01*
X152049285Y-129362210D01*
X152049607Y-129753426D01*
X152055418Y-129982258D01*
X152071194Y-130348867D01*
X152094803Y-130810005D01*
X152124116Y-131322424D01*
X152138129Y-131550714D01*
X152189306Y-132403792D01*
X152245425Y-133404985D01*
X152304893Y-134521100D01*
X152366116Y-135718942D01*
X152427497Y-136965318D01*
X152487444Y-138227031D01*
X152544360Y-139470889D01*
X152596652Y-140663695D01*
X152642724Y-141772257D01*
X152680983Y-142763378D01*
X152693318Y-143107385D01*
X152714290Y-143841408D01*
X152730863Y-144699963D01*
X152743175Y-145661597D01*
X152751361Y-146704853D01*
X152755561Y-147808278D01*
X152755911Y-148950417D01*
X152752549Y-150109815D01*
X152745613Y-151265017D01*
X152735240Y-152394569D01*
X152721568Y-153477016D01*
X152704733Y-154490903D01*
X152684874Y-155414775D01*
X152662129Y-156227178D01*
X152636634Y-156906657D01*
X152608527Y-157431757D01*
X152600808Y-157540357D01*
X152408222Y-159708890D01*
X152171103Y-161715148D01*
X151885733Y-163573633D01*
X151548393Y-165298848D01*
X151155367Y-166905296D01*
X150702935Y-168407479D01*
X150187380Y-169819900D01*
X149604983Y-171157062D01*
X148952028Y-172433468D01*
X148643804Y-172975504D01*
X148448547Y-173301338D01*
X148175183Y-173747289D01*
X147843891Y-174280975D01*
X147474851Y-174870014D01*
X147088240Y-175482024D01*
X146786925Y-175955357D01*
X146337643Y-176662395D01*
X145911926Y-177339749D01*
X145520114Y-177970390D01*
X145172549Y-178537287D01*
X144879569Y-179023409D01*
X144651516Y-179411724D01*
X144498730Y-179685204D01*
X144431550Y-179826816D01*
X144429285Y-179838421D01*
X144501901Y-179902933D01*
X144691502Y-180026431D01*
X144934313Y-180169130D01*
X145334092Y-180440585D01*
X145789657Y-180823527D01*
X146258895Y-181276691D01*
X146699694Y-181758813D01*
X147069944Y-182228630D01*
X147141666Y-182332052D01*
X147651904Y-183185935D01*
X148076318Y-184090689D01*
X148405955Y-185014377D01*
X148631864Y-185925065D01*
X148745092Y-186790816D01*
X148736689Y-187579696D01*
X148695603Y-187875707D01*
X148473330Y-188729025D01*
X148146279Y-189434727D01*
X147713882Y-189993713D01*
X147175568Y-190406884D01*
X147051801Y-190473798D01*
X146479438Y-190684776D01*
X145805979Y-190803799D01*
X145091069Y-190823042D01*
X144678750Y-190785095D01*
X144166278Y-190701490D01*
X143746991Y-190598224D01*
X143342921Y-190450812D01*
X142876096Y-190234770D01*
X142789780Y-190191902D01*
X142437062Y-190007349D01*
X142111836Y-189815347D01*
X141795210Y-189599445D01*
X141468296Y-189343191D01*
X141112203Y-189030135D01*
X140708043Y-188643824D01*
X140236925Y-188167809D01*
X139679961Y-187585637D01*
X139150614Y-187022500D01*
X138434986Y-186267688D01*
X137829439Y-185651627D01*
X137330724Y-185171395D01*
X136935586Y-184824067D01*
X136640775Y-184606722D01*
X136443038Y-184516437D01*
X136368930Y-184522389D01*
X136207734Y-184605862D01*
X135953604Y-184739971D01*
X135766071Y-184839854D01*
X134669326Y-185385652D01*
X133538643Y-185864334D01*
X132346841Y-186284256D01*
X131066744Y-186653778D01*
X129671171Y-186981259D01*
X128132944Y-187275058D01*
X127511071Y-187378692D01*
X127072802Y-187449144D01*
X126488053Y-187543139D01*
X125789474Y-187655428D01*
X125009713Y-187780764D01*
X124181421Y-187913897D01*
X123337247Y-188049581D01*
X122703214Y-188151487D01*
X121180057Y-188394101D01*
X119809968Y-188607202D01*
X118567582Y-188794093D01*
X117427530Y-188958078D01*
X116364445Y-189102458D01*
X115352961Y-189230538D01*
X114367709Y-189345620D01*
X113383323Y-189451007D01*
X112374435Y-189550002D01*
X111315679Y-189645907D01*
X111046428Y-189669254D01*
X110317352Y-189721338D01*
X109465150Y-189764261D01*
X108516514Y-189798026D01*
X107498137Y-189822634D01*
X106436712Y-189838089D01*
X105358932Y-189844393D01*
X104291489Y-189841549D01*
X103261076Y-189829559D01*
X102294387Y-189808427D01*
X101418114Y-189778154D01*
X100658949Y-189738743D01*
X100043586Y-189690197D01*
X99843214Y-189668164D01*
X98033319Y-189412544D01*
X96370387Y-189103657D01*
X94825735Y-188733675D01*
X93370680Y-188294771D01*
X91976538Y-187779117D01*
X90614627Y-187178886D01*
X90473662Y-187111281D01*
X89978990Y-186867695D01*
X89510832Y-186628869D01*
X89107221Y-186414809D01*
X88806189Y-186245521D01*
X88687749Y-186171825D01*
X88288532Y-185902397D01*
X87642753Y-186211879D01*
X87286402Y-186391207D01*
X86917006Y-186596369D01*
X86512595Y-186841607D01*
X86051195Y-187141169D01*
X85510835Y-187509298D01*
X84869542Y-187960241D01*
X84145602Y-188479190D01*
X83330829Y-189058351D01*
X82631424Y-189535248D01*
X82023824Y-189924304D01*
X81484467Y-190239939D01*
X80989793Y-190496573D01*
X80516237Y-190708629D01*
X80475912Y-190725178D01*
X80104055Y-190864667D01*
X79774588Y-190952419D01*
X79415976Y-191002158D01*
X78956681Y-191027609D01*
X78888214Y-191029778D01*
X78271098Y-191027599D01*
X77801145Y-190980932D01*
X77598805Y-190932596D01*
X77001040Y-190664473D01*
X76393340Y-190261748D01*
X75820469Y-189762805D01*
X75327197Y-189206028D01*
X74995490Y-188700509D01*
X74768863Y-188108946D01*
X74675019Y-187446113D01*
X74706275Y-186959737D01*
X75244051Y-186959737D01*
X75256851Y-187618895D01*
X75416928Y-188282073D01*
X75716282Y-188911724D01*
X76024237Y-189335714D01*
X76297113Y-189653214D01*
X76244643Y-189239436D01*
X76243908Y-188706469D01*
X76353877Y-188100605D01*
X76561507Y-187481625D01*
X76688742Y-187203929D01*
X76940898Y-186802115D01*
X77304954Y-186349304D01*
X77738140Y-185889337D01*
X78197688Y-185466054D01*
X78640830Y-185123296D01*
X78842857Y-184995829D01*
X79213609Y-184803402D01*
X79466200Y-184722657D01*
X79622395Y-184749791D01*
X79692835Y-184847299D01*
X79665469Y-184957353D01*
X79505011Y-185115690D01*
X79197708Y-185335035D01*
X79090219Y-185404806D01*
X78502439Y-185831482D01*
X77956078Y-186322820D01*
X77489778Y-186839145D01*
X77142176Y-187340786D01*
X77066955Y-187482203D01*
X76839568Y-188146992D01*
X76754942Y-188914736D01*
X76797128Y-189647352D01*
X76842434Y-189937516D01*
X76913877Y-190110239D01*
X77053418Y-190228820D01*
X77250500Y-190331221D01*
X77966294Y-190585181D01*
X78734036Y-190675416D01*
X79568215Y-190603271D01*
X79764803Y-190565168D01*
X80257968Y-190436391D01*
X80759283Y-190252608D01*
X81287960Y-190002586D01*
X81863208Y-189675094D01*
X82504240Y-189258897D01*
X83230266Y-188742764D01*
X84060498Y-188115462D01*
X84381611Y-187865718D01*
X85309720Y-187160012D01*
X86142930Y-186569130D01*
X86873265Y-186098352D01*
X87492744Y-185752957D01*
X87767487Y-185625052D01*
X88070565Y-185492278D01*
X88314842Y-185378729D01*
X88438975Y-185313799D01*
X88414939Y-185229520D01*
X88278700Y-185038525D01*
X88048644Y-184760042D01*
X87743159Y-184413304D01*
X87380631Y-184017540D01*
X86979446Y-183591980D01*
X86557990Y-183155854D01*
X86134652Y-182728394D01*
X85727816Y-182328830D01*
X85355870Y-181976391D01*
X85037199Y-181690309D01*
X84790192Y-181489812D01*
X84765944Y-181472207D01*
X84052534Y-181047396D01*
X83343368Y-180797719D01*
X82638340Y-180717857D01*
X82300429Y-180733571D01*
X82009855Y-180794449D01*
X81691589Y-180921096D01*
X81434110Y-181048556D01*
X80351761Y-181647473D01*
X79331024Y-182291642D01*
X78387833Y-182967116D01*
X77538123Y-183659946D01*
X76797829Y-184356184D01*
X76182885Y-185041884D01*
X75709225Y-185703096D01*
X75392785Y-186325874D01*
X75386525Y-186342143D01*
X75244051Y-186959737D01*
X74706275Y-186959737D01*
X74718526Y-186769109D01*
X74810305Y-186386676D01*
X75101342Y-185714981D01*
X75557397Y-185009990D01*
X76167544Y-184282683D01*
X76920856Y-183544039D01*
X77806409Y-182805038D01*
X78813277Y-182076660D01*
X79610201Y-181563128D01*
X79955099Y-181346899D01*
X80234532Y-181163502D01*
X80417027Y-181034138D01*
X80472445Y-180982259D01*
X80417139Y-180898053D01*
X80263532Y-180705435D01*
X80033967Y-180431495D01*
X79750787Y-180103328D01*
X79696377Y-180041195D01*
X78120460Y-178142010D01*
X76718626Y-176228980D01*
X75484112Y-174286930D01*
X74410155Y-172300687D01*
X73489990Y-170255077D01*
X72716856Y-168134927D01*
X72083988Y-165925063D01*
X71584624Y-163610312D01*
X71212000Y-161175500D01*
X71183514Y-160942143D01*
X71087039Y-160071929D01*
X71009853Y-159223246D01*
X70950845Y-158366680D01*
X70908906Y-157472818D01*
X70882924Y-156512244D01*
X70871789Y-155455545D01*
X70874392Y-154273308D01*
X70887310Y-153095357D01*
X70899235Y-152312561D01*
X70912383Y-151599837D01*
X70927847Y-150935481D01*
X70946719Y-150297790D01*
X70970089Y-149665060D01*
X70999051Y-149015588D01*
X71034695Y-148327670D01*
X71078115Y-147579602D01*
X71130401Y-146749682D01*
X71192646Y-145816206D01*
X71265942Y-144757470D01*
X71351380Y-143551770D01*
X71405296Y-142799286D01*
X71500274Y-141434298D01*
X71578013Y-140211169D01*
X71639999Y-139091301D01*
X71687717Y-138036094D01*
X71722655Y-137006948D01*
X71746299Y-135965264D01*
X71760136Y-134872441D01*
X71765650Y-133689881D01*
X71765887Y-133435074D01*
X71767142Y-130194076D01*
X71290892Y-130652467D01*
X70898947Y-130992171D01*
X70388489Y-131379563D01*
X69804743Y-131784182D01*
X69192930Y-132175566D01*
X68598273Y-132523254D01*
X68211215Y-132726915D01*
X67477654Y-133040933D01*
X66827480Y-133210207D01*
X66239731Y-133238409D01*
X65773458Y-133154176D01*
X65257363Y-132926476D01*
X64844535Y-132587941D01*
X64564822Y-132166400D01*
X64490603Y-131958053D01*
X64382316Y-131672007D01*
X64239172Y-131531120D01*
X64182405Y-131510929D01*
X63964925Y-131396180D01*
X63699208Y-131173198D01*
X63430018Y-130889527D01*
X63202122Y-130592713D01*
X63060286Y-130330298D01*
X63054144Y-130312657D01*
X62963607Y-129760240D01*
X63416280Y-129760240D01*
X63542414Y-130221523D01*
X63840421Y-130648183D01*
X64009594Y-130811534D01*
X64252497Y-131009405D01*
X64410486Y-131079085D01*
X64524928Y-131022649D01*
X64636777Y-130842973D01*
X64817019Y-130585874D01*
X65089593Y-130304022D01*
X65418399Y-130023582D01*
X65767332Y-129770719D01*
X66100292Y-129571597D01*
X66381175Y-129452381D01*
X66573750Y-129439188D01*
X66686663Y-129543989D01*
X66653530Y-129702680D01*
X66488869Y-129884678D01*
X66302957Y-130009659D01*
X65942956Y-130246951D01*
X65578901Y-130544681D01*
X65260638Y-130857192D01*
X65038013Y-131138826D01*
X65001963Y-131201326D01*
X64879176Y-131590643D01*
X64930889Y-131939597D01*
X65122321Y-132209096D01*
X65516286Y-132504928D01*
X65960039Y-132666554D01*
X66500501Y-132709753D01*
X66601820Y-132706610D01*
X66922043Y-132678984D01*
X67216518Y-132615178D01*
X67542205Y-132497745D01*
X67956063Y-132309240D01*
X68053248Y-132262051D01*
X68989576Y-131765739D01*
X69815079Y-131237932D01*
X70599716Y-130631816D01*
X70971208Y-130309321D01*
X71762773Y-129600357D01*
X71721869Y-128920000D01*
X71705866Y-128610193D01*
X71686197Y-128161761D01*
X71664562Y-127617428D01*
X71642663Y-127019920D01*
X71622938Y-126434957D01*
X71564911Y-124630271D01*
X70645491Y-124683653D01*
X69494860Y-124838277D01*
X68346586Y-125161842D01*
X67224482Y-125643137D01*
X66152362Y-126270947D01*
X65154038Y-127034060D01*
X64641572Y-127510845D01*
X64074663Y-128139636D01*
X63681849Y-128722198D01*
X63462573Y-129261432D01*
X63416280Y-129760240D01*
X62963607Y-129760240D01*
X62962330Y-129752452D01*
X63036420Y-129158334D01*
X63266751Y-128542143D01*
X63643662Y-127915719D01*
X64157491Y-127290901D01*
X64798576Y-126679528D01*
X65557255Y-126093441D01*
X66423868Y-125544479D01*
X67331198Y-125071498D01*
X68353533Y-124652621D01*
X69353358Y-124380645D01*
X70389429Y-124240262D01*
X70565178Y-124228839D01*
X71495000Y-124176802D01*
X71494553Y-123713579D01*
X71489309Y-123540267D01*
X71474359Y-123203300D01*
X71450633Y-122720141D01*
X71419058Y-122108254D01*
X71380564Y-121385100D01*
X71336080Y-120568143D01*
X71286533Y-119674844D01*
X71232853Y-118722667D01*
X71180489Y-117807500D01*
X71119782Y-116751387D01*
X71058849Y-115686608D01*
X70999101Y-114638113D01*
X70941948Y-113630854D01*
X70888801Y-112689781D01*
X70841070Y-111839845D01*
X70800166Y-111105996D01*
X70767499Y-110513184D01*
X70752294Y-110232857D01*
X70724062Y-109596723D01*
X70699713Y-108825697D01*
X70679251Y-107941678D01*
X70662678Y-106966563D01*
X70649996Y-105922248D01*
X70641207Y-104830632D01*
X70636315Y-103713611D01*
X70635783Y-103113063D01*
X71586180Y-103113063D01*
X71588048Y-104168547D01*
X71594544Y-105150824D01*
X71606585Y-106085688D01*
X71625085Y-106998929D01*
X71650961Y-107916340D01*
X71685129Y-108863711D01*
X71728503Y-109866836D01*
X71782001Y-110951505D01*
X71846537Y-112143511D01*
X71923027Y-113468645D01*
X71998387Y-114723214D01*
X72125874Y-116825141D01*
X72241670Y-118760896D01*
X72345796Y-120545359D01*
X72438271Y-122193408D01*
X72519114Y-123719923D01*
X72588344Y-125139781D01*
X72645982Y-126467863D01*
X72692046Y-127719047D01*
X72726556Y-128908212D01*
X72749532Y-130050236D01*
X72760992Y-131160000D01*
X72760957Y-132252381D01*
X72749446Y-133342258D01*
X72726478Y-134444511D01*
X72692072Y-135574018D01*
X72646249Y-136745659D01*
X72589028Y-137974311D01*
X72520428Y-139274855D01*
X72440468Y-140662168D01*
X72349169Y-142151131D01*
X72246549Y-143756621D01*
X72132628Y-145493518D01*
X72040445Y-146881429D01*
X71913701Y-148923093D01*
X71817265Y-150802395D01*
X71751420Y-152535902D01*
X71716455Y-154140177D01*
X71712654Y-155631787D01*
X71740303Y-157027298D01*
X71799688Y-158343275D01*
X71891095Y-159596283D01*
X72014810Y-160802888D01*
X72171118Y-161979657D01*
X72316707Y-162892500D01*
X72804490Y-165209749D01*
X73468432Y-167488000D01*
X74306670Y-169723251D01*
X75317341Y-171911499D01*
X76498581Y-174048741D01*
X77848528Y-176130974D01*
X79365320Y-178154197D01*
X79494256Y-178313929D01*
X79847685Y-178744834D01*
X80206534Y-179174419D01*
X80534871Y-179560177D01*
X80796768Y-179859599D01*
X80857600Y-179926880D01*
X81100799Y-180188184D01*
X81264066Y-180337454D01*
X81389475Y-180396936D01*
X81519103Y-180388873D01*
X81655000Y-180348453D01*
X82031784Y-180277668D01*
X82514777Y-180258280D01*
X83037216Y-180286932D01*
X83532340Y-180360270D01*
X83898033Y-180461188D01*
X84311233Y-180656191D01*
X84776017Y-180954651D01*
X85303448Y-181365729D01*
X85904588Y-181898585D01*
X86590501Y-182562379D01*
X87243781Y-183231523D01*
X87678902Y-183681374D01*
X88091453Y-184098634D01*
X88458809Y-184461138D01*
X88758344Y-184746718D01*
X88967432Y-184933206D01*
X89030403Y-184981964D01*
X89258054Y-185170166D01*
X89423388Y-185363647D01*
X89449234Y-185410080D01*
X89572155Y-185534408D01*
X89837655Y-185711109D01*
X90219072Y-185927185D01*
X90689742Y-186169640D01*
X91223002Y-186425477D01*
X91792188Y-186681699D01*
X92370637Y-186925310D01*
X92931686Y-187143312D01*
X93208769Y-187242609D01*
X94337210Y-187609250D01*
X95466106Y-187924755D01*
X96626485Y-188195113D01*
X97849379Y-188426318D01*
X99165815Y-188624358D01*
X100606825Y-188795225D01*
X101884285Y-188917615D01*
X102066471Y-188924894D01*
X102407142Y-188930060D01*
X102883365Y-188933084D01*
X103472210Y-188933934D01*
X104150745Y-188932582D01*
X104896037Y-188928997D01*
X105685155Y-188923148D01*
X105739643Y-188922669D01*
X106942968Y-188907919D01*
X107995243Y-188885769D01*
X108926741Y-188855039D01*
X109767733Y-188814548D01*
X110548491Y-188763115D01*
X111182500Y-188710357D01*
X112907740Y-188544133D01*
X114568692Y-188364291D01*
X116211987Y-188164813D01*
X117884256Y-187939682D01*
X119632129Y-187682879D01*
X121502238Y-187388386D01*
X121796071Y-187340606D01*
X123193347Y-187112187D01*
X124424521Y-186910045D01*
X125502654Y-186731874D01*
X126440805Y-186575368D01*
X127252037Y-186438222D01*
X127949409Y-186318129D01*
X128545983Y-186212784D01*
X129054819Y-186119882D01*
X129488978Y-186037116D01*
X129861521Y-185962180D01*
X130185508Y-185892770D01*
X130474000Y-185826579D01*
X130735880Y-185762358D01*
X132352422Y-185289644D01*
X133821290Y-184726788D01*
X134560320Y-184381352D01*
X134919900Y-184196609D01*
X135174378Y-184042890D01*
X135369905Y-183878364D01*
X135552627Y-183661201D01*
X135670226Y-183491587D01*
X136631862Y-183491587D01*
X136660216Y-183731481D01*
X136788218Y-183973666D01*
X137028490Y-184256193D01*
X137393655Y-184617115D01*
X137409282Y-184632044D01*
X137662045Y-184884526D01*
X138003020Y-185241102D01*
X138401519Y-185668828D01*
X138826855Y-186134760D01*
X139248341Y-186605952D01*
X139255710Y-186614286D01*
X140004407Y-187442722D01*
X140669041Y-188134429D01*
X141267515Y-188702741D01*
X141817732Y-189160994D01*
X142337595Y-189522522D01*
X142845010Y-189800658D01*
X143357878Y-190008739D01*
X143894103Y-190160097D01*
X144066428Y-190197293D01*
X144692961Y-190297477D01*
X145235810Y-190318405D01*
X145773552Y-190261986D01*
X145887824Y-190241509D01*
X146173905Y-190175886D01*
X146386070Y-190106468D01*
X146454379Y-190068335D01*
X146481254Y-189934514D01*
X146458881Y-189667875D01*
X146395854Y-189307560D01*
X146300770Y-188892710D01*
X146182222Y-188462469D01*
X146048805Y-188055977D01*
X145964845Y-187838929D01*
X145642997Y-187177396D01*
X145220228Y-186471917D01*
X144739286Y-185789340D01*
X144351706Y-185316328D01*
X144097655Y-185023581D01*
X143952877Y-184830616D01*
X143903389Y-184704083D01*
X143935206Y-184610634D01*
X144021071Y-184527857D01*
X144106945Y-184473661D01*
X144196809Y-184475623D01*
X144313974Y-184552382D01*
X144481748Y-184722577D01*
X144723443Y-185004848D01*
X144927403Y-185252580D01*
X145531522Y-186081084D01*
X146057200Y-186981617D01*
X146483498Y-187910170D01*
X146789476Y-188822732D01*
X146924142Y-189449107D01*
X146976750Y-189667466D01*
X147040490Y-189783536D01*
X147055704Y-189789286D01*
X147187880Y-189717233D01*
X147379158Y-189527940D01*
X147598655Y-189261707D01*
X147815484Y-188958833D01*
X147998762Y-188659616D01*
X148117601Y-188404356D01*
X148118004Y-188403193D01*
X148258067Y-187762686D01*
X148282935Y-187019183D01*
X148199475Y-186203915D01*
X148014554Y-185348114D01*
X147735041Y-184483010D01*
X147367801Y-183639836D01*
X146919704Y-182849821D01*
X146885192Y-182796870D01*
X146228975Y-181933116D01*
X145494614Y-181208193D01*
X144696262Y-180628956D01*
X143848070Y-180202258D01*
X142964190Y-179934955D01*
X142058774Y-179833899D01*
X141145975Y-179905947D01*
X140982143Y-179937793D01*
X140249570Y-180149625D01*
X139513054Y-180464811D01*
X138802946Y-180861978D01*
X138149593Y-181319750D01*
X137583346Y-181816757D01*
X137134552Y-182331622D01*
X136833561Y-182842975D01*
X136823604Y-182866460D01*
X136690532Y-183215931D01*
X136631862Y-183491587D01*
X135670226Y-183491587D01*
X135768692Y-183349570D01*
X135873541Y-183190996D01*
X136605077Y-182209745D01*
X137422876Y-181347738D01*
X138308946Y-180618923D01*
X139245292Y-180037249D01*
X140213922Y-179616664D01*
X140656249Y-179483489D01*
X141087634Y-179406827D01*
X141622890Y-179362554D01*
X142193405Y-179351758D01*
X142730569Y-179375526D01*
X143165770Y-179434944D01*
X143202096Y-179443139D01*
X143426448Y-179492341D01*
X143554041Y-179512627D01*
X143564953Y-179510880D01*
X143621120Y-179367280D01*
X143759216Y-179096179D01*
X143964426Y-178723560D01*
X144221932Y-178275403D01*
X144516919Y-177777691D01*
X144834570Y-177256403D01*
X145023528Y-176953214D01*
X145402581Y-176350513D01*
X145834998Y-175663207D01*
X146277426Y-174960190D01*
X146686512Y-174310355D01*
X146850236Y-174050357D01*
X147563597Y-172885223D01*
X148169904Y-171818016D01*
X148684856Y-170813068D01*
X149124152Y-169834709D01*
X149503488Y-168847268D01*
X149838565Y-167815077D01*
X150145080Y-166702465D01*
X150225756Y-166380483D01*
X150569623Y-164890040D01*
X150869571Y-163386372D01*
X151126861Y-161853190D01*
X151342756Y-160274205D01*
X151518518Y-158633130D01*
X151655411Y-156913674D01*
X151754695Y-155099550D01*
X151817634Y-153174470D01*
X151845490Y-151122144D01*
X151839526Y-148926283D01*
X151801003Y-146570601D01*
X151791802Y-146173635D01*
X151771639Y-145342152D01*
X151752741Y-144584274D01*
X151734441Y-143884379D01*
X151716076Y-143226850D01*
X151696980Y-142596067D01*
X151676486Y-141976410D01*
X151653931Y-141352259D01*
X151628647Y-140707997D01*
X151599971Y-140028002D01*
X151567237Y-139296657D01*
X151529778Y-138498340D01*
X151486931Y-137617434D01*
X151438029Y-136638319D01*
X151382407Y-135545375D01*
X151319400Y-134322983D01*
X151248342Y-132955523D01*
X151168568Y-131427377D01*
X151141814Y-130915714D01*
X151058689Y-129323954D01*
X150984202Y-127886572D01*
X150917853Y-126584894D01*
X150859142Y-125400241D01*
X150807569Y-124313939D01*
X150780523Y-123708084D01*
X151754275Y-123708084D01*
X151756294Y-124102157D01*
X151773312Y-124657705D01*
X151805443Y-125381936D01*
X151835911Y-125973105D01*
X151972337Y-128511786D01*
X152441704Y-128995103D01*
X153188178Y-129694745D01*
X153981761Y-130313064D01*
X154801222Y-130840493D01*
X155625327Y-131267468D01*
X156432843Y-131584421D01*
X157202538Y-131781789D01*
X157913180Y-131850006D01*
X158543534Y-131779505D01*
X158593598Y-131766575D01*
X158732168Y-131658772D01*
X158815911Y-131414525D01*
X158850180Y-131015927D01*
X158851618Y-130903288D01*
X158768009Y-130464733D01*
X158531154Y-130017445D01*
X158165769Y-129587988D01*
X157696571Y-129202924D01*
X157148276Y-128888817D01*
X156869334Y-128772905D01*
X156522689Y-128631768D01*
X156332514Y-128511056D01*
X156278543Y-128390192D01*
X156340511Y-128248603D01*
X156345759Y-128241335D01*
X156412359Y-128165829D01*
X156494757Y-128137603D01*
X156628536Y-128164599D01*
X156849277Y-128254760D01*
X157192561Y-128416030D01*
X157248558Y-128442878D01*
X157988700Y-128862432D01*
X158569747Y-129331920D01*
X158986430Y-129844999D01*
X159233477Y-130395322D01*
X159306428Y-130920258D01*
X159323586Y-131206490D01*
X159382190Y-131333259D01*
X159492935Y-131299755D01*
X159666516Y-131105167D01*
X159825592Y-130880878D01*
X160105590Y-130383644D01*
X160256938Y-129880474D01*
X160302704Y-129294108D01*
X160302703Y-129282857D01*
X160225303Y-128573383D01*
X160008574Y-127819348D01*
X159673412Y-127061308D01*
X159240713Y-126339818D01*
X158731372Y-125695433D01*
X158194169Y-125190539D01*
X157484003Y-124698609D01*
X156676943Y-124257657D01*
X155810045Y-123880046D01*
X154920363Y-123578142D01*
X154044954Y-123364311D01*
X153220872Y-123250918D01*
X152485173Y-123250328D01*
X152404297Y-123258458D01*
X152105862Y-123300195D01*
X151878381Y-123346484D01*
X151794777Y-123375530D01*
X151767141Y-123468277D01*
X151754275Y-123708084D01*
X150780523Y-123708084D01*
X150762632Y-123307310D01*
X150723832Y-122361678D01*
X150690668Y-121458367D01*
X150662640Y-120578701D01*
X150639247Y-119704003D01*
X150619988Y-118815597D01*
X150604364Y-117894807D01*
X150591874Y-116922955D01*
X150582018Y-115881367D01*
X150574295Y-114751365D01*
X150568204Y-113514273D01*
X150563246Y-112151415D01*
X150558919Y-110644114D01*
X150554808Y-109008214D01*
X150549357Y-107092292D01*
X150542530Y-105345126D01*
X150533918Y-103754050D01*
X150523111Y-102306393D01*
X150509701Y-100989488D01*
X150493277Y-99790666D01*
X150473430Y-98697258D01*
X150449752Y-97696595D01*
X150421832Y-96776009D01*
X150389261Y-95922832D01*
X150351630Y-95124394D01*
X150308529Y-94368027D01*
X150259550Y-93641062D01*
X150204281Y-92930831D01*
X150142316Y-92224665D01*
X150073242Y-91509896D01*
X149996653Y-90773854D01*
X149952392Y-90366429D01*
X149589087Y-87643472D01*
X149113391Y-85057861D01*
X148525660Y-82610939D01*
X147826246Y-80304048D01*
X147015504Y-78138532D01*
X146326527Y-76591098D01*
X146089956Y-76115072D01*
X145853566Y-75671495D01*
X145638839Y-75298517D01*
X145467259Y-75034289D01*
X145406493Y-74957243D01*
X145215323Y-74717957D01*
X144978993Y-74385972D01*
X144743006Y-74025744D01*
X144701428Y-73958555D01*
X144002294Y-72846514D01*
X143344115Y-71868307D01*
X142699895Y-70989544D01*
X142042637Y-70175836D01*
X141345345Y-69392793D01*
X140581022Y-68606026D01*
X140230417Y-68263202D01*
X138801084Y-66991736D01*
X140334138Y-66991736D01*
X141369842Y-68042833D01*
X142025502Y-68721278D01*
X142582504Y-69329729D01*
X143081008Y-69915008D01*
X143561173Y-70523940D01*
X143969416Y-71073789D01*
X144281071Y-71486635D01*
X144515611Y-71755079D01*
X144688208Y-71890924D01*
X144814032Y-71905972D01*
X144908253Y-71812027D01*
X144911330Y-71806614D01*
X145164055Y-71464736D01*
X145520806Y-71118307D01*
X145916043Y-70827296D01*
X146085820Y-70731977D01*
X146416487Y-70592692D01*
X146746583Y-70521400D01*
X147162584Y-70500086D01*
X147199393Y-70500000D01*
X147871037Y-70578953D01*
X148458970Y-70800492D01*
X148953675Y-71141640D01*
X149345631Y-71579415D01*
X149625322Y-72090841D01*
X149783227Y-72652937D01*
X149809828Y-73242724D01*
X149695607Y-73837225D01*
X149431045Y-74413459D01*
X149031635Y-74923189D01*
X148595095Y-75268182D01*
X148075176Y-75522856D01*
X147539935Y-75657295D01*
X147331030Y-75670714D01*
X146973866Y-75670714D01*
X147297229Y-76373750D01*
X147748137Y-77408155D01*
X148197372Y-78537955D01*
X148612829Y-79679684D01*
X148887279Y-80507348D01*
X149282500Y-81760767D01*
X149671222Y-81710611D01*
X149947937Y-81650008D01*
X150314833Y-81537054D01*
X150697172Y-81395012D01*
X150734399Y-81379678D01*
X151768654Y-80854400D01*
X152691528Y-80190626D01*
X153496464Y-79397945D01*
X154176904Y-78485946D01*
X154726289Y-77464217D01*
X155138061Y-76342345D01*
X155405662Y-75129921D01*
X155488982Y-74428336D01*
X155514826Y-73207171D01*
X155389797Y-72019658D01*
X155122020Y-70882396D01*
X154719618Y-69811981D01*
X154190714Y-68825013D01*
X153543432Y-67938088D01*
X152785895Y-67167806D01*
X151926227Y-66530763D01*
X151506345Y-66291007D01*
X150428700Y-65829700D01*
X149259201Y-65519054D01*
X148006476Y-65358666D01*
X146679154Y-65348136D01*
X145285865Y-65487063D01*
X143835238Y-65775044D01*
X142335900Y-66211679D01*
X140816890Y-66787941D01*
X140334138Y-66991736D01*
X138801084Y-66991736D01*
X138706889Y-66907945D01*
X137040555Y-65640536D01*
X135255830Y-64478445D01*
X133777343Y-63645873D01*
X133360894Y-63420366D01*
X133001592Y-63213818D01*
X132730842Y-63045189D01*
X132580053Y-62933438D01*
X132561929Y-62912196D01*
X132496557Y-62868901D01*
X132410330Y-62968240D01*
X132318547Y-63152989D01*
X131973087Y-63707147D01*
X131495403Y-64153444D01*
X130904036Y-64484945D01*
X130217528Y-64694714D01*
X129454420Y-64775816D01*
X128633253Y-64721316D01*
X128290675Y-64659567D01*
X127672987Y-64498090D01*
X127086601Y-64276583D01*
X126512093Y-63981310D01*
X125930038Y-63598534D01*
X125321014Y-63114516D01*
X124665596Y-62515520D01*
X123944361Y-61787810D01*
X123387621Y-61191948D01*
X122214181Y-59912110D01*
X121778340Y-59952096D01*
X121520500Y-59960282D01*
X121132752Y-59953639D01*
X120665871Y-59933795D01*
X120170628Y-59902380D01*
X120127929Y-59899157D01*
X118913358Y-59806232D01*
X117587929Y-60246719D01*
X115643960Y-60803717D01*
X113698858Y-61181466D01*
X111744000Y-61380550D01*
X109770758Y-61401551D01*
X107770509Y-61245051D01*
X106253308Y-61012631D01*
X105043401Y-60789612D01*
X101407392Y-61248967D01*
X100612639Y-61347890D01*
X99871936Y-61437239D01*
X99205071Y-61514838D01*
X98631837Y-61578511D01*
X98172024Y-61626082D01*
X97845423Y-61655375D01*
X97671825Y-61664215D01*
X97650607Y-61661975D01*
X97538750Y-61695173D01*
X97305586Y-61816425D01*
X96978455Y-62009763D01*
X96584696Y-62259220D01*
X96268875Y-62468948D01*
X95465272Y-62998816D01*
X94773504Y-63420674D01*
X94168112Y-63745113D01*
X93623634Y-63982723D01*
X93114608Y-64144094D01*
X92615573Y-64239816D01*
X92101068Y-64280478D01*
X91905714Y-64283681D01*
X91475730Y-64278503D01*
X91163196Y-64252628D01*
X90904342Y-64193986D01*
X90635394Y-64090508D01*
X90459998Y-64010080D01*
X89876068Y-63734538D01*
X88917855Y-64201500D01*
X87360142Y-65036007D01*
X85794775Y-66021146D01*
X84260572Y-67132171D01*
X83998685Y-67337301D01*
X83398830Y-67840206D01*
X82727897Y-68449209D01*
X82024381Y-69125807D01*
X81326778Y-69831494D01*
X80673581Y-70527765D01*
X80103285Y-71176114D01*
X79839281Y-71497857D01*
X78536310Y-73270636D01*
X77348123Y-75165493D01*
X76273736Y-77185271D01*
X75312170Y-79332816D01*
X74462443Y-81610972D01*
X73723573Y-84022583D01*
X73094579Y-86570494D01*
X72574480Y-89257548D01*
X72162295Y-92086590D01*
X71905977Y-94493929D01*
X71815503Y-95578343D01*
X71741946Y-96646792D01*
X71684118Y-97731305D01*
X71640830Y-98863911D01*
X71610895Y-100076642D01*
X71593124Y-101401526D01*
X71586328Y-102870594D01*
X71586180Y-103113063D01*
X70635783Y-103113063D01*
X70635321Y-102593083D01*
X70638229Y-101490945D01*
X70645041Y-100429094D01*
X70655758Y-99429428D01*
X70670385Y-98513843D01*
X70688923Y-97704238D01*
X70711375Y-97022508D01*
X70737743Y-96490553D01*
X70750697Y-96308214D01*
X70903760Y-94640357D01*
X71092087Y-92964171D01*
X71310608Y-91313811D01*
X71554254Y-89723434D01*
X71817956Y-88227196D01*
X72096647Y-86859253D01*
X72254916Y-86172132D01*
X72359768Y-85721875D01*
X72442000Y-85337279D01*
X72495145Y-85051212D01*
X72512738Y-84896547D01*
X72509215Y-84879454D01*
X72397363Y-84850530D01*
X72173374Y-84834202D01*
X72081155Y-84832857D01*
X71747297Y-84802000D01*
X71297252Y-84718447D01*
X70783744Y-84595722D01*
X70259497Y-84447353D01*
X69777237Y-84286866D01*
X69461491Y-84160800D01*
X68419369Y-83602340D01*
X67471741Y-82904590D01*
X66626979Y-82085655D01*
X65893455Y-81163645D01*
X65279542Y-80156666D01*
X64793611Y-79082828D01*
X64444035Y-77960237D01*
X64239187Y-76807002D01*
X64214922Y-76260357D01*
X65031730Y-76260357D01*
X65056540Y-77036899D01*
X65151889Y-77710034D01*
X65333393Y-78349269D01*
X65616664Y-79024114D01*
X65683828Y-79163214D01*
X66187492Y-80024953D01*
X66819785Y-80842868D01*
X67556440Y-81599909D01*
X68373189Y-82279024D01*
X69245763Y-82863162D01*
X70149895Y-83335272D01*
X71061316Y-83678302D01*
X71955758Y-83875203D01*
X72447500Y-83915483D01*
X72810357Y-83925129D01*
X73294695Y-82405958D01*
X73500564Y-81780391D01*
X73737265Y-81093363D01*
X73980225Y-80414353D01*
X74204867Y-79812844D01*
X74281209Y-79616786D01*
X74459223Y-79166491D01*
X74614316Y-78773990D01*
X74733872Y-78471226D01*
X74805274Y-78290141D01*
X74818642Y-78256072D01*
X74754722Y-78209630D01*
X74528719Y-78189809D01*
X74206074Y-78195934D01*
X73573870Y-78171625D01*
X73038178Y-78021576D01*
X72550257Y-77728756D01*
X72325682Y-77538904D01*
X71889538Y-77036956D01*
X71618430Y-76474343D01*
X71502669Y-75828696D01*
X71496772Y-75625357D01*
X71568618Y-74954120D01*
X71790621Y-74375815D01*
X72172478Y-73868542D01*
X72348738Y-73701035D01*
X72916605Y-73316386D01*
X73547692Y-73095250D01*
X74217458Y-73042350D01*
X74901360Y-73162410D01*
X74993248Y-73192064D01*
X75310506Y-73348346D01*
X75655932Y-73593628D01*
X75985577Y-73887497D01*
X76255493Y-74189538D01*
X76421729Y-74459336D01*
X76444473Y-74526580D01*
X76526456Y-74720495D01*
X76620399Y-74745382D01*
X76706643Y-74596093D01*
X76706888Y-74595324D01*
X76807868Y-74378251D01*
X77004396Y-74042675D01*
X77279549Y-73612452D01*
X77616402Y-73111441D01*
X77998035Y-72563500D01*
X78407522Y-71992485D01*
X78827943Y-71422256D01*
X79242373Y-70876669D01*
X79633890Y-70379583D01*
X79985572Y-69954854D01*
X80057431Y-69871757D01*
X80289856Y-69592024D01*
X80466589Y-69353484D01*
X80559172Y-69195560D01*
X80566428Y-69166694D01*
X80500681Y-69015402D01*
X80328431Y-68792248D01*
X80087162Y-68535749D01*
X79814359Y-68284421D01*
X79547507Y-68076781D01*
X79437718Y-68006913D01*
X78790686Y-67715293D01*
X77996964Y-67496517D01*
X77077248Y-67353450D01*
X76052236Y-67288955D01*
X74942625Y-67305897D01*
X74550746Y-67330644D01*
X73112866Y-67508789D01*
X71791893Y-67821017D01*
X70578343Y-68271247D01*
X69462735Y-68863400D01*
X68435587Y-69601396D01*
X67891637Y-70083502D01*
X67003751Y-71038065D01*
X66274465Y-72057397D01*
X65708433Y-73131445D01*
X65310309Y-74250160D01*
X65084746Y-75403488D01*
X65031730Y-76260357D01*
X64214922Y-76260357D01*
X64187438Y-75641231D01*
X64297160Y-74481031D01*
X64529476Y-73493572D01*
X64932166Y-72467830D01*
X65497379Y-71464808D01*
X66206246Y-70503573D01*
X67039897Y-69603192D01*
X67979464Y-68782733D01*
X69006077Y-68061264D01*
X70100868Y-67457852D01*
X70805562Y-67151404D01*
X71511864Y-66896134D01*
X72181217Y-66703597D01*
X72857413Y-66566650D01*
X73584240Y-66478149D01*
X74405489Y-66430950D01*
X75301873Y-66417857D01*
X76446567Y-66439035D01*
X77432551Y-66505971D01*
X78277932Y-66623769D01*
X79000815Y-66797530D01*
X79619305Y-67032360D01*
X80151508Y-67333360D01*
X80615529Y-67705634D01*
X80894346Y-67994125D01*
X81329322Y-68487486D01*
X82013768Y-67845737D01*
X83142506Y-66856013D01*
X84386726Y-65887218D01*
X85697013Y-64973694D01*
X87023952Y-64149784D01*
X88318127Y-63449829D01*
X88390535Y-63414057D01*
X88684055Y-63262122D01*
X88900788Y-63135224D01*
X89000453Y-63057278D01*
X89002857Y-63050541D01*
X88948892Y-62952194D01*
X88809559Y-62763730D01*
X88671463Y-62593761D01*
X88222958Y-61942955D01*
X87954083Y-61270645D01*
X87873078Y-60640243D01*
X88443086Y-60640243D01*
X88571075Y-61333105D01*
X88875725Y-62032715D01*
X89010450Y-62256833D01*
X89227677Y-62582733D01*
X89369062Y-62750978D01*
X89448366Y-62761672D01*
X89479349Y-62614919D01*
X89475771Y-62310824D01*
X89473512Y-62260329D01*
X89527007Y-61485093D01*
X89758879Y-60727851D01*
X90166515Y-59994029D01*
X90747301Y-59289055D01*
X91043359Y-59001847D01*
X91429316Y-58672751D01*
X91819531Y-58380299D01*
X92183028Y-58143890D01*
X92488834Y-57982921D01*
X92705973Y-57916789D01*
X92766118Y-57922989D01*
X92890869Y-58022001D01*
X92859524Y-58168389D01*
X92667974Y-58368069D01*
X92312108Y-58626955D01*
X92247727Y-58669045D01*
X91518996Y-59212836D01*
X90901063Y-59821947D01*
X90422666Y-60466144D01*
X90260511Y-60759544D01*
X90103794Y-61097829D01*
X90014316Y-61368714D01*
X89975325Y-61650149D01*
X89970071Y-62020082D01*
X89971462Y-62104620D01*
X89981765Y-62481569D01*
X89996493Y-62813290D01*
X90012762Y-63037319D01*
X90015637Y-63061429D01*
X90136896Y-63321132D01*
X90406183Y-63534977D01*
X90795045Y-63699166D01*
X91275025Y-63809905D01*
X91817669Y-63863399D01*
X92394520Y-63855852D01*
X92977123Y-63783469D01*
X93537023Y-63642456D01*
X93760832Y-63560938D01*
X94054605Y-63439109D01*
X94328138Y-63315924D01*
X94597854Y-63180425D01*
X94880176Y-63021654D01*
X95191530Y-62828654D01*
X95548340Y-62590466D01*
X95967029Y-62296133D01*
X96464022Y-61934697D01*
X97055743Y-61495200D01*
X97758615Y-60966684D01*
X98217861Y-60619133D01*
X98936071Y-60619133D01*
X99253571Y-60575540D01*
X99446527Y-60550116D01*
X99783032Y-60506880D01*
X100226603Y-60450473D01*
X100740754Y-60385539D01*
X101181314Y-60330204D01*
X101693807Y-60263527D01*
X102134313Y-60201480D01*
X102475281Y-60148337D01*
X102689164Y-60108374D01*
X102749924Y-60086829D01*
X102653167Y-60035986D01*
X102433299Y-59936461D01*
X102135508Y-59807341D01*
X101804978Y-59667710D01*
X101486897Y-59536657D01*
X101226451Y-59433267D01*
X101068826Y-59376626D01*
X101067857Y-59376341D01*
X100943343Y-59406456D01*
X100704290Y-59514871D01*
X100388002Y-59680595D01*
X100031789Y-59882638D01*
X99672957Y-60100010D01*
X99348813Y-60311719D01*
X99147352Y-60456888D01*
X98936071Y-60619133D01*
X98217861Y-60619133D01*
X98573214Y-60350208D01*
X99079539Y-59985448D01*
X99626645Y-59623834D01*
X100179587Y-59285649D01*
X100703422Y-58991173D01*
X101163205Y-58760688D01*
X101523991Y-58614475D01*
X101604448Y-58590902D01*
X101663638Y-58565112D01*
X101681678Y-58516270D01*
X101646381Y-58429081D01*
X101545562Y-58288251D01*
X101367035Y-58078483D01*
X101098612Y-57784482D01*
X100728107Y-57390953D01*
X100243733Y-56883016D01*
X99640560Y-56256694D01*
X99139685Y-55748400D01*
X98721826Y-55341496D01*
X98367700Y-55019347D01*
X98058026Y-54765314D01*
X97773520Y-54562763D01*
X97494899Y-54395056D01*
X97202883Y-54245556D01*
X97167143Y-54228577D01*
X96795622Y-54070357D01*
X96472370Y-53984694D01*
X96104591Y-53951089D01*
X95894550Y-53947467D01*
X95598327Y-53949950D01*
X95367106Y-53970225D01*
X95154538Y-54023256D01*
X94914275Y-54124011D01*
X94599967Y-54287455D01*
X94261693Y-54474727D01*
X93030236Y-55206381D01*
X91920428Y-55956878D01*
X90942702Y-56717123D01*
X90107490Y-57478020D01*
X89425225Y-58230475D01*
X88906341Y-58965393D01*
X88720131Y-59305685D01*
X88492517Y-59961861D01*
X88443086Y-60640243D01*
X87873078Y-60640243D01*
X87864874Y-60576403D01*
X87955370Y-59859804D01*
X88225607Y-59120419D01*
X88675624Y-58357823D01*
X89091523Y-57817222D01*
X89686721Y-57183930D01*
X90438411Y-56510454D01*
X91329687Y-55809983D01*
X92343642Y-55095710D01*
X93463369Y-54380823D01*
X93609501Y-54292335D01*
X93907216Y-54113106D01*
X93305364Y-53393875D01*
X92500499Y-52350375D01*
X91715645Y-51178213D01*
X90981217Y-49929856D01*
X90327632Y-48657774D01*
X89785304Y-47414432D01*
X89680630Y-47141072D01*
X89414576Y-46354895D01*
X89153076Y-45451643D01*
X88912423Y-44495289D01*
X88708910Y-43549804D01*
X88579920Y-42819426D01*
X88502637Y-42162726D01*
X88449260Y-41374360D01*
X88419791Y-40502511D01*
X88414228Y-39595359D01*
X88415701Y-39523525D01*
X89950652Y-39523525D01*
X89959709Y-40487290D01*
X90001314Y-41423437D01*
X90075085Y-42280513D01*
X90166618Y-42930223D01*
X90425582Y-44215545D01*
X90731531Y-45387139D01*
X91101709Y-46510252D01*
X91140902Y-46616956D01*
X91308611Y-47040979D01*
X91521020Y-47535474D01*
X91760738Y-48064196D01*
X92010373Y-48590901D01*
X92252534Y-49079343D01*
X92469831Y-49493279D01*
X92644873Y-49796464D01*
X92718838Y-49905522D01*
X92844685Y-50055367D01*
X92938415Y-50070352D01*
X93077736Y-49960027D01*
X93087861Y-49950879D01*
X93348795Y-49620750D01*
X93592130Y-49123666D01*
X93811863Y-48473729D01*
X93951291Y-47922592D01*
X94173990Y-46802288D01*
X94331546Y-45701253D01*
X94422810Y-44597864D01*
X94446631Y-43470499D01*
X94401859Y-42297538D01*
X94287344Y-41057357D01*
X94101936Y-39728336D01*
X93844485Y-38288852D01*
X93513841Y-36717284D01*
X93307489Y-35818985D01*
X93167567Y-35218245D01*
X93067944Y-34769055D01*
X93005074Y-34446913D01*
X92975410Y-34227319D01*
X92975407Y-34085770D01*
X93001518Y-33997767D01*
X93037160Y-33951105D01*
X93177070Y-33865974D01*
X93276821Y-33916250D01*
X93334960Y-34042114D01*
X93424267Y-34323478D01*
X93539235Y-34738159D01*
X93674360Y-35263977D01*
X93824134Y-35878747D01*
X93983050Y-36560287D01*
X94145604Y-37286415D01*
X94306287Y-38034947D01*
X94343732Y-38214359D01*
X94613815Y-39635396D01*
X94805136Y-40932311D01*
X94920444Y-42143066D01*
X94962493Y-43305626D01*
X94934032Y-44457953D01*
X94863482Y-45386251D01*
X94728720Y-46573909D01*
X94569673Y-47590156D01*
X94383775Y-48443709D01*
X94168458Y-49143281D01*
X93921154Y-49697588D01*
X93639297Y-50115343D01*
X93402564Y-50345171D01*
X93244816Y-50487976D01*
X93175834Y-50587499D01*
X93175714Y-50589750D01*
X93230033Y-50707214D01*
X93379562Y-50937474D01*
X93604156Y-51253290D01*
X93883674Y-51627421D01*
X94197971Y-52032629D01*
X94526905Y-52441672D01*
X94695671Y-52645207D01*
X95367310Y-53445714D01*
X95861874Y-53445714D01*
X96452379Y-53513837D01*
X97093552Y-53704660D01*
X97724429Y-53997864D01*
X97978676Y-54151218D01*
X98172198Y-54300545D01*
X98470616Y-54560407D01*
X98852702Y-54910920D01*
X99297229Y-55332199D01*
X99782968Y-55804360D01*
X100288693Y-56307519D01*
X100392345Y-56412121D01*
X100876103Y-56897993D01*
X101321993Y-57339081D01*
X101713371Y-57719451D01*
X102033594Y-58023173D01*
X102266021Y-58234314D01*
X102394008Y-58336942D01*
X102410738Y-58344286D01*
X102529756Y-58342941D01*
X102541964Y-58342346D01*
X102631339Y-58370388D01*
X102850822Y-58446973D01*
X103160253Y-58557979D01*
X103307926Y-58611671D01*
X104645050Y-59042900D01*
X106075146Y-59401821D01*
X107517962Y-59670069D01*
X108461071Y-59790874D01*
X109027339Y-59829496D01*
X109724453Y-59847216D01*
X110503191Y-59845310D01*
X111314333Y-59825052D01*
X112108656Y-59787715D01*
X112836938Y-59734573D01*
X113449958Y-59666902D01*
X113494782Y-59660577D01*
X114010600Y-59574960D01*
X114620720Y-59456372D01*
X115244860Y-59321220D01*
X115747952Y-59200078D01*
X116262133Y-59057507D01*
X116731361Y-58912091D01*
X116821270Y-58884228D01*
X117395164Y-58691562D01*
X117953618Y-58490833D01*
X118466432Y-58293363D01*
X118903410Y-58110475D01*
X119234352Y-57953493D01*
X119429061Y-57833737D01*
X119452957Y-57810892D01*
X119557536Y-57671969D01*
X119690293Y-57480762D01*
X120299285Y-57480762D01*
X120366957Y-57586602D01*
X120546308Y-57764201D01*
X120801848Y-57979221D01*
X120866250Y-58029273D01*
X121122491Y-58248522D01*
X121461092Y-58571408D01*
X121847263Y-58963033D01*
X122246216Y-59388496D01*
X122476428Y-59644566D01*
X123291241Y-60555773D01*
X124010787Y-61333539D01*
X124648998Y-61989312D01*
X125219806Y-62534537D01*
X125737143Y-62980661D01*
X126214939Y-63339131D01*
X126667126Y-63621393D01*
X127107635Y-63838894D01*
X127550398Y-64003079D01*
X127898662Y-64099655D01*
X128406233Y-64186141D01*
X128980080Y-64226564D01*
X129546942Y-64219635D01*
X130033558Y-64164065D01*
X130146972Y-64139231D01*
X130349523Y-64083526D01*
X130473572Y-64015773D01*
X130528366Y-63900032D01*
X130523152Y-63700359D01*
X130467177Y-63380814D01*
X130411738Y-63110127D01*
X130148451Y-62194875D01*
X129741242Y-61255003D01*
X129213816Y-60335295D01*
X128589881Y-59480538D01*
X128332687Y-59182380D01*
X128076951Y-58861742D01*
X127963292Y-58625414D01*
X127993467Y-58480773D01*
X128154466Y-58435000D01*
X128307415Y-58508114D01*
X128538342Y-58713581D01*
X128827981Y-59030586D01*
X129157067Y-59438314D01*
X129446472Y-59830869D01*
X130101987Y-60909095D01*
X130608301Y-62076866D01*
X130952521Y-63303991D01*
X130972810Y-63404539D01*
X131048928Y-63793007D01*
X131385012Y-63514703D01*
X131615432Y-63268763D01*
X131857050Y-62922273D01*
X132020012Y-62629198D01*
X132158459Y-62335080D01*
X132245509Y-62095659D01*
X132292486Y-61852033D01*
X132310713Y-61545300D01*
X132311513Y-61116555D01*
X132311484Y-61112963D01*
X132224641Y-60056601D01*
X131990563Y-59019158D01*
X131622898Y-58020457D01*
X131135297Y-57080320D01*
X130541408Y-56218568D01*
X129854883Y-55455024D01*
X129089371Y-54809508D01*
X128258521Y-54301842D01*
X127381213Y-53953383D01*
X126908214Y-53860933D01*
X126328435Y-53816910D01*
X125709950Y-53821334D01*
X125120832Y-53874226D01*
X124712022Y-53952583D01*
X123937601Y-54223372D01*
X123142213Y-54629935D01*
X122378343Y-55142151D01*
X121820762Y-55611922D01*
X121450502Y-55977354D01*
X121096029Y-56359263D01*
X120780508Y-56729195D01*
X120527104Y-57058696D01*
X120358981Y-57319314D01*
X120299285Y-57480762D01*
X119690293Y-57480762D01*
X119730199Y-57423287D01*
X119941321Y-57107954D01*
X120047711Y-56945439D01*
X120735431Y-56027745D01*
X121530815Y-55213247D01*
X122410881Y-54518190D01*
X123352645Y-53958821D01*
X124333124Y-53551386D01*
X125143906Y-53343155D01*
X125449889Y-53281328D01*
X125665811Y-53209675D01*
X125844327Y-53095207D01*
X126038090Y-52904932D01*
X126275348Y-52634259D01*
X126780640Y-52012858D01*
X127310400Y-51303345D01*
X127814702Y-50575350D01*
X128243622Y-49898507D01*
X128275949Y-49843961D01*
X128660758Y-49190422D01*
X128100235Y-48528604D01*
X127376338Y-47563212D01*
X126773883Y-46513874D01*
X126285587Y-45363012D01*
X125904164Y-44093049D01*
X125622331Y-42686408D01*
X125589187Y-42469286D01*
X125528048Y-41917540D01*
X125482347Y-41223046D01*
X125452312Y-40423845D01*
X125438170Y-39557978D01*
X125440148Y-38663486D01*
X125458474Y-37778411D01*
X125493375Y-36940794D01*
X125545080Y-36188675D01*
X125551214Y-36119286D01*
X125603561Y-35557510D01*
X125647367Y-35151451D01*
X125688677Y-34875982D01*
X125733533Y-34705978D01*
X125787978Y-34616314D01*
X125858056Y-34581864D01*
X125922125Y-34577143D01*
X126037253Y-34594372D01*
X126104745Y-34667459D01*
X126130557Y-34828504D01*
X126120648Y-35109605D01*
X126088120Y-35471620D01*
X126060990Y-35790041D01*
X126028305Y-36245216D01*
X125992955Y-36792668D01*
X125957832Y-37387919D01*
X125929969Y-37904978D01*
X125887605Y-39636243D01*
X125946622Y-41224874D01*
X126108437Y-42679644D01*
X126374467Y-44009326D01*
X126746131Y-45222692D01*
X127224846Y-46328515D01*
X127321024Y-46514060D01*
X127555860Y-46926113D01*
X127821134Y-47344137D01*
X128097412Y-47742903D01*
X128365259Y-48097182D01*
X128605241Y-48381747D01*
X128797923Y-48571369D01*
X128923871Y-48640820D01*
X128950832Y-48629742D01*
X129024709Y-48500337D01*
X129147397Y-48238175D01*
X129303561Y-47880209D01*
X129477865Y-47463391D01*
X129654972Y-47024676D01*
X129819548Y-46601014D01*
X129956255Y-46229360D01*
X130001607Y-46097857D01*
X130395677Y-44794968D01*
X130683944Y-43532798D01*
X130873454Y-42262020D01*
X130971250Y-40933305D01*
X130984377Y-39497327D01*
X130979067Y-39253371D01*
X130939522Y-38254288D01*
X130870687Y-37378504D01*
X130764293Y-36569116D01*
X130612072Y-35769216D01*
X130405755Y-34921899D01*
X130286431Y-34486429D01*
X129698049Y-32729716D01*
X128946675Y-31042481D01*
X128040706Y-29434679D01*
X126988538Y-27916267D01*
X125798565Y-26497198D01*
X124479184Y-25187429D01*
X123038790Y-23996914D01*
X121485780Y-22935611D01*
X119828547Y-22013473D01*
X119724176Y-21961901D01*
X118054552Y-21220821D01*
X116391159Y-20644210D01*
X114700889Y-20223769D01*
X112950636Y-19951199D01*
X111182500Y-19820918D01*
X109250241Y-19837548D01*
X107346177Y-20030592D01*
X105480460Y-20395935D01*
X103663246Y-20929461D01*
X101904689Y-21627055D01*
X100214943Y-22484601D01*
X98604163Y-23497985D01*
X97082502Y-24663090D01*
X95660116Y-25975802D01*
X95441083Y-26200657D01*
X94186171Y-27634374D01*
X93089513Y-29156069D01*
X92150648Y-30766674D01*
X91369117Y-32467121D01*
X90744462Y-34258340D01*
X90276222Y-36141263D01*
X90122571Y-36981072D01*
X90031702Y-37718961D01*
X89974522Y-38583597D01*
X89950652Y-39523525D01*
X88415701Y-39523525D01*
X88432571Y-38701086D01*
X88474821Y-37867873D01*
X88540978Y-37143902D01*
X88579920Y-36857717D01*
X88975287Y-34876630D01*
X89533492Y-32975371D01*
X90253697Y-31155547D01*
X91135065Y-29418768D01*
X92176757Y-27766642D01*
X93377936Y-26200778D01*
X94737764Y-24722786D01*
X95068925Y-24399232D01*
X96566035Y-23088884D01*
X98166000Y-21926695D01*
X99863225Y-20915374D01*
X101652115Y-20057633D01*
X103527075Y-19356181D01*
X105482512Y-18813730D01*
X107327143Y-18460568D01*
X107877592Y-18396674D01*
X108563522Y-18347935D01*
X109342117Y-18314675D01*
X110170558Y-18297219D01*
X111006029Y-18295891D01*
X111805711Y-18311016D01*
G04 #@! TA.AperFunction,EtchedComponent*
G36*
X111805711Y-18311016D02*
G01*
X112526788Y-18342919D01*
X113126442Y-18391923D01*
X113314285Y-18415197D01*
X115354890Y-18788094D01*
X117319633Y-19322832D01*
X119203635Y-20017035D01*
X121002018Y-20868326D01*
X122709903Y-21874328D01*
X124322410Y-23032665D01*
X125834660Y-24340961D01*
X126194564Y-24689286D01*
X127548102Y-26152195D01*
X128745774Y-27707863D01*
X129787167Y-29355503D01*
X130671869Y-31094327D01*
X131399467Y-32923549D01*
X131969547Y-34842381D01*
X132286274Y-36300714D01*
X132367385Y-36857897D01*
X132434140Y-37551302D01*
X132485161Y-38336187D01*
X132519072Y-39167812D01*
X132534496Y-40001436D01*
X132530057Y-40792316D01*
X132504379Y-41495711D01*
X132462106Y-42015797D01*
X132151066Y-43994788D01*
X131674486Y-45900150D01*
X131030957Y-47735406D01*
X130219069Y-49504080D01*
X129237414Y-51209697D01*
X128174736Y-52737323D01*
X127913863Y-53085410D01*
X127751432Y-53314706D01*
X127674705Y-53449791D01*
X127670946Y-53515247D01*
X127727420Y-53535654D01*
X127760535Y-53536708D01*
X127941884Y-53585289D01*
X128231185Y-53715359D01*
X128587836Y-53904256D01*
X128971236Y-54129316D01*
X129340782Y-54367874D01*
X129644668Y-54588429D01*
X130303632Y-55197940D01*
X130929880Y-55953629D01*
X131501315Y-56820559D01*
X131995838Y-57763789D01*
X132391349Y-58748382D01*
X132507931Y-59115357D01*
X132641647Y-59631595D01*
X132719859Y-60113949D01*
X132755425Y-60652524D01*
X132760353Y-60884286D01*
X132758975Y-61309232D01*
X132745514Y-61689821D01*
X132722425Y-61974468D01*
X132703244Y-62084226D01*
X132668827Y-62254933D01*
X132731352Y-62303445D01*
X132898738Y-62278717D01*
X133036100Y-62273896D01*
X133217513Y-62316514D01*
X133469953Y-62417592D01*
X133820396Y-62588150D01*
X134295815Y-62839212D01*
X134374066Y-62881511D01*
X135373974Y-63448233D01*
X136392305Y-64071434D01*
X137375837Y-64716763D01*
X138271352Y-65349866D01*
X138692361Y-65668918D01*
X139534936Y-66326051D01*
X140462647Y-65929856D01*
X142111501Y-65305013D01*
X143735010Y-64851985D01*
X145351426Y-64566478D01*
X146742500Y-64451937D01*
X148187128Y-64462388D01*
X149517034Y-64613318D01*
X150732157Y-64904684D01*
X151832434Y-65336445D01*
X152817804Y-65908558D01*
X153688205Y-66620981D01*
X154443575Y-67473671D01*
X155083854Y-68466587D01*
X155608978Y-69599686D01*
X155996565Y-70788947D01*
X156265664Y-72091259D01*
X156379501Y-73401242D01*
X156341920Y-74698936D01*
X156156766Y-75964376D01*
X155827883Y-77177599D01*
X155359116Y-78318644D01*
X154754308Y-79367546D01*
X154205093Y-80091909D01*
X153466426Y-80835088D01*
X152605452Y-81489817D01*
X151665583Y-82028678D01*
X150690230Y-82424255D01*
X150358763Y-82521103D01*
X150040761Y-82609879D01*
X149794126Y-82688708D01*
X149669911Y-82741203D01*
X149667763Y-82742899D01*
X149663407Y-82846879D01*
X149695727Y-83096042D01*
X149759432Y-83459062D01*
X149849230Y-83904614D01*
X149914360Y-84202665D01*
X150220803Y-85663471D01*
X150487812Y-87151023D01*
X150718628Y-88691492D01*
X150916496Y-90311045D01*
X151084659Y-92035851D01*
X151226359Y-93892080D01*
X151330295Y-95627857D01*
X151343089Y-95948119D01*
X151356680Y-96437100D01*
X151370903Y-97082090D01*
X151385592Y-97870381D01*
X151400580Y-98789267D01*
X151415702Y-99826038D01*
X151430791Y-100967986D01*
X151445682Y-102202404D01*
X151460208Y-103516583D01*
X151474204Y-104897816D01*
X151487503Y-106333393D01*
X151499940Y-107810608D01*
X151511348Y-109316751D01*
X151513967Y-109688572D01*
X151524594Y-111170020D01*
X151535588Y-112606619D01*
X151546831Y-113987372D01*
X151558204Y-115301282D01*
X151569591Y-116537352D01*
X151580874Y-117684585D01*
X151591933Y-118731983D01*
X151602651Y-119668549D01*
X151612910Y-120483288D01*
X151622593Y-121165200D01*
X151631580Y-121703290D01*
X151639755Y-122086560D01*
X151646999Y-122304013D01*
X151649731Y-122343214D01*
X151700879Y-122796786D01*
X152895618Y-122805635D01*
X153473208Y-122817323D01*
X153933520Y-122847633D01*
X154340359Y-122904045D01*
X154757534Y-122994036D01*
X154970813Y-123048857D01*
X156186423Y-123449452D01*
X157269673Y-123967857D01*
X158217625Y-124601838D01*
X159027342Y-125349162D01*
X159695887Y-126207597D01*
X160124126Y-126966657D01*
X160418782Y-127627354D01*
X160613401Y-128197762D01*
X160720145Y-128730170D01*
X160751177Y-129276862D01*
X160739755Y-129613167D01*
X160618748Y-130350188D01*
X160349063Y-130983587D01*
X159929303Y-131515690D01*
X159358070Y-131948821D01*
X159324025Y-131968780D01*
X159112603Y-132081628D01*
X158915027Y-132154352D01*
X158681624Y-132196119D01*
X158362722Y-132216097D01*
X157945714Y-132223159D01*
X157438970Y-132217903D01*
X157046406Y-132186708D01*
X156701608Y-132121037D01*
X156358214Y-132019074D01*
X155200123Y-131545477D01*
X154055081Y-130906761D01*
X152950287Y-130118687D01*
X152644832Y-129867448D01*
X152049285Y-129362210D01*
X152049607Y-129753426D01*
X152055418Y-129982258D01*
X152071194Y-130348867D01*
X152094803Y-130810005D01*
X152124116Y-131322424D01*
X152138129Y-131550714D01*
X152189306Y-132403792D01*
X152245425Y-133404985D01*
X152304893Y-134521100D01*
X152366116Y-135718942D01*
X152427497Y-136965318D01*
X152487444Y-138227031D01*
X152544360Y-139470889D01*
X152596652Y-140663695D01*
X152642724Y-141772257D01*
X152680983Y-142763378D01*
X152693318Y-143107385D01*
X152714290Y-143841408D01*
X152730863Y-144699963D01*
X152743175Y-145661597D01*
X152751361Y-146704853D01*
X152755561Y-147808278D01*
X152755911Y-148950417D01*
X152752549Y-150109815D01*
X152745613Y-151265017D01*
X152735240Y-152394569D01*
X152721568Y-153477016D01*
X152704733Y-154490903D01*
X152684874Y-155414775D01*
X152662129Y-156227178D01*
X152636634Y-156906657D01*
X152608527Y-157431757D01*
X152600808Y-157540357D01*
X152408222Y-159708890D01*
X152171103Y-161715148D01*
X151885733Y-163573633D01*
X151548393Y-165298848D01*
X151155367Y-166905296D01*
X150702935Y-168407479D01*
X150187380Y-169819900D01*
X149604983Y-171157062D01*
X148952028Y-172433468D01*
X148643804Y-172975504D01*
X148448547Y-173301338D01*
X148175183Y-173747289D01*
X147843891Y-174280975D01*
X147474851Y-174870014D01*
X147088240Y-175482024D01*
X146786925Y-175955357D01*
X146337643Y-176662395D01*
X145911926Y-177339749D01*
X145520114Y-177970390D01*
X145172549Y-178537287D01*
X144879569Y-179023409D01*
X144651516Y-179411724D01*
X144498730Y-179685204D01*
X144431550Y-179826816D01*
X144429285Y-179838421D01*
X144501901Y-179902933D01*
X144691502Y-180026431D01*
X144934313Y-180169130D01*
X145334092Y-180440585D01*
X145789657Y-180823527D01*
X146258895Y-181276691D01*
X146699694Y-181758813D01*
X147069944Y-182228630D01*
X147141666Y-182332052D01*
X147651904Y-183185935D01*
X148076318Y-184090689D01*
X148405955Y-185014377D01*
X148631864Y-185925065D01*
X148745092Y-186790816D01*
X148736689Y-187579696D01*
X148695603Y-187875707D01*
X148473330Y-188729025D01*
X148146279Y-189434727D01*
X147713882Y-189993713D01*
X147175568Y-190406884D01*
X147051801Y-190473798D01*
X146479438Y-190684776D01*
X145805979Y-190803799D01*
X145091069Y-190823042D01*
X144678750Y-190785095D01*
X144166278Y-190701490D01*
X143746991Y-190598224D01*
X143342921Y-190450812D01*
X142876096Y-190234770D01*
X142789780Y-190191902D01*
X142437062Y-190007349D01*
X142111836Y-189815347D01*
X141795210Y-189599445D01*
X141468296Y-189343191D01*
X141112203Y-189030135D01*
X140708043Y-188643824D01*
X140236925Y-188167809D01*
X139679961Y-187585637D01*
X139150614Y-187022500D01*
X138434986Y-186267688D01*
X137829439Y-185651627D01*
X137330724Y-185171395D01*
X136935586Y-184824067D01*
X136640775Y-184606722D01*
X136443038Y-184516437D01*
X136368930Y-184522389D01*
X136207734Y-184605862D01*
X135953604Y-184739971D01*
X135766071Y-184839854D01*
X134669326Y-185385652D01*
X133538643Y-185864334D01*
X132346841Y-186284256D01*
X131066744Y-186653778D01*
X129671171Y-186981259D01*
X128132944Y-187275058D01*
X127511071Y-187378692D01*
X127072802Y-187449144D01*
X126488053Y-187543139D01*
X125789474Y-187655428D01*
X125009713Y-187780764D01*
X124181421Y-187913897D01*
X123337247Y-188049581D01*
X122703214Y-188151487D01*
X121180057Y-188394101D01*
X119809968Y-188607202D01*
X118567582Y-188794093D01*
X117427530Y-188958078D01*
X116364445Y-189102458D01*
X115352961Y-189230538D01*
X114367709Y-189345620D01*
X113383323Y-189451007D01*
X112374435Y-189550002D01*
X111315679Y-189645907D01*
X111046428Y-189669254D01*
X110317352Y-189721338D01*
X109465150Y-189764261D01*
X108516514Y-189798026D01*
X107498137Y-189822634D01*
X106436712Y-189838089D01*
X105358932Y-189844393D01*
X104291489Y-189841549D01*
X103261076Y-189829559D01*
X102294387Y-189808427D01*
X101418114Y-189778154D01*
X100658949Y-189738743D01*
X100043586Y-189690197D01*
X99843214Y-189668164D01*
X98033319Y-189412544D01*
X96370387Y-189103657D01*
X94825735Y-188733675D01*
X93370680Y-188294771D01*
X91976538Y-187779117D01*
X90614627Y-187178886D01*
X90473662Y-187111281D01*
X89978990Y-186867695D01*
X89510832Y-186628869D01*
X89107221Y-186414809D01*
X88806189Y-186245521D01*
X88687749Y-186171825D01*
X88288532Y-185902397D01*
X87642753Y-186211879D01*
X87286402Y-186391207D01*
X86917006Y-186596369D01*
X86512595Y-186841607D01*
X86051195Y-187141169D01*
X85510835Y-187509298D01*
X84869542Y-187960241D01*
X84145602Y-188479190D01*
X83330829Y-189058351D01*
X82631424Y-189535248D01*
X82023824Y-189924304D01*
X81484467Y-190239939D01*
X80989793Y-190496573D01*
X80516237Y-190708629D01*
X80475912Y-190725178D01*
X80104055Y-190864667D01*
X79774588Y-190952419D01*
X79415976Y-191002158D01*
X78956681Y-191027609D01*
X78888214Y-191029778D01*
X78271098Y-191027599D01*
X77801145Y-190980932D01*
X77598805Y-190932596D01*
X77001040Y-190664473D01*
X76393340Y-190261748D01*
X75820469Y-189762805D01*
X75327197Y-189206028D01*
X74995490Y-188700509D01*
X74768863Y-188108946D01*
X74675019Y-187446113D01*
X74706275Y-186959737D01*
X75244051Y-186959737D01*
X75256851Y-187618895D01*
X75416928Y-188282073D01*
X75716282Y-188911724D01*
X76024237Y-189335714D01*
X76297113Y-189653214D01*
X76244643Y-189239436D01*
X76243908Y-188706469D01*
X76353877Y-188100605D01*
X76561507Y-187481625D01*
X76688742Y-187203929D01*
X76940898Y-186802115D01*
X77304954Y-186349304D01*
X77738140Y-185889337D01*
X78197688Y-185466054D01*
X78640830Y-185123296D01*
X78842857Y-184995829D01*
X79213609Y-184803402D01*
X79466200Y-184722657D01*
X79622395Y-184749791D01*
X79692835Y-184847299D01*
X79665469Y-184957353D01*
X79505011Y-185115690D01*
X79197708Y-185335035D01*
X79090219Y-185404806D01*
X78502439Y-185831482D01*
X77956078Y-186322820D01*
X77489778Y-186839145D01*
X77142176Y-187340786D01*
X77066955Y-187482203D01*
X76839568Y-188146992D01*
X76754942Y-188914736D01*
X76797128Y-189647352D01*
X76842434Y-189937516D01*
X76913877Y-190110239D01*
X77053418Y-190228820D01*
X77250500Y-190331221D01*
X77966294Y-190585181D01*
X78734036Y-190675416D01*
X79568215Y-190603271D01*
X79764803Y-190565168D01*
X80257968Y-190436391D01*
X80759283Y-190252608D01*
X81287960Y-190002586D01*
X81863208Y-189675094D01*
X82504240Y-189258897D01*
X83230266Y-188742764D01*
X84060498Y-188115462D01*
X84381611Y-187865718D01*
X85309720Y-187160012D01*
X86142930Y-186569130D01*
X86873265Y-186098352D01*
X87492744Y-185752957D01*
X87767487Y-185625052D01*
X88070565Y-185492278D01*
X88314842Y-185378729D01*
X88438975Y-185313799D01*
X88414939Y-185229520D01*
X88278700Y-185038525D01*
X88048644Y-184760042D01*
X87743159Y-184413304D01*
X87380631Y-184017540D01*
X86979446Y-183591980D01*
X86557990Y-183155854D01*
X86134652Y-182728394D01*
X85727816Y-182328830D01*
X85355870Y-181976391D01*
X85037199Y-181690309D01*
X84790192Y-181489812D01*
X84765944Y-181472207D01*
X84052534Y-181047396D01*
X83343368Y-180797719D01*
X82638340Y-180717857D01*
X82300429Y-180733571D01*
X82009855Y-180794449D01*
X81691589Y-180921096D01*
X81434110Y-181048556D01*
X80351761Y-181647473D01*
X79331024Y-182291642D01*
X78387833Y-182967116D01*
X77538123Y-183659946D01*
X76797829Y-184356184D01*
X76182885Y-185041884D01*
X75709225Y-185703096D01*
X75392785Y-186325874D01*
X75386525Y-186342143D01*
X75244051Y-186959737D01*
X74706275Y-186959737D01*
X74718526Y-186769109D01*
X74810305Y-186386676D01*
X75101342Y-185714981D01*
X75557397Y-185009990D01*
X76167544Y-184282683D01*
X76920856Y-183544039D01*
X77806409Y-182805038D01*
X78813277Y-182076660D01*
X79610201Y-181563128D01*
X79955099Y-181346899D01*
X80234532Y-181163502D01*
X80417027Y-181034138D01*
X80472445Y-180982259D01*
X80417139Y-180898053D01*
X80263532Y-180705435D01*
X80033967Y-180431495D01*
X79750787Y-180103328D01*
X79696377Y-180041195D01*
X78120460Y-178142010D01*
X76718626Y-176228980D01*
X75484112Y-174286930D01*
X74410155Y-172300687D01*
X73489990Y-170255077D01*
X72716856Y-168134927D01*
X72083988Y-165925063D01*
X71584624Y-163610312D01*
X71212000Y-161175500D01*
X71183514Y-160942143D01*
X71087039Y-160071929D01*
X71009853Y-159223246D01*
X70950845Y-158366680D01*
X70908906Y-157472818D01*
X70882924Y-156512244D01*
X70871789Y-155455545D01*
X70874392Y-154273308D01*
X70887310Y-153095357D01*
X70899235Y-152312561D01*
X70912383Y-151599837D01*
X70927847Y-150935481D01*
X70946719Y-150297790D01*
X70970089Y-149665060D01*
X70999051Y-149015588D01*
X71034695Y-148327670D01*
X71078115Y-147579602D01*
X71130401Y-146749682D01*
X71192646Y-145816206D01*
X71265942Y-144757470D01*
X71351380Y-143551770D01*
X71405296Y-142799286D01*
X71500274Y-141434298D01*
X71578013Y-140211169D01*
X71639999Y-139091301D01*
X71687717Y-138036094D01*
X71722655Y-137006948D01*
X71746299Y-135965264D01*
X71760136Y-134872441D01*
X71765650Y-133689881D01*
X71765887Y-133435074D01*
X71767142Y-130194076D01*
X71290892Y-130652467D01*
X70898947Y-130992171D01*
X70388489Y-131379563D01*
X69804743Y-131784182D01*
X69192930Y-132175566D01*
X68598273Y-132523254D01*
X68211215Y-132726915D01*
X67477654Y-133040933D01*
X66827480Y-133210207D01*
X66239731Y-133238409D01*
X65773458Y-133154176D01*
X65257363Y-132926476D01*
X64844535Y-132587941D01*
X64564822Y-132166400D01*
X64490603Y-131958053D01*
X64382316Y-131672007D01*
X64239172Y-131531120D01*
X64182405Y-131510929D01*
X63964925Y-131396180D01*
X63699208Y-131173198D01*
X63430018Y-130889527D01*
X63202122Y-130592713D01*
X63060286Y-130330298D01*
X63054144Y-130312657D01*
X62963607Y-129760240D01*
X63416280Y-129760240D01*
X63542414Y-130221523D01*
X63840421Y-130648183D01*
X64009594Y-130811534D01*
X64252497Y-131009405D01*
X64410486Y-131079085D01*
X64524928Y-131022649D01*
X64636777Y-130842973D01*
X64817019Y-130585874D01*
X65089593Y-130304022D01*
X65418399Y-130023582D01*
X65767332Y-129770719D01*
X66100292Y-129571597D01*
X66381175Y-129452381D01*
X66573750Y-129439188D01*
X66686663Y-129543989D01*
X66653530Y-129702680D01*
X66488869Y-129884678D01*
X66302957Y-130009659D01*
X65942956Y-130246951D01*
X65578901Y-130544681D01*
X65260638Y-130857192D01*
X65038013Y-131138826D01*
X65001963Y-131201326D01*
X64879176Y-131590643D01*
X64930889Y-131939597D01*
X65122321Y-132209096D01*
X65516286Y-132504928D01*
X65960039Y-132666554D01*
X66500501Y-132709753D01*
X66601820Y-132706610D01*
X66922043Y-132678984D01*
X67216518Y-132615178D01*
X67542205Y-132497745D01*
X67956063Y-132309240D01*
X68053248Y-132262051D01*
X68989576Y-131765739D01*
X69815079Y-131237932D01*
X70599716Y-130631816D01*
X70971208Y-130309321D01*
X71762773Y-129600357D01*
X71721869Y-128920000D01*
X71705866Y-128610193D01*
X71686197Y-128161761D01*
X71664562Y-127617428D01*
X71642663Y-127019920D01*
X71622938Y-126434957D01*
X71564911Y-124630271D01*
X70645491Y-124683653D01*
X69494860Y-124838277D01*
X68346586Y-125161842D01*
X67224482Y-125643137D01*
X66152362Y-126270947D01*
X65154038Y-127034060D01*
X64641572Y-127510845D01*
X64074663Y-128139636D01*
X63681849Y-128722198D01*
X63462573Y-129261432D01*
X63416280Y-129760240D01*
X62963607Y-129760240D01*
X62962330Y-129752452D01*
X63036420Y-129158334D01*
X63266751Y-128542143D01*
X63643662Y-127915719D01*
X64157491Y-127290901D01*
X64798576Y-126679528D01*
X65557255Y-126093441D01*
X66423868Y-125544479D01*
X67331198Y-125071498D01*
X68353533Y-124652621D01*
X69353358Y-124380645D01*
X70389429Y-124240262D01*
X70565178Y-124228839D01*
X71495000Y-124176802D01*
X71494553Y-123713579D01*
X71489309Y-123540267D01*
X71474359Y-123203300D01*
X71450633Y-122720141D01*
X71419058Y-122108254D01*
X71380564Y-121385100D01*
X71336080Y-120568143D01*
X71286533Y-119674844D01*
X71232853Y-118722667D01*
X71180489Y-117807500D01*
X71119782Y-116751387D01*
X71058849Y-115686608D01*
X70999101Y-114638113D01*
X70941948Y-113630854D01*
X70888801Y-112689781D01*
X70841070Y-111839845D01*
X70800166Y-111105996D01*
X70767499Y-110513184D01*
X70752294Y-110232857D01*
X70724062Y-109596723D01*
X70699713Y-108825697D01*
X70679251Y-107941678D01*
X70662678Y-106966563D01*
X70649996Y-105922248D01*
X70641207Y-104830632D01*
X70636315Y-103713611D01*
X70635783Y-103113063D01*
X71586180Y-103113063D01*
X71588048Y-104168547D01*
X71594544Y-105150824D01*
X71606585Y-106085688D01*
X71625085Y-106998929D01*
X71650961Y-107916340D01*
X71685129Y-108863711D01*
X71728503Y-109866836D01*
X71782001Y-110951505D01*
X71846537Y-112143511D01*
X71923027Y-113468645D01*
X71998387Y-114723214D01*
X72125874Y-116825141D01*
X72241670Y-118760896D01*
X72345796Y-120545359D01*
X72438271Y-122193408D01*
X72519114Y-123719923D01*
X72588344Y-125139781D01*
X72645982Y-126467863D01*
X72692046Y-127719047D01*
X72726556Y-128908212D01*
X72749532Y-130050236D01*
X72760992Y-131160000D01*
X72760957Y-132252381D01*
X72749446Y-133342258D01*
X72726478Y-134444511D01*
X72692072Y-135574018D01*
X72646249Y-136745659D01*
X72589028Y-137974311D01*
X72520428Y-139274855D01*
X72440468Y-140662168D01*
X72349169Y-142151131D01*
X72246549Y-143756621D01*
X72132628Y-145493518D01*
X72040445Y-146881429D01*
X71913701Y-148923093D01*
X71817265Y-150802395D01*
X71751420Y-152535902D01*
X71716455Y-154140177D01*
X71712654Y-155631787D01*
X71740303Y-157027298D01*
X71799688Y-158343275D01*
X71891095Y-159596283D01*
X72014810Y-160802888D01*
X72171118Y-161979657D01*
X72316707Y-162892500D01*
X72804490Y-165209749D01*
X73468432Y-167488000D01*
X74306670Y-169723251D01*
X75317341Y-171911499D01*
X76498581Y-174048741D01*
X77848528Y-176130974D01*
X79365320Y-178154197D01*
X79494256Y-178313929D01*
X79847685Y-178744834D01*
X80206534Y-179174419D01*
X80534871Y-179560177D01*
X80796768Y-179859599D01*
X80857600Y-179926880D01*
X81100799Y-180188184D01*
X81264066Y-180337454D01*
X81389475Y-180396936D01*
X81519103Y-180388873D01*
X81655000Y-180348453D01*
X82031784Y-180277668D01*
X82514777Y-180258280D01*
X83037216Y-180286932D01*
X83532340Y-180360270D01*
X83898033Y-180461188D01*
X84311233Y-180656191D01*
X84776017Y-180954651D01*
X85303448Y-181365729D01*
X85904588Y-181898585D01*
X86590501Y-182562379D01*
X87243781Y-183231523D01*
X87678902Y-183681374D01*
X88091453Y-184098634D01*
X88458809Y-184461138D01*
X88758344Y-184746718D01*
X88967432Y-184933206D01*
X89030403Y-184981964D01*
X89258054Y-185170166D01*
X89423388Y-185363647D01*
X89449234Y-185410080D01*
X89572155Y-185534408D01*
X89837655Y-185711109D01*
X90219072Y-185927185D01*
X90689742Y-186169640D01*
X91223002Y-186425477D01*
X91792188Y-186681699D01*
X92370637Y-186925310D01*
X92931686Y-187143312D01*
X93208769Y-187242609D01*
X94337210Y-187609250D01*
X95466106Y-187924755D01*
X96626485Y-188195113D01*
X97849379Y-188426318D01*
X99165815Y-188624358D01*
X100606825Y-188795225D01*
X101884285Y-188917615D01*
X102066471Y-188924894D01*
X102407142Y-188930060D01*
X102883365Y-188933084D01*
X103472210Y-188933934D01*
X104150745Y-188932582D01*
X104896037Y-188928997D01*
X105685155Y-188923148D01*
X105739643Y-188922669D01*
X106942968Y-188907919D01*
X107995243Y-188885769D01*
X108926741Y-188855039D01*
X109767733Y-188814548D01*
X110548491Y-188763115D01*
X111182500Y-188710357D01*
X112907740Y-188544133D01*
X114568692Y-188364291D01*
X116211987Y-188164813D01*
X117884256Y-187939682D01*
X119632129Y-187682879D01*
X121502238Y-187388386D01*
X121796071Y-187340606D01*
X123193347Y-187112187D01*
X124424521Y-186910045D01*
X125502654Y-186731874D01*
X126440805Y-186575368D01*
X127252037Y-186438222D01*
X127949409Y-186318129D01*
X128545983Y-186212784D01*
X129054819Y-186119882D01*
X129488978Y-186037116D01*
X129861521Y-185962180D01*
X130185508Y-185892770D01*
X130474000Y-185826579D01*
X130735880Y-185762358D01*
X132352422Y-185289644D01*
X133821290Y-184726788D01*
X134560320Y-184381352D01*
X134919900Y-184196609D01*
X135174378Y-184042890D01*
X135369905Y-183878364D01*
X135552627Y-183661201D01*
X135670226Y-183491587D01*
X136631862Y-183491587D01*
X136660216Y-183731481D01*
X136788218Y-183973666D01*
X137028490Y-184256193D01*
X137393655Y-184617115D01*
X137409282Y-184632044D01*
X137662045Y-184884526D01*
X138003020Y-185241102D01*
X138401519Y-185668828D01*
X138826855Y-186134760D01*
X139248341Y-186605952D01*
X139255710Y-186614286D01*
X140004407Y-187442722D01*
X140669041Y-188134429D01*
X141267515Y-188702741D01*
X141817732Y-189160994D01*
X142337595Y-189522522D01*
X142845010Y-189800658D01*
X143357878Y-190008739D01*
X143894103Y-190160097D01*
X144066428Y-190197293D01*
X144692961Y-190297477D01*
X145235810Y-190318405D01*
X145773552Y-190261986D01*
X145887824Y-190241509D01*
X146173905Y-190175886D01*
X146386070Y-190106468D01*
X146454379Y-190068335D01*
X146481254Y-189934514D01*
X146458881Y-189667875D01*
X146395854Y-189307560D01*
X146300770Y-188892710D01*
X146182222Y-188462469D01*
X146048805Y-188055977D01*
X145964845Y-187838929D01*
X145642997Y-187177396D01*
X145220228Y-186471917D01*
X144739286Y-185789340D01*
X144351706Y-185316328D01*
X144097655Y-185023581D01*
X143952877Y-184830616D01*
X143903389Y-184704083D01*
X143935206Y-184610634D01*
X144021071Y-184527857D01*
X144106945Y-184473661D01*
X144196809Y-184475623D01*
X144313974Y-184552382D01*
X144481748Y-184722577D01*
X144723443Y-185004848D01*
X144927403Y-185252580D01*
X145531522Y-186081084D01*
X146057200Y-186981617D01*
X146483498Y-187910170D01*
X146789476Y-188822732D01*
X146924142Y-189449107D01*
X146976750Y-189667466D01*
X147040490Y-189783536D01*
X147055704Y-189789286D01*
X147187880Y-189717233D01*
X147379158Y-189527940D01*
X147598655Y-189261707D01*
X147815484Y-188958833D01*
X147998762Y-188659616D01*
X148117601Y-188404356D01*
X148118004Y-188403193D01*
X148258067Y-187762686D01*
X148282935Y-187019183D01*
X148199475Y-186203915D01*
X148014554Y-185348114D01*
X147735041Y-184483010D01*
X147367801Y-183639836D01*
X146919704Y-182849821D01*
X146885192Y-182796870D01*
X146228975Y-181933116D01*
X145494614Y-181208193D01*
X144696262Y-180628956D01*
X143848070Y-180202258D01*
X142964190Y-179934955D01*
X142058774Y-179833899D01*
X141145975Y-179905947D01*
X140982143Y-179937793D01*
X140249570Y-180149625D01*
X139513054Y-180464811D01*
X138802946Y-180861978D01*
X138149593Y-181319750D01*
X137583346Y-181816757D01*
X137134552Y-182331622D01*
X136833561Y-182842975D01*
X136823604Y-182866460D01*
X136690532Y-183215931D01*
X136631862Y-183491587D01*
X135670226Y-183491587D01*
X135768692Y-183349570D01*
X135873541Y-183190996D01*
X136605077Y-182209745D01*
X137422876Y-181347738D01*
X138308946Y-180618923D01*
X139245292Y-180037249D01*
X140213922Y-179616664D01*
X140656249Y-179483489D01*
X141087634Y-179406827D01*
X141622890Y-179362554D01*
X142193405Y-179351758D01*
X142730569Y-179375526D01*
X143165770Y-179434944D01*
X143202096Y-179443139D01*
X143426448Y-179492341D01*
X143554041Y-179512627D01*
X143564953Y-179510880D01*
X143621120Y-179367280D01*
X143759216Y-179096179D01*
X143964426Y-178723560D01*
X144221932Y-178275403D01*
X144516919Y-177777691D01*
X144834570Y-177256403D01*
X145023528Y-176953214D01*
X145402581Y-176350513D01*
X145834998Y-175663207D01*
X146277426Y-174960190D01*
X146686512Y-174310355D01*
X146850236Y-174050357D01*
X147563597Y-172885223D01*
X148169904Y-171818016D01*
X148684856Y-170813068D01*
X149124152Y-169834709D01*
X149503488Y-168847268D01*
X149838565Y-167815077D01*
X150145080Y-166702465D01*
X150225756Y-166380483D01*
X150569623Y-164890040D01*
X150869571Y-163386372D01*
X151126861Y-161853190D01*
X151342756Y-160274205D01*
X151518518Y-158633130D01*
X151655411Y-156913674D01*
X151754695Y-155099550D01*
X151817634Y-153174470D01*
X151845490Y-151122144D01*
X151839526Y-148926283D01*
X151801003Y-146570601D01*
X151791802Y-146173635D01*
X151771639Y-145342152D01*
X151752741Y-144584274D01*
X151734441Y-143884379D01*
X151716076Y-143226850D01*
X151696980Y-142596067D01*
X151676486Y-141976410D01*
X151653931Y-141352259D01*
X151628647Y-140707997D01*
X151599971Y-140028002D01*
X151567237Y-139296657D01*
X151529778Y-138498340D01*
X151486931Y-137617434D01*
X151438029Y-136638319D01*
X151382407Y-135545375D01*
X151319400Y-134322983D01*
X151248342Y-132955523D01*
X151168568Y-131427377D01*
X151141814Y-130915714D01*
X151058689Y-129323954D01*
X150984202Y-127886572D01*
X150917853Y-126584894D01*
X150859142Y-125400241D01*
X150807569Y-124313939D01*
X150780523Y-123708084D01*
X151754275Y-123708084D01*
X151756294Y-124102157D01*
X151773312Y-124657705D01*
X151805443Y-125381936D01*
X151835911Y-125973105D01*
X151972337Y-128511786D01*
X152441704Y-128995103D01*
X153188178Y-129694745D01*
X153981761Y-130313064D01*
X154801222Y-130840493D01*
X155625327Y-131267468D01*
X156432843Y-131584421D01*
X157202538Y-131781789D01*
X157913180Y-131850006D01*
X158543534Y-131779505D01*
X158593598Y-131766575D01*
X158732168Y-131658772D01*
X158815911Y-131414525D01*
X158850180Y-131015927D01*
X158851618Y-130903288D01*
X158768009Y-130464733D01*
X158531154Y-130017445D01*
X158165769Y-129587988D01*
X157696571Y-129202924D01*
X157148276Y-128888817D01*
X156869334Y-128772905D01*
X156522689Y-128631768D01*
X156332514Y-128511056D01*
X156278543Y-128390192D01*
X156340511Y-128248603D01*
X156345759Y-128241335D01*
X156412359Y-128165829D01*
X156494757Y-128137603D01*
X156628536Y-128164599D01*
X156849277Y-128254760D01*
X157192561Y-128416030D01*
X157248558Y-128442878D01*
X157988700Y-128862432D01*
X158569747Y-129331920D01*
X158986430Y-129844999D01*
X159233477Y-130395322D01*
X159306428Y-130920258D01*
X159323586Y-131206490D01*
X159382190Y-131333259D01*
X159492935Y-131299755D01*
X159666516Y-131105167D01*
X159825592Y-130880878D01*
X160105590Y-130383644D01*
X160256938Y-129880474D01*
X160302704Y-129294108D01*
X160302703Y-129282857D01*
X160225303Y-128573383D01*
X160008574Y-127819348D01*
X159673412Y-127061308D01*
X159240713Y-126339818D01*
X158731372Y-125695433D01*
X158194169Y-125190539D01*
X157484003Y-124698609D01*
X156676943Y-124257657D01*
X155810045Y-123880046D01*
X154920363Y-123578142D01*
X154044954Y-123364311D01*
X153220872Y-123250918D01*
X152485173Y-123250328D01*
X152404297Y-123258458D01*
X152105862Y-123300195D01*
X151878381Y-123346484D01*
X151794777Y-123375530D01*
X151767141Y-123468277D01*
X151754275Y-123708084D01*
X150780523Y-123708084D01*
X150762632Y-123307310D01*
X150723832Y-122361678D01*
X150690668Y-121458367D01*
X150662640Y-120578701D01*
X150639247Y-119704003D01*
X150619988Y-118815597D01*
X150604364Y-117894807D01*
X150591874Y-116922955D01*
X150582018Y-115881367D01*
X150574295Y-114751365D01*
X150568204Y-113514273D01*
X150563246Y-112151415D01*
X150558919Y-110644114D01*
X150554808Y-109008214D01*
X150549357Y-107092292D01*
X150542530Y-105345126D01*
X150533918Y-103754050D01*
X150523111Y-102306393D01*
X150509701Y-100989488D01*
X150493277Y-99790666D01*
X150473430Y-98697258D01*
X150449752Y-97696595D01*
X150421832Y-96776009D01*
X150389261Y-95922832D01*
X150351630Y-95124394D01*
X150308529Y-94368027D01*
X150259550Y-93641062D01*
X150204281Y-92930831D01*
X150142316Y-92224665D01*
X150073242Y-91509896D01*
X149996653Y-90773854D01*
X149952392Y-90366429D01*
X149589087Y-87643472D01*
X149113391Y-85057861D01*
X148525660Y-82610939D01*
X147826246Y-80304048D01*
X147015504Y-78138532D01*
X146326527Y-76591098D01*
X146089956Y-76115072D01*
X145853566Y-75671495D01*
X145638839Y-75298517D01*
X145467259Y-75034289D01*
X145406493Y-74957243D01*
X145215323Y-74717957D01*
X144978993Y-74385972D01*
X144743006Y-74025744D01*
X144701428Y-73958555D01*
X144002294Y-72846514D01*
X143344115Y-71868307D01*
X142699895Y-70989544D01*
X142042637Y-70175836D01*
X141345345Y-69392793D01*
X140581022Y-68606026D01*
X140230417Y-68263202D01*
X138801084Y-66991736D01*
X140334138Y-66991736D01*
X141369842Y-68042833D01*
X142025502Y-68721278D01*
X142582504Y-69329729D01*
X143081008Y-69915008D01*
X143561173Y-70523940D01*
X143969416Y-71073789D01*
X144281071Y-71486635D01*
X144515611Y-71755079D01*
X144688208Y-71890924D01*
X144814032Y-71905972D01*
X144908253Y-71812027D01*
X144911330Y-71806614D01*
X145164055Y-71464736D01*
X145520806Y-71118307D01*
X145916043Y-70827296D01*
X146085820Y-70731977D01*
X146416487Y-70592692D01*
X146746583Y-70521400D01*
X147162584Y-70500086D01*
X147199393Y-70500000D01*
X147871037Y-70578953D01*
X148458970Y-70800492D01*
X148953675Y-71141640D01*
X149345631Y-71579415D01*
X149625322Y-72090841D01*
X149783227Y-72652937D01*
X149809828Y-73242724D01*
X149695607Y-73837225D01*
X149431045Y-74413459D01*
X149031635Y-74923189D01*
X148595095Y-75268182D01*
X148075176Y-75522856D01*
X147539935Y-75657295D01*
X147331030Y-75670714D01*
X146973866Y-75670714D01*
X147297229Y-76373750D01*
X147748137Y-77408155D01*
X148197372Y-78537955D01*
X148612829Y-79679684D01*
X148887279Y-80507348D01*
X149282500Y-81760767D01*
X149671222Y-81710611D01*
X149947937Y-81650008D01*
X150314833Y-81537054D01*
X150697172Y-81395012D01*
X150734399Y-81379678D01*
X151768654Y-80854400D01*
X152691528Y-80190626D01*
X153496464Y-79397945D01*
X154176904Y-78485946D01*
X154726289Y-77464217D01*
X155138061Y-76342345D01*
X155405662Y-75129921D01*
X155488982Y-74428336D01*
X155514826Y-73207171D01*
X155389797Y-72019658D01*
X155122020Y-70882396D01*
X154719618Y-69811981D01*
X154190714Y-68825013D01*
X153543432Y-67938088D01*
X152785895Y-67167806D01*
X151926227Y-66530763D01*
X151506345Y-66291007D01*
X150428700Y-65829700D01*
X149259201Y-65519054D01*
X148006476Y-65358666D01*
X146679154Y-65348136D01*
X145285865Y-65487063D01*
X143835238Y-65775044D01*
X142335900Y-66211679D01*
X140816890Y-66787941D01*
X140334138Y-66991736D01*
X138801084Y-66991736D01*
X138706889Y-66907945D01*
X137040555Y-65640536D01*
X135255830Y-64478445D01*
X133777343Y-63645873D01*
X133360894Y-63420366D01*
X133001592Y-63213818D01*
X132730842Y-63045189D01*
X132580053Y-62933438D01*
X132561929Y-62912196D01*
X132496557Y-62868901D01*
X132410330Y-62968240D01*
X132318547Y-63152989D01*
X131973087Y-63707147D01*
X131495403Y-64153444D01*
X130904036Y-64484945D01*
X130217528Y-64694714D01*
X129454420Y-64775816D01*
X128633253Y-64721316D01*
X128290675Y-64659567D01*
X127672987Y-64498090D01*
X127086601Y-64276583D01*
X126512093Y-63981310D01*
X125930038Y-63598534D01*
X125321014Y-63114516D01*
X124665596Y-62515520D01*
X123944361Y-61787810D01*
X123387621Y-61191948D01*
X122214181Y-59912110D01*
X121778340Y-59952096D01*
X121520500Y-59960282D01*
X121132752Y-59953639D01*
X120665871Y-59933795D01*
X120170628Y-59902380D01*
X120127929Y-59899157D01*
X118913358Y-59806232D01*
X117587929Y-60246719D01*
X115643960Y-60803717D01*
X113698858Y-61181466D01*
X111744000Y-61380550D01*
X109770758Y-61401551D01*
X107770509Y-61245051D01*
X106253308Y-61012631D01*
X105043401Y-60789612D01*
X101407392Y-61248967D01*
X100612639Y-61347890D01*
X99871936Y-61437239D01*
X99205071Y-61514838D01*
X98631837Y-61578511D01*
X98172024Y-61626082D01*
X97845423Y-61655375D01*
X97671825Y-61664215D01*
X97650607Y-61661975D01*
X97538750Y-61695173D01*
X97305586Y-61816425D01*
X96978455Y-62009763D01*
X96584696Y-62259220D01*
X96268875Y-62468948D01*
X95465272Y-62998816D01*
X94773504Y-63420674D01*
X94168112Y-63745113D01*
X93623634Y-63982723D01*
X93114608Y-64144094D01*
X92615573Y-64239816D01*
X92101068Y-64280478D01*
X91905714Y-64283681D01*
X91475730Y-64278503D01*
X91163196Y-64252628D01*
X90904342Y-64193986D01*
X90635394Y-64090508D01*
X90459998Y-64010080D01*
X89876068Y-63734538D01*
X88917855Y-64201500D01*
X87360142Y-65036007D01*
X85794775Y-66021146D01*
X84260572Y-67132171D01*
X83998685Y-67337301D01*
X83398830Y-67840206D01*
X82727897Y-68449209D01*
X82024381Y-69125807D01*
X81326778Y-69831494D01*
X80673581Y-70527765D01*
X80103285Y-71176114D01*
X79839281Y-71497857D01*
X78536310Y-73270636D01*
X77348123Y-75165493D01*
X76273736Y-77185271D01*
X75312170Y-79332816D01*
X74462443Y-81610972D01*
X73723573Y-84022583D01*
X73094579Y-86570494D01*
X72574480Y-89257548D01*
X72162295Y-92086590D01*
X71905977Y-94493929D01*
X71815503Y-95578343D01*
X71741946Y-96646792D01*
X71684118Y-97731305D01*
X71640830Y-98863911D01*
X71610895Y-100076642D01*
X71593124Y-101401526D01*
X71586328Y-102870594D01*
X71586180Y-103113063D01*
X70635783Y-103113063D01*
X70635321Y-102593083D01*
X70638229Y-101490945D01*
X70645041Y-100429094D01*
X70655758Y-99429428D01*
X70670385Y-98513843D01*
X70688923Y-97704238D01*
X70711375Y-97022508D01*
X70737743Y-96490553D01*
X70750697Y-96308214D01*
X70903760Y-94640357D01*
X71092087Y-92964171D01*
X71310608Y-91313811D01*
X71554254Y-89723434D01*
X71817956Y-88227196D01*
X72096647Y-86859253D01*
X72254916Y-86172132D01*
X72359768Y-85721875D01*
X72442000Y-85337279D01*
X72495145Y-85051212D01*
X72512738Y-84896547D01*
X72509215Y-84879454D01*
X72397363Y-84850530D01*
X72173374Y-84834202D01*
X72081155Y-84832857D01*
X71747297Y-84802000D01*
X71297252Y-84718447D01*
X70783744Y-84595722D01*
X70259497Y-84447353D01*
X69777237Y-84286866D01*
X69461491Y-84160800D01*
X68419369Y-83602340D01*
X67471741Y-82904590D01*
X66626979Y-82085655D01*
X65893455Y-81163645D01*
X65279542Y-80156666D01*
X64793611Y-79082828D01*
X64444035Y-77960237D01*
X64239187Y-76807002D01*
X64214922Y-76260357D01*
X65031730Y-76260357D01*
X65056540Y-77036899D01*
X65151889Y-77710034D01*
X65333393Y-78349269D01*
X65616664Y-79024114D01*
X65683828Y-79163214D01*
X66187492Y-80024953D01*
X66819785Y-80842868D01*
X67556440Y-81599909D01*
X68373189Y-82279024D01*
X69245763Y-82863162D01*
X70149895Y-83335272D01*
X71061316Y-83678302D01*
X71955758Y-83875203D01*
X72447500Y-83915483D01*
X72810357Y-83925129D01*
X73294695Y-82405958D01*
X73500564Y-81780391D01*
X73737265Y-81093363D01*
X73980225Y-80414353D01*
X74204867Y-79812844D01*
X74281209Y-79616786D01*
X74459223Y-79166491D01*
X74614316Y-78773990D01*
X74733872Y-78471226D01*
X74805274Y-78290141D01*
X74818642Y-78256072D01*
X74754722Y-78209630D01*
X74528719Y-78189809D01*
X74206074Y-78195934D01*
X73573870Y-78171625D01*
X73038178Y-78021576D01*
X72550257Y-77728756D01*
X72325682Y-77538904D01*
X71889538Y-77036956D01*
X71618430Y-76474343D01*
X71502669Y-75828696D01*
X71496772Y-75625357D01*
X71568618Y-74954120D01*
X71790621Y-74375815D01*
X72172478Y-73868542D01*
X72348738Y-73701035D01*
X72916605Y-73316386D01*
X73547692Y-73095250D01*
X74217458Y-73042350D01*
X74901360Y-73162410D01*
X74993248Y-73192064D01*
X75310506Y-73348346D01*
X75655932Y-73593628D01*
X75985577Y-73887497D01*
X76255493Y-74189538D01*
X76421729Y-74459336D01*
X76444473Y-74526580D01*
X76526456Y-74720495D01*
X76620399Y-74745382D01*
X76706643Y-74596093D01*
X76706888Y-74595324D01*
X76807868Y-74378251D01*
X77004396Y-74042675D01*
X77279549Y-73612452D01*
X77616402Y-73111441D01*
X77998035Y-72563500D01*
X78407522Y-71992485D01*
X78827943Y-71422256D01*
X79242373Y-70876669D01*
X79633890Y-70379583D01*
X79985572Y-69954854D01*
X80057431Y-69871757D01*
X80289856Y-69592024D01*
X80466589Y-69353484D01*
X80559172Y-69195560D01*
X80566428Y-69166694D01*
X80500681Y-69015402D01*
X80328431Y-68792248D01*
X80087162Y-68535749D01*
X79814359Y-68284421D01*
X79547507Y-68076781D01*
X79437718Y-68006913D01*
X78790686Y-67715293D01*
X77996964Y-67496517D01*
X77077248Y-67353450D01*
X76052236Y-67288955D01*
X74942625Y-67305897D01*
X74550746Y-67330644D01*
X73112866Y-67508789D01*
X71791893Y-67821017D01*
X70578343Y-68271247D01*
X69462735Y-68863400D01*
X68435587Y-69601396D01*
X67891637Y-70083502D01*
X67003751Y-71038065D01*
X66274465Y-72057397D01*
X65708433Y-73131445D01*
X65310309Y-74250160D01*
X65084746Y-75403488D01*
X65031730Y-76260357D01*
X64214922Y-76260357D01*
X64187438Y-75641231D01*
X64297160Y-74481031D01*
X64529476Y-73493572D01*
X64932166Y-72467830D01*
X65497379Y-71464808D01*
X66206246Y-70503573D01*
X67039897Y-69603192D01*
X67979464Y-68782733D01*
X69006077Y-68061264D01*
X70100868Y-67457852D01*
X70805562Y-67151404D01*
X71511864Y-66896134D01*
X72181217Y-66703597D01*
X72857413Y-66566650D01*
X73584240Y-66478149D01*
X74405489Y-66430950D01*
X75301873Y-66417857D01*
X76446567Y-66439035D01*
X77432551Y-66505971D01*
X78277932Y-66623769D01*
X79000815Y-66797530D01*
X79619305Y-67032360D01*
X80151508Y-67333360D01*
X80615529Y-67705634D01*
X80894346Y-67994125D01*
X81329322Y-68487486D01*
X82013768Y-67845737D01*
X83142506Y-66856013D01*
X84386726Y-65887218D01*
X85697013Y-64973694D01*
X87023952Y-64149784D01*
X88318127Y-63449829D01*
X88390535Y-63414057D01*
X88684055Y-63262122D01*
X88900788Y-63135224D01*
X89000453Y-63057278D01*
X89002857Y-63050541D01*
X88948892Y-62952194D01*
X88809559Y-62763730D01*
X88671463Y-62593761D01*
X88222958Y-61942955D01*
X87954083Y-61270645D01*
X87873078Y-60640243D01*
X88443086Y-60640243D01*
X88571075Y-61333105D01*
X88875725Y-62032715D01*
X89010450Y-62256833D01*
X89227677Y-62582733D01*
X89369062Y-62750978D01*
X89448366Y-62761672D01*
X89479349Y-62614919D01*
X89475771Y-62310824D01*
X89473512Y-62260329D01*
X89527007Y-61485093D01*
X89758879Y-60727851D01*
X90166515Y-59994029D01*
X90747301Y-59289055D01*
X91043359Y-59001847D01*
X91429316Y-58672751D01*
X91819531Y-58380299D01*
X92183028Y-58143890D01*
X92488834Y-57982921D01*
X92705973Y-57916789D01*
X92766118Y-57922989D01*
X92890869Y-58022001D01*
X92859524Y-58168389D01*
X92667974Y-58368069D01*
X92312108Y-58626955D01*
X92247727Y-58669045D01*
X91518996Y-59212836D01*
X90901063Y-59821947D01*
X90422666Y-60466144D01*
X90260511Y-60759544D01*
X90103794Y-61097829D01*
X90014316Y-61368714D01*
X89975325Y-61650149D01*
X89970071Y-62020082D01*
X89971462Y-62104620D01*
X89981765Y-62481569D01*
X89996493Y-62813290D01*
X90012762Y-63037319D01*
X90015637Y-63061429D01*
X90136896Y-63321132D01*
X90406183Y-63534977D01*
X90795045Y-63699166D01*
X91275025Y-63809905D01*
X91817669Y-63863399D01*
X92394520Y-63855852D01*
X92977123Y-63783469D01*
X93537023Y-63642456D01*
X93760832Y-63560938D01*
X94054605Y-63439109D01*
X94328138Y-63315924D01*
X94597854Y-63180425D01*
X94880176Y-63021654D01*
X95191530Y-62828654D01*
X95548340Y-62590466D01*
X95967029Y-62296133D01*
X96464022Y-61934697D01*
X97055743Y-61495200D01*
X97758615Y-60966684D01*
X98217861Y-60619133D01*
X98936071Y-60619133D01*
X99253571Y-60575540D01*
X99446527Y-60550116D01*
X99783032Y-60506880D01*
X100226603Y-60450473D01*
X100740754Y-60385539D01*
X101181314Y-60330204D01*
X101693807Y-60263527D01*
X102134313Y-60201480D01*
X102475281Y-60148337D01*
X102689164Y-60108374D01*
X102749924Y-60086829D01*
X102653167Y-60035986D01*
X102433299Y-59936461D01*
X102135508Y-59807341D01*
X101804978Y-59667710D01*
X101486897Y-59536657D01*
X101226451Y-59433267D01*
X101068826Y-59376626D01*
X101067857Y-59376341D01*
X100943343Y-59406456D01*
X100704290Y-59514871D01*
X100388002Y-59680595D01*
X100031789Y-59882638D01*
X99672957Y-60100010D01*
X99348813Y-60311719D01*
X99147352Y-60456888D01*
X98936071Y-60619133D01*
X98217861Y-60619133D01*
X98573214Y-60350208D01*
X99079539Y-59985448D01*
X99626645Y-59623834D01*
X100179587Y-59285649D01*
X100703422Y-58991173D01*
X101163205Y-58760688D01*
X101523991Y-58614475D01*
X101604448Y-58590902D01*
X101663638Y-58565112D01*
X101681678Y-58516270D01*
X101646381Y-58429081D01*
X101545562Y-58288251D01*
X101367035Y-58078483D01*
X101098612Y-57784482D01*
X100728107Y-57390953D01*
X100243733Y-56883016D01*
X99640560Y-56256694D01*
X99139685Y-55748400D01*
X98721826Y-55341496D01*
X98367700Y-55019347D01*
X98058026Y-54765314D01*
X97773520Y-54562763D01*
X97494899Y-54395056D01*
X97202883Y-54245556D01*
X97167143Y-54228577D01*
X96795622Y-54070357D01*
X96472370Y-53984694D01*
X96104591Y-53951089D01*
X95894550Y-53947467D01*
X95598327Y-53949950D01*
X95367106Y-53970225D01*
X95154538Y-54023256D01*
X94914275Y-54124011D01*
X94599967Y-54287455D01*
X94261693Y-54474727D01*
X93030236Y-55206381D01*
X91920428Y-55956878D01*
X90942702Y-56717123D01*
X90107490Y-57478020D01*
X89425225Y-58230475D01*
X88906341Y-58965393D01*
X88720131Y-59305685D01*
X88492517Y-59961861D01*
X88443086Y-60640243D01*
X87873078Y-60640243D01*
X87864874Y-60576403D01*
X87955370Y-59859804D01*
X88225607Y-59120419D01*
X88675624Y-58357823D01*
X89091523Y-57817222D01*
X89686721Y-57183930D01*
X90438411Y-56510454D01*
X91329687Y-55809983D01*
X92343642Y-55095710D01*
X93463369Y-54380823D01*
X93609501Y-54292335D01*
X93907216Y-54113106D01*
X93305364Y-53393875D01*
X92500499Y-52350375D01*
X91715645Y-51178213D01*
X90981217Y-49929856D01*
X90327632Y-48657774D01*
X89785304Y-47414432D01*
X89680630Y-47141072D01*
X89414576Y-46354895D01*
X89153076Y-45451643D01*
X88912423Y-44495289D01*
X88708910Y-43549804D01*
X88579920Y-42819426D01*
X88502637Y-42162726D01*
X88449260Y-41374360D01*
X88419791Y-40502511D01*
X88414228Y-39595359D01*
X88415701Y-39523525D01*
X89950652Y-39523525D01*
X89959709Y-40487290D01*
X90001314Y-41423437D01*
X90075085Y-42280513D01*
X90166618Y-42930223D01*
X90425582Y-44215545D01*
X90731531Y-45387139D01*
X91101709Y-46510252D01*
X91140902Y-46616956D01*
X91308611Y-47040979D01*
X91521020Y-47535474D01*
X91760738Y-48064196D01*
X92010373Y-48590901D01*
X92252534Y-49079343D01*
X92469831Y-49493279D01*
X92644873Y-49796464D01*
X92718838Y-49905522D01*
X92844685Y-50055367D01*
X92938415Y-50070352D01*
X93077736Y-49960027D01*
X93087861Y-49950879D01*
X93348795Y-49620750D01*
X93592130Y-49123666D01*
X93811863Y-48473729D01*
X93951291Y-47922592D01*
X94173990Y-46802288D01*
X94331546Y-45701253D01*
X94422810Y-44597864D01*
X94446631Y-43470499D01*
X94401859Y-42297538D01*
X94287344Y-41057357D01*
X94101936Y-39728336D01*
X93844485Y-38288852D01*
X93513841Y-36717284D01*
X93307489Y-35818985D01*
X93167567Y-35218245D01*
X93067944Y-34769055D01*
X93005074Y-34446913D01*
X92975410Y-34227319D01*
X92975407Y-34085770D01*
X93001518Y-33997767D01*
X93037160Y-33951105D01*
X93177070Y-33865974D01*
X93276821Y-33916250D01*
X93334960Y-34042114D01*
X93424267Y-34323478D01*
X93539235Y-34738159D01*
X93674360Y-35263977D01*
X93824134Y-35878747D01*
X93983050Y-36560287D01*
X94145604Y-37286415D01*
X94306287Y-38034947D01*
X94343732Y-38214359D01*
X94613815Y-39635396D01*
X94805136Y-40932311D01*
X94920444Y-42143066D01*
X94962493Y-43305626D01*
X94934032Y-44457953D01*
X94863482Y-45386251D01*
X94728720Y-46573909D01*
X94569673Y-47590156D01*
X94383775Y-48443709D01*
X94168458Y-49143281D01*
X93921154Y-49697588D01*
X93639297Y-50115343D01*
X93402564Y-50345171D01*
X93244816Y-50487976D01*
X93175834Y-50587499D01*
X93175714Y-50589750D01*
X93230033Y-50707214D01*
X93379562Y-50937474D01*
X93604156Y-51253290D01*
X93883674Y-51627421D01*
X94197971Y-52032629D01*
X94526905Y-52441672D01*
X94695671Y-52645207D01*
X95367310Y-53445714D01*
X95861874Y-53445714D01*
X96452379Y-53513837D01*
X97093552Y-53704660D01*
X97724429Y-53997864D01*
X97978676Y-54151218D01*
X98172198Y-54300545D01*
X98470616Y-54560407D01*
X98852702Y-54910920D01*
X99297229Y-55332199D01*
X99782968Y-55804360D01*
X100288693Y-56307519D01*
X100392345Y-56412121D01*
X100876103Y-56897993D01*
X101321993Y-57339081D01*
X101713371Y-57719451D01*
X102033594Y-58023173D01*
X102266021Y-58234314D01*
X102394008Y-58336942D01*
X102410738Y-58344286D01*
X102529756Y-58342941D01*
X102541964Y-58342346D01*
X102631339Y-58370388D01*
X102850822Y-58446973D01*
X103160253Y-58557979D01*
X103307926Y-58611671D01*
X104645050Y-59042900D01*
X106075146Y-59401821D01*
X107517962Y-59670069D01*
X108461071Y-59790874D01*
X109027339Y-59829496D01*
X109724453Y-59847216D01*
X110503191Y-59845310D01*
X111314333Y-59825052D01*
X112108656Y-59787715D01*
X112836938Y-59734573D01*
X113449958Y-59666902D01*
X113494782Y-59660577D01*
X114010600Y-59574960D01*
X114620720Y-59456372D01*
X115244860Y-59321220D01*
X115747952Y-59200078D01*
X116262133Y-59057507D01*
X116731361Y-58912091D01*
X116821270Y-58884228D01*
X117395164Y-58691562D01*
X117953618Y-58490833D01*
X118466432Y-58293363D01*
X118903410Y-58110475D01*
X119234352Y-57953493D01*
X119429061Y-57833737D01*
X119452957Y-57810892D01*
X119557536Y-57671969D01*
X119690293Y-57480762D01*
X120299285Y-57480762D01*
X120366957Y-57586602D01*
X120546308Y-57764201D01*
X120801848Y-57979221D01*
X120866250Y-58029273D01*
X121122491Y-58248522D01*
X121461092Y-58571408D01*
X121847263Y-58963033D01*
X122246216Y-59388496D01*
X122476428Y-59644566D01*
X123291241Y-60555773D01*
X124010787Y-61333539D01*
X124648998Y-61989312D01*
X125219806Y-62534537D01*
X125737143Y-62980661D01*
X126214939Y-63339131D01*
X126667126Y-63621393D01*
X127107635Y-63838894D01*
X127550398Y-64003079D01*
X127898662Y-64099655D01*
X128406233Y-64186141D01*
X128980080Y-64226564D01*
X129546942Y-64219635D01*
X130033558Y-64164065D01*
X130146972Y-64139231D01*
X130349523Y-64083526D01*
X130473572Y-64015773D01*
X130528366Y-63900032D01*
X130523152Y-63700359D01*
X130467177Y-63380814D01*
X130411738Y-63110127D01*
X130148451Y-62194875D01*
X129741242Y-61255003D01*
X129213816Y-60335295D01*
X128589881Y-59480538D01*
X128332687Y-59182380D01*
X128076951Y-58861742D01*
X127963292Y-58625414D01*
X127993467Y-58480773D01*
X128154466Y-58435000D01*
X128307415Y-58508114D01*
X128538342Y-58713581D01*
X128827981Y-59030586D01*
X129157067Y-59438314D01*
X129446472Y-59830869D01*
X130101987Y-60909095D01*
X130608301Y-62076866D01*
X130952521Y-63303991D01*
X130972810Y-63404539D01*
X131048928Y-63793007D01*
X131385012Y-63514703D01*
X131615432Y-63268763D01*
X131857050Y-62922273D01*
X132020012Y-62629198D01*
X132158459Y-62335080D01*
X132245509Y-62095659D01*
X132292486Y-61852033D01*
X132310713Y-61545300D01*
X132311513Y-61116555D01*
X132311484Y-61112963D01*
X132224641Y-60056601D01*
X131990563Y-59019158D01*
X131622898Y-58020457D01*
X131135297Y-57080320D01*
X130541408Y-56218568D01*
X129854883Y-55455024D01*
X129089371Y-54809508D01*
X128258521Y-54301842D01*
X127381213Y-53953383D01*
X126908214Y-53860933D01*
X126328435Y-53816910D01*
X125709950Y-53821334D01*
X125120832Y-53874226D01*
X124712022Y-53952583D01*
X123937601Y-54223372D01*
X123142213Y-54629935D01*
X122378343Y-55142151D01*
X121820762Y-55611922D01*
X121450502Y-55977354D01*
X121096029Y-56359263D01*
X120780508Y-56729195D01*
X120527104Y-57058696D01*
X120358981Y-57319314D01*
X120299285Y-57480762D01*
X119690293Y-57480762D01*
X119730199Y-57423287D01*
X119941321Y-57107954D01*
X120047711Y-56945439D01*
X120735431Y-56027745D01*
X121530815Y-55213247D01*
X122410881Y-54518190D01*
X123352645Y-53958821D01*
X124333124Y-53551386D01*
X125143906Y-53343155D01*
X125449889Y-53281328D01*
X125665811Y-53209675D01*
X125844327Y-53095207D01*
X126038090Y-52904932D01*
X126275348Y-52634259D01*
X126780640Y-52012858D01*
X127310400Y-51303345D01*
X127814702Y-50575350D01*
X128243622Y-49898507D01*
X128275949Y-49843961D01*
X128660758Y-49190422D01*
X128100235Y-48528604D01*
X127376338Y-47563212D01*
X126773883Y-46513874D01*
X126285587Y-45363012D01*
X125904164Y-44093049D01*
X125622331Y-42686408D01*
X125589187Y-42469286D01*
X125528048Y-41917540D01*
X125482347Y-41223046D01*
X125452312Y-40423845D01*
X125438170Y-39557978D01*
X125440148Y-38663486D01*
X125458474Y-37778411D01*
X125493375Y-36940794D01*
X125545080Y-36188675D01*
X125551214Y-36119286D01*
X125603561Y-35557510D01*
X125647367Y-35151451D01*
X125688677Y-34875982D01*
X125733533Y-34705978D01*
X125787978Y-34616314D01*
X125858056Y-34581864D01*
X125922125Y-34577143D01*
X126037253Y-34594372D01*
X126104745Y-34667459D01*
X126130557Y-34828504D01*
X126120648Y-35109605D01*
X126088120Y-35471620D01*
X126060990Y-35790041D01*
X126028305Y-36245216D01*
X125992955Y-36792668D01*
X125957832Y-37387919D01*
X125929969Y-37904978D01*
X125887605Y-39636243D01*
X125946622Y-41224874D01*
X126108437Y-42679644D01*
X126374467Y-44009326D01*
X126746131Y-45222692D01*
X127224846Y-46328515D01*
X127321024Y-46514060D01*
X127555860Y-46926113D01*
X127821134Y-47344137D01*
X128097412Y-47742903D01*
X128365259Y-48097182D01*
X128605241Y-48381747D01*
X128797923Y-48571369D01*
X128923871Y-48640820D01*
X128950832Y-48629742D01*
X129024709Y-48500337D01*
X129147397Y-48238175D01*
X129303561Y-47880209D01*
X129477865Y-47463391D01*
X129654972Y-47024676D01*
X129819548Y-46601014D01*
X129956255Y-46229360D01*
X130001607Y-46097857D01*
X130395677Y-44794968D01*
X130683944Y-43532798D01*
X130873454Y-42262020D01*
X130971250Y-40933305D01*
X130984377Y-39497327D01*
X130979067Y-39253371D01*
X130939522Y-38254288D01*
X130870687Y-37378504D01*
X130764293Y-36569116D01*
X130612072Y-35769216D01*
X130405755Y-34921899D01*
X130286431Y-34486429D01*
X129698049Y-32729716D01*
X128946675Y-31042481D01*
X128040706Y-29434679D01*
X126988538Y-27916267D01*
X125798565Y-26497198D01*
X124479184Y-25187429D01*
X123038790Y-23996914D01*
X121485780Y-22935611D01*
X119828547Y-22013473D01*
X119724176Y-21961901D01*
X118054552Y-21220821D01*
X116391159Y-20644210D01*
X114700889Y-20223769D01*
X112950636Y-19951199D01*
X111182500Y-19820918D01*
X109250241Y-19837548D01*
X107346177Y-20030592D01*
X105480460Y-20395935D01*
X103663246Y-20929461D01*
X101904689Y-21627055D01*
X100214943Y-22484601D01*
X98604163Y-23497985D01*
X97082502Y-24663090D01*
X95660116Y-25975802D01*
X95441083Y-26200657D01*
X94186171Y-27634374D01*
X93089513Y-29156069D01*
X92150648Y-30766674D01*
X91369117Y-32467121D01*
X90744462Y-34258340D01*
X90276222Y-36141263D01*
X90122571Y-36981072D01*
X90031702Y-37718961D01*
X89974522Y-38583597D01*
X89950652Y-39523525D01*
X88415701Y-39523525D01*
X88432571Y-38701086D01*
X88474821Y-37867873D01*
X88540978Y-37143902D01*
X88579920Y-36857717D01*
X88975287Y-34876630D01*
X89533492Y-32975371D01*
X90253697Y-31155547D01*
X91135065Y-29418768D01*
X92176757Y-27766642D01*
X93377936Y-26200778D01*
X94737764Y-24722786D01*
X95068925Y-24399232D01*
X96566035Y-23088884D01*
X98166000Y-21926695D01*
X99863225Y-20915374D01*
X101652115Y-20057633D01*
X103527075Y-19356181D01*
X105482512Y-18813730D01*
X107327143Y-18460568D01*
X107877592Y-18396674D01*
X108563522Y-18347935D01*
X109342117Y-18314675D01*
X110170558Y-18297219D01*
X111006029Y-18295891D01*
X111805711Y-18311016D01*
G37*
G04 #@! TD.AperFunction*
D12*
X93000000Y-70300000D03*
X93000000Y-73500000D03*
X97900000Y-73500000D03*
X97900000Y-70300000D03*
X124400000Y-69300000D03*
X124400000Y-72500000D03*
X129300000Y-72500000D03*
X129300000Y-69300000D03*
D13*
X109460000Y-177000000D03*
X109460000Y-174460000D03*
X109460000Y-171920000D03*
X109460000Y-169380000D03*
X109460000Y-166840000D03*
X109460000Y-164300000D03*
X109460000Y-161760000D03*
X109460000Y-159220000D03*
X109460000Y-156680000D03*
X112000000Y-156680000D03*
X114540000Y-156680000D03*
X117080000Y-156680000D03*
X119620000Y-156680000D03*
X122160000Y-156680000D03*
X124700000Y-156680000D03*
X124700000Y-159220000D03*
X124700000Y-161760000D03*
X124700000Y-164300000D03*
X124700000Y-166840000D03*
X124700000Y-169380000D03*
X124700000Y-171920000D03*
X124700000Y-174460000D03*
X124700000Y-177000000D03*
D14*
X107980000Y-119700000D03*
X110520000Y-119700000D03*
X113060000Y-119700000D03*
X115600000Y-119700000D03*
D15*
X130700000Y-155200000D03*
X137200000Y-155200000D03*
X130700000Y-159700000D03*
X137200000Y-159700000D03*
X78600000Y-161800000D03*
X85100000Y-161800000D03*
X78600000Y-166300000D03*
X85100000Y-166300000D03*
X87400000Y-171700000D03*
X93900000Y-171700000D03*
X87400000Y-176200000D03*
X93900000Y-176200000D03*
D16*
X81900000Y-139100000D03*
D17*
X81900000Y-141100000D03*
X81900000Y-143100000D03*
X81900000Y-145100000D03*
D15*
X87400000Y-152100000D03*
X93900000Y-152100000D03*
X87400000Y-156600000D03*
X93900000Y-156600000D03*
X95400000Y-161800000D03*
X101900000Y-161800000D03*
X95400000Y-166300000D03*
X101900000Y-166300000D03*
X136300000Y-166000000D03*
X142800000Y-166000000D03*
X136300000Y-170500000D03*
X142800000Y-170500000D03*
D18*
X137500000Y-136900000D03*
D15*
X142500000Y-136900000D03*
D19*
X102000000Y-127500000D03*
X95700000Y-73500000D03*
X127000000Y-72500000D03*
X122900000Y-134600000D03*
X120000000Y-174500000D03*
X111600000Y-177900000D03*
X98700000Y-161800000D03*
X93000000Y-71900000D03*
X124400000Y-70900000D03*
X96400000Y-70300000D03*
X127600000Y-69300000D03*
X95400000Y-71100000D03*
X118700000Y-161800000D03*
D20*
X98700000Y-163100000D02*
X101900000Y-166300000D01*
X87400000Y-156600000D02*
X93900000Y-156600000D01*
D21*
X102000000Y-127500000D02*
X102000000Y-122300000D01*
D20*
X130700000Y-155200000D02*
X137200000Y-155200000D01*
X98700000Y-161800000D02*
X98700000Y-163100000D01*
D21*
X127000000Y-72500000D02*
X129300000Y-72500000D01*
D20*
X120040000Y-174460000D02*
X124700000Y-174460000D01*
D21*
X107980000Y-119700000D02*
X122880000Y-134600000D01*
D20*
X120000000Y-174500000D02*
X115000000Y-174500000D01*
X115000000Y-174500000D02*
X111600000Y-177900000D01*
X120000000Y-174500000D02*
X120040000Y-174460000D01*
D21*
X104600000Y-119700000D02*
X107980000Y-119700000D01*
X122880000Y-134600000D02*
X122900000Y-134600000D01*
X95700000Y-73500000D02*
X97900000Y-73500000D01*
X102000000Y-122300000D02*
X104600000Y-119700000D01*
D20*
X87400000Y-176200000D02*
X93900000Y-176200000D01*
X95400000Y-166300000D02*
X101900000Y-166300000D01*
X136300000Y-166000000D02*
X142800000Y-166000000D01*
X78600000Y-166300000D02*
X85100000Y-166300000D01*
D21*
X93000000Y-71900000D02*
X93000000Y-70300000D01*
X124400000Y-70900000D02*
X124400000Y-69300000D01*
D22*
X96400000Y-70300000D02*
X97900000Y-70300000D01*
X93000000Y-73500000D02*
X95400000Y-71100000D01*
X129300000Y-69300000D02*
X127600000Y-69300000D01*
D20*
X111080000Y-158300000D02*
X109460000Y-156680000D01*
X115900000Y-158300000D02*
X111080000Y-158300000D01*
X118700000Y-161800000D02*
X118700000Y-161100000D01*
X118700000Y-161100000D02*
X115900000Y-158300000D01*
X87400000Y-152100000D02*
X93900000Y-152100000D01*
X78600000Y-161800000D02*
X85100000Y-161800000D01*
X87400000Y-171700000D02*
X93900000Y-171700000D01*
X95400000Y-161800000D02*
X96500000Y-161800000D01*
X101100000Y-161000000D02*
X101900000Y-161800000D01*
X97300000Y-161000000D02*
X101100000Y-161000000D01*
X96500000Y-161800000D02*
X97300000Y-161000000D01*
X130700000Y-159700000D02*
X137200000Y-159700000D01*
X136300000Y-170500000D02*
X142800000Y-170500000D01*
G04 #@! TA.AperFunction,Conductor*
G36*
X123511905Y-157353515D02*
G01*
X123533804Y-157378787D01*
X123624278Y-157517268D01*
X123624283Y-157517273D01*
X123624284Y-157517276D01*
X123761657Y-157666500D01*
X123776760Y-157682906D01*
X123954424Y-157821189D01*
X123954429Y-157821191D01*
X123954431Y-157821193D01*
X123990930Y-157840946D01*
X124040520Y-157890165D01*
X124055628Y-157958382D01*
X124031457Y-158023937D01*
X123990930Y-158059054D01*
X123954431Y-158078806D01*
X123954422Y-158078812D01*
X123776761Y-158217092D01*
X123776756Y-158217097D01*
X123624284Y-158382723D01*
X123624276Y-158382734D01*
X123501140Y-158571207D01*
X123410703Y-158777385D01*
X123355436Y-158995628D01*
X123355434Y-158995640D01*
X123336844Y-159219994D01*
X123336844Y-159220005D01*
X123355434Y-159444359D01*
X123355436Y-159444371D01*
X123410703Y-159662614D01*
X123501140Y-159868792D01*
X123624276Y-160057265D01*
X123624284Y-160057276D01*
X123766244Y-160211483D01*
X123776760Y-160222906D01*
X123954424Y-160361189D01*
X123954429Y-160361191D01*
X123954431Y-160361193D01*
X123990930Y-160380946D01*
X124040520Y-160430165D01*
X124055628Y-160498382D01*
X124031457Y-160563937D01*
X123990930Y-160599054D01*
X123954431Y-160618806D01*
X123954422Y-160618812D01*
X123776761Y-160757092D01*
X123776756Y-160757097D01*
X123624284Y-160922723D01*
X123624276Y-160922734D01*
X123501140Y-161111207D01*
X123410703Y-161317385D01*
X123355436Y-161535628D01*
X123355434Y-161535640D01*
X123336844Y-161759994D01*
X123336844Y-161760005D01*
X123355434Y-161984359D01*
X123355436Y-161984371D01*
X123410703Y-162202614D01*
X123501140Y-162408792D01*
X123624276Y-162597265D01*
X123624284Y-162597276D01*
X123776756Y-162762902D01*
X123776760Y-162762906D01*
X123954424Y-162901189D01*
X123954429Y-162901191D01*
X123954431Y-162901193D01*
X123990930Y-162920946D01*
X124040520Y-162970165D01*
X124055628Y-163038382D01*
X124031457Y-163103937D01*
X123990930Y-163139054D01*
X123954431Y-163158806D01*
X123954422Y-163158812D01*
X123776761Y-163297092D01*
X123776756Y-163297097D01*
X123624284Y-163462723D01*
X123624276Y-163462734D01*
X123501140Y-163651207D01*
X123410703Y-163857385D01*
X123355436Y-164075628D01*
X123355434Y-164075640D01*
X123336844Y-164299994D01*
X123336844Y-164300005D01*
X123355434Y-164524359D01*
X123355436Y-164524371D01*
X123410703Y-164742614D01*
X123501140Y-164948792D01*
X123624276Y-165137265D01*
X123624284Y-165137276D01*
X123776756Y-165302902D01*
X123776760Y-165302906D01*
X123954424Y-165441189D01*
X123954429Y-165441191D01*
X123954431Y-165441193D01*
X123990930Y-165460946D01*
X124040520Y-165510165D01*
X124055628Y-165578382D01*
X124031457Y-165643937D01*
X123990930Y-165679054D01*
X123954431Y-165698806D01*
X123954422Y-165698812D01*
X123776761Y-165837092D01*
X123776756Y-165837097D01*
X123624284Y-166002723D01*
X123624276Y-166002734D01*
X123501140Y-166191207D01*
X123410703Y-166397385D01*
X123355436Y-166615628D01*
X123355434Y-166615640D01*
X123336844Y-166839994D01*
X123336844Y-166840005D01*
X123355434Y-167064359D01*
X123355436Y-167064371D01*
X123410703Y-167282614D01*
X123501140Y-167488792D01*
X123624276Y-167677265D01*
X123624284Y-167677276D01*
X123776756Y-167842902D01*
X123776760Y-167842906D01*
X123954424Y-167981189D01*
X123954429Y-167981191D01*
X123954431Y-167981193D01*
X123990930Y-168000946D01*
X124040520Y-168050165D01*
X124055628Y-168118382D01*
X124031457Y-168183937D01*
X123990930Y-168219054D01*
X123954431Y-168238806D01*
X123954422Y-168238812D01*
X123776761Y-168377092D01*
X123776756Y-168377097D01*
X123624284Y-168542723D01*
X123624276Y-168542734D01*
X123501140Y-168731207D01*
X123410703Y-168937385D01*
X123355436Y-169155628D01*
X123355434Y-169155640D01*
X123336844Y-169379994D01*
X123336844Y-169380005D01*
X123355434Y-169604359D01*
X123355436Y-169604371D01*
X123410703Y-169822614D01*
X123501140Y-170028792D01*
X123624276Y-170217265D01*
X123624284Y-170217276D01*
X123776756Y-170382902D01*
X123776760Y-170382906D01*
X123954424Y-170521189D01*
X123954429Y-170521191D01*
X123954431Y-170521193D01*
X123990930Y-170540946D01*
X124040520Y-170590165D01*
X124055628Y-170658382D01*
X124031457Y-170723937D01*
X123990930Y-170759054D01*
X123954431Y-170778806D01*
X123954422Y-170778812D01*
X123776761Y-170917092D01*
X123776756Y-170917097D01*
X123624284Y-171082723D01*
X123624276Y-171082734D01*
X123501140Y-171271207D01*
X123410703Y-171477385D01*
X123355436Y-171695628D01*
X123355434Y-171695640D01*
X123336844Y-171919994D01*
X123336844Y-171920005D01*
X123355434Y-172144359D01*
X123355436Y-172144371D01*
X123410703Y-172362614D01*
X123501140Y-172568792D01*
X123624276Y-172757265D01*
X123624284Y-172757276D01*
X123776756Y-172922902D01*
X123776760Y-172922906D01*
X123954424Y-173061189D01*
X123990930Y-173080945D01*
X123997695Y-173084606D01*
X124047286Y-173133825D01*
X124062394Y-173202042D01*
X124038224Y-173267597D01*
X124009802Y-173295236D01*
X123828922Y-173421890D01*
X123828920Y-173421891D01*
X123661891Y-173588920D01*
X123661886Y-173588926D01*
X123526400Y-173782420D01*
X123526399Y-173782422D01*
X123426570Y-173996507D01*
X123426567Y-173996513D01*
X123369364Y-174209999D01*
X123369364Y-174210000D01*
X124266988Y-174210000D01*
X124234075Y-174267007D01*
X124200000Y-174394174D01*
X124200000Y-174525826D01*
X124234075Y-174652993D01*
X124266988Y-174710000D01*
X123369364Y-174710000D01*
X123426567Y-174923486D01*
X123426570Y-174923492D01*
X123526399Y-175137578D01*
X123661894Y-175331082D01*
X123828917Y-175498105D01*
X124009802Y-175624763D01*
X124053427Y-175679340D01*
X124060619Y-175748839D01*
X124029097Y-175811193D01*
X123997697Y-175835392D01*
X123954427Y-175858809D01*
X123954422Y-175858812D01*
X123776761Y-175997092D01*
X123776756Y-175997097D01*
X123624284Y-176162723D01*
X123624276Y-176162734D01*
X123501140Y-176351207D01*
X123410703Y-176557385D01*
X123355436Y-176775628D01*
X123355434Y-176775640D01*
X123336844Y-176999994D01*
X123336844Y-177000005D01*
X123355434Y-177224359D01*
X123355436Y-177224371D01*
X123410703Y-177442614D01*
X123501140Y-177648792D01*
X123624276Y-177837265D01*
X123624284Y-177837276D01*
X123761761Y-177986613D01*
X123776760Y-178002906D01*
X123954424Y-178141189D01*
X123954425Y-178141189D01*
X123954427Y-178141191D01*
X124081135Y-178209761D01*
X124152426Y-178248342D01*
X124196504Y-178263474D01*
X124213821Y-178269419D01*
X124270837Y-178309804D01*
X124296968Y-178374603D01*
X124283917Y-178443243D01*
X124235828Y-178493931D01*
X124174248Y-178510698D01*
X109674907Y-178591250D01*
X109607759Y-178571938D01*
X109561712Y-178519389D01*
X109551384Y-178450287D01*
X109580055Y-178386571D01*
X109638623Y-178348471D01*
X109653800Y-178344944D01*
X109794635Y-178321444D01*
X110007574Y-178248342D01*
X110205576Y-178141189D01*
X110383240Y-178002906D01*
X110535722Y-177837268D01*
X110658860Y-177648791D01*
X110749296Y-177442616D01*
X110804564Y-177224368D01*
X110823156Y-177000000D01*
X110822045Y-176986597D01*
X110804565Y-176775640D01*
X110804563Y-176775628D01*
X110749296Y-176557385D01*
X110739675Y-176535452D01*
X110658860Y-176351209D01*
X110649106Y-176336280D01*
X110535723Y-176162734D01*
X110535715Y-176162723D01*
X110383243Y-175997097D01*
X110383238Y-175997092D01*
X110205577Y-175858812D01*
X110205578Y-175858812D01*
X110205576Y-175858811D01*
X110169070Y-175839055D01*
X110119479Y-175789836D01*
X110104371Y-175721619D01*
X110128541Y-175656064D01*
X110169070Y-175620945D01*
X110169084Y-175620936D01*
X110205576Y-175601189D01*
X110383240Y-175462906D01*
X110535722Y-175297268D01*
X110658860Y-175108791D01*
X110749296Y-174902616D01*
X110804564Y-174684368D01*
X110812715Y-174586000D01*
X110823156Y-174460005D01*
X110823156Y-174459994D01*
X110804565Y-174235640D01*
X110804563Y-174235628D01*
X110749296Y-174017385D01*
X110740138Y-173996507D01*
X110658860Y-173811209D01*
X110655580Y-173806189D01*
X110535723Y-173622734D01*
X110535715Y-173622723D01*
X110383243Y-173457097D01*
X110383238Y-173457092D01*
X110205577Y-173318812D01*
X110205578Y-173318812D01*
X110205576Y-173318811D01*
X110169070Y-173299055D01*
X110119479Y-173249836D01*
X110104371Y-173181619D01*
X110128541Y-173116064D01*
X110169070Y-173080945D01*
X110169084Y-173080936D01*
X110205576Y-173061189D01*
X110383240Y-172922906D01*
X110535722Y-172757268D01*
X110658860Y-172568791D01*
X110749296Y-172362616D01*
X110804564Y-172144368D01*
X110823156Y-171920000D01*
X110804564Y-171695632D01*
X110749296Y-171477384D01*
X110658860Y-171271209D01*
X110649106Y-171256280D01*
X110535723Y-171082734D01*
X110535715Y-171082723D01*
X110383243Y-170917097D01*
X110383238Y-170917092D01*
X110205577Y-170778812D01*
X110205578Y-170778812D01*
X110205576Y-170778811D01*
X110169070Y-170759055D01*
X110119479Y-170709836D01*
X110104371Y-170641619D01*
X110128541Y-170576064D01*
X110169070Y-170540945D01*
X110169084Y-170540936D01*
X110205576Y-170521189D01*
X110383240Y-170382906D01*
X110535722Y-170217268D01*
X110658860Y-170028791D01*
X110749296Y-169822616D01*
X110804564Y-169604368D01*
X110823156Y-169380000D01*
X110804564Y-169155632D01*
X110749296Y-168937384D01*
X110658860Y-168731209D01*
X110649106Y-168716280D01*
X110535723Y-168542734D01*
X110535715Y-168542723D01*
X110383243Y-168377097D01*
X110383238Y-168377092D01*
X110205577Y-168238812D01*
X110205578Y-168238812D01*
X110205576Y-168238811D01*
X110169070Y-168219055D01*
X110119479Y-168169836D01*
X110104371Y-168101619D01*
X110128541Y-168036064D01*
X110169070Y-168000945D01*
X110169084Y-168000936D01*
X110205576Y-167981189D01*
X110383240Y-167842906D01*
X110535722Y-167677268D01*
X110658860Y-167488791D01*
X110749296Y-167282616D01*
X110804564Y-167064368D01*
X110823156Y-166840000D01*
X110804564Y-166615632D01*
X110749296Y-166397384D01*
X110658860Y-166191209D01*
X110649106Y-166176280D01*
X110535723Y-166002734D01*
X110535715Y-166002723D01*
X110383243Y-165837097D01*
X110383238Y-165837092D01*
X110205577Y-165698812D01*
X110205578Y-165698812D01*
X110205576Y-165698811D01*
X110169070Y-165679055D01*
X110119479Y-165629836D01*
X110104371Y-165561619D01*
X110128541Y-165496064D01*
X110169070Y-165460945D01*
X110169084Y-165460936D01*
X110205576Y-165441189D01*
X110383240Y-165302906D01*
X110535722Y-165137268D01*
X110658860Y-164948791D01*
X110749296Y-164742616D01*
X110804564Y-164524368D01*
X110823156Y-164300000D01*
X110804564Y-164075632D01*
X110749296Y-163857384D01*
X110658860Y-163651209D01*
X110649106Y-163636280D01*
X110535723Y-163462734D01*
X110535715Y-163462723D01*
X110383243Y-163297097D01*
X110383238Y-163297092D01*
X110205577Y-163158812D01*
X110205578Y-163158812D01*
X110205576Y-163158811D01*
X110169070Y-163139055D01*
X110119479Y-163089836D01*
X110104371Y-163021619D01*
X110128541Y-162956064D01*
X110169070Y-162920945D01*
X110169084Y-162920936D01*
X110205576Y-162901189D01*
X110383240Y-162762906D01*
X110482614Y-162654957D01*
X110535715Y-162597276D01*
X110535717Y-162597273D01*
X110535722Y-162597268D01*
X110658860Y-162408791D01*
X110749296Y-162202616D01*
X110804564Y-161984368D01*
X110804839Y-161981047D01*
X110823156Y-161760005D01*
X110823156Y-161759994D01*
X110804565Y-161535640D01*
X110804563Y-161535628D01*
X110749296Y-161317385D01*
X110737331Y-161290108D01*
X110658860Y-161111209D01*
X110649106Y-161096280D01*
X110535723Y-160922734D01*
X110535715Y-160922723D01*
X110383243Y-160757097D01*
X110383238Y-160757092D01*
X110205577Y-160618812D01*
X110205578Y-160618812D01*
X110205576Y-160618811D01*
X110169070Y-160599055D01*
X110119479Y-160549836D01*
X110104371Y-160481619D01*
X110128541Y-160416064D01*
X110169070Y-160380945D01*
X110169084Y-160380936D01*
X110205576Y-160361189D01*
X110383240Y-160222906D01*
X110535722Y-160057268D01*
X110658860Y-159868791D01*
X110749296Y-159662616D01*
X110804564Y-159444368D01*
X110804565Y-159444359D01*
X110823156Y-159220005D01*
X110823156Y-159219994D01*
X110809345Y-159053324D01*
X110823426Y-158984888D01*
X110872271Y-158934929D01*
X110940372Y-158919308D01*
X110957109Y-158921466D01*
X111017604Y-158933499D01*
X111017605Y-158933500D01*
X111017606Y-158933500D01*
X115586234Y-158933500D01*
X115653273Y-158953185D01*
X115673915Y-158969819D01*
X117968082Y-161263986D01*
X118001567Y-161325309D01*
X117996583Y-161395001D01*
X117985397Y-161417635D01*
X117966958Y-161446982D01*
X117906782Y-161618953D01*
X117906781Y-161618958D01*
X117886384Y-161799996D01*
X117886384Y-161800003D01*
X117906781Y-161981041D01*
X117906782Y-161981046D01*
X117947949Y-162098693D01*
X117966957Y-162153015D01*
X118063889Y-162307281D01*
X118192719Y-162436111D01*
X118346985Y-162533043D01*
X118518953Y-162593217D01*
X118518958Y-162593218D01*
X118699996Y-162613616D01*
X118700000Y-162613616D01*
X118700004Y-162613616D01*
X118881041Y-162593218D01*
X118881044Y-162593217D01*
X118881047Y-162593217D01*
X119053015Y-162533043D01*
X119207281Y-162436111D01*
X119336111Y-162307281D01*
X119433043Y-162153015D01*
X119493217Y-161981047D01*
X119493218Y-161981041D01*
X119513616Y-161800003D01*
X119513616Y-161799996D01*
X119493218Y-161618958D01*
X119493217Y-161618953D01*
X119433043Y-161446985D01*
X119352506Y-161318811D01*
X119333500Y-161252839D01*
X119333500Y-161037605D01*
X119333499Y-161037601D01*
X119314352Y-160941343D01*
X119309155Y-160915215D01*
X119261400Y-160799925D01*
X119261399Y-160799924D01*
X119261396Y-160799918D01*
X119192072Y-160696168D01*
X119192071Y-160696167D01*
X119103833Y-160607929D01*
X117940263Y-159444359D01*
X116721372Y-158225467D01*
X116687887Y-158164144D01*
X116692871Y-158094452D01*
X116734743Y-158038519D01*
X116800207Y-158014102D01*
X116829459Y-158015476D01*
X116967431Y-158038500D01*
X116967432Y-158038500D01*
X117192569Y-158038500D01*
X117414635Y-158001444D01*
X117627574Y-157928342D01*
X117825576Y-157821189D01*
X118003240Y-157682906D01*
X118155722Y-157517268D01*
X118246193Y-157378790D01*
X118299338Y-157333437D01*
X118368569Y-157324013D01*
X118431905Y-157353515D01*
X118453804Y-157378787D01*
X118544278Y-157517268D01*
X118544283Y-157517273D01*
X118544284Y-157517276D01*
X118681657Y-157666500D01*
X118696760Y-157682906D01*
X118874424Y-157821189D01*
X118874425Y-157821189D01*
X118874427Y-157821191D01*
X118975824Y-157876064D01*
X119072426Y-157928342D01*
X119285365Y-158001444D01*
X119507431Y-158038500D01*
X119732569Y-158038500D01*
X119954635Y-158001444D01*
X120167574Y-157928342D01*
X120365576Y-157821189D01*
X120543240Y-157682906D01*
X120695722Y-157517268D01*
X120786193Y-157378790D01*
X120839338Y-157333437D01*
X120908569Y-157324013D01*
X120971905Y-157353515D01*
X120993804Y-157378787D01*
X121084278Y-157517268D01*
X121084283Y-157517273D01*
X121084284Y-157517276D01*
X121221657Y-157666500D01*
X121236760Y-157682906D01*
X121414424Y-157821189D01*
X121414425Y-157821189D01*
X121414427Y-157821191D01*
X121515824Y-157876064D01*
X121612426Y-157928342D01*
X121825365Y-158001444D01*
X122047431Y-158038500D01*
X122272569Y-158038500D01*
X122494635Y-158001444D01*
X122707574Y-157928342D01*
X122905576Y-157821189D01*
X123083240Y-157682906D01*
X123235722Y-157517268D01*
X123326193Y-157378790D01*
X123379338Y-157333437D01*
X123448569Y-157324013D01*
X123511905Y-157353515D01*
G37*
G04 #@! TD.AperFunction*
M02*
